999
dxfrw 0.6.3
  0
SECTION
  2
HEADER
  9
$ACADVER
  1
AC1021
  9
$DWGCODEPAGE
  3
ANSI_1252
  9
$INSBASE
 10
0
 20
0
 30
0
  9
$EXTMIN
 10
-60
 20
-56.96152422710018
 30
0
  9
$EXTMAX
 10
30
 20
51.9615242271
 30
0
  9
$LIMMIN
 10
0
 20
0
  9
$LIMMAX
 10
420
 20
297
  9
$ORTHOMODE
 70
    0
  9
$REGENMODE
 70
    1
  9
$FILLMODE
 70
    1
  9
$QTEXTMODE
 70
    0
  9
$MIRRTEXT
 70
    0
  9
$LTSCALE
 40
1
  9
$ATTMODE
 70
    0
  9
$TEXTSIZE
 40
2.5
  9
$TRACEWID
 40
15.68
  9
$TEXTSTYLE
  7
STANDARD
  9
$CLAYER
  8
0
  9
$CELTYPE
  6
BYLAYER
  9
$CECOLOR
 62
  256
  9
$CELTSCALE
 40
1
  9
$DISPSILH
 70
    0
  9
$DIMSCALE
 40
2.5
  9
$DIMASZ
 40
2.5
  9
$DIMEXO
 40
0.625
  9
$DIMDLI
 40
3.75
  9
$DIMRND
 40
0
  9
$DIMDLE
 40
0
  9
$DIMEXE
 40
1.25
  9
$DIMTP
 40
0
  9
$DIMTM
 40
0
  9
$DIMTXT
 40
2.5
  9
$DIMCEN
 40
2.5
  9
$DIMTSZ
 40
0
  9
$DIMTOL
 70
    0
  9
$DIMLIM
 70
    0
  9
$DIMTIH
 70
    0
  9
$DIMTOH
 70
    0
  9
$DIMSE1
 70
    0
  9
$DIMSE2
 70
    0
  9
$DIMTAD
 70
    1
  9
$DIMZIN
 70
    8
  9
$DIMBLK
  1

  9
$DIMASO
 70
    1
  9
$DIMSHO
 70
    1
  9
$DIMPOST
  1

  9
$DIMAPOST
  1

  9
$DIMALT
 70
    0
  9
$DIMALTD
 70
    3
  9
$DIMALTF
 40
0.03937
  9
$DIMLFAC
 40
1
  9
$DIMTOFL
 70
    1
  9
$DIMTVP
 40
0
  9
$DIMTIX
 70
    0
  9
$DIMSOXD
 70
    0
  9
$DIMSAH
 70
    0
  9
$DIMBLK1
  1

  9
$DIMBLK2
  1

  9
$DIMSTYLE
  2
Standard
  9
$DIMCLRD
 70
    0
  9
$DIMCLRE
 70
    0
  9
$DIMCLRT
 70
    0
  9
$DIMTFAC
 40
1
  9
$DIMGAP
 40
0.625
  9
$DIMJUST
 70
    0
  9
$DIMSD1
 70
    0
  9
$DIMSD2
 70
    0
  9
$DIMTOLJ
 70
    0
  9
$DIMTZIN
 70
    8
  9
$DIMALTZ
 70
    0
  9
$DIMALTTZ
 70
    0
  9
$DIMUPT
 70
    0
  9
$DIMDEC
 70
    2
  9
$DIMTDEC
 70
    2
  9
$DIMALTU
 70
    2
  9
$DIMALTTD
 70
    3
  9
$DIMTXSTY
  7
STANDARD
  9
$DIMAUNIT
 70
    0
  9
$DIMADEC
 70
    0
  9
$DIMALTRND
 40
0
  9
$DIMAZIN
 70
    0
  9
$DIMDSEP
 70
   44
  9
$DIMATFIT
 70
    3
  9
$DIMFRAC
 70
    0
  9
$DIMLDRBLK
  1
STANDARD
  9
$DIMLUNIT
 70
    2
  9
$DIMLWD
 70
   -2
  9
$DIMLWE
 70
   -2
  9
$DIMTMOVE
 70
    0
  9
$DIMFXL
 40
1
  9
$DIMFXLON
 70
    0
  9
$DIMJOGANG
 40
0.7854
  9
$DIMTFILL
 70
    0
  9
$DIMTFILLCLR
 70
    0
  9
$DIMARCSYM
 70
    0
  9
$DIMLTYPE
  6

  9
$DIMLTEX1
  6

  9
$DIMLTEX2
  6

  9
$LUNITS
 70
    2
  9
$LUPREC
 70
    4
  9
$SKETCHINC
 40
1
  9
$FILLETRAD
 40
0
  9
$AUNITS
 70
    0
  9
$AUPREC
 70
    2
  9
$MENU
  1
.
  9
$ELEVATION
 40
0
  9
$PELEVATION
 40
0
  9
$THICKNESS
 40
0
  9
$LIMCHECK
 70
    0
  9
$CHAMFERA
 40
0
  9
$CHAMFERB
 40
0
  9
$CHAMFERC
 40
0
  9
$CHAMFERD
 40
0
  9
$SKPOLY
 70
    0
  9
$USRTIMER
 70
    1
  9
$ANGBASE
 50
0
  9
$ANGDIR
 70
    0
  9
$PDMODE
 70
   34
  9
$PDSIZE
 40
0
  9
$PLINEWID
 40
0
  9
$SPLFRAME
 70
    0
  9
$SPLINETYPE
 70
    2
  9
$SPLINESEGS
 70
    8
  9
$HANDSEED
  5
20000
  9
$SURFTAB1
 70
    6
  9
$SURFTAB2
 70
    6
  9
$SURFTYPE
 70
    6
  9
$SURFU
 70
    6
  9
$SURFV
 70
    6
  9
$UCSBASE
  2

  9
$UCSNAME
  2

  9
$UCSORG
 10
0
 20
0
 30
0
  9
$UCSXDIR
 10
1
 20
0
 30
0
  9
$UCSYDIR
 10
0
 20
1
 30
0
  9
$UCSORTHOREF
  2

  9
$UCSORTHOVIEW
 70
    0
  9
$UCSORGTOP
 10
0
 20
0
 30
0
  9
$UCSORGBOTTOM
 10
0
 20
0
 30
0
  9
$UCSORGLEFT
 10
0
 20
0
 30
0
  9
$UCSORGRIGHT
 10
0
 20
0
 30
0
  9
$UCSORGFRONT
 10
0
 20
0
 30
0
  9
$UCSORGBACK
 10
0
 20
0
 30
0
  9
$PUCSBASE
  2

  9
$PUCSNAME
  2

  9
$PUCSORG
 10
0
 20
0
 30
0
  9
$PUCSXDIR
 10
1
 20
0
 30
0
  9
$PUCSYDIR
 10
0
 20
1
 30
0
  9
$PUCSORTHOREF
  2

  9
$PUCSORTHOVIEW
 70
    0
  9
$PUCSORGTOP
 10
0
 20
0
 30
0
  9
$PUCSORGBOTTOM
 10
0
 20
0
 30
0
  9
$PUCSORGLEFT
 10
0
 20
0
 30
0
  9
$PUCSORGRIGHT
 10
0
 20
0
 30
0
  9
$PUCSORGFRONT
 10
0
 20
0
 30
0
  9
$PUCSORGBACK
 10
0
 20
0
 30
0
  9
$USERI1
 70
    0
  9
$USERI2
 70
    0
  9
$USERI3
 70
    0
  9
$USERI4
 70
    0
  9
$USERI5
 70
    0
  9
$USERR1
 40
0
  9
$USERR2
 40
0
  9
$USERR3
 40
0
  9
$USERR4
 40
0
  9
$USERR5
 40
0
  9
$WORLDVIEW
 70
    1
  9
$SHADEDGE
 70
    3
  9
$SHADEDIF
 70
   70
  9
$TILEMODE
 70
    1
  9
$MAXACTVP
 70
   64
  9
$PINSBASE
 10
0
 20
0
 30
0
  9
$PLIMCHECK
 70
    0
  9
$PEXTMIN
 10
0
 20
0
 30
0
  9
$PEXTMAX
 10
0
 20
0
 30
0
  9
$GRIDMODE
 70
    1
  9
$SNAPSTYLE
 70
    0
  9
$PLIMMIN
 10
0
 20
0
  9
$PLIMMAX
 10
210
 20
297
  9
$UNITMODE
 70
    0
  9
$VISRETAIN
 70
    1
  9
$PLINEGEN
 70
    0
  9
$PSLTSCALE
 70
    1
  9
$TREEDEPTH
 70
 3020
  9
$CMLSTYLE
  2
Standard
  9
$CMLJUST
 70
    0
  9
$CMLSCALE
 40
20
  9
$PROXYGRAPHICS
 70
    1
  9
$MEASUREMENT
 70
    1
  9
$CELWEIGHT
370
   -1
  9
$ENDCAPS
280
    0
  9
$JOINSTYLE
280
    0
  9
$LWDISPLAY
290
    0
  9
$INSUNITS
 70
    4
  9
$HYPERLINKBASE
  1

  9
$STYLESHEET
  1

  9
$XEDIT
290
    1
  9
$CEPSNTYPE
380
    0
  9
$PSTYLEMODE
290
    1
  9
$EXTNAMES
290
    1
  9
$PSVPSCALE
 40
1
  9
$OLESTARTUP
290
    0
  9
$SORTENTS
280
  127
  9
$INDEXCTL
280
    0
  9
$HIDETEXT
280
    1
  9
$XCLIPFRAME
290
    0
  9
$HALOGAP
280
    0
  9
$OBSCOLOR
 70
  257
  9
$OBSLTYPE
280
    0
  9
$INTERSECTIONDISPLAY
280
    0
  9
$INTERSECTIONCOLOR
 70
  257
  9
$DIMASSOC
280
    1
  9
$PROJECTNAME
  1

  9
$CAMERADISPLAY
290
    0
  9
$LENSLENGTH
 40
50
  9
$CAMERAHEIGHT
 40
0
  9
$STEPSPERSEC
 40
2
  9
$STEPSIZE
 40
50
  9
$3DDWFPREC
 40
2
  9
$PSOLWIDTH
 40
5
  9
$PSOLHEIGHT
 40
80
  9
$LOFTANG1
 40
1.570796326794897
  9
$LOFTANG2
 40
1.570796326794897
  9
$LOFTMAG1
 40
0
  9
$LOFTMAG2
 40
0
  9
$LOFTPARAM
 70
    7
  9
$LOFTNORMALS
280
    1
  9
$LATITUDE
 40
1
  9
$LONGITUDE
 40
1
  9
$NORTHDIRECTION
 40
0
  9
$TIMEZONE
 70
-8000
  9
$LIGHTGLYPHDISPLAY
280
    1
  9
$TILEMODELIGHTSYNCH
280
    1
  9
$SOLIDHIST
280
    1
  9
$SHOWHIST
280
    1
  9
$DWFFRAME
280
    2
  9
$DGNFRAME
280
    0
  9
$REALWORLDSCALE
290
    1
  9
$INTERFERECOLOR
 62
    1
  9
$CSHADOW
280
    0
  9
$SHADOWPLANELOCATION
 40
0
  0
ENDSEC
  0
SECTION
  2
CLASSES
  0
ENDSEC
  0
SECTION
  2
TABLES
  0
TABLE
  2
VPORT
  5
8
330
0
100
AcDbSymbolTable
 70
    1
  0
VPORT
  5
31
330
2
100
AcDbSymbolTableRecord
100
AcDbViewportTableRecord
  2
*ACTIVE
 70
    0
 10
0
 20
0
 11
1
 21
1
 12
-551.8673936305754
 22
-343.0398666075685
 13
0
 23
0
 14
10
 24
10
 15
10
 25
10
 16
0
 26
0
 36
1
 17
0
 27
0
 37
0
 40
10.44975851038327
 41
2.540106951871658
 42
50
 43
0
 44
0
 50
0
 51
0
 71
    0
 72
  100
 73
    1
 74
    3
 75
    0
 76
    1
 77
    0
 78
    0
281
    0
 65
    1
110
0
120
0
130
0
111
1
121
0
131
0
112
0
122
1
132
0
 79
    0
146
0
348
10020
 60
    7
 61
    5
292
1
282
    1
141
0
142
0
 63
  250
421
3358443
  0
ENDTAB
  0
TABLE
  2
LTYPE
  5
5
330
0
100
AcDbSymbolTable
 70
    4
  0
LTYPE
  5
14
330
5
100
AcDbSymbolTableRecord
100
AcDbLinetypeTableRecord
  2
ByBlock
 70
    0
  3

 72
   65
 73
    0
 40
0
  0
LTYPE
  5
15
330
5
100
AcDbSymbolTableRecord
100
AcDbLinetypeTableRecord
  2
ByLayer
 70
    0
  3

 72
   65
 73
    0
 40
0
  0
LTYPE
  5
16
330
5
100
AcDbSymbolTableRecord
100
AcDbLinetypeTableRecord
  2
Continuous
 70
    0
  3
Solid line
 72
   65
 73
    0
 40
0
  0
LTYPE
  5
32
330
5
100
AcDbSymbolTableRecord
100
AcDbLinetypeTableRecord
  2
DOT
 70
    0
  3
Dot . . . . . . . . . . . . . . . . . . . . . .
 72
   65
 73
    2
 40
6.35
 49
0
 74
    0
 49
-6.35
 74
    0
  0
LTYPE
  5
33
330
5
100
AcDbSymbolTableRecord
100
AcDbLinetypeTableRecord
  2
DOTTINY
 70
    0
  3
Dot (.15x) .....................................
 72
   65
 73
    2
 40
0.9525
 49
0
 74
    0
 49
-0.9525
 74
    0
  0
LTYPE
  5
34
330
5
100
AcDbSymbolTableRecord
100
AcDbLinetypeTableRecord
  2
DOT2
 70
    0
  3
Dot (.5x) .....................................
 72
   65
 73
    2
 40
3.175
 49
0
 74
    0
 49
-3.175
 74
    0
  0
LTYPE
  5
35
330
5
100
AcDbSymbolTableRecord
100
AcDbLinetypeTableRecord
  2
DOTX2
 70
    0
  3
Dot (2x) .  .  .  .  .  .  .  .  .  .  .  .  .
 72
   65
 73
    2
 40
12.7
 49
0
 74
    0
 49
-12.7
 74
    0
  0
LTYPE
  5
36
330
5
100
AcDbSymbolTableRecord
100
AcDbLinetypeTableRecord
  2
DASHED
 70
    0
  3
Dashed _ _ _ _ _ _ _ _ _ _ _ _ _ _ _ _ _
 72
   65
 73
    2
 40
19.05
 49
12.7
 74
    0
 49
-6.35
 74
    0
  0
LTYPE
  5
37
330
5
100
AcDbSymbolTableRecord
100
AcDbLinetypeTableRecord
  2
DASHEDTINY
 70
    0
  3
Dashed (.15x) _ _ _ _ _ _ _ _ _ _ _ _ _ _ _ _ _
 72
   65
 73
    2
 40
2.8575
 49
1.905
 74
    0
 49
-0.9525
 74
    0
  0
LTYPE
  5
38
330
5
100
AcDbSymbolTableRecord
100
AcDbLinetypeTableRecord
  2
DASHED2
 70
    0
  3
Dashed (.5x) _ _ _ _ _ _ _ _ _ _ _ _ _ _ _ _ _
 72
   65
 73
    2
 40
9.524999999999999
 49
6.35
 74
    0
 49
-3.175
 74
    0
  0
LTYPE
  5
39
330
5
100
AcDbSymbolTableRecord
100
AcDbLinetypeTableRecord
  2
DASHEDX2
 70
    0
  3
Dashed (2x) ____  ____  ____  ____  ____  ___
 72
   65
 73
    2
 40
38.09999999999999
 49
25.4
 74
    0
 49
-12.7
 74
    0
  0
LTYPE
  5
3A
330
5
100
AcDbSymbolTableRecord
100
AcDbLinetypeTableRecord
  2
DASHDOT
 70
    0
  3
Dash dot __ . __ . __ . __ . __ . __ . __ . __
 72
   65
 73
    4
 40
25.4
 49
12.7
 74
    0
 49
-6.35
 74
    0
 49
0
 74
    0
 49
-6.35
 74
    0
  0
LTYPE
  5
3B
330
5
100
AcDbSymbolTableRecord
100
AcDbLinetypeTableRecord
  2
DASHDOTTINY
 70
    0
  3
Dash dot (.15x) _._._._._._._._._._._._._._._.
 72
   65
 73
    4
 40
3.81
 49
1.905
 74
    0
 49
-0.9525
 74
    0
 49
0
 74
    0
 49
-0.9525
 74
    0
  0
LTYPE
  5
3C
330
5
100
AcDbSymbolTableRecord
100
AcDbLinetypeTableRecord
  2
DASHDOT2
 70
    0
  3
Dash dot (.5x) _._._._._._._._._._._._._._._.
 72
   65
 73
    4
 40
12.7
 49
6.35
 74
    0
 49
-3.175
 74
    0
 49
0
 74
    0
 49
-3.175
 74
    0
  0
LTYPE
  5
3D
330
5
100
AcDbSymbolTableRecord
100
AcDbLinetypeTableRecord
  2
DASHDOTX2
 70
    0
  3
Dash dot (2x) ____  .  ____  .  ____  .  ___
 72
   65
 73
    4
 40
50.8
 49
25.4
 74
    0
 49
-12.7
 74
    0
 49
0
 74
    0
 49
-12.7
 74
    0
  0
LTYPE
  5
3E
330
5
100
AcDbSymbolTableRecord
100
AcDbLinetypeTableRecord
  2
DIVIDE
 70
    0
  3
Divide ____ . . ____ . . ____ . . ____ . . ____
 72
   65
 73
    6
 40
31.75
 49
12.7
 74
    0
 49
-6.35
 74
    0
 49
0
 74
    0
 49
-6.35
 74
    0
 49
0
 74
    0
 49
-6.35
 74
    0
  0
LTYPE
  5
3F
330
5
100
AcDbSymbolTableRecord
100
AcDbLinetypeTableRecord
  2
DIVIDETINY
 70
    0
  3
Divide (.15x) __..__..__..__..__..__..__..__.._
 72
   65
 73
    6
 40
4.7625
 49
1.905
 74
    0
 49
-0.9525
 74
    0
 49
0
 74
    0
 49
-0.9525
 74
    0
 49
0
 74
    0
 49
-0.9525
 74
    0
  0
LTYPE
  5
40
330
5
100
AcDbSymbolTableRecord
100
AcDbLinetypeTableRecord
  2
DIVIDE2
 70
    0
  3
Divide (.5x) __..__..__..__..__..__..__..__.._
 72
   65
 73
    6
 40
15.875
 49
6.35
 74
    0
 49
-3.175
 74
    0
 49
0
 74
    0
 49
-3.175
 74
    0
 49
0
 74
    0
 49
-3.175
 74
    0
  0
LTYPE
  5
41
330
5
100
AcDbSymbolTableRecord
100
AcDbLinetypeTableRecord
  2
DIVIDEX2
 70
    0
  3
Divide (2x) ________  .  .  ________  .  .  _
 72
   65
 73
    6
 40
63.5
 49
25.4
 74
    0
 49
-12.7
 74
    0
 49
0
 74
    0
 49
-12.7
 74
    0
 49
0
 74
    0
 49
-12.7
 74
    0
  0
LTYPE
  5
42
330
5
100
AcDbSymbolTableRecord
100
AcDbLinetypeTableRecord
  2
BORDER
 70
    0
  3
Border __ __ . __ __ . __ __ . __ __ . __ __ .
 72
   65
 73
    6
 40
44.45
 49
12.7
 74
    0
 49
-6.35
 74
    0
 49
12.7
 74
    0
 49
-6.35
 74
    0
 49
0
 74
    0
 49
-6.35
 74
    0
  0
LTYPE
  5
43
330
5
100
AcDbSymbolTableRecord
100
AcDbLinetypeTableRecord
  2
BORDERTINY
 70
    0
  3
Border (.15x) __.__.__.__.__.__.__.__.__.__.__.
 72
   65
 73
    6
 40
6.6675
 49
1.905
 74
    0
 49
-0.9525
 74
    0
 49
1.905
 74
    0
 49
-0.9525
 74
    0
 49
0
 74
    0
 49
-0.9525
 74
    0
  0
LTYPE
  5
44
330
5
100
AcDbSymbolTableRecord
100
AcDbLinetypeTableRecord
  2
BORDER2
 70
    0
  3
Border (.5x) __.__.__.__.__.__.__.__.__.__.__.
 72
   65
 73
    6
 40
22.225
 49
6.35
 74
    0
 49
-3.175
 74
    0
 49
6.35
 74
    0
 49
-3.175
 74
    0
 49
0
 74
    0
 49
-3.175
 74
    0
  0
LTYPE
  5
45
330
5
100
AcDbSymbolTableRecord
100
AcDbLinetypeTableRecord
  2
BORDERX2
 70
    0
  3
Border (2x) ____  ____  .  ____  ____  .  ___
 72
   65
 73
    6
 40
88.89999999999999
 49
25.4
 74
    0
 49
-12.7
 74
    0
 49
25.4
 74
    0
 49
-12.7
 74
    0
 49
0
 74
    0
 49
-12.7
 74
    0
  0
LTYPE
  5
46
330
5
100
AcDbSymbolTableRecord
100
AcDbLinetypeTableRecord
  2
CENTER
 70
    0
  3
Center ____ _ ____ _ ____ _ ____ _ ____ _ ____
 72
   65
 73
    4
 40
50.8
 49
31.75
 74
    0
 49
-6.35
 74
    0
 49
6.35
 74
    0
 49
-6.35
 74
    0
  0
LTYPE
  5
47
330
5
100
AcDbSymbolTableRecord
100
AcDbLinetypeTableRecord
  2
CENTERTINY
 70
    0
  3
Center (.15x) ___ _ ___ _ ___ _ ___ _ ___ _ ___
 72
   65
 73
    4
 40
7.619999999999999
 49
4.7625
 74
    0
 49
-0.9525
 74
    0
 49
0.9525
 74
    0
 49
-0.9525
 74
    0
  0
LTYPE
  5
48
330
5
100
AcDbSymbolTableRecord
100
AcDbLinetypeTableRecord
  2
CENTER2
 70
    0
  3
Center (.5x) ___ _ ___ _ ___ _ ___ _ ___ _ ___
 72
   65
 73
    4
 40
28.575
 49
19.05
 74
    0
 49
-3.175
 74
    0
 49
3.175
 74
    0
 49
-3.175
 74
    0
  0
LTYPE
  5
49
330
5
100
AcDbSymbolTableRecord
100
AcDbLinetypeTableRecord
  2
CENTERX2
 70
    0
  3
Center (2x) ________  __  ________  __  _____
 72
   65
 73
    4
 40
101.6
 49
63.5
 74
    0
 49
-12.7
 74
    0
 49
12.7
 74
    0
 49
-12.7
 74
    0
  0
ENDTAB
  0
TABLE
  2
LAYER
  5
2
330
0
100
AcDbSymbolTable
 70
    1
  0
LAYER
  5
10
330
2
100
AcDbSymbolTableRecord
100
AcDbLayerTableRecord
  2
0
 70
    0
 62
    7
  6
CONTINUOUS
370
    0
390
F
  0
LAYER
  5
4A
330
2
100
AcDbSymbolTableRecord
100
AcDbLayerTableRecord
  2
1
 70
    0
 62
    6
  6
CONTINUOUS
370
    0
390
F
  0
LAYER
  5
4B
330
2
100
AcDbSymbolTableRecord
100
AcDbLayerTableRecord
  2
2
 70
    0
 62
    2
  6
CONTINUOUS
370
    0
390
F
  0
LAYER
  5
4C
330
2
100
AcDbSymbolTableRecord
100
AcDbLayerTableRecord
  2
3
 70
    0
 62
    3
  6
CONTINUOUS
370
    0
390
F
  0
LAYER
  5
4D
330
2
100
AcDbSymbolTableRecord
100
AcDbLayerTableRecord
  2
4
 70
    0
 62
    1
  6
CONTINUOUS
370
    0
390
F
  0
LAYER
  5
4E
330
2
100
AcDbSymbolTableRecord
100
AcDbLayerTableRecord
  2
5
 70
    0
 62
    5
  6
CONTINUOUS
370
    0
390
F
  0
ENDTAB
  0
TABLE
  2
STYLE
  5
3
330
0
100
AcDbSymbolTable
 70
    3
  0
STYLE
  5
4F
330
2
100
AcDbSymbolTableRecord
100
AcDbTextStyleTableRecord
  2
iso
 70
    0
 40
0
 41
1
 50
0
 71
    0
 42
1
  3
iso
  4

  0
STYLE
  5
50
330
2
100
AcDbSymbolTableRecord
100
AcDbTextStyleTableRecord
  2
Standard
 70
    0
 40
0
 41
1
 50
0
 71
    0
 42
1
  3
txt
  4

  0
ENDTAB
  0
TABLE
  2
VIEW
  5
6
330
0
100
AcDbSymbolTable
 70
    0
  0
ENDTAB
  0
TABLE
  2
UCS
  5
7
330
0
100
AcDbSymbolTable
 70
    0
  0
ENDTAB
  0
TABLE
  2
APPID
  5
9
330
0
100
AcDbSymbolTable
 70
    1
  0
APPID
  5
12
330
9
100
AcDbSymbolTableRecord
100
AcDbRegAppTableRecord
  2
ACAD
 70
    0
  0
APPID
  5
51
330
9
100
AcDbSymbolTableRecord
100
AcDbRegAppTableRecord
  2
LibreCad
 70
    0
  0
ENDTAB
  0
TABLE
  2
DIMSTYLE
  5
A
330
0
100
AcDbSymbolTable
 70
    1
100
AcDbDimStyleTable
 71
    1
  0
DIMSTYLE
105
52
330
A
100
AcDbSymbolTableRecord
100
AcDbDimStyleTableRecord
  2
Standard
 70
    0
 40
1
 41
2.5
 42
0.625
 43
0.38
 44
1.25
 45
0
 46
0
 47
0
 48
0
 49
1
140
2.5
141
0.09
142
2.5
143
25.4
144
1
145
0
146
1
147
0.625
148
0
 71
    0
 72
    0
 73
    0
 74
    1
 75
    0
 76
    0
 77
    0
 78
    1
 79
    0
170
    0
171
    2
172
    0
173
    0
174
    0
175
    0
176
    0
177
    0
178
    0
179
    0
271
    2
272
    4
273
    2
274
    2
275
    0
276
    0
277
    2
278
    0
279
    0
280
    0
281
    0
282
    0
283
    1
284
    0
285
    0
286
    0
288
    0
289
    3
340
standard
341

371
   -2
372
   -2
  0
ENDTAB
  0
TABLE
  2
BLOCK_RECORD
  5
1
330
0
100
AcDbSymbolTable
 70
    2
  0
BLOCK_RECORD
  5
1F
330
1
100
AcDbSymbolTableRecord
100
AcDbBlockTableRecord
  2
*Model_Space
 70
    0
280
    1
281
    0
  0
BLOCK_RECORD
  5
1E
330
1
100
AcDbSymbolTableRecord
100
AcDbBlockTableRecord
  2
*Paper_Space
 70
    0
280
    1
281
    0
  0
ENDTAB
  0
ENDSEC
  0
SECTION
  2
BLOCKS
  0
BLOCK
  5
20
330
1F
100
AcDbEntity
  8
0
100
AcDbBlockBegin
  2
*Model_Space
 70
    0
 10
0
 20
0
 30
0
  3
*Model_Space
  1

  0
ENDBLK
  5
21
330
1F
100
AcDbEntity
  8
0
100
AcDbBlockEnd
  0
BLOCK
  5
1C
330
1B
100
AcDbEntity
  8
0
100
AcDbBlockBegin
  2
*Paper_Space
 70
    0
 10
0
 20
0
 30
0
  3
*Paper_Space
  1

  0
ENDBLK
  5
1D
330
1F
100
AcDbEntity
  8
0
100
AcDbBlockEnd
  0
ENDSEC
  0
SECTION
  2
ENTITIES
  0
LINE
  5
53
100
AcDbEntity
  8
3
  6
ByLayer
 62
  256
370
   -1
100
AcDbLine
 10
20
 20
0
 11
20.0060912659
 21
0.000106323441321
  0
LINE
  5
54
100
AcDbEntity
  8
3
  6
ByLayer
 62
  256
370
   -1
100
AcDbLine
 10
20.0060912659
 20
0.000106323441321
 11
20.0243520756
 21
0.000850393217533
  0
LINE
  5
55
100
AcDbEntity
  8
3
  6
ByLayer
 62
  256
370
   -1
100
AcDbLine
 10
20.0243520756
 20
0.000850393217533
 11
20.0547434828
 21
0.00286898436468
  0
LINE
  5
56
100
AcDbEntity
  8
3
  6
ByLayer
 62
  256
370
   -1
100
AcDbLine
 10
20.0547434828
 20
0.00286898436468
 11
20.0972006356
 21
0.0067969305637
  0
LINE
  5
57
100
AcDbEntity
  8
3
  6
ByLayer
 62
  256
370
   -1
100
AcDbLine
 10
20.0972006356
 20
0.0067969305637
 11
20.1516328634
 21
0.0132661565677
  0
LINE
  5
58
100
AcDbEntity
  8
3
  6
ByLayer
 62
  256
370
   -1
100
AcDbLine
 10
20.1516328634
 20
0.0132661565677
 11
20.2179238001
 21
0.022904714351
  0
LINE
  5
59
100
AcDbEntity
  8
3
  6
ByLayer
 62
  256
370
   -1
100
AcDbLine
 10
20.2179238001
 20
0.022904714351
 11
20.2959315401
 21
0.0363358242125
  0
LINE
  5
5A
100
AcDbEntity
  8
3
  6
ByLayer
 62
  256
370
   -1
100
AcDbLine
 10
20.2959315401
 20
0.0363358242125
 11
20.3854888309
 21
0.0541769220626
  0
LINE
  5
5B
100
AcDbEntity
  8
3
  6
ByLayer
 62
  256
370
   -1
100
AcDbLine
 10
20.3854888309
 20
0.0541769220626
 11
20.4864032979
 21
0.0770387141103
  0
LINE
  5
5C
100
AcDbEntity
  8
3
  6
ByLayer
 62
  256
370
   -1
100
AcDbLine
 10
20.4864032979
 20
0.0770387141103
 11
20.5984577048
 21
0.105524240164
  0
LINE
  5
5D
100
AcDbEntity
  8
3
  6
ByLayer
 62
  256
370
   -1
100
AcDbLine
 10
20.5984577048
 20
0.105524240164
 11
20.7214102466
 21
0.140227946744
  0
LINE
  5
5E
100
AcDbEntity
  8
3
  6
ByLayer
 62
  256
370
   -1
100
AcDbLine
 10
20.7214102466
 20
0.140227946744
 11
20.8549948765
 21
0.181734771194
  0
LINE
  5
5F
100
AcDbEntity
  8
3
  6
ByLayer
 62
  256
370
   -1
100
AcDbLine
 10
20.8549948765
 20
0.181734771194
 11
20.9989216654
 21
0.230619237973
  0
LINE
  5
60
100
AcDbEntity
  8
3
  6
ByLayer
 62
  256
370
   -1
100
AcDbLine
 10
20.9989216654
 20
0.230619237973
 11
21.1528771939
 21
0.287444568269
  0
LINE
  5
61
100
AcDbEntity
  8
3
  6
ByLayer
 62
  256
370
   -1
100
AcDbLine
 10
21.1528771939
 20
0.287444568269
 11
21.3165249759
 21
0.352761804101
  0
LINE
  5
62
100
AcDbEntity
  8
3
  6
ByLayer
 62
  256
370
   -1
100
AcDbLine
 10
21.3165249759
 20
0.352761804101
 11
21.4895059144
 21
0.427108948016
  0
LINE
  5
63
100
AcDbEntity
  8
3
  6
ByLayer
 62
  256
370
   -1
100
AcDbLine
 10
21.4895059144
 20
0.427108948016
 11
21.6714387874
 21
0.511010119495
  0
LINE
  5
64
100
AcDbEntity
  8
3
  6
ByLayer
 62
  256
370
   -1
100
AcDbLine
 10
21.6714387874
 20
0.511010119495
 11
21.8619207643
 21
0.604974729148
  0
LINE
  5
65
100
AcDbEntity
  8
3
  6
ByLayer
 62
  256
370
   -1
100
AcDbLine
 10
21.8619207643
 20
0.604974729148
 11
22.0605279518
 21
0.709496671773
  0
LINE
  5
66
100
AcDbEntity
  8
3
  6
ByLayer
 62
  256
370
   -1
100
AcDbLine
 10
22.0605279518
 20
0.709496671773
 11
22.2668159691
 21
0.825053539296
  0
LINE
  5
67
100
AcDbEntity
  8
3
  6
ByLayer
 62
  256
370
   -1
100
AcDbLine
 10
22.2668159691
 20
0.825053539296
 11
22.4803205503
 21
0.952105854635
  0
LINE
  5
68
100
AcDbEntity
  8
3
  6
ByLayer
 62
  256
370
   -1
100
AcDbLine
 10
22.4803205503
 20
0.952105854635
 11
22.7005581759
 21
1.09109632746
  0
LINE
  5
69
100
AcDbEntity
  8
3
  6
ByLayer
 62
  256
370
   -1
100
AcDbLine
 10
22.7005581759
 20
1.09109632746
 11
22.9270267289
 21
1.2424491328
  0
LINE
  5
6A
100
AcDbEntity
  8
3
  6
ByLayer
 62
  256
370
   -1
100
AcDbLine
 10
22.9270267289
 20
1.2424491328
 11
23.1592061785
 21
1.40656921348
  0
LINE
  5
6B
100
AcDbEntity
  8
3
  6
ByLayer
 62
  256
370
   -1
100
AcDbLine
 10
23.1592061785
 20
1.40656921348
 11
23.3965592877
 21
1.58384160725
  0
LINE
  5
6C
100
AcDbEntity
  8
3
  6
ByLayer
 62
  256
370
   -1
100
AcDbLine
 10
23.3965592877
 20
1.58384160725
 11
23.6385323455
 21
1.77463079943
  0
LINE
  5
6D
100
AcDbEntity
  8
3
  6
ByLayer
 62
  256
370
   -1
100
AcDbLine
 10
23.6385323455
 20
1.77463079943
 11
23.8845559217
 21
1.97928010208
  0
LINE
  5
6E
100
AcDbEntity
  8
3
  6
ByLayer
 62
  256
370
   -1
100
AcDbLine
 10
23.8845559217
 20
1.97928010208
 11
24.1340456449
 21
2.19811106033
  0
LINE
  5
6F
100
AcDbEntity
  8
3
  6
ByLayer
 62
  256
370
   -1
100
AcDbLine
 10
24.1340456449
 20
2.19811106033
 11
24.3864030009
 21
2.43142288672
  0
LINE
  5
70
100
AcDbEntity
  8
3
  6
ByLayer
 62
  256
370
   -1
100
AcDbLine
 10
24.3864030009
 20
2.43142288672
 11
24.6410161514
 21
2.67949192431
  0
LINE
  5
71
100
AcDbEntity
  8
3
  6
ByLayer
 62
  256
370
   -1
100
AcDbLine
 10
24.6410161514
 20
2.67949192431
 11
24.8972607724
 21
2.94257113922
  0
LINE
  5
72
100
AcDbEntity
  8
3
  6
ByLayer
 62
  256
370
   -1
100
AcDbLine
 10
24.8972607724
 20
2.94257113922
 11
25.1545009105
 21
3.22088964334
  0
LINE
  5
73
100
AcDbEntity
  8
3
  6
ByLayer
 62
  256
370
   -1
100
AcDbLine
 10
25.1545009105
 20
3.22088964334
 11
25.4120898563
 21
3.51465224775
  0
LINE
  5
74
100
AcDbEntity
  8
3
  6
ByLayer
 62
  256
370
   -1
100
AcDbLine
 10
25.4120898563
 20
3.51465224775
 11
25.6693710339
 21
3.82403904749
  0
LINE
  5
75
100
AcDbEntity
  8
3
  6
ByLayer
 62
  256
370
   -1
100
AcDbLine
 10
25.6693710339
 20
3.82403904749
 11
25.925678905
 21
4.14920503832
  0
LINE
  5
76
100
AcDbEntity
  8
3
  6
ByLayer
 62
  256
370
   -1
100
AcDbLine
 10
25.925678905
 20
4.14920503832
 11
26.1803398875
 21
4.4902797658
  0
LINE
  5
77
100
AcDbEntity
  8
3
  6
ByLayer
 62
  256
370
   -1
100
AcDbLine
 10
26.1803398875
 20
4.4902797658
 11
26.4326732856
 21
4.84736700732
  0
LINE
  5
78
100
AcDbEntity
  8
3
  6
ByLayer
 62
  256
370
   -1
100
AcDbLine
 10
26.4326732856
 20
4.84736700732
 11
26.6819922323
 21
5.22054448751
  0
LINE
  5
79
100
AcDbEntity
  8
3
  6
ByLayer
 62
  256
370
   -1
100
AcDbLine
 10
26.6819922323
 20
5.22054448751
 11
26.9276046419
 21
5.60986362732
  0
LINE
  5
7A
100
AcDbEntity
  8
3
  6
ByLayer
 62
  256
370
   -1
100
AcDbLine
 10
26.9276046419
 20
5.60986362732
 11
27.1688141714
 21
6.01534932722
  0
LINE
  5
7B
100
AcDbEntity
  8
3
  6
ByLayer
 62
  256
370
   -1
100
AcDbLine
 10
27.1688141714
 20
6.01534932722
 11
27.4049211897
 21
6.43699978479
  0
LINE
  5
7C
100
AcDbEntity
  8
3
  6
ByLayer
 62
  256
370
   -1
100
AcDbLine
 10
27.4049211897
 20
6.43699978479
 11
27.6352237537
 21
6.87478634699
  0
LINE
  5
7D
100
AcDbEntity
  8
3
  6
ByLayer
 62
  256
370
   -1
100
AcDbLine
 10
27.6352237537
 20
6.87478634699
 11
27.8590185899
 21
7.3286533973
  0
LINE
  5
7E
100
AcDbEntity
  8
3
  6
ByLayer
 62
  256
370
   -1
100
AcDbLine
 10
27.8590185899
 20
7.3286533973
 11
28.0756020795
 21
7.79851827798
  0
LINE
  5
7F
100
AcDbEntity
  8
3
  6
ByLayer
 62
  256
370
   -1
100
AcDbLine
 10
28.0756020795
 20
7.79851827798
 11
28.2842712475
 21
8.28427124746
  0
LINE
  5
80
100
AcDbEntity
  8
3
  6
ByLayer
 62
  256
370
   -1
100
AcDbLine
 10
28.2842712475
 20
8.28427124746
 11
28.4843247524
 21
8.785775473159999
  0
LINE
  5
81
100
AcDbEntity
  8
3
  6
ByLayer
 62
  256
370
   -1
100
AcDbLine
 10
28.4843247524
 20
8.785775473159999
 11
28.6750638774
 21
9.30286705957
  0
LINE
  5
82
100
AcDbEntity
  8
3
  6
ByLayer
 62
  256
370
   -1
100
AcDbLine
 10
28.6750638774
 20
9.30286705957
 11
28.8557935197
 21
9.835355111729999
  0
LINE
  5
83
100
AcDbEntity
  8
3
  6
ByLayer
 62
  256
370
   -1
100
AcDbLine
 10
28.8557935197
 20
9.835355111729999
 11
29.0258231788
 21
10.3830218341
  0
LINE
  5
84
100
AcDbEntity
  8
3
  6
ByLayer
 62
  256
370
   -1
100
AcDbLine
 10
29.0258231788
 20
10.3830218341
 11
29.1844679408
 21
10.9456226645
  0
LINE
  5
85
100
AcDbEntity
  8
3
  6
ByLayer
 62
  256
370
   -1
100
AcDbLine
 10
29.1844679408
 20
10.9456226645
 11
29.3310494583
 21
11.5228864436
  0
LINE
  5
86
100
AcDbEntity
  8
3
  6
ByLayer
 62
  256
370
   -1
100
AcDbLine
 10
29.3310494583
 20
11.5228864436
 11
29.464896925
 21
12.1145156187
  0
LINE
  5
87
100
AcDbEntity
  8
3
  6
ByLayer
 62
  256
370
   -1
100
AcDbLine
 10
29.464896925
 20
12.1145156187
 11
29.5853480424
 21
12.7201864831
  0
LINE
  5
88
100
AcDbEntity
  8
3
  6
ByLayer
 62
  256
370
   -1
100
AcDbLine
 10
29.5853480424
 20
12.7201864831
 11
29.6917499792
 21
13.3395494491
  0
LINE
  5
89
100
AcDbEntity
  8
3
  6
ByLayer
 62
  256
370
   -1
100
AcDbLine
 10
29.6917499792
 20
13.3395494491
 11
29.7834603206
 21
13.9722293558
  0
LINE
  5
8A
100
AcDbEntity
  8
3
  6
ByLayer
 62
  256
370
   -1
100
AcDbLine
 10
29.7834603206
 20
13.9722293558
 11
29.8598480071
 21
14.6178258109
  0
LINE
  5
8B
100
AcDbEntity
  8
3
  6
ByLayer
 62
  256
370
   -1
100
AcDbLine
 10
29.8598480071
 20
14.6178258109
 11
29.9202942621
 21
15.275913565
  0
LINE
  5
8C
100
AcDbEntity
  8
3
  6
ByLayer
 62
  256
370
   -1
100
AcDbLine
 10
29.9202942621
 20
15.275913565
 11
29.9641935051
 21
15.9460429203
  0
LINE
  5
8D
100
AcDbEntity
  8
3
  6
ByLayer
 62
  256
370
   -1
100
AcDbLine
 10
29.9641935051
 20
15.9460429203
 11
29.9909542521
 21
16.6277401709
  0
LINE
  5
8E
100
AcDbEntity
  8
3
  6
ByLayer
 62
  256
370
   -1
100
AcDbLine
 10
29.9909542521
 20
16.6277401709
 11
30
 21
17.3205080757
  0
LINE
  5
8F
100
AcDbEntity
  8
3
  6
ByLayer
 62
  256
370
   -1
100
AcDbLine
 10
30
 20
17.3205080757
 11
29.9907700945
 21
18.0238263624
  0
LINE
  5
90
100
AcDbEntity
  8
3
  6
ByLayer
 62
  256
370
   -1
100
AcDbLine
 10
29.9907700945
 20
18.0238263624
 11
29.9627205809
 21
18.7371522633
  0
LINE
  5
91
100
AcDbEntity
  8
3
  6
ByLayer
 62
  256
370
   -1
100
AcDbLine
 10
29.9627205809
 20
18.7371522633
 11
29.9153250354
 21
19.45992108
  0
LINE
  5
92
100
AcDbEntity
  8
3
  6
ByLayer
 62
  256
370
   -1
100
AcDbLine
 10
29.9153250354
 20
19.45992108
 11
29.8480753781
 21
20.1915467798
  0
LINE
  5
93
100
AcDbEntity
  8
3
  6
ByLayer
 62
  256
370
   -1
100
AcDbLine
 10
29.8480753781
 20
20.1915467798
 11
29.7604826634
 21
20.9314226191
  0
LINE
  5
94
100
AcDbEntity
  8
3
  6
ByLayer
 62
  256
370
   -1
100
AcDbLine
 10
29.7604826634
 20
20.9314226191
 11
29.6520778502
 21
21.6789217962
  0
LINE
  5
95
100
AcDbEntity
  8
3
  6
ByLayer
 62
  256
370
   -1
100
AcDbLine
 10
29.6520778502
 20
21.6789217962
 11
29.5224125488
 21
22.4333981313
  0
LINE
  5
96
100
AcDbEntity
  8
3
  6
ByLayer
 62
  256
370
   -1
100
AcDbLine
 10
29.5224125488
 20
22.4333981313
 11
29.3710597434
 21
23.1941867735
  0
LINE
  5
97
100
AcDbEntity
  8
3
  6
ByLayer
 62
  256
370
   -1
100
AcDbLine
 10
29.3710597434
 20
23.1941867735
 11
29.1976144914
 21
23.9606049327
  0
LINE
  5
98
100
AcDbEntity
  8
3
  6
ByLayer
 62
  256
370
   -1
100
AcDbLine
 10
29.1976144914
 20
23.9606049327
 11
29.0016945954
 21
24.7319526377
  0
LINE
  5
99
100
AcDbEntity
  8
3
  6
ByLayer
 62
  256
370
   -1
100
AcDbLine
 10
29.0016945954
 20
24.7319526377
 11
28.7829412504
 21
25.5075135175
  0
LINE
  5
9A
100
AcDbEntity
  8
3
  6
ByLayer
 62
  256
370
   -1
100
AcDbLine
 10
28.7829412504
 20
25.5075135175
 11
28.5410196625
 21
26.286555606
  0
LINE
  5
9B
100
AcDbEntity
  8
3
  6
ByLayer
 62
  256
370
   -1
100
AcDbLine
 10
28.5410196625
 20
26.286555606
 11
28.27561964
 21
27.0683321691
  0
LINE
  5
9C
100
AcDbEntity
  8
3
  6
ByLayer
 62
  256
370
   -1
100
AcDbLine
 10
28.27561964
 20
27.0683321691
 11
27.9864561558
 21
27.8520825529
  0
LINE
  5
9D
100
AcDbEntity
  8
3
  6
ByLayer
 62
  256
370
   -1
100
AcDbLine
 10
27.9864561558
 20
27.8520825529
 11
27.6732698798
 21
28.6370330516
  0
LINE
  5
9E
100
AcDbEntity
  8
3
  6
ByLayer
 62
  256
370
   -1
100
AcDbLine
 10
27.6732698798
 20
28.6370330516
 11
27.3358276812
 21
29.4223977953
  0
LINE
  5
9F
100
AcDbEntity
  8
3
  6
ByLayer
 62
  256
370
   -1
100
AcDbLine
 10
27.3358276812
 20
29.4223977953
 11
26.9739230997
 21
30.2073796556
  0
LINE
  5
A0
100
AcDbEntity
  8
3
  6
ByLayer
 62
  256
370
   -1
100
AcDbLine
 10
26.9739230997
 20
30.2073796556
 11
26.5873767856
 21
30.9911711678
  0
LINE
  5
A1
100
AcDbEntity
  8
3
  6
ByLayer
 62
  256
370
   -1
100
AcDbLine
 10
26.5873767856
 20
30.9911711678
 11
26.1760369064
 21
31.7729554696
  0
LINE
  5
A2
100
AcDbEntity
  8
3
  6
ByLayer
 62
  256
370
   -1
100
AcDbLine
 10
26.1760369064
 20
31.7729554696
 11
25.7397795224
 21
32.551907254
  0
LINE
  5
A3
100
AcDbEntity
  8
3
  6
ByLayer
 62
  256
370
   -1
100
AcDbLine
 10
25.7397795224
 20
32.551907254
 11
25.2785089275
 21
33.3271937363
  0
LINE
  5
A4
100
AcDbEntity
  8
3
  6
ByLayer
 62
  256
370
   -1
100
AcDbLine
 10
25.2785089275
 20
33.3271937363
 11
24.7921579572
 21
34.0979756333
  0
LINE
  5
A5
100
AcDbEntity
  8
3
  6
ByLayer
 62
  256
370
   -1
100
AcDbLine
 10
24.7921579572
 20
34.0979756333
 11
24.2806882617
 21
34.8634081537
  0
LINE
  5
A6
100
AcDbEntity
  8
3
  6
ByLayer
 62
  256
370
   -1
100
AcDbLine
 10
24.2806882617
 20
34.8634081537
 11
23.7440905454
 21
35.6226419984
  0
LINE
  5
A7
100
AcDbEntity
  8
3
  6
ByLayer
 62
  256
370
   -1
100
AcDbLine
 10
23.7440905454
 20
35.6226419984
 11
23.1823847702
 21
36.3748243703
  0
LINE
  5
A8
100
AcDbEntity
  8
3
  6
ByLayer
 62
  256
370
   -1
100
AcDbLine
 10
23.1823847702
 20
36.3748243703
 11
22.5956203246
 21
37.1190999912
  0
LINE
  5
A9
100
AcDbEntity
  8
3
  6
ByLayer
 62
  256
370
   -1
100
AcDbLine
 10
22.5956203246
 20
37.1190999912
 11
21.9838761571
 21
37.8546121248
  0
LINE
  5
AA
100
AcDbEntity
  8
3
  6
ByLayer
 62
  256
370
   -1
100
AcDbLine
 10
21.9838761571
 20
37.8546121248
 11
21.3472608733
 21
38.5805036059
  0
LINE
  5
AB
100
AcDbEntity
  8
3
  6
ByLayer
 62
  256
370
   -1
100
AcDbLine
 10
21.3472608733
 20
38.5805036059
 11
20.6859127979
 21
39.2959178722
  0
LINE
  5
AC
100
AcDbEntity
  8
3
  6
ByLayer
 62
  256
370
   -1
100
AcDbLine
 10
20.6859127979
 20
39.2959178722
 11
20
 21
40
  0
LINE
  5
AD
100
AcDbEntity
  8
3
  6
ByLayer
 62
  256
370
   -1
100
AcDbLine
 10
20
 20
40
 11
19.2897202829
 21
40.6918977403
  0
LINE
  5
AE
100
AcDbEntity
  8
3
  6
ByLayer
 62
  256
370
   -1
100
AcDbLine
 10
19.2897202829
 20
40.6918977403
 11
18.5553011371
 21
41.3707625556
  0
LINE
  5
AF
100
AcDbEntity
  8
3
  6
ByLayer
 62
  256
370
   -1
100
AcDbLine
 10
18.5553011371
 20
41.3707625556
 11
17.7969996576
 21
42.0357506555
  0
LINE
  5
B0
100
AcDbEntity
  8
3
  6
ByLayer
 62
  256
370
   -1
100
AcDbLine
 10
17.7969996576
 20
42.0357506555
 11
17.0151024251
 21
42.6860240296
  0
LINE
  5
B1
100
AcDbEntity
  8
3
  6
ByLayer
 62
  256
370
   -1
100
AcDbLine
 10
17.0151024251
 20
42.6860240296
 11
16.2099253503
 21
43.320751477
  0
LINE
  5
B2
100
AcDbEntity
  8
3
  6
ByLayer
 62
  256
370
   -1
100
AcDbLine
 10
16.2099253503
 20
43.320751477
 11
15.381813484
 21
43.9391096311
  0
LINE
  5
B3
100
AcDbEntity
  8
3
  6
ByLayer
 62
  256
370
   -1
100
AcDbLine
 10
15.381813484
 20
43.9391096311
 11
14.5311407893
 21
44.5402839776
  0
LINE
  5
B4
100
AcDbEntity
  8
3
  6
ByLayer
 62
  256
370
   -1
100
AcDbLine
 10
14.5311407893
 20
44.5402839776
 11
13.6583098804
 21
45.123469866
  0
LINE
  5
B5
100
AcDbEntity
  8
3
  6
ByLayer
 62
  256
370
   -1
100
AcDbLine
 10
13.6583098804
 20
45.123469866
 11
12.7637517243
 21
45.6878735113
  0
LINE
  5
B6
100
AcDbEntity
  8
3
  6
ByLayer
 62
  256
370
   -1
100
AcDbLine
 10
12.7637517243
 20
45.6878735113
 11
11.847925309
 21
46.232712987
  0
LINE
  5
B7
100
AcDbEntity
  8
3
  6
ByLayer
 62
  256
370
   -1
100
AcDbLine
 10
11.847925309
 20
46.232712987
 11
10.9113172763
 21
46.7572192062
  0
LINE
  5
B8
100
AcDbEntity
  8
3
  6
ByLayer
 62
  256
370
   -1
100
AcDbLine
 10
10.9113172763
 20
46.7572192062
 11
9.95444152014
 21
47.2606368909
  0
LINE
  5
B9
100
AcDbEntity
  8
3
  6
ByLayer
 62
  256
370
   -1
100
AcDbLine
 10
9.95444152014
 20
47.2606368909
 11
8.977838752229999
 21
47.7422255272
  0
LINE
  5
BA
100
AcDbEntity
  8
3
  6
ByLayer
 62
  256
370
   -1
100
AcDbLine
 10
8.977838752229999
 20
47.7422255272
 11
7.98207603319
 21
48.2012603068
  0
LINE
  5
BB
100
AcDbEntity
  8
3
  6
ByLayer
 62
  256
370
   -1
100
AcDbLine
 10
7.98207603319
 20
48.2012603068
 11
6.96774627159
 21
48.6370330516
  0
LINE
  5
BC
100
AcDbEntity
  8
3
  6
ByLayer
 62
  256
370
   -1
100
AcDbLine
 10
6.96774627159
 20
48.6370330516
 11
5.93546769045
 21
49.0488531222
  0
LINE
  5
BD
100
AcDbEntity
  8
3
  6
ByLayer
 62
  256
370
   -1
100
AcDbLine
 10
5.93546769045
 20
49.0488531222
 11
4.88588326219
 21
49.4360483079
  0
LINE
  5
BE
100
AcDbEntity
  8
3
  6
ByLayer
 62
  256
370
   -1
100
AcDbLine
 10
4.88588326219
 20
49.4360483079
 11
3.8196601125
 21
49.7979656977
  0
LINE
  5
BF
100
AcDbEntity
  8
3
  6
ByLayer
 62
  256
370
   -1
100
AcDbLine
 10
3.8196601125
 20
49.7979656977
 11
2.73748889385
 21
50.1339725305
  0
LINE
  5
C0
100
AcDbEntity
  8
3
  6
ByLayer
 62
  256
370
   -1
100
AcDbLine
 10
2.73748889385
 20
50.1339725305
 11
1.64008312935
 21
50.4434570252
  0
LINE
  5
C1
100
AcDbEntity
  8
3
  6
ByLayer
 62
  256
370
   -1
100
AcDbLine
 10
1.64008312935
 20
50.4434570252
 11
0.528178527736
 21
50.7258291871
  0
LINE
  5
C2
100
AcDbEntity
  8
3
  6
ByLayer
 62
  256
370
   -1
100
AcDbLine
 10
0.528178527736
 20
50.7258291871
 11
-0.597467729863
 21
50.9805215919
  0
LINE
  5
C3
100
AcDbEntity
  8
3
  6
ByLayer
 62
  256
370
   -1
100
AcDbLine
 10
-0.597467729863
 20
50.9805215919
 11
-1.73607773039
 21
51.2069901449
  0
LINE
  5
C4
100
AcDbEntity
  8
3
  6
ByLayer
 62
  256
370
   -1
100
AcDbLine
 10
-1.73607773039
 20
51.2069901449
 11
-2.88685359585
 21
51.4047148153
  0
LINE
  5
C5
100
AcDbEntity
  8
3
  6
ByLayer
 62
  256
370
   -1
100
AcDbLine
 10
-2.88685359585
 20
51.4047148153
 11
-4.0489782759
 21
51.5732003438
  0
LINE
  5
C6
100
AcDbEntity
  8
3
  6
ByLayer
 62
  256
370
   -1
100
AcDbLine
 10
-4.0489782759
 20
51.5732003438
 11
-5.22161636505
 21
51.7119769241
  0
LINE
  5
C7
100
AcDbEntity
  8
3
  6
ByLayer
 62
  256
370
   -1
100
AcDbLine
 10
-5.22161636505
 20
51.7119769241
 11
-6.40391494373
 21
51.820600855
  0
LINE
  5
C8
100
AcDbEntity
  8
3
  6
ByLayer
 62
  256
370
   -1
100
AcDbLine
 10
-6.40391494373
 20
51.820600855
 11
-7.59500444202
 21
51.8986551655
  0
LINE
  5
C9
100
AcDbEntity
  8
3
  6
ByLayer
 62
  256
370
   -1
100
AcDbLine
 10
-7.59500444202
 20
51.8986551655
 11
-8.793999525189999
 21
51.9457502087
  0
LINE
  5
CA
100
AcDbEntity
  8
3
  6
ByLayer
 62
  256
370
   -1
100
AcDbLine
 10
-8.793999525189999
 20
51.9457502087
 11
-10
 21
51.9615242271
  0
LINE
  5
CB
100
AcDbEntity
  8
3
  6
ByLayer
 62
  256
370
   -1
100
AcDbLine
 10
-10
 20
51.9615242271
 11
-11.2120917407
 21
51.9456438853
  0
LINE
  5
CC
100
AcDbEntity
  8
3
  6
ByLayer
 62
  256
370
   -1
100
AcDbLine
 10
-11.2120917407
 20
51.9456438853
 11
-12.4293476335
 21
51.8978047722
  0
LINE
  5
CD
100
AcDbEntity
  8
3
  6
ByLayer
 62
  256
370
   -1
100
AcDbLine
 10
-12.4293476335
 20
51.8978047722
 11
-13.6508285391
 21
51.8177318707
  0
LINE
  5
CE
100
AcDbEntity
  8
3
  6
ByLayer
 62
  256
370
   -1
100
AcDbLine
 10
-13.6508285391
 20
51.8177318707
 11
-14.8755842705
 21
51.7051799935
  0
LINE
  5
CF
100
AcDbEntity
  8
3
  6
ByLayer
 62
  256
370
   -1
100
AcDbLine
 10
-14.8755842705
 20
51.7051799935
 11
-16.1026545875
 21
51.5599341873
  0
LINE
  5
D0
100
AcDbEntity
  8
3
  6
ByLayer
 62
  256
370
   -1
100
AcDbLine
 10
-16.1026545875
 20
51.5599341873
 11
-17.3310702042
 21
51.3818101009
  0
LINE
  5
D1
100
AcDbEntity
  8
3
  6
ByLayer
 62
  256
370
   -1
100
AcDbLine
 10
-17.3310702042
 20
51.3818101009
 11
-18.5598538097
 21
51.1706543207
  0
LINE
  5
D2
100
AcDbEntity
  8
3
  6
ByLayer
 62
  256
370
   -1
100
AcDbLine
 10
-18.5598538097
 20
51.1706543207
 11
-19.788021101
 21
50.9263446698
  0
LINE
  5
D3
100
AcDbEntity
  8
3
  6
ByLayer
 62
  256
370
   -1
100
AcDbLine
 10
-19.788021101
 20
50.9263446698
 11
-21.0145818256
 21
50.648790473
  0
LINE
  5
D4
100
AcDbEntity
  8
3
  6
ByLayer
 62
  256
370
   -1
100
AcDbLine
 10
-21.0145818256
 20
50.648790473
 11
-22.2385408341
 21
50.337932785
  0
LINE
  5
D5
100
AcDbEntity
  8
3
  6
ByLayer
 62
  256
370
   -1
100
AcDbLine
 10
-22.2385408341
 20
50.337932785
 11
-23.4588991404
 21
49.9937445837
  0
LINE
  5
D6
100
AcDbEntity
  8
3
  6
ByLayer
 62
  256
370
   -1
100
AcDbLine
 10
-23.4588991404
 20
49.9937445837
 11
-24.674654989
 21
49.6162309265
  0
LINE
  5
D7
100
AcDbEntity
  8
3
  6
ByLayer
 62
  256
370
   -1
100
AcDbLine
 10
-24.674654989
 20
49.6162309265
 11
-25.8848049276
 21
49.20542907
  0
LINE
  5
D8
100
AcDbEntity
  8
3
  6
ByLayer
 62
  256
370
   -1
100
AcDbLine
 10
-25.8848049276
 20
49.20542907
 11
-27.0883448843
 21
48.7614085539
  0
LINE
  5
D9
100
AcDbEntity
  8
3
  6
ByLayer
 62
  256
370
   -1
100
AcDbLine
 10
-27.0883448843
 20
48.7614085539
 11
-28.2842712475
 21
48.2842712475
  0
LINE
  5
DA
100
AcDbEntity
  8
3
  6
ByLayer
 62
  256
370
   -1
100
AcDbLine
 10
-28.2842712475
 20
48.2842712475
 11
-29.4715819476
 21
47.7741513587
  0
LINE
  5
DB
100
AcDbEntity
  8
3
  6
ByLayer
 62
  256
370
   -1
100
AcDbLine
 10
-29.4715819476
 20
47.7741513587
 11
-30.6492775396
 21
47.2312154077
  0
LINE
  5
DC
100
AcDbEntity
  8
3
  6
ByLayer
 62
  256
370
   -1
100
AcDbLine
 10
-30.6492775396
 20
47.2312154077
 11
-31.8163622844
 21
46.6556621617
  0
LINE
  5
DD
100
AcDbEntity
  8
3
  6
ByLayer
 62
  256
370
   -1
100
AcDbLine
 10
-31.8163622844
 20
46.6556621617
 11
-32.9718452281
 21
46.0477225345
  0
LINE
  5
DE
100
AcDbEntity
  8
3
  6
ByLayer
 62
  256
370
   -1
100
AcDbLine
 10
-32.9718452281
 20
46.0477225345
 11
-34.1147412781
 21
45.4076594477
  0
LINE
  5
DF
100
AcDbEntity
  8
3
  6
ByLayer
 62
  256
370
   -1
100
AcDbLine
 10
-34.1147412781
 20
45.4076594477
 11
-35.2440722746
 21
44.7357676567
  0
LINE
  5
E0
100
AcDbEntity
  8
3
  6
ByLayer
 62
  256
370
   -1
100
AcDbLine
 10
-35.2440722746
 20
44.7357676567
 11
-36.3588680563
 21
44.0323735385
  0
LINE
  5
E1
100
AcDbEntity
  8
3
  6
ByLayer
 62
  256
370
   -1
100
AcDbLine
 10
-36.3588680563
 20
44.0323735385
 11
-37.4581675182
 21
43.2978348448
  0
LINE
  5
E2
100
AcDbEntity
  8
3
  6
ByLayer
 62
  256
370
   -1
100
AcDbLine
 10
-37.4581675182
 20
43.2978348448
 11
-38.5410196625
 21
42.5325404176
  0
LINE
  5
E3
100
AcDbEntity
  8
3
  6
ByLayer
 62
  256
370
   -1
100
AcDbLine
 10
-38.5410196625
 20
42.5325404176
 11
-39.6064846381
 21
41.7369098698
  0
LINE
  5
E4
100
AcDbEntity
  8
3
  6
ByLayer
 62
  256
370
   -1
100
AcDbLine
 10
-39.6064846381
 20
41.7369098698
 11
-40.6536347705
 21
40.9113932302
  0
LINE
  5
E5
100
AcDbEntity
  8
3
  6
ByLayer
 62
  256
370
   -1
100
AcDbLine
 10
-40.6536347705
 20
40.9113932302
 11
-41.6815555793
 21
40.0564705535
  0
LINE
  5
E6
100
AcDbEntity
  8
3
  6
ByLayer
 62
  256
370
   -1
100
AcDbLine
 10
-41.6815555793
 20
40.0564705535
 11
-42.689346782
 21
39.1726514953
  0
LINE
  5
E7
100
AcDbEntity
  8
3
  6
ByLayer
 62
  256
370
   -1
100
AcDbLine
 10
-42.689346782
 20
39.1726514953
 11
-43.6761232838
 21
38.2604748536
  0
LINE
  5
E8
100
AcDbEntity
  8
3
  6
ByLayer
 62
  256
370
   -1
100
AcDbLine
 10
-43.6761232838
 20
38.2604748536
 11
-44.6410161514
 21
37.3205080757
  0
LINE
  5
E9
100
AcDbEntity
  8
3
  6
ByLayer
 62
  256
370
   -1
100
AcDbLine
 10
-44.6410161514
 20
37.3205080757
 11
-45.5831735702
 21
36.353346733
  0
LINE
  5
EA
100
AcDbEntity
  8
3
  6
ByLayer
 62
  256
370
   -1
100
AcDbLine
 10
-45.5831735702
 20
36.353346733
 11
-46.5017617838
 21
35.3596139625
  0
LINE
  5
EB
100
AcDbEntity
  8
3
  6
ByLayer
 62
  256
370
   -1
100
AcDbLine
 10
-46.5017617838
 20
35.3596139625
 11
-47.3959660134
 21
34.3399598771
  0
LINE
  5
EC
100
AcDbEntity
  8
3
  6
ByLayer
 62
  256
370
   -1
100
AcDbLine
 10
-47.3959660134
 20
34.3399598771
 11
-48.2649913585
 21
33.2950609437
  0
LINE
  5
ED
100
AcDbEntity
  8
3
  6
ByLayer
 62
  256
370
   -1
100
AcDbLine
 10
-48.2649913585
 20
33.2950609437
 11
-49.1080636752
 21
32.225619332
  0
LINE
  5
EE
100
AcDbEntity
  8
3
  6
ByLayer
 62
  256
370
   -1
100
AcDbLine
 10
-49.1080636752
 20
32.225619332
 11
-49.9244304329
 21
31.1323622326
  0
LINE
  5
EF
100
AcDbEntity
  8
3
  6
ByLayer
 62
  256
370
   -1
100
AcDbLine
 10
-49.9244304329
 20
31.1323622326
 11
-50.7133615473
 21
30.0160411463
  0
LINE
  5
F0
100
AcDbEntity
  8
3
  6
ByLayer
 62
  256
370
   -1
100
AcDbLine
 10
-50.7133615473
 20
30.0160411463
 11
-51.4741501894
 21
28.8774311458
  0
LINE
  5
F1
100
AcDbEntity
  8
3
  6
ByLayer
 62
  256
370
   -1
100
AcDbLine
 10
-51.4741501894
 20
28.8774311458
 11
-52.2061135694
 21
27.717330109
  0
LINE
  5
F2
100
AcDbEntity
  8
3
  6
ByLayer
 62
  256
370
   -1
100
AcDbLine
 10
-52.2061135694
 20
27.717330109
 11
-52.9085936938
 21
26.5365579268
  0
LINE
  5
F3
100
AcDbEntity
  8
3
  6
ByLayer
 62
  256
370
   -1
100
AcDbLine
 10
-52.9085936938
 20
26.5365579268
 11
-53.5809580961
 21
25.3359556848
  0
LINE
  5
F4
100
AcDbEntity
  8
3
  6
ByLayer
 62
  256
370
   -1
100
AcDbLine
 10
-53.5809580961
 20
25.3359556848
 11
-54.2226005393
 21
24.1163848208
  0
LINE
  5
F5
100
AcDbEntity
  8
3
  6
ByLayer
 62
  256
370
   -1
100
AcDbLine
 10
-54.2226005393
 20
24.1163848208
 11
-54.8329416896
 21
22.8787262583
  0
LINE
  5
F6
100
AcDbEntity
  8
3
  6
ByLayer
 62
  256
370
   -1
100
AcDbLine
 10
-54.8329416896
 20
22.8787262583
 11
-55.4114297607
 21
21.6238795173
  0
LINE
  5
F7
100
AcDbEntity
  8
3
  6
ByLayer
 62
  256
370
   -1
100
AcDbLine
 10
-55.4114297607
 20
21.6238795173
 11
-55.9575411273
 21
20.3527618041
  0
LINE
  5
F8
100
AcDbEntity
  8
3
  6
ByLayer
 62
  256
370
   -1
100
AcDbLine
 10
-55.9575411273
 20
20.3527618041
 11
-56.4707809082
 21
19.0663070797
  0
LINE
  5
F9
100
AcDbEntity
  8
3
  6
ByLayer
 62
  256
370
   -1
100
AcDbLine
 10
-56.4707809082
 20
19.0663070797
 11
-56.9506835174
 21
17.7654651095
  0
LINE
  5
FA
100
AcDbEntity
  8
3
  6
ByLayer
 62
  256
370
   -1
100
AcDbLine
 10
-56.9506835174
 20
17.7654651095
 11
-57.3968131822
 21
16.4512004942
  0
LINE
  5
FB
100
AcDbEntity
  8
3
  6
ByLayer
 62
  256
370
   -1
100
AcDbLine
 10
-57.3968131822
 20
16.4512004942
 11
-57.8087644292
 21
15.1244916834
  0
LINE
  5
FC
100
AcDbEntity
  8
3
  6
ByLayer
 62
  256
370
   -1
100
AcDbLine
 10
-57.8087644292
 20
15.1244916834
 11
-58.1861625362
 21
13.7863299732
  0
LINE
  5
FD
100
AcDbEntity
  8
3
  6
ByLayer
 62
  256
370
   -1
100
AcDbLine
 10
-58.1861625362
 20
13.7863299732
 11
-58.5286639497
 21
12.4377184891
  0
LINE
  5
FE
100
AcDbEntity
  8
3
  6
ByLayer
 62
  256
370
   -1
100
AcDbLine
 10
-58.5286639497
 20
12.4377184891
 11
-58.8359566684
 21
11.0796711547
  0
LINE
  5
FF
100
AcDbEntity
  8
3
  6
ByLayer
 62
  256
370
   -1
100
AcDbLine
 10
-58.8359566684
 20
11.0796711547
 11
-59.1077605912
 21
9.7132116482
  0
LINE
  5
100
100
AcDbEntity
  8
3
  6
ByLayer
 62
  256
370
   -1
100
AcDbLine
 10
-59.1077605912
 20
9.7132116482
 11
-59.3438278294
 21
8.339372347059999
  0
LINE
  5
101
100
AcDbEntity
  8
3
  6
ByLayer
 62
  256
370
   -1
100
AcDbLine
 10
-59.3438278294
 20
8.339372347059999
 11
-59.5439429839
 21
6.95919326324
  0
LINE
  5
102
100
AcDbEntity
  8
3
  6
ByLayer
 62
  256
370
   -1
100
AcDbLine
 10
-59.5439429839
 20
6.95919326324
 11
-59.7079233852
 21
5.57372096897
  0
LINE
  5
103
100
AcDbEntity
  8
3
  6
ByLayer
 62
  256
370
   -1
100
AcDbLine
 10
-59.7079233852
 20
5.57372096897
 11
-59.8356192975
 21
4.18400751507
  0
LINE
  5
104
100
AcDbEntity
  8
3
  6
ByLayer
 62
  256
370
   -1
100
AcDbLine
 10
-59.8356192975
 20
4.18400751507
 11
-59.926914086
 21
2.79110934298
  0
LINE
  5
105
100
AcDbEntity
  8
3
  6
ByLayer
 62
  256
370
   -1
100
AcDbLine
 10
-59.926914086
 20
2.79110934298
 11
-59.9817243466
 21
1.39608619154
  0
LINE
  5
106
100
AcDbEntity
  8
3
  6
ByLayer
 62
  256
370
   -1
100
AcDbLine
 10
-59.9817243466
 20
1.39608619154
 11
-60
 21
9.796850830579999e-15
  0
LINE
  5
107
100
AcDbEntity
  8
3
  6
ByLayer
 62
  256
370
   -1
100
AcDbLine
 10
-60
 20
9.796850830579999e-15
 11
-59.9817243466
 21
-1.39608619154
  0
LINE
  5
108
100
AcDbEntity
  8
3
  6
ByLayer
 62
  256
370
   -1
100
AcDbLine
 10
-59.9817243466
 20
-1.39608619154
 11
-59.926914086
 21
-2.79110934298
  0
LINE
  5
109
100
AcDbEntity
  8
3
  6
ByLayer
 62
  256
370
   -1
100
AcDbLine
 10
-59.926914086
 20
-2.79110934298
 11
-59.8356192975
 21
-4.18400751507
  0
LINE
  5
10A
100
AcDbEntity
  8
3
  6
ByLayer
 62
  256
370
   -1
100
AcDbLine
 10
-59.8356192975
 20
-4.18400751507
 11
-59.7079233852
 21
-5.57372096897
  0
LINE
  5
10B
100
AcDbEntity
  8
3
  6
ByLayer
 62
  256
370
   -1
100
AcDbLine
 10
-59.7079233852
 20
-5.57372096897
 11
-59.5439429839
 21
-6.95919326324
  0
LINE
  5
10C
100
AcDbEntity
  8
3
  6
ByLayer
 62
  256
370
   -1
100
AcDbLine
 10
-59.5439429839
 20
-6.95919326324
 11
-59.3438278294
 21
-8.339372347059999
  0
LINE
  5
10D
100
AcDbEntity
  8
3
  6
ByLayer
 62
  256
370
   -1
100
AcDbLine
 10
-59.3438278294
 20
-8.339372347059999
 11
-59.1077605912
 21
-9.7132116482
  0
LINE
  5
10E
100
AcDbEntity
  8
3
  6
ByLayer
 62
  256
370
   -1
100
AcDbLine
 10
-59.1077605912
 20
-9.7132116482
 11
-58.8359566684
 21
-11.0796711547
  0
LINE
  5
10F
100
AcDbEntity
  8
3
  6
ByLayer
 62
  256
370
   -1
100
AcDbLine
 10
-58.8359566684
 20
-11.0796711547
 11
-58.5286639497
 21
-12.4377184891
  0
LINE
  5
110
100
AcDbEntity
  8
3
  6
ByLayer
 62
  256
370
   -1
100
AcDbLine
 10
-58.5286639497
 20
-12.4377184891
 11
-58.1861625362
 21
-13.7863299732
  0
LINE
  5
111
100
AcDbEntity
  8
3
  6
ByLayer
 62
  256
370
   -1
100
AcDbLine
 10
-58.1861625362
 20
-13.7863299732
 11
-57.8087644292
 21
-15.1244916834
  0
LINE
  5
112
100
AcDbEntity
  8
3
  6
ByLayer
 62
  256
370
   -1
100
AcDbLine
 10
-57.8087644292
 20
-15.1244916834
 11
-57.3968131822
 21
-16.4512004942
  0
LINE
  5
113
100
AcDbEntity
  8
3
  6
ByLayer
 62
  256
370
   -1
100
AcDbLine
 10
-57.3968131822
 20
-16.4512004942
 11
-56.9506835174
 21
-17.7654651095
  0
LINE
  5
114
100
AcDbEntity
  8
3
  6
ByLayer
 62
  256
370
   -1
100
AcDbLine
 10
-56.9506835174
 20
-17.7654651095
 11
-56.4707809082
 21
-19.0663070797
  0
LINE
  5
115
100
AcDbEntity
  8
3
  6
ByLayer
 62
  256
370
   -1
100
AcDbLine
 10
-56.4707809082
 20
-19.0663070797
 11
-55.9575411273
 21
-20.3527618041
  0
LINE
  5
116
100
AcDbEntity
  8
3
  6
ByLayer
 62
  256
370
   -1
100
AcDbLine
 10
-55.9575411273
 20
-20.3527618041
 11
-55.4114297607
 21
-21.6238795173
  0
LINE
  5
117
100
AcDbEntity
  8
3
  6
ByLayer
 62
  256
370
   -1
100
AcDbLine
 10
-55.4114297607
 20
-21.6238795173
 11
-54.8329416896
 21
-22.8787262583
  0
LINE
  5
118
100
AcDbEntity
  8
3
  6
ByLayer
 62
  256
370
   -1
100
AcDbLine
 10
-54.8329416896
 20
-22.8787262583
 11
-54.2226005393
 21
-24.1163848208
  0
LINE
  5
119
100
AcDbEntity
  8
3
  6
ByLayer
 62
  256
370
   -1
100
AcDbLine
 10
-54.2226005393
 20
-24.1163848208
 11
-53.5809580961
 21
-25.3359556848
  0
LINE
  5
11A
100
AcDbEntity
  8
3
  6
ByLayer
 62
  256
370
   -1
100
AcDbLine
 10
-53.5809580961
 20
-25.3359556848
 11
-52.9085936938
 21
-26.5365579268
  0
LINE
  5
11B
100
AcDbEntity
  8
3
  6
ByLayer
 62
  256
370
   -1
100
AcDbLine
 10
-52.9085936938
 20
-26.5365579268
 11
-52.2061135694
 21
-27.717330109
  0
LINE
  5
11C
100
AcDbEntity
  8
3
  6
ByLayer
 62
  256
370
   -1
100
AcDbLine
 10
-52.2061135694
 20
-27.717330109
 11
-51.4741501894
 21
-28.8774311458
  0
LINE
  5
11D
100
AcDbEntity
  8
3
  6
ByLayer
 62
  256
370
   -1
100
AcDbLine
 10
-51.4741501894
 20
-28.8774311458
 11
-50.7133615473
 21
-30.0160411463
  0
LINE
  5
11E
100
AcDbEntity
  8
3
  6
ByLayer
 62
  256
370
   -1
100
AcDbLine
 10
-50.7133615473
 20
-30.0160411463
 11
-49.9244304329
 21
-31.1323622326
  0
LINE
  5
11F
100
AcDbEntity
  8
3
  6
ByLayer
 62
  256
370
   -1
100
AcDbLine
 10
-49.9244304329
 20
-31.1323622326
 11
-49.1080636752
 21
-32.225619332
  0
LINE
  5
120
100
AcDbEntity
  8
3
  6
ByLayer
 62
  256
370
   -1
100
AcDbLine
 10
-49.1080636752
 20
-32.225619332
 11
-48.2649913585
 21
-33.2950609437
  0
LINE
  5
121
100
AcDbEntity
  8
3
  6
ByLayer
 62
  256
370
   -1
100
AcDbLine
 10
-48.2649913585
 20
-33.2950609437
 11
-47.3959660134
 21
-34.3399598771
  0
LINE
  5
122
100
AcDbEntity
  8
3
  6
ByLayer
 62
  256
370
   -1
100
AcDbLine
 10
-47.3959660134
 20
-34.3399598771
 11
-46.5017617838
 21
-35.3596139625
  0
LINE
  5
123
100
AcDbEntity
  8
3
  6
ByLayer
 62
  256
370
   -1
100
AcDbLine
 10
-46.5017617838
 20
-35.3596139625
 11
-45.5831735702
 21
-36.353346733
  0
LINE
  5
124
100
AcDbEntity
  8
3
  6
ByLayer
 62
  256
370
   -1
100
AcDbLine
 10
-45.5831735702
 20
-36.353346733
 11
-44.6410161514
 21
-37.3205080757
  0
LINE
  5
125
100
AcDbEntity
  8
3
  6
ByLayer
 62
  256
370
   -1
100
AcDbLine
 10
-44.6410161514
 20
-37.3205080757
 11
-43.6761232838
 21
-38.2604748536
  0
LINE
  5
126
100
AcDbEntity
  8
3
  6
ByLayer
 62
  256
370
   -1
100
AcDbLine
 10
-43.6761232838
 20
-38.2604748536
 11
-42.689346782
 21
-39.1726514953
  0
LINE
  5
127
100
AcDbEntity
  8
3
  6
ByLayer
 62
  256
370
   -1
100
AcDbLine
 10
-42.689346782
 20
-39.1726514953
 11
-41.6815555793
 21
-40.0564705535
  0
LINE
  5
128
100
AcDbEntity
  8
3
  6
ByLayer
 62
  256
370
   -1
100
AcDbLine
 10
-41.6815555793
 20
-40.0564705535
 11
-40.6536347705
 21
-40.9113932302
  0
LINE
  5
129
100
AcDbEntity
  8
3
  6
ByLayer
 62
  256
370
   -1
100
AcDbLine
 10
-40.6536347705
 20
-40.9113932302
 11
-39.6064846381
 21
-41.7369098698
  0
LINE
  5
12A
100
AcDbEntity
  8
3
  6
ByLayer
 62
  256
370
   -1
100
AcDbLine
 10
-39.6064846381
 20
-41.7369098698
 11
-38.5410196625
 21
-42.5325404176
  0
LINE
  5
12B
100
AcDbEntity
  8
3
  6
ByLayer
 62
  256
370
   -1
100
AcDbLine
 10
-38.5410196625
 20
-42.5325404176
 11
-37.4581675182
 21
-43.2978348448
  0
LINE
  5
12C
100
AcDbEntity
  8
3
  6
ByLayer
 62
  256
370
   -1
100
AcDbLine
 10
-37.4581675182
 20
-43.2978348448
 11
-36.3588680563
 21
-44.0323735385
  0
LINE
  5
12D
100
AcDbEntity
  8
3
  6
ByLayer
 62
  256
370
   -1
100
AcDbLine
 10
-36.3588680563
 20
-44.0323735385
 11
-35.2440722746
 21
-44.7357676567
  0
LINE
  5
12E
100
AcDbEntity
  8
3
  6
ByLayer
 62
  256
370
   -1
100
AcDbLine
 10
-35.2440722746
 20
-44.7357676567
 11
-34.1147412781
 21
-45.4076594477
  0
LINE
  5
12F
100
AcDbEntity
  8
3
  6
ByLayer
 62
  256
370
   -1
100
AcDbLine
 10
-34.1147412781
 20
-45.4076594477
 11
-32.9718452281
 21
-46.0477225345
  0
LINE
  5
130
100
AcDbEntity
  8
3
  6
ByLayer
 62
  256
370
   -1
100
AcDbLine
 10
-32.9718452281
 20
-46.0477225345
 11
-31.8163622844
 21
-46.6556621617
  0
LINE
  5
131
100
AcDbEntity
  8
3
  6
ByLayer
 62
  256
370
   -1
100
AcDbLine
 10
-31.8163622844
 20
-46.6556621617
 11
-30.6492775396
 21
-47.2312154077
  0
LINE
  5
132
100
AcDbEntity
  8
3
  6
ByLayer
 62
  256
370
   -1
100
AcDbLine
 10
-30.6492775396
 20
-47.2312154077
 11
-29.4715819476
 21
-47.7741513587
  0
LINE
  5
133
100
AcDbEntity
  8
3
  6
ByLayer
 62
  256
370
   -1
100
AcDbLine
 10
-29.4715819476
 20
-47.7741513587
 11
-28.2842712475
 21
-48.2842712475
  0
LINE
  5
134
100
AcDbEntity
  8
3
  6
ByLayer
 62
  256
370
   -1
100
AcDbLine
 10
-28.2842712475
 20
-48.2842712475
 11
-27.0883448843
 21
-48.7614085539
  0
LINE
  5
135
100
AcDbEntity
  8
3
  6
ByLayer
 62
  256
370
   -1
100
AcDbLine
 10
-27.0883448843
 20
-48.7614085539
 11
-25.8848049276
 21
-49.20542907
  0
LINE
  5
136
100
AcDbEntity
  8
3
  6
ByLayer
 62
  256
370
   -1
100
AcDbLine
 10
-25.8848049276
 20
-49.20542907
 11
-24.674654989
 21
-49.6162309265
  0
LINE
  5
137
100
AcDbEntity
  8
3
  6
ByLayer
 62
  256
370
   -1
100
AcDbLine
 10
-24.674654989
 20
-49.6162309265
 11
-23.4588991404
 21
-49.9937445837
  0
LINE
  5
138
100
AcDbEntity
  8
3
  6
ByLayer
 62
  256
370
   -1
100
AcDbLine
 10
-23.4588991404
 20
-49.9937445837
 11
-22.2385408341
 21
-50.337932785
  0
LINE
  5
139
100
AcDbEntity
  8
3
  6
ByLayer
 62
  256
370
   -1
100
AcDbLine
 10
-22.2385408341
 20
-50.337932785
 11
-21.0145818256
 21
-50.648790473
  0
LINE
  5
13A
100
AcDbEntity
  8
3
  6
ByLayer
 62
  256
370
   -1
100
AcDbLine
 10
-21.0145818256
 20
-50.648790473
 11
-19.788021101
 21
-50.9263446698
  0
LINE
  5
13B
100
AcDbEntity
  8
3
  6
ByLayer
 62
  256
370
   -1
100
AcDbLine
 10
-19.788021101
 20
-50.9263446698
 11
-18.5598538097
 21
-51.1706543207
  0
LINE
  5
13C
100
AcDbEntity
  8
3
  6
ByLayer
 62
  256
370
   -1
100
AcDbLine
 10
-18.5598538097
 20
-51.1706543207
 11
-17.3310702042
 21
-51.3818101009
  0
LINE
  5
13D
100
AcDbEntity
  8
3
  6
ByLayer
 62
  256
370
   -1
100
AcDbLine
 10
-17.3310702042
 20
-51.3818101009
 11
-16.1026545875
 21
-51.5599341873
  0
LINE
  5
13E
100
AcDbEntity
  8
3
  6
ByLayer
 62
  256
370
   -1
100
AcDbLine
 10
-16.1026545875
 20
-51.5599341873
 11
-14.8755842705
 21
-51.7051799935
  0
LINE
  5
13F
100
AcDbEntity
  8
3
  6
ByLayer
 62
  256
370
   -1
100
AcDbLine
 10
-14.8755842705
 20
-51.7051799935
 11
-13.6508285391
 21
-51.8177318707
  0
LINE
  5
140
100
AcDbEntity
  8
3
  6
ByLayer
 62
  256
370
   -1
100
AcDbLine
 10
-13.6508285391
 20
-51.8177318707
 11
-12.4293476335
 21
-51.8978047722
  0
LINE
  5
141
100
AcDbEntity
  8
3
  6
ByLayer
 62
  256
370
   -1
100
AcDbLine
 10
-12.4293476335
 20
-51.8978047722
 11
-11.2120917407
 21
-51.9456438853
  0
LINE
  5
142
100
AcDbEntity
  8
3
  6
ByLayer
 62
  256
370
   -1
100
AcDbLine
 10
-11.2120917407
 20
-51.9456438853
 11
-10
 21
-51.9615242271
  0
LINE
  5
143
100
AcDbEntity
  8
3
  6
ByLayer
 62
  256
370
   -1
100
AcDbLine
 10
-10
 20
-51.9615242271
 11
-8.793999525189999
 21
-51.9457502087
  0
LINE
  5
144
100
AcDbEntity
  8
3
  6
ByLayer
 62
  256
370
   -1
100
AcDbLine
 10
-8.793999525189999
 20
-51.9457502087
 11
-7.59500444202
 21
-51.8986551655
  0
LINE
  5
145
100
AcDbEntity
  8
3
  6
ByLayer
 62
  256
370
   -1
100
AcDbLine
 10
-7.59500444202
 20
-51.8986551655
 11
-6.40391494373
 21
-51.820600855
  0
LINE
  5
146
100
AcDbEntity
  8
3
  6
ByLayer
 62
  256
370
   -1
100
AcDbLine
 10
-6.40391494373
 20
-51.820600855
 11
-5.22161636505
 21
-51.7119769241
  0
LINE
  5
147
100
AcDbEntity
  8
3
  6
ByLayer
 62
  256
370
   -1
100
AcDbLine
 10
-5.22161636505
 20
-51.7119769241
 11
-4.0489782759
 21
-51.5732003438
  0
LINE
  5
148
100
AcDbEntity
  8
3
  6
ByLayer
 62
  256
370
   -1
100
AcDbLine
 10
-4.0489782759
 20
-51.5732003438
 11
-2.88685359585
 21
-51.4047148153
  0
LINE
  5
149
100
AcDbEntity
  8
3
  6
ByLayer
 62
  256
370
   -1
100
AcDbLine
 10
-2.88685359585
 20
-51.4047148153
 11
-1.73607773039
 21
-51.2069901449
  0
LINE
  5
14A
100
AcDbEntity
  8
3
  6
ByLayer
 62
  256
370
   -1
100
AcDbLine
 10
-1.73607773039
 20
-51.2069901449
 11
-0.597467729863
 21
-50.9805215919
  0
LINE
  5
14B
100
AcDbEntity
  8
3
  6
ByLayer
 62
  256
370
   -1
100
AcDbLine
 10
-0.597467729863
 20
-50.9805215919
 11
0.528178527736
 21
-50.7258291871
  0
LINE
  5
14C
100
AcDbEntity
  8
3
  6
ByLayer
 62
  256
370
   -1
100
AcDbLine
 10
0.528178527736
 20
-50.7258291871
 11
1.64008312935
 21
-50.4434570252
  0
LINE
  5
14D
100
AcDbEntity
  8
3
  6
ByLayer
 62
  256
370
   -1
100
AcDbLine
 10
1.64008312935
 20
-50.4434570252
 11
2.73748889385
 21
-50.1339725305
  0
LINE
  5
14E
100
AcDbEntity
  8
3
  6
ByLayer
 62
  256
370
   -1
100
AcDbLine
 10
2.73748889385
 20
-50.1339725305
 11
3.8196601125
 21
-49.7979656977
  0
LINE
  5
14F
100
AcDbEntity
  8
3
  6
ByLayer
 62
  256
370
   -1
100
AcDbLine
 10
3.8196601125
 20
-49.7979656977
 11
4.88588326219
 21
-49.4360483079
  0
LINE
  5
150
100
AcDbEntity
  8
3
  6
ByLayer
 62
  256
370
   -1
100
AcDbLine
 10
4.88588326219
 20
-49.4360483079
 11
5.93546769045
 21
-49.0488531222
  0
LINE
  5
151
100
AcDbEntity
  8
3
  6
ByLayer
 62
  256
370
   -1
100
AcDbLine
 10
5.93546769045
 20
-49.0488531222
 11
6.96774627159
 21
-48.6370330516
  0
LINE
  5
152
100
AcDbEntity
  8
3
  6
ByLayer
 62
  256
370
   -1
100
AcDbLine
 10
6.96774627159
 20
-48.6370330516
 11
7.98207603319
 21
-48.2012603068
  0
LINE
  5
153
100
AcDbEntity
  8
3
  6
ByLayer
 62
  256
370
   -1
100
AcDbLine
 10
7.98207603319
 20
-48.2012603068
 11
8.977838752229999
 21
-47.7422255272
  0
LINE
  5
154
100
AcDbEntity
  8
3
  6
ByLayer
 62
  256
370
   -1
100
AcDbLine
 10
8.977838752229999
 20
-47.7422255272
 11
9.95444152014
 21
-47.2606368909
  0
LINE
  5
155
100
AcDbEntity
  8
3
  6
ByLayer
 62
  256
370
   -1
100
AcDbLine
 10
9.95444152014
 20
-47.2606368909
 11
10.9113172763
 21
-46.7572192062
  0
LINE
  5
156
100
AcDbEntity
  8
3
  6
ByLayer
 62
  256
370
   -1
100
AcDbLine
 10
10.9113172763
 20
-46.7572192062
 11
11.847925309
 21
-46.232712987
  0
LINE
  5
157
100
AcDbEntity
  8
3
  6
ByLayer
 62
  256
370
   -1
100
AcDbLine
 10
11.847925309
 20
-46.232712987
 11
12.7637517243
 21
-45.6878735113
  0
LINE
  5
158
100
AcDbEntity
  8
3
  6
ByLayer
 62
  256
370
   -1
100
AcDbLine
 10
12.7637517243
 20
-45.6878735113
 11
13.6583098804
 21
-45.123469866
  0
LINE
  5
159
100
AcDbEntity
  8
3
  6
ByLayer
 62
  256
370
   -1
100
AcDbLine
 10
13.6583098804
 20
-45.123469866
 11
14.5311407893
 21
-44.5402839776
  0
LINE
  5
15A
100
AcDbEntity
  8
3
  6
ByLayer
 62
  256
370
   -1
100
AcDbLine
 10
14.5311407893
 20
-44.5402839776
 11
15.381813484
 21
-43.9391096311
  0
LINE
  5
15B
100
AcDbEntity
  8
3
  6
ByLayer
 62
  256
370
   -1
100
AcDbLine
 10
15.381813484
 20
-43.9391096311
 11
16.2099253503
 21
-43.320751477
  0
LINE
  5
15C
100
AcDbEntity
  8
3
  6
ByLayer
 62
  256
370
   -1
100
AcDbLine
 10
16.2099253503
 20
-43.320751477
 11
17.0151024251
 21
-42.6860240296
  0
LINE
  5
15D
100
AcDbEntity
  8
3
  6
ByLayer
 62
  256
370
   -1
100
AcDbLine
 10
17.0151024251
 20
-42.6860240296
 11
17.7969996576
 21
-42.0357506555
  0
LINE
  5
15E
100
AcDbEntity
  8
3
  6
ByLayer
 62
  256
370
   -1
100
AcDbLine
 10
17.7969996576
 20
-42.0357506555
 11
18.5553011371
 21
-41.3707625556
  0
LINE
  5
15F
100
AcDbEntity
  8
3
  6
ByLayer
 62
  256
370
   -1
100
AcDbLine
 10
18.5553011371
 20
-41.3707625556
 11
19.2897202829
 21
-40.6918977403
  0
LINE
  5
160
100
AcDbEntity
  8
3
  6
ByLayer
 62
  256
370
   -1
100
AcDbLine
 10
19.2897202829
 20
-40.6918977403
 11
20
 21
-40
  0
LINE
  5
161
100
AcDbEntity
  8
3
  6
ByLayer
 62
  256
370
   -1
100
AcDbLine
 10
20
 20
-40
 11
20.6859127979
 21
-39.2959178722
  0
LINE
  5
162
100
AcDbEntity
  8
3
  6
ByLayer
 62
  256
370
   -1
100
AcDbLine
 10
20.6859127979
 20
-39.2959178722
 11
21.3472608733
 21
-38.5805036059
  0
LINE
  5
163
100
AcDbEntity
  8
3
  6
ByLayer
 62
  256
370
   -1
100
AcDbLine
 10
21.3472608733
 20
-38.5805036059
 11
21.9838761571
 21
-37.8546121248
  0
LINE
  5
164
100
AcDbEntity
  8
3
  6
ByLayer
 62
  256
370
   -1
100
AcDbLine
 10
21.9838761571
 20
-37.8546121248
 11
22.5956203246
 21
-37.1190999912
  0
LINE
  5
165
100
AcDbEntity
  8
3
  6
ByLayer
 62
  256
370
   -1
100
AcDbLine
 10
22.5956203246
 20
-37.1190999912
 11
23.1823847702
 21
-36.3748243703
  0
LINE
  5
166
100
AcDbEntity
  8
3
  6
ByLayer
 62
  256
370
   -1
100
AcDbLine
 10
23.1823847702
 20
-36.3748243703
 11
23.7440905454
 21
-35.6226419984
  0
LINE
  5
167
100
AcDbEntity
  8
3
  6
ByLayer
 62
  256
370
   -1
100
AcDbLine
 10
23.7440905454
 20
-35.6226419984
 11
24.2806882617
 21
-34.8634081537
  0
LINE
  5
168
100
AcDbEntity
  8
3
  6
ByLayer
 62
  256
370
   -1
100
AcDbLine
 10
24.2806882617
 20
-34.8634081537
 11
24.7921579572
 21
-34.0979756333
  0
LINE
  5
169
100
AcDbEntity
  8
3
  6
ByLayer
 62
  256
370
   -1
100
AcDbLine
 10
24.7921579572
 20
-34.0979756333
 11
25.2785089275
 21
-33.3271937363
  0
LINE
  5
16A
100
AcDbEntity
  8
3
  6
ByLayer
 62
  256
370
   -1
100
AcDbLine
 10
25.2785089275
 20
-33.3271937363
 11
25.7397795224
 21
-32.551907254
  0
LINE
  5
16B
100
AcDbEntity
  8
3
  6
ByLayer
 62
  256
370
   -1
100
AcDbLine
 10
25.7397795224
 20
-32.551907254
 11
26.1760369064
 21
-31.7729554696
  0
LINE
  5
16C
100
AcDbEntity
  8
3
  6
ByLayer
 62
  256
370
   -1
100
AcDbLine
 10
26.1760369064
 20
-31.7729554696
 11
26.5873767856
 21
-30.9911711678
  0
LINE
  5
16D
100
AcDbEntity
  8
3
  6
ByLayer
 62
  256
370
   -1
100
AcDbLine
 10
26.5873767856
 20
-30.9911711678
 11
26.9739230997
 21
-30.2073796556
  0
LINE
  5
16E
100
AcDbEntity
  8
3
  6
ByLayer
 62
  256
370
   -1
100
AcDbLine
 10
26.9739230997
 20
-30.2073796556
 11
27.3358276812
 21
-29.4223977953
  0
LINE
  5
16F
100
AcDbEntity
  8
3
  6
ByLayer
 62
  256
370
   -1
100
AcDbLine
 10
27.3358276812
 20
-29.4223977953
 11
27.6732698798
 21
-28.6370330516
  0
LINE
  5
170
100
AcDbEntity
  8
3
  6
ByLayer
 62
  256
370
   -1
100
AcDbLine
 10
27.6732698798
 20
-28.6370330516
 11
27.9864561558
 21
-27.8520825529
  0
LINE
  5
171
100
AcDbEntity
  8
3
  6
ByLayer
 62
  256
370
   -1
100
AcDbLine
 10
27.9864561558
 20
-27.8520825529
 11
28.27561964
 21
-27.0683321691
  0
LINE
  5
172
100
AcDbEntity
  8
3
  6
ByLayer
 62
  256
370
   -1
100
AcDbLine
 10
28.27561964
 20
-27.0683321691
 11
28.5410196625
 21
-26.286555606
  0
LINE
  5
173
100
AcDbEntity
  8
3
  6
ByLayer
 62
  256
370
   -1
100
AcDbLine
 10
28.5410196625
 20
-26.286555606
 11
28.7829412504
 21
-25.5075135175
  0
LINE
  5
174
100
AcDbEntity
  8
3
  6
ByLayer
 62
  256
370
   -1
100
AcDbLine
 10
28.7829412504
 20
-25.5075135175
 11
29.0016945954
 21
-24.7319526377
  0
LINE
  5
175
100
AcDbEntity
  8
3
  6
ByLayer
 62
  256
370
   -1
100
AcDbLine
 10
29.0016945954
 20
-24.7319526377
 11
29.1976144914
 21
-23.9606049327
  0
LINE
  5
176
100
AcDbEntity
  8
3
  6
ByLayer
 62
  256
370
   -1
100
AcDbLine
 10
29.1976144914
 20
-23.9606049327
 11
29.3710597434
 21
-23.1941867735
  0
LINE
  5
177
100
AcDbEntity
  8
3
  6
ByLayer
 62
  256
370
   -1
100
AcDbLine
 10
29.3710597434
 20
-23.1941867735
 11
29.5224125488
 21
-22.4333981313
  0
LINE
  5
178
100
AcDbEntity
  8
3
  6
ByLayer
 62
  256
370
   -1
100
AcDbLine
 10
29.5224125488
 20
-22.4333981313
 11
29.6520778502
 21
-21.6789217962
  0
LINE
  5
179
100
AcDbEntity
  8
3
  6
ByLayer
 62
  256
370
   -1
100
AcDbLine
 10
29.6520778502
 20
-21.6789217962
 11
29.7604826634
 21
-20.9314226191
  0
LINE
  5
17A
100
AcDbEntity
  8
3
  6
ByLayer
 62
  256
370
   -1
100
AcDbLine
 10
29.7604826634
 20
-20.9314226191
 11
29.8480753781
 21
-20.1915467798
  0
LINE
  5
17B
100
AcDbEntity
  8
3
  6
ByLayer
 62
  256
370
   -1
100
AcDbLine
 10
29.8480753781
 20
-20.1915467798
 11
29.9153250354
 21
-19.45992108
  0
LINE
  5
17C
100
AcDbEntity
  8
3
  6
ByLayer
 62
  256
370
   -1
100
AcDbLine
 10
29.9153250354
 20
-19.45992108
 11
29.9627205809
 21
-18.7371522633
  0
LINE
  5
17D
100
AcDbEntity
  8
3
  6
ByLayer
 62
  256
370
   -1
100
AcDbLine
 10
29.9627205809
 20
-18.7371522633
 11
29.9907700945
 21
-18.0238263624
  0
LINE
  5
17E
100
AcDbEntity
  8
3
  6
ByLayer
 62
  256
370
   -1
100
AcDbLine
 10
29.9907700945
 20
-18.0238263624
 11
30
 21
-17.3205080757
  0
LINE
  5
17F
100
AcDbEntity
  8
3
  6
ByLayer
 62
  256
370
   -1
100
AcDbLine
 10
30
 20
-17.3205080757
 11
29.9909542521
 21
-16.6277401709
  0
LINE
  5
180
100
AcDbEntity
  8
3
  6
ByLayer
 62
  256
370
   -1
100
AcDbLine
 10
29.9909542521
 20
-16.6277401709
 11
29.9641935051
 21
-15.9460429203
  0
LINE
  5
181
100
AcDbEntity
  8
3
  6
ByLayer
 62
  256
370
   -1
100
AcDbLine
 10
29.9641935051
 20
-15.9460429203
 11
29.9202942621
 21
-15.275913565
  0
LINE
  5
182
100
AcDbEntity
  8
3
  6
ByLayer
 62
  256
370
   -1
100
AcDbLine
 10
29.9202942621
 20
-15.275913565
 11
29.8598480071
 21
-14.6178258109
  0
LINE
  5
183
100
AcDbEntity
  8
3
  6
ByLayer
 62
  256
370
   -1
100
AcDbLine
 10
29.8598480071
 20
-14.6178258109
 11
29.7834603206
 21
-13.9722293558
  0
LINE
  5
184
100
AcDbEntity
  8
3
  6
ByLayer
 62
  256
370
   -1
100
AcDbLine
 10
29.7834603206
 20
-13.9722293558
 11
29.6917499792
 21
-13.3395494491
  0
LINE
  5
185
100
AcDbEntity
  8
3
  6
ByLayer
 62
  256
370
   -1
100
AcDbLine
 10
29.6917499792
 20
-13.3395494491
 11
29.5853480424
 21
-12.7201864831
  0
LINE
  5
186
100
AcDbEntity
  8
3
  6
ByLayer
 62
  256
370
   -1
100
AcDbLine
 10
29.5853480424
 20
-12.7201864831
 11
29.464896925
 21
-12.1145156187
  0
LINE
  5
187
100
AcDbEntity
  8
3
  6
ByLayer
 62
  256
370
   -1
100
AcDbLine
 10
29.464896925
 20
-12.1145156187
 11
29.3310494583
 21
-11.5228864436
  0
LINE
  5
188
100
AcDbEntity
  8
3
  6
ByLayer
 62
  256
370
   -1
100
AcDbLine
 10
29.3310494583
 20
-11.5228864436
 11
29.1844679408
 21
-10.9456226645
  0
LINE
  5
189
100
AcDbEntity
  8
3
  6
ByLayer
 62
  256
370
   -1
100
AcDbLine
 10
29.1844679408
 20
-10.9456226645
 11
29.0258231788
 21
-10.3830218341
  0
LINE
  5
18A
100
AcDbEntity
  8
3
  6
ByLayer
 62
  256
370
   -1
100
AcDbLine
 10
29.0258231788
 20
-10.3830218341
 11
28.8557935197
 21
-9.835355111729999
  0
LINE
  5
18B
100
AcDbEntity
  8
3
  6
ByLayer
 62
  256
370
   -1
100
AcDbLine
 10
28.8557935197
 20
-9.835355111729999
 11
28.6750638774
 21
-9.30286705957
  0
LINE
  5
18C
100
AcDbEntity
  8
3
  6
ByLayer
 62
  256
370
   -1
100
AcDbLine
 10
28.6750638774
 20
-9.30286705957
 11
28.4843247524
 21
-8.785775473159999
  0
LINE
  5
18D
100
AcDbEntity
  8
3
  6
ByLayer
 62
  256
370
   -1
100
AcDbLine
 10
28.4843247524
 20
-8.785775473159999
 11
28.2842712475
 21
-8.28427124746
  0
LINE
  5
18E
100
AcDbEntity
  8
3
  6
ByLayer
 62
  256
370
   -1
100
AcDbLine
 10
28.2842712475
 20
-8.28427124746
 11
28.0756020795
 21
-7.79851827798
  0
LINE
  5
18F
100
AcDbEntity
  8
3
  6
ByLayer
 62
  256
370
   -1
100
AcDbLine
 10
28.0756020795
 20
-7.79851827798
 11
27.8590185899
 21
-7.3286533973
  0
LINE
  5
190
100
AcDbEntity
  8
3
  6
ByLayer
 62
  256
370
   -1
100
AcDbLine
 10
27.8590185899
 20
-7.3286533973
 11
27.6352237537
 21
-6.87478634699
  0
LINE
  5
191
100
AcDbEntity
  8
3
  6
ByLayer
 62
  256
370
   -1
100
AcDbLine
 10
27.6352237537
 20
-6.87478634699
 11
27.4049211897
 21
-6.43699978479
  0
LINE
  5
192
100
AcDbEntity
  8
3
  6
ByLayer
 62
  256
370
   -1
100
AcDbLine
 10
27.4049211897
 20
-6.43699978479
 11
27.1688141714
 21
-6.01534932722
  0
LINE
  5
193
100
AcDbEntity
  8
3
  6
ByLayer
 62
  256
370
   -1
100
AcDbLine
 10
27.1688141714
 20
-6.01534932722
 11
26.9276046419
 21
-5.60986362732
  0
LINE
  5
194
100
AcDbEntity
  8
3
  6
ByLayer
 62
  256
370
   -1
100
AcDbLine
 10
26.9276046419
 20
-5.60986362732
 11
26.6819922323
 21
-5.22054448751
  0
LINE
  5
195
100
AcDbEntity
  8
3
  6
ByLayer
 62
  256
370
   -1
100
AcDbLine
 10
26.6819922323
 20
-5.22054448751
 11
26.4326732856
 21
-4.84736700732
  0
LINE
  5
196
100
AcDbEntity
  8
3
  6
ByLayer
 62
  256
370
   -1
100
AcDbLine
 10
26.4326732856
 20
-4.84736700732
 11
26.1803398875
 21
-4.4902797658
  0
LINE
  5
197
100
AcDbEntity
  8
3
  6
ByLayer
 62
  256
370
   -1
100
AcDbLine
 10
26.1803398875
 20
-4.4902797658
 11
25.925678905
 21
-4.14920503832
  0
LINE
  5
198
100
AcDbEntity
  8
3
  6
ByLayer
 62
  256
370
   -1
100
AcDbLine
 10
25.925678905
 20
-4.14920503832
 11
25.6693710339
 21
-3.82403904749
  0
LINE
  5
199
100
AcDbEntity
  8
3
  6
ByLayer
 62
  256
370
   -1
100
AcDbLine
 10
25.6693710339
 20
-3.82403904749
 11
25.4120898563
 21
-3.51465224775
  0
LINE
  5
19A
100
AcDbEntity
  8
3
  6
ByLayer
 62
  256
370
   -1
100
AcDbLine
 10
25.4120898563
 20
-3.51465224775
 11
25.1545009105
 21
-3.22088964334
  0
LINE
  5
19B
100
AcDbEntity
  8
3
  6
ByLayer
 62
  256
370
   -1
100
AcDbLine
 10
25.1545009105
 20
-3.22088964334
 11
24.8972607724
 21
-2.94257113922
  0
LINE
  5
19C
100
AcDbEntity
  8
3
  6
ByLayer
 62
  256
370
   -1
100
AcDbLine
 10
24.8972607724
 20
-2.94257113922
 11
24.6410161514
 21
-2.67949192431
  0
LINE
  5
19D
100
AcDbEntity
  8
3
  6
ByLayer
 62
  256
370
   -1
100
AcDbLine
 10
24.6410161514
 20
-2.67949192431
 11
24.3864030009
 21
-2.43142288672
  0
LINE
  5
19E
100
AcDbEntity
  8
3
  6
ByLayer
 62
  256
370
   -1
100
AcDbLine
 10
24.3864030009
 20
-2.43142288672
 11
24.1340456449
 21
-2.19811106033
  0
LINE
  5
19F
100
AcDbEntity
  8
3
  6
ByLayer
 62
  256
370
   -1
100
AcDbLine
 10
24.1340456449
 20
-2.19811106033
 11
23.8845559217
 21
-1.97928010208
  0
LINE
  5
1A0
100
AcDbEntity
  8
3
  6
ByLayer
 62
  256
370
   -1
100
AcDbLine
 10
23.8845559217
 20
-1.97928010208
 11
23.6385323455
 21
-1.77463079943
  0
LINE
  5
1A1
100
AcDbEntity
  8
3
  6
ByLayer
 62
  256
370
   -1
100
AcDbLine
 10
23.6385323455
 20
-1.77463079943
 11
23.3965592877
 21
-1.58384160725
  0
LINE
  5
1A2
100
AcDbEntity
  8
3
  6
ByLayer
 62
  256
370
   -1
100
AcDbLine
 10
23.3965592877
 20
-1.58384160725
 11
23.1592061785
 21
-1.40656921348
  0
LINE
  5
1A3
100
AcDbEntity
  8
3
  6
ByLayer
 62
  256
370
   -1
100
AcDbLine
 10
23.1592061785
 20
-1.40656921348
 11
22.9270267289
 21
-1.2424491328
  0
LINE
  5
1A4
100
AcDbEntity
  8
3
  6
ByLayer
 62
  256
370
   -1
100
AcDbLine
 10
22.9270267289
 20
-1.2424491328
 11
22.7005581759
 21
-1.09109632746
  0
LINE
  5
1A5
100
AcDbEntity
  8
3
  6
ByLayer
 62
  256
370
   -1
100
AcDbLine
 10
22.7005581759
 20
-1.09109632746
 11
22.4803205503
 21
-0.952105854635
  0
LINE
  5
1A6
100
AcDbEntity
  8
3
  6
ByLayer
 62
  256
370
   -1
100
AcDbLine
 10
22.4803205503
 20
-0.952105854635
 11
22.2668159691
 21
-0.825053539296
  0
LINE
  5
1A7
100
AcDbEntity
  8
3
  6
ByLayer
 62
  256
370
   -1
100
AcDbLine
 10
22.2668159691
 20
-0.825053539296
 11
22.0605279518
 21
-0.709496671773
  0
LINE
  5
1A8
100
AcDbEntity
  8
3
  6
ByLayer
 62
  256
370
   -1
100
AcDbLine
 10
22.0605279518
 20
-0.709496671773
 11
21.8619207643
 21
-0.604974729148
  0
LINE
  5
1A9
100
AcDbEntity
  8
3
  6
ByLayer
 62
  256
370
   -1
100
AcDbLine
 10
21.8619207643
 20
-0.604974729148
 11
21.6714387874
 21
-0.511010119495
  0
LINE
  5
1AA
100
AcDbEntity
  8
3
  6
ByLayer
 62
  256
370
   -1
100
AcDbLine
 10
21.6714387874
 20
-0.511010119495
 11
21.4895059144
 21
-0.427108948016
  0
LINE
  5
1AB
100
AcDbEntity
  8
3
  6
ByLayer
 62
  256
370
   -1
100
AcDbLine
 10
21.4895059144
 20
-0.427108948016
 11
21.3165249759
 21
-0.352761804101
  0
LINE
  5
1AC
100
AcDbEntity
  8
3
  6
ByLayer
 62
  256
370
   -1
100
AcDbLine
 10
21.3165249759
 20
-0.352761804101
 11
21.1528771939
 21
-0.287444568269
  0
LINE
  5
1AD
100
AcDbEntity
  8
3
  6
ByLayer
 62
  256
370
   -1
100
AcDbLine
 10
21.1528771939
 20
-0.287444568269
 11
20.9989216654
 21
-0.230619237973
  0
LINE
  5
1AE
100
AcDbEntity
  8
3
  6
ByLayer
 62
  256
370
   -1
100
AcDbLine
 10
20.9989216654
 20
-0.230619237973
 11
20.8549948765
 21
-0.181734771194
  0
LINE
  5
1AF
100
AcDbEntity
  8
3
  6
ByLayer
 62
  256
370
   -1
100
AcDbLine
 10
20.8549948765
 20
-0.181734771194
 11
20.7214102466
 21
-0.140227946744
  0
LINE
  5
1B0
100
AcDbEntity
  8
3
  6
ByLayer
 62
  256
370
   -1
100
AcDbLine
 10
20.7214102466
 20
-0.140227946744
 11
20.5984577048
 21
-0.105524240164
  0
LINE
  5
1B1
100
AcDbEntity
  8
3
  6
ByLayer
 62
  256
370
   -1
100
AcDbLine
 10
20.5984577048
 20
-0.105524240164
 11
20.4864032979
 21
-0.0770387141103
  0
LINE
  5
1B2
100
AcDbEntity
  8
3
  6
ByLayer
 62
  256
370
   -1
100
AcDbLine
 10
20.4864032979
 20
-0.0770387141103
 11
20.3854888309
 21
-0.0541769220626
  0
LINE
  5
1B3
100
AcDbEntity
  8
3
  6
ByLayer
 62
  256
370
   -1
100
AcDbLine
 10
20.3854888309
 20
-0.0541769220626
 11
20.2959315401
 21
-0.0363358242125
  0
LINE
  5
1B4
100
AcDbEntity
  8
3
  6
ByLayer
 62
  256
370
   -1
100
AcDbLine
 10
20.2959315401
 20
-0.0363358242125
 11
20.2179238001
 21
-0.022904714351
  0
LINE
  5
1B5
100
AcDbEntity
  8
3
  6
ByLayer
 62
  256
370
   -1
100
AcDbLine
 10
20.2179238001
 20
-0.022904714351
 11
20.1516328634
 21
-0.0132661565677
  0
LINE
  5
1B6
100
AcDbEntity
  8
3
  6
ByLayer
 62
  256
370
   -1
100
AcDbLine
 10
20.1516328634
 20
-0.0132661565677
 11
20.0972006356
 21
-0.0067969305637
  0
LINE
  5
1B7
100
AcDbEntity
  8
3
  6
ByLayer
 62
  256
370
   -1
100
AcDbLine
 10
20.0972006356
 20
-0.0067969305637
 11
20.0547434828
 21
-0.00286898436468
  0
LINE
  5
1B8
100
AcDbEntity
  8
3
  6
ByLayer
 62
  256
370
   -1
100
AcDbLine
 10
20.0547434828
 20
-0.00286898436468
 11
20.0243520756
 21
-0.000850393217533
  0
LINE
  5
1B9
100
AcDbEntity
  8
3
  6
ByLayer
 62
  256
370
   -1
100
AcDbLine
 10
20.0243520756
 20
-0.000850393217533
 11
20.0060912659
 21
-0.000106323441321
  0
MTEXT
  5
1BA
100
AcDbEntity
  8
3
  6
ByLayer
 62
  256
370
   -1
100
AcDbMText
 10
-15
 20
-56.96152422710018
 30
0
 40
3
 41
14.66666666666699
 71
    8
 72
    5
  1
Cardioid
  7
iso
210
0
220
0
230
1
 50
0
 73
    1
 44
0.96
  0
ENDSEC
  0
SECTION
  2
OBJECTS
  0
DICTIONARY
  5
C
330
0
100
AcDbDictionary
281
    1
  3
ACAD_GROUP
350
D
  0
DICTIONARY
  5
D
330
C
100
AcDbDictionary
281
    1
  0
ENDSEC
  0
EOF
