999
dxfrw 0.6.3
  0
SECTION
  2
HEADER
  9
$ACADVER
  1
AC1021
  9
$DWGCODEPAGE
  3
ANSI_1252
  9
$INSBASE
 10
0
 20
0
 30
0
  9
$EXTMIN
 10
0
 20
-156.4213562370006
 30
0
  9
$EXTMAX
 10
500
 20
141.421356237
 30
0
  9
$LIMMIN
 10
0
 20
0
  9
$LIMMAX
 10
420
 20
297
  9
$ORTHOMODE
 70
    0
  9
$REGENMODE
 70
    1
  9
$FILLMODE
 70
    1
  9
$QTEXTMODE
 70
    0
  9
$MIRRTEXT
 70
    0
  9
$LTSCALE
 40
1
  9
$ATTMODE
 70
    0
  9
$TEXTSIZE
 40
2.5
  9
$TRACEWID
 40
15.68
  9
$TEXTSTYLE
  7
STANDARD
  9
$CLAYER
  8
0
  9
$CELTYPE
  6
BYLAYER
  9
$CECOLOR
 62
  256
  9
$CELTSCALE
 40
1
  9
$DISPSILH
 70
    0
  9
$DIMSCALE
 40
2.5
  9
$DIMASZ
 40
2.5
  9
$DIMEXO
 40
0.625
  9
$DIMDLI
 40
3.75
  9
$DIMRND
 40
0
  9
$DIMDLE
 40
0
  9
$DIMEXE
 40
1.25
  9
$DIMTP
 40
0
  9
$DIMTM
 40
0
  9
$DIMTXT
 40
2.5
  9
$DIMCEN
 40
2.5
  9
$DIMTSZ
 40
0
  9
$DIMTOL
 70
    0
  9
$DIMLIM
 70
    0
  9
$DIMTIH
 70
    0
  9
$DIMTOH
 70
    0
  9
$DIMSE1
 70
    0
  9
$DIMSE2
 70
    0
  9
$DIMTAD
 70
    1
  9
$DIMZIN
 70
    8
  9
$DIMBLK
  1

  9
$DIMASO
 70
    1
  9
$DIMSHO
 70
    1
  9
$DIMPOST
  1

  9
$DIMAPOST
  1

  9
$DIMALT
 70
    0
  9
$DIMALTD
 70
    3
  9
$DIMALTF
 40
0.03937
  9
$DIMLFAC
 40
1
  9
$DIMTOFL
 70
    1
  9
$DIMTVP
 40
0
  9
$DIMTIX
 70
    0
  9
$DIMSOXD
 70
    0
  9
$DIMSAH
 70
    0
  9
$DIMBLK1
  1

  9
$DIMBLK2
  1

  9
$DIMSTYLE
  2
Standard
  9
$DIMCLRD
 70
    0
  9
$DIMCLRE
 70
    0
  9
$DIMCLRT
 70
    0
  9
$DIMTFAC
 40
1
  9
$DIMGAP
 40
0.625
  9
$DIMJUST
 70
    0
  9
$DIMSD1
 70
    0
  9
$DIMSD2
 70
    0
  9
$DIMTOLJ
 70
    0
  9
$DIMTZIN
 70
    8
  9
$DIMALTZ
 70
    0
  9
$DIMALTTZ
 70
    0
  9
$DIMUPT
 70
    0
  9
$DIMDEC
 70
    2
  9
$DIMTDEC
 70
    2
  9
$DIMALTU
 70
    2
  9
$DIMALTTD
 70
    3
  9
$DIMTXSTY
  7
STANDARD
  9
$DIMAUNIT
 70
    0
  9
$DIMADEC
 70
    0
  9
$DIMALTRND
 40
0
  9
$DIMAZIN
 70
    0
  9
$DIMDSEP
 70
   44
  9
$DIMATFIT
 70
    3
  9
$DIMFRAC
 70
    0
  9
$DIMLDRBLK
  1
STANDARD
  9
$DIMLUNIT
 70
    2
  9
$DIMLWD
 70
   -2
  9
$DIMLWE
 70
   -2
  9
$DIMTMOVE
 70
    0
  9
$DIMFXL
 40
1
  9
$DIMFXLON
 70
    0
  9
$DIMJOGANG
 40
0.7854
  9
$DIMTFILL
 70
    0
  9
$DIMTFILLCLR
 70
    0
  9
$DIMARCSYM
 70
    0
  9
$DIMLTYPE
  6

  9
$DIMLTEX1
  6

  9
$DIMLTEX2
  6

  9
$LUNITS
 70
    2
  9
$LUPREC
 70
    4
  9
$SKETCHINC
 40
1
  9
$FILLETRAD
 40
0
  9
$AUNITS
 70
    0
  9
$AUPREC
 70
    2
  9
$MENU
  1
.
  9
$ELEVATION
 40
0
  9
$PELEVATION
 40
0
  9
$THICKNESS
 40
0
  9
$LIMCHECK
 70
    0
  9
$CHAMFERA
 40
0
  9
$CHAMFERB
 40
0
  9
$CHAMFERC
 40
0
  9
$CHAMFERD
 40
0
  9
$SKPOLY
 70
    0
  9
$USRTIMER
 70
    1
  9
$ANGBASE
 50
0
  9
$ANGDIR
 70
    0
  9
$PDMODE
 70
   34
  9
$PDSIZE
 40
0
  9
$PLINEWID
 40
0
  9
$SPLFRAME
 70
    0
  9
$SPLINETYPE
 70
    2
  9
$SPLINESEGS
 70
    8
  9
$HANDSEED
  5
20000
  9
$SURFTAB1
 70
    6
  9
$SURFTAB2
 70
    6
  9
$SURFTYPE
 70
    6
  9
$SURFU
 70
    6
  9
$SURFV
 70
    6
  9
$UCSBASE
  2

  9
$UCSNAME
  2

  9
$UCSORG
 10
0
 20
0
 30
0
  9
$UCSXDIR
 10
1
 20
0
 30
0
  9
$UCSYDIR
 10
0
 20
1
 30
0
  9
$UCSORTHOREF
  2

  9
$UCSORTHOVIEW
 70
    0
  9
$UCSORGTOP
 10
0
 20
0
 30
0
  9
$UCSORGBOTTOM
 10
0
 20
0
 30
0
  9
$UCSORGLEFT
 10
0
 20
0
 30
0
  9
$UCSORGRIGHT
 10
0
 20
0
 30
0
  9
$UCSORGFRONT
 10
0
 20
0
 30
0
  9
$UCSORGBACK
 10
0
 20
0
 30
0
  9
$PUCSBASE
  2

  9
$PUCSNAME
  2

  9
$PUCSORG
 10
0
 20
0
 30
0
  9
$PUCSXDIR
 10
1
 20
0
 30
0
  9
$PUCSYDIR
 10
0
 20
1
 30
0
  9
$PUCSORTHOREF
  2

  9
$PUCSORTHOVIEW
 70
    0
  9
$PUCSORGTOP
 10
0
 20
0
 30
0
  9
$PUCSORGBOTTOM
 10
0
 20
0
 30
0
  9
$PUCSORGLEFT
 10
0
 20
0
 30
0
  9
$PUCSORGRIGHT
 10
0
 20
0
 30
0
  9
$PUCSORGFRONT
 10
0
 20
0
 30
0
  9
$PUCSORGBACK
 10
0
 20
0
 30
0
  9
$USERI1
 70
    0
  9
$USERI2
 70
    0
  9
$USERI3
 70
    0
  9
$USERI4
 70
    0
  9
$USERI5
 70
    0
  9
$USERR1
 40
0
  9
$USERR2
 40
0
  9
$USERR3
 40
0
  9
$USERR4
 40
0
  9
$USERR5
 40
0
  9
$WORLDVIEW
 70
    1
  9
$SHADEDGE
 70
    3
  9
$SHADEDIF
 70
   70
  9
$TILEMODE
 70
    1
  9
$MAXACTVP
 70
   64
  9
$PINSBASE
 10
0
 20
0
 30
0
  9
$PLIMCHECK
 70
    0
  9
$PEXTMIN
 10
0
 20
0
 30
0
  9
$PEXTMAX
 10
0
 20
0
 30
0
  9
$GRIDMODE
 70
    1
  9
$SNAPSTYLE
 70
    0
  9
$PLIMMIN
 10
0
 20
0
  9
$PLIMMAX
 10
210
 20
297
  9
$UNITMODE
 70
    0
  9
$VISRETAIN
 70
    1
  9
$PLINEGEN
 70
    0
  9
$PSLTSCALE
 70
    1
  9
$TREEDEPTH
 70
 3020
  9
$CMLSTYLE
  2
Standard
  9
$CMLJUST
 70
    0
  9
$CMLSCALE
 40
20
  9
$PROXYGRAPHICS
 70
    1
  9
$MEASUREMENT
 70
    1
  9
$CELWEIGHT
370
   -1
  9
$ENDCAPS
280
    0
  9
$JOINSTYLE
280
    0
  9
$LWDISPLAY
290
    0
  9
$INSUNITS
 70
    4
  9
$HYPERLINKBASE
  1

  9
$STYLESHEET
  1

  9
$XEDIT
290
    1
  9
$CEPSNTYPE
380
    0
  9
$PSTYLEMODE
290
    1
  9
$EXTNAMES
290
    1
  9
$PSVPSCALE
 40
1
  9
$OLESTARTUP
290
    0
  9
$SORTENTS
280
  127
  9
$INDEXCTL
280
    0
  9
$HIDETEXT
280
    1
  9
$XCLIPFRAME
290
    0
  9
$HALOGAP
280
    0
  9
$OBSCOLOR
 70
  257
  9
$OBSLTYPE
280
    0
  9
$INTERSECTIONDISPLAY
280
    0
  9
$INTERSECTIONCOLOR
 70
  257
  9
$DIMASSOC
280
    1
  9
$PROJECTNAME
  1

  9
$CAMERADISPLAY
290
    0
  9
$LENSLENGTH
 40
50
  9
$CAMERAHEIGHT
 40
0
  9
$STEPSPERSEC
 40
2
  9
$STEPSIZE
 40
50
  9
$3DDWFPREC
 40
2
  9
$PSOLWIDTH
 40
5
  9
$PSOLHEIGHT
 40
80
  9
$LOFTANG1
 40
1.570796326794897
  9
$LOFTANG2
 40
1.570796326794897
  9
$LOFTMAG1
 40
0
  9
$LOFTMAG2
 40
0
  9
$LOFTPARAM
 70
    7
  9
$LOFTNORMALS
280
    1
  9
$LATITUDE
 40
1
  9
$LONGITUDE
 40
1
  9
$NORTHDIRECTION
 40
0
  9
$TIMEZONE
 70
-8000
  9
$LIGHTGLYPHDISPLAY
280
    1
  9
$TILEMODELIGHTSYNCH
280
    1
  9
$SOLIDHIST
280
    1
  9
$SHOWHIST
280
    1
  9
$DWFFRAME
280
    2
  9
$DGNFRAME
280
    0
  9
$REALWORLDSCALE
290
    1
  9
$INTERFERECOLOR
 62
    1
  9
$CSHADOW
280
    0
  9
$SHADOWPLANELOCATION
 40
0
  0
ENDSEC
  0
SECTION
  2
CLASSES
  0
ENDSEC
  0
SECTION
  2
TABLES
  0
TABLE
  2
VPORT
  5
8
330
0
100
AcDbSymbolTable
 70
    1
  0
VPORT
  5
31
330
2
100
AcDbSymbolTableRecord
100
AcDbViewportTableRecord
  2
*ACTIVE
 70
    0
 10
0
 20
0
 11
1
 21
1
 12
930.0007539636948
 22
351.4009363511029
 13
0
 23
0
 14
10
 24
10
 15
10
 25
10
 16
0
 26
0
 36
1
 17
0
 27
0
 37
0
 40
1132.965087890625
 41
2.540106951871658
 42
50
 43
0
 44
0
 50
0
 51
0
 71
    0
 72
  100
 73
    1
 74
    3
 75
    0
 76
    1
 77
    0
 78
    0
281
    0
 65
    1
110
0
120
0
130
0
111
1
121
0
131
0
112
0
122
1
132
0
 79
    0
146
0
348
10020
 60
    7
 61
    5
292
1
282
    1
141
0
142
0
 63
  250
421
3358443
  0
ENDTAB
  0
TABLE
  2
LTYPE
  5
5
330
0
100
AcDbSymbolTable
 70
    4
  0
LTYPE
  5
14
330
5
100
AcDbSymbolTableRecord
100
AcDbLinetypeTableRecord
  2
ByBlock
 70
    0
  3

 72
   65
 73
    0
 40
0
  0
LTYPE
  5
15
330
5
100
AcDbSymbolTableRecord
100
AcDbLinetypeTableRecord
  2
ByLayer
 70
    0
  3

 72
   65
 73
    0
 40
0
  0
LTYPE
  5
16
330
5
100
AcDbSymbolTableRecord
100
AcDbLinetypeTableRecord
  2
Continuous
 70
    0
  3
Solid line
 72
   65
 73
    0
 40
0
  0
LTYPE
  5
32
330
5
100
AcDbSymbolTableRecord
100
AcDbLinetypeTableRecord
  2
DOT
 70
    0
  3
Dot . . . . . . . . . . . . . . . . . . . . . .
 72
   65
 73
    2
 40
6.35
 49
0
 74
    0
 49
-6.35
 74
    0
  0
LTYPE
  5
33
330
5
100
AcDbSymbolTableRecord
100
AcDbLinetypeTableRecord
  2
DOTTINY
 70
    0
  3
Dot (.15x) .....................................
 72
   65
 73
    2
 40
0.9525
 49
0
 74
    0
 49
-0.9525
 74
    0
  0
LTYPE
  5
34
330
5
100
AcDbSymbolTableRecord
100
AcDbLinetypeTableRecord
  2
DOT2
 70
    0
  3
Dot (.5x) .....................................
 72
   65
 73
    2
 40
3.175
 49
0
 74
    0
 49
-3.175
 74
    0
  0
LTYPE
  5
35
330
5
100
AcDbSymbolTableRecord
100
AcDbLinetypeTableRecord
  2
DOTX2
 70
    0
  3
Dot (2x) .  .  .  .  .  .  .  .  .  .  .  .  .
 72
   65
 73
    2
 40
12.7
 49
0
 74
    0
 49
-12.7
 74
    0
  0
LTYPE
  5
36
330
5
100
AcDbSymbolTableRecord
100
AcDbLinetypeTableRecord
  2
DASHED
 70
    0
  3
Dashed _ _ _ _ _ _ _ _ _ _ _ _ _ _ _ _ _
 72
   65
 73
    2
 40
19.05
 49
12.7
 74
    0
 49
-6.35
 74
    0
  0
LTYPE
  5
37
330
5
100
AcDbSymbolTableRecord
100
AcDbLinetypeTableRecord
  2
DASHEDTINY
 70
    0
  3
Dashed (.15x) _ _ _ _ _ _ _ _ _ _ _ _ _ _ _ _ _
 72
   65
 73
    2
 40
2.8575
 49
1.905
 74
    0
 49
-0.9525
 74
    0
  0
LTYPE
  5
38
330
5
100
AcDbSymbolTableRecord
100
AcDbLinetypeTableRecord
  2
DASHED2
 70
    0
  3
Dashed (.5x) _ _ _ _ _ _ _ _ _ _ _ _ _ _ _ _ _
 72
   65
 73
    2
 40
9.524999999999999
 49
6.35
 74
    0
 49
-3.175
 74
    0
  0
LTYPE
  5
39
330
5
100
AcDbSymbolTableRecord
100
AcDbLinetypeTableRecord
  2
DASHEDX2
 70
    0
  3
Dashed (2x) ____  ____  ____  ____  ____  ___
 72
   65
 73
    2
 40
38.09999999999999
 49
25.4
 74
    0
 49
-12.7
 74
    0
  0
LTYPE
  5
3A
330
5
100
AcDbSymbolTableRecord
100
AcDbLinetypeTableRecord
  2
DASHDOT
 70
    0
  3
Dash dot __ . __ . __ . __ . __ . __ . __ . __
 72
   65
 73
    4
 40
25.4
 49
12.7
 74
    0
 49
-6.35
 74
    0
 49
0
 74
    0
 49
-6.35
 74
    0
  0
LTYPE
  5
3B
330
5
100
AcDbSymbolTableRecord
100
AcDbLinetypeTableRecord
  2
DASHDOTTINY
 70
    0
  3
Dash dot (.15x) _._._._._._._._._._._._._._._.
 72
   65
 73
    4
 40
3.81
 49
1.905
 74
    0
 49
-0.9525
 74
    0
 49
0
 74
    0
 49
-0.9525
 74
    0
  0
LTYPE
  5
3C
330
5
100
AcDbSymbolTableRecord
100
AcDbLinetypeTableRecord
  2
DASHDOT2
 70
    0
  3
Dash dot (.5x) _._._._._._._._._._._._._._._.
 72
   65
 73
    4
 40
12.7
 49
6.35
 74
    0
 49
-3.175
 74
    0
 49
0
 74
    0
 49
-3.175
 74
    0
  0
LTYPE
  5
3D
330
5
100
AcDbSymbolTableRecord
100
AcDbLinetypeTableRecord
  2
DASHDOTX2
 70
    0
  3
Dash dot (2x) ____  .  ____  .  ____  .  ___
 72
   65
 73
    4
 40
50.8
 49
25.4
 74
    0
 49
-12.7
 74
    0
 49
0
 74
    0
 49
-12.7
 74
    0
  0
LTYPE
  5
3E
330
5
100
AcDbSymbolTableRecord
100
AcDbLinetypeTableRecord
  2
DIVIDE
 70
    0
  3
Divide ____ . . ____ . . ____ . . ____ . . ____
 72
   65
 73
    6
 40
31.75
 49
12.7
 74
    0
 49
-6.35
 74
    0
 49
0
 74
    0
 49
-6.35
 74
    0
 49
0
 74
    0
 49
-6.35
 74
    0
  0
LTYPE
  5
3F
330
5
100
AcDbSymbolTableRecord
100
AcDbLinetypeTableRecord
  2
DIVIDETINY
 70
    0
  3
Divide (.15x) __..__..__..__..__..__..__..__.._
 72
   65
 73
    6
 40
4.7625
 49
1.905
 74
    0
 49
-0.9525
 74
    0
 49
0
 74
    0
 49
-0.9525
 74
    0
 49
0
 74
    0
 49
-0.9525
 74
    0
  0
LTYPE
  5
40
330
5
100
AcDbSymbolTableRecord
100
AcDbLinetypeTableRecord
  2
DIVIDE2
 70
    0
  3
Divide (.5x) __..__..__..__..__..__..__..__.._
 72
   65
 73
    6
 40
15.875
 49
6.35
 74
    0
 49
-3.175
 74
    0
 49
0
 74
    0
 49
-3.175
 74
    0
 49
0
 74
    0
 49
-3.175
 74
    0
  0
LTYPE
  5
41
330
5
100
AcDbSymbolTableRecord
100
AcDbLinetypeTableRecord
  2
DIVIDEX2
 70
    0
  3
Divide (2x) ________  .  .  ________  .  .  _
 72
   65
 73
    6
 40
63.5
 49
25.4
 74
    0
 49
-12.7
 74
    0
 49
0
 74
    0
 49
-12.7
 74
    0
 49
0
 74
    0
 49
-12.7
 74
    0
  0
LTYPE
  5
42
330
5
100
AcDbSymbolTableRecord
100
AcDbLinetypeTableRecord
  2
BORDER
 70
    0
  3
Border __ __ . __ __ . __ __ . __ __ . __ __ .
 72
   65
 73
    6
 40
44.45
 49
12.7
 74
    0
 49
-6.35
 74
    0
 49
12.7
 74
    0
 49
-6.35
 74
    0
 49
0
 74
    0
 49
-6.35
 74
    0
  0
LTYPE
  5
43
330
5
100
AcDbSymbolTableRecord
100
AcDbLinetypeTableRecord
  2
BORDERTINY
 70
    0
  3
Border (.15x) __.__.__.__.__.__.__.__.__.__.__.
 72
   65
 73
    6
 40
6.6675
 49
1.905
 74
    0
 49
-0.9525
 74
    0
 49
1.905
 74
    0
 49
-0.9525
 74
    0
 49
0
 74
    0
 49
-0.9525
 74
    0
  0
LTYPE
  5
44
330
5
100
AcDbSymbolTableRecord
100
AcDbLinetypeTableRecord
  2
BORDER2
 70
    0
  3
Border (.5x) __.__.__.__.__.__.__.__.__.__.__.
 72
   65
 73
    6
 40
22.225
 49
6.35
 74
    0
 49
-3.175
 74
    0
 49
6.35
 74
    0
 49
-3.175
 74
    0
 49
0
 74
    0
 49
-3.175
 74
    0
  0
LTYPE
  5
45
330
5
100
AcDbSymbolTableRecord
100
AcDbLinetypeTableRecord
  2
BORDERX2
 70
    0
  3
Border (2x) ____  ____  .  ____  ____  .  ___
 72
   65
 73
    6
 40
88.89999999999999
 49
25.4
 74
    0
 49
-12.7
 74
    0
 49
25.4
 74
    0
 49
-12.7
 74
    0
 49
0
 74
    0
 49
-12.7
 74
    0
  0
LTYPE
  5
46
330
5
100
AcDbSymbolTableRecord
100
AcDbLinetypeTableRecord
  2
CENTER
 70
    0
  3
Center ____ _ ____ _ ____ _ ____ _ ____ _ ____
 72
   65
 73
    4
 40
50.8
 49
31.75
 74
    0
 49
-6.35
 74
    0
 49
6.35
 74
    0
 49
-6.35
 74
    0
  0
LTYPE
  5
47
330
5
100
AcDbSymbolTableRecord
100
AcDbLinetypeTableRecord
  2
CENTERTINY
 70
    0
  3
Center (.15x) ___ _ ___ _ ___ _ ___ _ ___ _ ___
 72
   65
 73
    4
 40
7.619999999999999
 49
4.7625
 74
    0
 49
-0.9525
 74
    0
 49
0.9525
 74
    0
 49
-0.9525
 74
    0
  0
LTYPE
  5
48
330
5
100
AcDbSymbolTableRecord
100
AcDbLinetypeTableRecord
  2
CENTER2
 70
    0
  3
Center (.5x) ___ _ ___ _ ___ _ ___ _ ___ _ ___
 72
   65
 73
    4
 40
28.575
 49
19.05
 74
    0
 49
-3.175
 74
    0
 49
3.175
 74
    0
 49
-3.175
 74
    0
  0
LTYPE
  5
49
330
5
100
AcDbSymbolTableRecord
100
AcDbLinetypeTableRecord
  2
CENTERX2
 70
    0
  3
Center (2x) ________  __  ________  __  _____
 72
   65
 73
    4
 40
101.6
 49
63.5
 74
    0
 49
-12.7
 74
    0
 49
12.7
 74
    0
 49
-12.7
 74
    0
  0
ENDTAB
  0
TABLE
  2
LAYER
  5
2
330
0
100
AcDbSymbolTable
 70
    1
  0
LAYER
  5
10
330
2
100
AcDbSymbolTableRecord
100
AcDbLayerTableRecord
  2
0
 70
    0
 62
    7
  6
CONTINUOUS
370
    0
390
F
  0
LAYER
  5
4A
330
2
100
AcDbSymbolTableRecord
100
AcDbLayerTableRecord
  2
1
 70
    0
 62
    6
  6
CONTINUOUS
370
    0
390
F
  0
LAYER
  5
4B
330
2
100
AcDbSymbolTableRecord
100
AcDbLayerTableRecord
  2
2
 70
    0
 62
    2
  6
CONTINUOUS
370
    0
390
F
  0
LAYER
  5
4C
330
2
100
AcDbSymbolTableRecord
100
AcDbLayerTableRecord
  2
3
 70
    0
 62
    3
  6
CONTINUOUS
370
    0
390
F
  0
LAYER
  5
4D
330
2
100
AcDbSymbolTableRecord
100
AcDbLayerTableRecord
  2
4
 70
    0
 62
    1
  6
CONTINUOUS
370
    0
390
F
  0
LAYER
  5
4E
330
2
100
AcDbSymbolTableRecord
100
AcDbLayerTableRecord
  2
5
 70
    0
 62
    5
  6
CONTINUOUS
370
    0
390
F
  0
ENDTAB
  0
TABLE
  2
STYLE
  5
3
330
0
100
AcDbSymbolTable
 70
    3
  0
STYLE
  5
4F
330
2
100
AcDbSymbolTableRecord
100
AcDbTextStyleTableRecord
  2
iso
 70
    0
 40
0
 41
1
 50
0
 71
    0
 42
1
  3
iso
  4

  0
STYLE
  5
50
330
2
100
AcDbSymbolTableRecord
100
AcDbTextStyleTableRecord
  2
Standard
 70
    0
 40
0
 41
1
 50
0
 71
    0
 42
1
  3
txt
  4

  0
ENDTAB
  0
TABLE
  2
VIEW
  5
6
330
0
100
AcDbSymbolTable
 70
    0
  0
ENDTAB
  0
TABLE
  2
UCS
  5
7
330
0
100
AcDbSymbolTable
 70
    0
  0
ENDTAB
  0
TABLE
  2
APPID
  5
9
330
0
100
AcDbSymbolTable
 70
    1
  0
APPID
  5
12
330
9
100
AcDbSymbolTableRecord
100
AcDbRegAppTableRecord
  2
ACAD
 70
    0
  0
APPID
  5
51
330
9
100
AcDbSymbolTableRecord
100
AcDbRegAppTableRecord
  2
LibreCad
 70
    0
  0
ENDTAB
  0
TABLE
  2
DIMSTYLE
  5
A
330
0
100
AcDbSymbolTable
 70
    1
100
AcDbDimStyleTable
 71
    1
  0
DIMSTYLE
105
52
330
A
100
AcDbSymbolTableRecord
100
AcDbDimStyleTableRecord
  2
Standard
 70
    0
 40
1
 41
2.5
 42
0.625
 43
0.38
 44
1.25
 45
0
 46
0
 47
0
 48
0
 49
1
140
2.5
141
0.09
142
2.5
143
25.4
144
1
145
0
146
1
147
0.625
148
0
 71
    0
 72
    0
 73
    0
 74
    1
 75
    0
 76
    0
 77
    0
 78
    1
 79
    0
170
    0
171
    2
172
    0
173
    0
174
    0
175
    0
176
    0
177
    0
178
    0
179
    0
271
    2
272
    4
273
    2
274
    2
275
    0
276
    0
277
    2
278
    0
279
    0
280
    0
281
    0
282
    0
283
    1
284
    0
285
    0
286
    0
288
    0
289
    3
340
standard
341

371
   -2
372
   -2
  0
ENDTAB
  0
TABLE
  2
BLOCK_RECORD
  5
1
330
0
100
AcDbSymbolTable
 70
    2
  0
BLOCK_RECORD
  5
1F
330
1
100
AcDbSymbolTableRecord
100
AcDbBlockTableRecord
  2
*Model_Space
 70
    0
280
    1
281
    0
  0
BLOCK_RECORD
  5
1E
330
1
100
AcDbSymbolTableRecord
100
AcDbBlockTableRecord
  2
*Paper_Space
 70
    0
280
    1
281
    0
  0
ENDTAB
  0
ENDSEC
  0
SECTION
  2
BLOCKS
  0
BLOCK
  5
20
330
1F
100
AcDbEntity
  8
0
100
AcDbBlockBegin
  2
*Model_Space
 70
    0
 10
0
 20
0
 30
0
  3
*Model_Space
  1

  0
ENDBLK
  5
21
330
1F
100
AcDbEntity
  8
0
100
AcDbBlockEnd
  0
BLOCK
  5
1C
330
1B
100
AcDbEntity
  8
0
100
AcDbBlockBegin
  2
*Paper_Space
 70
    0
 10
0
 20
0
 30
0
  3
*Paper_Space
  1

  0
ENDBLK
  5
1D
330
1F
100
AcDbEntity
  8
0
100
AcDbBlockEnd
  0
ENDSEC
  0
SECTION
  2
ENTITIES
  0
LINE
  5
53
100
AcDbEntity
  8
2
  6
ByLayer
 62
  256
370
   -1
100
AcDbLine
 10
0
 20
0
 11
1
 21
6.32455532034
  0
LINE
  5
54
100
AcDbEntity
  8
2
  6
ByLayer
 62
  256
370
   -1
100
AcDbLine
 10
1
 20
6.32455532034
 11
2
 21
8.944271909999999
  0
LINE
  5
55
100
AcDbEntity
  8
2
  6
ByLayer
 62
  256
370
   -1
100
AcDbLine
 10
2
 20
8.944271909999999
 11
3
 21
10.9544511501
  0
LINE
  5
56
100
AcDbEntity
  8
2
  6
ByLayer
 62
  256
370
   -1
100
AcDbLine
 10
3
 20
10.9544511501
 11
4
 21
12.6491106407
  0
LINE
  5
57
100
AcDbEntity
  8
2
  6
ByLayer
 62
  256
370
   -1
100
AcDbLine
 10
4
 20
12.6491106407
 11
5
 21
14.1421356237
  0
LINE
  5
58
100
AcDbEntity
  8
2
  6
ByLayer
 62
  256
370
   -1
100
AcDbLine
 10
5
 20
14.1421356237
 11
6
 21
15.4919333848
  0
LINE
  5
59
100
AcDbEntity
  8
2
  6
ByLayer
 62
  256
370
   -1
100
AcDbLine
 10
6
 20
15.4919333848
 11
7
 21
16.7332005307
  0
LINE
  5
5A
100
AcDbEntity
  8
2
  6
ByLayer
 62
  256
370
   -1
100
AcDbLine
 10
7
 20
16.7332005307
 11
8
 21
17.88854382
  0
LINE
  5
5B
100
AcDbEntity
  8
2
  6
ByLayer
 62
  256
370
   -1
100
AcDbLine
 10
8
 20
17.88854382
 11
9
 21
18.973665961
  0
LINE
  5
5C
100
AcDbEntity
  8
2
  6
ByLayer
 62
  256
370
   -1
100
AcDbLine
 10
9
 20
18.973665961
 11
10
 21
20
  0
LINE
  5
5D
100
AcDbEntity
  8
2
  6
ByLayer
 62
  256
370
   -1
100
AcDbLine
 10
10
 20
20
 11
11
 21
20.9761769634
  0
LINE
  5
5E
100
AcDbEntity
  8
2
  6
ByLayer
 62
  256
370
   -1
100
AcDbLine
 10
11
 20
20.9761769634
 11
12
 21
21.9089023002
  0
LINE
  5
5F
100
AcDbEntity
  8
2
  6
ByLayer
 62
  256
370
   -1
100
AcDbLine
 10
12
 20
21.9089023002
 11
13
 21
22.803508502
  0
LINE
  5
60
100
AcDbEntity
  8
2
  6
ByLayer
 62
  256
370
   -1
100
AcDbLine
 10
13
 20
22.803508502
 11
14
 21
23.6643191324
  0
LINE
  5
61
100
AcDbEntity
  8
2
  6
ByLayer
 62
  256
370
   -1
100
AcDbLine
 10
14
 20
23.6643191324
 11
15
 21
24.4948974278
  0
LINE
  5
62
100
AcDbEntity
  8
2
  6
ByLayer
 62
  256
370
   -1
100
AcDbLine
 10
15
 20
24.4948974278
 11
16
 21
25.2982212813
  0
LINE
  5
63
100
AcDbEntity
  8
2
  6
ByLayer
 62
  256
370
   -1
100
AcDbLine
 10
16
 20
25.2982212813
 11
17
 21
26.0768096208
  0
LINE
  5
64
100
AcDbEntity
  8
2
  6
ByLayer
 62
  256
370
   -1
100
AcDbLine
 10
17
 20
26.0768096208
 11
18
 21
26.83281573
  0
LINE
  5
65
100
AcDbEntity
  8
2
  6
ByLayer
 62
  256
370
   -1
100
AcDbLine
 10
18
 20
26.83281573
 11
19
 21
27.5680975042
  0
LINE
  5
66
100
AcDbEntity
  8
2
  6
ByLayer
 62
  256
370
   -1
100
AcDbLine
 10
19
 20
27.5680975042
 11
20
 21
28.2842712475
  0
LINE
  5
67
100
AcDbEntity
  8
2
  6
ByLayer
 62
  256
370
   -1
100
AcDbLine
 10
20
 20
28.2842712475
 11
21
 21
28.9827534924
  0
LINE
  5
68
100
AcDbEntity
  8
2
  6
ByLayer
 62
  256
370
   -1
100
AcDbLine
 10
21
 20
28.9827534924
 11
22
 21
29.6647939484
  0
LINE
  5
69
100
AcDbEntity
  8
2
  6
ByLayer
 62
  256
370
   -1
100
AcDbLine
 10
22
 20
29.6647939484
 11
23
 21
30.3315017762
  0
LINE
  5
6A
100
AcDbEntity
  8
2
  6
ByLayer
 62
  256
370
   -1
100
AcDbLine
 10
23
 20
30.3315017762
 11
24
 21
30.9838667697
  0
LINE
  5
6B
100
AcDbEntity
  8
2
  6
ByLayer
 62
  256
370
   -1
100
AcDbLine
 10
24
 20
30.9838667697
 11
25
 21
31.6227766017
  0
LINE
  5
6C
100
AcDbEntity
  8
2
  6
ByLayer
 62
  256
370
   -1
100
AcDbLine
 10
25
 20
31.6227766017
 11
26
 21
32.2490309932
  0
LINE
  5
6D
100
AcDbEntity
  8
2
  6
ByLayer
 62
  256
370
   -1
100
AcDbLine
 10
26
 20
32.2490309932
 11
27
 21
32.8633534503
  0
LINE
  5
6E
100
AcDbEntity
  8
2
  6
ByLayer
 62
  256
370
   -1
100
AcDbLine
 10
27
 20
32.8633534503
 11
28
 21
33.4664010614
  0
LINE
  5
6F
100
AcDbEntity
  8
2
  6
ByLayer
 62
  256
370
   -1
100
AcDbLine
 10
28
 20
33.4664010614
 11
29
 21
34.0587727319
  0
LINE
  5
70
100
AcDbEntity
  8
2
  6
ByLayer
 62
  256
370
   -1
100
AcDbLine
 10
29
 20
34.0587727319
 11
30
 21
34.6410161514
  0
LINE
  5
71
100
AcDbEntity
  8
2
  6
ByLayer
 62
  256
370
   -1
100
AcDbLine
 10
30
 20
34.6410161514
 11
31
 21
35.2136337233
  0
LINE
  5
72
100
AcDbEntity
  8
2
  6
ByLayer
 62
  256
370
   -1
100
AcDbLine
 10
31
 20
35.2136337233
 11
32
 21
35.77708764
  0
LINE
  5
73
100
AcDbEntity
  8
2
  6
ByLayer
 62
  256
370
   -1
100
AcDbLine
 10
32
 20
35.77708764
 11
33
 21
36.3318042492
  0
LINE
  5
74
100
AcDbEntity
  8
2
  6
ByLayer
 62
  256
370
   -1
100
AcDbLine
 10
33
 20
36.3318042492
 11
34
 21
36.8781778292
  0
LINE
  5
75
100
AcDbEntity
  8
2
  6
ByLayer
 62
  256
370
   -1
100
AcDbLine
 10
34
 20
36.8781778292
 11
35
 21
37.4165738677
  0
LINE
  5
76
100
AcDbEntity
  8
2
  6
ByLayer
 62
  256
370
   -1
100
AcDbLine
 10
35
 20
37.4165738677
 11
36
 21
37.947331922
  0
LINE
  5
77
100
AcDbEntity
  8
2
  6
ByLayer
 62
  256
370
   -1
100
AcDbLine
 10
36
 20
37.947331922
 11
37
 21
38.4707681233
  0
LINE
  5
78
100
AcDbEntity
  8
2
  6
ByLayer
 62
  256
370
   -1
100
AcDbLine
 10
37
 20
38.4707681233
 11
38
 21
38.9871773792
  0
LINE
  5
79
100
AcDbEntity
  8
2
  6
ByLayer
 62
  256
370
   -1
100
AcDbLine
 10
38
 20
38.9871773792
 11
39
 21
39.4968353163
  0
LINE
  5
7A
100
AcDbEntity
  8
2
  6
ByLayer
 62
  256
370
   -1
100
AcDbLine
 10
39
 20
39.4968353163
 11
40
 21
40
  0
LINE
  5
7B
100
AcDbEntity
  8
2
  6
ByLayer
 62
  256
370
   -1
100
AcDbLine
 10
40
 20
40
 11
41
 21
40.4969134626
  0
LINE
  5
7C
100
AcDbEntity
  8
2
  6
ByLayer
 62
  256
370
   -1
100
AcDbLine
 10
41
 20
40.4969134626
 11
42
 21
40.9878030638
  0
LINE
  5
7D
100
AcDbEntity
  8
2
  6
ByLayer
 62
  256
370
   -1
100
AcDbLine
 10
42
 20
40.9878030638
 11
43
 21
41.4728827067
  0
LINE
  5
7E
100
AcDbEntity
  8
2
  6
ByLayer
 62
  256
370
   -1
100
AcDbLine
 10
43
 20
41.4728827067
 11
44
 21
41.9523539268
  0
LINE
  5
7F
100
AcDbEntity
  8
2
  6
ByLayer
 62
  256
370
   -1
100
AcDbLine
 10
44
 20
41.9523539268
 11
45
 21
42.4264068712
  0
LINE
  5
80
100
AcDbEntity
  8
2
  6
ByLayer
 62
  256
370
   -1
100
AcDbLine
 10
45
 20
42.4264068712
 11
46
 21
42.8952211791
  0
LINE
  5
81
100
AcDbEntity
  8
2
  6
ByLayer
 62
  256
370
   -1
100
AcDbLine
 10
46
 20
42.8952211791
 11
47
 21
43.3589667774
  0
LINE
  5
82
100
AcDbEntity
  8
2
  6
ByLayer
 62
  256
370
   -1
100
AcDbLine
 10
47
 20
43.3589667774
 11
48
 21
43.8178046004
  0
LINE
  5
83
100
AcDbEntity
  8
2
  6
ByLayer
 62
  256
370
   -1
100
AcDbLine
 10
48
 20
43.8178046004
 11
49
 21
44.2718872424
  0
LINE
  5
84
100
AcDbEntity
  8
2
  6
ByLayer
 62
  256
370
   -1
100
AcDbLine
 10
49
 20
44.2718872424
 11
50
 21
44.72135955
  0
LINE
  5
85
100
AcDbEntity
  8
2
  6
ByLayer
 62
  256
370
   -1
100
AcDbLine
 10
50
 20
44.72135955
 11
51
 21
45.1663591625
  0
LINE
  5
86
100
AcDbEntity
  8
2
  6
ByLayer
 62
  256
370
   -1
100
AcDbLine
 10
51
 20
45.1663591625
 11
52
 21
45.607017004
  0
LINE
  5
87
100
AcDbEntity
  8
2
  6
ByLayer
 62
  256
370
   -1
100
AcDbLine
 10
52
 20
45.607017004
 11
53
 21
46.0434577329
  0
LINE
  5
88
100
AcDbEntity
  8
2
  6
ByLayer
 62
  256
370
   -1
100
AcDbLine
 10
53
 20
46.0434577329
 11
54
 21
46.4758001545
  0
LINE
  5
89
100
AcDbEntity
  8
2
  6
ByLayer
 62
  256
370
   -1
100
AcDbLine
 10
54
 20
46.4758001545
 11
55
 21
46.9041575982
  0
LINE
  5
8A
100
AcDbEntity
  8
2
  6
ByLayer
 62
  256
370
   -1
100
AcDbLine
 10
55
 20
46.9041575982
 11
56
 21
47.3286382648
  0
LINE
  5
8B
100
AcDbEntity
  8
2
  6
ByLayer
 62
  256
370
   -1
100
AcDbLine
 10
56
 20
47.3286382648
 11
57
 21
47.7493455453
  0
LINE
  5
8C
100
AcDbEntity
  8
2
  6
ByLayer
 62
  256
370
   -1
100
AcDbLine
 10
57
 20
47.7493455453
 11
58
 21
48.1663783152
  0
LINE
  5
8D
100
AcDbEntity
  8
2
  6
ByLayer
 62
  256
370
   -1
100
AcDbLine
 10
58
 20
48.1663783152
 11
59
 21
48.579831206
  0
LINE
  5
8E
100
AcDbEntity
  8
2
  6
ByLayer
 62
  256
370
   -1
100
AcDbLine
 10
59
 20
48.579831206
 11
60
 21
48.9897948557
  0
LINE
  5
8F
100
AcDbEntity
  8
2
  6
ByLayer
 62
  256
370
   -1
100
AcDbLine
 10
60
 20
48.9897948557
 11
61
 21
49.3963561409
  0
LINE
  5
90
100
AcDbEntity
  8
2
  6
ByLayer
 62
  256
370
   -1
100
AcDbLine
 10
61
 20
49.3963561409
 11
62
 21
49.799598392
  0
LINE
  5
91
100
AcDbEntity
  8
2
  6
ByLayer
 62
  256
370
   -1
100
AcDbLine
 10
62
 20
49.799598392
 11
63
 21
50.199601592
  0
LINE
  5
92
100
AcDbEntity
  8
2
  6
ByLayer
 62
  256
370
   -1
100
AcDbLine
 10
63
 20
50.199601592
 11
64
 21
50.5964425627
  0
LINE
  5
93
100
AcDbEntity
  8
2
  6
ByLayer
 62
  256
370
   -1
100
AcDbLine
 10
64
 20
50.5964425627
 11
65
 21
50.9901951359
  0
LINE
  5
94
100
AcDbEntity
  8
2
  6
ByLayer
 62
  256
370
   -1
100
AcDbLine
 10
65
 20
50.9901951359
 11
66
 21
51.3809303147
  0
LINE
  5
95
100
AcDbEntity
  8
2
  6
ByLayer
 62
  256
370
   -1
100
AcDbLine
 10
66
 20
51.3809303147
 11
67
 21
51.7687164222
  0
LINE
  5
96
100
AcDbEntity
  8
2
  6
ByLayer
 62
  256
370
   -1
100
AcDbLine
 10
67
 20
51.7687164222
 11
68
 21
52.1536192416
  0
LINE
  5
97
100
AcDbEntity
  8
2
  6
ByLayer
 62
  256
370
   -1
100
AcDbLine
 10
68
 20
52.1536192416
 11
69
 21
52.5357021463
  0
LINE
  5
98
100
AcDbEntity
  8
2
  6
ByLayer
 62
  256
370
   -1
100
AcDbLine
 10
69
 20
52.5357021463
 11
70
 21
52.9150262213
  0
LINE
  5
99
100
AcDbEntity
  8
2
  6
ByLayer
 62
  256
370
   -1
100
AcDbLine
 10
70
 20
52.9150262213
 11
71
 21
53.2916503779
  0
LINE
  5
9A
100
AcDbEntity
  8
2
  6
ByLayer
 62
  256
370
   -1
100
AcDbLine
 10
71
 20
53.2916503779
 11
72
 21
53.66563146
  0
LINE
  5
9B
100
AcDbEntity
  8
2
  6
ByLayer
 62
  256
370
   -1
100
AcDbLine
 10
72
 20
53.66563146
 11
73
 21
54.0370243444
  0
LINE
  5
9C
100
AcDbEntity
  8
2
  6
ByLayer
 62
  256
370
   -1
100
AcDbLine
 10
73
 20
54.0370243444
 11
74
 21
54.4058820349
  0
LINE
  5
9D
100
AcDbEntity
  8
2
  6
ByLayer
 62
  256
370
   -1
100
AcDbLine
 10
74
 20
54.4058820349
 11
75
 21
54.7722557505
  0
LINE
  5
9E
100
AcDbEntity
  8
2
  6
ByLayer
 62
  256
370
   -1
100
AcDbLine
 10
75
 20
54.7722557505
 11
76
 21
55.1361950084
  0
LINE
  5
9F
100
AcDbEntity
  8
2
  6
ByLayer
 62
  256
370
   -1
100
AcDbLine
 10
76
 20
55.1361950084
 11
77
 21
55.497747702
  0
LINE
  5
A0
100
AcDbEntity
  8
2
  6
ByLayer
 62
  256
370
   -1
100
AcDbLine
 10
77
 20
55.497747702
 11
78
 21
55.8569601751
  0
LINE
  5
A1
100
AcDbEntity
  8
2
  6
ByLayer
 62
  256
370
   -1
100
AcDbLine
 10
78
 20
55.8569601751
 11
79
 21
56.2138772902
  0
LINE
  5
A2
100
AcDbEntity
  8
2
  6
ByLayer
 62
  256
370
   -1
100
AcDbLine
 10
79
 20
56.2138772902
 11
80
 21
56.5685424949
  0
LINE
  5
A3
100
AcDbEntity
  8
2
  6
ByLayer
 62
  256
370
   -1
100
AcDbLine
 10
80
 20
56.5685424949
 11
81
 21
56.920997883
  0
LINE
  5
A4
100
AcDbEntity
  8
2
  6
ByLayer
 62
  256
370
   -1
100
AcDbLine
 10
81
 20
56.920997883
 11
82
 21
57.2712842531
  0
LINE
  5
A5
100
AcDbEntity
  8
2
  6
ByLayer
 62
  256
370
   -1
100
AcDbLine
 10
82
 20
57.2712842531
 11
83
 21
57.6194411636
  0
LINE
  5
A6
100
AcDbEntity
  8
2
  6
ByLayer
 62
  256
370
   -1
100
AcDbLine
 10
83
 20
57.6194411636
 11
84
 21
57.9655069848
  0
LINE
  5
A7
100
AcDbEntity
  8
2
  6
ByLayer
 62
  256
370
   -1
100
AcDbLine
 10
84
 20
57.9655069848
 11
85
 21
58.3095189485
  0
LINE
  5
A8
100
AcDbEntity
  8
2
  6
ByLayer
 62
  256
370
   -1
100
AcDbLine
 10
85
 20
58.3095189485
 11
86
 21
58.6515131945
  0
LINE
  5
A9
100
AcDbEntity
  8
2
  6
ByLayer
 62
  256
370
   -1
100
AcDbLine
 10
86
 20
58.6515131945
 11
87
 21
58.991524815
  0
LINE
  5
AA
100
AcDbEntity
  8
2
  6
ByLayer
 62
  256
370
   -1
100
AcDbLine
 10
87
 20
58.991524815
 11
88
 21
59.3295878968
  0
LINE
  5
AB
100
AcDbEntity
  8
2
  6
ByLayer
 62
  256
370
   -1
100
AcDbLine
 10
88
 20
59.3295878968
 11
89
 21
59.6657355607
  0
LINE
  5
AC
100
AcDbEntity
  8
2
  6
ByLayer
 62
  256
370
   -1
100
AcDbLine
 10
89
 20
59.6657355607
 11
90
 21
60
  0
LINE
  5
AD
100
AcDbEntity
  8
2
  6
ByLayer
 62
  256
370
   -1
100
AcDbLine
 10
90
 20
60
 11
91
 21
60.332412516
  0
LINE
  5
AE
100
AcDbEntity
  8
2
  6
ByLayer
 62
  256
370
   -1
100
AcDbLine
 10
91
 20
60.332412516
 11
92
 21
60.6630035524
  0
LINE
  5
AF
100
AcDbEntity
  8
2
  6
ByLayer
 62
  256
370
   -1
100
AcDbLine
 10
92
 20
60.6630035524
 11
93
 21
60.9918027279
  0
LINE
  5
B0
100
AcDbEntity
  8
2
  6
ByLayer
 62
  256
370
   -1
100
AcDbLine
 10
93
 20
60.9918027279
 11
94
 21
61.318838867
  0
LINE
  5
B1
100
AcDbEntity
  8
2
  6
ByLayer
 62
  256
370
   -1
100
AcDbLine
 10
94
 20
61.318838867
 11
95
 21
61.6441400297
  0
LINE
  5
B2
100
AcDbEntity
  8
2
  6
ByLayer
 62
  256
370
   -1
100
AcDbLine
 10
95
 20
61.6441400297
 11
96
 21
61.9677335393
  0
LINE
  5
B3
100
AcDbEntity
  8
2
  6
ByLayer
 62
  256
370
   -1
100
AcDbLine
 10
96
 20
61.9677335393
 11
97
 21
62.2896460096
  0
LINE
  5
B4
100
AcDbEntity
  8
2
  6
ByLayer
 62
  256
370
   -1
100
AcDbLine
 10
97
 20
62.2896460096
 11
98
 21
62.60990337
  0
LINE
  5
B5
100
AcDbEntity
  8
2
  6
ByLayer
 62
  256
370
   -1
100
AcDbLine
 10
98
 20
62.60990337
 11
99
 21
62.9285308902
  0
LINE
  5
B6
100
AcDbEntity
  8
2
  6
ByLayer
 62
  256
370
   -1
100
AcDbLine
 10
99
 20
62.9285308902
 11
100
 21
63.2455532034
  0
LINE
  5
B7
100
AcDbEntity
  8
2
  6
ByLayer
 62
  256
370
   -1
100
AcDbLine
 10
100
 20
63.2455532034
 11
101
 21
63.5609943283
  0
LINE
  5
B8
100
AcDbEntity
  8
2
  6
ByLayer
 62
  256
370
   -1
100
AcDbLine
 10
101
 20
63.5609943283
 11
102
 21
63.8748776907
  0
LINE
  5
B9
100
AcDbEntity
  8
2
  6
ByLayer
 62
  256
370
   -1
100
AcDbLine
 10
102
 20
63.8748776907
 11
103
 21
64.1872261435
  0
LINE
  5
BA
100
AcDbEntity
  8
2
  6
ByLayer
 62
  256
370
   -1
100
AcDbLine
 10
103
 20
64.1872261435
 11
104
 21
64.4980619864
  0
LINE
  5
BB
100
AcDbEntity
  8
2
  6
ByLayer
 62
  256
370
   -1
100
AcDbLine
 10
104
 20
64.4980619864
 11
105
 21
64.8074069841
  0
LINE
  5
BC
100
AcDbEntity
  8
2
  6
ByLayer
 62
  256
370
   -1
100
AcDbLine
 10
105
 20
64.8074069841
 11
106
 21
65.1152823844
  0
LINE
  5
BD
100
AcDbEntity
  8
2
  6
ByLayer
 62
  256
370
   -1
100
AcDbLine
 10
106
 20
65.1152823844
 11
107
 21
65.4217089352
  0
LINE
  5
BE
100
AcDbEntity
  8
2
  6
ByLayer
 62
  256
370
   -1
100
AcDbLine
 10
107
 20
65.4217089352
 11
108
 21
65.72670690060001
  0
LINE
  5
BF
100
AcDbEntity
  8
2
  6
ByLayer
 62
  256
370
   -1
100
AcDbLine
 10
108
 20
65.72670690060001
 11
109
 21
66.0302960769
  0
LINE
  5
C0
100
AcDbEntity
  8
2
  6
ByLayer
 62
  256
370
   -1
100
AcDbLine
 10
109
 20
66.0302960769
 11
110
 21
66.3324958071
  0
LINE
  5
C1
100
AcDbEntity
  8
2
  6
ByLayer
 62
  256
370
   -1
100
AcDbLine
 10
110
 20
66.3324958071
 11
111
 21
66.6333249958
  0
LINE
  5
C2
100
AcDbEntity
  8
2
  6
ByLayer
 62
  256
370
   -1
100
AcDbLine
 10
111
 20
66.6333249958
 11
112
 21
66.9328021227
  0
LINE
  5
C3
100
AcDbEntity
  8
2
  6
ByLayer
 62
  256
370
   -1
100
AcDbLine
 10
112
 20
66.9328021227
 11
113
 21
67.2309452559
  0
LINE
  5
C4
100
AcDbEntity
  8
2
  6
ByLayer
 62
  256
370
   -1
100
AcDbLine
 10
113
 20
67.2309452559
 11
114
 21
67.5277720645
  0
LINE
  5
C5
100
AcDbEntity
  8
2
  6
ByLayer
 62
  256
370
   -1
100
AcDbLine
 10
114
 20
67.5277720645
 11
115
 21
67.82329983130001
  0
LINE
  5
C6
100
AcDbEntity
  8
2
  6
ByLayer
 62
  256
370
   -1
100
AcDbLine
 10
115
 20
67.82329983130001
 11
116
 21
68.1175454637
  0
LINE
  5
C7
100
AcDbEntity
  8
2
  6
ByLayer
 62
  256
370
   -1
100
AcDbLine
 10
116
 20
68.1175454637
 11
117
 21
68.4105255059
  0
LINE
  5
C8
100
AcDbEntity
  8
2
  6
ByLayer
 62
  256
370
   -1
100
AcDbLine
 10
117
 20
68.4105255059
 11
118
 21
68.7022561493
  0
LINE
  5
C9
100
AcDbEntity
  8
2
  6
ByLayer
 62
  256
370
   -1
100
AcDbLine
 10
118
 20
68.7022561493
 11
119
 21
68.9927532426
  0
LINE
  5
CA
100
AcDbEntity
  8
2
  6
ByLayer
 62
  256
370
   -1
100
AcDbLine
 10
119
 20
68.9927532426
 11
120
 21
69.2820323028
  0
LINE
  5
CB
100
AcDbEntity
  8
2
  6
ByLayer
 62
  256
370
   -1
100
AcDbLine
 10
120
 20
69.2820323028
 11
121
 21
69.5701085237
  0
LINE
  5
CC
100
AcDbEntity
  8
2
  6
ByLayer
 62
  256
370
   -1
100
AcDbLine
 10
121
 20
69.5701085237
 11
122
 21
69.8569967863
  0
LINE
  5
CD
100
AcDbEntity
  8
2
  6
ByLayer
 62
  256
370
   -1
100
AcDbLine
 10
122
 20
69.8569967863
 11
123
 21
70.142711667
  0
LINE
  5
CE
100
AcDbEntity
  8
2
  6
ByLayer
 62
  256
370
   -1
100
AcDbLine
 10
123
 20
70.142711667
 11
124
 21
70.4272674466
  0
LINE
  5
CF
100
AcDbEntity
  8
2
  6
ByLayer
 62
  256
370
   -1
100
AcDbLine
 10
124
 20
70.4272674466
 11
125
 21
70.7106781187
  0
LINE
  5
D0
100
AcDbEntity
  8
2
  6
ByLayer
 62
  256
370
   -1
100
AcDbLine
 10
125
 20
70.7106781187
 11
126
 21
70.9929573972
  0
LINE
  5
D1
100
AcDbEntity
  8
2
  6
ByLayer
 62
  256
370
   -1
100
AcDbLine
 10
126
 20
70.9929573972
 11
127
 21
71.2741187248
  0
LINE
  5
D2
100
AcDbEntity
  8
2
  6
ByLayer
 62
  256
370
   -1
100
AcDbLine
 10
127
 20
71.2741187248
 11
128
 21
71.55417528
  0
LINE
  5
D3
100
AcDbEntity
  8
2
  6
ByLayer
 62
  256
370
   -1
100
AcDbLine
 10
128
 20
71.55417528
 11
129
 21
71.8331399843
  0
LINE
  5
D4
100
AcDbEntity
  8
2
  6
ByLayer
 62
  256
370
   -1
100
AcDbLine
 10
129
 20
71.8331399843
 11
130
 21
72.11102550930001
  0
LINE
  5
D5
100
AcDbEntity
  8
2
  6
ByLayer
 62
  256
370
   -1
100
AcDbLine
 10
130
 20
72.11102550930001
 11
131
 21
72.3878442834
  0
LINE
  5
D6
100
AcDbEntity
  8
2
  6
ByLayer
 62
  256
370
   -1
100
AcDbLine
 10
131
 20
72.3878442834
 11
132
 21
72.66360849829999
  0
LINE
  5
D7
100
AcDbEntity
  8
2
  6
ByLayer
 62
  256
370
   -1
100
AcDbLine
 10
132
 20
72.66360849829999
 11
133
 21
72.9383301152
  0
LINE
  5
D8
100
AcDbEntity
  8
2
  6
ByLayer
 62
  256
370
   -1
100
AcDbLine
 10
133
 20
72.9383301152
 11
134
 21
73.21202087090001
  0
LINE
  5
D9
100
AcDbEntity
  8
2
  6
ByLayer
 62
  256
370
   -1
100
AcDbLine
 10
134
 20
73.21202087090001
 11
135
 21
73.4846922835
  0
LINE
  5
DA
100
AcDbEntity
  8
2
  6
ByLayer
 62
  256
370
   -1
100
AcDbLine
 10
135
 20
73.4846922835
 11
136
 21
73.7563556583
  0
LINE
  5
DB
100
AcDbEntity
  8
2
  6
ByLayer
 62
  256
370
   -1
100
AcDbLine
 10
136
 20
73.7563556583
 11
137
 21
74.0270220933
  0
LINE
  5
DC
100
AcDbEntity
  8
2
  6
ByLayer
 62
  256
370
   -1
100
AcDbLine
 10
137
 20
74.0270220933
 11
138
 21
74.29670248399999
  0
LINE
  5
DD
100
AcDbEntity
  8
2
  6
ByLayer
 62
  256
370
   -1
100
AcDbLine
 10
138
 20
74.29670248399999
 11
139
 21
74.5654075292
  0
LINE
  5
DE
100
AcDbEntity
  8
2
  6
ByLayer
 62
  256
370
   -1
100
AcDbLine
 10
139
 20
74.5654075292
 11
140
 21
74.83314773550001
  0
LINE
  5
DF
100
AcDbEntity
  8
2
  6
ByLayer
 62
  256
370
   -1
100
AcDbLine
 10
140
 20
74.83314773550001
 11
141
 21
75.09993342209999
  0
LINE
  5
E0
100
AcDbEntity
  8
2
  6
ByLayer
 62
  256
370
   -1
100
AcDbLine
 10
141
 20
75.09993342209999
 11
142
 21
75.36577472570001
  0
LINE
  5
E1
100
AcDbEntity
  8
2
  6
ByLayer
 62
  256
370
   -1
100
AcDbLine
 10
142
 20
75.36577472570001
 11
143
 21
75.6306816048
  0
LINE
  5
E2
100
AcDbEntity
  8
2
  6
ByLayer
 62
  256
370
   -1
100
AcDbLine
 10
143
 20
75.6306816048
 11
144
 21
75.89466384399999
  0
LINE
  5
E3
100
AcDbEntity
  8
2
  6
ByLayer
 62
  256
370
   -1
100
AcDbLine
 10
144
 20
75.89466384399999
 11
145
 21
76.15773105860001
  0
LINE
  5
E4
100
AcDbEntity
  8
2
  6
ByLayer
 62
  256
370
   -1
100
AcDbLine
 10
145
 20
76.15773105860001
 11
146
 21
76.4198926982
  0
LINE
  5
E5
100
AcDbEntity
  8
2
  6
ByLayer
 62
  256
370
   -1
100
AcDbLine
 10
146
 20
76.4198926982
 11
147
 21
76.68115805070001
  0
LINE
  5
E6
100
AcDbEntity
  8
2
  6
ByLayer
 62
  256
370
   -1
100
AcDbLine
 10
147
 20
76.68115805070001
 11
148
 21
76.9415362467
  0
LINE
  5
E7
100
AcDbEntity
  8
2
  6
ByLayer
 62
  256
370
   -1
100
AcDbLine
 10
148
 20
76.9415362467
 11
149
 21
77.2010362625
  0
LINE
  5
E8
100
AcDbEntity
  8
2
  6
ByLayer
 62
  256
370
   -1
100
AcDbLine
 10
149
 20
77.2010362625
 11
150
 21
77.45966692410001
  0
LINE
  5
E9
100
AcDbEntity
  8
2
  6
ByLayer
 62
  256
370
   -1
100
AcDbLine
 10
150
 20
77.45966692410001
 11
151
 21
77.71743691090001
  0
LINE
  5
EA
100
AcDbEntity
  8
2
  6
ByLayer
 62
  256
370
   -1
100
AcDbLine
 10
151
 20
77.71743691090001
 11
152
 21
77.9743547585
  0
LINE
  5
EB
100
AcDbEntity
  8
2
  6
ByLayer
 62
  256
370
   -1
100
AcDbLine
 10
152
 20
77.9743547585
 11
153
 21
78.2304288624
  0
LINE
  5
EC
100
AcDbEntity
  8
2
  6
ByLayer
 62
  256
370
   -1
100
AcDbLine
 10
153
 20
78.2304288624
 11
154
 21
78.4856674814
  0
LINE
  5
ED
100
AcDbEntity
  8
2
  6
ByLayer
 62
  256
370
   -1
100
AcDbLine
 10
154
 20
78.4856674814
 11
155
 21
78.7400787401
  0
LINE
  5
EE
100
AcDbEntity
  8
2
  6
ByLayer
 62
  256
370
   -1
100
AcDbLine
 10
155
 20
78.7400787401
 11
156
 21
78.9936706325
  0
LINE
  5
EF
100
AcDbEntity
  8
2
  6
ByLayer
 62
  256
370
   -1
100
AcDbLine
 10
156
 20
78.9936706325
 11
157
 21
79.24645102460001
  0
LINE
  5
F0
100
AcDbEntity
  8
2
  6
ByLayer
 62
  256
370
   -1
100
AcDbLine
 10
157
 20
79.24645102460001
 11
158
 21
79.4984276574
  0
LINE
  5
F1
100
AcDbEntity
  8
2
  6
ByLayer
 62
  256
370
   -1
100
AcDbLine
 10
158
 20
79.4984276574
 11
159
 21
79.74960814950001
  0
LINE
  5
F2
100
AcDbEntity
  8
2
  6
ByLayer
 62
  256
370
   -1
100
AcDbLine
 10
159
 20
79.74960814950001
 11
160
 21
80
  0
LINE
  5
F3
100
AcDbEntity
  8
2
  6
ByLayer
 62
  256
370
   -1
100
AcDbLine
 10
160
 20
80
 11
161
 21
80.24961059100001
  0
LINE
  5
F4
100
AcDbEntity
  8
2
  6
ByLayer
 62
  256
370
   -1
100
AcDbLine
 10
161
 20
80.24961059100001
 11
162
 21
80.49844718999999
  0
LINE
  5
F5
100
AcDbEntity
  8
2
  6
ByLayer
 62
  256
370
   -1
100
AcDbLine
 10
162
 20
80.49844718999999
 11
163
 21
80.74651695270001
  0
LINE
  5
F6
100
AcDbEntity
  8
2
  6
ByLayer
 62
  256
370
   -1
100
AcDbLine
 10
163
 20
80.74651695270001
 11
164
 21
80.9938269253
  0
LINE
  5
F7
100
AcDbEntity
  8
2
  6
ByLayer
 62
  256
370
   -1
100
AcDbLine
 10
164
 20
80.9938269253
 11
165
 21
81.2403840464
  0
LINE
  5
F8
100
AcDbEntity
  8
2
  6
ByLayer
 62
  256
370
   -1
100
AcDbLine
 10
165
 20
81.2403840464
 11
166
 21
81.4861951499
  0
LINE
  5
F9
100
AcDbEntity
  8
2
  6
ByLayer
 62
  256
370
   -1
100
AcDbLine
 10
166
 20
81.4861951499
 11
167
 21
81.73126696680001
  0
LINE
  5
FA
100
AcDbEntity
  8
2
  6
ByLayer
 62
  256
370
   -1
100
AcDbLine
 10
167
 20
81.73126696680001
 11
168
 21
81.9756061277
  0
LINE
  5
FB
100
AcDbEntity
  8
2
  6
ByLayer
 62
  256
370
   -1
100
AcDbLine
 10
168
 20
81.9756061277
 11
169
 21
82.2192191644
  0
LINE
  5
FC
100
AcDbEntity
  8
2
  6
ByLayer
 62
  256
370
   -1
100
AcDbLine
 10
169
 20
82.2192191644
 11
170
 21
82.4621125124
  0
LINE
  5
FD
100
AcDbEntity
  8
2
  6
ByLayer
 62
  256
370
   -1
100
AcDbLine
 10
170
 20
82.4621125124
 11
171
 21
82.7042925125
  0
LINE
  5
FE
100
AcDbEntity
  8
2
  6
ByLayer
 62
  256
370
   -1
100
AcDbLine
 10
171
 20
82.7042925125
 11
172
 21
82.94576541329999
  0
LINE
  5
FF
100
AcDbEntity
  8
2
  6
ByLayer
 62
  256
370
   -1
100
AcDbLine
 10
172
 20
82.94576541329999
 11
173
 21
83.18653737229999
  0
LINE
  5
100
100
AcDbEntity
  8
2
  6
ByLayer
 62
  256
370
   -1
100
AcDbLine
 10
173
 20
83.18653737229999
 11
174
 21
83.4266144585
  0
LINE
  5
101
100
AcDbEntity
  8
2
  6
ByLayer
 62
  256
370
   -1
100
AcDbLine
 10
174
 20
83.4266144585
 11
175
 21
83.6660026534
  0
LINE
  5
102
100
AcDbEntity
  8
2
  6
ByLayer
 62
  256
370
   -1
100
AcDbLine
 10
175
 20
83.6660026534
 11
176
 21
83.9047078536
  0
LINE
  5
103
100
AcDbEntity
  8
2
  6
ByLayer
 62
  256
370
   -1
100
AcDbLine
 10
176
 20
83.9047078536
 11
177
 21
84.1427358719
  0
LINE
  5
104
100
AcDbEntity
  8
2
  6
ByLayer
 62
  256
370
   -1
100
AcDbLine
 10
177
 20
84.1427358719
 11
178
 21
84.38009243889999
  0
LINE
  5
105
100
AcDbEntity
  8
2
  6
ByLayer
 62
  256
370
   -1
100
AcDbLine
 10
178
 20
84.38009243889999
 11
179
 21
84.61678320519999
  0
LINE
  5
106
100
AcDbEntity
  8
2
  6
ByLayer
 62
  256
370
   -1
100
AcDbLine
 10
179
 20
84.61678320519999
 11
180
 21
84.8528137424
  0
LINE
  5
107
100
AcDbEntity
  8
2
  6
ByLayer
 62
  256
370
   -1
100
AcDbLine
 10
180
 20
84.8528137424
 11
181
 21
85.0881895447
  0
LINE
  5
108
100
AcDbEntity
  8
2
  6
ByLayer
 62
  256
370
   -1
100
AcDbLine
 10
181
 20
85.0881895447
 11
182
 21
85.3229160308
  0
LINE
  5
109
100
AcDbEntity
  8
2
  6
ByLayer
 62
  256
370
   -1
100
AcDbLine
 10
182
 20
85.3229160308
 11
183
 21
85.5569985448
  0
LINE
  5
10A
100
AcDbEntity
  8
2
  6
ByLayer
 62
  256
370
   -1
100
AcDbLine
 10
183
 20
85.5569985448
 11
184
 21
85.79044235809999
  0
LINE
  5
10B
100
AcDbEntity
  8
2
  6
ByLayer
 62
  256
370
   -1
100
AcDbLine
 10
184
 20
85.79044235809999
 11
185
 21
86.0232526704
  0
LINE
  5
10C
100
AcDbEntity
  8
2
  6
ByLayer
 62
  256
370
   -1
100
AcDbLine
 10
185
 20
86.0232526704
 11
186
 21
86.25543461140001
  0
LINE
  5
10D
100
AcDbEntity
  8
2
  6
ByLayer
 62
  256
370
   -1
100
AcDbLine
 10
186
 20
86.25543461140001
 11
187
 21
86.48699324179999
  0
LINE
  5
10E
100
AcDbEntity
  8
2
  6
ByLayer
 62
  256
370
   -1
100
AcDbLine
 10
187
 20
86.48699324179999
 11
188
 21
86.7179335547
  0
LINE
  5
10F
100
AcDbEntity
  8
2
  6
ByLayer
 62
  256
370
   -1
100
AcDbLine
 10
188
 20
86.7179335547
 11
189
 21
86.94826047710001
  0
LINE
  5
110
100
AcDbEntity
  8
2
  6
ByLayer
 62
  256
370
   -1
100
AcDbLine
 10
189
 20
86.94826047710001
 11
190
 21
87.1779788708
  0
LINE
  5
111
100
AcDbEntity
  8
2
  6
ByLayer
 62
  256
370
   -1
100
AcDbLine
 10
190
 20
87.1779788708
 11
191
 21
87.4070935336
  0
LINE
  5
112
100
AcDbEntity
  8
2
  6
ByLayer
 62
  256
370
   -1
100
AcDbLine
 10
191
 20
87.4070935336
 11
192
 21
87.6356092008
  0
LINE
  5
113
100
AcDbEntity
  8
2
  6
ByLayer
 62
  256
370
   -1
100
AcDbLine
 10
192
 20
87.6356092008
 11
193
 21
87.86353054600001
  0
LINE
  5
114
100
AcDbEntity
  8
2
  6
ByLayer
 62
  256
370
   -1
100
AcDbLine
 10
193
 20
87.86353054600001
 11
194
 21
88.0908621822
  0
LINE
  5
115
100
AcDbEntity
  8
2
  6
ByLayer
 62
  256
370
   -1
100
AcDbLine
 10
194
 20
88.0908621822
 11
195
 21
88.31760866330001
  0
LINE
  5
116
100
AcDbEntity
  8
2
  6
ByLayer
 62
  256
370
   -1
100
AcDbLine
 10
195
 20
88.31760866330001
 11
196
 21
88.54377448469999
  0
LINE
  5
117
100
AcDbEntity
  8
2
  6
ByLayer
 62
  256
370
   -1
100
AcDbLine
 10
196
 20
88.54377448469999
 11
197
 21
88.7693640847
  0
LINE
  5
118
100
AcDbEntity
  8
2
  6
ByLayer
 62
  256
370
   -1
100
AcDbLine
 10
197
 20
88.7693640847
 11
198
 21
88.99438184509999
  0
LINE
  5
119
100
AcDbEntity
  8
2
  6
ByLayer
 62
  256
370
   -1
100
AcDbLine
 10
198
 20
88.99438184509999
 11
199
 21
89.2188320928
  0
LINE
  5
11A
100
AcDbEntity
  8
2
  6
ByLayer
 62
  256
370
   -1
100
AcDbLine
 10
199
 20
89.2188320928
 11
200
 21
89.44271910000001
  0
LINE
  5
11B
100
AcDbEntity
  8
2
  6
ByLayer
 62
  256
370
   -1
100
AcDbLine
 10
200
 20
89.44271910000001
 11
201
 21
89.6660470858
  0
LINE
  5
11C
100
AcDbEntity
  8
2
  6
ByLayer
 62
  256
370
   -1
100
AcDbLine
 10
201
 20
89.6660470858
 11
202
 21
89.888820217
  0
LINE
  5
11D
100
AcDbEntity
  8
2
  6
ByLayer
 62
  256
370
   -1
100
AcDbLine
 10
202
 20
89.888820217
 11
203
 21
90.1110426086
  0
LINE
  5
11E
100
AcDbEntity
  8
2
  6
ByLayer
 62
  256
370
   -1
100
AcDbLine
 10
203
 20
90.1110426086
 11
204
 21
90.3327183251
  0
LINE
  5
11F
100
AcDbEntity
  8
2
  6
ByLayer
 62
  256
370
   -1
100
AcDbLine
 10
204
 20
90.3327183251
 11
205
 21
90.55385138139999
  0
LINE
  5
120
100
AcDbEntity
  8
2
  6
ByLayer
 62
  256
370
   -1
100
AcDbLine
 10
205
 20
90.55385138139999
 11
206
 21
90.77444574330001
  0
LINE
  5
121
100
AcDbEntity
  8
2
  6
ByLayer
 62
  256
370
   -1
100
AcDbLine
 10
206
 20
90.77444574330001
 11
207
 21
90.9945053286
  0
LINE
  5
122
100
AcDbEntity
  8
2
  6
ByLayer
 62
  256
370
   -1
100
AcDbLine
 10
207
 20
90.9945053286
 11
208
 21
91.2140340079
  0
LINE
  5
123
100
AcDbEntity
  8
2
  6
ByLayer
 62
  256
370
   -1
100
AcDbLine
 10
208
 20
91.2140340079
 11
209
 21
91.43303560530001
  0
LINE
  5
124
100
AcDbEntity
  8
2
  6
ByLayer
 62
  256
370
   -1
100
AcDbLine
 10
209
 20
91.43303560530001
 11
210
 21
91.6515138991
  0
LINE
  5
125
100
AcDbEntity
  8
2
  6
ByLayer
 62
  256
370
   -1
100
AcDbLine
 10
210
 20
91.6515138991
 11
211
 21
91.8694726228
  0
LINE
  5
126
100
AcDbEntity
  8
2
  6
ByLayer
 62
  256
370
   -1
100
AcDbLine
 10
211
 20
91.8694726228
 11
212
 21
92.0869154658
  0
LINE
  5
127
100
AcDbEntity
  8
2
  6
ByLayer
 62
  256
370
   -1
100
AcDbLine
 10
212
 20
92.0869154658
 11
213
 21
92.3038460737
  0
LINE
  5
128
100
AcDbEntity
  8
2
  6
ByLayer
 62
  256
370
   -1
100
AcDbLine
 10
213
 20
92.3038460737
 11
214
 21
92.52026804979999
  0
LINE
  5
129
100
AcDbEntity
  8
2
  6
ByLayer
 62
  256
370
   -1
100
AcDbLine
 10
214
 20
92.52026804979999
 11
215
 21
92.736184955
  0
LINE
  5
12A
100
AcDbEntity
  8
2
  6
ByLayer
 62
  256
370
   -1
100
AcDbLine
 10
215
 20
92.736184955
 11
216
 21
92.951600309
  0
LINE
  5
12B
100
AcDbEntity
  8
2
  6
ByLayer
 62
  256
370
   -1
100
AcDbLine
 10
216
 20
92.951600309
 11
217
 21
93.1665175908
  0
LINE
  5
12C
100
AcDbEntity
  8
2
  6
ByLayer
 62
  256
370
   -1
100
AcDbLine
 10
217
 20
93.1665175908
 11
218
 21
93.3809402394
  0
LINE
  5
12D
100
AcDbEntity
  8
2
  6
ByLayer
 62
  256
370
   -1
100
AcDbLine
 10
218
 20
93.3809402394
 11
219
 21
93.5948716544
  0
LINE
  5
12E
100
AcDbEntity
  8
2
  6
ByLayer
 62
  256
370
   -1
100
AcDbLine
 10
219
 20
93.5948716544
 11
220
 21
93.8083151965
  0
LINE
  5
12F
100
AcDbEntity
  8
2
  6
ByLayer
 62
  256
370
   -1
100
AcDbLine
 10
220
 20
93.8083151965
 11
221
 21
94.0212741883
  0
LINE
  5
130
100
AcDbEntity
  8
2
  6
ByLayer
 62
  256
370
   -1
100
AcDbLine
 10
221
 20
94.0212741883
 11
222
 21
94.2337519151
  0
LINE
  5
131
100
AcDbEntity
  8
2
  6
ByLayer
 62
  256
370
   -1
100
AcDbLine
 10
222
 20
94.2337519151
 11
223
 21
94.4457516249
  0
LINE
  5
132
100
AcDbEntity
  8
2
  6
ByLayer
 62
  256
370
   -1
100
AcDbLine
 10
223
 20
94.4457516249
 11
224
 21
94.6572765296
  0
LINE
  5
133
100
AcDbEntity
  8
2
  6
ByLayer
 62
  256
370
   -1
100
AcDbLine
 10
224
 20
94.6572765296
 11
225
 21
94.8683298051
  0
LINE
  5
134
100
AcDbEntity
  8
2
  6
ByLayer
 62
  256
370
   -1
100
AcDbLine
 10
225
 20
94.8683298051
 11
226
 21
95.078914592
  0
LINE
  5
135
100
AcDbEntity
  8
2
  6
ByLayer
 62
  256
370
   -1
100
AcDbLine
 10
226
 20
95.078914592
 11
227
 21
95.2890339966
  0
LINE
  5
136
100
AcDbEntity
  8
2
  6
ByLayer
 62
  256
370
   -1
100
AcDbLine
 10
227
 20
95.2890339966
 11
228
 21
95.4986910905
  0
LINE
  5
137
100
AcDbEntity
  8
2
  6
ByLayer
 62
  256
370
   -1
100
AcDbLine
 10
228
 20
95.4986910905
 11
229
 21
95.707888912
  0
LINE
  5
138
100
AcDbEntity
  8
2
  6
ByLayer
 62
  256
370
   -1
100
AcDbLine
 10
229
 20
95.707888912
 11
230
 21
95.91663046630001
  0
LINE
  5
139
100
AcDbEntity
  8
2
  6
ByLayer
 62
  256
370
   -1
100
AcDbLine
 10
230
 20
95.91663046630001
 11
231
 21
96.1249187256
  0
LINE
  5
13A
100
AcDbEntity
  8
2
  6
ByLayer
 62
  256
370
   -1
100
AcDbLine
 10
231
 20
96.1249187256
 11
232
 21
96.3327566303
  0
LINE
  5
13B
100
AcDbEntity
  8
2
  6
ByLayer
 62
  256
370
   -1
100
AcDbLine
 10
232
 20
96.3327566303
 11
233
 21
96.5401470892
  0
LINE
  5
13C
100
AcDbEntity
  8
2
  6
ByLayer
 62
  256
370
   -1
100
AcDbLine
 10
233
 20
96.5401470892
 11
234
 21
96.7470929796
  0
LINE
  5
13D
100
AcDbEntity
  8
2
  6
ByLayer
 62
  256
370
   -1
100
AcDbLine
 10
234
 20
96.7470929796
 11
235
 21
96.95359714830001
  0
LINE
  5
13E
100
AcDbEntity
  8
2
  6
ByLayer
 62
  256
370
   -1
100
AcDbLine
 10
235
 20
96.95359714830001
 11
236
 21
97.1596624119
  0
LINE
  5
13F
100
AcDbEntity
  8
2
  6
ByLayer
 62
  256
370
   -1
100
AcDbLine
 10
236
 20
97.1596624119
 11
237
 21
97.36529155709999
  0
LINE
  5
140
100
AcDbEntity
  8
2
  6
ByLayer
 62
  256
370
   -1
100
AcDbLine
 10
237
 20
97.36529155709999
 11
238
 21
97.57048734120001
  0
LINE
  5
141
100
AcDbEntity
  8
2
  6
ByLayer
 62
  256
370
   -1
100
AcDbLine
 10
238
 20
97.57048734120001
 11
239
 21
97.7752524926
  0
LINE
  5
142
100
AcDbEntity
  8
2
  6
ByLayer
 62
  256
370
   -1
100
AcDbLine
 10
239
 20
97.7752524926
 11
240
 21
97.97958971129999
  0
LINE
  5
143
100
AcDbEntity
  8
2
  6
ByLayer
 62
  256
370
   -1
100
AcDbLine
 10
240
 20
97.97958971129999
 11
241
 21
98.1835016691
  0
LINE
  5
144
100
AcDbEntity
  8
2
  6
ByLayer
 62
  256
370
   -1
100
AcDbLine
 10
241
 20
98.1835016691
 11
242
 21
98.38699101
  0
LINE
  5
145
100
AcDbEntity
  8
2
  6
ByLayer
 62
  256
370
   -1
100
AcDbLine
 10
242
 20
98.38699101
 11
243
 21
98.5900603509
  0
LINE
  5
146
100
AcDbEntity
  8
2
  6
ByLayer
 62
  256
370
   -1
100
AcDbLine
 10
243
 20
98.5900603509
 11
244
 21
98.79271228179999
  0
LINE
  5
147
100
AcDbEntity
  8
2
  6
ByLayer
 62
  256
370
   -1
100
AcDbLine
 10
244
 20
98.79271228179999
 11
245
 21
98.9949493661
  0
LINE
  5
148
100
AcDbEntity
  8
2
  6
ByLayer
 62
  256
370
   -1
100
AcDbLine
 10
245
 20
98.9949493661
 11
246
 21
99.19677414109999
  0
LINE
  5
149
100
AcDbEntity
  8
2
  6
ByLayer
 62
  256
370
   -1
100
AcDbLine
 10
246
 20
99.19677414109999
 11
247
 21
99.3981891183
  0
LINE
  5
14A
100
AcDbEntity
  8
2
  6
ByLayer
 62
  256
370
   -1
100
AcDbLine
 10
247
 20
99.3981891183
 11
248
 21
99.5991967839
  0
LINE
  5
14B
100
AcDbEntity
  8
2
  6
ByLayer
 62
  256
370
   -1
100
AcDbLine
 10
248
 20
99.5991967839
 11
249
 21
99.799799599
  0
LINE
  5
14C
100
AcDbEntity
  8
2
  6
ByLayer
 62
  256
370
   -1
100
AcDbLine
 10
249
 20
99.799799599
 11
250
 21
100
  0
LINE
  5
14D
100
AcDbEntity
  8
2
  6
ByLayer
 62
  256
370
   -1
100
AcDbLine
 10
250
 20
100
 11
251
 21
100.199800399
  0
LINE
  5
14E
100
AcDbEntity
  8
2
  6
ByLayer
 62
  256
370
   -1
100
AcDbLine
 10
251
 20
100.199800399
 11
252
 21
100.399203184
  0
LINE
  5
14F
100
AcDbEntity
  8
2
  6
ByLayer
 62
  256
370
   -1
100
AcDbLine
 10
252
 20
100.399203184
 11
253
 21
100.59821072
  0
LINE
  5
150
100
AcDbEntity
  8
2
  6
ByLayer
 62
  256
370
   -1
100
AcDbLine
 10
253
 20
100.59821072
 11
254
 21
100.796825347
  0
LINE
  5
151
100
AcDbEntity
  8
2
  6
ByLayer
 62
  256
370
   -1
100
AcDbLine
 10
254
 20
100.796825347
 11
255
 21
100.995049384
  0
LINE
  5
152
100
AcDbEntity
  8
2
  6
ByLayer
 62
  256
370
   -1
100
AcDbLine
 10
255
 20
100.995049384
 11
256
 21
101.192885125
  0
LINE
  5
153
100
AcDbEntity
  8
2
  6
ByLayer
 62
  256
370
   -1
100
AcDbLine
 10
256
 20
101.192885125
 11
257
 21
101.390334845
  0
LINE
  5
154
100
AcDbEntity
  8
2
  6
ByLayer
 62
  256
370
   -1
100
AcDbLine
 10
257
 20
101.390334845
 11
258
 21
101.587400794
  0
LINE
  5
155
100
AcDbEntity
  8
2
  6
ByLayer
 62
  256
370
   -1
100
AcDbLine
 10
258
 20
101.587400794
 11
259
 21
101.7840852
  0
LINE
  5
156
100
AcDbEntity
  8
2
  6
ByLayer
 62
  256
370
   -1
100
AcDbLine
 10
259
 20
101.7840852
 11
260
 21
101.980390272
  0
LINE
  5
157
100
AcDbEntity
  8
2
  6
ByLayer
 62
  256
370
   -1
100
AcDbLine
 10
260
 20
101.980390272
 11
261
 21
102.176318196
  0
LINE
  5
158
100
AcDbEntity
  8
2
  6
ByLayer
 62
  256
370
   -1
100
AcDbLine
 10
261
 20
102.176318196
 11
262
 21
102.371871137
  0
LINE
  5
159
100
AcDbEntity
  8
2
  6
ByLayer
 62
  256
370
   -1
100
AcDbLine
 10
262
 20
102.371871137
 11
263
 21
102.56705124
  0
LINE
  5
15A
100
AcDbEntity
  8
2
  6
ByLayer
 62
  256
370
   -1
100
AcDbLine
 10
263
 20
102.56705124
 11
264
 21
102.761860629
  0
LINE
  5
15B
100
AcDbEntity
  8
2
  6
ByLayer
 62
  256
370
   -1
100
AcDbLine
 10
264
 20
102.761860629
 11
265
 21
102.95630141
  0
LINE
  5
15C
100
AcDbEntity
  8
2
  6
ByLayer
 62
  256
370
   -1
100
AcDbLine
 10
265
 20
102.95630141
 11
266
 21
103.150375666
  0
LINE
  5
15D
100
AcDbEntity
  8
2
  6
ByLayer
 62
  256
370
   -1
100
AcDbLine
 10
266
 20
103.150375666
 11
267
 21
103.344085462
  0
LINE
  5
15E
100
AcDbEntity
  8
2
  6
ByLayer
 62
  256
370
   -1
100
AcDbLine
 10
267
 20
103.344085462
 11
268
 21
103.537432844
  0
LINE
  5
15F
100
AcDbEntity
  8
2
  6
ByLayer
 62
  256
370
   -1
100
AcDbLine
 10
268
 20
103.537432844
 11
269
 21
103.730419839
  0
LINE
  5
160
100
AcDbEntity
  8
2
  6
ByLayer
 62
  256
370
   -1
100
AcDbLine
 10
269
 20
103.730419839
 11
270
 21
103.923048454
  0
LINE
  5
161
100
AcDbEntity
  8
2
  6
ByLayer
 62
  256
370
   -1
100
AcDbLine
 10
270
 20
103.923048454
 11
271
 21
104.115320679
  0
LINE
  5
162
100
AcDbEntity
  8
2
  6
ByLayer
 62
  256
370
   -1
100
AcDbLine
 10
271
 20
104.115320679
 11
272
 21
104.307238483
  0
LINE
  5
163
100
AcDbEntity
  8
2
  6
ByLayer
 62
  256
370
   -1
100
AcDbLine
 10
272
 20
104.307238483
 11
273
 21
104.498803821
  0
LINE
  5
164
100
AcDbEntity
  8
2
  6
ByLayer
 62
  256
370
   -1
100
AcDbLine
 10
273
 20
104.498803821
 11
274
 21
104.690018626
  0
LINE
  5
165
100
AcDbEntity
  8
2
  6
ByLayer
 62
  256
370
   -1
100
AcDbLine
 10
274
 20
104.690018626
 11
275
 21
104.880884817
  0
LINE
  5
166
100
AcDbEntity
  8
2
  6
ByLayer
 62
  256
370
   -1
100
AcDbLine
 10
275
 20
104.880884817
 11
276
 21
105.071404293
  0
LINE
  5
167
100
AcDbEntity
  8
2
  6
ByLayer
 62
  256
370
   -1
100
AcDbLine
 10
276
 20
105.071404293
 11
277
 21
105.261578936
  0
LINE
  5
168
100
AcDbEntity
  8
2
  6
ByLayer
 62
  256
370
   -1
100
AcDbLine
 10
277
 20
105.261578936
 11
278
 21
105.451410612
  0
LINE
  5
169
100
AcDbEntity
  8
2
  6
ByLayer
 62
  256
370
   -1
100
AcDbLine
 10
278
 20
105.451410612
 11
279
 21
105.64090117
  0
LINE
  5
16A
100
AcDbEntity
  8
2
  6
ByLayer
 62
  256
370
   -1
100
AcDbLine
 10
279
 20
105.64090117
 11
280
 21
105.830052443
  0
LINE
  5
16B
100
AcDbEntity
  8
2
  6
ByLayer
 62
  256
370
   -1
100
AcDbLine
 10
280
 20
105.830052443
 11
281
 21
106.018866246
  0
LINE
  5
16C
100
AcDbEntity
  8
2
  6
ByLayer
 62
  256
370
   -1
100
AcDbLine
 10
281
 20
106.018866246
 11
282
 21
106.207344379
  0
LINE
  5
16D
100
AcDbEntity
  8
2
  6
ByLayer
 62
  256
370
   -1
100
AcDbLine
 10
282
 20
106.207344379
 11
283
 21
106.395488626
  0
LINE
  5
16E
100
AcDbEntity
  8
2
  6
ByLayer
 62
  256
370
   -1
100
AcDbLine
 10
283
 20
106.395488626
 11
284
 21
106.583300756
  0
LINE
  5
16F
100
AcDbEntity
  8
2
  6
ByLayer
 62
  256
370
   -1
100
AcDbLine
 10
284
 20
106.583300756
 11
285
 21
106.77078252
  0
LINE
  5
170
100
AcDbEntity
  8
2
  6
ByLayer
 62
  256
370
   -1
100
AcDbLine
 10
285
 20
106.77078252
 11
286
 21
106.957935657
  0
LINE
  5
171
100
AcDbEntity
  8
2
  6
ByLayer
 62
  256
370
   -1
100
AcDbLine
 10
286
 20
106.957935657
 11
287
 21
107.144761888
  0
LINE
  5
172
100
AcDbEntity
  8
2
  6
ByLayer
 62
  256
370
   -1
100
AcDbLine
 10
287
 20
107.144761888
 11
288
 21
107.33126292
  0
LINE
  5
173
100
AcDbEntity
  8
2
  6
ByLayer
 62
  256
370
   -1
100
AcDbLine
 10
288
 20
107.33126292
 11
289
 21
107.517440446
  0
LINE
  5
174
100
AcDbEntity
  8
2
  6
ByLayer
 62
  256
370
   -1
100
AcDbLine
 10
289
 20
107.517440446
 11
290
 21
107.703296143
  0
LINE
  5
175
100
AcDbEntity
  8
2
  6
ByLayer
 62
  256
370
   -1
100
AcDbLine
 10
290
 20
107.703296143
 11
291
 21
107.888831674
  0
LINE
  5
176
100
AcDbEntity
  8
2
  6
ByLayer
 62
  256
370
   -1
100
AcDbLine
 10
291
 20
107.888831674
 11
292
 21
108.074048689
  0
LINE
  5
177
100
AcDbEntity
  8
2
  6
ByLayer
 62
  256
370
   -1
100
AcDbLine
 10
292
 20
108.074048689
 11
293
 21
108.258948822
  0
LINE
  5
178
100
AcDbEntity
  8
2
  6
ByLayer
 62
  256
370
   -1
100
AcDbLine
 10
293
 20
108.258948822
 11
294
 21
108.443533694
  0
LINE
  5
179
100
AcDbEntity
  8
2
  6
ByLayer
 62
  256
370
   -1
100
AcDbLine
 10
294
 20
108.443533694
 11
295
 21
108.627804912
  0
LINE
  5
17A
100
AcDbEntity
  8
2
  6
ByLayer
 62
  256
370
   -1
100
AcDbLine
 10
295
 20
108.627804912
 11
296
 21
108.81176407
  0
LINE
  5
17B
100
AcDbEntity
  8
2
  6
ByLayer
 62
  256
370
   -1
100
AcDbLine
 10
296
 20
108.81176407
 11
297
 21
108.995412748
  0
LINE
  5
17C
100
AcDbEntity
  8
2
  6
ByLayer
 62
  256
370
   -1
100
AcDbLine
 10
297
 20
108.995412748
 11
298
 21
109.178752512
  0
LINE
  5
17D
100
AcDbEntity
  8
2
  6
ByLayer
 62
  256
370
   -1
100
AcDbLine
 10
298
 20
109.178752512
 11
299
 21
109.361784916
  0
LINE
  5
17E
100
AcDbEntity
  8
2
  6
ByLayer
 62
  256
370
   -1
100
AcDbLine
 10
299
 20
109.361784916
 11
300
 21
109.544511501
  0
LINE
  5
17F
100
AcDbEntity
  8
2
  6
ByLayer
 62
  256
370
   -1
100
AcDbLine
 10
300
 20
109.544511501
 11
301
 21
109.726933795
  0
LINE
  5
180
100
AcDbEntity
  8
2
  6
ByLayer
 62
  256
370
   -1
100
AcDbLine
 10
301
 20
109.726933795
 11
302
 21
109.909053312
  0
LINE
  5
181
100
AcDbEntity
  8
2
  6
ByLayer
 62
  256
370
   -1
100
AcDbLine
 10
302
 20
109.909053312
 11
303
 21
110.090871556
  0
LINE
  5
182
100
AcDbEntity
  8
2
  6
ByLayer
 62
  256
370
   -1
100
AcDbLine
 10
303
 20
110.090871556
 11
304
 21
110.272390017
  0
LINE
  5
183
100
AcDbEntity
  8
2
  6
ByLayer
 62
  256
370
   -1
100
AcDbLine
 10
304
 20
110.272390017
 11
305
 21
110.453610172
  0
LINE
  5
184
100
AcDbEntity
  8
2
  6
ByLayer
 62
  256
370
   -1
100
AcDbLine
 10
305
 20
110.453610172
 11
306
 21
110.634533488
  0
LINE
  5
185
100
AcDbEntity
  8
2
  6
ByLayer
 62
  256
370
   -1
100
AcDbLine
 10
306
 20
110.634533488
 11
307
 21
110.815161418
  0
LINE
  5
186
100
AcDbEntity
  8
2
  6
ByLayer
 62
  256
370
   -1
100
AcDbLine
 10
307
 20
110.815161418
 11
308
 21
110.995495404
  0
LINE
  5
187
100
AcDbEntity
  8
2
  6
ByLayer
 62
  256
370
   -1
100
AcDbLine
 10
308
 20
110.995495404
 11
309
 21
111.175536877
  0
LINE
  5
188
100
AcDbEntity
  8
2
  6
ByLayer
 62
  256
370
   -1
100
AcDbLine
 10
309
 20
111.175536877
 11
310
 21
111.355287257
  0
LINE
  5
189
100
AcDbEntity
  8
2
  6
ByLayer
 62
  256
370
   -1
100
AcDbLine
 10
310
 20
111.355287257
 11
311
 21
111.534747949
  0
LINE
  5
18A
100
AcDbEntity
  8
2
  6
ByLayer
 62
  256
370
   -1
100
AcDbLine
 10
311
 20
111.534747949
 11
312
 21
111.71392035
  0
LINE
  5
18B
100
AcDbEntity
  8
2
  6
ByLayer
 62
  256
370
   -1
100
AcDbLine
 10
312
 20
111.71392035
 11
313
 21
111.892805846
  0
LINE
  5
18C
100
AcDbEntity
  8
2
  6
ByLayer
 62
  256
370
   -1
100
AcDbLine
 10
313
 20
111.892805846
 11
314
 21
112.071405809
  0
LINE
  5
18D
100
AcDbEntity
  8
2
  6
ByLayer
 62
  256
370
   -1
100
AcDbLine
 10
314
 20
112.071405809
 11
315
 21
112.249721603
  0
LINE
  5
18E
100
AcDbEntity
  8
2
  6
ByLayer
 62
  256
370
   -1
100
AcDbLine
 10
315
 20
112.249721603
 11
316
 21
112.42775458
  0
LINE
  5
18F
100
AcDbEntity
  8
2
  6
ByLayer
 62
  256
370
   -1
100
AcDbLine
 10
316
 20
112.42775458
 11
317
 21
112.605506082
  0
LINE
  5
190
100
AcDbEntity
  8
2
  6
ByLayer
 62
  256
370
   -1
100
AcDbLine
 10
317
 20
112.605506082
 11
318
 21
112.782977439
  0
LINE
  5
191
100
AcDbEntity
  8
2
  6
ByLayer
 62
  256
370
   -1
100
AcDbLine
 10
318
 20
112.782977439
 11
319
 21
112.960169972
  0
LINE
  5
192
100
AcDbEntity
  8
2
  6
ByLayer
 62
  256
370
   -1
100
AcDbLine
 10
319
 20
112.960169972
 11
320
 21
113.13708499
  0
LINE
  5
193
100
AcDbEntity
  8
2
  6
ByLayer
 62
  256
370
   -1
100
AcDbLine
 10
320
 20
113.13708499
 11
321
 21
113.313723794
  0
LINE
  5
194
100
AcDbEntity
  8
2
  6
ByLayer
 62
  256
370
   -1
100
AcDbLine
 10
321
 20
113.313723794
 11
322
 21
113.490087673
  0
LINE
  5
195
100
AcDbEntity
  8
2
  6
ByLayer
 62
  256
370
   -1
100
AcDbLine
 10
322
 20
113.490087673
 11
323
 21
113.666177907
  0
LINE
  5
196
100
AcDbEntity
  8
2
  6
ByLayer
 62
  256
370
   -1
100
AcDbLine
 10
323
 20
113.666177907
 11
324
 21
113.841995766
  0
LINE
  5
197
100
AcDbEntity
  8
2
  6
ByLayer
 62
  256
370
   -1
100
AcDbLine
 10
324
 20
113.841995766
 11
325
 21
114.01754251
  0
LINE
  5
198
100
AcDbEntity
  8
2
  6
ByLayer
 62
  256
370
   -1
100
AcDbLine
 10
325
 20
114.01754251
 11
326
 21
114.192819389
  0
LINE
  5
199
100
AcDbEntity
  8
2
  6
ByLayer
 62
  256
370
   -1
100
AcDbLine
 10
326
 20
114.192819389
 11
327
 21
114.367827644
  0
LINE
  5
19A
100
AcDbEntity
  8
2
  6
ByLayer
 62
  256
370
   -1
100
AcDbLine
 10
327
 20
114.367827644
 11
328
 21
114.542568506
  0
LINE
  5
19B
100
AcDbEntity
  8
2
  6
ByLayer
 62
  256
370
   -1
100
AcDbLine
 10
328
 20
114.542568506
 11
329
 21
114.717043198
  0
LINE
  5
19C
100
AcDbEntity
  8
2
  6
ByLayer
 62
  256
370
   -1
100
AcDbLine
 10
329
 20
114.717043198
 11
330
 21
114.891252931
  0
LINE
  5
19D
100
AcDbEntity
  8
2
  6
ByLayer
 62
  256
370
   -1
100
AcDbLine
 10
330
 20
114.891252931
 11
331
 21
115.065198909
  0
LINE
  5
19E
100
AcDbEntity
  8
2
  6
ByLayer
 62
  256
370
   -1
100
AcDbLine
 10
331
 20
115.065198909
 11
332
 21
115.238882327
  0
LINE
  5
19F
100
AcDbEntity
  8
2
  6
ByLayer
 62
  256
370
   -1
100
AcDbLine
 10
332
 20
115.238882327
 11
333
 21
115.41230437
  0
LINE
  5
1A0
100
AcDbEntity
  8
2
  6
ByLayer
 62
  256
370
   -1
100
AcDbLine
 10
333
 20
115.41230437
 11
334
 21
115.585466214
  0
LINE
  5
1A1
100
AcDbEntity
  8
2
  6
ByLayer
 62
  256
370
   -1
100
AcDbLine
 10
334
 20
115.585466214
 11
335
 21
115.758369028
  0
LINE
  5
1A2
100
AcDbEntity
  8
2
  6
ByLayer
 62
  256
370
   -1
100
AcDbLine
 10
335
 20
115.758369028
 11
336
 21
115.93101397
  0
LINE
  5
1A3
100
AcDbEntity
  8
2
  6
ByLayer
 62
  256
370
   -1
100
AcDbLine
 10
336
 20
115.93101397
 11
337
 21
116.10340219
  0
LINE
  5
1A4
100
AcDbEntity
  8
2
  6
ByLayer
 62
  256
370
   -1
100
AcDbLine
 10
337
 20
116.10340219
 11
338
 21
116.27553483
  0
LINE
  5
1A5
100
AcDbEntity
  8
2
  6
ByLayer
 62
  256
370
   -1
100
AcDbLine
 10
338
 20
116.27553483
 11
339
 21
116.447413024
  0
LINE
  5
1A6
100
AcDbEntity
  8
2
  6
ByLayer
 62
  256
370
   -1
100
AcDbLine
 10
339
 20
116.447413024
 11
340
 21
116.619037897
  0
LINE
  5
1A7
100
AcDbEntity
  8
2
  6
ByLayer
 62
  256
370
   -1
100
AcDbLine
 10
340
 20
116.619037897
 11
341
 21
116.790410565
  0
LINE
  5
1A8
100
AcDbEntity
  8
2
  6
ByLayer
 62
  256
370
   -1
100
AcDbLine
 10
341
 20
116.790410565
 11
342
 21
116.961532138
  0
LINE
  5
1A9
100
AcDbEntity
  8
2
  6
ByLayer
 62
  256
370
   -1
100
AcDbLine
 10
342
 20
116.961532138
 11
343
 21
117.132403715
  0
LINE
  5
1AA
100
AcDbEntity
  8
2
  6
ByLayer
 62
  256
370
   -1
100
AcDbLine
 10
343
 20
117.132403715
 11
344
 21
117.303026389
  0
LINE
  5
1AB
100
AcDbEntity
  8
2
  6
ByLayer
 62
  256
370
   -1
100
AcDbLine
 10
344
 20
117.303026389
 11
345
 21
117.473401245
  0
LINE
  5
1AC
100
AcDbEntity
  8
2
  6
ByLayer
 62
  256
370
   -1
100
AcDbLine
 10
345
 20
117.473401245
 11
346
 21
117.643529359
  0
LINE
  5
1AD
100
AcDbEntity
  8
2
  6
ByLayer
 62
  256
370
   -1
100
AcDbLine
 10
346
 20
117.643529359
 11
347
 21
117.8134118
  0
LINE
  5
1AE
100
AcDbEntity
  8
2
  6
ByLayer
 62
  256
370
   -1
100
AcDbLine
 10
347
 20
117.8134118
 11
348
 21
117.98304963
  0
LINE
  5
1AF
100
AcDbEntity
  8
2
  6
ByLayer
 62
  256
370
   -1
100
AcDbLine
 10
348
 20
117.98304963
 11
349
 21
118.152443902
  0
LINE
  5
1B0
100
AcDbEntity
  8
2
  6
ByLayer
 62
  256
370
   -1
100
AcDbLine
 10
349
 20
118.152443902
 11
350
 21
118.321595662
  0
LINE
  5
1B1
100
AcDbEntity
  8
2
  6
ByLayer
 62
  256
370
   -1
100
AcDbLine
 10
350
 20
118.321595662
 11
351
 21
118.490505949
  0
LINE
  5
1B2
100
AcDbEntity
  8
2
  6
ByLayer
 62
  256
370
   -1
100
AcDbLine
 10
351
 20
118.490505949
 11
352
 21
118.659175794
  0
LINE
  5
1B3
100
AcDbEntity
  8
2
  6
ByLayer
 62
  256
370
   -1
100
AcDbLine
 10
352
 20
118.659175794
 11
353
 21
118.82760622
  0
LINE
  5
1B4
100
AcDbEntity
  8
2
  6
ByLayer
 62
  256
370
   -1
100
AcDbLine
 10
353
 20
118.82760622
 11
354
 21
118.995798245
  0
LINE
  5
1B5
100
AcDbEntity
  8
2
  6
ByLayer
 62
  256
370
   -1
100
AcDbLine
 10
354
 20
118.995798245
 11
355
 21
119.163752878
  0
LINE
  5
1B6
100
AcDbEntity
  8
2
  6
ByLayer
 62
  256
370
   -1
100
AcDbLine
 10
355
 20
119.163752878
 11
356
 21
119.331471121
  0
LINE
  5
1B7
100
AcDbEntity
  8
2
  6
ByLayer
 62
  256
370
   -1
100
AcDbLine
 10
356
 20
119.331471121
 11
357
 21
119.49895397
  0
LINE
  5
1B8
100
AcDbEntity
  8
2
  6
ByLayer
 62
  256
370
   -1
100
AcDbLine
 10
357
 20
119.49895397
 11
358
 21
119.666202413
  0
LINE
  5
1B9
100
AcDbEntity
  8
2
  6
ByLayer
 62
  256
370
   -1
100
AcDbLine
 10
358
 20
119.666202413
 11
359
 21
119.833217432
  0
LINE
  5
1BA
100
AcDbEntity
  8
2
  6
ByLayer
 62
  256
370
   -1
100
AcDbLine
 10
359
 20
119.833217432
 11
360
 21
120
  0
LINE
  5
1BB
100
AcDbEntity
  8
2
  6
ByLayer
 62
  256
370
   -1
100
AcDbLine
 10
360
 20
120
 11
361
 21
120.166551086
  0
LINE
  5
1BC
100
AcDbEntity
  8
2
  6
ByLayer
 62
  256
370
   -1
100
AcDbLine
 10
361
 20
120.166551086
 11
362
 21
120.332871652
  0
LINE
  5
1BD
100
AcDbEntity
  8
2
  6
ByLayer
 62
  256
370
   -1
100
AcDbLine
 10
362
 20
120.332871652
 11
363
 21
120.498962651
  0
LINE
  5
1BE
100
AcDbEntity
  8
2
  6
ByLayer
 62
  256
370
   -1
100
AcDbLine
 10
363
 20
120.498962651
 11
364
 21
120.664825032
  0
LINE
  5
1BF
100
AcDbEntity
  8
2
  6
ByLayer
 62
  256
370
   -1
100
AcDbLine
 10
364
 20
120.664825032
 11
365
 21
120.830459736
  0
LINE
  5
1C0
100
AcDbEntity
  8
2
  6
ByLayer
 62
  256
370
   -1
100
AcDbLine
 10
365
 20
120.830459736
 11
366
 21
120.995867698
  0
LINE
  5
1C1
100
AcDbEntity
  8
2
  6
ByLayer
 62
  256
370
   -1
100
AcDbLine
 10
366
 20
120.995867698
 11
367
 21
121.161049847
  0
LINE
  5
1C2
100
AcDbEntity
  8
2
  6
ByLayer
 62
  256
370
   -1
100
AcDbLine
 10
367
 20
121.161049847
 11
368
 21
121.326007105
  0
LINE
  5
1C3
100
AcDbEntity
  8
2
  6
ByLayer
 62
  256
370
   -1
100
AcDbLine
 10
368
 20
121.326007105
 11
369
 21
121.490740388
  0
LINE
  5
1C4
100
AcDbEntity
  8
2
  6
ByLayer
 62
  256
370
   -1
100
AcDbLine
 10
369
 20
121.490740388
 11
370
 21
121.655250606
  0
LINE
  5
1C5
100
AcDbEntity
  8
2
  6
ByLayer
 62
  256
370
   -1
100
AcDbLine
 10
370
 20
121.655250606
 11
371
 21
121.819538663
  0
LINE
  5
1C6
100
AcDbEntity
  8
2
  6
ByLayer
 62
  256
370
   -1
100
AcDbLine
 10
371
 20
121.819538663
 11
372
 21
121.983605456
  0
LINE
  5
1C7
100
AcDbEntity
  8
2
  6
ByLayer
 62
  256
370
   -1
100
AcDbLine
 10
372
 20
121.983605456
 11
373
 21
122.147451877
  0
LINE
  5
1C8
100
AcDbEntity
  8
2
  6
ByLayer
 62
  256
370
   -1
100
AcDbLine
 10
373
 20
122.147451877
 11
374
 21
122.311078811
  0
LINE
  5
1C9
100
AcDbEntity
  8
2
  6
ByLayer
 62
  256
370
   -1
100
AcDbLine
 10
374
 20
122.311078811
 11
375
 21
122.474487139
  0
LINE
  5
1CA
100
AcDbEntity
  8
2
  6
ByLayer
 62
  256
370
   -1
100
AcDbLine
 10
375
 20
122.474487139
 11
376
 21
122.637677734
  0
LINE
  5
1CB
100
AcDbEntity
  8
2
  6
ByLayer
 62
  256
370
   -1
100
AcDbLine
 10
376
 20
122.637677734
 11
377
 21
122.800651464
  0
LINE
  5
1CC
100
AcDbEntity
  8
2
  6
ByLayer
 62
  256
370
   -1
100
AcDbLine
 10
377
 20
122.800651464
 11
378
 21
122.963409192
  0
LINE
  5
1CD
100
AcDbEntity
  8
2
  6
ByLayer
 62
  256
370
   -1
100
AcDbLine
 10
378
 20
122.963409192
 11
379
 21
123.125951773
  0
LINE
  5
1CE
100
AcDbEntity
  8
2
  6
ByLayer
 62
  256
370
   -1
100
AcDbLine
 10
379
 20
123.125951773
 11
380
 21
123.288280059
  0
LINE
  5
1CF
100
AcDbEntity
  8
2
  6
ByLayer
 62
  256
370
   -1
100
AcDbLine
 10
380
 20
123.288280059
 11
381
 21
123.450394896
  0
LINE
  5
1D0
100
AcDbEntity
  8
2
  6
ByLayer
 62
  256
370
   -1
100
AcDbLine
 10
381
 20
123.450394896
 11
382
 21
123.612297123
  0
LINE
  5
1D1
100
AcDbEntity
  8
2
  6
ByLayer
 62
  256
370
   -1
100
AcDbLine
 10
382
 20
123.612297123
 11
383
 21
123.773987574
  0
LINE
  5
1D2
100
AcDbEntity
  8
2
  6
ByLayer
 62
  256
370
   -1
100
AcDbLine
 10
383
 20
123.773987574
 11
384
 21
123.935467079
  0
LINE
  5
1D3
100
AcDbEntity
  8
2
  6
ByLayer
 62
  256
370
   -1
100
AcDbLine
 10
384
 20
123.935467079
 11
385
 21
124.09673646
  0
LINE
  5
1D4
100
AcDbEntity
  8
2
  6
ByLayer
 62
  256
370
   -1
100
AcDbLine
 10
385
 20
124.09673646
 11
386
 21
124.257796536
  0
LINE
  5
1D5
100
AcDbEntity
  8
2
  6
ByLayer
 62
  256
370
   -1
100
AcDbLine
 10
386
 20
124.257796536
 11
387
 21
124.41864812
  0
LINE
  5
1D6
100
AcDbEntity
  8
2
  6
ByLayer
 62
  256
370
   -1
100
AcDbLine
 10
387
 20
124.41864812
 11
388
 21
124.579292019
  0
LINE
  5
1D7
100
AcDbEntity
  8
2
  6
ByLayer
 62
  256
370
   -1
100
AcDbLine
 10
388
 20
124.579292019
 11
389
 21
124.739729036
  0
LINE
  5
1D8
100
AcDbEntity
  8
2
  6
ByLayer
 62
  256
370
   -1
100
AcDbLine
 10
389
 20
124.739729036
 11
390
 21
124.899959968
  0
LINE
  5
1D9
100
AcDbEntity
  8
2
  6
ByLayer
 62
  256
370
   -1
100
AcDbLine
 10
390
 20
124.899959968
 11
391
 21
125.059985607
  0
LINE
  5
1DA
100
AcDbEntity
  8
2
  6
ByLayer
 62
  256
370
   -1
100
AcDbLine
 10
391
 20
125.059985607
 11
392
 21
125.21980674
  0
LINE
  5
1DB
100
AcDbEntity
  8
2
  6
ByLayer
 62
  256
370
   -1
100
AcDbLine
 10
392
 20
125.21980674
 11
393
 21
125.379424149
  0
LINE
  5
1DC
100
AcDbEntity
  8
2
  6
ByLayer
 62
  256
370
   -1
100
AcDbLine
 10
393
 20
125.379424149
 11
394
 21
125.538838612
  0
LINE
  5
1DD
100
AcDbEntity
  8
2
  6
ByLayer
 62
  256
370
   -1
100
AcDbLine
 10
394
 20
125.538838612
 11
395
 21
125.6980509
  0
LINE
  5
1DE
100
AcDbEntity
  8
2
  6
ByLayer
 62
  256
370
   -1
100
AcDbLine
 10
395
 20
125.6980509
 11
396
 21
125.85706178
  0
LINE
  5
1DF
100
AcDbEntity
  8
2
  6
ByLayer
 62
  256
370
   -1
100
AcDbLine
 10
396
 20
125.85706178
 11
397
 21
126.015872016
  0
LINE
  5
1E0
100
AcDbEntity
  8
2
  6
ByLayer
 62
  256
370
   -1
100
AcDbLine
 10
397
 20
126.015872016
 11
398
 21
126.174482365
  0
LINE
  5
1E1
100
AcDbEntity
  8
2
  6
ByLayer
 62
  256
370
   -1
100
AcDbLine
 10
398
 20
126.174482365
 11
399
 21
126.332893579
  0
LINE
  5
1E2
100
AcDbEntity
  8
2
  6
ByLayer
 62
  256
370
   -1
100
AcDbLine
 10
399
 20
126.332893579
 11
400
 21
126.491106407
  0
LINE
  5
1E3
100
AcDbEntity
  8
2
  6
ByLayer
 62
  256
370
   -1
100
AcDbLine
 10
400
 20
126.491106407
 11
401
 21
126.649121592
  0
LINE
  5
1E4
100
AcDbEntity
  8
2
  6
ByLayer
 62
  256
370
   -1
100
AcDbLine
 10
401
 20
126.649121592
 11
402
 21
126.806939873
  0
LINE
  5
1E5
100
AcDbEntity
  8
2
  6
ByLayer
 62
  256
370
   -1
100
AcDbLine
 10
402
 20
126.806939873
 11
403
 21
126.964561985
  0
LINE
  5
1E6
100
AcDbEntity
  8
2
  6
ByLayer
 62
  256
370
   -1
100
AcDbLine
 10
403
 20
126.964561985
 11
404
 21
127.121988657
  0
LINE
  5
1E7
100
AcDbEntity
  8
2
  6
ByLayer
 62
  256
370
   -1
100
AcDbLine
 10
404
 20
127.121988657
 11
405
 21
127.279220614
  0
LINE
  5
1E8
100
AcDbEntity
  8
2
  6
ByLayer
 62
  256
370
   -1
100
AcDbLine
 10
405
 20
127.279220614
 11
406
 21
127.436258577
  0
LINE
  5
1E9
100
AcDbEntity
  8
2
  6
ByLayer
 62
  256
370
   -1
100
AcDbLine
 10
406
 20
127.436258577
 11
407
 21
127.593103262
  0
LINE
  5
1EA
100
AcDbEntity
  8
2
  6
ByLayer
 62
  256
370
   -1
100
AcDbLine
 10
407
 20
127.593103262
 11
408
 21
127.749755381
  0
LINE
  5
1EB
100
AcDbEntity
  8
2
  6
ByLayer
 62
  256
370
   -1
100
AcDbLine
 10
408
 20
127.749755381
 11
409
 21
127.906215643
  0
LINE
  5
1EC
100
AcDbEntity
  8
2
  6
ByLayer
 62
  256
370
   -1
100
AcDbLine
 10
409
 20
127.906215643
 11
410
 21
128.062484749
  0
LINE
  5
1ED
100
AcDbEntity
  8
2
  6
ByLayer
 62
  256
370
   -1
100
AcDbLine
 10
410
 20
128.062484749
 11
411
 21
128.218563399
  0
LINE
  5
1EE
100
AcDbEntity
  8
2
  6
ByLayer
 62
  256
370
   -1
100
AcDbLine
 10
411
 20
128.218563399
 11
412
 21
128.374452287
  0
LINE
  5
1EF
100
AcDbEntity
  8
2
  6
ByLayer
 62
  256
370
   -1
100
AcDbLine
 10
412
 20
128.374452287
 11
413
 21
128.530152104
  0
LINE
  5
1F0
100
AcDbEntity
  8
2
  6
ByLayer
 62
  256
370
   -1
100
AcDbLine
 10
413
 20
128.530152104
 11
414
 21
128.685663537
  0
LINE
  5
1F1
100
AcDbEntity
  8
2
  6
ByLayer
 62
  256
370
   -1
100
AcDbLine
 10
414
 20
128.685663537
 11
415
 21
128.840987267
  0
LINE
  5
1F2
100
AcDbEntity
  8
2
  6
ByLayer
 62
  256
370
   -1
100
AcDbLine
 10
415
 20
128.840987267
 11
416
 21
128.996123973
  0
LINE
  5
1F3
100
AcDbEntity
  8
2
  6
ByLayer
 62
  256
370
   -1
100
AcDbLine
 10
416
 20
128.996123973
 11
417
 21
129.151074328
  0
LINE
  5
1F4
100
AcDbEntity
  8
2
  6
ByLayer
 62
  256
370
   -1
100
AcDbLine
 10
417
 20
129.151074328
 11
418
 21
129.305839002
  0
LINE
  5
1F5
100
AcDbEntity
  8
2
  6
ByLayer
 62
  256
370
   -1
100
AcDbLine
 10
418
 20
129.305839002
 11
419
 21
129.460418661
  0
LINE
  5
1F6
100
AcDbEntity
  8
2
  6
ByLayer
 62
  256
370
   -1
100
AcDbLine
 10
419
 20
129.460418661
 11
420
 21
129.614813968
  0
LINE
  5
1F7
100
AcDbEntity
  8
2
  6
ByLayer
 62
  256
370
   -1
100
AcDbLine
 10
420
 20
129.614813968
 11
421
 21
129.76902558
  0
LINE
  5
1F8
100
AcDbEntity
  8
2
  6
ByLayer
 62
  256
370
   -1
100
AcDbLine
 10
421
 20
129.76902558
 11
422
 21
129.923054151
  0
LINE
  5
1F9
100
AcDbEntity
  8
2
  6
ByLayer
 62
  256
370
   -1
100
AcDbLine
 10
422
 20
129.923054151
 11
423
 21
130.076900332
  0
LINE
  5
1FA
100
AcDbEntity
  8
2
  6
ByLayer
 62
  256
370
   -1
100
AcDbLine
 10
423
 20
130.076900332
 11
424
 21
130.230564769
  0
LINE
  5
1FB
100
AcDbEntity
  8
2
  6
ByLayer
 62
  256
370
   -1
100
AcDbLine
 10
424
 20
130.230564769
 11
425
 21
130.384048104
  0
LINE
  5
1FC
100
AcDbEntity
  8
2
  6
ByLayer
 62
  256
370
   -1
100
AcDbLine
 10
425
 20
130.384048104
 11
426
 21
130.537350977
  0
LINE
  5
1FD
100
AcDbEntity
  8
2
  6
ByLayer
 62
  256
370
   -1
100
AcDbLine
 10
426
 20
130.537350977
 11
427
 21
130.690474022
  0
LINE
  5
1FE
100
AcDbEntity
  8
2
  6
ByLayer
 62
  256
370
   -1
100
AcDbLine
 10
427
 20
130.690474022
 11
428
 21
130.84341787
  0
LINE
  5
1FF
100
AcDbEntity
  8
2
  6
ByLayer
 62
  256
370
   -1
100
AcDbLine
 10
428
 20
130.84341787
 11
429
 21
130.996183151
  0
LINE
  5
200
100
AcDbEntity
  8
2
  6
ByLayer
 62
  256
370
   -1
100
AcDbLine
 10
429
 20
130.996183151
 11
430
 21
131.148770486
  0
LINE
  5
201
100
AcDbEntity
  8
2
  6
ByLayer
 62
  256
370
   -1
100
AcDbLine
 10
430
 20
131.148770486
 11
431
 21
131.301180497
  0
LINE
  5
202
100
AcDbEntity
  8
2
  6
ByLayer
 62
  256
370
   -1
100
AcDbLine
 10
431
 20
131.301180497
 11
432
 21
131.453413801
  0
LINE
  5
203
100
AcDbEntity
  8
2
  6
ByLayer
 62
  256
370
   -1
100
AcDbLine
 10
432
 20
131.453413801
 11
433
 21
131.605471011
  0
LINE
  5
204
100
AcDbEntity
  8
2
  6
ByLayer
 62
  256
370
   -1
100
AcDbLine
 10
433
 20
131.605471011
 11
434
 21
131.757352736
  0
LINE
  5
205
100
AcDbEntity
  8
2
  6
ByLayer
 62
  256
370
   -1
100
AcDbLine
 10
434
 20
131.757352736
 11
435
 21
131.909059583
  0
LINE
  5
206
100
AcDbEntity
  8
2
  6
ByLayer
 62
  256
370
   -1
100
AcDbLine
 10
435
 20
131.909059583
 11
436
 21
132.060592154
  0
LINE
  5
207
100
AcDbEntity
  8
2
  6
ByLayer
 62
  256
370
   -1
100
AcDbLine
 10
436
 20
132.060592154
 11
437
 21
132.211951048
  0
LINE
  5
208
100
AcDbEntity
  8
2
  6
ByLayer
 62
  256
370
   -1
100
AcDbLine
 10
437
 20
132.211951048
 11
438
 21
132.363136862
  0
LINE
  5
209
100
AcDbEntity
  8
2
  6
ByLayer
 62
  256
370
   -1
100
AcDbLine
 10
438
 20
132.363136862
 11
439
 21
132.514150188
  0
LINE
  5
20A
100
AcDbEntity
  8
2
  6
ByLayer
 62
  256
370
   -1
100
AcDbLine
 10
439
 20
132.514150188
 11
440
 21
132.664991614
  0
LINE
  5
20B
100
AcDbEntity
  8
2
  6
ByLayer
 62
  256
370
   -1
100
AcDbLine
 10
440
 20
132.664991614
 11
441
 21
132.815661727
  0
LINE
  5
20C
100
AcDbEntity
  8
2
  6
ByLayer
 62
  256
370
   -1
100
AcDbLine
 10
441
 20
132.815661727
 11
442
 21
132.966161109
  0
LINE
  5
20D
100
AcDbEntity
  8
2
  6
ByLayer
 62
  256
370
   -1
100
AcDbLine
 10
442
 20
132.966161109
 11
443
 21
133.116490338
  0
LINE
  5
20E
100
AcDbEntity
  8
2
  6
ByLayer
 62
  256
370
   -1
100
AcDbLine
 10
443
 20
133.116490338
 11
444
 21
133.266649992
  0
LINE
  5
20F
100
AcDbEntity
  8
2
  6
ByLayer
 62
  256
370
   -1
100
AcDbLine
 10
444
 20
133.266649992
 11
445
 21
133.416640641
  0
LINE
  5
210
100
AcDbEntity
  8
2
  6
ByLayer
 62
  256
370
   -1
100
AcDbLine
 10
445
 20
133.416640641
 11
446
 21
133.566462857
  0
LINE
  5
211
100
AcDbEntity
  8
2
  6
ByLayer
 62
  256
370
   -1
100
AcDbLine
 10
446
 20
133.566462857
 11
447
 21
133.716117204
  0
LINE
  5
212
100
AcDbEntity
  8
2
  6
ByLayer
 62
  256
370
   -1
100
AcDbLine
 10
447
 20
133.716117204
 11
448
 21
133.865604245
  0
LINE
  5
213
100
AcDbEntity
  8
2
  6
ByLayer
 62
  256
370
   -1
100
AcDbLine
 10
448
 20
133.865604245
 11
449
 21
134.014924542
  0
LINE
  5
214
100
AcDbEntity
  8
2
  6
ByLayer
 62
  256
370
   -1
100
AcDbLine
 10
449
 20
134.014924542
 11
450
 21
134.16407865
  0
LINE
  5
215
100
AcDbEntity
  8
2
  6
ByLayer
 62
  256
370
   -1
100
AcDbLine
 10
450
 20
134.16407865
 11
451
 21
134.313067123
  0
LINE
  5
216
100
AcDbEntity
  8
2
  6
ByLayer
 62
  256
370
   -1
100
AcDbLine
 10
451
 20
134.313067123
 11
452
 21
134.461890512
  0
LINE
  5
217
100
AcDbEntity
  8
2
  6
ByLayer
 62
  256
370
   -1
100
AcDbLine
 10
452
 20
134.461890512
 11
453
 21
134.610549364
  0
LINE
  5
218
100
AcDbEntity
  8
2
  6
ByLayer
 62
  256
370
   -1
100
AcDbLine
 10
453
 20
134.610549364
 11
454
 21
134.759044223
  0
LINE
  5
219
100
AcDbEntity
  8
2
  6
ByLayer
 62
  256
370
   -1
100
AcDbLine
 10
454
 20
134.759044223
 11
455
 21
134.907375632
  0
LINE
  5
21A
100
AcDbEntity
  8
2
  6
ByLayer
 62
  256
370
   -1
100
AcDbLine
 10
455
 20
134.907375632
 11
456
 21
135.055544129
  0
LINE
  5
21B
100
AcDbEntity
  8
2
  6
ByLayer
 62
  256
370
   -1
100
AcDbLine
 10
456
 20
135.055544129
 11
457
 21
135.203550249
  0
LINE
  5
21C
100
AcDbEntity
  8
2
  6
ByLayer
 62
  256
370
   -1
100
AcDbLine
 10
457
 20
135.203550249
 11
458
 21
135.351394526
  0
LINE
  5
21D
100
AcDbEntity
  8
2
  6
ByLayer
 62
  256
370
   -1
100
AcDbLine
 10
458
 20
135.351394526
 11
459
 21
135.499077488
  0
LINE
  5
21E
100
AcDbEntity
  8
2
  6
ByLayer
 62
  256
370
   -1
100
AcDbLine
 10
459
 20
135.499077488
 11
460
 21
135.646599663
  0
LINE
  5
21F
100
AcDbEntity
  8
2
  6
ByLayer
 62
  256
370
   -1
100
AcDbLine
 10
460
 20
135.646599663
 11
461
 21
135.793961574
  0
LINE
  5
220
100
AcDbEntity
  8
2
  6
ByLayer
 62
  256
370
   -1
100
AcDbLine
 10
461
 20
135.793961574
 11
462
 21
135.941163744
  0
LINE
  5
221
100
AcDbEntity
  8
2
  6
ByLayer
 62
  256
370
   -1
100
AcDbLine
 10
462
 20
135.941163744
 11
463
 21
136.08820669
  0
LINE
  5
222
100
AcDbEntity
  8
2
  6
ByLayer
 62
  256
370
   -1
100
AcDbLine
 10
463
 20
136.08820669
 11
464
 21
136.235090927
  0
LINE
  5
223
100
AcDbEntity
  8
2
  6
ByLayer
 62
  256
370
   -1
100
AcDbLine
 10
464
 20
136.235090927
 11
465
 21
136.38181697
  0
LINE
  5
224
100
AcDbEntity
  8
2
  6
ByLayer
 62
  256
370
   -1
100
AcDbLine
 10
465
 20
136.38181697
 11
466
 21
136.528385327
  0
LINE
  5
225
100
AcDbEntity
  8
2
  6
ByLayer
 62
  256
370
   -1
100
AcDbLine
 10
466
 20
136.528385327
 11
467
 21
136.674796506
  0
LINE
  5
226
100
AcDbEntity
  8
2
  6
ByLayer
 62
  256
370
   -1
100
AcDbLine
 10
467
 20
136.674796506
 11
468
 21
136.821051012
  0
LINE
  5
227
100
AcDbEntity
  8
2
  6
ByLayer
 62
  256
370
   -1
100
AcDbLine
 10
468
 20
136.821051012
 11
469
 21
136.967149346
  0
LINE
  5
228
100
AcDbEntity
  8
2
  6
ByLayer
 62
  256
370
   -1
100
AcDbLine
 10
469
 20
136.967149346
 11
470
 21
137.113092008
  0
LINE
  5
229
100
AcDbEntity
  8
2
  6
ByLayer
 62
  256
370
   -1
100
AcDbLine
 10
470
 20
137.113092008
 11
471
 21
137.258879494
  0
LINE
  5
22A
100
AcDbEntity
  8
2
  6
ByLayer
 62
  256
370
   -1
100
AcDbLine
 10
471
 20
137.258879494
 11
472
 21
137.404512299
  0
LINE
  5
22B
100
AcDbEntity
  8
2
  6
ByLayer
 62
  256
370
   -1
100
AcDbLine
 10
472
 20
137.404512299
 11
473
 21
137.549990912
  0
LINE
  5
22C
100
AcDbEntity
  8
2
  6
ByLayer
 62
  256
370
   -1
100
AcDbLine
 10
473
 20
137.549990912
 11
474
 21
137.695315824
  0
LINE
  5
22D
100
AcDbEntity
  8
2
  6
ByLayer
 62
  256
370
   -1
100
AcDbLine
 10
474
 20
137.695315824
 11
475
 21
137.840487521
  0
LINE
  5
22E
100
AcDbEntity
  8
2
  6
ByLayer
 62
  256
370
   -1
100
AcDbLine
 10
475
 20
137.840487521
 11
476
 21
137.985506485
  0
LINE
  5
22F
100
AcDbEntity
  8
2
  6
ByLayer
 62
  256
370
   -1
100
AcDbLine
 10
476
 20
137.985506485
 11
477
 21
138.130373199
  0
LINE
  5
230
100
AcDbEntity
  8
2
  6
ByLayer
 62
  256
370
   -1
100
AcDbLine
 10
477
 20
138.130373199
 11
478
 21
138.27508814
  0
LINE
  5
231
100
AcDbEntity
  8
2
  6
ByLayer
 62
  256
370
   -1
100
AcDbLine
 10
478
 20
138.27508814
 11
479
 21
138.419651784
  0
LINE
  5
232
100
AcDbEntity
  8
2
  6
ByLayer
 62
  256
370
   -1
100
AcDbLine
 10
479
 20
138.419651784
 11
480
 21
138.564064606
  0
LINE
  5
233
100
AcDbEntity
  8
2
  6
ByLayer
 62
  256
370
   -1
100
AcDbLine
 10
480
 20
138.564064606
 11
481
 21
138.708327075
  0
LINE
  5
234
100
AcDbEntity
  8
2
  6
ByLayer
 62
  256
370
   -1
100
AcDbLine
 10
481
 20
138.708327075
 11
482
 21
138.852439662
  0
LINE
  5
235
100
AcDbEntity
  8
2
  6
ByLayer
 62
  256
370
   -1
100
AcDbLine
 10
482
 20
138.852439662
 11
483
 21
138.996402831
  0
LINE
  5
236
100
AcDbEntity
  8
2
  6
ByLayer
 62
  256
370
   -1
100
AcDbLine
 10
483
 20
138.996402831
 11
484
 21
139.140217047
  0
LINE
  5
237
100
AcDbEntity
  8
2
  6
ByLayer
 62
  256
370
   -1
100
AcDbLine
 10
484
 20
139.140217047
 11
485
 21
139.283882772
  0
LINE
  5
238
100
AcDbEntity
  8
2
  6
ByLayer
 62
  256
370
   -1
100
AcDbLine
 10
485
 20
139.283882772
 11
486
 21
139.427400463
  0
LINE
  5
239
100
AcDbEntity
  8
2
  6
ByLayer
 62
  256
370
   -1
100
AcDbLine
 10
486
 20
139.427400463
 11
487
 21
139.570770579
  0
LINE
  5
23A
100
AcDbEntity
  8
2
  6
ByLayer
 62
  256
370
   -1
100
AcDbLine
 10
487
 20
139.570770579
 11
488
 21
139.713993573
  0
LINE
  5
23B
100
AcDbEntity
  8
2
  6
ByLayer
 62
  256
370
   -1
100
AcDbLine
 10
488
 20
139.713993573
 11
489
 21
139.857069896
  0
LINE
  5
23C
100
AcDbEntity
  8
2
  6
ByLayer
 62
  256
370
   -1
100
AcDbLine
 10
489
 20
139.857069896
 11
490
 21
140
  0
LINE
  5
23D
100
AcDbEntity
  8
2
  6
ByLayer
 62
  256
370
   -1
100
AcDbLine
 10
490
 20
140
 11
491
 21
140.142784331
  0
LINE
  5
23E
100
AcDbEntity
  8
2
  6
ByLayer
 62
  256
370
   -1
100
AcDbLine
 10
491
 20
140.142784331
 11
492
 21
140.285423334
  0
LINE
  5
23F
100
AcDbEntity
  8
2
  6
ByLayer
 62
  256
370
   -1
100
AcDbLine
 10
492
 20
140.285423334
 11
493
 21
140.427917452
  0
LINE
  5
240
100
AcDbEntity
  8
2
  6
ByLayer
 62
  256
370
   -1
100
AcDbLine
 10
493
 20
140.427917452
 11
494
 21
140.570267126
  0
LINE
  5
241
100
AcDbEntity
  8
2
  6
ByLayer
 62
  256
370
   -1
100
AcDbLine
 10
494
 20
140.570267126
 11
495
 21
140.712472795
  0
LINE
  5
242
100
AcDbEntity
  8
2
  6
ByLayer
 62
  256
370
   -1
100
AcDbLine
 10
495
 20
140.712472795
 11
496
 21
140.854534893
  0
LINE
  5
243
100
AcDbEntity
  8
2
  6
ByLayer
 62
  256
370
   -1
100
AcDbLine
 10
496
 20
140.854534893
 11
497
 21
140.996453856
  0
LINE
  5
244
100
AcDbEntity
  8
2
  6
ByLayer
 62
  256
370
   -1
100
AcDbLine
 10
497
 20
140.996453856
 11
498
 21
141.138230115
  0
LINE
  5
245
100
AcDbEntity
  8
2
  6
ByLayer
 62
  256
370
   -1
100
AcDbLine
 10
498
 20
141.138230115
 11
499
 21
141.2798641
  0
LINE
  5
246
100
AcDbEntity
  8
2
  6
ByLayer
 62
  256
370
   -1
100
AcDbLine
 10
499
 20
141.2798641
 11
500
 21
141.421356237
  0
LINE
  5
247
100
AcDbEntity
  8
2
  6
ByLayer
 62
  256
370
   -1
100
AcDbLine
 10
0
 20
0
 11
1
 21
-6.32455532034
  0
LINE
  5
248
100
AcDbEntity
  8
2
  6
ByLayer
 62
  256
370
   -1
100
AcDbLine
 10
1
 20
-6.32455532034
 11
2
 21
-8.944271909999999
  0
LINE
  5
249
100
AcDbEntity
  8
2
  6
ByLayer
 62
  256
370
   -1
100
AcDbLine
 10
2
 20
-8.944271909999999
 11
3
 21
-10.9544511501
  0
LINE
  5
24A
100
AcDbEntity
  8
2
  6
ByLayer
 62
  256
370
   -1
100
AcDbLine
 10
3
 20
-10.9544511501
 11
4
 21
-12.6491106407
  0
LINE
  5
24B
100
AcDbEntity
  8
2
  6
ByLayer
 62
  256
370
   -1
100
AcDbLine
 10
4
 20
-12.6491106407
 11
5
 21
-14.1421356237
  0
LINE
  5
24C
100
AcDbEntity
  8
2
  6
ByLayer
 62
  256
370
   -1
100
AcDbLine
 10
5
 20
-14.1421356237
 11
6
 21
-15.4919333848
  0
LINE
  5
24D
100
AcDbEntity
  8
2
  6
ByLayer
 62
  256
370
   -1
100
AcDbLine
 10
6
 20
-15.4919333848
 11
7
 21
-16.7332005307
  0
LINE
  5
24E
100
AcDbEntity
  8
2
  6
ByLayer
 62
  256
370
   -1
100
AcDbLine
 10
7
 20
-16.7332005307
 11
8
 21
-17.88854382
  0
LINE
  5
24F
100
AcDbEntity
  8
2
  6
ByLayer
 62
  256
370
   -1
100
AcDbLine
 10
8
 20
-17.88854382
 11
9
 21
-18.973665961
  0
LINE
  5
250
100
AcDbEntity
  8
2
  6
ByLayer
 62
  256
370
   -1
100
AcDbLine
 10
9
 20
-18.973665961
 11
10
 21
-20
  0
LINE
  5
251
100
AcDbEntity
  8
2
  6
ByLayer
 62
  256
370
   -1
100
AcDbLine
 10
10
 20
-20
 11
11
 21
-20.9761769634
  0
LINE
  5
252
100
AcDbEntity
  8
2
  6
ByLayer
 62
  256
370
   -1
100
AcDbLine
 10
11
 20
-20.9761769634
 11
12
 21
-21.9089023002
  0
LINE
  5
253
100
AcDbEntity
  8
2
  6
ByLayer
 62
  256
370
   -1
100
AcDbLine
 10
12
 20
-21.9089023002
 11
13
 21
-22.803508502
  0
LINE
  5
254
100
AcDbEntity
  8
2
  6
ByLayer
 62
  256
370
   -1
100
AcDbLine
 10
13
 20
-22.803508502
 11
14
 21
-23.6643191324
  0
LINE
  5
255
100
AcDbEntity
  8
2
  6
ByLayer
 62
  256
370
   -1
100
AcDbLine
 10
14
 20
-23.6643191324
 11
15
 21
-24.4948974278
  0
LINE
  5
256
100
AcDbEntity
  8
2
  6
ByLayer
 62
  256
370
   -1
100
AcDbLine
 10
15
 20
-24.4948974278
 11
16
 21
-25.2982212813
  0
LINE
  5
257
100
AcDbEntity
  8
2
  6
ByLayer
 62
  256
370
   -1
100
AcDbLine
 10
16
 20
-25.2982212813
 11
17
 21
-26.0768096208
  0
LINE
  5
258
100
AcDbEntity
  8
2
  6
ByLayer
 62
  256
370
   -1
100
AcDbLine
 10
17
 20
-26.0768096208
 11
18
 21
-26.83281573
  0
LINE
  5
259
100
AcDbEntity
  8
2
  6
ByLayer
 62
  256
370
   -1
100
AcDbLine
 10
18
 20
-26.83281573
 11
19
 21
-27.5680975042
  0
LINE
  5
25A
100
AcDbEntity
  8
2
  6
ByLayer
 62
  256
370
   -1
100
AcDbLine
 10
19
 20
-27.5680975042
 11
20
 21
-28.2842712475
  0
LINE
  5
25B
100
AcDbEntity
  8
2
  6
ByLayer
 62
  256
370
   -1
100
AcDbLine
 10
20
 20
-28.2842712475
 11
21
 21
-28.9827534924
  0
LINE
  5
25C
100
AcDbEntity
  8
2
  6
ByLayer
 62
  256
370
   -1
100
AcDbLine
 10
21
 20
-28.9827534924
 11
22
 21
-29.6647939484
  0
LINE
  5
25D
100
AcDbEntity
  8
2
  6
ByLayer
 62
  256
370
   -1
100
AcDbLine
 10
22
 20
-29.6647939484
 11
23
 21
-30.3315017762
  0
LINE
  5
25E
100
AcDbEntity
  8
2
  6
ByLayer
 62
  256
370
   -1
100
AcDbLine
 10
23
 20
-30.3315017762
 11
24
 21
-30.9838667697
  0
LINE
  5
25F
100
AcDbEntity
  8
2
  6
ByLayer
 62
  256
370
   -1
100
AcDbLine
 10
24
 20
-30.9838667697
 11
25
 21
-31.6227766017
  0
LINE
  5
260
100
AcDbEntity
  8
2
  6
ByLayer
 62
  256
370
   -1
100
AcDbLine
 10
25
 20
-31.6227766017
 11
26
 21
-32.2490309932
  0
LINE
  5
261
100
AcDbEntity
  8
2
  6
ByLayer
 62
  256
370
   -1
100
AcDbLine
 10
26
 20
-32.2490309932
 11
27
 21
-32.8633534503
  0
LINE
  5
262
100
AcDbEntity
  8
2
  6
ByLayer
 62
  256
370
   -1
100
AcDbLine
 10
27
 20
-32.8633534503
 11
28
 21
-33.4664010614
  0
LINE
  5
263
100
AcDbEntity
  8
2
  6
ByLayer
 62
  256
370
   -1
100
AcDbLine
 10
28
 20
-33.4664010614
 11
29
 21
-34.0587727319
  0
LINE
  5
264
100
AcDbEntity
  8
2
  6
ByLayer
 62
  256
370
   -1
100
AcDbLine
 10
29
 20
-34.0587727319
 11
30
 21
-34.6410161514
  0
LINE
  5
265
100
AcDbEntity
  8
2
  6
ByLayer
 62
  256
370
   -1
100
AcDbLine
 10
30
 20
-34.6410161514
 11
31
 21
-35.2136337233
  0
LINE
  5
266
100
AcDbEntity
  8
2
  6
ByLayer
 62
  256
370
   -1
100
AcDbLine
 10
31
 20
-35.2136337233
 11
32
 21
-35.77708764
  0
LINE
  5
267
100
AcDbEntity
  8
2
  6
ByLayer
 62
  256
370
   -1
100
AcDbLine
 10
32
 20
-35.77708764
 11
33
 21
-36.3318042492
  0
LINE
  5
268
100
AcDbEntity
  8
2
  6
ByLayer
 62
  256
370
   -1
100
AcDbLine
 10
33
 20
-36.3318042492
 11
34
 21
-36.8781778292
  0
LINE
  5
269
100
AcDbEntity
  8
2
  6
ByLayer
 62
  256
370
   -1
100
AcDbLine
 10
34
 20
-36.8781778292
 11
35
 21
-37.4165738677
  0
LINE
  5
26A
100
AcDbEntity
  8
2
  6
ByLayer
 62
  256
370
   -1
100
AcDbLine
 10
35
 20
-37.4165738677
 11
36
 21
-37.947331922
  0
LINE
  5
26B
100
AcDbEntity
  8
2
  6
ByLayer
 62
  256
370
   -1
100
AcDbLine
 10
36
 20
-37.947331922
 11
37
 21
-38.4707681233
  0
LINE
  5
26C
100
AcDbEntity
  8
2
  6
ByLayer
 62
  256
370
   -1
100
AcDbLine
 10
37
 20
-38.4707681233
 11
38
 21
-38.9871773792
  0
LINE
  5
26D
100
AcDbEntity
  8
2
  6
ByLayer
 62
  256
370
   -1
100
AcDbLine
 10
38
 20
-38.9871773792
 11
39
 21
-39.4968353163
  0
LINE
  5
26E
100
AcDbEntity
  8
2
  6
ByLayer
 62
  256
370
   -1
100
AcDbLine
 10
39
 20
-39.4968353163
 11
40
 21
-40
  0
LINE
  5
26F
100
AcDbEntity
  8
2
  6
ByLayer
 62
  256
370
   -1
100
AcDbLine
 10
40
 20
-40
 11
41
 21
-40.4969134626
  0
LINE
  5
270
100
AcDbEntity
  8
2
  6
ByLayer
 62
  256
370
   -1
100
AcDbLine
 10
41
 20
-40.4969134626
 11
42
 21
-40.9878030638
  0
LINE
  5
271
100
AcDbEntity
  8
2
  6
ByLayer
 62
  256
370
   -1
100
AcDbLine
 10
42
 20
-40.9878030638
 11
43
 21
-41.4728827067
  0
LINE
  5
272
100
AcDbEntity
  8
2
  6
ByLayer
 62
  256
370
   -1
100
AcDbLine
 10
43
 20
-41.4728827067
 11
44
 21
-41.9523539268
  0
LINE
  5
273
100
AcDbEntity
  8
2
  6
ByLayer
 62
  256
370
   -1
100
AcDbLine
 10
44
 20
-41.9523539268
 11
45
 21
-42.4264068712
  0
LINE
  5
274
100
AcDbEntity
  8
2
  6
ByLayer
 62
  256
370
   -1
100
AcDbLine
 10
45
 20
-42.4264068712
 11
46
 21
-42.8952211791
  0
LINE
  5
275
100
AcDbEntity
  8
2
  6
ByLayer
 62
  256
370
   -1
100
AcDbLine
 10
46
 20
-42.8952211791
 11
47
 21
-43.3589667774
  0
LINE
  5
276
100
AcDbEntity
  8
2
  6
ByLayer
 62
  256
370
   -1
100
AcDbLine
 10
47
 20
-43.3589667774
 11
48
 21
-43.8178046004
  0
LINE
  5
277
100
AcDbEntity
  8
2
  6
ByLayer
 62
  256
370
   -1
100
AcDbLine
 10
48
 20
-43.8178046004
 11
49
 21
-44.2718872424
  0
LINE
  5
278
100
AcDbEntity
  8
2
  6
ByLayer
 62
  256
370
   -1
100
AcDbLine
 10
49
 20
-44.2718872424
 11
50
 21
-44.72135955
  0
LINE
  5
279
100
AcDbEntity
  8
2
  6
ByLayer
 62
  256
370
   -1
100
AcDbLine
 10
50
 20
-44.72135955
 11
51
 21
-45.1663591625
  0
LINE
  5
27A
100
AcDbEntity
  8
2
  6
ByLayer
 62
  256
370
   -1
100
AcDbLine
 10
51
 20
-45.1663591625
 11
52
 21
-45.607017004
  0
LINE
  5
27B
100
AcDbEntity
  8
2
  6
ByLayer
 62
  256
370
   -1
100
AcDbLine
 10
52
 20
-45.607017004
 11
53
 21
-46.0434577329
  0
LINE
  5
27C
100
AcDbEntity
  8
2
  6
ByLayer
 62
  256
370
   -1
100
AcDbLine
 10
53
 20
-46.0434577329
 11
54
 21
-46.4758001545
  0
LINE
  5
27D
100
AcDbEntity
  8
2
  6
ByLayer
 62
  256
370
   -1
100
AcDbLine
 10
54
 20
-46.4758001545
 11
55
 21
-46.9041575982
  0
LINE
  5
27E
100
AcDbEntity
  8
2
  6
ByLayer
 62
  256
370
   -1
100
AcDbLine
 10
55
 20
-46.9041575982
 11
56
 21
-47.3286382648
  0
LINE
  5
27F
100
AcDbEntity
  8
2
  6
ByLayer
 62
  256
370
   -1
100
AcDbLine
 10
56
 20
-47.3286382648
 11
57
 21
-47.7493455453
  0
LINE
  5
280
100
AcDbEntity
  8
2
  6
ByLayer
 62
  256
370
   -1
100
AcDbLine
 10
57
 20
-47.7493455453
 11
58
 21
-48.1663783152
  0
LINE
  5
281
100
AcDbEntity
  8
2
  6
ByLayer
 62
  256
370
   -1
100
AcDbLine
 10
58
 20
-48.1663783152
 11
59
 21
-48.579831206
  0
LINE
  5
282
100
AcDbEntity
  8
2
  6
ByLayer
 62
  256
370
   -1
100
AcDbLine
 10
59
 20
-48.579831206
 11
60
 21
-48.9897948557
  0
LINE
  5
283
100
AcDbEntity
  8
2
  6
ByLayer
 62
  256
370
   -1
100
AcDbLine
 10
60
 20
-48.9897948557
 11
61
 21
-49.3963561409
  0
LINE
  5
284
100
AcDbEntity
  8
2
  6
ByLayer
 62
  256
370
   -1
100
AcDbLine
 10
61
 20
-49.3963561409
 11
62
 21
-49.799598392
  0
LINE
  5
285
100
AcDbEntity
  8
2
  6
ByLayer
 62
  256
370
   -1
100
AcDbLine
 10
62
 20
-49.799598392
 11
63
 21
-50.199601592
  0
LINE
  5
286
100
AcDbEntity
  8
2
  6
ByLayer
 62
  256
370
   -1
100
AcDbLine
 10
63
 20
-50.199601592
 11
64
 21
-50.5964425627
  0
LINE
  5
287
100
AcDbEntity
  8
2
  6
ByLayer
 62
  256
370
   -1
100
AcDbLine
 10
64
 20
-50.5964425627
 11
65
 21
-50.9901951359
  0
LINE
  5
288
100
AcDbEntity
  8
2
  6
ByLayer
 62
  256
370
   -1
100
AcDbLine
 10
65
 20
-50.9901951359
 11
66
 21
-51.3809303147
  0
LINE
  5
289
100
AcDbEntity
  8
2
  6
ByLayer
 62
  256
370
   -1
100
AcDbLine
 10
66
 20
-51.3809303147
 11
67
 21
-51.7687164222
  0
LINE
  5
28A
100
AcDbEntity
  8
2
  6
ByLayer
 62
  256
370
   -1
100
AcDbLine
 10
67
 20
-51.7687164222
 11
68
 21
-52.1536192416
  0
LINE
  5
28B
100
AcDbEntity
  8
2
  6
ByLayer
 62
  256
370
   -1
100
AcDbLine
 10
68
 20
-52.1536192416
 11
69
 21
-52.5357021463
  0
LINE
  5
28C
100
AcDbEntity
  8
2
  6
ByLayer
 62
  256
370
   -1
100
AcDbLine
 10
69
 20
-52.5357021463
 11
70
 21
-52.9150262213
  0
LINE
  5
28D
100
AcDbEntity
  8
2
  6
ByLayer
 62
  256
370
   -1
100
AcDbLine
 10
70
 20
-52.9150262213
 11
71
 21
-53.2916503779
  0
LINE
  5
28E
100
AcDbEntity
  8
2
  6
ByLayer
 62
  256
370
   -1
100
AcDbLine
 10
71
 20
-53.2916503779
 11
72
 21
-53.66563146
  0
LINE
  5
28F
100
AcDbEntity
  8
2
  6
ByLayer
 62
  256
370
   -1
100
AcDbLine
 10
72
 20
-53.66563146
 11
73
 21
-54.0370243444
  0
LINE
  5
290
100
AcDbEntity
  8
2
  6
ByLayer
 62
  256
370
   -1
100
AcDbLine
 10
73
 20
-54.0370243444
 11
74
 21
-54.4058820349
  0
LINE
  5
291
100
AcDbEntity
  8
2
  6
ByLayer
 62
  256
370
   -1
100
AcDbLine
 10
74
 20
-54.4058820349
 11
75
 21
-54.7722557505
  0
LINE
  5
292
100
AcDbEntity
  8
2
  6
ByLayer
 62
  256
370
   -1
100
AcDbLine
 10
75
 20
-54.7722557505
 11
76
 21
-55.1361950084
  0
LINE
  5
293
100
AcDbEntity
  8
2
  6
ByLayer
 62
  256
370
   -1
100
AcDbLine
 10
76
 20
-55.1361950084
 11
77
 21
-55.497747702
  0
LINE
  5
294
100
AcDbEntity
  8
2
  6
ByLayer
 62
  256
370
   -1
100
AcDbLine
 10
77
 20
-55.497747702
 11
78
 21
-55.8569601751
  0
LINE
  5
295
100
AcDbEntity
  8
2
  6
ByLayer
 62
  256
370
   -1
100
AcDbLine
 10
78
 20
-55.8569601751
 11
79
 21
-56.2138772902
  0
LINE
  5
296
100
AcDbEntity
  8
2
  6
ByLayer
 62
  256
370
   -1
100
AcDbLine
 10
79
 20
-56.2138772902
 11
80
 21
-56.5685424949
  0
LINE
  5
297
100
AcDbEntity
  8
2
  6
ByLayer
 62
  256
370
   -1
100
AcDbLine
 10
80
 20
-56.5685424949
 11
81
 21
-56.920997883
  0
LINE
  5
298
100
AcDbEntity
  8
2
  6
ByLayer
 62
  256
370
   -1
100
AcDbLine
 10
81
 20
-56.920997883
 11
82
 21
-57.2712842531
  0
LINE
  5
299
100
AcDbEntity
  8
2
  6
ByLayer
 62
  256
370
   -1
100
AcDbLine
 10
82
 20
-57.2712842531
 11
83
 21
-57.6194411636
  0
LINE
  5
29A
100
AcDbEntity
  8
2
  6
ByLayer
 62
  256
370
   -1
100
AcDbLine
 10
83
 20
-57.6194411636
 11
84
 21
-57.9655069848
  0
LINE
  5
29B
100
AcDbEntity
  8
2
  6
ByLayer
 62
  256
370
   -1
100
AcDbLine
 10
84
 20
-57.9655069848
 11
85
 21
-58.3095189485
  0
LINE
  5
29C
100
AcDbEntity
  8
2
  6
ByLayer
 62
  256
370
   -1
100
AcDbLine
 10
85
 20
-58.3095189485
 11
86
 21
-58.6515131945
  0
LINE
  5
29D
100
AcDbEntity
  8
2
  6
ByLayer
 62
  256
370
   -1
100
AcDbLine
 10
86
 20
-58.6515131945
 11
87
 21
-58.991524815
  0
LINE
  5
29E
100
AcDbEntity
  8
2
  6
ByLayer
 62
  256
370
   -1
100
AcDbLine
 10
87
 20
-58.991524815
 11
88
 21
-59.3295878968
  0
LINE
  5
29F
100
AcDbEntity
  8
2
  6
ByLayer
 62
  256
370
   -1
100
AcDbLine
 10
88
 20
-59.3295878968
 11
89
 21
-59.6657355607
  0
LINE
  5
2A0
100
AcDbEntity
  8
2
  6
ByLayer
 62
  256
370
   -1
100
AcDbLine
 10
89
 20
-59.6657355607
 11
90
 21
-60
  0
LINE
  5
2A1
100
AcDbEntity
  8
2
  6
ByLayer
 62
  256
370
   -1
100
AcDbLine
 10
90
 20
-60
 11
91
 21
-60.332412516
  0
LINE
  5
2A2
100
AcDbEntity
  8
2
  6
ByLayer
 62
  256
370
   -1
100
AcDbLine
 10
91
 20
-60.332412516
 11
92
 21
-60.6630035524
  0
LINE
  5
2A3
100
AcDbEntity
  8
2
  6
ByLayer
 62
  256
370
   -1
100
AcDbLine
 10
92
 20
-60.6630035524
 11
93
 21
-60.9918027279
  0
LINE
  5
2A4
100
AcDbEntity
  8
2
  6
ByLayer
 62
  256
370
   -1
100
AcDbLine
 10
93
 20
-60.9918027279
 11
94
 21
-61.318838867
  0
LINE
  5
2A5
100
AcDbEntity
  8
2
  6
ByLayer
 62
  256
370
   -1
100
AcDbLine
 10
94
 20
-61.318838867
 11
95
 21
-61.6441400297
  0
LINE
  5
2A6
100
AcDbEntity
  8
2
  6
ByLayer
 62
  256
370
   -1
100
AcDbLine
 10
95
 20
-61.6441400297
 11
96
 21
-61.9677335393
  0
LINE
  5
2A7
100
AcDbEntity
  8
2
  6
ByLayer
 62
  256
370
   -1
100
AcDbLine
 10
96
 20
-61.9677335393
 11
97
 21
-62.2896460096
  0
LINE
  5
2A8
100
AcDbEntity
  8
2
  6
ByLayer
 62
  256
370
   -1
100
AcDbLine
 10
97
 20
-62.2896460096
 11
98
 21
-62.60990337
  0
LINE
  5
2A9
100
AcDbEntity
  8
2
  6
ByLayer
 62
  256
370
   -1
100
AcDbLine
 10
98
 20
-62.60990337
 11
99
 21
-62.9285308902
  0
LINE
  5
2AA
100
AcDbEntity
  8
2
  6
ByLayer
 62
  256
370
   -1
100
AcDbLine
 10
99
 20
-62.9285308902
 11
100
 21
-63.2455532034
  0
LINE
  5
2AB
100
AcDbEntity
  8
2
  6
ByLayer
 62
  256
370
   -1
100
AcDbLine
 10
100
 20
-63.2455532034
 11
101
 21
-63.5609943283
  0
LINE
  5
2AC
100
AcDbEntity
  8
2
  6
ByLayer
 62
  256
370
   -1
100
AcDbLine
 10
101
 20
-63.5609943283
 11
102
 21
-63.8748776907
  0
LINE
  5
2AD
100
AcDbEntity
  8
2
  6
ByLayer
 62
  256
370
   -1
100
AcDbLine
 10
102
 20
-63.8748776907
 11
103
 21
-64.1872261435
  0
LINE
  5
2AE
100
AcDbEntity
  8
2
  6
ByLayer
 62
  256
370
   -1
100
AcDbLine
 10
103
 20
-64.1872261435
 11
104
 21
-64.4980619864
  0
LINE
  5
2AF
100
AcDbEntity
  8
2
  6
ByLayer
 62
  256
370
   -1
100
AcDbLine
 10
104
 20
-64.4980619864
 11
105
 21
-64.8074069841
  0
LINE
  5
2B0
100
AcDbEntity
  8
2
  6
ByLayer
 62
  256
370
   -1
100
AcDbLine
 10
105
 20
-64.8074069841
 11
106
 21
-65.1152823844
  0
LINE
  5
2B1
100
AcDbEntity
  8
2
  6
ByLayer
 62
  256
370
   -1
100
AcDbLine
 10
106
 20
-65.1152823844
 11
107
 21
-65.4217089352
  0
LINE
  5
2B2
100
AcDbEntity
  8
2
  6
ByLayer
 62
  256
370
   -1
100
AcDbLine
 10
107
 20
-65.4217089352
 11
108
 21
-65.72670690060001
  0
LINE
  5
2B3
100
AcDbEntity
  8
2
  6
ByLayer
 62
  256
370
   -1
100
AcDbLine
 10
108
 20
-65.72670690060001
 11
109
 21
-66.0302960769
  0
LINE
  5
2B4
100
AcDbEntity
  8
2
  6
ByLayer
 62
  256
370
   -1
100
AcDbLine
 10
109
 20
-66.0302960769
 11
110
 21
-66.3324958071
  0
LINE
  5
2B5
100
AcDbEntity
  8
2
  6
ByLayer
 62
  256
370
   -1
100
AcDbLine
 10
110
 20
-66.3324958071
 11
111
 21
-66.6333249958
  0
LINE
  5
2B6
100
AcDbEntity
  8
2
  6
ByLayer
 62
  256
370
   -1
100
AcDbLine
 10
111
 20
-66.6333249958
 11
112
 21
-66.9328021227
  0
LINE
  5
2B7
100
AcDbEntity
  8
2
  6
ByLayer
 62
  256
370
   -1
100
AcDbLine
 10
112
 20
-66.9328021227
 11
113
 21
-67.2309452559
  0
LINE
  5
2B8
100
AcDbEntity
  8
2
  6
ByLayer
 62
  256
370
   -1
100
AcDbLine
 10
113
 20
-67.2309452559
 11
114
 21
-67.5277720645
  0
LINE
  5
2B9
100
AcDbEntity
  8
2
  6
ByLayer
 62
  256
370
   -1
100
AcDbLine
 10
114
 20
-67.5277720645
 11
115
 21
-67.82329983130001
  0
LINE
  5
2BA
100
AcDbEntity
  8
2
  6
ByLayer
 62
  256
370
   -1
100
AcDbLine
 10
115
 20
-67.82329983130001
 11
116
 21
-68.1175454637
  0
LINE
  5
2BB
100
AcDbEntity
  8
2
  6
ByLayer
 62
  256
370
   -1
100
AcDbLine
 10
116
 20
-68.1175454637
 11
117
 21
-68.4105255059
  0
LINE
  5
2BC
100
AcDbEntity
  8
2
  6
ByLayer
 62
  256
370
   -1
100
AcDbLine
 10
117
 20
-68.4105255059
 11
118
 21
-68.7022561493
  0
LINE
  5
2BD
100
AcDbEntity
  8
2
  6
ByLayer
 62
  256
370
   -1
100
AcDbLine
 10
118
 20
-68.7022561493
 11
119
 21
-68.9927532426
  0
LINE
  5
2BE
100
AcDbEntity
  8
2
  6
ByLayer
 62
  256
370
   -1
100
AcDbLine
 10
119
 20
-68.9927532426
 11
120
 21
-69.2820323028
  0
LINE
  5
2BF
100
AcDbEntity
  8
2
  6
ByLayer
 62
  256
370
   -1
100
AcDbLine
 10
120
 20
-69.2820323028
 11
121
 21
-69.5701085237
  0
LINE
  5
2C0
100
AcDbEntity
  8
2
  6
ByLayer
 62
  256
370
   -1
100
AcDbLine
 10
121
 20
-69.5701085237
 11
122
 21
-69.8569967863
  0
LINE
  5
2C1
100
AcDbEntity
  8
2
  6
ByLayer
 62
  256
370
   -1
100
AcDbLine
 10
122
 20
-69.8569967863
 11
123
 21
-70.142711667
  0
LINE
  5
2C2
100
AcDbEntity
  8
2
  6
ByLayer
 62
  256
370
   -1
100
AcDbLine
 10
123
 20
-70.142711667
 11
124
 21
-70.4272674466
  0
LINE
  5
2C3
100
AcDbEntity
  8
2
  6
ByLayer
 62
  256
370
   -1
100
AcDbLine
 10
124
 20
-70.4272674466
 11
125
 21
-70.7106781187
  0
LINE
  5
2C4
100
AcDbEntity
  8
2
  6
ByLayer
 62
  256
370
   -1
100
AcDbLine
 10
125
 20
-70.7106781187
 11
126
 21
-70.9929573972
  0
LINE
  5
2C5
100
AcDbEntity
  8
2
  6
ByLayer
 62
  256
370
   -1
100
AcDbLine
 10
126
 20
-70.9929573972
 11
127
 21
-71.2741187248
  0
LINE
  5
2C6
100
AcDbEntity
  8
2
  6
ByLayer
 62
  256
370
   -1
100
AcDbLine
 10
127
 20
-71.2741187248
 11
128
 21
-71.55417528
  0
LINE
  5
2C7
100
AcDbEntity
  8
2
  6
ByLayer
 62
  256
370
   -1
100
AcDbLine
 10
128
 20
-71.55417528
 11
129
 21
-71.8331399843
  0
LINE
  5
2C8
100
AcDbEntity
  8
2
  6
ByLayer
 62
  256
370
   -1
100
AcDbLine
 10
129
 20
-71.8331399843
 11
130
 21
-72.11102550930001
  0
LINE
  5
2C9
100
AcDbEntity
  8
2
  6
ByLayer
 62
  256
370
   -1
100
AcDbLine
 10
130
 20
-72.11102550930001
 11
131
 21
-72.3878442834
  0
LINE
  5
2CA
100
AcDbEntity
  8
2
  6
ByLayer
 62
  256
370
   -1
100
AcDbLine
 10
131
 20
-72.3878442834
 11
132
 21
-72.66360849829999
  0
LINE
  5
2CB
100
AcDbEntity
  8
2
  6
ByLayer
 62
  256
370
   -1
100
AcDbLine
 10
132
 20
-72.66360849829999
 11
133
 21
-72.9383301152
  0
LINE
  5
2CC
100
AcDbEntity
  8
2
  6
ByLayer
 62
  256
370
   -1
100
AcDbLine
 10
133
 20
-72.9383301152
 11
134
 21
-73.21202087090001
  0
LINE
  5
2CD
100
AcDbEntity
  8
2
  6
ByLayer
 62
  256
370
   -1
100
AcDbLine
 10
134
 20
-73.21202087090001
 11
135
 21
-73.4846922835
  0
LINE
  5
2CE
100
AcDbEntity
  8
2
  6
ByLayer
 62
  256
370
   -1
100
AcDbLine
 10
135
 20
-73.4846922835
 11
136
 21
-73.7563556583
  0
LINE
  5
2CF
100
AcDbEntity
  8
2
  6
ByLayer
 62
  256
370
   -1
100
AcDbLine
 10
136
 20
-73.7563556583
 11
137
 21
-74.0270220933
  0
LINE
  5
2D0
100
AcDbEntity
  8
2
  6
ByLayer
 62
  256
370
   -1
100
AcDbLine
 10
137
 20
-74.0270220933
 11
138
 21
-74.29670248399999
  0
LINE
  5
2D1
100
AcDbEntity
  8
2
  6
ByLayer
 62
  256
370
   -1
100
AcDbLine
 10
138
 20
-74.29670248399999
 11
139
 21
-74.5654075292
  0
LINE
  5
2D2
100
AcDbEntity
  8
2
  6
ByLayer
 62
  256
370
   -1
100
AcDbLine
 10
139
 20
-74.5654075292
 11
140
 21
-74.83314773550001
  0
LINE
  5
2D3
100
AcDbEntity
  8
2
  6
ByLayer
 62
  256
370
   -1
100
AcDbLine
 10
140
 20
-74.83314773550001
 11
141
 21
-75.09993342209999
  0
LINE
  5
2D4
100
AcDbEntity
  8
2
  6
ByLayer
 62
  256
370
   -1
100
AcDbLine
 10
141
 20
-75.09993342209999
 11
142
 21
-75.36577472570001
  0
LINE
  5
2D5
100
AcDbEntity
  8
2
  6
ByLayer
 62
  256
370
   -1
100
AcDbLine
 10
142
 20
-75.36577472570001
 11
143
 21
-75.6306816048
  0
LINE
  5
2D6
100
AcDbEntity
  8
2
  6
ByLayer
 62
  256
370
   -1
100
AcDbLine
 10
143
 20
-75.6306816048
 11
144
 21
-75.89466384399999
  0
LINE
  5
2D7
100
AcDbEntity
  8
2
  6
ByLayer
 62
  256
370
   -1
100
AcDbLine
 10
144
 20
-75.89466384399999
 11
145
 21
-76.15773105860001
  0
LINE
  5
2D8
100
AcDbEntity
  8
2
  6
ByLayer
 62
  256
370
   -1
100
AcDbLine
 10
145
 20
-76.15773105860001
 11
146
 21
-76.4198926982
  0
LINE
  5
2D9
100
AcDbEntity
  8
2
  6
ByLayer
 62
  256
370
   -1
100
AcDbLine
 10
146
 20
-76.4198926982
 11
147
 21
-76.68115805070001
  0
LINE
  5
2DA
100
AcDbEntity
  8
2
  6
ByLayer
 62
  256
370
   -1
100
AcDbLine
 10
147
 20
-76.68115805070001
 11
148
 21
-76.9415362467
  0
LINE
  5
2DB
100
AcDbEntity
  8
2
  6
ByLayer
 62
  256
370
   -1
100
AcDbLine
 10
148
 20
-76.9415362467
 11
149
 21
-77.2010362625
  0
LINE
  5
2DC
100
AcDbEntity
  8
2
  6
ByLayer
 62
  256
370
   -1
100
AcDbLine
 10
149
 20
-77.2010362625
 11
150
 21
-77.45966692410001
  0
LINE
  5
2DD
100
AcDbEntity
  8
2
  6
ByLayer
 62
  256
370
   -1
100
AcDbLine
 10
150
 20
-77.45966692410001
 11
151
 21
-77.71743691090001
  0
LINE
  5
2DE
100
AcDbEntity
  8
2
  6
ByLayer
 62
  256
370
   -1
100
AcDbLine
 10
151
 20
-77.71743691090001
 11
152
 21
-77.9743547585
  0
LINE
  5
2DF
100
AcDbEntity
  8
2
  6
ByLayer
 62
  256
370
   -1
100
AcDbLine
 10
152
 20
-77.9743547585
 11
153
 21
-78.2304288624
  0
LINE
  5
2E0
100
AcDbEntity
  8
2
  6
ByLayer
 62
  256
370
   -1
100
AcDbLine
 10
153
 20
-78.2304288624
 11
154
 21
-78.4856674814
  0
LINE
  5
2E1
100
AcDbEntity
  8
2
  6
ByLayer
 62
  256
370
   -1
100
AcDbLine
 10
154
 20
-78.4856674814
 11
155
 21
-78.7400787401
  0
LINE
  5
2E2
100
AcDbEntity
  8
2
  6
ByLayer
 62
  256
370
   -1
100
AcDbLine
 10
155
 20
-78.7400787401
 11
156
 21
-78.9936706325
  0
LINE
  5
2E3
100
AcDbEntity
  8
2
  6
ByLayer
 62
  256
370
   -1
100
AcDbLine
 10
156
 20
-78.9936706325
 11
157
 21
-79.24645102460001
  0
LINE
  5
2E4
100
AcDbEntity
  8
2
  6
ByLayer
 62
  256
370
   -1
100
AcDbLine
 10
157
 20
-79.24645102460001
 11
158
 21
-79.4984276574
  0
LINE
  5
2E5
100
AcDbEntity
  8
2
  6
ByLayer
 62
  256
370
   -1
100
AcDbLine
 10
158
 20
-79.4984276574
 11
159
 21
-79.74960814950001
  0
LINE
  5
2E6
100
AcDbEntity
  8
2
  6
ByLayer
 62
  256
370
   -1
100
AcDbLine
 10
159
 20
-79.74960814950001
 11
160
 21
-80
  0
LINE
  5
2E7
100
AcDbEntity
  8
2
  6
ByLayer
 62
  256
370
   -1
100
AcDbLine
 10
160
 20
-80
 11
161
 21
-80.24961059100001
  0
LINE
  5
2E8
100
AcDbEntity
  8
2
  6
ByLayer
 62
  256
370
   -1
100
AcDbLine
 10
161
 20
-80.24961059100001
 11
162
 21
-80.49844718999999
  0
LINE
  5
2E9
100
AcDbEntity
  8
2
  6
ByLayer
 62
  256
370
   -1
100
AcDbLine
 10
162
 20
-80.49844718999999
 11
163
 21
-80.74651695270001
  0
LINE
  5
2EA
100
AcDbEntity
  8
2
  6
ByLayer
 62
  256
370
   -1
100
AcDbLine
 10
163
 20
-80.74651695270001
 11
164
 21
-80.9938269253
  0
LINE
  5
2EB
100
AcDbEntity
  8
2
  6
ByLayer
 62
  256
370
   -1
100
AcDbLine
 10
164
 20
-80.9938269253
 11
165
 21
-81.2403840464
  0
LINE
  5
2EC
100
AcDbEntity
  8
2
  6
ByLayer
 62
  256
370
   -1
100
AcDbLine
 10
165
 20
-81.2403840464
 11
166
 21
-81.4861951499
  0
LINE
  5
2ED
100
AcDbEntity
  8
2
  6
ByLayer
 62
  256
370
   -1
100
AcDbLine
 10
166
 20
-81.4861951499
 11
167
 21
-81.73126696680001
  0
LINE
  5
2EE
100
AcDbEntity
  8
2
  6
ByLayer
 62
  256
370
   -1
100
AcDbLine
 10
167
 20
-81.73126696680001
 11
168
 21
-81.9756061277
  0
LINE
  5
2EF
100
AcDbEntity
  8
2
  6
ByLayer
 62
  256
370
   -1
100
AcDbLine
 10
168
 20
-81.9756061277
 11
169
 21
-82.2192191644
  0
LINE
  5
2F0
100
AcDbEntity
  8
2
  6
ByLayer
 62
  256
370
   -1
100
AcDbLine
 10
169
 20
-82.2192191644
 11
170
 21
-82.4621125124
  0
LINE
  5
2F1
100
AcDbEntity
  8
2
  6
ByLayer
 62
  256
370
   -1
100
AcDbLine
 10
170
 20
-82.4621125124
 11
171
 21
-82.7042925125
  0
LINE
  5
2F2
100
AcDbEntity
  8
2
  6
ByLayer
 62
  256
370
   -1
100
AcDbLine
 10
171
 20
-82.7042925125
 11
172
 21
-82.94576541329999
  0
LINE
  5
2F3
100
AcDbEntity
  8
2
  6
ByLayer
 62
  256
370
   -1
100
AcDbLine
 10
172
 20
-82.94576541329999
 11
173
 21
-83.18653737229999
  0
LINE
  5
2F4
100
AcDbEntity
  8
2
  6
ByLayer
 62
  256
370
   -1
100
AcDbLine
 10
173
 20
-83.18653737229999
 11
174
 21
-83.4266144585
  0
LINE
  5
2F5
100
AcDbEntity
  8
2
  6
ByLayer
 62
  256
370
   -1
100
AcDbLine
 10
174
 20
-83.4266144585
 11
175
 21
-83.6660026534
  0
LINE
  5
2F6
100
AcDbEntity
  8
2
  6
ByLayer
 62
  256
370
   -1
100
AcDbLine
 10
175
 20
-83.6660026534
 11
176
 21
-83.9047078536
  0
LINE
  5
2F7
100
AcDbEntity
  8
2
  6
ByLayer
 62
  256
370
   -1
100
AcDbLine
 10
176
 20
-83.9047078536
 11
177
 21
-84.1427358719
  0
LINE
  5
2F8
100
AcDbEntity
  8
2
  6
ByLayer
 62
  256
370
   -1
100
AcDbLine
 10
177
 20
-84.1427358719
 11
178
 21
-84.38009243889999
  0
LINE
  5
2F9
100
AcDbEntity
  8
2
  6
ByLayer
 62
  256
370
   -1
100
AcDbLine
 10
178
 20
-84.38009243889999
 11
179
 21
-84.61678320519999
  0
LINE
  5
2FA
100
AcDbEntity
  8
2
  6
ByLayer
 62
  256
370
   -1
100
AcDbLine
 10
179
 20
-84.61678320519999
 11
180
 21
-84.8528137424
  0
LINE
  5
2FB
100
AcDbEntity
  8
2
  6
ByLayer
 62
  256
370
   -1
100
AcDbLine
 10
180
 20
-84.8528137424
 11
181
 21
-85.0881895447
  0
LINE
  5
2FC
100
AcDbEntity
  8
2
  6
ByLayer
 62
  256
370
   -1
100
AcDbLine
 10
181
 20
-85.0881895447
 11
182
 21
-85.3229160308
  0
LINE
  5
2FD
100
AcDbEntity
  8
2
  6
ByLayer
 62
  256
370
   -1
100
AcDbLine
 10
182
 20
-85.3229160308
 11
183
 21
-85.5569985448
  0
LINE
  5
2FE
100
AcDbEntity
  8
2
  6
ByLayer
 62
  256
370
   -1
100
AcDbLine
 10
183
 20
-85.5569985448
 11
184
 21
-85.79044235809999
  0
LINE
  5
2FF
100
AcDbEntity
  8
2
  6
ByLayer
 62
  256
370
   -1
100
AcDbLine
 10
184
 20
-85.79044235809999
 11
185
 21
-86.0232526704
  0
LINE
  5
300
100
AcDbEntity
  8
2
  6
ByLayer
 62
  256
370
   -1
100
AcDbLine
 10
185
 20
-86.0232526704
 11
186
 21
-86.25543461140001
  0
LINE
  5
301
100
AcDbEntity
  8
2
  6
ByLayer
 62
  256
370
   -1
100
AcDbLine
 10
186
 20
-86.25543461140001
 11
187
 21
-86.48699324179999
  0
LINE
  5
302
100
AcDbEntity
  8
2
  6
ByLayer
 62
  256
370
   -1
100
AcDbLine
 10
187
 20
-86.48699324179999
 11
188
 21
-86.7179335547
  0
LINE
  5
303
100
AcDbEntity
  8
2
  6
ByLayer
 62
  256
370
   -1
100
AcDbLine
 10
188
 20
-86.7179335547
 11
189
 21
-86.94826047710001
  0
LINE
  5
304
100
AcDbEntity
  8
2
  6
ByLayer
 62
  256
370
   -1
100
AcDbLine
 10
189
 20
-86.94826047710001
 11
190
 21
-87.1779788708
  0
LINE
  5
305
100
AcDbEntity
  8
2
  6
ByLayer
 62
  256
370
   -1
100
AcDbLine
 10
190
 20
-87.1779788708
 11
191
 21
-87.4070935336
  0
LINE
  5
306
100
AcDbEntity
  8
2
  6
ByLayer
 62
  256
370
   -1
100
AcDbLine
 10
191
 20
-87.4070935336
 11
192
 21
-87.6356092008
  0
LINE
  5
307
100
AcDbEntity
  8
2
  6
ByLayer
 62
  256
370
   -1
100
AcDbLine
 10
192
 20
-87.6356092008
 11
193
 21
-87.86353054600001
  0
LINE
  5
308
100
AcDbEntity
  8
2
  6
ByLayer
 62
  256
370
   -1
100
AcDbLine
 10
193
 20
-87.86353054600001
 11
194
 21
-88.0908621822
  0
LINE
  5
309
100
AcDbEntity
  8
2
  6
ByLayer
 62
  256
370
   -1
100
AcDbLine
 10
194
 20
-88.0908621822
 11
195
 21
-88.31760866330001
  0
LINE
  5
30A
100
AcDbEntity
  8
2
  6
ByLayer
 62
  256
370
   -1
100
AcDbLine
 10
195
 20
-88.31760866330001
 11
196
 21
-88.54377448469999
  0
LINE
  5
30B
100
AcDbEntity
  8
2
  6
ByLayer
 62
  256
370
   -1
100
AcDbLine
 10
196
 20
-88.54377448469999
 11
197
 21
-88.7693640847
  0
LINE
  5
30C
100
AcDbEntity
  8
2
  6
ByLayer
 62
  256
370
   -1
100
AcDbLine
 10
197
 20
-88.7693640847
 11
198
 21
-88.99438184509999
  0
LINE
  5
30D
100
AcDbEntity
  8
2
  6
ByLayer
 62
  256
370
   -1
100
AcDbLine
 10
198
 20
-88.99438184509999
 11
199
 21
-89.2188320928
  0
LINE
  5
30E
100
AcDbEntity
  8
2
  6
ByLayer
 62
  256
370
   -1
100
AcDbLine
 10
199
 20
-89.2188320928
 11
200
 21
-89.44271910000001
  0
LINE
  5
30F
100
AcDbEntity
  8
2
  6
ByLayer
 62
  256
370
   -1
100
AcDbLine
 10
200
 20
-89.44271910000001
 11
201
 21
-89.6660470858
  0
LINE
  5
310
100
AcDbEntity
  8
2
  6
ByLayer
 62
  256
370
   -1
100
AcDbLine
 10
201
 20
-89.6660470858
 11
202
 21
-89.888820217
  0
LINE
  5
311
100
AcDbEntity
  8
2
  6
ByLayer
 62
  256
370
   -1
100
AcDbLine
 10
202
 20
-89.888820217
 11
203
 21
-90.1110426086
  0
LINE
  5
312
100
AcDbEntity
  8
2
  6
ByLayer
 62
  256
370
   -1
100
AcDbLine
 10
203
 20
-90.1110426086
 11
204
 21
-90.3327183251
  0
LINE
  5
313
100
AcDbEntity
  8
2
  6
ByLayer
 62
  256
370
   -1
100
AcDbLine
 10
204
 20
-90.3327183251
 11
205
 21
-90.55385138139999
  0
LINE
  5
314
100
AcDbEntity
  8
2
  6
ByLayer
 62
  256
370
   -1
100
AcDbLine
 10
205
 20
-90.55385138139999
 11
206
 21
-90.77444574330001
  0
LINE
  5
315
100
AcDbEntity
  8
2
  6
ByLayer
 62
  256
370
   -1
100
AcDbLine
 10
206
 20
-90.77444574330001
 11
207
 21
-90.9945053286
  0
LINE
  5
316
100
AcDbEntity
  8
2
  6
ByLayer
 62
  256
370
   -1
100
AcDbLine
 10
207
 20
-90.9945053286
 11
208
 21
-91.2140340079
  0
LINE
  5
317
100
AcDbEntity
  8
2
  6
ByLayer
 62
  256
370
   -1
100
AcDbLine
 10
208
 20
-91.2140340079
 11
209
 21
-91.43303560530001
  0
LINE
  5
318
100
AcDbEntity
  8
2
  6
ByLayer
 62
  256
370
   -1
100
AcDbLine
 10
209
 20
-91.43303560530001
 11
210
 21
-91.6515138991
  0
LINE
  5
319
100
AcDbEntity
  8
2
  6
ByLayer
 62
  256
370
   -1
100
AcDbLine
 10
210
 20
-91.6515138991
 11
211
 21
-91.8694726228
  0
LINE
  5
31A
100
AcDbEntity
  8
2
  6
ByLayer
 62
  256
370
   -1
100
AcDbLine
 10
211
 20
-91.8694726228
 11
212
 21
-92.0869154658
  0
LINE
  5
31B
100
AcDbEntity
  8
2
  6
ByLayer
 62
  256
370
   -1
100
AcDbLine
 10
212
 20
-92.0869154658
 11
213
 21
-92.3038460737
  0
LINE
  5
31C
100
AcDbEntity
  8
2
  6
ByLayer
 62
  256
370
   -1
100
AcDbLine
 10
213
 20
-92.3038460737
 11
214
 21
-92.52026804979999
  0
LINE
  5
31D
100
AcDbEntity
  8
2
  6
ByLayer
 62
  256
370
   -1
100
AcDbLine
 10
214
 20
-92.52026804979999
 11
215
 21
-92.736184955
  0
LINE
  5
31E
100
AcDbEntity
  8
2
  6
ByLayer
 62
  256
370
   -1
100
AcDbLine
 10
215
 20
-92.736184955
 11
216
 21
-92.951600309
  0
LINE
  5
31F
100
AcDbEntity
  8
2
  6
ByLayer
 62
  256
370
   -1
100
AcDbLine
 10
216
 20
-92.951600309
 11
217
 21
-93.1665175908
  0
LINE
  5
320
100
AcDbEntity
  8
2
  6
ByLayer
 62
  256
370
   -1
100
AcDbLine
 10
217
 20
-93.1665175908
 11
218
 21
-93.3809402394
  0
LINE
  5
321
100
AcDbEntity
  8
2
  6
ByLayer
 62
  256
370
   -1
100
AcDbLine
 10
218
 20
-93.3809402394
 11
219
 21
-93.5948716544
  0
LINE
  5
322
100
AcDbEntity
  8
2
  6
ByLayer
 62
  256
370
   -1
100
AcDbLine
 10
219
 20
-93.5948716544
 11
220
 21
-93.8083151965
  0
LINE
  5
323
100
AcDbEntity
  8
2
  6
ByLayer
 62
  256
370
   -1
100
AcDbLine
 10
220
 20
-93.8083151965
 11
221
 21
-94.0212741883
  0
LINE
  5
324
100
AcDbEntity
  8
2
  6
ByLayer
 62
  256
370
   -1
100
AcDbLine
 10
221
 20
-94.0212741883
 11
222
 21
-94.2337519151
  0
LINE
  5
325
100
AcDbEntity
  8
2
  6
ByLayer
 62
  256
370
   -1
100
AcDbLine
 10
222
 20
-94.2337519151
 11
223
 21
-94.4457516249
  0
LINE
  5
326
100
AcDbEntity
  8
2
  6
ByLayer
 62
  256
370
   -1
100
AcDbLine
 10
223
 20
-94.4457516249
 11
224
 21
-94.6572765296
  0
LINE
  5
327
100
AcDbEntity
  8
2
  6
ByLayer
 62
  256
370
   -1
100
AcDbLine
 10
224
 20
-94.6572765296
 11
225
 21
-94.8683298051
  0
LINE
  5
328
100
AcDbEntity
  8
2
  6
ByLayer
 62
  256
370
   -1
100
AcDbLine
 10
225
 20
-94.8683298051
 11
226
 21
-95.078914592
  0
LINE
  5
329
100
AcDbEntity
  8
2
  6
ByLayer
 62
  256
370
   -1
100
AcDbLine
 10
226
 20
-95.078914592
 11
227
 21
-95.2890339966
  0
LINE
  5
32A
100
AcDbEntity
  8
2
  6
ByLayer
 62
  256
370
   -1
100
AcDbLine
 10
227
 20
-95.2890339966
 11
228
 21
-95.4986910905
  0
LINE
  5
32B
100
AcDbEntity
  8
2
  6
ByLayer
 62
  256
370
   -1
100
AcDbLine
 10
228
 20
-95.4986910905
 11
229
 21
-95.707888912
  0
LINE
  5
32C
100
AcDbEntity
  8
2
  6
ByLayer
 62
  256
370
   -1
100
AcDbLine
 10
229
 20
-95.707888912
 11
230
 21
-95.91663046630001
  0
LINE
  5
32D
100
AcDbEntity
  8
2
  6
ByLayer
 62
  256
370
   -1
100
AcDbLine
 10
230
 20
-95.91663046630001
 11
231
 21
-96.1249187256
  0
LINE
  5
32E
100
AcDbEntity
  8
2
  6
ByLayer
 62
  256
370
   -1
100
AcDbLine
 10
231
 20
-96.1249187256
 11
232
 21
-96.3327566303
  0
LINE
  5
32F
100
AcDbEntity
  8
2
  6
ByLayer
 62
  256
370
   -1
100
AcDbLine
 10
232
 20
-96.3327566303
 11
233
 21
-96.5401470892
  0
LINE
  5
330
100
AcDbEntity
  8
2
  6
ByLayer
 62
  256
370
   -1
100
AcDbLine
 10
233
 20
-96.5401470892
 11
234
 21
-96.7470929796
  0
LINE
  5
331
100
AcDbEntity
  8
2
  6
ByLayer
 62
  256
370
   -1
100
AcDbLine
 10
234
 20
-96.7470929796
 11
235
 21
-96.95359714830001
  0
LINE
  5
332
100
AcDbEntity
  8
2
  6
ByLayer
 62
  256
370
   -1
100
AcDbLine
 10
235
 20
-96.95359714830001
 11
236
 21
-97.1596624119
  0
LINE
  5
333
100
AcDbEntity
  8
2
  6
ByLayer
 62
  256
370
   -1
100
AcDbLine
 10
236
 20
-97.1596624119
 11
237
 21
-97.36529155709999
  0
LINE
  5
334
100
AcDbEntity
  8
2
  6
ByLayer
 62
  256
370
   -1
100
AcDbLine
 10
237
 20
-97.36529155709999
 11
238
 21
-97.57048734120001
  0
LINE
  5
335
100
AcDbEntity
  8
2
  6
ByLayer
 62
  256
370
   -1
100
AcDbLine
 10
238
 20
-97.57048734120001
 11
239
 21
-97.7752524926
  0
LINE
  5
336
100
AcDbEntity
  8
2
  6
ByLayer
 62
  256
370
   -1
100
AcDbLine
 10
239
 20
-97.7752524926
 11
240
 21
-97.97958971129999
  0
LINE
  5
337
100
AcDbEntity
  8
2
  6
ByLayer
 62
  256
370
   -1
100
AcDbLine
 10
240
 20
-97.97958971129999
 11
241
 21
-98.1835016691
  0
LINE
  5
338
100
AcDbEntity
  8
2
  6
ByLayer
 62
  256
370
   -1
100
AcDbLine
 10
241
 20
-98.1835016691
 11
242
 21
-98.38699101
  0
LINE
  5
339
100
AcDbEntity
  8
2
  6
ByLayer
 62
  256
370
   -1
100
AcDbLine
 10
242
 20
-98.38699101
 11
243
 21
-98.5900603509
  0
LINE
  5
33A
100
AcDbEntity
  8
2
  6
ByLayer
 62
  256
370
   -1
100
AcDbLine
 10
243
 20
-98.5900603509
 11
244
 21
-98.79271228179999
  0
LINE
  5
33B
100
AcDbEntity
  8
2
  6
ByLayer
 62
  256
370
   -1
100
AcDbLine
 10
244
 20
-98.79271228179999
 11
245
 21
-98.9949493661
  0
LINE
  5
33C
100
AcDbEntity
  8
2
  6
ByLayer
 62
  256
370
   -1
100
AcDbLine
 10
245
 20
-98.9949493661
 11
246
 21
-99.19677414109999
  0
LINE
  5
33D
100
AcDbEntity
  8
2
  6
ByLayer
 62
  256
370
   -1
100
AcDbLine
 10
246
 20
-99.19677414109999
 11
247
 21
-99.3981891183
  0
LINE
  5
33E
100
AcDbEntity
  8
2
  6
ByLayer
 62
  256
370
   -1
100
AcDbLine
 10
247
 20
-99.3981891183
 11
248
 21
-99.5991967839
  0
LINE
  5
33F
100
AcDbEntity
  8
2
  6
ByLayer
 62
  256
370
   -1
100
AcDbLine
 10
248
 20
-99.5991967839
 11
249
 21
-99.799799599
  0
LINE
  5
340
100
AcDbEntity
  8
2
  6
ByLayer
 62
  256
370
   -1
100
AcDbLine
 10
249
 20
-99.799799599
 11
250
 21
-100
  0
LINE
  5
341
100
AcDbEntity
  8
2
  6
ByLayer
 62
  256
370
   -1
100
AcDbLine
 10
250
 20
-100
 11
251
 21
-100.199800399
  0
LINE
  5
342
100
AcDbEntity
  8
2
  6
ByLayer
 62
  256
370
   -1
100
AcDbLine
 10
251
 20
-100.199800399
 11
252
 21
-100.399203184
  0
LINE
  5
343
100
AcDbEntity
  8
2
  6
ByLayer
 62
  256
370
   -1
100
AcDbLine
 10
252
 20
-100.399203184
 11
253
 21
-100.59821072
  0
LINE
  5
344
100
AcDbEntity
  8
2
  6
ByLayer
 62
  256
370
   -1
100
AcDbLine
 10
253
 20
-100.59821072
 11
254
 21
-100.796825347
  0
LINE
  5
345
100
AcDbEntity
  8
2
  6
ByLayer
 62
  256
370
   -1
100
AcDbLine
 10
254
 20
-100.796825347
 11
255
 21
-100.995049384
  0
LINE
  5
346
100
AcDbEntity
  8
2
  6
ByLayer
 62
  256
370
   -1
100
AcDbLine
 10
255
 20
-100.995049384
 11
256
 21
-101.192885125
  0
LINE
  5
347
100
AcDbEntity
  8
2
  6
ByLayer
 62
  256
370
   -1
100
AcDbLine
 10
256
 20
-101.192885125
 11
257
 21
-101.390334845
  0
LINE
  5
348
100
AcDbEntity
  8
2
  6
ByLayer
 62
  256
370
   -1
100
AcDbLine
 10
257
 20
-101.390334845
 11
258
 21
-101.587400794
  0
LINE
  5
349
100
AcDbEntity
  8
2
  6
ByLayer
 62
  256
370
   -1
100
AcDbLine
 10
258
 20
-101.587400794
 11
259
 21
-101.7840852
  0
LINE
  5
34A
100
AcDbEntity
  8
2
  6
ByLayer
 62
  256
370
   -1
100
AcDbLine
 10
259
 20
-101.7840852
 11
260
 21
-101.980390272
  0
LINE
  5
34B
100
AcDbEntity
  8
2
  6
ByLayer
 62
  256
370
   -1
100
AcDbLine
 10
260
 20
-101.980390272
 11
261
 21
-102.176318196
  0
LINE
  5
34C
100
AcDbEntity
  8
2
  6
ByLayer
 62
  256
370
   -1
100
AcDbLine
 10
261
 20
-102.176318196
 11
262
 21
-102.371871137
  0
LINE
  5
34D
100
AcDbEntity
  8
2
  6
ByLayer
 62
  256
370
   -1
100
AcDbLine
 10
262
 20
-102.371871137
 11
263
 21
-102.56705124
  0
LINE
  5
34E
100
AcDbEntity
  8
2
  6
ByLayer
 62
  256
370
   -1
100
AcDbLine
 10
263
 20
-102.56705124
 11
264
 21
-102.761860629
  0
LINE
  5
34F
100
AcDbEntity
  8
2
  6
ByLayer
 62
  256
370
   -1
100
AcDbLine
 10
264
 20
-102.761860629
 11
265
 21
-102.95630141
  0
LINE
  5
350
100
AcDbEntity
  8
2
  6
ByLayer
 62
  256
370
   -1
100
AcDbLine
 10
265
 20
-102.95630141
 11
266
 21
-103.150375666
  0
LINE
  5
351
100
AcDbEntity
  8
2
  6
ByLayer
 62
  256
370
   -1
100
AcDbLine
 10
266
 20
-103.150375666
 11
267
 21
-103.344085462
  0
LINE
  5
352
100
AcDbEntity
  8
2
  6
ByLayer
 62
  256
370
   -1
100
AcDbLine
 10
267
 20
-103.344085462
 11
268
 21
-103.537432844
  0
LINE
  5
353
100
AcDbEntity
  8
2
  6
ByLayer
 62
  256
370
   -1
100
AcDbLine
 10
268
 20
-103.537432844
 11
269
 21
-103.730419839
  0
LINE
  5
354
100
AcDbEntity
  8
2
  6
ByLayer
 62
  256
370
   -1
100
AcDbLine
 10
269
 20
-103.730419839
 11
270
 21
-103.923048454
  0
LINE
  5
355
100
AcDbEntity
  8
2
  6
ByLayer
 62
  256
370
   -1
100
AcDbLine
 10
270
 20
-103.923048454
 11
271
 21
-104.115320679
  0
LINE
  5
356
100
AcDbEntity
  8
2
  6
ByLayer
 62
  256
370
   -1
100
AcDbLine
 10
271
 20
-104.115320679
 11
272
 21
-104.307238483
  0
LINE
  5
357
100
AcDbEntity
  8
2
  6
ByLayer
 62
  256
370
   -1
100
AcDbLine
 10
272
 20
-104.307238483
 11
273
 21
-104.498803821
  0
LINE
  5
358
100
AcDbEntity
  8
2
  6
ByLayer
 62
  256
370
   -1
100
AcDbLine
 10
273
 20
-104.498803821
 11
274
 21
-104.690018626
  0
LINE
  5
359
100
AcDbEntity
  8
2
  6
ByLayer
 62
  256
370
   -1
100
AcDbLine
 10
274
 20
-104.690018626
 11
275
 21
-104.880884817
  0
LINE
  5
35A
100
AcDbEntity
  8
2
  6
ByLayer
 62
  256
370
   -1
100
AcDbLine
 10
275
 20
-104.880884817
 11
276
 21
-105.071404293
  0
LINE
  5
35B
100
AcDbEntity
  8
2
  6
ByLayer
 62
  256
370
   -1
100
AcDbLine
 10
276
 20
-105.071404293
 11
277
 21
-105.261578936
  0
LINE
  5
35C
100
AcDbEntity
  8
2
  6
ByLayer
 62
  256
370
   -1
100
AcDbLine
 10
277
 20
-105.261578936
 11
278
 21
-105.451410612
  0
LINE
  5
35D
100
AcDbEntity
  8
2
  6
ByLayer
 62
  256
370
   -1
100
AcDbLine
 10
278
 20
-105.451410612
 11
279
 21
-105.64090117
  0
LINE
  5
35E
100
AcDbEntity
  8
2
  6
ByLayer
 62
  256
370
   -1
100
AcDbLine
 10
279
 20
-105.64090117
 11
280
 21
-105.830052443
  0
LINE
  5
35F
100
AcDbEntity
  8
2
  6
ByLayer
 62
  256
370
   -1
100
AcDbLine
 10
280
 20
-105.830052443
 11
281
 21
-106.018866246
  0
LINE
  5
360
100
AcDbEntity
  8
2
  6
ByLayer
 62
  256
370
   -1
100
AcDbLine
 10
281
 20
-106.018866246
 11
282
 21
-106.207344379
  0
LINE
  5
361
100
AcDbEntity
  8
2
  6
ByLayer
 62
  256
370
   -1
100
AcDbLine
 10
282
 20
-106.207344379
 11
283
 21
-106.395488626
  0
LINE
  5
362
100
AcDbEntity
  8
2
  6
ByLayer
 62
  256
370
   -1
100
AcDbLine
 10
283
 20
-106.395488626
 11
284
 21
-106.583300756
  0
LINE
  5
363
100
AcDbEntity
  8
2
  6
ByLayer
 62
  256
370
   -1
100
AcDbLine
 10
284
 20
-106.583300756
 11
285
 21
-106.77078252
  0
LINE
  5
364
100
AcDbEntity
  8
2
  6
ByLayer
 62
  256
370
   -1
100
AcDbLine
 10
285
 20
-106.77078252
 11
286
 21
-106.957935657
  0
LINE
  5
365
100
AcDbEntity
  8
2
  6
ByLayer
 62
  256
370
   -1
100
AcDbLine
 10
286
 20
-106.957935657
 11
287
 21
-107.144761888
  0
LINE
  5
366
100
AcDbEntity
  8
2
  6
ByLayer
 62
  256
370
   -1
100
AcDbLine
 10
287
 20
-107.144761888
 11
288
 21
-107.33126292
  0
LINE
  5
367
100
AcDbEntity
  8
2
  6
ByLayer
 62
  256
370
   -1
100
AcDbLine
 10
288
 20
-107.33126292
 11
289
 21
-107.517440446
  0
LINE
  5
368
100
AcDbEntity
  8
2
  6
ByLayer
 62
  256
370
   -1
100
AcDbLine
 10
289
 20
-107.517440446
 11
290
 21
-107.703296143
  0
LINE
  5
369
100
AcDbEntity
  8
2
  6
ByLayer
 62
  256
370
   -1
100
AcDbLine
 10
290
 20
-107.703296143
 11
291
 21
-107.888831674
  0
LINE
  5
36A
100
AcDbEntity
  8
2
  6
ByLayer
 62
  256
370
   -1
100
AcDbLine
 10
291
 20
-107.888831674
 11
292
 21
-108.074048689
  0
LINE
  5
36B
100
AcDbEntity
  8
2
  6
ByLayer
 62
  256
370
   -1
100
AcDbLine
 10
292
 20
-108.074048689
 11
293
 21
-108.258948822
  0
LINE
  5
36C
100
AcDbEntity
  8
2
  6
ByLayer
 62
  256
370
   -1
100
AcDbLine
 10
293
 20
-108.258948822
 11
294
 21
-108.443533694
  0
LINE
  5
36D
100
AcDbEntity
  8
2
  6
ByLayer
 62
  256
370
   -1
100
AcDbLine
 10
294
 20
-108.443533694
 11
295
 21
-108.627804912
  0
LINE
  5
36E
100
AcDbEntity
  8
2
  6
ByLayer
 62
  256
370
   -1
100
AcDbLine
 10
295
 20
-108.627804912
 11
296
 21
-108.81176407
  0
LINE
  5
36F
100
AcDbEntity
  8
2
  6
ByLayer
 62
  256
370
   -1
100
AcDbLine
 10
296
 20
-108.81176407
 11
297
 21
-108.995412748
  0
LINE
  5
370
100
AcDbEntity
  8
2
  6
ByLayer
 62
  256
370
   -1
100
AcDbLine
 10
297
 20
-108.995412748
 11
298
 21
-109.178752512
  0
LINE
  5
371
100
AcDbEntity
  8
2
  6
ByLayer
 62
  256
370
   -1
100
AcDbLine
 10
298
 20
-109.178752512
 11
299
 21
-109.361784916
  0
LINE
  5
372
100
AcDbEntity
  8
2
  6
ByLayer
 62
  256
370
   -1
100
AcDbLine
 10
299
 20
-109.361784916
 11
300
 21
-109.544511501
  0
LINE
  5
373
100
AcDbEntity
  8
2
  6
ByLayer
 62
  256
370
   -1
100
AcDbLine
 10
300
 20
-109.544511501
 11
301
 21
-109.726933795
  0
LINE
  5
374
100
AcDbEntity
  8
2
  6
ByLayer
 62
  256
370
   -1
100
AcDbLine
 10
301
 20
-109.726933795
 11
302
 21
-109.909053312
  0
LINE
  5
375
100
AcDbEntity
  8
2
  6
ByLayer
 62
  256
370
   -1
100
AcDbLine
 10
302
 20
-109.909053312
 11
303
 21
-110.090871556
  0
LINE
  5
376
100
AcDbEntity
  8
2
  6
ByLayer
 62
  256
370
   -1
100
AcDbLine
 10
303
 20
-110.090871556
 11
304
 21
-110.272390017
  0
LINE
  5
377
100
AcDbEntity
  8
2
  6
ByLayer
 62
  256
370
   -1
100
AcDbLine
 10
304
 20
-110.272390017
 11
305
 21
-110.453610172
  0
LINE
  5
378
100
AcDbEntity
  8
2
  6
ByLayer
 62
  256
370
   -1
100
AcDbLine
 10
305
 20
-110.453610172
 11
306
 21
-110.634533488
  0
LINE
  5
379
100
AcDbEntity
  8
2
  6
ByLayer
 62
  256
370
   -1
100
AcDbLine
 10
306
 20
-110.634533488
 11
307
 21
-110.815161418
  0
LINE
  5
37A
100
AcDbEntity
  8
2
  6
ByLayer
 62
  256
370
   -1
100
AcDbLine
 10
307
 20
-110.815161418
 11
308
 21
-110.995495404
  0
LINE
  5
37B
100
AcDbEntity
  8
2
  6
ByLayer
 62
  256
370
   -1
100
AcDbLine
 10
308
 20
-110.995495404
 11
309
 21
-111.175536877
  0
LINE
  5
37C
100
AcDbEntity
  8
2
  6
ByLayer
 62
  256
370
   -1
100
AcDbLine
 10
309
 20
-111.175536877
 11
310
 21
-111.355287257
  0
LINE
  5
37D
100
AcDbEntity
  8
2
  6
ByLayer
 62
  256
370
   -1
100
AcDbLine
 10
310
 20
-111.355287257
 11
311
 21
-111.534747949
  0
LINE
  5
37E
100
AcDbEntity
  8
2
  6
ByLayer
 62
  256
370
   -1
100
AcDbLine
 10
311
 20
-111.534747949
 11
312
 21
-111.71392035
  0
LINE
  5
37F
100
AcDbEntity
  8
2
  6
ByLayer
 62
  256
370
   -1
100
AcDbLine
 10
312
 20
-111.71392035
 11
313
 21
-111.892805846
  0
LINE
  5
380
100
AcDbEntity
  8
2
  6
ByLayer
 62
  256
370
   -1
100
AcDbLine
 10
313
 20
-111.892805846
 11
314
 21
-112.071405809
  0
LINE
  5
381
100
AcDbEntity
  8
2
  6
ByLayer
 62
  256
370
   -1
100
AcDbLine
 10
314
 20
-112.071405809
 11
315
 21
-112.249721603
  0
LINE
  5
382
100
AcDbEntity
  8
2
  6
ByLayer
 62
  256
370
   -1
100
AcDbLine
 10
315
 20
-112.249721603
 11
316
 21
-112.42775458
  0
LINE
  5
383
100
AcDbEntity
  8
2
  6
ByLayer
 62
  256
370
   -1
100
AcDbLine
 10
316
 20
-112.42775458
 11
317
 21
-112.605506082
  0
LINE
  5
384
100
AcDbEntity
  8
2
  6
ByLayer
 62
  256
370
   -1
100
AcDbLine
 10
317
 20
-112.605506082
 11
318
 21
-112.782977439
  0
LINE
  5
385
100
AcDbEntity
  8
2
  6
ByLayer
 62
  256
370
   -1
100
AcDbLine
 10
318
 20
-112.782977439
 11
319
 21
-112.960169972
  0
LINE
  5
386
100
AcDbEntity
  8
2
  6
ByLayer
 62
  256
370
   -1
100
AcDbLine
 10
319
 20
-112.960169972
 11
320
 21
-113.13708499
  0
LINE
  5
387
100
AcDbEntity
  8
2
  6
ByLayer
 62
  256
370
   -1
100
AcDbLine
 10
320
 20
-113.13708499
 11
321
 21
-113.313723794
  0
LINE
  5
388
100
AcDbEntity
  8
2
  6
ByLayer
 62
  256
370
   -1
100
AcDbLine
 10
321
 20
-113.313723794
 11
322
 21
-113.490087673
  0
LINE
  5
389
100
AcDbEntity
  8
2
  6
ByLayer
 62
  256
370
   -1
100
AcDbLine
 10
322
 20
-113.490087673
 11
323
 21
-113.666177907
  0
LINE
  5
38A
100
AcDbEntity
  8
2
  6
ByLayer
 62
  256
370
   -1
100
AcDbLine
 10
323
 20
-113.666177907
 11
324
 21
-113.841995766
  0
LINE
  5
38B
100
AcDbEntity
  8
2
  6
ByLayer
 62
  256
370
   -1
100
AcDbLine
 10
324
 20
-113.841995766
 11
325
 21
-114.01754251
  0
LINE
  5
38C
100
AcDbEntity
  8
2
  6
ByLayer
 62
  256
370
   -1
100
AcDbLine
 10
325
 20
-114.01754251
 11
326
 21
-114.192819389
  0
LINE
  5
38D
100
AcDbEntity
  8
2
  6
ByLayer
 62
  256
370
   -1
100
AcDbLine
 10
326
 20
-114.192819389
 11
327
 21
-114.367827644
  0
LINE
  5
38E
100
AcDbEntity
  8
2
  6
ByLayer
 62
  256
370
   -1
100
AcDbLine
 10
327
 20
-114.367827644
 11
328
 21
-114.542568506
  0
LINE
  5
38F
100
AcDbEntity
  8
2
  6
ByLayer
 62
  256
370
   -1
100
AcDbLine
 10
328
 20
-114.542568506
 11
329
 21
-114.717043198
  0
LINE
  5
390
100
AcDbEntity
  8
2
  6
ByLayer
 62
  256
370
   -1
100
AcDbLine
 10
329
 20
-114.717043198
 11
330
 21
-114.891252931
  0
LINE
  5
391
100
AcDbEntity
  8
2
  6
ByLayer
 62
  256
370
   -1
100
AcDbLine
 10
330
 20
-114.891252931
 11
331
 21
-115.065198909
  0
LINE
  5
392
100
AcDbEntity
  8
2
  6
ByLayer
 62
  256
370
   -1
100
AcDbLine
 10
331
 20
-115.065198909
 11
332
 21
-115.238882327
  0
LINE
  5
393
100
AcDbEntity
  8
2
  6
ByLayer
 62
  256
370
   -1
100
AcDbLine
 10
332
 20
-115.238882327
 11
333
 21
-115.41230437
  0
LINE
  5
394
100
AcDbEntity
  8
2
  6
ByLayer
 62
  256
370
   -1
100
AcDbLine
 10
333
 20
-115.41230437
 11
334
 21
-115.585466214
  0
LINE
  5
395
100
AcDbEntity
  8
2
  6
ByLayer
 62
  256
370
   -1
100
AcDbLine
 10
334
 20
-115.585466214
 11
335
 21
-115.758369028
  0
LINE
  5
396
100
AcDbEntity
  8
2
  6
ByLayer
 62
  256
370
   -1
100
AcDbLine
 10
335
 20
-115.758369028
 11
336
 21
-115.93101397
  0
LINE
  5
397
100
AcDbEntity
  8
2
  6
ByLayer
 62
  256
370
   -1
100
AcDbLine
 10
336
 20
-115.93101397
 11
337
 21
-116.10340219
  0
LINE
  5
398
100
AcDbEntity
  8
2
  6
ByLayer
 62
  256
370
   -1
100
AcDbLine
 10
337
 20
-116.10340219
 11
338
 21
-116.27553483
  0
LINE
  5
399
100
AcDbEntity
  8
2
  6
ByLayer
 62
  256
370
   -1
100
AcDbLine
 10
338
 20
-116.27553483
 11
339
 21
-116.447413024
  0
LINE
  5
39A
100
AcDbEntity
  8
2
  6
ByLayer
 62
  256
370
   -1
100
AcDbLine
 10
339
 20
-116.447413024
 11
340
 21
-116.619037897
  0
LINE
  5
39B
100
AcDbEntity
  8
2
  6
ByLayer
 62
  256
370
   -1
100
AcDbLine
 10
340
 20
-116.619037897
 11
341
 21
-116.790410565
  0
LINE
  5
39C
100
AcDbEntity
  8
2
  6
ByLayer
 62
  256
370
   -1
100
AcDbLine
 10
341
 20
-116.790410565
 11
342
 21
-116.961532138
  0
LINE
  5
39D
100
AcDbEntity
  8
2
  6
ByLayer
 62
  256
370
   -1
100
AcDbLine
 10
342
 20
-116.961532138
 11
343
 21
-117.132403715
  0
LINE
  5
39E
100
AcDbEntity
  8
2
  6
ByLayer
 62
  256
370
   -1
100
AcDbLine
 10
343
 20
-117.132403715
 11
344
 21
-117.303026389
  0
LINE
  5
39F
100
AcDbEntity
  8
2
  6
ByLayer
 62
  256
370
   -1
100
AcDbLine
 10
344
 20
-117.303026389
 11
345
 21
-117.473401245
  0
LINE
  5
3A0
100
AcDbEntity
  8
2
  6
ByLayer
 62
  256
370
   -1
100
AcDbLine
 10
345
 20
-117.473401245
 11
346
 21
-117.643529359
  0
LINE
  5
3A1
100
AcDbEntity
  8
2
  6
ByLayer
 62
  256
370
   -1
100
AcDbLine
 10
346
 20
-117.643529359
 11
347
 21
-117.8134118
  0
LINE
  5
3A2
100
AcDbEntity
  8
2
  6
ByLayer
 62
  256
370
   -1
100
AcDbLine
 10
347
 20
-117.8134118
 11
348
 21
-117.98304963
  0
LINE
  5
3A3
100
AcDbEntity
  8
2
  6
ByLayer
 62
  256
370
   -1
100
AcDbLine
 10
348
 20
-117.98304963
 11
349
 21
-118.152443902
  0
LINE
  5
3A4
100
AcDbEntity
  8
2
  6
ByLayer
 62
  256
370
   -1
100
AcDbLine
 10
349
 20
-118.152443902
 11
350
 21
-118.321595662
  0
LINE
  5
3A5
100
AcDbEntity
  8
2
  6
ByLayer
 62
  256
370
   -1
100
AcDbLine
 10
350
 20
-118.321595662
 11
351
 21
-118.490505949
  0
LINE
  5
3A6
100
AcDbEntity
  8
2
  6
ByLayer
 62
  256
370
   -1
100
AcDbLine
 10
351
 20
-118.490505949
 11
352
 21
-118.659175794
  0
LINE
  5
3A7
100
AcDbEntity
  8
2
  6
ByLayer
 62
  256
370
   -1
100
AcDbLine
 10
352
 20
-118.659175794
 11
353
 21
-118.82760622
  0
LINE
  5
3A8
100
AcDbEntity
  8
2
  6
ByLayer
 62
  256
370
   -1
100
AcDbLine
 10
353
 20
-118.82760622
 11
354
 21
-118.995798245
  0
LINE
  5
3A9
100
AcDbEntity
  8
2
  6
ByLayer
 62
  256
370
   -1
100
AcDbLine
 10
354
 20
-118.995798245
 11
355
 21
-119.163752878
  0
LINE
  5
3AA
100
AcDbEntity
  8
2
  6
ByLayer
 62
  256
370
   -1
100
AcDbLine
 10
355
 20
-119.163752878
 11
356
 21
-119.331471121
  0
LINE
  5
3AB
100
AcDbEntity
  8
2
  6
ByLayer
 62
  256
370
   -1
100
AcDbLine
 10
356
 20
-119.331471121
 11
357
 21
-119.49895397
  0
LINE
  5
3AC
100
AcDbEntity
  8
2
  6
ByLayer
 62
  256
370
   -1
100
AcDbLine
 10
357
 20
-119.49895397
 11
358
 21
-119.666202413
  0
LINE
  5
3AD
100
AcDbEntity
  8
2
  6
ByLayer
 62
  256
370
   -1
100
AcDbLine
 10
358
 20
-119.666202413
 11
359
 21
-119.833217432
  0
LINE
  5
3AE
100
AcDbEntity
  8
2
  6
ByLayer
 62
  256
370
   -1
100
AcDbLine
 10
359
 20
-119.833217432
 11
360
 21
-120
  0
LINE
  5
3AF
100
AcDbEntity
  8
2
  6
ByLayer
 62
  256
370
   -1
100
AcDbLine
 10
360
 20
-120
 11
361
 21
-120.166551086
  0
LINE
  5
3B0
100
AcDbEntity
  8
2
  6
ByLayer
 62
  256
370
   -1
100
AcDbLine
 10
361
 20
-120.166551086
 11
362
 21
-120.332871652
  0
LINE
  5
3B1
100
AcDbEntity
  8
2
  6
ByLayer
 62
  256
370
   -1
100
AcDbLine
 10
362
 20
-120.332871652
 11
363
 21
-120.498962651
  0
LINE
  5
3B2
100
AcDbEntity
  8
2
  6
ByLayer
 62
  256
370
   -1
100
AcDbLine
 10
363
 20
-120.498962651
 11
364
 21
-120.664825032
  0
LINE
  5
3B3
100
AcDbEntity
  8
2
  6
ByLayer
 62
  256
370
   -1
100
AcDbLine
 10
364
 20
-120.664825032
 11
365
 21
-120.830459736
  0
LINE
  5
3B4
100
AcDbEntity
  8
2
  6
ByLayer
 62
  256
370
   -1
100
AcDbLine
 10
365
 20
-120.830459736
 11
366
 21
-120.995867698
  0
LINE
  5
3B5
100
AcDbEntity
  8
2
  6
ByLayer
 62
  256
370
   -1
100
AcDbLine
 10
366
 20
-120.995867698
 11
367
 21
-121.161049847
  0
LINE
  5
3B6
100
AcDbEntity
  8
2
  6
ByLayer
 62
  256
370
   -1
100
AcDbLine
 10
367
 20
-121.161049847
 11
368
 21
-121.326007105
  0
LINE
  5
3B7
100
AcDbEntity
  8
2
  6
ByLayer
 62
  256
370
   -1
100
AcDbLine
 10
368
 20
-121.326007105
 11
369
 21
-121.490740388
  0
LINE
  5
3B8
100
AcDbEntity
  8
2
  6
ByLayer
 62
  256
370
   -1
100
AcDbLine
 10
369
 20
-121.490740388
 11
370
 21
-121.655250606
  0
LINE
  5
3B9
100
AcDbEntity
  8
2
  6
ByLayer
 62
  256
370
   -1
100
AcDbLine
 10
370
 20
-121.655250606
 11
371
 21
-121.819538663
  0
LINE
  5
3BA
100
AcDbEntity
  8
2
  6
ByLayer
 62
  256
370
   -1
100
AcDbLine
 10
371
 20
-121.819538663
 11
372
 21
-121.983605456
  0
LINE
  5
3BB
100
AcDbEntity
  8
2
  6
ByLayer
 62
  256
370
   -1
100
AcDbLine
 10
372
 20
-121.983605456
 11
373
 21
-122.147451877
  0
LINE
  5
3BC
100
AcDbEntity
  8
2
  6
ByLayer
 62
  256
370
   -1
100
AcDbLine
 10
373
 20
-122.147451877
 11
374
 21
-122.311078811
  0
LINE
  5
3BD
100
AcDbEntity
  8
2
  6
ByLayer
 62
  256
370
   -1
100
AcDbLine
 10
374
 20
-122.311078811
 11
375
 21
-122.474487139
  0
LINE
  5
3BE
100
AcDbEntity
  8
2
  6
ByLayer
 62
  256
370
   -1
100
AcDbLine
 10
375
 20
-122.474487139
 11
376
 21
-122.637677734
  0
LINE
  5
3BF
100
AcDbEntity
  8
2
  6
ByLayer
 62
  256
370
   -1
100
AcDbLine
 10
376
 20
-122.637677734
 11
377
 21
-122.800651464
  0
LINE
  5
3C0
100
AcDbEntity
  8
2
  6
ByLayer
 62
  256
370
   -1
100
AcDbLine
 10
377
 20
-122.800651464
 11
378
 21
-122.963409192
  0
LINE
  5
3C1
100
AcDbEntity
  8
2
  6
ByLayer
 62
  256
370
   -1
100
AcDbLine
 10
378
 20
-122.963409192
 11
379
 21
-123.125951773
  0
LINE
  5
3C2
100
AcDbEntity
  8
2
  6
ByLayer
 62
  256
370
   -1
100
AcDbLine
 10
379
 20
-123.125951773
 11
380
 21
-123.288280059
  0
LINE
  5
3C3
100
AcDbEntity
  8
2
  6
ByLayer
 62
  256
370
   -1
100
AcDbLine
 10
380
 20
-123.288280059
 11
381
 21
-123.450394896
  0
LINE
  5
3C4
100
AcDbEntity
  8
2
  6
ByLayer
 62
  256
370
   -1
100
AcDbLine
 10
381
 20
-123.450394896
 11
382
 21
-123.612297123
  0
LINE
  5
3C5
100
AcDbEntity
  8
2
  6
ByLayer
 62
  256
370
   -1
100
AcDbLine
 10
382
 20
-123.612297123
 11
383
 21
-123.773987574
  0
LINE
  5
3C6
100
AcDbEntity
  8
2
  6
ByLayer
 62
  256
370
   -1
100
AcDbLine
 10
383
 20
-123.773987574
 11
384
 21
-123.935467079
  0
LINE
  5
3C7
100
AcDbEntity
  8
2
  6
ByLayer
 62
  256
370
   -1
100
AcDbLine
 10
384
 20
-123.935467079
 11
385
 21
-124.09673646
  0
LINE
  5
3C8
100
AcDbEntity
  8
2
  6
ByLayer
 62
  256
370
   -1
100
AcDbLine
 10
385
 20
-124.09673646
 11
386
 21
-124.257796536
  0
LINE
  5
3C9
100
AcDbEntity
  8
2
  6
ByLayer
 62
  256
370
   -1
100
AcDbLine
 10
386
 20
-124.257796536
 11
387
 21
-124.41864812
  0
LINE
  5
3CA
100
AcDbEntity
  8
2
  6
ByLayer
 62
  256
370
   -1
100
AcDbLine
 10
387
 20
-124.41864812
 11
388
 21
-124.579292019
  0
LINE
  5
3CB
100
AcDbEntity
  8
2
  6
ByLayer
 62
  256
370
   -1
100
AcDbLine
 10
388
 20
-124.579292019
 11
389
 21
-124.739729036
  0
LINE
  5
3CC
100
AcDbEntity
  8
2
  6
ByLayer
 62
  256
370
   -1
100
AcDbLine
 10
389
 20
-124.739729036
 11
390
 21
-124.899959968
  0
LINE
  5
3CD
100
AcDbEntity
  8
2
  6
ByLayer
 62
  256
370
   -1
100
AcDbLine
 10
390
 20
-124.899959968
 11
391
 21
-125.059985607
  0
LINE
  5
3CE
100
AcDbEntity
  8
2
  6
ByLayer
 62
  256
370
   -1
100
AcDbLine
 10
391
 20
-125.059985607
 11
392
 21
-125.21980674
  0
LINE
  5
3CF
100
AcDbEntity
  8
2
  6
ByLayer
 62
  256
370
   -1
100
AcDbLine
 10
392
 20
-125.21980674
 11
393
 21
-125.379424149
  0
LINE
  5
3D0
100
AcDbEntity
  8
2
  6
ByLayer
 62
  256
370
   -1
100
AcDbLine
 10
393
 20
-125.379424149
 11
394
 21
-125.538838612
  0
LINE
  5
3D1
100
AcDbEntity
  8
2
  6
ByLayer
 62
  256
370
   -1
100
AcDbLine
 10
394
 20
-125.538838612
 11
395
 21
-125.6980509
  0
LINE
  5
3D2
100
AcDbEntity
  8
2
  6
ByLayer
 62
  256
370
   -1
100
AcDbLine
 10
395
 20
-125.6980509
 11
396
 21
-125.85706178
  0
LINE
  5
3D3
100
AcDbEntity
  8
2
  6
ByLayer
 62
  256
370
   -1
100
AcDbLine
 10
396
 20
-125.85706178
 11
397
 21
-126.015872016
  0
LINE
  5
3D4
100
AcDbEntity
  8
2
  6
ByLayer
 62
  256
370
   -1
100
AcDbLine
 10
397
 20
-126.015872016
 11
398
 21
-126.174482365
  0
LINE
  5
3D5
100
AcDbEntity
  8
2
  6
ByLayer
 62
  256
370
   -1
100
AcDbLine
 10
398
 20
-126.174482365
 11
399
 21
-126.332893579
  0
LINE
  5
3D6
100
AcDbEntity
  8
2
  6
ByLayer
 62
  256
370
   -1
100
AcDbLine
 10
399
 20
-126.332893579
 11
400
 21
-126.491106407
  0
LINE
  5
3D7
100
AcDbEntity
  8
2
  6
ByLayer
 62
  256
370
   -1
100
AcDbLine
 10
400
 20
-126.491106407
 11
401
 21
-126.649121592
  0
LINE
  5
3D8
100
AcDbEntity
  8
2
  6
ByLayer
 62
  256
370
   -1
100
AcDbLine
 10
401
 20
-126.649121592
 11
402
 21
-126.806939873
  0
LINE
  5
3D9
100
AcDbEntity
  8
2
  6
ByLayer
 62
  256
370
   -1
100
AcDbLine
 10
402
 20
-126.806939873
 11
403
 21
-126.964561985
  0
LINE
  5
3DA
100
AcDbEntity
  8
2
  6
ByLayer
 62
  256
370
   -1
100
AcDbLine
 10
403
 20
-126.964561985
 11
404
 21
-127.121988657
  0
LINE
  5
3DB
100
AcDbEntity
  8
2
  6
ByLayer
 62
  256
370
   -1
100
AcDbLine
 10
404
 20
-127.121988657
 11
405
 21
-127.279220614
  0
LINE
  5
3DC
100
AcDbEntity
  8
2
  6
ByLayer
 62
  256
370
   -1
100
AcDbLine
 10
405
 20
-127.279220614
 11
406
 21
-127.436258577
  0
LINE
  5
3DD
100
AcDbEntity
  8
2
  6
ByLayer
 62
  256
370
   -1
100
AcDbLine
 10
406
 20
-127.436258577
 11
407
 21
-127.593103262
  0
LINE
  5
3DE
100
AcDbEntity
  8
2
  6
ByLayer
 62
  256
370
   -1
100
AcDbLine
 10
407
 20
-127.593103262
 11
408
 21
-127.749755381
  0
LINE
  5
3DF
100
AcDbEntity
  8
2
  6
ByLayer
 62
  256
370
   -1
100
AcDbLine
 10
408
 20
-127.749755381
 11
409
 21
-127.906215643
  0
LINE
  5
3E0
100
AcDbEntity
  8
2
  6
ByLayer
 62
  256
370
   -1
100
AcDbLine
 10
409
 20
-127.906215643
 11
410
 21
-128.062484749
  0
LINE
  5
3E1
100
AcDbEntity
  8
2
  6
ByLayer
 62
  256
370
   -1
100
AcDbLine
 10
410
 20
-128.062484749
 11
411
 21
-128.218563399
  0
LINE
  5
3E2
100
AcDbEntity
  8
2
  6
ByLayer
 62
  256
370
   -1
100
AcDbLine
 10
411
 20
-128.218563399
 11
412
 21
-128.374452287
  0
LINE
  5
3E3
100
AcDbEntity
  8
2
  6
ByLayer
 62
  256
370
   -1
100
AcDbLine
 10
412
 20
-128.374452287
 11
413
 21
-128.530152104
  0
LINE
  5
3E4
100
AcDbEntity
  8
2
  6
ByLayer
 62
  256
370
   -1
100
AcDbLine
 10
413
 20
-128.530152104
 11
414
 21
-128.685663537
  0
LINE
  5
3E5
100
AcDbEntity
  8
2
  6
ByLayer
 62
  256
370
   -1
100
AcDbLine
 10
414
 20
-128.685663537
 11
415
 21
-128.840987267
  0
LINE
  5
3E6
100
AcDbEntity
  8
2
  6
ByLayer
 62
  256
370
   -1
100
AcDbLine
 10
415
 20
-128.840987267
 11
416
 21
-128.996123973
  0
LINE
  5
3E7
100
AcDbEntity
  8
2
  6
ByLayer
 62
  256
370
   -1
100
AcDbLine
 10
416
 20
-128.996123973
 11
417
 21
-129.151074328
  0
LINE
  5
3E8
100
AcDbEntity
  8
2
  6
ByLayer
 62
  256
370
   -1
100
AcDbLine
 10
417
 20
-129.151074328
 11
418
 21
-129.305839002
  0
LINE
  5
3E9
100
AcDbEntity
  8
2
  6
ByLayer
 62
  256
370
   -1
100
AcDbLine
 10
418
 20
-129.305839002
 11
419
 21
-129.460418661
  0
LINE
  5
3EA
100
AcDbEntity
  8
2
  6
ByLayer
 62
  256
370
   -1
100
AcDbLine
 10
419
 20
-129.460418661
 11
420
 21
-129.614813968
  0
LINE
  5
3EB
100
AcDbEntity
  8
2
  6
ByLayer
 62
  256
370
   -1
100
AcDbLine
 10
420
 20
-129.614813968
 11
421
 21
-129.76902558
  0
LINE
  5
3EC
100
AcDbEntity
  8
2
  6
ByLayer
 62
  256
370
   -1
100
AcDbLine
 10
421
 20
-129.76902558
 11
422
 21
-129.923054151
  0
LINE
  5
3ED
100
AcDbEntity
  8
2
  6
ByLayer
 62
  256
370
   -1
100
AcDbLine
 10
422
 20
-129.923054151
 11
423
 21
-130.076900332
  0
LINE
  5
3EE
100
AcDbEntity
  8
2
  6
ByLayer
 62
  256
370
   -1
100
AcDbLine
 10
423
 20
-130.076900332
 11
424
 21
-130.230564769
  0
LINE
  5
3EF
100
AcDbEntity
  8
2
  6
ByLayer
 62
  256
370
   -1
100
AcDbLine
 10
424
 20
-130.230564769
 11
425
 21
-130.384048104
  0
LINE
  5
3F0
100
AcDbEntity
  8
2
  6
ByLayer
 62
  256
370
   -1
100
AcDbLine
 10
425
 20
-130.384048104
 11
426
 21
-130.537350977
  0
LINE
  5
3F1
100
AcDbEntity
  8
2
  6
ByLayer
 62
  256
370
   -1
100
AcDbLine
 10
426
 20
-130.537350977
 11
427
 21
-130.690474022
  0
LINE
  5
3F2
100
AcDbEntity
  8
2
  6
ByLayer
 62
  256
370
   -1
100
AcDbLine
 10
427
 20
-130.690474022
 11
428
 21
-130.84341787
  0
LINE
  5
3F3
100
AcDbEntity
  8
2
  6
ByLayer
 62
  256
370
   -1
100
AcDbLine
 10
428
 20
-130.84341787
 11
429
 21
-130.996183151
  0
LINE
  5
3F4
100
AcDbEntity
  8
2
  6
ByLayer
 62
  256
370
   -1
100
AcDbLine
 10
429
 20
-130.996183151
 11
430
 21
-131.148770486
  0
LINE
  5
3F5
100
AcDbEntity
  8
2
  6
ByLayer
 62
  256
370
   -1
100
AcDbLine
 10
430
 20
-131.148770486
 11
431
 21
-131.301180497
  0
LINE
  5
3F6
100
AcDbEntity
  8
2
  6
ByLayer
 62
  256
370
   -1
100
AcDbLine
 10
431
 20
-131.301180497
 11
432
 21
-131.453413801
  0
LINE
  5
3F7
100
AcDbEntity
  8
2
  6
ByLayer
 62
  256
370
   -1
100
AcDbLine
 10
432
 20
-131.453413801
 11
433
 21
-131.605471011
  0
LINE
  5
3F8
100
AcDbEntity
  8
2
  6
ByLayer
 62
  256
370
   -1
100
AcDbLine
 10
433
 20
-131.605471011
 11
434
 21
-131.757352736
  0
LINE
  5
3F9
100
AcDbEntity
  8
2
  6
ByLayer
 62
  256
370
   -1
100
AcDbLine
 10
434
 20
-131.757352736
 11
435
 21
-131.909059583
  0
LINE
  5
3FA
100
AcDbEntity
  8
2
  6
ByLayer
 62
  256
370
   -1
100
AcDbLine
 10
435
 20
-131.909059583
 11
436
 21
-132.060592154
  0
LINE
  5
3FB
100
AcDbEntity
  8
2
  6
ByLayer
 62
  256
370
   -1
100
AcDbLine
 10
436
 20
-132.060592154
 11
437
 21
-132.211951048
  0
LINE
  5
3FC
100
AcDbEntity
  8
2
  6
ByLayer
 62
  256
370
   -1
100
AcDbLine
 10
437
 20
-132.211951048
 11
438
 21
-132.363136862
  0
LINE
  5
3FD
100
AcDbEntity
  8
2
  6
ByLayer
 62
  256
370
   -1
100
AcDbLine
 10
438
 20
-132.363136862
 11
439
 21
-132.514150188
  0
LINE
  5
3FE
100
AcDbEntity
  8
2
  6
ByLayer
 62
  256
370
   -1
100
AcDbLine
 10
439
 20
-132.514150188
 11
440
 21
-132.664991614
  0
LINE
  5
3FF
100
AcDbEntity
  8
2
  6
ByLayer
 62
  256
370
   -1
100
AcDbLine
 10
440
 20
-132.664991614
 11
441
 21
-132.815661727
  0
LINE
  5
400
100
AcDbEntity
  8
2
  6
ByLayer
 62
  256
370
   -1
100
AcDbLine
 10
441
 20
-132.815661727
 11
442
 21
-132.966161109
  0
LINE
  5
401
100
AcDbEntity
  8
2
  6
ByLayer
 62
  256
370
   -1
100
AcDbLine
 10
442
 20
-132.966161109
 11
443
 21
-133.116490338
  0
LINE
  5
402
100
AcDbEntity
  8
2
  6
ByLayer
 62
  256
370
   -1
100
AcDbLine
 10
443
 20
-133.116490338
 11
444
 21
-133.266649992
  0
LINE
  5
403
100
AcDbEntity
  8
2
  6
ByLayer
 62
  256
370
   -1
100
AcDbLine
 10
444
 20
-133.266649992
 11
445
 21
-133.416640641
  0
LINE
  5
404
100
AcDbEntity
  8
2
  6
ByLayer
 62
  256
370
   -1
100
AcDbLine
 10
445
 20
-133.416640641
 11
446
 21
-133.566462857
  0
LINE
  5
405
100
AcDbEntity
  8
2
  6
ByLayer
 62
  256
370
   -1
100
AcDbLine
 10
446
 20
-133.566462857
 11
447
 21
-133.716117204
  0
LINE
  5
406
100
AcDbEntity
  8
2
  6
ByLayer
 62
  256
370
   -1
100
AcDbLine
 10
447
 20
-133.716117204
 11
448
 21
-133.865604245
  0
LINE
  5
407
100
AcDbEntity
  8
2
  6
ByLayer
 62
  256
370
   -1
100
AcDbLine
 10
448
 20
-133.865604245
 11
449
 21
-134.014924542
  0
LINE
  5
408
100
AcDbEntity
  8
2
  6
ByLayer
 62
  256
370
   -1
100
AcDbLine
 10
449
 20
-134.014924542
 11
450
 21
-134.16407865
  0
LINE
  5
409
100
AcDbEntity
  8
2
  6
ByLayer
 62
  256
370
   -1
100
AcDbLine
 10
450
 20
-134.16407865
 11
451
 21
-134.313067123
  0
LINE
  5
40A
100
AcDbEntity
  8
2
  6
ByLayer
 62
  256
370
   -1
100
AcDbLine
 10
451
 20
-134.313067123
 11
452
 21
-134.461890512
  0
LINE
  5
40B
100
AcDbEntity
  8
2
  6
ByLayer
 62
  256
370
   -1
100
AcDbLine
 10
452
 20
-134.461890512
 11
453
 21
-134.610549364
  0
LINE
  5
40C
100
AcDbEntity
  8
2
  6
ByLayer
 62
  256
370
   -1
100
AcDbLine
 10
453
 20
-134.610549364
 11
454
 21
-134.759044223
  0
LINE
  5
40D
100
AcDbEntity
  8
2
  6
ByLayer
 62
  256
370
   -1
100
AcDbLine
 10
454
 20
-134.759044223
 11
455
 21
-134.907375632
  0
LINE
  5
40E
100
AcDbEntity
  8
2
  6
ByLayer
 62
  256
370
   -1
100
AcDbLine
 10
455
 20
-134.907375632
 11
456
 21
-135.055544129
  0
LINE
  5
40F
100
AcDbEntity
  8
2
  6
ByLayer
 62
  256
370
   -1
100
AcDbLine
 10
456
 20
-135.055544129
 11
457
 21
-135.203550249
  0
LINE
  5
410
100
AcDbEntity
  8
2
  6
ByLayer
 62
  256
370
   -1
100
AcDbLine
 10
457
 20
-135.203550249
 11
458
 21
-135.351394526
  0
LINE
  5
411
100
AcDbEntity
  8
2
  6
ByLayer
 62
  256
370
   -1
100
AcDbLine
 10
458
 20
-135.351394526
 11
459
 21
-135.499077488
  0
LINE
  5
412
100
AcDbEntity
  8
2
  6
ByLayer
 62
  256
370
   -1
100
AcDbLine
 10
459
 20
-135.499077488
 11
460
 21
-135.646599663
  0
LINE
  5
413
100
AcDbEntity
  8
2
  6
ByLayer
 62
  256
370
   -1
100
AcDbLine
 10
460
 20
-135.646599663
 11
461
 21
-135.793961574
  0
LINE
  5
414
100
AcDbEntity
  8
2
  6
ByLayer
 62
  256
370
   -1
100
AcDbLine
 10
461
 20
-135.793961574
 11
462
 21
-135.941163744
  0
LINE
  5
415
100
AcDbEntity
  8
2
  6
ByLayer
 62
  256
370
   -1
100
AcDbLine
 10
462
 20
-135.941163744
 11
463
 21
-136.08820669
  0
LINE
  5
416
100
AcDbEntity
  8
2
  6
ByLayer
 62
  256
370
   -1
100
AcDbLine
 10
463
 20
-136.08820669
 11
464
 21
-136.235090927
  0
LINE
  5
417
100
AcDbEntity
  8
2
  6
ByLayer
 62
  256
370
   -1
100
AcDbLine
 10
464
 20
-136.235090927
 11
465
 21
-136.38181697
  0
LINE
  5
418
100
AcDbEntity
  8
2
  6
ByLayer
 62
  256
370
   -1
100
AcDbLine
 10
465
 20
-136.38181697
 11
466
 21
-136.528385327
  0
LINE
  5
419
100
AcDbEntity
  8
2
  6
ByLayer
 62
  256
370
   -1
100
AcDbLine
 10
466
 20
-136.528385327
 11
467
 21
-136.674796506
  0
LINE
  5
41A
100
AcDbEntity
  8
2
  6
ByLayer
 62
  256
370
   -1
100
AcDbLine
 10
467
 20
-136.674796506
 11
468
 21
-136.821051012
  0
LINE
  5
41B
100
AcDbEntity
  8
2
  6
ByLayer
 62
  256
370
   -1
100
AcDbLine
 10
468
 20
-136.821051012
 11
469
 21
-136.967149346
  0
LINE
  5
41C
100
AcDbEntity
  8
2
  6
ByLayer
 62
  256
370
   -1
100
AcDbLine
 10
469
 20
-136.967149346
 11
470
 21
-137.113092008
  0
LINE
  5
41D
100
AcDbEntity
  8
2
  6
ByLayer
 62
  256
370
   -1
100
AcDbLine
 10
470
 20
-137.113092008
 11
471
 21
-137.258879494
  0
LINE
  5
41E
100
AcDbEntity
  8
2
  6
ByLayer
 62
  256
370
   -1
100
AcDbLine
 10
471
 20
-137.258879494
 11
472
 21
-137.404512299
  0
LINE
  5
41F
100
AcDbEntity
  8
2
  6
ByLayer
 62
  256
370
   -1
100
AcDbLine
 10
472
 20
-137.404512299
 11
473
 21
-137.549990912
  0
LINE
  5
420
100
AcDbEntity
  8
2
  6
ByLayer
 62
  256
370
   -1
100
AcDbLine
 10
473
 20
-137.549990912
 11
474
 21
-137.695315824
  0
LINE
  5
421
100
AcDbEntity
  8
2
  6
ByLayer
 62
  256
370
   -1
100
AcDbLine
 10
474
 20
-137.695315824
 11
475
 21
-137.840487521
  0
LINE
  5
422
100
AcDbEntity
  8
2
  6
ByLayer
 62
  256
370
   -1
100
AcDbLine
 10
475
 20
-137.840487521
 11
476
 21
-137.985506485
  0
LINE
  5
423
100
AcDbEntity
  8
2
  6
ByLayer
 62
  256
370
   -1
100
AcDbLine
 10
476
 20
-137.985506485
 11
477
 21
-138.130373199
  0
LINE
  5
424
100
AcDbEntity
  8
2
  6
ByLayer
 62
  256
370
   -1
100
AcDbLine
 10
477
 20
-138.130373199
 11
478
 21
-138.27508814
  0
LINE
  5
425
100
AcDbEntity
  8
2
  6
ByLayer
 62
  256
370
   -1
100
AcDbLine
 10
478
 20
-138.27508814
 11
479
 21
-138.419651784
  0
LINE
  5
426
100
AcDbEntity
  8
2
  6
ByLayer
 62
  256
370
   -1
100
AcDbLine
 10
479
 20
-138.419651784
 11
480
 21
-138.564064606
  0
LINE
  5
427
100
AcDbEntity
  8
2
  6
ByLayer
 62
  256
370
   -1
100
AcDbLine
 10
480
 20
-138.564064606
 11
481
 21
-138.708327075
  0
LINE
  5
428
100
AcDbEntity
  8
2
  6
ByLayer
 62
  256
370
   -1
100
AcDbLine
 10
481
 20
-138.708327075
 11
482
 21
-138.852439662
  0
LINE
  5
429
100
AcDbEntity
  8
2
  6
ByLayer
 62
  256
370
   -1
100
AcDbLine
 10
482
 20
-138.852439662
 11
483
 21
-138.996402831
  0
LINE
  5
42A
100
AcDbEntity
  8
2
  6
ByLayer
 62
  256
370
   -1
100
AcDbLine
 10
483
 20
-138.996402831
 11
484
 21
-139.140217047
  0
LINE
  5
42B
100
AcDbEntity
  8
2
  6
ByLayer
 62
  256
370
   -1
100
AcDbLine
 10
484
 20
-139.140217047
 11
485
 21
-139.283882772
  0
LINE
  5
42C
100
AcDbEntity
  8
2
  6
ByLayer
 62
  256
370
   -1
100
AcDbLine
 10
485
 20
-139.283882772
 11
486
 21
-139.427400463
  0
LINE
  5
42D
100
AcDbEntity
  8
2
  6
ByLayer
 62
  256
370
   -1
100
AcDbLine
 10
486
 20
-139.427400463
 11
487
 21
-139.570770579
  0
LINE
  5
42E
100
AcDbEntity
  8
2
  6
ByLayer
 62
  256
370
   -1
100
AcDbLine
 10
487
 20
-139.570770579
 11
488
 21
-139.713993573
  0
LINE
  5
42F
100
AcDbEntity
  8
2
  6
ByLayer
 62
  256
370
   -1
100
AcDbLine
 10
488
 20
-139.713993573
 11
489
 21
-139.857069896
  0
LINE
  5
430
100
AcDbEntity
  8
2
  6
ByLayer
 62
  256
370
   -1
100
AcDbLine
 10
489
 20
-139.857069896
 11
490
 21
-140
  0
LINE
  5
431
100
AcDbEntity
  8
2
  6
ByLayer
 62
  256
370
   -1
100
AcDbLine
 10
490
 20
-140
 11
491
 21
-140.142784331
  0
LINE
  5
432
100
AcDbEntity
  8
2
  6
ByLayer
 62
  256
370
   -1
100
AcDbLine
 10
491
 20
-140.142784331
 11
492
 21
-140.285423334
  0
LINE
  5
433
100
AcDbEntity
  8
2
  6
ByLayer
 62
  256
370
   -1
100
AcDbLine
 10
492
 20
-140.285423334
 11
493
 21
-140.427917452
  0
LINE
  5
434
100
AcDbEntity
  8
2
  6
ByLayer
 62
  256
370
   -1
100
AcDbLine
 10
493
 20
-140.427917452
 11
494
 21
-140.570267126
  0
LINE
  5
435
100
AcDbEntity
  8
2
  6
ByLayer
 62
  256
370
   -1
100
AcDbLine
 10
494
 20
-140.570267126
 11
495
 21
-140.712472795
  0
LINE
  5
436
100
AcDbEntity
  8
2
  6
ByLayer
 62
  256
370
   -1
100
AcDbLine
 10
495
 20
-140.712472795
 11
496
 21
-140.854534893
  0
LINE
  5
437
100
AcDbEntity
  8
2
  6
ByLayer
 62
  256
370
   -1
100
AcDbLine
 10
496
 20
-140.854534893
 11
497
 21
-140.996453856
  0
LINE
  5
438
100
AcDbEntity
  8
2
  6
ByLayer
 62
  256
370
   -1
100
AcDbLine
 10
497
 20
-140.996453856
 11
498
 21
-141.138230115
  0
LINE
  5
439
100
AcDbEntity
  8
2
  6
ByLayer
 62
  256
370
   -1
100
AcDbLine
 10
498
 20
-141.138230115
 11
499
 21
-141.2798641
  0
LINE
  5
43A
100
AcDbEntity
  8
2
  6
ByLayer
 62
  256
370
   -1
100
AcDbLine
 10
499
 20
-141.2798641
 11
500
 21
-141.421356237
  0
MTEXT
  5
43B
100
AcDbEntity
  8
2
  6
ByLayer
 62
  256
370
   -1
100
AcDbMText
 10
250
 20
-15
 30
0
 40
10
 41
0
 71
    8
 72
    5
  1

  7
iso
210
0
220
0
230
1
 50
0
 73
    1
 44
0.96
  0
MTEXT
  5
43C
100
AcDbEntity
  8
2
  6
ByLayer
 62
  256
370
   -1
100
AcDbMText
 10
250
 20
-156.4213562370006
 30
0
 40
10
 41
103.0555555555569
 71
    8
 72
    5
  1
Parabolic Curve
  7
iso
210
0
220
0
230
1
 50
0
 73
    1
 44
0.96
  0
ENDSEC
  0
SECTION
  2
OBJECTS
  0
DICTIONARY
  5
C
330
0
100
AcDbDictionary
281
    1
  3
ACAD_GROUP
350
D
  0
DICTIONARY
  5
D
330
C
100
AcDbDictionary
281
    1
  0
ENDSEC
  0
EOF
