999
last saved by ezdxf 0.8.2 on 2017-07-18 17:12:37
  0
SECTION
  2
HEADER
  9
$ACADVER
  1
AC1024
  9
$ACADMAINTVER
 70
6
  9
$DWGCODEPAGE
  3
ANSI_1252
  9
$LASTSAVEDBY
  1
unknown
  9
$INSBASE
 10
0.0
 20
0.0
 30
0.0
  9
$EXTMIN
 10
1e+20
 20
1e+20
 30
1e+20
  9
$EXTMAX
 10
-1e+20
 20
-1e+20
 30
-1e+20
  9
$LIMMIN
 10
0.0
 20
0.0
  9
$LIMMAX
 10
12.0
 20
9.0
  9
$ORTHOMODE
 70
0
  9
$REGENMODE
 70
1
  9
$FILLMODE
 70
1
  9
$QTEXTMODE
 70
0
  9
$MIRRTEXT
 70
0
  9
$LTSCALE
 40
1.0
  9
$ATTMODE
 70
1
  9
$TEXTSIZE
 40
0.2
  9
$TRACEWID
 40
0.05
  9
$TEXTSTYLE
  7
Notes
  9
$CLAYER
  8
0
  9
$CELTYPE
  6
ByLayer
  9
$CECOLOR
 62
256
  9
$CELTSCALE
 40
1.0
  9
$DISPSILH
 70
0
  9
$DIMSCALE
 40
1.0
  9
$DIMASZ
 40
3.0
  9
$DIMEXO
 40
1.5
  9
$DIMDLI
 40
6.0
  9
$DIMRND
 40
0.0
  9
$DIMDLE
 40
0.0
  9
$DIMEXE
 40
3.0
  9
$DIMTP
 40
0.0
  9
$DIMTM
 40
0.0
  9
$DIMTXT
 40
3.0
  9
$DIMCEN
 40
3.0
  9
$DIMTSZ
 40
0.0
  9
$DIMTOL
 70
0
  9
$DIMLIM
 70
0
  9
$DIMTIH
 70
0
  9
$DIMTOH
 70
0
  9
$DIMSE1
 70
0
  9
$DIMSE2
 70
0
  9
$DIMTAD
 70
1
  9
$DIMZIN
 70
3
  9
$DIMBLK
  1

  9
$DIMASO
 70
1
  9
$DIMSHO
 70
1
  9
$DIMPOST
  1

  9
$DIMAPOST
  1

  9
$DIMALT
 70
0
  9
$DIMALTD
 70
2
  9
$DIMALTF
 40
25.4
  9
$DIMLFAC
 40
1.0
  9
$DIMTOFL
 70
0
  9
$DIMTVP
 40
0.0
  9
$DIMTIX
 70
0
  9
$DIMSOXD
 70
0
  9
$DIMSAH
 70
0
  9
$DIMBLK1
  1

  9
$DIMBLK2
  1

  9
$DIMSTYLE
  2
Civil-Metric
  9
$DIMCLRD
 70
0
  9
$DIMCLRE
 70
0
  9
$DIMCLRT
 70
0
  9
$DIMTFAC
 40
1.0
  9
$DIMGAP
 40
2.0
  9
$DIMJUST
 70
0
  9
$DIMSD1
 70
0
  9
$DIMSD2
 70
0
  9
$DIMTOLJ
 70
1
  9
$DIMTZIN
 70
0
  9
$DIMALTZ
 70
0
  9
$DIMALTTZ
 70
0
  9
$DIMUPT
 70
0
  9
$DIMDEC
 70
2
  9
$DIMTDEC
 70
2
  9
$DIMALTU
 70
2
  9
$DIMALTTD
 70
2
  9
$DIMTXSTY
  7
Standard
  9
$DIMAUNIT
 70
0
  9
$DIMADEC
 70
2
  9
$DIMALTRND
 40
0.0
  9
$DIMAZIN
 70
2
  9
$DIMDSEP
 70
46
  9
$DIMATFIT
 70
3
  9
$DIMFRAC
 70
1
  9
$DIMLDRBLK
  1

  9
$DIMLUNIT
 70
2
  9
$DIMLWD
 70
-2
  9
$DIMLWE
 70
-2
  9
$DIMTMOVE
 70
0
  9
$DIMFXL
 40
1.0
  9
$DIMFXLON
 70
0
  9
$DIMJOGANG
 40
0.785398163397
  9
$DIMTFILL
 70
0
  9
$DIMTFILLCLR
 70
0
  9
$DIMARCSYM
 70
0
  9
$DIMLTYPE
  6

  9
$DIMLTEX1
  6

  9
$DIMLTEX2
  6

  9
$DIMTXTDIRECTION
 70
0
  9
$LUNITS
 70
2
  9
$LUPREC
 70
4
  9
$SKETCHINC
 40
0.1
  9
$FILLETRAD
 40
0.0
  9
$AUNITS
 70
4
  9
$AUPREC
 70
5
  9
$MENU
  1
.
  9
$ELEVATION
 40
0.0
  9
$PELEVATION
 40
0.0
  9
$THICKNESS
 40
0.0
  9
$LIMCHECK
 70
0
  9
$CHAMFERA
 40
0.0
  9
$CHAMFERB
 40
0.0
  9
$CHAMFERC
 40
0.0
  9
$CHAMFERD
 40
0.0
  9
$SKPOLY
 70
0
  9
$TDCREATE
 40
2457953.71708
  9
$TDUPDATE
 40
2457953.71709
  9
$TDINDWG
 40
0.0
  9
$TDUSRTIMER
 40
0.0
  9
$USRTIMER
 70
1
  9
$ANGBASE
 50
0.0
  9
$ANGDIR
 70
0
  9
$PDMODE
 70
0
  9
$PDSIZE
 40
0.0
  9
$PLINEWID
 40
0.0
  9
$SPLFRAME
 70
0
  9
$SPLINETYPE
 70
6
  9
$SPLINESEGS
 70
8
  9
$HANDSEED
  5
53D
  9
$SURFTAB1
 70
6
  9
$SURFTAB2
 70
6
  9
$SURFTYPE
 70
6
  9
$SURFU
 70
6
  9
$SURFV
 70
6
  9
$UCSBASE
  2

  9
$UCSNAME
  2

  9
$UCSORG
 10
0.0
 20
0.0
 30
0.0
  9
$UCSXDIR
 10
1.0
 20
0.0
 30
0.0
  9
$UCSYDIR
 10
0.0
 20
1.0
 30
0.0
  9
$UCSORTHOREF
  2

  9
$UCSORTHOVIEW
 70
0
  9
$UCSORGTOP
 10
0.0
 20
0.0
 30
0.0
  9
$UCSORGBOTTOM
 10
0.0
 20
0.0
 30
0.0
  9
$UCSORGLEFT
 10
0.0
 20
0.0
 30
0.0
  9
$UCSORGRIGHT
 10
0.0
 20
0.0
 30
0.0
  9
$UCSORGFRONT
 10
0.0
 20
0.0
 30
0.0
  9
$UCSORGBACK
 10
0.0
 20
0.0
 30
0.0
  9
$PUCSBASE
  2

  9
$PUCSNAME
  2

  9
$PUCSORG
 10
0.0
 20
0.0
 30
0.0
  9
$PUCSXDIR
 10
1.0
 20
0.0
 30
0.0
  9
$PUCSYDIR
 10
0.0
 20
1.0
 30
0.0
  9
$PUCSORTHOREF
  2

  9
$PUCSORTHOVIEW
 70
0
  9
$PUCSORGTOP
 10
0.0
 20
0.0
 30
0.0
  9
$PUCSORGBOTTOM
 10
0.0
 20
0.0
 30
0.0
  9
$PUCSORGLEFT
 10
0.0
 20
0.0
 30
0.0
  9
$PUCSORGRIGHT
 10
0.0
 20
0.0
 30
0.0
  9
$PUCSORGFRONT
 10
0.0
 20
0.0
 30
0.0
  9
$PUCSORGBACK
 10
0.0
 20
0.0
 30
0.0
  9
$USERI1
 70
0
  9
$USERI2
 70
0
  9
$USERI3
 70
0
  9
$USERI4
 70
0
  9
$USERI5
 70
0
  9
$USERR1
 40
0.0
  9
$USERR2
 40
0.0
  9
$USERR3
 40
0.0
  9
$USERR4
 40
0.0
  9
$USERR5
 40
0.0
  9
$WORLDVIEW
 70
1
  9
$SHADEDGE
 70
3
  9
$SHADEDIF
 70
70
  9
$TILEMODE
 70
1
  9
$MAXACTVP
 70
64
  9
$PINSBASE
 10
0.0
 20
0.0
 30
0.0
  9
$PLIMCHECK
 70
0
  9
$PEXTMIN
 10
0.628866766397
 20
0.799999952316
 30
0.0
  9
$PEXTMAX
 10
9.02886638493
 20
7.19999957085
 30
0.0
  9
$PLIMMIN
 10
-0.700541819174
 20
-0.228100386192
  9
$PLIMMAX
 10
10.2994579405
 20
8.27189937351
  9
$UNITMODE
 70
0
  9
$VISRETAIN
 70
1
  9
$PLINEGEN
 70
0
  9
$PSLTSCALE
 70
1
  9
$TREEDEPTH
 70
3020
  9
$CMLSTYLE
  2
Standard
  9
$CMLJUST
 70
0
  9
$CMLSCALE
 40
1.0
  9
$PROXYGRAPHICS
 70
1
  9
$MEASUREMENT
 70
1
  9
$CELWEIGHT
370
-1
  9
$ENDCAPS
280
0
  9
$JOINSTYLE
280
0
  9
$LWDISPLAY
290
0
  9
$INSUNITS
 70
4
  9
$HYPERLINKBASE
  1

  9
$STYLESHEET
  1

  9
$XEDIT
290
1
  9
$CEPSNTYPE
380
0
  9
$PSTYLEMODE
290
1
  9
$FINGERPRINTGUID
  2
{39DB1BDD-BC6C-46D3-A333-DFCC0DC4782D}
  9
$VERSIONGUID
  2
{69EEBB2D-7039-498F-9366-3F994E4A07E7}
  9
$EXTNAMES
290
1
  9
$PSVPSCALE
 40
0.0
  9
$OLESTARTUP
290
0
  9
$SORTENTS
280
127
  9
$INDEXCTL
280
0
  9
$HIDETEXT
280
1
  9
$XCLIPFRAME
280
0
  9
$HALOGAP
280
0
  9
$OBSCOLOR
 70
257
  9
$OBSLTYPE
280
0
  9
$INTERSECTIONDISPLAY
280
0
  9
$INTERSECTIONCOLOR
 70
257
  9
$DIMASSOC
280
2
  9
$PROJECTNAME
  1

  9
$CAMERADISPLAY
290
0
  9
$LENSLENGTH
 40
50.0
  9
$CAMERAHEIGHT
 40
0.0
  9
$STEPSPERSEC
 40
2.0
  9
$STEPSIZE
 40
6.0
  9
$3DDWFPREC
 40
2.0
  9
$PSOLWIDTH
 40
0.25
  9
$PSOLHEIGHT
 40
4.0
  9
$LOFTANG1
 40
1.57079632679
  9
$LOFTANG2
 40
1.57079632679
  9
$LOFTMAG1
 40
0.0
  9
$LOFTMAG2
 40
0.0
  9
$LOFTPARAM
 70
7
  9
$LOFTNORMALS
280
1
  9
$LATITUDE
 40
37.795
  9
$LONGITUDE
 40
-122.394
  9
$NORTHDIRECTION
 40
0.0
  9
$TIMEZONE
 70
-8000
  9
$LIGHTGLYPHDISPLAY
280
1
  9
$TILEMODELIGHTSYNCH
280
1
  9
$CMATERIAL
347
96
  9
$SOLIDHIST
280
1
  9
$SHOWHIST
280
1
  9
$DWFFRAME
280
2
  9
$DGNFRAME
280
0
  9
$REALWORLDSCALE
290
1
  9
$INTERFERECOLOR
 62
1
  9
$INTERFEREOBJVS
345
A3
  9
$INTERFEREVPVS
346
A0
  9
$CSHADOW
280
0
  9
$SHADOWPLANELOCATION
 40
0.0
  0
ENDSEC
  0
SECTION
  2
CLASSES
  0
CLASS
  1
ACDBDICTIONARYWDFLT
  2
AcDbDictionaryWithDefault
  3
ObjectDBX Classes
 90
0
 91
1
280
0
281
0
  0
CLASS
  1
DICTIONARYVAR
  2
AcDbDictionaryVar
  3
ObjectDBX Classes
 90
0
 91
13
280
0
281
0
  0
CLASS
  1
TABLESTYLE
  2
AcDbTableStyle
  3
ObjectDBX Classes
 90
4095
 91
1
280
0
281
0
  0
CLASS
  1
MATERIAL
  2
AcDbMaterial
  3
ObjectDBX Classes
 90
1153
 91
3
280
0
281
0
  0
CLASS
  1
VISUALSTYLE
  2
AcDbVisualStyle
  3
ObjectDBX Classes
 90
4095
 91
19
280
0
281
0
  0
CLASS
  1
SCALE
  2
AcDbScale
  3
ObjectDBX Classes
 90
1153
 91
17
280
0
281
0
  0
CLASS
  1
MLEADERSTYLE
  2
AcDbMLeaderStyle
  3
ACDB_MLEADERSTYLE_CLASS
 90
4095
 91
3
280
0
281
0
  0
CLASS
  1
CELLSTYLEMAP
  2
AcDbCellStyleMap
  3
ObjectDBX Classes
 90
1152
 91
5
280
0
281
0
  0
CLASS
  1
EXACXREFPANELOBJECT
  2
ExAcXREFPanelObject
  3
EXAC_ESW
 90
1025
 91
0
280
0
281
0
  0
CLASS
  1
NPOCOLLECTION
  2
AcDbImpNonPersistentObjectsCollection
  3
ObjectDBX Classes
 90
1153
 91
0
280
0
281
0
  0
CLASS
  1
LAYER_INDEX
  2
AcDbLayerIndex
  3
ObjectDBX Classes
 90
0
 91
0
280
0
281
0
  0
CLASS
  1
SPATIAL_INDEX
  2
AcDbSpatialIndex
  3
ObjectDBX Classes
 90
0
 91
0
280
0
281
0
  0
CLASS
  1
IDBUFFER
  2
AcDbIdBuffer
  3
ObjectDBX Classes
 90
0
 91
0
280
0
281
0
  0
CLASS
  1
DIMASSOC
  2
AcDbDimAssoc
  3
"AcDbDimAssoc|Product Desc:     AcDim ARX App For Dimension|Company:          Autodesk, Inc.|WEB Address:      www.autodesk.com"
 90
0
 91
0
280
0
281
0
  0
CLASS
  1
IMAGEDEF
  2
AcDbRasterImageDef
  3
ISM
 90
0
 91
1
280
0
281
0
  0
CLASS
  1
RASTERVARIABLES
  2
AcDbRasterVariables
  3
ISM
 90
0
 91
1
280
0
281
0
  0
CLASS
  1
IMAGEDEF_REACTOR
  2
AcDbRasterImageDefReactor
  3
ISM
 90
1
 91
1
280
0
281
0
  0
CLASS
  1
IMAGE
  2
AcDbRasterImage
  3
ISM
 90
2175
 91
1
280
0
281
1
  0
CLASS
  1
PDFDEFINITION
  2
AcDbPdfDefinition
  3
ObjectDBX Classes
 90
1153
 91
1
280
0
281
0
  0
CLASS
  1
PDFUNDERLAY
  2
AcDbPdfReference
  3
ObjectDBX Classes
 90
4095
 91
1
280
0
281
1
  0
CLASS
  1
DWFDEFINITION
  2
AcDbDwfDefinition
  3
ObjectDBX Classes
 90
1153
 91
2
280
0
281
0
  0
CLASS
  1
DWFUNDERLAY
  2
AcDbDwfReference
  3
ObjectDBX Classes
 90
1153
 91
1
280
0
281
1
  0
CLASS
  1
DGNDEFINITION
  2
AcDbDgnDefinition
  3
ObjectDBX Classes
 90
1153
 91
2
280
0
281
0
  0
CLASS
  1
DGNUNDERLAY
  2
AcDbDgnReference
  3
ObjectDBX Classes
 90
1153
 91
1
280
0
281
1
  0
ENDSEC
  0
SECTION
  2
TABLES
  0
TABLE
  2
VPORT
  5
8
330
0
100
AcDbSymbolTable
 70
0
  0
ENDTAB
  0
TABLE
  2
LTYPE
  5
5F
330
0
100
AcDbSymbolTable
 70
7
  0
LTYPE
  5
14
330
5F
100
AcDbSymbolTableRecord
100
AcDbLinetypeTableRecord
  2
ByBlock
 70
0
  3

 72
65
 73
0
 40
0.0
  0
LTYPE
  5
15
330
5F
100
AcDbSymbolTableRecord
100
AcDbLinetypeTableRecord
  2
ByLayer
 70
0
  3

 72
65
 73
0
 40
0.0
  0
LTYPE
  5
16
330
5F
100
AcDbSymbolTableRecord
100
AcDbLinetypeTableRecord
  2
Continuous
 70
0
  3
Solid line
 72
65
 73
0
 40
0.0
  0
LTYPE
  5
1B1
330
5F
100
AcDbSymbolTableRecord
100
AcDbLinetypeTableRecord
  2
CENTER
 70
0
  3
Center ____ _ ____ _ ____ _ ____ _ ____ _ ____
 72
65
 73
4
 40
2.0
 49
1.25
 74
0
 49
-0.25
 74
0
 49
0.25
 74
0
 49
-0.25
 74
0
  0
LTYPE
  5
1B2
330
5F
100
AcDbSymbolTableRecord
100
AcDbLinetypeTableRecord
  2
DASHED
 70
0
  3
Dashed __ __ __ __ __ __ __ __ __ __ __ __ __ _
 72
65
 73
2
 40
0.75
 49
0.5
 74
0
 49
-0.25
 74
0
  0
LTYPE
  5
1B3
330
5F
100
AcDbSymbolTableRecord
100
AcDbLinetypeTableRecord
  2
PHANTOM
 70
0
  3
Phantom ______  __  __  ______  __  __  ______
 72
65
 73
6
 40
2.5
 49
1.25
 74
0
 49
-0.25
 74
0
 49
0.25
 74
0
 49
-0.25
 74
0
 49
0.25
 74
0
 49
-0.25
 74
0
  0
LTYPE
  5
39E
330
5F
100
AcDbSymbolTableRecord
100
AcDbLinetypeTableRecord
  2
HIDDEN
 70
0
  3
Hidden __ __ __ __ __ __ __ __ __ __ __ __ __ __
 72
65
 73
2
 40
9.525
 49
6.35
 74
0
 49
-3.175
 74
0
  0
ENDTAB
  0
TABLE
  2
LAYER
  5
2
330
0
100
AcDbSymbolTable
 70
4
  0
LAYER
  5
10
330
2
100
AcDbSymbolTableRecord
100
AcDbLayerTableRecord
  2
0
 70
0
 62
7
  6
Continuous
370
-3
390
F
347
98
  0
LAYER
  5
1B4
330
2
100
AcDbSymbolTableRecord
100
AcDbLayerTableRecord
  2
View Port
 70
0
 62
7
  6
Continuous
290
0
370
-3
390
F
347
98
  0
LAYER
  5
21D
330
2
100
AcDbSymbolTableRecord
100
AcDbLayerTableRecord
  2
Defpoints
 70
0
 62
7
  6
Continuous
290
0
370
-3
390
F
347
98
  0
LAYER
  5
53B
330
2
100
AcDbSymbolTableRecord
100
AcDbLayerTableRecord
  2
1
 70
0
 62
1
  6
CONTINUOUS
290
1
390
4E9
  0
ENDTAB
  0
TABLE
  2
STYLE
  5
3
330
0
100
AcDbSymbolTable
 70
3
  0
STYLE
  5
11
330
3
100
AcDbSymbolTableRecord
100
AcDbTextStyleTableRecord
  2
Standard
 70
0
 40
0.0
 41
1.0
 50
0.0
 71
0
 42
0.2
  3
arial.ttf
  4

  0
STYLE
  5
DC
330
3
100
AcDbSymbolTableRecord
100
AcDbTextStyleTableRecord
  2
Annotative
 70
0
 40
0.0
 41
1.0
 50
0.0
 71
0
 42
0.2
  3
arial.ttf
  4

  0
STYLE
  5
178
330
3
100
AcDbSymbolTableRecord
100
AcDbTextStyleTableRecord
  2
Notes
 70
0
 40
3.0
 41
1.0
 50
0.0
 71
0
 42
0.2
  3
arial.ttf
  4

  0
ENDTAB
  0
TABLE
  2
VIEW
  5
6
330
0
100
AcDbSymbolTable
 70
0
  0
ENDTAB
  0
TABLE
  2
UCS
  5
7
330
0
100
AcDbSymbolTable
 70
0
  0
ENDTAB
  0
TABLE
  2
APPID
  5
9
330
0
100
AcDbSymbolTable
 70
11
  0
APPID
  5
12
330
9
100
AcDbSymbolTableRecord
100
AcDbRegAppTableRecord
  2
ACAD
 70
0
  0
APPID
  5
DD
330
9
100
AcDbSymbolTableRecord
100
AcDbRegAppTableRecord
  2
AcadAnnoPO
 70
0
  0
APPID
  5
DE
330
9
100
AcDbSymbolTableRecord
100
AcDbRegAppTableRecord
  2
AcadAnnotative
 70
0
  0
APPID
  5
DF
330
9
100
AcDbSymbolTableRecord
100
AcDbRegAppTableRecord
  2
ACAD_DSTYLE_DIMJAG
 70
0
  0
APPID
  5
E0
330
9
100
AcDbSymbolTableRecord
100
AcDbRegAppTableRecord
  2
ACAD_DSTYLE_DIMTALN
 70
0
  0
APPID
  5
107
330
9
100
AcDbSymbolTableRecord
100
AcDbRegAppTableRecord
  2
ACAD_MLEADERVER
 70
0
  0
APPID
  5
1B5
330
9
100
AcDbSymbolTableRecord
100
AcDbRegAppTableRecord
  2
AcAecLayerStandard
 70
0
  0
APPID
  5
1BA
330
9
100
AcDbSymbolTableRecord
100
AcDbRegAppTableRecord
  2
ACAD_EXEMPT_FROM_CAD_STANDARDS
 70
0
  0
APPID
  5
237
330
9
100
AcDbSymbolTableRecord
100
AcDbRegAppTableRecord
  2
ACAD_DSTYLE_DIMBREAK
 70
0
  0
APPID
  5
28E
330
9
100
AcDbSymbolTableRecord
100
AcDbRegAppTableRecord
  2
ACAD_PSEXT
 70
0
  0
APPID
  5
4C4
330
9
100
AcDbSymbolTableRecord
100
AcDbRegAppTableRecord
  2
HATCHBACKGROUNDCOLOR
 70
0
  0
ENDTAB
  0
TABLE
  2
DIMSTYLE
  5
A
330
0
100
AcDbSymbolTable
 70
3
100
AcDbDimStyleTable
 71
3
340
242
340
27
340
E1
  0
DIMSTYLE
105
27
330
A
100
AcDbSymbolTableRecord
100
AcDbDimStyleTableRecord
  2
Standard
 70
0
 41
3.0
 42
2.0
 43
9.0
 44
5.0
140
3.0
141
2.0
147
2.0
340
11
1001
ACAD_DSTYLE_DIMJAG
1070
388
1040
38.0
1001
ACAD_DSTYLE_DIMBREAK
1070
391
1040
90.0
1001
ACAD_DSTYLE_DIMTALN
1070
392
1070
0
  0
DIMSTYLE
105
E1
330
A
100
AcDbSymbolTableRecord
100
AcDbDimStyleTableRecord
  2
Annotative
 70
0
 40
0.0
 41
3.0
 42
2.5
 43
10.0
 44
5.0
140
3.0
141
2.0
147
2.0
340
11
1001
AcadAnnotative
1000
AnnotativeData
1002
{
1070
1
1070
1
1002
}
1001
ACAD_DSTYLE_DIMJAG
1070
388
1040
38.0
1001
ACAD_DSTYLE_DIMBREAK
1070
391
1040
90.0
1001
ACAD_DSTYLE_DIMTALN
1070
392
1070
0
  0
DIMSTYLE
105
242
330
A
100
AcDbSymbolTableRecord
100
AcDbDimStyleTableRecord
  2
Civil-Metric
 70
0
 41
3.0
 42
1.5
 43
6.0
 44
3.0
 73
0
 74
0
 77
1
 78
3
 79
2
140
3.0
141
3.0
147
2.0
179
2
271
2
272
2
276
1
340
11
1001
ACAD_DSTYLE_DIMBREAK
1070
391
1040
3.0
1001
ACAD_DSTYLE_DIMJAG
1070
388
1040
38.0
1001
ACAD_DSTYLE_DIMTALN
1070
392
1070
0
  0
ENDTAB
  0
TABLE
  2
BLOCK_RECORD
  5
1
330
0
100
AcDbSymbolTable
 70
4
  0
BLOCK_RECORD
  5
1F
330
1
100
AcDbSymbolTableRecord
100
AcDbBlockTableRecord
  2
*Model_Space
340
4ED
 70
0
280
1
281
0
  0
BLOCK_RECORD
  5
58
330
1
100
AcDbSymbolTableRecord
100
AcDbBlockTableRecord
  2
*Paper_Space
340
4EE
 70
0
280
1
281
0
  0
BLOCK_RECORD
  5
238
330
1
100
AcDbSymbolTableRecord
100
AcDbBlockTableRecord
  2
_ArchTick
340
0
 70
0
280
1
281
0
  0
BLOCK_RECORD
  5
23C
330
1
100
AcDbSymbolTableRecord
100
AcDbBlockTableRecord
  2
_Open30
340
0
 70
0
280
1
281
0
  0
ENDTAB
  0
ENDSEC
  0
SECTION
  2
BLOCKS
  0
BLOCK
  5
23A
330
238
100
AcDbEntity
  8
0
100
AcDbBlockBegin
  2
_ArchTick
 70
0
 10
0.0
 20
0.0
 30
0.0
  3
_ArchTick
  1

  0
LWPOLYLINE
  5
239
330
238
100
AcDbEntity
  8
0
  6
ByBlock
 62
0
100
AcDbPolyline
 90
2
 70
0
 43
0.15
 10
-0.5
 20
-0.5
 10
0.5
 20
0.5
  0
ENDBLK
  5
23B
330
238
100
AcDbEntity
  8
0
100
AcDbBlockEnd
  0
BLOCK
  5
20
330
1F
100
AcDbEntity
  8
0
100
AcDbBlockBegin
  2
*Model_Space
 70
0
 10
0.0
 20
0.0
 30
0.0
  3
*Model_Space
  1

  0
ENDBLK
  5
21
330
1F
100
AcDbEntity
  8
0
100
AcDbBlockEnd
  0
BLOCK
  5
5A
330
58
100
AcDbEntity
 67
1
  8
0
100
AcDbBlockBegin
  2
*Paper_Space
 70
0
 10
0.0
 20
0.0
 30
0.0
  3
*Paper_Space
  1

  0
ENDBLK
  5
5B
330
58
100
AcDbEntity
 67
1
  8
0
100
AcDbBlockEnd
  0
BLOCK
  5
240
330
23C
100
AcDbEntity
  8
0
100
AcDbBlockBegin
  2
_Open30
 70
0
 10
0.0
 20
0.0
 30
0.0
  3
_Open30
  1

  0
LINE
  5
23D
330
23C
100
AcDbEntity
  8
0
  6
ByBlock
 62
0
370
-2
100
AcDbLine
 10
-1.0
 20
0.26794919
 30
0.0
 11
0.0
 21
0.0
 31
0.0
  0
LINE
  5
23E
330
23C
100
AcDbEntity
  8
0
  6
ByBlock
 62
0
370
-2
100
AcDbLine
 10
0.0
 20
0.0
 30
0.0
 11
-1.0
 21
-0.26794919
 31
0.0
  0
LINE
  5
23F
330
23C
100
AcDbEntity
  8
0
  6
ByBlock
 62
0
370
-2
100
AcDbLine
 10
0.0
 20
0.0
 30
0.0
 11
-1.0
 21
0.0
 31
0.0
  0
ENDBLK
  5
241
330
23C
100
AcDbEntity
  8
0
100
AcDbBlockEnd
  0
ENDSEC
  0
SECTION
  2
ENTITIES
  0
HATCH
  5
53C
330
1F
100
AcDbEntity
  8
1
 62
2
 67
0
100
AcDbHatch
 10
0.0
 20
0.0
 30
0.0
210
0.0
220
0.0
230
1.0
  2
SOLID
 70
1
 71
0
 91
1
 92
3
 72
0
 73
1
 93
1801
 10
100.0
 20
114.365636569
 10
100.050157884
 20
114.369116854
 10
100.100389875
 20
114.379556703
 10
100.150770052
 20
114.396953107
 10
100.201372435
 20
114.421301048
 10
100.252270958
 20
114.452593504
 10
100.303539438
 20
114.49082145
 10
100.355251549
 20
114.535973861
 10
100.407480789
 20
114.588037715
 10
100.460300456
 20
114.646997997
 10
100.513783614
 20
114.712837702
 10
100.56800307
 20
114.785537841
 10
100.62303134
 20
114.865077449
 10
100.678940626
 20
114.951433586
 10
100.735802783
 20
115.044581348
 10
100.793689292
 20
115.14449387
 10
100.852671234
 20
115.251142338
 10
100.912819258
 20
115.364495996
 10
100.974203559
 20
115.484522153
 10
101.036893843
 20
115.611186196
 10
101.100959306
 20
115.744451595
 10
101.166468602
 20
115.884279919
 10
101.233489819
 20
116.030630842
 10
101.302090449
 20
116.183462161
 10
101.372337364
 20
116.342729802
 10
101.444296789
 20
116.508387834
 10
101.518034271
 20
116.680388487
 10
101.593614661
 20
116.85868216
 10
101.671102081
 20
117.043217438
 10
101.7505599
 20
117.233941106
 10
101.832050711
 20
117.430798166
 10
101.915636305
 20
117.633731853
 10
102.001377641
 20
117.842683647
 10
102.08933483
 20
118.057593296
 10
102.179567103
 20
118.278398828
 10
102.27213279
 20
118.505036575
 10
102.367089299
 20
118.737441184
 10
102.464493084
 20
118.975545644
 10
102.564399633
 20
119.219281296
 10
102.666863435
 20
119.468577863
 10
102.771937964
 20
119.723363463
 10
102.879675654
 20
119.98356463
 10
102.990127876
 20
120.249106342
 10
103.103344921
 20
120.519912034
 10
103.219375973
 20
120.795903626
 10
103.338269093
 20
121.077001542
 10
103.460071194
 20
121.363124736
 10
103.584828026
 20
121.654190714
 10
103.712584152
 20
121.950115556
 10
103.843382931
 20
122.250813945
 10
103.977266498
 20
122.556199185
 10
104.114275746
 20
122.866183231
 10
104.254450308
 20
123.180676715
 10
104.397828538
 20
123.499588967
 10
104.544447495
 20
123.822828044
 10
104.694342927
 20
124.150300759
 10
104.847549253
 20
124.481912703
 10
105.004099546
 20
124.817568274
 10
105.16402552
 20
125.157170707
 10
105.327357514
 20
125.500622098
 10
105.494124476
 20
125.847823436
 10
105.664353951
 20
126.198674627
 10
105.838072066
 20
126.553074527
 10
106.015303516
 20
126.91092097
 10
106.196071553
 20
127.272110796
 10
106.380397971
 20
127.636539881
 10
106.568303099
 20
128.004103168
 10
106.759805785
 20
128.374694698
 10
106.954923385
 20
128.748207638
 10
107.153671756
 20
129.124534312
 10
107.356065246
 20
129.503566234
 10
107.56211668
 20
129.885194138
 10
107.771837355
 20
130.26930801
 10
107.985237033
 20
130.655797116
 10
108.202323928
 20
131.044550041
 10
108.423104704
 20
131.435454713
 10
108.647584463
 20
131.82839844
 10
108.875766745
 20
132.223267943
 10
109.107653515
 20
132.619949385
 10
109.343245164
 20
133.018328404
 10
109.5825405
 20
133.418290149
 10
109.825536747
 20
133.819719311
 10
110.072229538
 20
134.222500156
 10
110.322612915
 20
134.626516555
 10
110.576679323
 20
135.031652025
 10
110.834419611
 20
135.437789755
 10
111.09582303
 20
135.844812641
 10
111.360877229
 20
136.252603324
 10
111.629568258
 20
136.661044216
 10
111.901880567
 20
137.070017541
 10
112.177797005
 20
137.479405363
 10
112.457298823
 20
137.889089623
 10
112.740365675
 20
138.298952171
 10
113.026975619
 20
138.7088748
 10
113.317105123
 20
139.118739282
 10
113.610729063
 20
139.528427398
 10
113.907820732
 20
139.937820972
 10
114.208351842
 20
140.346801908
 10
114.512292528
 20
140.755252221
 10
114.819611354
 20
141.163054071
 10
115.130275321
 20
141.570089796
 10
115.44424987
 20
141.976241947
 10
115.761498891
 20
142.38139332
 10
116.08198473
 20
142.78542699
 10
116.405668196
 20
143.188226342
 10
116.732508572
 20
143.589675107
 10
117.062463623
 20
143.989657395
 10
117.395489603
 20
144.388057723
 10
117.731541269
 20
144.784761056
 10
118.070571889
 20
145.179652831
 10
118.412533254
 20
145.572618994
 10
118.757375688
 20
145.963546033
 10
119.105048064
 20
146.352321005
 10
119.455497814
 20
146.738831574
 10
119.808670938
 20
147.122966039
 10
120.164512028
 20
147.504613366
 10
120.52296427
 20
147.88366322
 10
120.883969469
 20
148.260005995
 10
121.247468056
 20
148.633532845
 10
121.613399109
 20
149.004135717
 10
121.981700366
 20
149.371707375
 10
122.352308242
 20
149.736141439
 10
122.725157846
 20
150.097332406
 10
123.100182999
 20
150.455175685
 10
123.477316251
 20
150.809567626
 10
123.8564889
 20
151.160405546
 10
124.23763101
 20
151.507587758
 10
124.62067143
 20
151.851013604
 10
125.005537815
 20
152.190583475
 10
125.392156641
 20
152.526198848
 10
125.780453235
 20
152.857762304
 10
126.170351785
 20
153.185177564
 10
126.561775369
 20
153.508349506
 10
126.954645972
 20
153.827184201
 10
127.348884513
 20
154.141588931
 10
127.744410859
 20
154.451472221
 10
128.141143858
 20
154.756743859
 10
128.539001353
 20
155.057314922
 10
128.937900213
 20
155.353097803
 10
129.33775635
 20
155.644006234
 10
129.738484748
 20
155.929955305
 10
130.139999488
 20
156.210861496
 10
130.542213767
 20
156.48664269
 10
130.945039931
 20
156.757218204
 10
131.348389494
 20
157.022508803
 10
131.752173168
 20
157.282436728
 10
132.156300886
 20
157.536925714
 10
132.560681833
 20
157.785901011
 10
132.965224467
 20
158.029289402
 10
133.369836549
 20
158.267019226
 10
133.774425173
 20
158.499020397
 10
134.178896788
 20
158.725224418
 10
134.583157229
 20
158.945564405
 10
134.987111744
 20
159.159975102
 10
135.390665025
 20
159.368392898
 10
135.793721232
 20
159.570755844
 10
136.196184026
 20
159.76700367
 10
136.597956594
 20
159.957077798
 10
136.998941682
 20
160.140921361
 10
137.399041621
 20
160.318479217
 10
137.798158361
 20
160.489697959
 10
138.196193494
 20
160.654525934
 10
138.59304829
 20
160.812913253
 10
138.988623726
 20
160.964811805
 10
139.382820512
 20
161.110175267
 10
139.775539127
 20
161.248959118
 10
140.166679844
 20
161.381120649
 10
140.556142768
 20
161.506618972
 10
140.943827857
 20
161.625415033
 10
141.329634961
 20
161.737471618
 10
141.71346385
 20
161.842753365
 10
142.095214243
 20
161.941226769
 10
142.474785843
 20
162.032860191
 10
142.852078365
 20
162.117623865
 10
143.226991568
 20
162.195489908
 10
143.599425287
 20
162.266432319
 10
143.969279465
 20
162.330426991
 10
144.33645418
 20
162.38745171
 10
144.700849682
 20
162.437486166
 10
145.062366422
 20
162.480511951
 10
145.420905081
 20
162.516512565
 10
145.776366604
 20
162.545473417
 10
146.128652233
 20
162.567381829
 10
146.477663533
 20
162.582227037
 10
146.823302426
 20
162.590000189
 10
147.165471226
 20
162.590694349
 10
147.504072662
 20
162.584304497
 10
147.839009917
 20
162.570827524
 10
148.170186652
 20
162.550262234
 10
148.497507044
 20
162.522609342
 10
148.820875811
 20
162.48787147
 10
149.140198244
 20
162.446053145
 10
149.455380239
 20
162.397160794
 10
149.766328329
 20
162.341202744
 10
150.072949708
 20
162.278189209
 10
150.375152268
 20
162.208132296
 10
150.672844625
 20
162.131045987
 10
150.965936149
 20
162.046946142
 10
151.254336997
 20
161.955850488
 10
151.537958138
 20
161.857778611
 10
151.816711385
 20
161.75275195
 10
152.090509423
 20
161.640793786
 10
152.359265837
 20
161.521929236
 10
152.622895145
 20
161.39618524
 10
152.881312821
 20
161.263590553
 10
153.134435324
 20
161.124175732
 10
153.38218013
 20
160.977973129
 10
153.624465756
 20
160.825016873
 10
153.861211788
 20
160.665342864
 10
154.092338907
 20
160.498988754
 10
154.31776892
 20
160.32599394
 10
154.537424782
 20
160.146399546
 10
154.751230625
 20
159.960248407
 10
154.959111782
 20
159.76758506
 10
155.160994814
 20
159.568455725
 10
155.356807535
 20
159.362908287
 10
155.546479037
 20
159.150992285
 10
155.729939714
 20
158.93275889
 10
155.907121287
 20
158.708260892
 10
156.077956828
 20
158.477552679
 10
156.242380783
 20
158.24069022
 10
156.400328994
 20
157.997731047
 10
156.551738726
 20
157.748734236
 10
156.696548686
 20
157.493760384
 10
156.834699042
 20
157.232871595
 10
156.966131454
 20
156.966131454
 10
157.090789086
 20
156.69360501
 10
157.20861663
 20
156.415358751
 10
157.31956033
 20
156.131460586
 10
157.423567994
 20
155.841979822
 10
157.520589022
 20
155.546987139
 10
157.610574421
 20
155.24655457
 10
157.693476823
 20
154.940755477
 10
157.769250502
 20
154.629664526
 10
157.837851399
 20
154.313357666
 10
157.899237129
 20
153.991912099
 10
157.953367007
 20
153.665406262
 10
158.000202057
 20
153.3339198
 10
158.039705035
 20
152.997533536
 10
158.071840435
 20
152.65632945
 10
158.096574515
 20
152.310390653
 10
158.113875302
 20
151.959801358
 10
158.123712611
 20
151.604646855
 10
158.126058057
 20
151.245013484
 10
158.120885067
 20
150.880988606
 10
158.108168894
 20
150.512660578
 10
158.087886627
 20
150.140118725
 10
158.060017205
 20
149.763453308
 10
158.024541423
 20
149.382755502
 10
157.981441948
 20
148.99811736
 10
157.930703325
 20
148.609631793
 10
157.872311986
 20
148.217392533
 10
157.806256262
 20
147.821494107
 10
157.732526387
 20
147.422031809
 10
157.651114508
 20
147.019101667
 10
157.562014691
 20
146.612800415
 10
157.465222928
 20
146.203225465
 10
157.360737142
 20
145.790474873
 10
157.248557193
 20
145.374647309
 10
157.128684884
 20
144.955842031
 10
157.001123963
 20
144.534158847
 10
156.865880127
 20
144.109698092
 10
156.722961025
 20
143.682560591
 10
156.572376263
 20
143.252847631
 10
156.414137402
 20
142.820660928
 10
156.248257964
 20
142.3861026
 10
156.074753426
 20
141.949275127
 10
155.893641228
 20
141.510281331
 10
155.704940767
 20
141.069224334
 10
155.508673399
 20
140.626207532
 10
155.304862437
 20
140.181334566
 10
155.093533146
 20
139.734709281
 10
154.874712746
 20
139.286435705
 10
154.648430404
 20
138.836618009
 10
154.414717231
 20
138.38536048
 10
154.17360628
 20
137.932767489
 10
153.925132539
 20
137.478943457
 10
153.669332926
 20
137.023992826
 10
153.406246283
 20
136.568020024
 10
153.13591337
 20
136.111129437
 10
152.858376856
 20
135.653425376
 10
152.573681313
 20
135.195012045
 10
152.281873207
 20
134.73599351
 10
151.98300089
 20
134.276473668
 10
151.677114587
 20
133.816556214
 10
151.364266392
 20
133.356344614
 10
151.044510252
 20
132.895942069
 10
150.71790196
 20
132.435451487
 10
150.38449914
 20
131.974975451
 10
150.044361236
 20
131.514616191
 10
149.697549501
 20
131.054475548
 10
149.34412698
 20
130.594654949
 10
148.984158501
 20
130.135255375
 10
148.617710656
 20
129.676377329
 10
148.244851789
 20
129.21812081
 10
147.86565198
 20
128.760585279
 10
147.480183029
 20
128.303869633
 10
147.088518438
 20
127.848072174
 10
146.690733398
 20
127.393290581
 10
146.286904767
 20
126.939621881
 10
145.877111055
 20
126.487162417
 10
145.461432404
 20
126.036007827
 10
145.039950571
 20
125.586253008
 10
144.612748906
 20
125.137992095
 10
144.179912335
 20
124.691318428
 10
143.741527336
 20
124.246324527
 10
143.297681921
 20
123.803102065
 10
142.848465615
 20
123.361741844
 10
142.393969432
 20
122.922333762
 10
141.934285853
 20
122.484966793
 10
141.469508807
 20
122.049728959
 10
140.999733642
 20
121.616707304
 10
140.525057106
 20
121.18598787
 10
140.045577321
 20
120.757655672
 10
139.561393761
 20
120.331794672
 10
139.072607224
 20
119.908487759
 10
138.579319806
 20
119.487816718
 10
138.081634881
 20
119.069862218
 10
137.57965707
 20
118.654703775
 10
137.073492217
 20
118.242419743
 10
136.563247359
 20
117.833087281
 10
136.049030705
 20
117.426782339
 10
135.530951601
 20
117.023579632
 10
135.009120508
 20
116.623552621
 10
134.483648971
 20
116.226773491
 10
133.954649592
 20
115.833313135
 10
133.422235999
 20
115.443241126
 10
132.886522819
 20
115.056625708
 10
132.347625647
 20
114.673533768
 10
131.805661018
 20
114.294030826
 10
131.260746373
 20
113.91818101
 10
130.713000035
 20
113.546047041
 10
130.162541171
 20
113.177690218
 10
129.609489768
 20
112.8131704
 10
129.053966594
 20
112.452545988
 10
128.496093176
 20
112.095873914
 10
127.935991761
 20
111.74320962
 10
127.373785284
 20
111.39460705
 10
126.809597343
 20
111.050118629
 10
126.243552158
 20
110.709795255
 10
125.675774543
 20
110.373686284
 10
125.106389875
 20
110.041839516
 10
124.535524054
 20
109.714301183
 10
123.963303478
 20
109.391115942
 10
123.389855004
 20
109.072326856
 10
122.815305917
 20
108.75797539
 10
122.239783897
 20
108.448101399
 10
121.663416982
 20
108.142743116
 10
121.086333538
 20
107.841937148
 10
120.508662222
 20
107.545718463
 10
119.93053195
 20
107.254120383
 10
119.35207186
 20
106.967174578
 10
118.773411282
 20
106.684911059
 10
118.1946797
 20
106.40735817
 10
117.616006717
 20
106.134542583
 10
117.037522025
 20
105.866489295
 10
116.459355365
 20
105.603221619
 10
115.881636496
 20
105.344761182
 10
115.304495159
 20
105.091127923
 10
114.728061043
 20
104.842340086
 10
114.152463748
 20
104.598414222
 10
113.577832754
 20
104.359365183
 10
113.004297384
 20
104.125206123
 10
112.43198677
 20
103.895948496
 10
111.861029816
 20
103.671602056
 10
111.291555168
 20
103.452174856
 10
110.723691177
 20
103.237673252
 10
110.157565862
 20
103.028101899
 10
109.593306882
 20
102.823463759
 10
109.031041493
 20
102.623760098
 10
108.470896522
 20
102.428990491
 10
107.912998328
 20
102.239152826
 10
107.35747277
 20
102.054243308
 10
106.804445172
 20
101.874256462
 10
106.254040289
 20
101.699185139
 10
105.706382274
 20
101.529020522
 10
105.161594647
 20
101.363752131
 10
104.619800255
 20
101.203367831
 10
104.081121246
 20
101.047853837
 10
103.545679031
 20
100.897194725
 10
103.013594255
 20
100.751373437
 10
102.484986761
 20
100.610371291
 10
101.95997556
 20
100.474167991
 10
101.438678797
 20
100.342741635
 10
100.921213721
 20
100.216068728
 10
100.407696652
 20
100.094124189
 10
99.8982429495
 20
99.9768813653
 10
99.3929669813
 20
99.8643120443
 10
98.8919820934
 20
99.7563864636
 10
98.3954005784
 20
99.6530733251
 10
97.9033336454
 20
99.5543398087
 10
97.4158913897
 20
99.460151585
 10
96.9331827636
 20
99.3704728303
 10
96.455315546
 20
99.2852662408
 10
95.9823963138
 20
99.2044930482
 10
95.5145304129
 20
99.128113035
 10
95.0518219296
 20
99.0560845507
 10
94.5943736623
 20
98.9883645282
 10
94.1422870941
 20
98.924908501
 10
93.6956623646
 20
98.8656706207
 10
93.2545982435
 20
98.8106036746
 10
92.8191921034
 20
98.759659104
 10
92.3895398934
 20
98.7127870233
 10
91.9657361136
 20
98.6699362386
 10
91.5478737888
 20
98.6310542678
 10
91.1360444441
 20
98.5960873602
 10
90.7303380795
 20
98.5649805171
 10
90.3308431459
 20
98.5376775122
 10
89.937646521
 20
98.5141209132
 10
89.5508334862
 20
98.4942521032
 10
89.1704877028
 20
98.4780113023
 10
88.7966911902
 20
98.4653375903
 10
88.4295243033
 20
98.4561689289
 10
88.069065711
 20
98.4504421851
 10
87.7153923748
 20
98.4480931543
 10
87.3685795283
 20
98.4490565838
 10
87.0287006566
 20
98.4532661973
 10
86.6958274771
 20
98.4606547185
 10
86.3700299193
 20
98.4711538966
 10
86.0513761071
 20
98.4846945303
 10
85.7399323395
 20
98.5012064937
 10
85.4357630736
 20
98.5206187616
 10
85.1389309068
 20
98.5428594353
 10
84.8494965601
 20
98.5678557686
 10
84.5675188625
 20
98.5955341942
 10
84.2930547342
 20
98.6258203506
 10
84.0261591723
 20
98.6586391084
 10
83.7668852361
 20
98.6939145976
 10
83.5152840324
 20
98.7315702352
 10
83.2714047026
 20
98.7715287524
 10
83.0352944092
 20
98.8137122225
 10
82.8069983239
 20
98.8580420887
 10
82.5865596151
 20
98.9044391924
 10
82.374019437
 20
98.9528238018
 10
82.1694169185
 20
99.0031156397
 10
81.9727891535
 20
99.0552339129
 10
81.7841711907
 20
99.1090973406
 10
81.6035960247
 20
99.1646241837
 10
81.4310945877
 20
99.2217322738
 10
81.2666957415
 20
99.2803390423
 10
81.11042627
 20
99.34036155
 10
80.9623108726
 20
99.4017165166
 10
80.8223721581
 20
99.4643203504
 10
80.690630639
 20
99.5280891776
 10
80.5671047264
 20
99.5929388724
 10
80.4518107257
 20
99.658785087
 10
80.344762833
 20
99.7255432811
 10
80.2459731314
 20
99.7931287523
 10
80.1554515888
 20
99.8614566658
 10
80.0732060556
 20
99.9304420847
 10
79.9992422633
 20
100.0
 10
79.9335638237
 20
100.070045361
 10
79.8761722286
 20
100.140493104
 10
79.8270668501
 20
100.211258184
 10
79.7862449416
 20
100.282255607
 10
79.7537016392
 20
100.353400452
 10
79.7294299639
 20
100.424607913
 10
79.7134208242
 20
100.495793316
 10
79.7056630195
 20
100.56687216
 10
79.7061432439
 20
100.637760141
 10
79.714846091
 20
100.708373184
 10
79.7317540582
 20
100.778627469
 10
79.7568475531
 20
100.848439468
 10
79.7901048994
 20
100.917725966
 10
79.8315023438
 20
100.986404099
 10
79.8810140633
 20
101.054391374
 10
79.9386121731
 20
101.121605709
 10
80.0042667354
 20
101.187965451
 10
80.0779457685
 20
101.253389413
 10
80.1596152562
 20
101.317796901
 10
80.2492391582
 20
101.381107739
 10
80.3467794213
 20
101.443242303
 10
80.45219599
 20
101.504121545
 10
80.5654468193
 20
101.563667021
 10
80.6864878866
 20
101.621800925
 10
80.8152732049
 20
101.678446107
 10
80.9517548368
 20
101.73352611
 10
81.0958829078
 20
101.786965189
 10
81.2476056219
 20
101.838688345
 10
81.4068692762
 20
101.888621347
 10
81.5736182768
 20
101.93669076
 10
81.7477951554
 20
101.982823972
 10
81.9293405855
 20
102.026949221
 10
82.1181934002
 20
102.068995615
 10
82.3142906097
 20
102.108893166
 10
82.51756742
 20
102.146572808
 10
82.7279572513
 20
102.181966425
 10
82.9453917575
 20
102.215006876
 10
83.1698008461
 20
102.245628016
 10
83.4011126986
 20
102.273764726
 10
83.6392537907
 20
102.299352929
 10
83.8841489143
 20
102.322329618
 10
84.1357211985
 20
102.342632879
 10
84.3938921323
 20
102.360201911
 10
84.658581587
 20
102.37497705
 10
84.9297078393
 20
102.386899789
 10
85.2071875945
 20
102.395912804
 10
85.4909360111
 20
102.401959967
 10
85.7808667243
 20
102.404986376
 10
86.0768918716
 20
102.404938366
 10
86.3789221174
 20
102.401763537
 10
86.6868666788
 20
102.395410768
 10
87.0006333516
 20
102.385830238
 10
87.3201285365
 20
102.372973445
 10
87.645257266
 20
102.356793222
 10
87.9759232315
 20
102.337243759
 10
88.3120288108
 20
102.314280616
 10
88.6534750957
 20
102.28786074
 10
89.0001619205
 20
102.257942486
 10
89.3519878904
 20
102.224485626
 10
89.7088504101
 20
102.187451372
 10
90.0706457134
 20
102.146802386
 10
90.4372688924
 20
102.102502793
 10
90.8086139274
 20
102.054518202
 10
91.1845737167
 20
102.002815713
 10
91.5650401077
 20
101.947363933
 10
91.9499039265
 20
101.888132988
 10
92.3390550097
 20
101.825094536
 10
92.7323822352
 20
101.758221778
 10
93.1297735538
 20
101.687489467
 10
93.5311160204
 20
101.612873923
 10
93.9362958265
 20
101.53435304
 10
94.3451983321
 20
101.451906295
 10
94.7577080979
 20
101.36551476
 10
95.173708918
 20
101.275161108
 10
95.5930838526
 20
101.180829623
 10
96.0157152607
 20
101.082506205
 10
96.4414848338
 20
100.98017838
 10
96.8702736284
 20
100.873835304
 10
97.3019620999
 20
100.76346777
 10
97.736430136
 20
100.649068214
 10
98.1735570905
 20
100.530630717
 10
98.6132218171
 20
100.408151015
 10
99.0553027031
 20
100.281626496
 10
99.4996777038
 20
100.151056207
 10
99.9462243764
 20
100.016440858
 10
100.394819914
 20
99.8777828206
 10
100.845341181
 20
99.7350861318
 10
101.297664747
 20
99.5883564947
 10
101.751666918
 20
99.437601279
 10
102.207223778
 20
99.2828295206
 10
102.664211215
 20
99.1240519218
 10
103.122504964
 20
98.9612808494
 10
103.581980635
 20
98.7945303334
 10
104.042513749
 20
98.623816065
 10
104.503979776
 20
98.4491553935
 10
104.966254165
 20
98.2705673232
 10
105.429212381
 20
98.0880725093
 10
105.892729939
 20
97.901693254
 10
106.35668244
 20
97.7114535014
 10
106.820945601
 20
97.5173788316
 10
107.285395294
 20
97.3194964554
 10
107.749907578
 20
97.1178352073
 10
108.214358732
 20
96.9124255385
 10
108.678625293
 20
96.7032995096
 10
109.142584086
 20
96.4904907821
 10
109.606112259
 20
96.2740346097
 10
110.069087318
 20
96.0539678295
 10
110.531387159
 20
95.8303288522
 10
110.992890102
 20
95.6031576514
 10
111.453474925
 20
95.3724957534
 10
111.913020895
 20
95.1383862258
 10
112.371407803
 20
94.9008736654
 10
112.828515998
 20
94.6600041862
 10
113.284226414
 20
94.4158254069
 10
113.738420609
 20
94.1683864369
 10
114.190980794
 20
93.917737863
 10
114.641789862
 20
93.663931735
 10
115.090731427
 20
93.4070215511
 10
115.537689849
 20
93.1470622421
 10
115.982550268
 20
92.8841101565
 10
116.425198633
 20
92.6182230434
 10
116.865521738
 20
92.3494600365
 10
117.303407243
 20
92.0778816367
 10
117.738743716
 20
91.8035496942
 10
118.17142065
 20
91.5265273911
 10
118.601328505
 20
91.2468792223
 10
119.028358728
 20
90.9646709768
 10
119.452403785
 20
90.6799697182
 10
119.873357191
 20
90.3928437649
 10
120.291113536
 20
90.10336267
 10
120.705568517
 20
89.8115972004
 10
121.116618958
 20
89.5176193157
 10
121.524162845
 20
89.221502147
 10
121.928099348
 20
88.9233199746
 10
122.328328851
 20
88.623148206
 10
122.724752972
 20
88.321063353
 10
123.117274598
 20
88.0171430088
 10
123.505797901
 20
87.7114658245
 10
123.890228369
 20
87.4041114853
 10
124.270472828
 20
87.0951606862
 10
124.646439468
 20
86.7846951077
 10
125.018037861
 20
86.4727973908
 10
125.385178993
 20
86.1595511116
 10
125.74777528
 20
85.8450407562
 10
126.105740593
 20
85.5293516946
 10
126.458990278
 20
85.2125701545
 10
126.807441181
 20
84.8947831946
 10
127.151011666
 20
84.5760786785
 10
127.489621636
 20
84.2565452468
 10
127.823192552
 20
83.9362722902
 10
128.151647457
 20
83.6153499221
 10
128.474910988
 20
83.2938689501
 10
128.792909401
 20
82.9719208483
 10
129.105570586
 20
82.6495977285
 10
129.412824086
 20
82.3269923123
 10
129.714601111
 20
82.0041979012
 10
130.010834558
 20
81.6813083485
 10
130.301459025
 20
81.3584180293
 10
130.586410829
 20
81.0356218112
 10
130.865628017
 20
80.7130150247
 10
131.139050384
 20
80.3906934332
 10
131.406619487
 20
80.0687532031
 10
131.668278653
 20
79.7472908732
 10
131.923973
 20
79.4264033245
 10
132.173649444
 20
79.1061877499
 10
132.417256712
 20
78.7867416232
 10
132.654745352
 20
78.4681626682
 10
132.886067747
 20
78.1505488281
 10
133.111178122
 20
77.8339982342
 10
133.330032555
 20
77.5186091749
 10
133.542588986
 20
77.2044800643
 10
133.748807225
 20
76.891709411
 10
133.948648959
 20
76.5803957867
 10
134.142077763
 20
76.2706377946
 10
134.329059101
 20
75.962534038
 10
134.509560337
 20
75.6561830887
 10
134.683550739
 20
75.3516834555
 10
134.851001485
 20
75.0491335525
 10
135.011885664
 20
74.7486316673
 10
135.166178284
 20
74.4502759296
 10
135.313856273
 20
74.1541642797
 10
135.454898485
 20
73.8603944364
 10
135.589285696
 20
73.5690638657
 10
135.717000612
 20
73.2802697494
 10
135.838027867
 20
72.9941089533
 10
135.952354022
 20
72.7106779957
 10
136.059967569
 20
72.4300730164
 10
136.160858928
 20
72.1523897448
 10
136.255020444
 20
71.8777234693
 10
136.342446387
 20
71.6061690055
 10
136.423132953
 20
71.3378206657
 10
136.497078254
 20
71.0727722276
 10
136.564282319
 20
70.8111169037
 10
136.624747089
 20
70.5529473104
 10
136.678476414
 20
70.2983554378
 10
136.725476044
 20
70.047432619
 10
136.765753627
 20
69.8002694998
 10
136.799318699
 20
69.5569560091
 10
136.826182681
 20
69.3175813285
 10
136.846358869
 20
69.0822338629
 10
136.859862426
 20
68.851001211
 10
136.866710374
 20
68.6239701359
 10
136.866921586
 20
68.4012265359
 10
136.860516776
 20
68.182855416
 10
136.847518486
 20
67.9689408591
 10
136.827951078
 20
67.7595659974
 10
136.801840724
 20
67.5548129848
 10
136.76921539
 20
67.3547629684
 10
136.730104828
 20
67.1594960616
 10
136.684540561
 20
66.9690913161
 10
136.632555868
 20
66.7836266953
 10
136.574185775
 20
66.6031790476
 10
136.509467037
 20
66.4278240797
 10
136.438438122
 20
66.2576363307
 10
136.361139201
 20
66.092689146
 10
136.277612126
 20
65.9330546523
 10
136.187900417
 20
65.7788037322
 10
136.092049245
 20
65.6300059992
 10
135.990105416
 20
65.4867297738
 10
135.88211735
 20
65.349042059
 10
135.768135063
 20
65.2170085165
 10
135.648210154
 20
65.0906934438
 10
135.522395776
 20
64.9701597511
 10
135.390746628
 20
64.8554689385
 10
135.253318926
 20
64.7466810741
 10
135.110170385
 20
64.643854772
 10
134.961360201
 20
64.5470471712
 10
134.806949026
 20
64.4563139147
 10
134.646998949
 20
64.3717091286
 10
134.481573472
 20
64.2932854024
 10
134.310737489
 20
64.2210937694
 10
134.134557261
 20
64.1551836871
 10
133.953100396
 20
64.095603019
 10
133.766435823
 20
64.0423980158
 10
133.574633767
 20
63.9956132979
 10
133.377765728
 20
63.955291838
 10
133.175904455
 20
63.9214749442
 10
132.969123918
 20
63.8942022435
 10
132.757499286
 20
63.873511666
 10
132.541106901
 20
63.8594394295
 10
132.32002425
 20
63.8520200245
 10
132.094329941
 20
63.8512861996
 10
131.864103674
 20
63.8572689481
 10
131.629426216
 20
63.8699974938
 10
131.390379373
 20
63.8894992791
 10
131.147045961
 20
63.9157999515
 10
130.89950978
 20
63.9489233526
 10
130.647855588
 20
63.9888915064
 10
130.392169067
 20
64.0357246086
 10
130.132536799
 20
64.0894410163
 10
129.869046235
 20
64.150057238
 10
129.601785669
 20
64.2175879251
 10
129.330844204
 20
64.2920458625
 10
129.056311726
 20
64.3734419608
 10
128.778278874
 20
64.461785249
 10
128.496837009
 20
64.5570828671
 10
128.212078185
 20
64.6593400598
 10
127.924095118
 20
64.7685601709
 10
127.632981157
 20
64.8847446373
 10
127.338830252
 20
65.0078929851
 10
127.041736923
 20
65.1380028247
 10
126.741796232
 20
65.2750698475
 10
126.439103749
 20
65.4190878228
 10
126.133755523
 20
65.5700485953
 10
125.825848049
 20
65.727942083
 10
125.515478239
 20
65.8927562762
 10
125.202743391
 20
66.0644772364
 10
124.887741152
 20
66.2430890963
 10
124.570569496
 20
66.4285740598
 10
124.251326685
 20
66.6209124036
 10
123.930111238
 20
66.8200824781
 10
123.607021906
 20
67.0260607096
 10
123.28215763
 20
67.2388216034
 10
122.95561752
 20
67.4583377462
 10
122.627500817
 20
67.6845798108
 10
122.297906861
 20
67.91751656
 10
121.966935064
 20
68.1571148514
 10
121.634684873
 20
68.4033396433
 10
121.301255745
 20
68.6561540005
 10
120.966747108
 20
68.9155191013
 10
120.631258335
 20
69.1813942442
 10
120.294888711
 20
69.4537368561
 10
119.9577374
 20
69.7325025005
 10
119.619903418
 20
70.0176448863
 10
119.281485598
 20
70.3091158775
 10
118.942582559
 20
70.6068655031
 10
118.603292677
 20
70.9108419676
 10
118.263714056
 20
71.220991662
 10
117.92394449
 20
71.537259176
 10
117.58408144
 20
71.8595873096
 10
117.244222003
 20
72.1879170863
 10
116.904462875
 20
72.5221877659
 10
116.564900329
 20
72.8623368589
 10
116.22563018
 20
73.2083001404
 10
115.886747758
 20
73.5600116654
 10
115.548347877
 20
73.9174037837
 10
115.210524807
 20
74.2804071561
 10
114.873372242
 20
74.6489507711
 10
114.536983275
 20
75.0229619612
 10
114.201450368
 20
75.4023664209
 10
113.866865322
 20
75.7870882244
 10
113.53331925
 20
76.1770498441
 10
113.20090255
 20
76.5721721696
 10
112.869704876
 20
76.9723745271
 10
112.53981511
 20
77.3775746989
 10
112.211321339
 20
77.7876889446
 10
111.884310822
 20
78.202632021
 10
111.558869968
 20
78.6223172043
 10
111.23508431
 20
79.046656311
 10
110.913038476
 20
79.4755597206
 10
110.592816165
 20
79.9089363985
 10
110.274500124
 20
80.3466939182
 10
109.958172118
 20
80.7887384857
 10
109.643912911
 20
81.2349749631
 10
109.331802238
 20
81.6853068927
 10
109.021918783
 20
82.1396365223
 10
108.714340154
 20
82.5978648299
 10
108.409142863
 20
83.0598915495
 10
108.1064023
 20
83.5256151969
 10
107.806192711
 20
83.9949330963
 10
107.508587178
 20
84.4677414067
 10
107.213657597
 20
84.9439351492
 10
106.921474654
 20
85.4234082341
 10
106.632107809
 20
85.9060534893
 10
106.345625273
 20
86.3917626878
 10
106.062093986
 20
86.8804265763
 10
105.781579603
 20
87.3719349043
 10
105.504146471
 20
87.8661764529
 10
105.229857611
 20
88.3630390641
 10
104.9587747
 20
88.862409671
 10
104.690958054
 20
89.3641743273
 10
104.426466612
 20
89.8682182377
 10
104.165357915
 20
90.3744257888
 10
103.907688095
 20
90.8826805795
 10
103.653511855
 20
91.3928654521
 10
103.402882457
 20
91.9048625241
 10
103.155851704
 20
92.4185532192
 10
102.912469928
 20
92.9338182995
 10
102.672785975
 20
93.4505378971
 10
102.436847194
 20
93.9685915469
 10
102.204699419
 20
94.4878582185
 10
101.976386961
 20
95.0082163491
 10
101.751952597
 20
95.5295438763
 10
101.531437555
 20
96.051718271
 10
101.314881505
 20
96.5746165705
 10
101.102322548
 20
97.098115412
 10
100.893797208
 20
97.6220910657
 10
100.68934042
 20
98.1464194689
 10
100.488985526
 20
98.6709762591
 10
100.292764259
 20
99.1956368081
 10
100.100706745
 20
99.7202762562
 10
99.9128414854
 20
100.244769546
 10
99.7291953603
 20
100.768991455
 10
99.5497936157
 20
101.292816634
 10
99.3746598606
 20
101.816119635
 10
99.2038160616
 20
102.338774953
 10
99.0372825384
 20
102.860657053
 10
98.87507796
 20
103.38164041
 10
98.717219341
 20
103.90159954
 10
98.5637220391
 20
104.420409035
 10
98.4145997527
 20
104.9379436
 10
98.2698645191
 20
105.454078084
 10
98.1295267135
 20
105.968687516
 10
97.9935950479
 20
106.481647138
 10
97.8620765715
 20
106.992832444
 10
97.7349766707
 20
107.502119208
 10
97.6122990705
 20
108.00938352
 10
97.4940458355
 20
108.514501825
 10
97.3802173724
 20
109.01735095
 10
97.2708124324
 20
109.517808143
 10
97.1658281143
 20
110.015751105
 10
97.0652598683
 20
110.511058023
 10
96.9691015
 20
111.003607607
 10
96.8773451756
 20
111.493279119
 10
96.7899814265
 20
111.97995241
 10
96.7069991556
 20
112.463507951
 10
96.6283856436
 20
112.943826869
 10
96.5541265557
 20
113.420790976
 10
96.4842059491
 20
113.894282806
 10
96.4186062809
 20
114.364185644
 10
96.3573084164
 20
114.830383561
 10
96.3002916383
 20
115.292761444
 10
96.247533656
 20
115.75120503
 10
96.1990106157
 20
116.205600937
 10
96.1546971106
 20
116.655836695
 10
96.1145661921
 20
117.101800778
 10
96.0785893813
 20
117.543382636
 10
96.0467366811
 20
117.980472722
 10
96.0189765881
 20
118.412962528
 10
95.9952761064
 20
118.84074461
 10
95.9756007603
 20
119.263712622
 10
95.9599146086
 20
119.681761345
 10
95.948180259
 20
120.094786712
 10
95.9403588826
 20
120.502685843
 10
95.9364102298
 20
120.905357071
 10
95.9362926457
 20
121.302699971
 10
95.9399630863
 20
121.694615386
 10
95.9473771355
 20
122.081005458
 10
95.9584890218
 20
122.461773652
 10
95.9732516363
 20
122.836824787
 10
95.9916165504
 20
123.206065059
 10
96.0135340344
 20
123.569402069
 10
96.0389530764
 20
123.926744848
 10
96.067821401
 20
124.278003884
 10
96.10008549
 20
124.623091145
 10
96.1356906014
 20
124.961920104
 10
96.1745807904
 20
125.294405767
 10
96.2166989306
 20
125.620464691
 10
96.2619867342
 20
125.940015011
 10
96.3103847746
 20
126.252976462
 10
96.3618325079
 20
126.559270402
 10
96.4162682953
 20
126.858819834
 10
96.4736294258
 20
127.151549426
 10
96.5338521393
 20
127.437385534
 10
96.5968716497
 20
127.716256224
 10
96.662622169
 20
127.988091287
 10
96.7310369311
 20
128.252822264
 10
96.8020482159
 20
128.510382464
 10
96.8755873744
 20
128.760706981
 10
96.9515848534
 20
129.003732713
 10
97.0299702207
 20
129.239398379
 10
97.1106721907
 20
129.46764454
 10
97.1936186502
 20
129.688413611
 10
97.2787366842
 20
129.90164988
 10
97.3659526026
 20
130.107299521
 10
97.4551919665
 20
130.305310612
 10
97.5463796151
 20
130.49563315
 10
97.6394396928
 20
130.678219062
 10
97.7342956762
 20
130.853022219
 10
97.8308704018
 20
131.019998452
 10
97.9290860935
 20
131.179105562
 10
98.0288643909
 20
131.330303332
 10
98.1301263767
 20
131.473553539
 10
98.2327926055
 20
131.608819964
 10
98.3367831318
 20
131.736068404
 10
98.4420175389
 20
131.855266677
 10
98.5484149676
 20
131.966384639
 10
98.6558941446
 20
132.069394184
 10
98.7643734122
 20
132.164269258
 10
98.8737707568
 20
132.250985862
 10
98.9840038386
 20
132.329522063
 10
99.0949900206
 20
132.399857996
 10
99.2066463981
 20
132.461975874
 10
99.3188898286
 20
132.515859987
 10
99.4316369607
 20
132.561496715
 10
99.5448042644
 20
132.598874521
 10
99.6583080606
 20
132.627983966
 10
99.7720645506
 20
132.648817701
 10
99.8859898463
 20
132.661370477
 10
100.0
 20
132.665639141
 10
100.114011034
 20
132.661622641
 10
100.22793897
 20
132.649322023
 10
100.341699861
 20
132.628740434
 10
100.455209819
 20
132.599883118
 10
100.568385045
 20
132.562757416
 10
100.68114186
 20
132.517372764
 10
100.793396733
 20
132.46374069
 10
100.905066314
 20
132.40187481
 10
101.01606746
 20
132.331790828
 10
101.126317267
 20
132.253506524
 10
101.235733096
 20
132.167041757
 10
101.34423261
 20
132.072418457
 10
101.451733793
 20
131.969660613
 10
101.558154989
 20
131.858794275
 10
101.663414924
 20
131.739847542
 10
101.76743274
 20
131.612850555
 10
101.870128018
 20
131.477835487
 10
101.971420814
 20
131.334836536
 10
102.071231683
 20
131.183889915
 10
102.169481707
 20
131.025033841
 10
102.266092526
 20
130.858308526
 10
102.360986364
 20
130.683756161
 10
102.454086057
 20
130.501420911
 10
102.545315083
 20
130.311348898
 10
102.634597585
 20
130.113588189
 10
102.721858403
 20
129.908188781
 10
102.807023097
 20
129.695202592
 10
102.890017979
 20
129.474683438
 10
102.970770133
 20
129.246687028
 10
103.049207446
 20
129.01127094
 10
103.125258633
 20
128.768494608
 10
103.19885326
 20
128.518419306
 10
103.269921776
 20
128.261108129
 10
103.338395531
 20
127.996625979
 10
103.404206806
 20
127.725039539
 10
103.467288834
 20
127.446417265
 10
103.527575827
 20
127.160829356
 10
103.585002999
 20
126.868347742
 10
103.639506591
 20
126.569046062
 10
103.691023891
 20
126.26299964
 10
103.739493261
 20
125.950285467
 10
103.784854157
 20
125.630982181
 10
103.827047152
 20
125.305170038
 10
103.86601396
 20
124.972930899
 10
103.901697452
 20
124.634348199
 10
103.934041686
 20
124.289506928
 10
103.962991918
 20
123.938493606
 10
103.988494631
 20
123.581396258
 10
104.010497549
 20
123.218304391
 10
104.028949661
 20
122.849308967
 10
104.043801238
 20
122.474502379
 10
104.055003849
 20
122.093978424
 10
104.062510388
 20
121.70783228
 10
104.066275082
 20
121.316160472
 10
104.066253516
 20
120.919060854
 10
104.062402645
 20
120.516632575
 10
104.054680815
 20
120.108976055
 10
104.043047776
 20
119.696192956
 10
104.027464699
 20
119.27838615
 10
104.007894193
 20
118.855659696
 10
103.984300316
 20
118.42811881
 10
103.956648593
 20
117.995869831
 10
103.924906027
 20
117.559020195
 10
103.889041116
 20
117.117678406
 10
103.849023863
 20
116.671954001
 10
103.804825788
 20
116.221957528
 10
103.756419944
 20
115.767800504
 10
103.703780923
 20
115.309595393
 10
103.646884871
 20
114.847455571
 10
103.5857095
 20
114.381495295
 10
103.52023409
 20
113.91182967
 10
103.450439508
 20
113.43857462
 10
103.37630821
 20
112.961846852
 10
103.297824255
 20
112.481763828
 10
103.214973307
 20
111.998443727
 10
103.127742647
 20
111.512005418
 10
103.036121178
 20
111.022568421
 10
102.940099432
 20
110.53025288
 10
102.839669574
 20
110.035179525
 10
102.734825412
 20
109.537469642
 10
102.625562393
 20
109.037245034
 10
102.511877619
 20
108.534627997
 10
102.393769839
 20
108.029741274
 10
102.271239461
 20
107.522708031
 10
102.14428855
 20
107.013651818
 10
102.01292083
 20
106.502696539
 10
101.877141688
 20
105.989966409
 10
101.736958172
 20
105.475585933
 10
101.592378997
 20
104.959679859
 10
101.443414535
 20
104.442373152
 10
101.290076825
 20
103.923790955
 10
101.132379565
 20
103.404058558
 10
100.970338113
 20
102.883301362
 10
100.803969484
 20
102.361644843
 10
100.633292346
 20
101.839214521
 10
100.45832702
 20
101.316135922
 10
100.279095471
 20
100.792534546
 10
100.095621309
 20
100.268535833
 10
99.90792978
 20
99.7442651259
 10
99.7160477628
 20
99.2198476401
 10
99.5200037613
 20
98.6954084259
 10
99.3198278989
 20
98.1710723363
 10
99.1155519109
 20
97.6469639923
 10
98.9072091372
 20
97.1232077496
 10
98.6948345136
 20
96.5999276638
 10
98.4784645637
 20
96.0772474578
 10
98.2581373891
 20
95.5552904872
 10
98.0338926596
 20
95.0341797077
 10
97.8057716035
 20
94.5140376412
 10
97.5738169962
 20
93.9949863433
 10
97.338073149
 20
93.4771473693
 10
97.0985858974
 20
92.9606417427
 10
96.8554025889
 20
92.4455899214
 10
96.6085720694
 20
91.9321117659
 10
96.358144671
 20
91.4203265072
 10
96.1041721971
 20
90.9103527141
 10
95.8467079086
 20
90.402308262
 10
95.5858065091
 20
89.8963103014
 10
95.3215241294
 20
89.3924752258
 10
95.0539183118
 20
88.8909186416
 10
94.7830479938
 20
88.3917553367
 10
94.5089734914
 20
87.8950992498
 10
94.2317564818
 20
87.4010634408
 10
93.9514599862
 20
86.90976006
 10
93.6681483509
 20
86.4213003189
 10
93.3818872296
 20
85.9357944608
 10
93.0927435637
 20
85.4533517312
 10
92.8007855634
 20
84.9740803497
 10
92.5060826873
 20
84.4980874811
 10
92.2087056227
 20
84.0254792073
 10
91.9087262645
 20
83.5563604998
 10
91.6062176941
 20
83.090835192
 10
91.301254158
 20
82.629005952
 10
90.9939110459
 20
82.1709742564
 10
90.6842648681
 20
81.7168403636
 10
90.3723932331
 20
81.2667032879
 10
90.0583748243
 20
80.8206607738
 10
89.7422893768
 20
80.3788092712
 10
89.4242176532
 20
79.9412439104
 10
89.1042414195
 20
79.5080584776
 10
88.7824434209
 20
79.0793453913
 10
88.4589073566
 20
78.6551956786
 10
88.1337178544
 20
78.235698952
 10
87.8069604458
 20
77.8209433871
 10
87.4787215393
 20
77.4110156999
 10
87.1490883949
 20
77.0060011255
 10
86.8181490971
 20
76.6059833967
 10
86.4859925286
 20
76.2110447229
 10
86.1527083428
 20
75.8212657701
 10
85.8183869364
 20
75.4367256406
 10
85.4831194224
 20
75.0575018541
 10
85.1469976014
 20
74.6836703283
 10
84.810113934
 20
74.3153053605
 10
84.472561512
 20
73.9524796101
 10
84.1344340302
 20
73.5952640806
 10
83.7958257571
 20
73.243728103
 10
83.4568315061
 20
72.8979393191
 10
83.117546606
 20
72.5579636661
 10
82.7780668717
 20
72.2238653604
 10
82.4384885743
 20
71.8957068833
 10
82.0989084114
 20
71.5735489667
 10
81.7594234767
 20
71.2574505788
 10
81.4201312303
 20
70.9474689112
 10
81.0811294678
 20
70.6436593661
 10
80.74251629
 20
70.3460755438
 10
80.4043900725
 20
70.0547692315
 10
80.0668494341
 20
69.7697903918
 10
79.7299932069
 20
69.4911871523
 10
79.3939204043
 20
69.2190057956
 10
79.0587301906
 20
68.9532907495
 10
78.7245218495
 20
68.6940845788
 10
78.3913947526
 20
68.4414279763
 10
78.0594483283
 20
68.1953597552
 10
77.7287820303
 20
67.955916842
 10
77.399495306
 20
67.7231342699
 10
77.0716875651
 20
67.4970451725
 10
76.745458148
 20
67.2776807783
 10
76.4209062939
 20
67.065070406
 10
76.0981311099
 20
66.8592414599
 10
75.7772315387
 20
66.6602194261
 10
75.4583063271
 20
66.4680278694
 10
75.1414539949
 20
66.2826884306
 10
74.8267728028
 20
66.1042208243
 10
74.5143607211
 20
65.9326428376
 10
74.2043153982
 20
65.767970329
 10
73.8967341291
 20
65.6102172279
 10
73.5917138243
 20
65.4593955353
 10
73.289350978
 20
65.3155153241
 10
72.9897416375
 20
65.1785847406
 10
72.6929813716
 20
65.0486100065
 10
72.3991652399
 20
64.9255954213
 10
72.1083877617
 20
64.8095433656
 10
71.8207428853
 20
64.7004543042
 10
71.5363239575
 20
64.598326791
 10
71.255223693
 20
64.5031574732
 10
70.9775341438
 20
64.4149410968
 10
70.7033466695
 20
64.3336705126
 10
70.432751907
 20
64.2593366825
 10
70.1658397405
 20
64.1919286865
 10
69.9026992724
 20
64.1314337305
 10
69.6434187931
 20
64.0778371538
 10
69.3880857525
 20
64.0311224385
 10
69.1367867305
 20
63.9912712182
 10
68.8896074083
 20
63.9582632878
 10
68.64663254
 20
63.932076614
 10
68.4079459241
 20
63.9126873458
 10
68.1736303756
 20
63.900069826
 10
67.9437676978
 20
63.894196603
 10
67.7184386554
 20
63.8950384432
 10
67.4977229466
 20
63.9025643441
 10
67.2816991768
 20
63.9167415473
 10
67.0704448311
 20
63.9375355528
 10
66.8640362488
 20
63.9649101332
 10
66.6625485966
 20
63.9988273488
 10
66.4660558436
 20
64.0392475629
 10
66.274630735
 20
64.0861294578
 10
66.088344768
 20
64.1394300511
 10
65.9072681664
 20
64.1991047126
 10
65.7314698563
 20
64.2651071818
 10
65.5610174424
 20
64.3373895855
 10
65.3959771843
 20
64.4159024565
 10
65.2364139729
 20
64.5005947515
 10
65.0823913079
 20
64.5914138713
 10
64.9339712751
 20
64.6883056798
 10
64.7912145243
 20
64.7912145243
 10
64.6541802478
 20
64.9000832557
 10
64.522926159
 20
65.01485325
 10
64.3975084714
 20
65.1354644291
 10
64.2779818787
 20
65.261855283
 10
64.1643995339
 20
65.3939628914
 10
64.0568130307
 20
65.5317229469
 10
63.9552723837
 20
65.6750697777
 10
63.8598260102
 20
65.8239363705
 10
63.7705207116
 20
65.978254395
 10
63.687401656
 20
66.1379542273
 10
63.6105123606
 20
66.3029649749
 10
63.5398946752
 20
66.4732145008
 10
63.4755887658
 20
66.6486294494
 10
63.4176330987
 20
66.8291352714
 10
63.3660644251
 20
67.0146562498
 10
63.3209177663
 20
67.205115526
 10
63.2822263996
 20
67.4004351264
 10
63.2500218441
 20
67.6005359888
 10
63.2243338477
 20
67.8053379897
 10
63.2051903738
 20
68.0147599714
 10
63.1926175896
 20
68.2287197699
 10
63.1866398539
 20
68.4471342423
 10
63.1872797062
 20
68.6699192955
 10
63.1945578556
 20
68.8969899141
 10
63.2084931708
 20
69.1282601892
 10
63.2291026706
 20
69.3636433472
 10
63.2564015146
 20
69.603051779
 10
63.2904029948
 20
69.8463970692
 10
63.3311185274
 20
70.0935900255
 10
63.3785576455
 20
70.3445407088
 10
63.4327279922
 20
70.5991584623
 10
63.4936353142
 20
70.8573519424
 10
63.5612834561
 20
71.1190291486
 10
63.6356743549
 20
71.3840974537
 10
63.7168080358
 20
71.6524636346
 10
63.8046826076
 20
71.9240339028
 10
63.8992942597
 20
72.1987139355
 10
64.0006372585
 20
72.4764089061
 10
64.1087039457
 20
72.7570235158
 10
64.223484736
 20
73.0404620243
 10
64.3449681159
 20
73.326628281
 10
64.4731406431
 20
73.6154257567
 10
64.6079869467
 20
73.906757575
 10
64.7494897269
 20
74.2005265433
 10
64.8976297569
 20
74.4966351846
 10
65.0523858839
 20
74.7949857692
 10
65.2137350316
 20
75.0954803461
 10
65.3816522029
 20
75.3980207747
 10
65.5561104832
 20
75.7025087564
 10
65.7370810443
 20
76.0088458661
 10
65.9245331488
 20
76.3169335843
 10
66.1184341556
 20
76.626673328
 10
66.3187495248
 20
76.937966483
 10
66.5254428246
 20
77.2507144352
 10
66.7384757375
 20
77.5648186018
 10
66.9578080681
 20
77.8801804632
 10
67.1833977506
 20
78.1967015942
 10
67.4152008575
 20
78.5142836955
 10
67.6531716086
 20
78.8328286247
 10
67.8972623804
 20
79.1522384274
 10
68.1474237165
 20
79.4724153688
 10
68.403604338
 20
79.7932619639
 10
68.6657511549
 20
80.1146810088
 10
68.9338092779
 20
80.4365756114
 10
69.2077220308
 20
80.7588492216
 10
69.4874309629
 20
81.0814056618
 10
69.7728758632
 20
81.4041491577
 10
70.0639947736
 20
81.7269843674
 10
70.3607240037
 20
82.0498164122
 10
70.662998146
 20
82.3725509056
 10
70.970750091
 20
82.6950939834
 10
71.2839110435
 20
83.0173523325
 10
71.602410539
 20
83.3392332204
 10
71.9261764611
 20
83.6606445238
 10
72.2551350586
 20
83.9814947575
 10
72.5892109639
 20
84.3016931024
 10
72.9283272115
 20
84.6211494341
 10
73.2724052569
 20
84.9397743504
 10
73.6213649964
 20
85.2574791995
 10
73.9751247869
 20
85.5741761065
 10
74.3336014666
 20
85.8897780012
 10
74.6967103756
 20
86.2041986447
 10
75.0643653778
 20
86.5173526557
 10
75.4364788824
 20
86.8291555368
 10
75.8129618664
 20
87.1395237004
 10
76.1937238974
 20
87.4483744941
 10
76.5786731567
 20
87.7556262262
 10
76.967716463
 20
88.0611981902
 10
77.3607592965
 20
88.3650106896
 10
77.7577058232
 20
88.6669850618
 10
78.1584589203
 20
88.9670437023
 10
78.5629202006
 20
89.2651100879
 10
78.9709900392
 20
89.5611087996
 10
79.3825675987
 20
89.8549655458
 10
79.7975508566
 20
90.1466071839
 10
80.2158366309
 20
90.4359617429
 10
80.6373206087
 20
90.7229584445
 10
81.0618973726
 20
91.0075277241
 10
81.4894604292
 20
91.289601252
 10
81.9199022373
 20
91.5691119531
 10
82.3531142363
 20
91.8459940268
 10
82.7889868754
 20
92.120182967
 10
83.2274096425
 20
92.3916155801
 10
83.6682710938
 20
92.6602300043
 10
84.111458884
 20
92.9259657275
 10
84.5568597961
 20
93.1887636044
 10
85.0043597717
 20
93.4485658743
 10
85.4538439422
 20
93.7053161776
 10
85.905196659
 20
93.9589595718
 10
86.3583015256
 20
94.2094425473
 10
86.8130414283
 20
94.4567130429
 10
87.2692985685
 20
94.7007204604
 10
87.7269544939
 20
94.9414156787
 10
88.1858901316
 20
95.178751068
 10
88.6459858197
 20
95.4126805026
 10
89.10712134
 20
95.6431593744
 10
89.5691759512
 20
95.8701446042
 10
90.0320284213
 20
96.0935946545
 10
90.4955570609
 20
96.31346954
 10
90.9596397567
 20
96.5297308388
 10
91.4241540046
 20
96.7423417024
 10
91.8889769434
 20
96.9512668655
 10
92.3539853887
 20
97.1564726552
 10
92.8190558662
 20
97.3579269996
 10
93.2840646464
 20
97.555599436
 10
93.748887778
 20
97.7494611186
 10
94.2134011224
 20
97.9394848252
 10
94.6774803878
 20
98.1256449641
 10
95.1410011637
 20
98.3079175801
 10
95.6038389548
 20
98.4862803597
 10
96.0658692161
 20
98.660712636
 10
96.5269673868
 20
98.8311953935
 10
96.9870089251
 20
98.9977112716
 10
97.4458693426
 20
99.1602445678
 10
97.9034242392
 20
99.3187812407
 10
98.3595493369
 20
99.473308912
 10
98.8141205152
 20
99.6238168686
 10
99.267013845
 20
99.7702960628
 10
99.7181056236
 20
99.9127391139
 10
100.167272409
 20
100.051140307
 10
100.614391053
 20
100.185495595
 10
101.059338739
 20
100.315802594
 10
101.501993012
 20
100.442060583
 10
101.942231817
 20
100.564270505
 10
102.37993353
 20
100.682434958
 10
102.814976992
 20
100.796558198
 10
103.247241545
 20
100.90664613
 10
103.676607067
 20
101.012706309
 10
104.102954
 20
101.11474793
 10
104.526163389
 20
101.212781825
 10
104.946116914
 20
101.306820458
 10
105.362696922
 20
101.396877918
 10
105.775786461
 20
101.48296991
 10
106.185269312
 20
101.565113749
 10
106.591030026
 20
101.643328353
 10
106.992953948
 20
101.717634233
 10
107.390927259
 20
101.788053484
 10
107.784837001
 20
101.854609776
 10
108.174571111
 20
101.917328344
 10
108.560018456
 20
101.976235977
 10
108.94106886
 20
102.031361006
 10
109.317613135
 20
102.082733293
 10
109.689543116
 20
102.130384221
 10
110.056751689
 20
102.174346679
 10
110.41913282
 20
102.214655048
 10
110.77658159
 20
102.25134519
 10
111.128994218
 20
102.284454433
 10
111.476268095
 20
102.314021556
 10
111.818301815
 20
102.340086775
 10
112.154995198
 20
102.362691724
 10
112.486249321
 20
102.381879445
 10
112.81196655
 20
102.397694368
 10
113.132050562
 20
102.410182293
 10
113.446406375
 20
102.419390375
 10
113.754940377
 20
102.425367107
 10
114.05756035
 20
102.428162297
 10
114.354175496
 20
102.427827058
 10
114.644696467
 20
102.424413779
 10
114.929035385
 20
102.417976112
 10
115.207105871
 20
102.408568952
 10
115.478823069
 20
102.396248414
 10
115.744103671
 20
102.381071814
 10
116.002865939
 20
102.363097647
 10
116.255029729
 20
102.342385567
 10
116.500516516
 20
102.318996364
 10
116.739249414
 20
102.292991944
 10
116.971153201
 20
102.264435302
 10
117.196154336
 20
102.233390503
 10
117.414180987
 20
102.19992266
 10
117.625163046
 20
102.164097905
 10
117.829032151
 20
102.125983371
 10
118.025721709
 20
102.085647161
 10
118.215166909
 20
102.043158333
 10
118.397304746
 20
101.998586866
 10
118.572074038
 20
101.952003639
 10
118.739415443
 20
101.903480406
 10
118.899271476
 20
101.85308977
 10
119.051586529
 20
101.800905155
 10
119.196306883
 20
101.747000782
 10
119.333380725
 20
101.691451641
 10
119.462758165
 20
101.634333466
 10
119.58439125
 20
101.575722706
 10
119.698233977
 20
101.5156965
 10
119.804242306
 20
101.454332645
 10
119.902374177
 20
101.391709576
 10
119.992589517
 20
101.327906331
 10
120.074850257
 20
101.263002524
 10
120.149120341
 20
101.197078322
 10
120.215365734
 20
101.13021441
 10
120.273554439
 20
101.062491966
 10
120.323656501
 20
100.993992632
 10
120.365644019
 20
100.924798483
 10
120.399491152
 20
100.854992001
 10
120.42517413
 20
100.784656042
 10
120.44267126
 20
100.713873811
 10
120.451962931
 20
100.642728828
 10
120.453031625
 20
100.571304903
 10
120.445861917
 20
100.499686102
 10
120.430440484
 20
100.427956721
 10
120.406756108
 20
100.356201253
 10
120.374799679
 20
100.28450436
 10
120.334564201
 20
100.212950843
 10
120.286044792
 20
100.14162561
 10
120.229238688
 20
100.070613651
 10
120.164145242
 20
100.0
 10
120.090765929
 20
99.9298697122
 10
120.009104342
 20
99.8603078301
 10
119.919166194
 20
99.7913993541
 10
119.820959317
 20
99.723229213
 10
119.714493661
 20
99.6558822331
 10
119.599781291
 20
99.5894431087
 10
119.476836384
 20
99.5239963717
 10
119.345675226
 20
99.4596263619
 10
119.206316211
 20
99.396417197
 10
119.058779832
 20
99.3344527427
 10
118.903088678
 20
99.2738165828
 10
118.73926743
 20
99.2145919897
 10
118.567342853
 20
99.1568618947
 10
118.38734379
 20
99.1007088586
 10
118.199301153
 20
99.0462150421
 10
118.003247918
 20
98.9934621766
 10
117.799219114
 20
98.9425315354
 10
117.587251815
 20
98.8935039042
 10
117.367385131
 20
98.8464595524
 10
117.139660197
 20
98.8014782047
 10
116.90412016
 20
98.7586390123
 10
116.660810173
 20
98.7180205245
 10
116.409777379
 20
98.6797006611
 10
116.151070899
 20
98.6437566835
 10
115.884741819
 20
98.6102651678
 10
115.610843179
 20
98.5793019769
 10
115.329429956
 20
98.5509422331
 10
115.040559049
 20
98.5252602913
 10
114.744289267
 20
98.5023297118
 10
114.440681311
 20
98.4822232341
 10
114.129797757
 20
98.4650127502
 10
113.811703043
 20
98.4507692788
 10
113.486463445
 20
98.4395629392
 10
113.154147068
 20
98.4314629262
 10
112.81482382
 20
98.4265374843
 10
112.468565396
 20
98.4248538833
 10
112.115445263
 20
98.4264783936
 10
111.755538631
 20
98.4314762615
 10
111.388922442
 20
98.4399116854
 10
111.015675342
 20
98.4518477926
 10
110.635877666
 20
98.4673466152
 10
110.24961141
 20
98.4864690677
 10
109.856960216
 20
98.509274924
 10
109.458009343
 20
98.5358227955
 10
109.052845647
 20
98.5661701089
 10
108.641557556
 20
98.6003730848
 10
108.22423505
 20
98.6384867164
 10
107.800969631
 20
98.6805647491
 10
107.371854302
 20
98.7266596598
 10
106.936983541
 20
98.776822637
 10
106.496453276
 20
98.8311035611
 10
106.050360855
 20
98.8895509859
 10
105.598805028
 20
98.9522121189
 10
105.141885911
 20
99.0191328039
 10
104.679704964
 20
99.0903575024
 10
104.212364964
 20
99.1659292768
 10
103.739969974
 20
99.2458897729
 10
103.262625317
 20
99.3302792036
 10
102.780437548
 20
99.4191363329
 10
102.293514423
 20
99.5124984601
 10
101.801964871
 20
99.6104014046
 10
101.305898963
 20
99.7128794916
 10
100.805427887
 20
99.8199655371
 10
100.300663912
 20
99.9316908351
 10
99.7917203601
 20
100.048085144
 10
99.2787115763
 20
100.169176672
 10
98.7617528967
 20
100.29499207
 10
98.2409606178
 20
100.425556413
 10
97.7164519646
 20
100.560893194
 10
97.1883450591
 20
100.701024311
 10
96.6567588883
 20
100.845970057
 10
96.1218132721
 20
100.995749109
 10
95.5836288304
 20
101.150378523
 10
95.0423269515
 20
101.309873721
 10
94.4980297582
 20
101.474248483
 10
93.9508600757
 20
101.643514942
 10
93.4009413976
 20
101.817683576
 10
92.8483978533
 20
101.996763197
 10
92.293354174
 20
102.180760954
 10
91.7359356595
 20
102.369682317
 10
91.1762681438
 20
102.563531081
 10
90.6144779617
 20
102.762309354
 10
90.0506919148
 20
102.96601756
 10
89.4850372366
 20
103.174654428
 10
88.9176415594
 20
103.388216998
 10
88.3486328789
 20
103.60670061
 10
87.7781395206
 20
103.830098908
 10
87.2062901046
 20
104.058403837
 10
86.6332135116
 20
104.29160564
 10
86.0590388482
 20
104.529692863
 10
85.4838954121
 20
104.772652349
 10
84.9079126573
 20
105.020469247
 10
84.33122016
 20
105.273127003
 10
83.7539475833
 20
105.530607372
 10
83.1762246427
 20
105.792890415
 10
82.5981810716
 20
106.059954504
 10
82.0199465866
 20
106.331776323
 10
81.4416508524
 20
106.608330877
 10
80.8634234478
 20
106.889591493
 10
80.2853938312
 20
107.175529826
 10
79.7076913053
 20
107.466115864
 10
79.1304449837
 20
107.761317939
 10
78.5537837561
 20
108.061102726
 10
77.9778362538
 20
108.365435258
 10
77.4027308162
 20
108.67427893
 10
76.8285954562
 20
108.987595506
 10
76.2555578268
 20
109.305345134
 10
75.6837451869
 20
109.62748635
 10
75.1132843678
 20
109.953976087
 10
74.5443017399
 20
110.284769694
 10
73.9769231791
 20
110.619820937
 10
73.411274034
 20
110.959082017
 10
72.8474790926
 20
111.302503579
 10
72.2856625495
 20
111.650034728
 10
71.7259479736
 20
112.001623037
 10
71.1684582756
 20
112.357214567
 10
70.6133156756
 20
112.716753875
 10
70.0606416717
 20
113.080184031
 10
69.5105570075
 20
113.447446637
 10
68.9631816416
 20
113.818481834
 10
68.4186347155
 20
114.193228327
 10
67.8770345233
 20
114.571623395
 10
67.3384984805
 20
114.953602913
 10
66.8031430942
 20
115.339101365
 10
66.2710839325
 20
115.728051864
 10
65.7424355948
 20
116.12038617
 10
65.2173116826
 20
116.516034712
 10
64.6958247698
 20
116.914926601
 10
64.1780863743
 20
117.316989653
 10
63.6642069292
 20
117.722150412
 10
63.1542957546
 20
118.130334165
 10
62.6484610299
 20
118.541464967
 10
62.1468097662
 20
118.95546566
 10
61.6494477791
 20
119.372257896
 10
61.1564796621
 20
119.79176216
 10
60.6680087601
 20
120.21389779
 10
60.1841371434
 20
120.638583003
 10
59.7049655822
 20
121.065734915
 10
59.230593521
 20
121.495269567
 10
58.7611190545
 20
121.92710195
 10
58.2966389025
 20
122.361146025
 10
57.8372483863
 20
122.797314754
 10
57.3830414051
 20
123.235520119
 10
56.9341104128
 20
123.675673151
 10
56.4905463954
 20
124.117683957
 10
56.0524388487
 20
124.56146174
 10
55.6198757569
 20
125.006914834
 10
55.1929435706
 20
125.453950722
 10
54.7717271865
 20
125.90247607
 10
54.3563099268
 20
126.352396751
 10
53.9467735193
 20
126.80361787
 10
53.5431980782
 20
127.256043799
 10
53.1456620847
 20
127.709578199
 10
52.7542423691
 20
128.164124049
 10
52.3690140925
 20
128.619583677
 10
51.9900507292
 20
129.075858788
 10
51.6174240505
 20
129.532850492
 10
51.2512041073
 20
129.990459332
 10
50.8914592149
 20
130.44858532
 10
50.5382559374
 20
130.907127957
 10
50.1916590726
 20
131.36598627
 10
49.851731638
 20
131.825058841
 10
49.5185348568
 20
132.284243834
 10
49.1921281448
 20
132.743439029
 10
48.8725690972
 20
133.202541849
 10
48.5599134771
 20
133.661449395
 10
48.2542152034
 20
134.120058474
 10
47.9555263396
 20
134.578265628
 10
47.6638970836
 20
135.035967171
 10
47.3793757574
 20
135.493059213
 10
47.102008798
 20
135.949437698
 10
46.8318407482
 20
136.404998431
 10
46.5689142482
 20
136.859637109
 10
46.3132700284
 20
137.313249357
 10
46.0649469015
 20
137.765730753
 10
45.8239817563
 20
138.216976867
 10
45.5904095516
 20
138.666883287
 10
45.3642633105
 20
139.115345652
 10
45.1455741157
 20
139.562259685
 10
44.9343711049
 20
140.007521224
 10
44.7306814674
 20
140.451026252
 10
44.5345304404
 20
140.892670933
 10
44.3459413068
 20
141.332351638
 10
44.1649353928
 20
141.769964982
 10
43.9915320665
 20
142.205407851
 10
43.825748737
 20
142.638577438
 10
43.6676008544
 20
143.069371271
 10
43.5171019091
 20
143.497687244
 10
43.3742634336
 20
143.923423653
 10
43.2390950032
 20
144.346479222
 10
43.1116042383
 20
144.766753137
 10
42.9917968066
 20
145.184145076
 10
42.8796764263
 20
145.598555243
 10
42.77524487
 20
146.009884392
 10
42.6785019682
 20
146.418033865
 10
42.5894456148
 20
146.822905618
 10
42.508071772
 20
147.224402253
 10
42.4343744762
 20
147.622427048
 10
42.3683458447
 20
148.016883988
 10
42.3099760822
 20
148.407677792
 10
42.2592534888
 20
148.794713946
 10
42.2161644677
 20
149.177898731
 10
42.1806935342
 20
149.557139253
 10
42.1528233246
 20
149.932343468
 10
42.1325346057
 20
150.303420218
 10
42.1198062858
 20
150.670279255
 10
42.1146154246
 20
151.032831268
 10
42.1169372449
 20
151.390987915
 10
42.1267451445
 20
151.744661849
 10
42.1440107083
 20
152.093766745
 10
42.1687037213
 20
152.438217328
 10
42.200792182
 20
152.777929399
 10
42.240242316
 20
153.112819865
 10
42.2870185908
 20
153.442806758
 10
42.3410837303
 20
153.767809272
 10
42.4023987301
 20
154.087747778
 10
42.4709228739
 20
154.402543855
 10
42.5466137492
 20
154.712120316
 10
42.6294272644
 20
155.016401229
 10
42.719317666
 20
155.315311943
 10
42.8162375564
 20
155.608779114
 10
42.920137912
 20
155.896730726
 10
43.0309681018
 20
156.179096114
 10
43.1486759067
 20
156.45580599
 10
43.2732075389
 20
156.726792461
 10
43.4045076618
 20
156.991989057
 10
43.5425194105
 20
157.251330745
 10
43.6871844125
 20
157.504753959
 10
43.838442809
 20
157.752196614
 10
43.9962332767
 20
157.993598128
 10
44.1604930495
 20
158.228899446
 10
44.3311579411
 20
158.458043053
 10
44.5081623677
 20
158.680972999
 10
44.6914393716
 20
158.897634913
 10
44.8809206441
 20
159.107976027
 10
45.0765365499
 20
159.311945186
 10
45.2782161512
 20
159.509492872
 10
45.4858872325
 20
159.700571218
 10
45.6994763253
 20
159.885134025
 10
45.9189087336
 20
160.063136776
 10
46.1441085594
 20
160.234536654
 10
46.3749987288
 20
160.399292556
 10
46.6115010179
 20
160.557365106
 10
46.8535360798
 20
160.708716671
 10
47.1010234712
 20
160.853311373
 10
47.3538816794
 20
160.991115102
 10
47.61202815
 20
161.122095528
 10
47.8753793142
 20
161.246222116
 10
48.1438506171
 20
161.36346613
 10
48.4173565453
 20
161.473800653
 10
48.6958106561
 20
161.577200589
 10
48.9791256053
 20
161.67364268
 10
49.2672131766
 20
161.763105507
 10
49.5599843104
 20
161.845569508
 10
49.8573491332
 20
161.921016976
 10
50.159216987
 20
161.989432077
 10
50.465496459
 20
162.050800848
 10
50.7760954111
 20
162.105111207
 10
51.0909210105
 20
162.152352962
 10
51.409879759
 20
162.19251781
 10
51.7328775243
 20
162.225599346
 10
52.0598195693
 20
162.251593068
 10
52.3906105836
 20
162.270496377
 10
52.7251547137
 20
162.282308582
 10
53.0633555937
 20
162.287030904
 10
53.4051163764
 20
162.284666473
 10
53.7503397642
 20
162.275220337
 10
54.0989280402
 20
162.258699456
 10
54.4507830989
 20
162.235112705
 10
54.8058064781
 20
162.204470874
 10
55.1638993894
 20
162.166786667
 10
55.5249627499
 20
162.122074698
 10
55.8888972135
 20
162.070351495
 10
56.2556032018
 20
162.011635489
 10
56.624980936
 20
161.945947019
 10
56.9969304677
 20
161.873308322
 10
57.3713517106
 20
161.793743533
 10
57.7481444715
 20
161.707278677
 10
58.1272084819
 20
161.613941668
 10
58.5084434291
 20
161.513762295
 10
58.8917489872
 20
161.406772225
 10
59.2770248484
 20
161.293004989
 10
59.6641707543
 20
161.172495978
 10
60.0530865265
 20
161.045282432
 10
60.4436720976
 20
160.911403434
 10
60.8358275424
 20
160.770899899
 10
61.229453108
 20
160.623814563
 10
61.6244492449
 20
160.470191978
 10
62.0207166372
 20
160.310078491
 10
62.4181562331
 20
160.143522245
 10
62.816669275
 20
159.970573157
 10
63.2161573296
 20
159.791282908
 10
63.616522318
 20
159.605704934
 10
64.0176665449
 20
159.413894407
 10
64.4194927286
 20
159.215908223
 10
64.8219040304
 20
159.01180499
 10
65.2248040835
 20
158.801645007
 10
65.6280970218
 20
158.585490252
 10
66.0316875094
 20
158.363404368
 10
66.4354807683
 20
158.135452641
 10
66.8393826071
 20
157.901701985
 10
67.2432994491
 20
157.662220928
 10
67.6471383599
 20
157.417079586
 10
68.050807075
 20
157.166349652
 10
68.4542140273
 20
156.910104372
 10
68.8572683738
 20
156.64841853
 10
69.2598800225
 20
156.381368421
 10
69.661959659
 20
156.109031838
 10
70.0634187722
 20
155.831488044
 10
70.4641696805
 20
155.548817758
 10
70.8641255574
 20
155.261103126
 10
71.2632004563
 20
154.968427702
 10
71.6613093357
 20
154.670876429
 10
72.0583680838
 20
154.368535606
 10
72.4542935422
 20
154.061492876
 10
72.8490035304
 20
153.749837192
 10
73.2424168688
 20
153.4336588
 10
73.6344534023
 20
153.11304921
 10
74.0250340223
 20
152.788101173
 10
74.41408069
 20
152.458908652
 10
74.8015164575
 20
152.125566801
 10
75.1872654901
 20
151.788171936
 10
75.5712530872
 20
151.446821508
 10
75.9534057029
 20
151.101614077
 10
76.3336509668
 20
150.752649285
 10
76.7119177036
 20
150.400027826
 10
77.088135953
 20
150.043851421
 10
77.4622369883
 20
149.684222788
 10
77.8341533356
 20
149.321245613
 10
78.2038187919
 20
148.955024524
 10
78.5711684426
 20
148.585665058
 10
78.9361386793
 20
148.213273632
 10
79.2986672163
 20
147.837957517
 10
79.6586931071
 20
147.459824803
 10
80.0161567608
 20
147.078984373
 10
80.370999957
 20
146.695545869
 10
80.723165861
 20
146.309619663
 10
81.0725990386
 20
145.921316826
 10
81.4192454698
 20
145.530749097
 10
81.7630525627
 20
145.138028848
 10
82.1039691663
 20
144.743269061
 10
82.4419455834
 20
144.346583284
 10
82.7769335822
 20
143.94808561
 10
83.1088864085
 20
143.547890639
 10
83.4377587961
 20
143.146113447
 10
83.7635069782
 20
142.742869552
 10
84.0860886968
 20
142.338274885
 10
84.4054632122
 20
141.932445754
 10
84.7215913128
 20
141.52549881
 10
85.0344353228
 20
141.11755102
 10
85.3439591106
 20
140.708719626
 10
85.6501280962
 20
140.299122117
 10
85.952909258
 20
139.888876194
 10
86.2522711397
 20
139.478099737
 10
86.5481838554
 20
139.066910772
 10
86.8406190958
 20
138.655427434
 10
87.1295501324
 20
138.24376794
 10
87.4149518223
 20
137.832050548
 10
87.6968006115
 20
137.420393529
 10
87.9750745384
 20
137.008915129
 10
88.2497532366
 20
136.59773354
 10
88.5208179368
 20
136.186966861
 10
88.7882514686
 20
135.776733071
 10
89.0520382614
 20
135.367149987
 10
89.3121643453
 20
134.958335237
 10
89.5686173508
 20
134.550406225
 10
89.8213865086
 20
134.143480094
 10
90.0704626481
 20
133.737673698
 10
90.3158381964
 20
133.333103564
 10
90.5575071756
 20
132.929885862
 10
90.7954652006
 20
132.528136368
 10
91.0297094758
 20
132.127970435
 10
91.2602387914
 20
131.729502958
 10
91.4870535188
 20
131.33284834
 10
91.7101556067
 20
130.938120462
 10
91.929548575
 20
130.545432648
 10
92.1452375093
 20
130.154897633
 10
92.3572290548
 20
129.766627531
 10
92.565531409
 20
129.380733803
 10
92.7701543148
 20
128.997327227
 10
92.9711090524
 20
128.61651786
 10
93.168408431
 20
128.238415014
 10
93.3620667798
 20
127.863127219
 10
93.5520999388
 20
127.490762196
 10
93.7385252489
 20
127.121426822
 10
93.9213615413
 20
126.755227103
 10
94.100629127
 20
126.39226814
 10
94.276349785
 20
126.032654103
 10
94.448546751
 20
125.676488197
 10
94.6172447046
 20
125.323872634
 10
94.7824697568
 20
124.974908606
 10
94.9442494364
 20
124.629696249
 10
95.1026126767
 20
124.288334624
 10
95.2575898011
 20
123.950921679
 10
95.4092125083
 20
123.617554227
 10
95.5575138574
 20
123.288327916
 10
95.7025282523
 20
122.963337201
 10
95.8442914256
 20
122.642675319
 10
95.9828404224
 20
122.326434258
 10
96.118213583
 20
122.014704735
 10
96.2504505261
 20
121.707576166
 10
96.3795921308
 20
121.405136645
 10
96.5056805186
 20
121.107472914
 10
96.6287590347
 20
120.814670339
 10
96.7488722293
 20
120.526812887
 10
96.866065838
 20
120.243983101
 10
96.9803867625
 20
119.966262076
 10
97.0918830499
 20
119.693729436
 10
97.2006038728
 20
119.42646331
 10
97.3065995081
 20
119.16454031
 10
97.4099213159
 20
118.908035511
 10
97.5106217179
 20
118.657022424
 10
97.6087541757
 20
118.411572982
 10
97.7043731681
 20
118.171757513
 10
97.7975341692
 20
117.937644722
 10
97.8882936245
 20
117.709301673
 10
97.9767089289
 20
117.486793768
 10
98.0628384021
 20
117.270184724
 10
98.1467412653
 20
117.059536565
 10
98.2284776169
 20
116.854909592
 10
98.3081084082
 20
116.656362375
 10
98.3856954186
 20
116.463951731
 10
98.4613012306
 20
116.277732708
 10
98.5349892047
 20
116.097758572
 10
98.6068234538
 20
115.924080789
 10
98.6768688175
 20
115.756749011
 10
98.7451908361
 20
115.595811061
 10
98.8118557243
 20
115.441312919
 10
98.8769303452
 20
115.29329871
 10
98.9404821831
 20
115.151810692
 10
99.0025793171
 20
115.016889241
 10
99.0632903939
 20
114.88857284
 10
99.1226846004
 20
114.766898071
 10
99.1808316367
 20
114.651899599
 10
99.2378016883
 20
114.543610169
 10
99.2936653984
 20
114.442060588
 10
99.3484938401
 20
114.347279723
 10
99.4023584883
 20
114.259294492
 10
99.4553311916
 20
114.178129852
 10
99.5074841441
 20
114.103808795
 10
99.558889857
 20
114.036352341
 10
99.6096211302
 20
113.975779532
 10
99.6597510233
 20
113.922107425
 10
99.7093528277
 20
113.875351089
 10
99.7585000373
 20
113.8355236
 10
99.8072663196
 20
113.802636037
 10
99.8557254875
 20
113.776697479
 10
99.9039514698
 20
113.757715002
 10
99.9520182826
 20
113.745693677
 10
100.0
 20
113.740636569
 97
0
 75
1
 76
1
 98
1
 10
0.0
 20
0.0
  0
ENDSEC
  0
SECTION
  2
OBJECTS
  0
DICTIONARY
  5
C
330
0
100
AcDbDictionary
281
1
  3
ACAD_COLOR
350
4E1
  3
ACAD_GROUP
350
4E2
  3
ACAD_LAYOUT
350
4E3
  3
ACAD_MATERIAL
350
4E4
  3
ACAD_MLEADERSTYLE
350
4E5
  3
ACAD_MLINESTYLE
350
4E6
  3
ACAD_PLOTSETTINGS
350
4E7
  3
ACAD_PLOTSTYLENAME
350
4E9
  3
ACAD_SCALELIST
350
4EA
  3
ACAD_TABLESTYLE
350
4EB
  3
ACAD_VISUALSTYLE
350
4EC
  0
DICTIONARY
  5
4E1
330
C
100
AcDbDictionary
281
1
  0
DICTIONARY
  5
4E2
330
C
100
AcDbDictionary
281
1
  0
DICTIONARY
  5
4E3
330
C
100
AcDbDictionary
281
1
  3
Model
350
4ED
  3
Layout1
350
4EE
  0
DICTIONARY
  5
4E4
330
C
100
AcDbDictionary
281
1
  0
DICTIONARY
  5
4E5
330
C
100
AcDbDictionary
281
1
  0
DICTIONARY
  5
4E6
330
C
100
AcDbDictionary
281
1
  0
DICTIONARY
  5
4E7
330
C
100
AcDbDictionary
281
1
  0
ACDBPLACEHOLDER
  5
4E8
330
4E9
  0
ACDBDICTIONARYWDFLT
  5
4E9
330
C
100
AcDbDictionary
281
1
  3
Normal
350
4E8
100
AcDbDictionaryWithDefault
340
4E8
  0
DICTIONARY
  5
4EA
330
C
100
AcDbDictionary
281
1
  0
DICTIONARY
  5
4EB
330
C
100
AcDbDictionary
281
1
  0
DICTIONARY
  5
4EC
330
C
100
AcDbDictionary
281
1
  0
LAYOUT
  5
4ED
330
4E3
100
AcDbPlotSettings
  1

  2
DWFx ePlot (XPS Compatible).pc3
  4
ANSI_A_(8.50_x_11.00_Inches)
  6

 40
5.8
 41
17.8
 42
5.8
 43
17.8
 44
215.9
 45
279.4
 46
0.0
 47
0.0
 48
0.0
 49
0.0
140
0.0
141
0.0
142
1.0
143
14.53
 70
11952
 72
0
 73
1
 74
0
  7

 75
0
147
0.069
148
114.98
149
300.29
100
AcDbLayout
  1
Model
 70
1
 71
0
 10
0.0
 20
0.0
 11
12.0
 21
9.0
 12
0.0
 22
0.0
 32
0.0
 14
0.0
 24
0.0
 34
0.0
 15
0.0
 25
0.0
 35
0.0
146
0.0
 13
0.0
 23
0.0
 33
0.0
 16
1.0
 26
0.0
 36
0.0
 17
0.0
 27
1.0
 37
0.0
 76
0
330
1F
  0
LAYOUT
  5
4EE
330
4E3
100
AcDbPlotSettings
  1

  2
DWFx ePlot (XPS Compatible).pc3
  4
ANSI_A_(8.50_x_11.00_Inches)
  6

 40
5.8
 41
17.8
 42
5.8
 43
17.8
 44
215.9
 45
279.4
 46
0.0
 47
0.0
 48
0.0
 49
0.0
140
0.0
141
0.0
142
1.0
143
1.0
 70
688
 72
0
 73
1
 74
5
  7
acad.ctb
 75
16
147
1.0
148
0.0
149
0.0
100
AcDbLayout
  1
Layout1
 70
1
 71
1
 10
-0.7
 20
-0.23
 11
10.3
 21
8.27
 12
0.0
 22
0.0
 32
0.0
 14
0.63
 24
0.8
 34
0.0
 15
9.0
 25
7.2
 35
0.0
146
0.0
 13
0.0
 23
0.0
 33
0.0
 16
1.0
 26
0.0
 36
0.0
 17
0.0
 27
1.0
 37
0.0
 76
0
330
58
  0
ENDSEC
  0
EOF
