999
dxflib 2.0.4.8
  0
SECTION
  2
HEADER
  9
$ACADVER
  1
AC1015
  9
$HANDSEED
  5
FFFF
  9
$DIMASZ
 40
2.5
  9
$DIMGAP
 40
0.625
  9
$DIMEXO
 40
0.625
  9
$INSUNITS
 70
4
  9
$DIMTXT
 40
2.5
  9
$PLIMMAX
 10
210.0
 20
297.0
  9
$PLIMMIN
 10
0.0
 20
0.0
  9
$DIMEXE
 40
1.25
  0
ENDSEC
  0
SECTION
  2
TABLES
  0
TABLE
  2
VPORT
  5
8
100
AcDbSymbolTable
 70
1
  0
VPORT
  5
30
100
AcDbSymbolTableRecord
100
AcDbViewportTableRecord
  2
*Active
 70
0
 10
0.0
 20
0.0
 11
1.0
 21
1.0
 12
286.3055555555554861
 22
148.5
 13
0.0
 23
0.0
 14
10.0
 24
10.0
 15
10.0
 25
10.0
 16
0.0
 26
0.0
 36
1.0
 17
0.0
 27
0.0
 37
0.0
 40
297.0
 41
1.92798353909465
 42
50.0
 43
0.0
 44
0.0
 50
0.0
 51
0.0
 71
0
 72
100
 73
1
 74
3
 75
1
 76
1
 77
0
 78
0
281
0
 65
1
110
0.0
120
0.0
130
0.0
111
1.0
121
0.0
131
0.0
112
0.0
122
1.0
132
0.0
 79
0
146
0.0
  0
ENDTAB
  0
TABLE
  2
LTYPE
  5
5
100
AcDbSymbolTable
 70
21
  0
LTYPE
  5
14
100
AcDbSymbolTableRecord
100
AcDbLinetypeTableRecord
  2
ByBlock
 70
0
  3

 72
65
 73
0
 40
0.0
  0
LTYPE
  5
15
100
AcDbSymbolTableRecord
100
AcDbLinetypeTableRecord
  2
ByLayer
 70
0
  3

 72
65
 73
0
 40
0.0
  0
LTYPE
  5
16
100
AcDbSymbolTableRecord
100
AcDbLinetypeTableRecord
  2
CONTINUOUS
 70
0
  3
Solid line
 72
65
 73
0
 40
0.0
  0
LTYPE
  5
31
100
AcDbSymbolTableRecord
100
AcDbLinetypeTableRecord
  2
DOT
 70
0
  3
Dot . . . . . . . . . . . . . . . . . . . . . .
 72
65
 73
2
 40
6.3499999999999996
 49
0.0
 74
0
 49
-6.3499999999999996
 74
0
  0
LTYPE
  5
32
100
AcDbSymbolTableRecord
100
AcDbLinetypeTableRecord
  2
DOT2
 70
0
  3
Dot (.5x) .....................................
 72
65
 73
2
 40
3.1749999999999998
 49
0.0
 74
0
 49
-3.1749999999999998
 74
0
  0
LTYPE
  5
33
100
AcDbSymbolTableRecord
100
AcDbLinetypeTableRecord
  2
DOTX2
 70
0
  3
Dot (2x) .  .  .  .  .  .  .  .  .  .  .  .  .
 72
65
 73
2
 40
12.6999999999999993
 49
0.0
 74
0
 49
-12.6999999999999993
 74
0
  0
LTYPE
  5
34
100
AcDbSymbolTableRecord
100
AcDbLinetypeTableRecord
  2
DASHED
 70
0
  3
Dashed __ __ __ __ __ __ __ __ __ __ __ __ __ _
 72
65
 73
2
 40
19.0500000000000007
 49
12.6999999999999993
 74
0
 49
-6.3499999999999996
 74
0
  0
LTYPE
  5
35
100
AcDbSymbolTableRecord
100
AcDbLinetypeTableRecord
  2
DASHED2
 70
0
  3
Dashed (.5x) _ _ _ _ _ _ _ _ _ _ _ _ _ _ _ _ _
 72
65
 73
2
 40
9.5250000000000004
 49
6.3499999999999996
 74
0
 49
-3.1749999999999998
 74
0
  0
LTYPE
  5
36
100
AcDbSymbolTableRecord
100
AcDbLinetypeTableRecord
  2
DASHEDX2
 70
0
  3
Dashed (2x) ____  ____  ____  ____  ____  ___
 72
65
 73
2
 40
38.1000000000000014
 49
25.3999999999999986
 74
0
 49
-12.6999999999999993
 74
0
  0
LTYPE
  5
37
100
AcDbSymbolTableRecord
100
AcDbLinetypeTableRecord
  2
DASHDOT
 70
0
  3
Dash dot __ . __ . __ . __ . __ . __ . __ . __
 72
65
 73
4
 40
25.3999999999999986
 49
12.6999999999999993
 74
0
 49
-6.3499999999999996
 74
0
 49
0.0
 74
0
 49
-6.3499999999999996
 74
0
  0
LTYPE
  5
38
100
AcDbSymbolTableRecord
100
AcDbLinetypeTableRecord
  2
DASHDOT2
 70
0
  3
Dash dot (.5x) _._._._._._._._._._._._._._._.
 72
65
 73
4
 40
12.6999999999999993
 49
6.3499999999999996
 74
0
 49
-3.1749999999999998
 74
0
 49
0.0
 74
0
 49
-3.1749999999999998
 74
0
  0
LTYPE
  5
39
100
AcDbSymbolTableRecord
100
AcDbLinetypeTableRecord
  2
DASHDOTX2
 70
0
  3
Dash dot (2x) ____  .  ____  .  ____  .  ___
 72
65
 73
4
 40
50.7999999999999972
 49
25.3999999999999986
 74
0
 49
-12.6999999999999993
 74
0
 49
0.0
 74
0
 49
-12.6999999999999993
 74
0
  0
LTYPE
  5
3A
100
AcDbSymbolTableRecord
100
AcDbLinetypeTableRecord
  2
DIVIDE
 70
0
  3
Divide ____ . . ____ . . ____ . . ____ . . ____
 72
65
 73
6
 40
31.75
 49
12.6999999999999993
 74
0
 49
-6.3499999999999996
 74
0
 49
0.0
 74
0
 49
-6.3499999999999996
 74
0
 49
0.0
 74
0
 49
-6.3499999999999996
 74
0
  0
LTYPE
  5
3B
100
AcDbSymbolTableRecord
100
AcDbLinetypeTableRecord
  2
DIVIDE2
 70
0
  3
Divide (.5x) __..__..__..__..__..__..__..__.._
 72
65
 73
6
 40
15.875
 49
6.3499999999999996
 74
0
 49
-3.1749999999999998
 74
0
 49
0.0
 74
0
 49
-3.1749999999999998
 74
0
 49
0.0
 74
0
 49
-3.1749999999999998
 74
0
  0
LTYPE
  5
3C
100
AcDbSymbolTableRecord
100
AcDbLinetypeTableRecord
  2
DIVIDEX2
 70
0
  3
Divide (2x) ________  .  .  ________  .  .  _
 72
65
 73
6
 40
63.5
 49
25.3999999999999986
 74
0
 49
-12.6999999999999993
 74
0
 49
0.0
 74
0
 49
-12.6999999999999993
 74
0
 49
0.0
 74
0
 49
-12.6999999999999993
 74
0
  0
LTYPE
  5
3D
100
AcDbSymbolTableRecord
100
AcDbLinetypeTableRecord
  2
CENTER
 70
0
  3
Center ____ _ ____ _ ____ _ ____ _ ____ _ ____
 72
65
 73
4
 40
50.7999999999999972
 49
31.75
 74
0
 49
-6.3499999999999996
 74
0
 49
6.3499999999999996
 74
0
 49
-6.3499999999999996
 74
0
  0
LTYPE
  5
3E
100
AcDbSymbolTableRecord
100
AcDbLinetypeTableRecord
  2
CENTER2
 70
0
  3
Center (.5x) ___ _ ___ _ ___ _ ___ _ ___ _ ___
 72
65
 73
4
 40
28.5749999999999993
 49
19.0500000000000007
 74
0
 49
-3.1749999999999998
 74
0
 49
3.1749999999999998
 74
0
 49
-3.1749999999999998
 74
0
  0
LTYPE
  5
3F
100
AcDbSymbolTableRecord
100
AcDbLinetypeTableRecord
  2
CENTERX2
 70
0
  3
Center (2x) ________  __  ________  __  _____
 72
65
 73
4
 40
101.5999999999999943
 49
63.5
 74
0
 49
-12.6999999999999993
 74
0
 49
12.6999999999999993
 74
0
 49
-12.6999999999999993
 74
0
  0
LTYPE
  5
40
100
AcDbSymbolTableRecord
100
AcDbLinetypeTableRecord
  2
BORDER
 70
0
  3
Border __ __ . __ __ . __ __ . __ __ . __ __ .
 72
65
 73
6
 40
44.4500000000000028
 49
12.6999999999999993
 74
0
 49
-6.3499999999999996
 74
0
 49
12.6999999999999993
 74
0
 49
-6.3499999999999996
 74
0
 49
0.0
 74
0
 49
-6.3499999999999996
 74
0
  0
LTYPE
  5
41
100
AcDbSymbolTableRecord
100
AcDbLinetypeTableRecord
  2
BORDER2
 70
0
  3
Border (.5x) __.__.__.__.__.__.__.__.__.__.__.
 72
65
 73
6
 40
22.2250000000000014
 49
6.3499999999999996
 74
0
 49
-3.1749999999999998
 74
0
 49
6.3499999999999996
 74
0
 49
-3.1749999999999998
 74
0
 49
0.0
 74
0
 49
-3.1749999999999998
 74
0
  0
LTYPE
  5
42
100
AcDbSymbolTableRecord
100
AcDbLinetypeTableRecord
  2
BORDERX2
 70
0
  3
Border (2x) ____  ____  .  ____  ____  .  ___
 72
65
 73
6
 40
88.9000000000000057
 49
25.3999999999999986
 74
0
 49
-12.6999999999999993
 74
0
 49
25.3999999999999986
 74
0
 49
-12.6999999999999993
 74
0
 49
0.0
 74
0
 49
-12.6999999999999993
 74
0
  0
ENDTAB
  0
TABLE
  2
LAYER
  5
2
100
AcDbSymbolTable
 70
6
  0
LAYER
  5
10
100
AcDbSymbolTableRecord
100
AcDbLayerTableRecord
  2
0
 70
0
 62
7
  6
CONTINUOUS
370
0
390
F
  0
LAYER
  5
43
100
AcDbSymbolTableRecord
100
AcDbLayerTableRecord
  2
1
 70
0
 62
6
  6
CONTINUOUS
370
0
390
F
  0
LAYER
  5
44
100
AcDbSymbolTableRecord
100
AcDbLayerTableRecord
  2
2
 70
0
 62
2
  6
CONTINUOUS
370
0
390
F
  0
LAYER
  5
45
100
AcDbSymbolTableRecord
100
AcDbLayerTableRecord
  2
3
 70
0
 62
3
  6
CONTINUOUS
370
0
390
F
  0
LAYER
  5
46
100
AcDbSymbolTableRecord
100
AcDbLayerTableRecord
  2
4
 70
0
 62
1
  6
CONTINUOUS
370
0
390
F
  0
LAYER
  5
47
100
AcDbSymbolTableRecord
100
AcDbLayerTableRecord
  2
5
 70
0
 62
5
  6
CONTINUOUS
370
0
390
F
  0
ENDTAB
  0
TABLE
  2
STYLE
  5
3
100
AcDbSymbolTable
 70
1
  0
STYLE
  5
11
100
AcDbSymbolTableRecord
100
AcDbTextStyleTableRecord
  2
Standard
 70
0
 40
0.0
 41
0.75
 50
0.0
 71
0
 42
2.5
  3
txt
  4

  0
ENDTAB
  0
TABLE
  2
VIEW
  5
6
100
AcDbSymbolTable
 70
0
  0
ENDTAB
  0
TABLE
  2
UCS
  5
7
100
AcDbSymbolTable
 70
0
  0
ENDTAB
  0
TABLE
  2
APPID
  5
9
100
AcDbSymbolTable
 70
1
  0
APPID
  5
12
100
AcDbSymbolTableRecord
100
AcDbRegAppTableRecord
  2
ACAD
 70
0
  0
ENDTAB
  0
TABLE
  2
DIMSTYLE
  5
A
100
AcDbSymbolTable
 70
1
100
AcDbDimStyleTable
 71
0
  0
DIMSTYLE
105
27
100
AcDbSymbolTableRecord
100
AcDbDimStyleTableRecord
  2
Standard
 41
2.5
 42
0.625
 43
3.75
 44
1.25
 70
0
 73
0
 74
0
 77
1
 78
8
140
2.5
141
2.5
143
0.03937007874016
147
0.625
171
3
172
1
271
2
272
2
274
3
278
44
283
0
284
8
340
11
  0
ENDTAB
  0
TABLE
  2
BLOCK_RECORD
  5
1
100
AcDbSymbolTable
 70
1
  0
BLOCK_RECORD
  5
1F
100
AcDbSymbolTableRecord
100
AcDbBlockTableRecord
  2
*Model_Space
340
22
  0
BLOCK_RECORD
  5
1B
100
AcDbSymbolTableRecord
100
AcDbBlockTableRecord
  2
*Paper_Space
340
1E
  0
BLOCK_RECORD
  5
23
100
AcDbSymbolTableRecord
100
AcDbBlockTableRecord
  2
*Paper_Space0
340
26
  0
ENDTAB
  0
ENDSEC
  0
SECTION
  2
BLOCKS
  0
BLOCK
  5
20
100
AcDbEntity
  8
0
100
AcDbBlockBegin
  2
*Model_Space
 70
0
 10
0.0
 20
0.0
 30
0.0
  3
*Model_Space
  1

  0
ENDBLK
  5
21
100
AcDbEntity
  8
0
100
AcDbBlockEnd
  0
BLOCK
  5
1C
100
AcDbEntity
 67
1
  8
0
100
AcDbBlockBegin
  2
*Paper_Space
 70
0
 10
0.0
 20
0.0
 30
0.0
  3
*Paper_Space
  1

  0
ENDBLK
  5
1D
100
AcDbEntity
 67
1
  8
0
100
AcDbBlockEnd
  0
BLOCK
  5
24
100
AcDbEntity
  8
0
100
AcDbBlockBegin
  2
*Paper_Space0
 70
0
 10
0.0
 20
0.0
 30
0.0
  3
*Paper_Space0
  1

  0
ENDBLK
  5
25
100
AcDbEntity
  8
0
100
AcDbBlockEnd
  0
ENDSEC
  0
SECTION
  2
ENTITIES
  0
LINE
5
48
100
AcDbEntity
100
AcDbLine
8
3
62
256
370
-1
6
ByLayer
10
120.0
20
100.0
30
0.0
11
120.006091266
21
100.000106323
31
0.0
0
LINE
5
49
100
AcDbEntity
100
AcDbLine
8
3
62
256
370
-1
6
ByLayer
10
120.006091266
20
100.000106323
30
0.0
11
120.024352076
21
100.000850393
31
0.0
0
LINE
5
50
100
AcDbEntity
100
AcDbLine
8
3
62
256
370
-1
6
ByLayer
10
120.024352076
20
100.000850393
30
0.0
11
120.054743483
21
100.002868984
31
0.0
0
LINE
5
51
100
AcDbEntity
100
AcDbLine
8
3
62
256
370
-1
6
ByLayer
10
120.054743483
20
100.002868984
30
0.0
11
120.097200636
21
100.006796931
31
0.0
0
LINE
5
52
100
AcDbEntity
100
AcDbLine
8
3
62
256
370
-1
6
ByLayer
10
120.097200636
20
100.006796931
30
0.0
11
120.151632863
21
100.013266157
31
0.0
0
LINE
5
53
100
AcDbEntity
100
AcDbLine
8
3
62
256
370
-1
6
ByLayer
10
120.151632863
20
100.013266157
30
0.0
11
120.2179238
21
100.022904714
31
0.0
0
LINE
5
54
100
AcDbEntity
100
AcDbLine
8
3
62
256
370
-1
6
ByLayer
10
120.2179238
20
100.022904714
30
0.0
11
120.29593154
21
100.036335824
31
0.0
0
LINE
5
55
100
AcDbEntity
100
AcDbLine
8
3
62
256
370
-1
6
ByLayer
10
120.29593154
20
100.036335824
30
0.0
11
120.385488831
21
100.054176922
31
0.0
0
LINE
5
56
100
AcDbEntity
100
AcDbLine
8
3
62
256
370
-1
6
ByLayer
10
120.385488831
20
100.054176922
30
0.0
11
120.486403298
21
100.077038714
31
0.0
0
LINE
5
57
100
AcDbEntity
100
AcDbLine
8
3
62
256
370
-1
6
ByLayer
10
120.486403298
20
100.077038714
30
0.0
11
120.598457705
21
100.10552424
31
0.0
0
LINE
5
58
100
AcDbEntity
100
AcDbLine
8
3
62
256
370
-1
6
ByLayer
10
120.598457705
20
100.10552424
30
0.0
11
120.721410247
21
100.140227947
31
0.0
0
LINE
5
59
100
AcDbEntity
100
AcDbLine
8
3
62
256
370
-1
6
ByLayer
10
120.721410247
20
100.140227947
30
0.0
11
120.854994877
21
100.181734771
31
0.0
0
LINE
5
60
100
AcDbEntity
100
AcDbLine
8
3
62
256
370
-1
6
ByLayer
10
120.854994877
20
100.181734771
30
0.0
11
120.998921665
21
100.230619238
31
0.0
0
LINE
5
61
100
AcDbEntity
100
AcDbLine
8
3
62
256
370
-1
6
ByLayer
10
120.998921665
20
100.230619238
30
0.0
11
121.152877194
21
100.287444568
31
0.0
0
LINE
5
62
100
AcDbEntity
100
AcDbLine
8
3
62
256
370
-1
6
ByLayer
10
121.152877194
20
100.287444568
30
0.0
11
121.316524976
21
100.352761804
31
0.0
0
LINE
5
63
100
AcDbEntity
100
AcDbLine
8
3
62
256
370
-1
6
ByLayer
10
121.316524976
20
100.352761804
30
0.0
11
121.489505914
21
100.427108948
31
0.0
0
LINE
5
64
100
AcDbEntity
100
AcDbLine
8
3
62
256
370
-1
6
ByLayer
10
121.489505914
20
100.427108948
30
0.0
11
121.671438787
21
100.511010119
31
0.0
0
LINE
5
65
100
AcDbEntity
100
AcDbLine
8
3
62
256
370
-1
6
ByLayer
10
121.671438787
20
100.511010119
30
0.0
11
121.861920764
21
100.604974729
31
0.0
0
LINE
5
66
100
AcDbEntity
100
AcDbLine
8
3
62
256
370
-1
6
ByLayer
10
121.861920764
20
100.604974729
30
0.0
11
122.060527952
21
100.709496672
31
0.0
0
LINE
5
67
100
AcDbEntity
100
AcDbLine
8
3
62
256
370
-1
6
ByLayer
10
122.060527952
20
100.709496672
30
0.0
11
122.266815969
21
100.825053539
31
0.0
0
LINE
5
68
100
AcDbEntity
100
AcDbLine
8
3
62
256
370
-1
6
ByLayer
10
122.266815969
20
100.825053539
30
0.0
11
122.48032055
21
100.952105855
31
0.0
0
LINE
5
69
100
AcDbEntity
100
AcDbLine
8
3
62
256
370
-1
6
ByLayer
10
122.48032055
20
100.952105855
30
0.0
11
122.700558176
21
101.091096327
31
0.0
0
LINE
5
70
100
AcDbEntity
100
AcDbLine
8
3
62
256
370
-1
6
ByLayer
10
122.700558176
20
101.091096327
30
0.0
11
122.927026729
21
101.242449133
31
0.0
0
LINE
5
71
100
AcDbEntity
100
AcDbLine
8
3
62
256
370
-1
6
ByLayer
10
122.927026729
20
101.242449133
30
0.0
11
123.159206178
21
101.406569213
31
0.0
0
LINE
5
72
100
AcDbEntity
100
AcDbLine
8
3
62
256
370
-1
6
ByLayer
10
123.159206178
20
101.406569213
30
0.0
11
123.396559288
21
101.583841607
31
0.0
0
LINE
5
73
100
AcDbEntity
100
AcDbLine
8
3
62
256
370
-1
6
ByLayer
10
123.396559288
20
101.583841607
30
0.0
11
123.638532345
21
101.774630799
31
0.0
0
LINE
5
74
100
AcDbEntity
100
AcDbLine
8
3
62
256
370
-1
6
ByLayer
10
123.638532345
20
101.774630799
30
0.0
11
123.884555922
21
101.979280102
31
0.0
0
LINE
5
75
100
AcDbEntity
100
AcDbLine
8
3
62
256
370
-1
6
ByLayer
10
123.884555922
20
101.979280102
30
0.0
11
124.134045645
21
102.19811106
31
0.0
0
LINE
5
76
100
AcDbEntity
100
AcDbLine
8
3
62
256
370
-1
6
ByLayer
10
124.134045645
20
102.19811106
30
0.0
11
124.386403001
21
102.431422887
31
0.0
0
LINE
5
77
100
AcDbEntity
100
AcDbLine
8
3
62
256
370
-1
6
ByLayer
10
124.386403001
20
102.431422887
30
0.0
11
124.641016151
21
102.679491924
31
0.0
0
LINE
5
78
100
AcDbEntity
100
AcDbLine
8
3
62
256
370
-1
6
ByLayer
10
124.641016151
20
102.679491924
30
0.0
11
124.897260772
21
102.942571139
31
0.0
0
LINE
5
79
100
AcDbEntity
100
AcDbLine
8
3
62
256
370
-1
6
ByLayer
10
124.897260772
20
102.942571139
30
0.0
11
125.154500911
21
103.220889643
31
0.0
0
LINE
5
80
100
AcDbEntity
100
AcDbLine
8
3
62
256
370
-1
6
ByLayer
10
125.154500911
20
103.220889643
30
0.0
11
125.412089856
21
103.514652248
31
0.0
0
LINE
5
81
100
AcDbEntity
100
AcDbLine
8
3
62
256
370
-1
6
ByLayer
10
125.412089856
20
103.514652248
30
0.0
11
125.669371034
21
103.824039047
31
0.0
0
LINE
5
82
100
AcDbEntity
100
AcDbLine
8
3
62
256
370
-1
6
ByLayer
10
125.669371034
20
103.824039047
30
0.0
11
125.925678905
21
104.149205038
31
0.0
0
LINE
5
83
100
AcDbEntity
100
AcDbLine
8
3
62
256
370
-1
6
ByLayer
10
125.925678905
20
104.149205038
30
0.0
11
126.180339887
21
104.490279766
31
0.0
0
LINE
5
84
100
AcDbEntity
100
AcDbLine
8
3
62
256
370
-1
6
ByLayer
10
126.180339887
20
104.490279766
30
0.0
11
126.432673286
21
104.847367007
31
0.0
0
LINE
5
85
100
AcDbEntity
100
AcDbLine
8
3
62
256
370
-1
6
ByLayer
10
126.432673286
20
104.847367007
30
0.0
11
126.681992232
21
105.220544488
31
0.0
0
LINE
5
86
100
AcDbEntity
100
AcDbLine
8
3
62
256
370
-1
6
ByLayer
10
126.681992232
20
105.220544488
30
0.0
11
126.927604642
21
105.609863627
31
0.0
0
LINE
5
87
100
AcDbEntity
100
AcDbLine
8
3
62
256
370
-1
6
ByLayer
10
126.927604642
20
105.609863627
30
0.0
11
127.168814171
21
106.015349327
31
0.0
0
LINE
5
88
100
AcDbEntity
100
AcDbLine
8
3
62
256
370
-1
6
ByLayer
10
127.168814171
20
106.015349327
30
0.0
11
127.40492119
21
106.436999785
31
0.0
0
LINE
5
89
100
AcDbEntity
100
AcDbLine
8
3
62
256
370
-1
6
ByLayer
10
127.40492119
20
106.436999785
30
0.0
11
127.635223754
21
106.874786347
31
0.0
0
LINE
5
90
100
AcDbEntity
100
AcDbLine
8
3
62
256
370
-1
6
ByLayer
10
127.635223754
20
106.874786347
30
0.0
11
127.85901859
21
107.328653397
31
0.0
0
LINE
5
91
100
AcDbEntity
100
AcDbLine
8
3
62
256
370
-1
6
ByLayer
10
127.85901859
20
107.328653397
30
0.0
11
128.07560208
21
107.798518278
31
0.0
0
LINE
5
92
100
AcDbEntity
100
AcDbLine
8
3
62
256
370
-1
6
ByLayer
10
128.07560208
20
107.798518278
30
0.0
11
128.284271247
21
108.284271247
31
0.0
0
LINE
5
93
100
AcDbEntity
100
AcDbLine
8
3
62
256
370
-1
6
ByLayer
10
128.284271247
20
108.284271247
30
0.0
11
128.484324752
21
108.785775473
31
0.0
0
LINE
5
94
100
AcDbEntity
100
AcDbLine
8
3
62
256
370
-1
6
ByLayer
10
128.484324752
20
108.785775473
30
0.0
11
128.675063877
21
109.30286706
31
0.0
0
LINE
5
95
100
AcDbEntity
100
AcDbLine
8
3
62
256
370
-1
6
ByLayer
10
128.675063877
20
109.30286706
30
0.0
11
128.85579352
21
109.835355112
31
0.0
0
LINE
5
96
100
AcDbEntity
100
AcDbLine
8
3
62
256
370
-1
6
ByLayer
10
128.85579352
20
109.835355112
30
0.0
11
129.025823179
21
110.383021834
31
0.0
0
LINE
5
97
100
AcDbEntity
100
AcDbLine
8
3
62
256
370
-1
6
ByLayer
10
129.025823179
20
110.383021834
30
0.0
11
129.184467941
21
110.945622665
31
0.0
0
LINE
5
98
100
AcDbEntity
100
AcDbLine
8
3
62
256
370
-1
6
ByLayer
10
129.184467941
20
110.945622665
30
0.0
11
129.331049458
21
111.522886444
31
0.0
0
LINE
5
99
100
AcDbEntity
100
AcDbLine
8
3
62
256
370
-1
6
ByLayer
10
129.331049458
20
111.522886444
30
0.0
11
129.464896925
21
112.114515619
31
0.0
0
LINE
5
100
100
AcDbEntity
100
AcDbLine
8
3
62
256
370
-1
6
ByLayer
10
129.464896925
20
112.114515619
30
0.0
11
129.585348042
21
112.720186483
31
0.0
0
LINE
5
101
100
AcDbEntity
100
AcDbLine
8
3
62
256
370
-1
6
ByLayer
10
129.585348042
20
112.720186483
30
0.0
11
129.691749979
21
113.339549449
31
0.0
0
LINE
5
102
100
AcDbEntity
100
AcDbLine
8
3
62
256
370
-1
6
ByLayer
10
129.691749979
20
113.339549449
30
0.0
11
129.783460321
21
113.972229356
31
0.0
0
LINE
5
103
100
AcDbEntity
100
AcDbLine
8
3
62
256
370
-1
6
ByLayer
10
129.783460321
20
113.972229356
30
0.0
11
129.859848007
21
114.617825811
31
0.0
0
LINE
5
104
100
AcDbEntity
100
AcDbLine
8
3
62
256
370
-1
6
ByLayer
10
129.859848007
20
114.617825811
30
0.0
11
129.920294262
21
115.275913565
31
0.0
0
LINE
5
105
100
AcDbEntity
100
AcDbLine
8
3
62
256
370
-1
6
ByLayer
10
129.920294262
20
115.275913565
30
0.0
11
129.964193505
21
115.94604292
31
0.0
0
LINE
5
106
100
AcDbEntity
100
AcDbLine
8
3
62
256
370
-1
6
ByLayer
10
129.964193505
20
115.94604292
30
0.0
11
129.990954252
21
116.627740171
31
0.0
0
LINE
5
107
100
AcDbEntity
100
AcDbLine
8
3
62
256
370
-1
6
ByLayer
10
129.990954252
20
116.627740171
30
0.0
11
130.0
21
117.320508076
31
0.0
0
LINE
5
108
100
AcDbEntity
100
AcDbLine
8
3
62
256
370
-1
6
ByLayer
10
130.0
20
117.320508076
30
0.0
11
129.990770094
21
118.023826362
31
0.0
0
LINE
5
109
100
AcDbEntity
100
AcDbLine
8
3
62
256
370
-1
6
ByLayer
10
129.990770094
20
118.023826362
30
0.0
11
129.962720581
21
118.737152263
31
0.0
0
LINE
5
110
100
AcDbEntity
100
AcDbLine
8
3
62
256
370
-1
6
ByLayer
10
129.962720581
20
118.737152263
30
0.0
11
129.915325035
21
119.45992108
31
0.0
0
LINE
5
111
100
AcDbEntity
100
AcDbLine
8
3
62
256
370
-1
6
ByLayer
10
129.915325035
20
119.45992108
30
0.0
11
129.848075378
21
120.19154678
31
0.0
0
LINE
5
112
100
AcDbEntity
100
AcDbLine
8
3
62
256
370
-1
6
ByLayer
10
129.848075378
20
120.19154678
30
0.0
11
129.760482663
21
120.931422619
31
0.0
0
LINE
5
113
100
AcDbEntity
100
AcDbLine
8
3
62
256
370
-1
6
ByLayer
10
129.760482663
20
120.931422619
30
0.0
11
129.65207785
21
121.678921796
31
0.0
0
LINE
5
114
100
AcDbEntity
100
AcDbLine
8
3
62
256
370
-1
6
ByLayer
10
129.65207785
20
121.678921796
30
0.0
11
129.522412549
21
122.433398131
31
0.0
0
LINE
5
115
100
AcDbEntity
100
AcDbLine
8
3
62
256
370
-1
6
ByLayer
10
129.522412549
20
122.433398131
30
0.0
11
129.371059743
21
123.194186774
31
0.0
0
LINE
5
116
100
AcDbEntity
100
AcDbLine
8
3
62
256
370
-1
6
ByLayer
10
129.371059743
20
123.194186774
30
0.0
11
129.197614491
21
123.960604933
31
0.0
0
LINE
5
117
100
AcDbEntity
100
AcDbLine
8
3
62
256
370
-1
6
ByLayer
10
129.197614491
20
123.960604933
30
0.0
11
129.001694595
21
124.731952638
31
0.0
0
LINE
5
118
100
AcDbEntity
100
AcDbLine
8
3
62
256
370
-1
6
ByLayer
10
129.001694595
20
124.731952638
30
0.0
11
128.78294125
21
125.507513518
31
0.0
0
LINE
5
119
100
AcDbEntity
100
AcDbLine
8
3
62
256
370
-1
6
ByLayer
10
128.78294125
20
125.507513518
30
0.0
11
128.541019662
21
126.286555606
31
0.0
0
LINE
5
120
100
AcDbEntity
100
AcDbLine
8
3
62
256
370
-1
6
ByLayer
10
128.541019662
20
126.286555606
30
0.0
11
128.27561964
21
127.068332169
31
0.0
0
LINE
5
121
100
AcDbEntity
100
AcDbLine
8
3
62
256
370
-1
6
ByLayer
10
128.27561964
20
127.068332169
30
0.0
11
127.986456156
21
127.852082553
31
0.0
0
LINE
5
122
100
AcDbEntity
100
AcDbLine
8
3
62
256
370
-1
6
ByLayer
10
127.986456156
20
127.852082553
30
0.0
11
127.67326988
21
128.637033052
31
0.0
0
LINE
5
123
100
AcDbEntity
100
AcDbLine
8
3
62
256
370
-1
6
ByLayer
10
127.67326988
20
128.637033052
30
0.0
11
127.335827681
21
129.422397795
31
0.0
0
LINE
5
124
100
AcDbEntity
100
AcDbLine
8
3
62
256
370
-1
6
ByLayer
10
127.335827681
20
129.422397795
30
0.0
11
126.9739231
21
130.207379656
31
0.0
0
LINE
5
125
100
AcDbEntity
100
AcDbLine
8
3
62
256
370
-1
6
ByLayer
10
126.9739231
20
130.207379656
30
0.0
11
126.587376786
21
130.991171168
31
0.0
0
LINE
5
126
100
AcDbEntity
100
AcDbLine
8
3
62
256
370
-1
6
ByLayer
10
126.587376786
20
130.991171168
30
0.0
11
126.176036906
21
131.77295547
31
0.0
0
LINE
5
127
100
AcDbEntity
100
AcDbLine
8
3
62
256
370
-1
6
ByLayer
10
126.176036906
20
131.77295547
30
0.0
11
125.739779522
21
132.551907254
31
0.0
0
LINE
5
128
100
AcDbEntity
100
AcDbLine
8
3
62
256
370
-1
6
ByLayer
10
125.739779522
20
132.551907254
30
0.0
11
125.278508927
21
133.327193736
31
0.0
0
LINE
5
129
100
AcDbEntity
100
AcDbLine
8
3
62
256
370
-1
6
ByLayer
10
125.278508927
20
133.327193736
30
0.0
11
124.792157957
21
134.097975633
31
0.0
0
LINE
5
130
100
AcDbEntity
100
AcDbLine
8
3
62
256
370
-1
6
ByLayer
10
124.792157957
20
134.097975633
30
0.0
11
124.280688262
21
134.863408154
31
0.0
0
LINE
5
131
100
AcDbEntity
100
AcDbLine
8
3
62
256
370
-1
6
ByLayer
10
124.280688262
20
134.863408154
30
0.0
11
123.744090545
21
135.622641998
31
0.0
0
LINE
5
132
100
AcDbEntity
100
AcDbLine
8
3
62
256
370
-1
6
ByLayer
10
123.744090545
20
135.622641998
30
0.0
11
123.18238477
21
136.37482437
31
0.0
0
LINE
5
133
100
AcDbEntity
100
AcDbLine
8
3
62
256
370
-1
6
ByLayer
10
123.18238477
20
136.37482437
30
0.0
11
122.595620325
21
137.119099991
31
0.0
0
LINE
5
134
100
AcDbEntity
100
AcDbLine
8
3
62
256
370
-1
6
ByLayer
10
122.595620325
20
137.119099991
30
0.0
11
121.983876157
21
137.854612125
31
0.0
0
LINE
5
135
100
AcDbEntity
100
AcDbLine
8
3
62
256
370
-1
6
ByLayer
10
121.983876157
20
137.854612125
30
0.0
11
121.347260873
21
138.580503606
31
0.0
0
LINE
5
136
100
AcDbEntity
100
AcDbLine
8
3
62
256
370
-1
6
ByLayer
10
121.347260873
20
138.580503606
30
0.0
11
120.685912798
21
139.295917872
31
0.0
0
LINE
5
137
100
AcDbEntity
100
AcDbLine
8
3
62
256
370
-1
6
ByLayer
10
120.685912798
20
139.295917872
30
0.0
11
120.0
21
140.0
31
0.0
0
LINE
5
138
100
AcDbEntity
100
AcDbLine
8
3
62
256
370
-1
6
ByLayer
10
120.0
20
140.0
30
0.0
11
119.289720283
21
140.69189774
31
0.0
0
LINE
5
139
100
AcDbEntity
100
AcDbLine
8
3
62
256
370
-1
6
ByLayer
10
119.289720283
20
140.69189774
30
0.0
11
118.555301137
21
141.370762556
31
0.0
0
LINE
5
140
100
AcDbEntity
100
AcDbLine
8
3
62
256
370
-1
6
ByLayer
10
118.555301137
20
141.370762556
30
0.0
11
117.796999658
21
142.035750656
31
0.0
0
LINE
5
141
100
AcDbEntity
100
AcDbLine
8
3
62
256
370
-1
6
ByLayer
10
117.796999658
20
142.035750656
30
0.0
11
117.015102425
21
142.68602403
31
0.0
0
LINE
5
142
100
AcDbEntity
100
AcDbLine
8
3
62
256
370
-1
6
ByLayer
10
117.015102425
20
142.68602403
30
0.0
11
116.20992535
21
143.320751477
31
0.0
0
LINE
5
143
100
AcDbEntity
100
AcDbLine
8
3
62
256
370
-1
6
ByLayer
10
116.20992535
20
143.320751477
30
0.0
11
115.381813484
21
143.939109631
31
0.0
0
LINE
5
144
100
AcDbEntity
100
AcDbLine
8
3
62
256
370
-1
6
ByLayer
10
115.381813484
20
143.939109631
30
0.0
11
114.531140789
21
144.540283978
31
0.0
0
LINE
5
145
100
AcDbEntity
100
AcDbLine
8
3
62
256
370
-1
6
ByLayer
10
114.531140789
20
144.540283978
30
0.0
11
113.65830988
21
145.123469866
31
0.0
0
LINE
5
146
100
AcDbEntity
100
AcDbLine
8
3
62
256
370
-1
6
ByLayer
10
113.65830988
20
145.123469866
30
0.0
11
112.763751724
21
145.687873511
31
0.0
0
LINE
5
147
100
AcDbEntity
100
AcDbLine
8
3
62
256
370
-1
6
ByLayer
10
112.763751724
20
145.687873511
30
0.0
11
111.847925309
21
146.232712987
31
0.0
0
LINE
5
148
100
AcDbEntity
100
AcDbLine
8
3
62
256
370
-1
6
ByLayer
10
111.847925309
20
146.232712987
30
0.0
11
110.911317276
21
146.757219206
31
0.0
0
LINE
5
149
100
AcDbEntity
100
AcDbLine
8
3
62
256
370
-1
6
ByLayer
10
110.911317276
20
146.757219206
30
0.0
11
109.95444152
21
147.260636891
31
0.0
0
LINE
5
150
100
AcDbEntity
100
AcDbLine
8
3
62
256
370
-1
6
ByLayer
10
109.95444152
20
147.260636891
30
0.0
11
108.977838752
21
147.742225527
31
0.0
0
LINE
5
151
100
AcDbEntity
100
AcDbLine
8
3
62
256
370
-1
6
ByLayer
10
108.977838752
20
147.742225527
30
0.0
11
107.982076033
21
148.201260307
31
0.0
0
LINE
5
152
100
AcDbEntity
100
AcDbLine
8
3
62
256
370
-1
6
ByLayer
10
107.982076033
20
148.201260307
30
0.0
11
106.967746272
21
148.637033052
31
0.0
0
LINE
5
153
100
AcDbEntity
100
AcDbLine
8
3
62
256
370
-1
6
ByLayer
10
106.967746272
20
148.637033052
30
0.0
11
105.93546769
21
149.048853122
31
0.0
0
LINE
5
154
100
AcDbEntity
100
AcDbLine
8
3
62
256
370
-1
6
ByLayer
10
105.93546769
20
149.048853122
30
0.0
11
104.885883262
21
149.436048308
31
0.0
0
LINE
5
155
100
AcDbEntity
100
AcDbLine
8
3
62
256
370
-1
6
ByLayer
10
104.885883262
20
149.436048308
30
0.0
11
103.819660113
21
149.797965698
31
0.0
0
LINE
5
156
100
AcDbEntity
100
AcDbLine
8
3
62
256
370
-1
6
ByLayer
10
103.819660113
20
149.797965698
30
0.0
11
102.737488894
21
150.13397253
31
0.0
0
LINE
5
157
100
AcDbEntity
100
AcDbLine
8
3
62
256
370
-1
6
ByLayer
10
102.737488894
20
150.13397253
30
0.0
11
101.640083129
21
150.443457025
31
0.0
0
LINE
5
158
100
AcDbEntity
100
AcDbLine
8
3
62
256
370
-1
6
ByLayer
10
101.640083129
20
150.443457025
30
0.0
11
100.528178528
21
150.725829187
31
0.0
0
LINE
5
159
100
AcDbEntity
100
AcDbLine
8
3
62
256
370
-1
6
ByLayer
10
100.528178528
20
150.725829187
30
0.0
11
99.4025322701
21
150.980521592
31
0.0
0
LINE
5
160
100
AcDbEntity
100
AcDbLine
8
3
62
256
370
-1
6
ByLayer
10
99.4025322701
20
150.980521592
30
0.0
11
98.2639222696
21
151.206990145
31
0.0
0
LINE
5
161
100
AcDbEntity
100
AcDbLine
8
3
62
256
370
-1
6
ByLayer
10
98.2639222696
20
151.206990145
30
0.0
11
97.1131464042
21
151.404714815
31
0.0
0
LINE
5
162
100
AcDbEntity
100
AcDbLine
8
3
62
256
370
-1
6
ByLayer
10
97.1131464042
20
151.404714815
30
0.0
11
95.9510217241
21
151.573200344
31
0.0
0
LINE
5
163
100
AcDbEntity
100
AcDbLine
8
3
62
256
370
-1
6
ByLayer
10
95.9510217241
20
151.573200344
30
0.0
11
94.778383635
21
151.711976924
31
0.0
0
LINE
5
164
100
AcDbEntity
100
AcDbLine
8
3
62
256
370
-1
6
ByLayer
10
94.778383635
20
151.711976924
30
0.0
11
93.5960850563
21
151.820600855
31
0.0
0
LINE
5
165
100
AcDbEntity
100
AcDbLine
8
3
62
256
370
-1
6
ByLayer
10
93.5960850563
20
151.820600855
30
0.0
11
92.404995558
21
151.898655166
31
0.0
0
LINE
5
166
100
AcDbEntity
100
AcDbLine
8
3
62
256
370
-1
6
ByLayer
10
92.404995558
20
151.898655166
30
0.0
11
91.2060004748
21
151.945750209
31
0.0
0
LINE
5
167
100
AcDbEntity
100
AcDbLine
8
3
62
256
370
-1
6
ByLayer
10
91.2060004748
20
151.945750209
30
0.0
11
90.0
21
151.961524227
31
0.0
0
LINE
5
168
100
AcDbEntity
100
AcDbLine
8
3
62
256
370
-1
6
ByLayer
10
90.0
20
151.961524227
30
0.0
11
88.7879082593
21
151.945643885
31
0.0
0
LINE
5
169
100
AcDbEntity
100
AcDbLine
8
3
62
256
370
-1
6
ByLayer
10
88.7879082593
20
151.945643885
30
0.0
11
87.5706523665
21
151.897804772
31
0.0
0
LINE
5
170
100
AcDbEntity
100
AcDbLine
8
3
62
256
370
-1
6
ByLayer
10
87.5706523665
20
151.897804772
30
0.0
11
86.3491714609
21
151.817731871
31
0.0
0
LINE
5
171
100
AcDbEntity
100
AcDbLine
8
3
62
256
370
-1
6
ByLayer
10
86.3491714609
20
151.817731871
30
0.0
11
85.1244157295
21
151.705179993
31
0.0
0
LINE
5
172
100
AcDbEntity
100
AcDbLine
8
3
62
256
370
-1
6
ByLayer
10
85.1244157295
20
151.705179993
30
0.0
11
83.8973454125
21
151.559934187
31
0.0
0
LINE
5
173
100
AcDbEntity
100
AcDbLine
8
3
62
256
370
-1
6
ByLayer
10
83.8973454125
20
151.559934187
30
0.0
11
82.6689297958
21
151.381810101
31
0.0
0
LINE
5
174
100
AcDbEntity
100
AcDbLine
8
3
62
256
370
-1
6
ByLayer
10
82.6689297958
20
151.381810101
30
0.0
11
81.4401461903
21
151.170654321
31
0.0
0
LINE
5
175
100
AcDbEntity
100
AcDbLine
8
3
62
256
370
-1
6
ByLayer
10
81.4401461903
20
151.170654321
30
0.0
11
80.211978899
21
150.92634467
31
0.0
0
LINE
5
176
100
AcDbEntity
100
AcDbLine
8
3
62
256
370
-1
6
ByLayer
10
80.211978899
20
150.92634467
30
0.0
11
78.9854181744
21
150.648790473
31
0.0
0
LINE
5
177
100
AcDbEntity
100
AcDbLine
8
3
62
256
370
-1
6
ByLayer
10
78.9854181744
20
150.648790473
30
0.0
11
77.7614591659
21
150.337932785
31
0.0
0
LINE
5
178
100
AcDbEntity
100
AcDbLine
8
3
62
256
370
-1
6
ByLayer
10
77.7614591659
20
150.337932785
30
0.0
11
76.5411008596
21
149.993744584
31
0.0
0
LINE
5
179
100
AcDbEntity
100
AcDbLine
8
3
62
256
370
-1
6
ByLayer
10
76.5411008596
20
149.993744584
30
0.0
11
75.325345011
21
149.616230927
31
0.0
0
LINE
5
180
100
AcDbEntity
100
AcDbLine
8
3
62
256
370
-1
6
ByLayer
10
75.325345011
20
149.616230927
30
0.0
11
74.1151950724
21
149.20542907
31
0.0
0
LINE
5
181
100
AcDbEntity
100
AcDbLine
8
3
62
256
370
-1
6
ByLayer
10
74.1151950724
20
149.20542907
30
0.0
11
72.9116551157
21
148.761408554
31
0.0
0
LINE
5
182
100
AcDbEntity
100
AcDbLine
8
3
62
256
370
-1
6
ByLayer
10
72.9116551157
20
148.761408554
30
0.0
11
71.7157287525
21
148.284271247
31
0.0
0
LINE
5
183
100
AcDbEntity
100
AcDbLine
8
3
62
256
370
-1
6
ByLayer
10
71.7157287525
20
148.284271247
30
0.0
11
70.5284180524
21
147.774151359
31
0.0
0
LINE
5
184
100
AcDbEntity
100
AcDbLine
8
3
62
256
370
-1
6
ByLayer
10
70.5284180524
20
147.774151359
30
0.0
11
69.3507224604
21
147.231215408
31
0.0
0
LINE
5
185
100
AcDbEntity
100
AcDbLine
8
3
62
256
370
-1
6
ByLayer
10
69.3507224604
20
147.231215408
30
0.0
11
68.1836377156
21
146.655662162
31
0.0
0
LINE
5
186
100
AcDbEntity
100
AcDbLine
8
3
62
256
370
-1
6
ByLayer
10
68.1836377156
20
146.655662162
30
0.0
11
67.0281547719
21
146.047722534
31
0.0
0
LINE
5
187
100
AcDbEntity
100
AcDbLine
8
3
62
256
370
-1
6
ByLayer
10
67.0281547719
20
146.047722534
30
0.0
11
65.8852587219
21
145.407659448
31
0.0
0
LINE
5
188
100
AcDbEntity
100
AcDbLine
8
3
62
256
370
-1
6
ByLayer
10
65.8852587219
20
145.407659448
30
0.0
11
64.7559277254
21
144.735767657
31
0.0
0
LINE
5
189
100
AcDbEntity
100
AcDbLine
8
3
62
256
370
-1
6
ByLayer
10
64.7559277254
20
144.735767657
30
0.0
11
63.6411319437
21
144.032373538
31
0.0
0
LINE
5
190
100
AcDbEntity
100
AcDbLine
8
3
62
256
370
-1
6
ByLayer
10
63.6411319437
20
144.032373538
30
0.0
11
62.5418324818
21
143.297834845
31
0.0
0
LINE
5
191
100
AcDbEntity
100
AcDbLine
8
3
62
256
370
-1
6
ByLayer
10
62.5418324818
20
143.297834845
30
0.0
11
61.4589803375
21
142.532540418
31
0.0
0
LINE
5
192
100
AcDbEntity
100
AcDbLine
8
3
62
256
370
-1
6
ByLayer
10
61.4589803375
20
142.532540418
30
0.0
11
60.3935153619
21
141.73690987
31
0.0
0
LINE
5
193
100
AcDbEntity
100
AcDbLine
8
3
62
256
370
-1
6
ByLayer
10
60.3935153619
20
141.73690987
30
0.0
11
59.3463652295
21
140.91139323
31
0.0
0
LINE
5
194
100
AcDbEntity
100
AcDbLine
8
3
62
256
370
-1
6
ByLayer
10
59.3463652295
20
140.91139323
30
0.0
11
58.3184444207
21
140.056470553
31
0.0
0
LINE
5
195
100
AcDbEntity
100
AcDbLine
8
3
62
256
370
-1
6
ByLayer
10
58.3184444207
20
140.056470553
30
0.0
11
57.310653218
21
139.172651495
31
0.0
0
LINE
5
196
100
AcDbEntity
100
AcDbLine
8
3
62
256
370
-1
6
ByLayer
10
57.310653218
20
139.172651495
30
0.0
11
56.3238767162
21
138.260474854
31
0.0
0
LINE
5
197
100
AcDbEntity
100
AcDbLine
8
3
62
256
370
-1
6
ByLayer
10
56.3238767162
20
138.260474854
30
0.0
11
55.3589838486
21
137.320508076
31
0.0
0
LINE
5
198
100
AcDbEntity
100
AcDbLine
8
3
62
256
370
-1
6
ByLayer
10
55.3589838486
20
137.320508076
30
0.0
11
54.4168264298
21
136.353346733
31
0.0
0
LINE
5
199
100
AcDbEntity
100
AcDbLine
8
3
62
256
370
-1
6
ByLayer
10
54.4168264298
20
136.353346733
30
0.0
11
53.4982382162
21
135.359613962
31
0.0
0
LINE
5
200
100
AcDbEntity
100
AcDbLine
8
3
62
256
370
-1
6
ByLayer
10
53.4982382162
20
135.359613962
30
0.0
11
52.6040339866
21
134.339959877
31
0.0
0
LINE
5
201
100
AcDbEntity
100
AcDbLine
8
3
62
256
370
-1
6
ByLayer
10
52.6040339866
20
134.339959877
30
0.0
11
51.7350086415
21
133.295060944
31
0.0
0
LINE
5
202
100
AcDbEntity
100
AcDbLine
8
3
62
256
370
-1
6
ByLayer
10
51.7350086415
20
133.295060944
30
0.0
11
50.8919363248
21
132.225619332
31
0.0
0
LINE
5
203
100
AcDbEntity
100
AcDbLine
8
3
62
256
370
-1
6
ByLayer
10
50.8919363248
20
132.225619332
30
0.0
11
50.0755695671
21
131.132362233
31
0.0
0
LINE
5
204
100
AcDbEntity
100
AcDbLine
8
3
62
256
370
-1
6
ByLayer
10
50.0755695671
20
131.132362233
30
0.0
11
49.2866384527
21
130.016041146
31
0.0
0
LINE
5
205
100
AcDbEntity
100
AcDbLine
8
3
62
256
370
-1
6
ByLayer
10
49.2866384527
20
130.016041146
30
0.0
11
48.5258498106
21
128.877431146
31
0.0
0
LINE
5
206
100
AcDbEntity
100
AcDbLine
8
3
62
256
370
-1
6
ByLayer
10
48.5258498106
20
128.877431146
30
0.0
11
47.7938864306
21
127.717330109
31
0.0
0
LINE
5
207
100
AcDbEntity
100
AcDbLine
8
3
62
256
370
-1
6
ByLayer
10
47.7938864306
20
127.717330109
30
0.0
11
47.0914063062
21
126.536557927
31
0.0
0
LINE
5
208
100
AcDbEntity
100
AcDbLine
8
3
62
256
370
-1
6
ByLayer
10
47.0914063062
20
126.536557927
30
0.0
11
46.4190419039
21
125.335955685
31
0.0
0
LINE
5
209
100
AcDbEntity
100
AcDbLine
8
3
62
256
370
-1
6
ByLayer
10
46.4190419039
20
125.335955685
30
0.0
11
45.7773994607
21
124.116384821
31
0.0
0
LINE
5
210
100
AcDbEntity
100
AcDbLine
8
3
62
256
370
-1
6
ByLayer
10
45.7773994607
20
124.116384821
30
0.0
11
45.1670583104
21
122.878726258
31
0.0
0
LINE
5
211
100
AcDbEntity
100
AcDbLine
8
3
62
256
370
-1
6
ByLayer
10
45.1670583104
20
122.878726258
30
0.0
11
44.5885702393
21
121.623879517
31
0.0
0
LINE
5
212
100
AcDbEntity
100
AcDbLine
8
3
62
256
370
-1
6
ByLayer
10
44.5885702393
20
121.623879517
30
0.0
11
44.0424588727
21
120.352761804
31
0.0
0
LINE
5
213
100
AcDbEntity
100
AcDbLine
8
3
62
256
370
-1
6
ByLayer
10
44.0424588727
20
120.352761804
30
0.0
11
43.5292190918
21
119.06630708
31
0.0
0
LINE
5
214
100
AcDbEntity
100
AcDbLine
8
3
62
256
370
-1
6
ByLayer
10
43.5292190918
20
119.06630708
30
0.0
11
43.0493164826
21
117.765465109
31
0.0
0
LINE
5
215
100
AcDbEntity
100
AcDbLine
8
3
62
256
370
-1
6
ByLayer
10
43.0493164826
20
117.765465109
30
0.0
11
42.6031868178
21
116.451200494
31
0.0
0
LINE
5
216
100
AcDbEntity
100
AcDbLine
8
3
62
256
370
-1
6
ByLayer
10
42.6031868178
20
116.451200494
30
0.0
11
42.1912355708
21
115.124491683
31
0.0
0
LINE
5
217
100
AcDbEntity
100
AcDbLine
8
3
62
256
370
-1
6
ByLayer
10
42.1912355708
20
115.124491683
30
0.0
11
41.8138374638
21
113.786329973
31
0.0
0
LINE
5
218
100
AcDbEntity
100
AcDbLine
8
3
62
256
370
-1
6
ByLayer
10
41.8138374638
20
113.786329973
30
0.0
11
41.4713360503
21
112.437718489
31
0.0
0
LINE
5
219
100
AcDbEntity
100
AcDbLine
8
3
62
256
370
-1
6
ByLayer
10
41.4713360503
20
112.437718489
30
0.0
11
41.1640433316
21
111.079671155
31
0.0
0
LINE
5
220
100
AcDbEntity
100
AcDbLine
8
3
62
256
370
-1
6
ByLayer
10
41.1640433316
20
111.079671155
30
0.0
11
40.8922394088
21
109.713211648
31
0.0
0
LINE
5
221
100
AcDbEntity
100
AcDbLine
8
3
62
256
370
-1
6
ByLayer
10
40.8922394088
20
109.713211648
30
0.0
11
40.6561721706
21
108.339372347
31
0.0
0
LINE
5
222
100
AcDbEntity
100
AcDbLine
8
3
62
256
370
-1
6
ByLayer
10
40.6561721706
20
108.339372347
30
0.0
11
40.4560570161
21
106.959193263
31
0.0
0
LINE
5
223
100
AcDbEntity
100
AcDbLine
8
3
62
256
370
-1
6
ByLayer
10
40.4560570161
20
106.959193263
30
0.0
11
40.2920766148
21
105.573720969
31
0.0
0
LINE
5
224
100
AcDbEntity
100
AcDbLine
8
3
62
256
370
-1
6
ByLayer
10
40.2920766148
20
105.573720969
30
0.0
11
40.1643807025
21
104.184007515
31
0.0
0
LINE
5
225
100
AcDbEntity
100
AcDbLine
8
3
62
256
370
-1
6
ByLayer
10
40.1643807025
20
104.184007515
30
0.0
11
40.073085914
21
102.791109343
31
0.0
0
LINE
5
226
100
AcDbEntity
100
AcDbLine
8
3
62
256
370
-1
6
ByLayer
10
40.073085914
20
102.791109343
30
0.0
11
40.0182756534
21
101.396086192
31
0.0
0
LINE
5
227
100
AcDbEntity
100
AcDbLine
8
3
62
256
370
-1
6
ByLayer
10
40.0182756534
20
101.396086192
30
0.0
11
40.0
21
100.0
31
0.0
0
LINE
5
228
100
AcDbEntity
100
AcDbLine
8
3
62
256
370
-1
6
ByLayer
10
40.0
20
100.0
30
0.0
11
40.0182756534
21
98.6039138085
31
0.0
0
LINE
5
229
100
AcDbEntity
100
AcDbLine
8
3
62
256
370
-1
6
ByLayer
10
40.0182756534
20
98.6039138085
30
0.0
11
40.073085914
21
97.208890657
31
0.0
0
LINE
5
230
100
AcDbEntity
100
AcDbLine
8
3
62
256
370
-1
6
ByLayer
10
40.073085914
20
97.208890657
30
0.0
11
40.1643807025
21
95.8159924849
31
0.0
0
LINE
5
231
100
AcDbEntity
100
AcDbLine
8
3
62
256
370
-1
6
ByLayer
10
40.1643807025
20
95.8159924849
30
0.0
11
40.2920766148
21
94.426279031
31
0.0
0
LINE
5
232
100
AcDbEntity
100
AcDbLine
8
3
62
256
370
-1
6
ByLayer
10
40.2920766148
20
94.426279031
30
0.0
11
40.4560570161
21
93.0408067368
31
0.0
0
LINE
5
233
100
AcDbEntity
100
AcDbLine
8
3
62
256
370
-1
6
ByLayer
10
40.4560570161
20
93.0408067368
30
0.0
11
40.6561721706
21
91.6606276529
31
0.0
0
LINE
5
234
100
AcDbEntity
100
AcDbLine
8
3
62
256
370
-1
6
ByLayer
10
40.6561721706
20
91.6606276529
30
0.0
11
40.8922394088
21
90.2867883518
31
0.0
0
LINE
5
235
100
AcDbEntity
100
AcDbLine
8
3
62
256
370
-1
6
ByLayer
10
40.8922394088
20
90.2867883518
30
0.0
11
41.1640433316
21
88.9203288453
31
0.0
0
LINE
5
236
100
AcDbEntity
100
AcDbLine
8
3
62
256
370
-1
6
ByLayer
10
41.1640433316
20
88.9203288453
30
0.0
11
41.4713360503
21
87.5622815109
31
0.0
0
LINE
5
237
100
AcDbEntity
100
AcDbLine
8
3
62
256
370
-1
6
ByLayer
10
41.4713360503
20
87.5622815109
30
0.0
11
41.8138374638
21
86.2136700268
31
0.0
0
LINE
5
238
100
AcDbEntity
100
AcDbLine
8
3
62
256
370
-1
6
ByLayer
10
41.8138374638
20
86.2136700268
30
0.0
11
42.1912355708
21
84.8755083166
31
0.0
0
LINE
5
239
100
AcDbEntity
100
AcDbLine
8
3
62
256
370
-1
6
ByLayer
10
42.1912355708
20
84.8755083166
30
0.0
11
42.6031868178
21
83.5487995058
31
0.0
0
LINE
5
240
100
AcDbEntity
100
AcDbLine
8
3
62
256
370
-1
6
ByLayer
10
42.6031868178
20
83.5487995058
30
0.0
11
43.0493164826
21
82.2345348905
31
0.0
0
LINE
5
241
100
AcDbEntity
100
AcDbLine
8
3
62
256
370
-1
6
ByLayer
10
43.0493164826
20
82.2345348905
30
0.0
11
43.5292190918
21
80.9336929203
31
0.0
0
LINE
5
242
100
AcDbEntity
100
AcDbLine
8
3
62
256
370
-1
6
ByLayer
10
43.5292190918
20
80.9336929203
30
0.0
11
44.0424588727
21
79.6472381959
31
0.0
0
LINE
5
243
100
AcDbEntity
100
AcDbLine
8
3
62
256
370
-1
6
ByLayer
10
44.0424588727
20
79.6472381959
30
0.0
11
44.5885702393
21
78.3761204827
31
0.0
0
LINE
5
244
100
AcDbEntity
100
AcDbLine
8
3
62
256
370
-1
6
ByLayer
10
44.5885702393
20
78.3761204827
30
0.0
11
45.1670583104
21
77.1212737417
31
0.0
0
LINE
5
245
100
AcDbEntity
100
AcDbLine
8
3
62
256
370
-1
6
ByLayer
10
45.1670583104
20
77.1212737417
30
0.0
11
45.7773994607
21
75.8836151792
31
0.0
0
LINE
5
246
100
AcDbEntity
100
AcDbLine
8
3
62
256
370
-1
6
ByLayer
10
45.7773994607
20
75.8836151792
30
0.0
11
46.4190419039
21
74.6640443152
31
0.0
0
LINE
5
247
100
AcDbEntity
100
AcDbLine
8
3
62
256
370
-1
6
ByLayer
10
46.4190419039
20
74.6640443152
30
0.0
11
47.0914063062
21
73.4634420732
31
0.0
0
LINE
5
248
100
AcDbEntity
100
AcDbLine
8
3
62
256
370
-1
6
ByLayer
10
47.0914063062
20
73.4634420732
30
0.0
11
47.7938864306
21
72.282669891
31
0.0
0
LINE
5
249
100
AcDbEntity
100
AcDbLine
8
3
62
256
370
-1
6
ByLayer
10
47.7938864306
20
72.282669891
30
0.0
11
48.5258498106
21
71.1225688542
31
0.0
0
LINE
5
250
100
AcDbEntity
100
AcDbLine
8
3
62
256
370
-1
6
ByLayer
10
48.5258498106
20
71.1225688542
30
0.0
11
49.2866384527
21
69.9839588537
31
0.0
0
LINE
5
251
100
AcDbEntity
100
AcDbLine
8
3
62
256
370
-1
6
ByLayer
10
49.2866384527
20
69.9839588537
30
0.0
11
50.0755695671
21
68.8676377674
31
0.0
0
LINE
5
252
100
AcDbEntity
100
AcDbLine
8
3
62
256
370
-1
6
ByLayer
10
50.0755695671
20
68.8676377674
30
0.0
11
50.8919363248
21
67.774380668
31
0.0
0
LINE
5
253
100
AcDbEntity
100
AcDbLine
8
3
62
256
370
-1
6
ByLayer
10
50.8919363248
20
67.774380668
30
0.0
11
51.7350086415
21
66.7049390563
31
0.0
0
LINE
5
254
100
AcDbEntity
100
AcDbLine
8
3
62
256
370
-1
6
ByLayer
10
51.7350086415
20
66.7049390563
30
0.0
11
52.6040339866
21
65.6600401229
31
0.0
0
LINE
5
255
100
AcDbEntity
100
AcDbLine
8
3
62
256
370
-1
6
ByLayer
10
52.6040339866
20
65.6600401229
30
0.0
11
53.4982382162
21
64.6403860375
31
0.0
0
LINE
5
256
100
AcDbEntity
100
AcDbLine
8
3
62
256
370
-1
6
ByLayer
10
53.4982382162
20
64.6403860375
30
0.0
11
54.4168264298
21
63.646653267
31
0.0
0
LINE
5
257
100
AcDbEntity
100
AcDbLine
8
3
62
256
370
-1
6
ByLayer
10
54.4168264298
20
63.646653267
30
0.0
11
55.3589838486
21
62.6794919243
31
0.0
0
LINE
5
258
100
AcDbEntity
100
AcDbLine
8
3
62
256
370
-1
6
ByLayer
10
55.3589838486
20
62.6794919243
30
0.0
11
56.3238767162
21
61.7395251464
31
0.0
0
LINE
5
259
100
AcDbEntity
100
AcDbLine
8
3
62
256
370
-1
6
ByLayer
10
56.3238767162
20
61.7395251464
30
0.0
11
57.310653218
21
60.8273485047
31
0.0
0
LINE
5
260
100
AcDbEntity
100
AcDbLine
8
3
62
256
370
-1
6
ByLayer
10
57.310653218
20
60.8273485047
30
0.0
11
58.3184444207
21
59.9435294465
31
0.0
0
LINE
5
261
100
AcDbEntity
100
AcDbLine
8
3
62
256
370
-1
6
ByLayer
10
58.3184444207
20
59.9435294465
30
0.0
11
59.3463652295
21
59.0886067698
31
0.0
0
LINE
5
262
100
AcDbEntity
100
AcDbLine
8
3
62
256
370
-1
6
ByLayer
10
59.3463652295
20
59.0886067698
30
0.0
11
60.3935153619
21
58.2630901302
31
0.0
0
LINE
5
263
100
AcDbEntity
100
AcDbLine
8
3
62
256
370
-1
6
ByLayer
10
60.3935153619
20
58.2630901302
30
0.0
11
61.4589803375
21
57.4674595824
31
0.0
0
LINE
5
264
100
AcDbEntity
100
AcDbLine
8
3
62
256
370
-1
6
ByLayer
10
61.4589803375
20
57.4674595824
30
0.0
11
62.5418324818
21
56.7021651552
31
0.0
0
LINE
5
265
100
AcDbEntity
100
AcDbLine
8
3
62
256
370
-1
6
ByLayer
10
62.5418324818
20
56.7021651552
30
0.0
11
63.6411319437
21
55.9676264615
31
0.0
0
LINE
5
266
100
AcDbEntity
100
AcDbLine
8
3
62
256
370
-1
6
ByLayer
10
63.6411319437
20
55.9676264615
30
0.0
11
64.7559277254
21
55.2642323433
31
0.0
0
LINE
5
267
100
AcDbEntity
100
AcDbLine
8
3
62
256
370
-1
6
ByLayer
10
64.7559277254
20
55.2642323433
30
0.0
11
65.8852587219
21
54.5923405523
31
0.0
0
LINE
5
268
100
AcDbEntity
100
AcDbLine
8
3
62
256
370
-1
6
ByLayer
10
65.8852587219
20
54.5923405523
30
0.0
11
67.0281547719
21
53.9522774655
31
0.0
0
LINE
5
269
100
AcDbEntity
100
AcDbLine
8
3
62
256
370
-1
6
ByLayer
10
67.0281547719
20
53.9522774655
30
0.0
11
68.1836377156
21
53.3443378383
31
0.0
0
LINE
5
270
100
AcDbEntity
100
AcDbLine
8
3
62
256
370
-1
6
ByLayer
10
68.1836377156
20
53.3443378383
30
0.0
11
69.3507224604
21
52.7687845923
31
0.0
0
LINE
5
271
100
AcDbEntity
100
AcDbLine
8
3
62
256
370
-1
6
ByLayer
10
69.3507224604
20
52.7687845923
30
0.0
11
70.5284180524
21
52.2258486413
31
0.0
0
LINE
5
272
100
AcDbEntity
100
AcDbLine
8
3
62
256
370
-1
6
ByLayer
10
70.5284180524
20
52.2258486413
30
0.0
11
71.7157287525
21
51.7157287525
31
0.0
0
LINE
5
273
100
AcDbEntity
100
AcDbLine
8
3
62
256
370
-1
6
ByLayer
10
71.7157287525
20
51.7157287525
30
0.0
11
72.9116551157
21
51.2385914461
31
0.0
0
LINE
5
274
100
AcDbEntity
100
AcDbLine
8
3
62
256
370
-1
6
ByLayer
10
72.9116551157
20
51.2385914461
30
0.0
11
74.1151950724
21
50.79457093
31
0.0
0
LINE
5
275
100
AcDbEntity
100
AcDbLine
8
3
62
256
370
-1
6
ByLayer
10
74.1151950724
20
50.79457093
30
0.0
11
75.325345011
21
50.3837690735
31
0.0
0
LINE
5
276
100
AcDbEntity
100
AcDbLine
8
3
62
256
370
-1
6
ByLayer
10
75.325345011
20
50.3837690735
30
0.0
11
76.5411008596
21
50.0062554163
31
0.0
0
LINE
5
277
100
AcDbEntity
100
AcDbLine
8
3
62
256
370
-1
6
ByLayer
10
76.5411008596
20
50.0062554163
30
0.0
11
77.7614591659
21
49.662067215
31
0.0
0
LINE
5
278
100
AcDbEntity
100
AcDbLine
8
3
62
256
370
-1
6
ByLayer
10
77.7614591659
20
49.662067215
30
0.0
11
78.9854181744
21
49.351209527
31
0.0
0
LINE
5
279
100
AcDbEntity
100
AcDbLine
8
3
62
256
370
-1
6
ByLayer
10
78.9854181744
20
49.351209527
30
0.0
11
80.211978899
21
49.0736553302
31
0.0
0
LINE
5
280
100
AcDbEntity
100
AcDbLine
8
3
62
256
370
-1
6
ByLayer
10
80.211978899
20
49.0736553302
30
0.0
11
81.4401461903
21
48.8293456793
31
0.0
0
LINE
5
281
100
AcDbEntity
100
AcDbLine
8
3
62
256
370
-1
6
ByLayer
10
81.4401461903
20
48.8293456793
30
0.0
11
82.6689297958
21
48.6181898991
31
0.0
0
LINE
5
282
100
AcDbEntity
100
AcDbLine
8
3
62
256
370
-1
6
ByLayer
10
82.6689297958
20
48.6181898991
30
0.0
11
83.8973454125
21
48.4400658127
31
0.0
0
LINE
5
283
100
AcDbEntity
100
AcDbLine
8
3
62
256
370
-1
6
ByLayer
10
83.8973454125
20
48.4400658127
30
0.0
11
85.1244157295
21
48.2948200065
31
0.0
0
LINE
5
284
100
AcDbEntity
100
AcDbLine
8
3
62
256
370
-1
6
ByLayer
10
85.1244157295
20
48.2948200065
30
0.0
11
86.3491714609
21
48.1822681293
31
0.0
0
LINE
5
285
100
AcDbEntity
100
AcDbLine
8
3
62
256
370
-1
6
ByLayer
10
86.3491714609
20
48.1822681293
30
0.0
11
87.5706523665
21
48.1021952278
31
0.0
0
LINE
5
286
100
AcDbEntity
100
AcDbLine
8
3
62
256
370
-1
6
ByLayer
10
87.5706523665
20
48.1021952278
30
0.0
11
88.7879082593
21
48.0543561147
31
0.0
0
LINE
5
287
100
AcDbEntity
100
AcDbLine
8
3
62
256
370
-1
6
ByLayer
10
88.7879082593
20
48.0543561147
30
0.0
11
90.0
21
48.0384757729
31
0.0
0
LINE
5
288
100
AcDbEntity
100
AcDbLine
8
3
62
256
370
-1
6
ByLayer
10
90.0
20
48.0384757729
30
0.0
11
91.2060004748
21
48.0542497913
31
0.0
0
LINE
5
289
100
AcDbEntity
100
AcDbLine
8
3
62
256
370
-1
6
ByLayer
10
91.2060004748
20
48.0542497913
30
0.0
11
92.404995558
21
48.1013448345
31
0.0
0
LINE
5
290
100
AcDbEntity
100
AcDbLine
8
3
62
256
370
-1
6
ByLayer
10
92.404995558
20
48.1013448345
30
0.0
11
93.5960850563
21
48.179399145
31
0.0
0
LINE
5
291
100
AcDbEntity
100
AcDbLine
8
3
62
256
370
-1
6
ByLayer
10
93.5960850563
20
48.179399145
30
0.0
11
94.778383635
21
48.2880230759
31
0.0
0
LINE
5
292
100
AcDbEntity
100
AcDbLine
8
3
62
256
370
-1
6
ByLayer
10
94.778383635
20
48.2880230759
30
0.0
11
95.9510217241
21
48.4267996562
31
0.0
0
LINE
5
293
100
AcDbEntity
100
AcDbLine
8
3
62
256
370
-1
6
ByLayer
10
95.9510217241
20
48.4267996562
30
0.0
11
97.1131464042
21
48.5952851847
31
0.0
0
LINE
5
294
100
AcDbEntity
100
AcDbLine
8
3
62
256
370
-1
6
ByLayer
10
97.1131464042
20
48.5952851847
30
0.0
11
98.2639222696
21
48.7930098551
31
0.0
0
LINE
5
295
100
AcDbEntity
100
AcDbLine
8
3
62
256
370
-1
6
ByLayer
10
98.2639222696
20
48.7930098551
30
0.0
11
99.4025322701
21
49.0194784081
31
0.0
0
LINE
5
296
100
AcDbEntity
100
AcDbLine
8
3
62
256
370
-1
6
ByLayer
10
99.4025322701
20
49.0194784081
30
0.0
11
100.528178528
21
49.2741708129
31
0.0
0
LINE
5
297
100
AcDbEntity
100
AcDbLine
8
3
62
256
370
-1
6
ByLayer
10
100.528178528
20
49.2741708129
30
0.0
11
101.640083129
21
49.5565429748
31
0.0
0
LINE
5
298
100
AcDbEntity
100
AcDbLine
8
3
62
256
370
-1
6
ByLayer
10
101.640083129
20
49.5565429748
30
0.0
11
102.737488894
21
49.8660274695
31
0.0
0
LINE
5
299
100
AcDbEntity
100
AcDbLine
8
3
62
256
370
-1
6
ByLayer
10
102.737488894
20
49.8660274695
30
0.0
11
103.819660113
21
50.2020343023
31
0.0
0
LINE
5
300
100
AcDbEntity
100
AcDbLine
8
3
62
256
370
-1
6
ByLayer
10
103.819660113
20
50.2020343023
30
0.0
11
104.885883262
21
50.5639516921
31
0.0
0
LINE
5
301
100
AcDbEntity
100
AcDbLine
8
3
62
256
370
-1
6
ByLayer
10
104.885883262
20
50.5639516921
30
0.0
11
105.93546769
21
50.9511468778
31
0.0
0
LINE
5
302
100
AcDbEntity
100
AcDbLine
8
3
62
256
370
-1
6
ByLayer
10
105.93546769
20
50.9511468778
30
0.0
11
106.967746272
21
51.3629669484
31
0.0
0
LINE
5
303
100
AcDbEntity
100
AcDbLine
8
3
62
256
370
-1
6
ByLayer
10
106.967746272
20
51.3629669484
30
0.0
11
107.982076033
21
51.7987396932
31
0.0
0
LINE
5
304
100
AcDbEntity
100
AcDbLine
8
3
62
256
370
-1
6
ByLayer
10
107.982076033
20
51.7987396932
30
0.0
11
108.977838752
21
52.2577744728
31
0.0
0
LINE
5
305
100
AcDbEntity
100
AcDbLine
8
3
62
256
370
-1
6
ByLayer
10
108.977838752
20
52.2577744728
30
0.0
11
109.95444152
21
52.7393631091
31
0.0
0
LINE
5
306
100
AcDbEntity
100
AcDbLine
8
3
62
256
370
-1
6
ByLayer
10
109.95444152
20
52.7393631091
30
0.0
11
110.911317276
21
53.2427807938
31
0.0
0
LINE
5
307
100
AcDbEntity
100
AcDbLine
8
3
62
256
370
-1
6
ByLayer
10
110.911317276
20
53.2427807938
30
0.0
11
111.847925309
21
53.767287013
31
0.0
0
LINE
5
308
100
AcDbEntity
100
AcDbLine
8
3
62
256
370
-1
6
ByLayer
10
111.847925309
20
53.767287013
30
0.0
11
112.763751724
21
54.3121264887
31
0.0
0
LINE
5
309
100
AcDbEntity
100
AcDbLine
8
3
62
256
370
-1
6
ByLayer
10
112.763751724
20
54.3121264887
30
0.0
11
113.65830988
21
54.876530134
31
0.0
0
LINE
5
310
100
AcDbEntity
100
AcDbLine
8
3
62
256
370
-1
6
ByLayer
10
113.65830988
20
54.876530134
30
0.0
11
114.531140789
21
55.4597160224
31
0.0
0
LINE
5
311
100
AcDbEntity
100
AcDbLine
8
3
62
256
370
-1
6
ByLayer
10
114.531140789
20
55.4597160224
30
0.0
11
115.381813484
21
56.0608903689
31
0.0
0
LINE
5
312
100
AcDbEntity
100
AcDbLine
8
3
62
256
370
-1
6
ByLayer
10
115.381813484
20
56.0608903689
30
0.0
11
116.20992535
21
56.679248523
31
0.0
0
LINE
5
313
100
AcDbEntity
100
AcDbLine
8
3
62
256
370
-1
6
ByLayer
10
116.20992535
20
56.679248523
30
0.0
11
117.015102425
21
57.3139759704
31
0.0
0
LINE
5
314
100
AcDbEntity
100
AcDbLine
8
3
62
256
370
-1
6
ByLayer
10
117.015102425
20
57.3139759704
30
0.0
11
117.796999658
21
57.9642493445
31
0.0
0
LINE
5
315
100
AcDbEntity
100
AcDbLine
8
3
62
256
370
-1
6
ByLayer
10
117.796999658
20
57.9642493445
30
0.0
11
118.555301137
21
58.6292374444
31
0.0
0
LINE
5
316
100
AcDbEntity
100
AcDbLine
8
3
62
256
370
-1
6
ByLayer
10
118.555301137
20
58.6292374444
30
0.0
11
119.289720283
21
59.3081022597
31
0.0
0
LINE
5
317
100
AcDbEntity
100
AcDbLine
8
3
62
256
370
-1
6
ByLayer
10
119.289720283
20
59.3081022597
30
0.0
11
120.0
21
60.0
31
0.0
0
LINE
5
318
100
AcDbEntity
100
AcDbLine
8
3
62
256
370
-1
6
ByLayer
10
120.0
20
60.0
30
0.0
11
120.685912798
21
60.7040821278
31
0.0
0
LINE
5
319
100
AcDbEntity
100
AcDbLine
8
3
62
256
370
-1
6
ByLayer
10
120.685912798
20
60.7040821278
30
0.0
11
121.347260873
21
61.4194963941
31
0.0
0
LINE
5
320
100
AcDbEntity
100
AcDbLine
8
3
62
256
370
-1
6
ByLayer
10
121.347260873
20
61.4194963941
30
0.0
11
121.983876157
21
62.1453878752
31
0.0
0
LINE
5
321
100
AcDbEntity
100
AcDbLine
8
3
62
256
370
-1
6
ByLayer
10
121.983876157
20
62.1453878752
30
0.0
11
122.595620325
21
62.8809000088
31
0.0
0
LINE
5
322
100
AcDbEntity
100
AcDbLine
8
3
62
256
370
-1
6
ByLayer
10
122.595620325
20
62.8809000088
30
0.0
11
123.18238477
21
63.6251756297
31
0.0
0
LINE
5
323
100
AcDbEntity
100
AcDbLine
8
3
62
256
370
-1
6
ByLayer
10
123.18238477
20
63.6251756297
30
0.0
11
123.744090545
21
64.3773580016
31
0.0
0
LINE
5
324
100
AcDbEntity
100
AcDbLine
8
3
62
256
370
-1
6
ByLayer
10
123.744090545
20
64.3773580016
30
0.0
11
124.280688262
21
65.1365918463
31
0.0
0
LINE
5
325
100
AcDbEntity
100
AcDbLine
8
3
62
256
370
-1
6
ByLayer
10
124.280688262
20
65.1365918463
30
0.0
11
124.792157957
21
65.9020243667
31
0.0
0
LINE
5
326
100
AcDbEntity
100
AcDbLine
8
3
62
256
370
-1
6
ByLayer
10
124.792157957
20
65.9020243667
30
0.0
11
125.278508927
21
66.6728062637
31
0.0
0
LINE
5
327
100
AcDbEntity
100
AcDbLine
8
3
62
256
370
-1
6
ByLayer
10
125.278508927
20
66.6728062637
30
0.0
11
125.739779522
21
67.448092746
31
0.0
0
LINE
5
328
100
AcDbEntity
100
AcDbLine
8
3
62
256
370
-1
6
ByLayer
10
125.739779522
20
67.448092746
30
0.0
11
126.176036906
21
68.2270445304
31
0.0
0
LINE
5
329
100
AcDbEntity
100
AcDbLine
8
3
62
256
370
-1
6
ByLayer
10
126.176036906
20
68.2270445304
30
0.0
11
126.587376786
21
69.0088288322
31
0.0
0
LINE
5
330
100
AcDbEntity
100
AcDbLine
8
3
62
256
370
-1
6
ByLayer
10
126.587376786
20
69.0088288322
30
0.0
11
126.9739231
21
69.7926203444
31
0.0
0
LINE
5
331
100
AcDbEntity
100
AcDbLine
8
3
62
256
370
-1
6
ByLayer
10
126.9739231
20
69.7926203444
30
0.0
11
127.335827681
21
70.5776022047
31
0.0
0
LINE
5
332
100
AcDbEntity
100
AcDbLine
8
3
62
256
370
-1
6
ByLayer
10
127.335827681
20
70.5776022047
30
0.0
11
127.67326988
21
71.3629669484
31
0.0
0
LINE
5
333
100
AcDbEntity
100
AcDbLine
8
3
62
256
370
-1
6
ByLayer
10
127.67326988
20
71.3629669484
30
0.0
11
127.986456156
21
72.1479174471
31
0.0
0
LINE
5
334
100
AcDbEntity
100
AcDbLine
8
3
62
256
370
-1
6
ByLayer
10
127.986456156
20
72.1479174471
30
0.0
11
128.27561964
21
72.9316678309
31
0.0
0
LINE
5
335
100
AcDbEntity
100
AcDbLine
8
3
62
256
370
-1
6
ByLayer
10
128.27561964
20
72.9316678309
30
0.0
11
128.541019662
21
73.713444394
31
0.0
0
LINE
5
336
100
AcDbEntity
100
AcDbLine
8
3
62
256
370
-1
6
ByLayer
10
128.541019662
20
73.713444394
30
0.0
11
128.78294125
21
74.4924864825
31
0.0
0
LINE
5
337
100
AcDbEntity
100
AcDbLine
8
3
62
256
370
-1
6
ByLayer
10
128.78294125
20
74.4924864825
30
0.0
11
129.001694595
21
75.2680473623
31
0.0
0
LINE
5
338
100
AcDbEntity
100
AcDbLine
8
3
62
256
370
-1
6
ByLayer
10
129.001694595
20
75.2680473623
30
0.0
11
129.197614491
21
76.0393950673
31
0.0
0
LINE
5
339
100
AcDbEntity
100
AcDbLine
8
3
62
256
370
-1
6
ByLayer
10
129.197614491
20
76.0393950673
30
0.0
11
129.371059743
21
76.8058132265
31
0.0
0
LINE
5
340
100
AcDbEntity
100
AcDbLine
8
3
62
256
370
-1
6
ByLayer
10
129.371059743
20
76.8058132265
30
0.0
11
129.522412549
21
77.5666018687
31
0.0
0
LINE
5
341
100
AcDbEntity
100
AcDbLine
8
3
62
256
370
-1
6
ByLayer
10
129.522412549
20
77.5666018687
30
0.0
11
129.65207785
21
78.3210782038
31
0.0
0
LINE
5
342
100
AcDbEntity
100
AcDbLine
8
3
62
256
370
-1
6
ByLayer
10
129.65207785
20
78.3210782038
30
0.0
11
129.760482663
21
79.0685773809
31
0.0
0
LINE
5
343
100
AcDbEntity
100
AcDbLine
8
3
62
256
370
-1
6
ByLayer
10
129.760482663
20
79.0685773809
30
0.0
11
129.848075378
21
79.8084532202
31
0.0
0
LINE
5
344
100
AcDbEntity
100
AcDbLine
8
3
62
256
370
-1
6
ByLayer
10
129.848075378
20
79.8084532202
30
0.0
11
129.915325035
21
80.54007892
31
0.0
0
LINE
5
345
100
AcDbEntity
100
AcDbLine
8
3
62
256
370
-1
6
ByLayer
10
129.915325035
20
80.54007892
30
0.0
11
129.962720581
21
81.2628477367
31
0.0
0
LINE
5
346
100
AcDbEntity
100
AcDbLine
8
3
62
256
370
-1
6
ByLayer
10
129.962720581
20
81.2628477367
30
0.0
11
129.990770094
21
81.9761736376
31
0.0
0
LINE
5
347
100
AcDbEntity
100
AcDbLine
8
3
62
256
370
-1
6
ByLayer
10
129.990770094
20
81.9761736376
30
0.0
11
130.0
21
82.6794919243
31
0.0
0
LINE
5
348
100
AcDbEntity
100
AcDbLine
8
3
62
256
370
-1
6
ByLayer
10
130.0
20
82.6794919243
30
0.0
11
129.990954252
21
83.3722598291
31
0.0
0
LINE
5
349
100
AcDbEntity
100
AcDbLine
8
3
62
256
370
-1
6
ByLayer
10
129.990954252
20
83.3722598291
30
0.0
11
129.964193505
21
84.0539570797
31
0.0
0
LINE
5
350
100
AcDbEntity
100
AcDbLine
8
3
62
256
370
-1
6
ByLayer
10
129.964193505
20
84.0539570797
30
0.0
11
129.920294262
21
84.724086435
31
0.0
0
LINE
5
351
100
AcDbEntity
100
AcDbLine
8
3
62
256
370
-1
6
ByLayer
10
129.920294262
20
84.724086435
30
0.0
11
129.859848007
21
85.3821741891
31
0.0
0
LINE
5
352
100
AcDbEntity
100
AcDbLine
8
3
62
256
370
-1
6
ByLayer
10
129.859848007
20
85.3821741891
30
0.0
11
129.783460321
21
86.0277706442
31
0.0
0
LINE
5
353
100
AcDbEntity
100
AcDbLine
8
3
62
256
370
-1
6
ByLayer
10
129.783460321
20
86.0277706442
30
0.0
11
129.691749979
21
86.6604505509
31
0.0
0
LINE
5
354
100
AcDbEntity
100
AcDbLine
8
3
62
256
370
-1
6
ByLayer
10
129.691749979
20
86.6604505509
30
0.0
11
129.585348042
21
87.2798135169
31
0.0
0
LINE
5
355
100
AcDbEntity
100
AcDbLine
8
3
62
256
370
-1
6
ByLayer
10
129.585348042
20
87.2798135169
30
0.0
11
129.464896925
21
87.8854843813
31
0.0
0
LINE
5
356
100
AcDbEntity
100
AcDbLine
8
3
62
256
370
-1
6
ByLayer
10
129.464896925
20
87.8854843813
30
0.0
11
129.331049458
21
88.4771135564
31
0.0
0
LINE
5
357
100
AcDbEntity
100
AcDbLine
8
3
62
256
370
-1
6
ByLayer
10
129.331049458
20
88.4771135564
30
0.0
11
129.184467941
21
89.0543773355
31
0.0
0
LINE
5
358
100
AcDbEntity
100
AcDbLine
8
3
62
256
370
-1
6
ByLayer
10
129.184467941
20
89.0543773355
30
0.0
11
129.025823179
21
89.6169781659
31
0.0
0
LINE
5
359
100
AcDbEntity
100
AcDbLine
8
3
62
256
370
-1
6
ByLayer
10
129.025823179
20
89.6169781659
30
0.0
11
128.85579352
21
90.1646448883
31
0.0
0
LINE
5
360
100
AcDbEntity
100
AcDbLine
8
3
62
256
370
-1
6
ByLayer
10
128.85579352
20
90.1646448883
30
0.0
11
128.675063877
21
90.6971329404
31
0.0
0
LINE
5
361
100
AcDbEntity
100
AcDbLine
8
3
62
256
370
-1
6
ByLayer
10
128.675063877
20
90.6971329404
30
0.0
11
128.484324752
21
91.2142245268
31
0.0
0
LINE
5
362
100
AcDbEntity
100
AcDbLine
8
3
62
256
370
-1
6
ByLayer
10
128.484324752
20
91.2142245268
30
0.0
11
128.284271247
21
91.7157287525
31
0.0
0
LINE
5
363
100
AcDbEntity
100
AcDbLine
8
3
62
256
370
-1
6
ByLayer
10
128.284271247
20
91.7157287525
30
0.0
11
128.07560208
21
92.201481722
31
0.0
0
LINE
5
364
100
AcDbEntity
100
AcDbLine
8
3
62
256
370
-1
6
ByLayer
10
128.07560208
20
92.201481722
30
0.0
11
127.85901859
21
92.6713466027
31
0.0
0
LINE
5
365
100
AcDbEntity
100
AcDbLine
8
3
62
256
370
-1
6
ByLayer
10
127.85901859
20
92.6713466027
30
0.0
11
127.635223754
21
93.125213653
31
0.0
0
LINE
5
366
100
AcDbEntity
100
AcDbLine
8
3
62
256
370
-1
6
ByLayer
10
127.635223754
20
93.125213653
30
0.0
11
127.40492119
21
93.5630002152
31
0.0
0
LINE
5
367
100
AcDbEntity
100
AcDbLine
8
3
62
256
370
-1
6
ByLayer
10
127.40492119
20
93.5630002152
30
0.0
11
127.168814171
21
93.9846506728
31
0.0
0
LINE
5
368
100
AcDbEntity
100
AcDbLine
8
3
62
256
370
-1
6
ByLayer
10
127.168814171
20
93.9846506728
30
0.0
11
126.927604642
21
94.3901363727
31
0.0
0
LINE
5
369
100
AcDbEntity
100
AcDbLine
8
3
62
256
370
-1
6
ByLayer
10
126.927604642
20
94.3901363727
30
0.0
11
126.681992232
21
94.7794555125
31
0.0
0
LINE
5
370
100
AcDbEntity
100
AcDbLine
8
3
62
256
370
-1
6
ByLayer
10
126.681992232
20
94.7794555125
30
0.0
11
126.432673286
21
95.1526329927
31
0.0
0
LINE
5
371
100
AcDbEntity
100
AcDbLine
8
3
62
256
370
-1
6
ByLayer
10
126.432673286
20
95.1526329927
30
0.0
11
126.180339887
21
95.5097202342
31
0.0
0
LINE
5
372
100
AcDbEntity
100
AcDbLine
8
3
62
256
370
-1
6
ByLayer
10
126.180339887
20
95.5097202342
30
0.0
11
125.925678905
21
95.8507949617
31
0.0
0
LINE
5
373
100
AcDbEntity
100
AcDbLine
8
3
62
256
370
-1
6
ByLayer
10
125.925678905
20
95.8507949617
30
0.0
11
125.669371034
21
96.1759609525
31
0.0
0
LINE
5
374
100
AcDbEntity
100
AcDbLine
8
3
62
256
370
-1
6
ByLayer
10
125.669371034
20
96.1759609525
30
0.0
11
125.412089856
21
96.4853477522
31
0.0
0
LINE
5
375
100
AcDbEntity
100
AcDbLine
8
3
62
256
370
-1
6
ByLayer
10
125.412089856
20
96.4853477522
30
0.0
11
125.154500911
21
96.7791103567
31
0.0
0
LINE
5
376
100
AcDbEntity
100
AcDbLine
8
3
62
256
370
-1
6
ByLayer
10
125.154500911
20
96.7791103567
30
0.0
11
124.897260772
21
97.0574288608
31
0.0
0
LINE
5
377
100
AcDbEntity
100
AcDbLine
8
3
62
256
370
-1
6
ByLayer
10
124.897260772
20
97.0574288608
30
0.0
11
124.641016151
21
97.3205080757
31
0.0
0
LINE
5
378
100
AcDbEntity
100
AcDbLine
8
3
62
256
370
-1
6
ByLayer
10
124.641016151
20
97.3205080757
30
0.0
11
124.386403001
21
97.5685771133
31
0.0
0
LINE
5
379
100
AcDbEntity
100
AcDbLine
8
3
62
256
370
-1
6
ByLayer
10
124.386403001
20
97.5685771133
30
0.0
11
124.134045645
21
97.8018889397
31
0.0
0
LINE
5
380
100
AcDbEntity
100
AcDbLine
8
3
62
256
370
-1
6
ByLayer
10
124.134045645
20
97.8018889397
30
0.0
11
123.884555922
21
98.0207198979
31
0.0
0
LINE
5
381
100
AcDbEntity
100
AcDbLine
8
3
62
256
370
-1
6
ByLayer
10
123.884555922
20
98.0207198979
30
0.0
11
123.638532345
21
98.2253692006
31
0.0
0
LINE
5
382
100
AcDbEntity
100
AcDbLine
8
3
62
256
370
-1
6
ByLayer
10
123.638532345
20
98.2253692006
30
0.0
11
123.396559288
21
98.4161583928
31
0.0
0
LINE
5
383
100
AcDbEntity
100
AcDbLine
8
3
62
256
370
-1
6
ByLayer
10
123.396559288
20
98.4161583928
30
0.0
11
123.159206178
21
98.5934307865
31
0.0
0
LINE
5
384
100
AcDbEntity
100
AcDbLine
8
3
62
256
370
-1
6
ByLayer
10
123.159206178
20
98.5934307865
30
0.0
11
122.927026729
21
98.7575508672
31
0.0
0
LINE
5
385
100
AcDbEntity
100
AcDbLine
8
3
62
256
370
-1
6
ByLayer
10
122.927026729
20
98.7575508672
30
0.0
11
122.700558176
21
98.9089036725
31
0.0
0
LINE
5
386
100
AcDbEntity
100
AcDbLine
8
3
62
256
370
-1
6
ByLayer
10
122.700558176
20
98.9089036725
30
0.0
11
122.48032055
21
99.0478941454
31
0.0
0
LINE
5
387
100
AcDbEntity
100
AcDbLine
8
3
62
256
370
-1
6
ByLayer
10
122.48032055
20
99.0478941454
30
0.0
11
122.266815969
21
99.1749464607
31
0.0
0
LINE
5
388
100
AcDbEntity
100
AcDbLine
8
3
62
256
370
-1
6
ByLayer
10
122.266815969
20
99.1749464607
30
0.0
11
122.060527952
21
99.2905033282
31
0.0
0
LINE
5
389
100
AcDbEntity
100
AcDbLine
8
3
62
256
370
-1
6
ByLayer
10
122.060527952
20
99.2905033282
30
0.0
11
121.861920764
21
99.3950252709
31
0.0
0
LINE
5
390
100
AcDbEntity
100
AcDbLine
8
3
62
256
370
-1
6
ByLayer
10
121.861920764
20
99.3950252709
30
0.0
11
121.671438787
21
99.4889898805
31
0.0
0
LINE
5
391
100
AcDbEntity
100
AcDbLine
8
3
62
256
370
-1
6
ByLayer
10
121.671438787
20
99.4889898805
30
0.0
11
121.489505914
21
99.572891052
31
0.0
0
LINE
5
392
100
AcDbEntity
100
AcDbLine
8
3
62
256
370
-1
6
ByLayer
10
121.489505914
20
99.572891052
30
0.0
11
121.316524976
21
99.6472381959
31
0.0
0
LINE
5
393
100
AcDbEntity
100
AcDbLine
8
3
62
256
370
-1
6
ByLayer
10
121.316524976
20
99.6472381959
30
0.0
11
121.152877194
21
99.7125554317
31
0.0
0
LINE
5
394
100
AcDbEntity
100
AcDbLine
8
3
62
256
370
-1
6
ByLayer
10
121.152877194
20
99.7125554317
30
0.0
11
120.998921665
21
99.769380762
31
0.0
0
LINE
5
395
100
AcDbEntity
100
AcDbLine
8
3
62
256
370
-1
6
ByLayer
10
120.998921665
20
99.769380762
30
0.0
11
120.854994877
21
99.8182652288
31
0.0
0
LINE
5
396
100
AcDbEntity
100
AcDbLine
8
3
62
256
370
-1
6
ByLayer
10
120.854994877
20
99.8182652288
30
0.0
11
120.721410247
21
99.8597720533
31
0.0
0
LINE
5
397
100
AcDbEntity
100
AcDbLine
8
3
62
256
370
-1
6
ByLayer
10
120.721410247
20
99.8597720533
30
0.0
11
120.598457705
21
99.8944757598
31
0.0
0
LINE
5
398
100
AcDbEntity
100
AcDbLine
8
3
62
256
370
-1
6
ByLayer
10
120.598457705
20
99.8944757598
30
0.0
11
120.486403298
21
99.9229612859
31
0.0
0
LINE
5
399
100
AcDbEntity
100
AcDbLine
8
3
62
256
370
-1
6
ByLayer
10
120.486403298
20
99.9229612859
30
0.0
11
120.385488831
21
99.9458230779
31
0.0
0
LINE
5
400
100
AcDbEntity
100
AcDbLine
8
3
62
256
370
-1
6
ByLayer
10
120.385488831
20
99.9458230779
30
0.0
11
120.29593154
21
99.9636641758
31
0.0
0
LINE
5
401
100
AcDbEntity
100
AcDbLine
8
3
62
256
370
-1
6
ByLayer
10
120.29593154
20
99.9636641758
30
0.0
11
120.2179238
21
99.9770952856
31
0.0
0
LINE
5
402
100
AcDbEntity
100
AcDbLine
8
3
62
256
370
-1
6
ByLayer
10
120.2179238
20
99.9770952856
30
0.0
11
120.151632863
21
99.9867338434
31
0.0
0
LINE
5
403
100
AcDbEntity
100
AcDbLine
8
3
62
256
370
-1
6
ByLayer
10
120.151632863
20
99.9867338434
30
0.0
11
120.097200636
21
99.9932030694
31
0.0
0
LINE
5
404
100
AcDbEntity
100
AcDbLine
8
3
62
256
370
-1
6
ByLayer
10
120.097200636
20
99.9932030694
30
0.0
11
120.054743483
21
99.9971310156
31
0.0
0
LINE
5
405
100
AcDbEntity
100
AcDbLine
8
3
62
256
370
-1
6
ByLayer
10
120.054743483
20
99.9971310156
30
0.0
11
120.024352076
21
99.9991496068
31
0.0
0
LINE
5
406
100
AcDbEntity
100
AcDbLine
8
3
62
256
370
-1
6
ByLayer
10
120.024352076
20
99.9991496068
30
0.0
11
120.006091266
21
99.9998936766
31
0.0
0
MTEXT
5
407
100
AcDbEntity
100
AcDbMText
8
3
62
256
370
-1
6
ByLayer
10
85.0
20
43.0384757729
30
0.0
40
1
41
100.0
71
8
72
0
1
Cardioid
7
normallatin1
50
0.0
73
1
44
1.0
0
ENDSEC
  0
SECTION
  2
OBJECTS
  0
DICTIONARY
  5
C
100
AcDbDictionary
280
0
281
1
  3
ACAD_GROUP
350
D
  3
ACAD_LAYOUT
350
1A
  3
ACAD_MLINESTYLE
350
17
  3
ACAD_PLOTSETTINGS
350
19
  3
ACAD_PLOTSTYLENAME
350
E
  3
AcDbVariableDictionary
350
48
  0
DICTIONARY
  5
D
100
AcDbDictionary
280
0
281
1
  0
ACDBDICTIONARYWDFLT
  5
E
100
AcDbDictionary
281
1
  3
Normal
350
F
100
AcDbDictionaryWithDefault
340
F
  0
ACDBPLACEHOLDER
  5
F
  0
DICTIONARY
  5
17
100
AcDbDictionary
280
0
281
1
  3
Standard
350
18
  0
MLINESTYLE
  5
18
100
AcDbMlineStyle
  2
STANDARD
 70
0
  3

 62
256
 51
90.0
 52
90.0
 71
2
 49
0.5
 62
256
  6
BYLAYER
 49
-0.5
 62
256
  6
BYLAYER
  0
DICTIONARY
  5
19
100
AcDbDictionary
280
0
281
1
  0
DICTIONARY
  5
1A
100
AcDbDictionary
281
1
  3
Layout1
350
1E
  3
Layout2
350
26
  3
Model
350
22
  0
LAYOUT
  5
1E
100
AcDbPlotSettings
  1

  2
C:\Program Files\AutoCAD 2002\plotters\DWF ePlot (optimized for plotting).pc3
  4

  6

 40
0.0
 41
0.0
 42
0.0
 43
0.0
 44
0.0
 45
0.0
 46
0.0
 47
0.0
 48
0.0
 49
0.0
140
0.0
141
0.0
142
1.0
143
1.0
 70
688
 72
0
 73
0
 74
5
  7

 75
16
147
1.0
148
0.0
149
0.0
100
AcDbLayout
  1
Layout1
 70
1
 71
1
 10
0.0
 20
0.0
 11
420.0
 21
297.0
 12
0.0
 22
0.0
 32
0.0
 14
100000000000000000000.0
 24
100000000000000000000.0
 34
100000000000000000000.0
 15
-100000000000000000000.0
 25
-100000000000000000000.0
 35
-100000000000000000000.0
146
0.0
 13
0.0
 23
0.0
 33
0.0
 16
1.0
 26
0.0
 36
0.0
 17
0.0
 27
1.0
 37
0.0
 76
0
330
1B
  0
LAYOUT
  5
22
100
AcDbPlotSettings
  1

  2
C:\Program Files\AutoCAD 2002\plotters\DWF ePlot (optimized for plotting).pc3
  4

  6

 40
0.0
 41
0.0
 42
0.0
 43
0.0
 44
0.0
 45
0.0
 46
0.0
 47
0.0
 48
0.0
 49
0.0
140
0.0
141
0.0
142
1.0
143
1.0
 70
1712
 72
0
 73
0
 74
0
  7

 75
0
147
1.0
148
0.0
149
0.0
100
AcDbLayout
  1
Model
 70
1
 71
0
 10
0.0
 20
0.0
 11
12.0
 21
9.0
 12
0.0
 22
0.0
 32
0.0
 14
0.0
 24
0.0
 34
0.0
 15
0.0
 25
0.0
 35
0.0
146
0.0
 13
0.0
 23
0.0
 33
0.0
 16
1.0
 26
0.0
 36
0.0
 17
0.0
 27
1.0
 37
0.0
 76
0
330
1F
  0
LAYOUT
  5
26
100
AcDbPlotSettings
  1

  2
C:\Program Files\AutoCAD 2002\plotters\DWF ePlot (optimized for plotting).pc3
  4

  6

 40
0.0
 41
0.0
 42
0.0
 43
0.0
 44
0.0
 45
0.0
 46
0.0
 47
0.0
 48
0.0
 49
0.0
140
0.0
141
0.0
142
1.0
143
1.0
 70
688
 72
0
 73
0
 74
5
  7

 75
16
147
1.0
148
0.0
149
0.0
100
AcDbLayout
  1
Layout2
 70
1
 71
2
 10
0.0
 20
0.0
 11
12.0
 21
9.0
 12
0.0
 22
0.0
 32
0.0
 14
0.0
 24
0.0
 34
0.0
 15
0.0
 25
0.0
 35
0.0
146
0.0
 13
0.0
 23
0.0
 33
0.0
 16
1.0
 26
0.0
 36
0.0
 17
0.0
 27
1.0
 37
0.0
 76
0
330
23
  0
DICTIONARY
  5
48
100
AcDbDictionary
281
1
  3
DIMASSOC
350
4A
  3
HIDETEXT
350
49
  0
DICTIONARYVAR
  5
49
100
DictionaryVariables
280
0
  1
2
  0
DICTIONARYVAR
  5
4A
100
DictionaryVariables
280
0
  1
1
  0
ENDSEC
  0
EOF
