999
dxflib 2.0.4.8
  0
SECTION
  2
HEADER
  9
$ACADVER
  1
AC1015
  9
$HANDSEED
  5
FFFF
  9
$DIMASZ
 40
2.5
  9
$DIMGAP
 40
0.625
  9
$DIMEXO
 40
0.625
  9
$INSUNITS
 70
4
  9
$DIMTXT
 40
2.5
  9
$PLIMMAX
 10
210.0
 20
297.0
  9
$PLIMMIN
 10
0.0
 20
0.0
  9
$DIMEXE
 40
1.25
  0
ENDSEC
  0
SECTION
  2
TABLES
  0
TABLE
  2
VPORT
  5
8
100
AcDbSymbolTable
 70
1
  0
VPORT
  5
30
100
AcDbSymbolTableRecord
100
AcDbViewportTableRecord
  2
*Active
 70
0
 10
0.0
 20
0.0
 11
1.0
 21
1.0
 12
286.3055555555554861
 22
148.5
 13
0.0
 23
0.0
 14
10.0
 24
10.0
 15
10.0
 25
10.0
 16
0.0
 26
0.0
 36
1.0
 17
0.0
 27
0.0
 37
0.0
 40
297.0
 41
1.92798353909465
 42
50.0
 43
0.0
 44
0.0
 50
0.0
 51
0.0
 71
0
 72
100
 73
1
 74
3
 75
1
 76
1
 77
0
 78
0
281
0
 65
1
110
0.0
120
0.0
130
0.0
111
1.0
121
0.0
131
0.0
112
0.0
122
1.0
132
0.0
 79
0
146
0.0
  0
ENDTAB
  0
TABLE
  2
LTYPE
  5
5
100
AcDbSymbolTable
 70
21
  0
LTYPE
  5
14
100
AcDbSymbolTableRecord
100
AcDbLinetypeTableRecord
  2
ByBlock
 70
0
  3

 72
65
 73
0
 40
0.0
  0
LTYPE
  5
15
100
AcDbSymbolTableRecord
100
AcDbLinetypeTableRecord
  2
ByLayer
 70
0
  3

 72
65
 73
0
 40
0.0
  0
LTYPE
  5
16
100
AcDbSymbolTableRecord
100
AcDbLinetypeTableRecord
  2
CONTINUOUS
 70
0
  3
Solid line
 72
65
 73
0
 40
0.0
  0
LTYPE
  5
31
100
AcDbSymbolTableRecord
100
AcDbLinetypeTableRecord
  2
DOT
 70
0
  3
Dot . . . . . . . . . . . . . . . . . . . . . .
 72
65
 73
2
 40
6.3499999999999996
 49
0.0
 74
0
 49
-6.3499999999999996
 74
0
  0
LTYPE
  5
32
100
AcDbSymbolTableRecord
100
AcDbLinetypeTableRecord
  2
DOT2
 70
0
  3
Dot (.5x) .....................................
 72
65
 73
2
 40
3.1749999999999998
 49
0.0
 74
0
 49
-3.1749999999999998
 74
0
  0
LTYPE
  5
33
100
AcDbSymbolTableRecord
100
AcDbLinetypeTableRecord
  2
DOTX2
 70
0
  3
Dot (2x) .  .  .  .  .  .  .  .  .  .  .  .  .
 72
65
 73
2
 40
12.6999999999999993
 49
0.0
 74
0
 49
-12.6999999999999993
 74
0
  0
LTYPE
  5
34
100
AcDbSymbolTableRecord
100
AcDbLinetypeTableRecord
  2
DASHED
 70
0
  3
Dashed __ __ __ __ __ __ __ __ __ __ __ __ __ _
 72
65
 73
2
 40
19.0500000000000007
 49
12.6999999999999993
 74
0
 49
-6.3499999999999996
 74
0
  0
LTYPE
  5
35
100
AcDbSymbolTableRecord
100
AcDbLinetypeTableRecord
  2
DASHED2
 70
0
  3
Dashed (.5x) _ _ _ _ _ _ _ _ _ _ _ _ _ _ _ _ _
 72
65
 73
2
 40
9.5250000000000004
 49
6.3499999999999996
 74
0
 49
-3.1749999999999998
 74
0
  0
LTYPE
  5
36
100
AcDbSymbolTableRecord
100
AcDbLinetypeTableRecord
  2
DASHEDX2
 70
0
  3
Dashed (2x) ____  ____  ____  ____  ____  ___
 72
65
 73
2
 40
38.1000000000000014
 49
25.3999999999999986
 74
0
 49
-12.6999999999999993
 74
0
  0
LTYPE
  5
37
100
AcDbSymbolTableRecord
100
AcDbLinetypeTableRecord
  2
DASHDOT
 70
0
  3
Dash dot __ . __ . __ . __ . __ . __ . __ . __
 72
65
 73
4
 40
25.3999999999999986
 49
12.6999999999999993
 74
0
 49
-6.3499999999999996
 74
0
 49
0.0
 74
0
 49
-6.3499999999999996
 74
0
  0
LTYPE
  5
38
100
AcDbSymbolTableRecord
100
AcDbLinetypeTableRecord
  2
DASHDOT2
 70
0
  3
Dash dot (.5x) _._._._._._._._._._._._._._._.
 72
65
 73
4
 40
12.6999999999999993
 49
6.3499999999999996
 74
0
 49
-3.1749999999999998
 74
0
 49
0.0
 74
0
 49
-3.1749999999999998
 74
0
  0
LTYPE
  5
39
100
AcDbSymbolTableRecord
100
AcDbLinetypeTableRecord
  2
DASHDOTX2
 70
0
  3
Dash dot (2x) ____  .  ____  .  ____  .  ___
 72
65
 73
4
 40
50.7999999999999972
 49
25.3999999999999986
 74
0
 49
-12.6999999999999993
 74
0
 49
0.0
 74
0
 49
-12.6999999999999993
 74
0
  0
LTYPE
  5
3A
100
AcDbSymbolTableRecord
100
AcDbLinetypeTableRecord
  2
DIVIDE
 70
0
  3
Divide ____ . . ____ . . ____ . . ____ . . ____
 72
65
 73
6
 40
31.75
 49
12.6999999999999993
 74
0
 49
-6.3499999999999996
 74
0
 49
0.0
 74
0
 49
-6.3499999999999996
 74
0
 49
0.0
 74
0
 49
-6.3499999999999996
 74
0
  0
LTYPE
  5
3B
100
AcDbSymbolTableRecord
100
AcDbLinetypeTableRecord
  2
DIVIDE2
 70
0
  3
Divide (.5x) __..__..__..__..__..__..__..__.._
 72
65
 73
6
 40
15.875
 49
6.3499999999999996
 74
0
 49
-3.1749999999999998
 74
0
 49
0.0
 74
0
 49
-3.1749999999999998
 74
0
 49
0.0
 74
0
 49
-3.1749999999999998
 74
0
  0
LTYPE
  5
3C
100
AcDbSymbolTableRecord
100
AcDbLinetypeTableRecord
  2
DIVIDEX2
 70
0
  3
Divide (2x) ________  .  .  ________  .  .  _
 72
65
 73
6
 40
63.5
 49
25.3999999999999986
 74
0
 49
-12.6999999999999993
 74
0
 49
0.0
 74
0
 49
-12.6999999999999993
 74
0
 49
0.0
 74
0
 49
-12.6999999999999993
 74
0
  0
LTYPE
  5
3D
100
AcDbSymbolTableRecord
100
AcDbLinetypeTableRecord
  2
CENTER
 70
0
  3
Center ____ _ ____ _ ____ _ ____ _ ____ _ ____
 72
65
 73
4
 40
50.7999999999999972
 49
31.75
 74
0
 49
-6.3499999999999996
 74
0
 49
6.3499999999999996
 74
0
 49
-6.3499999999999996
 74
0
  0
LTYPE
  5
3E
100
AcDbSymbolTableRecord
100
AcDbLinetypeTableRecord
  2
CENTER2
 70
0
  3
Center (.5x) ___ _ ___ _ ___ _ ___ _ ___ _ ___
 72
65
 73
4
 40
28.5749999999999993
 49
19.0500000000000007
 74
0
 49
-3.1749999999999998
 74
0
 49
3.1749999999999998
 74
0
 49
-3.1749999999999998
 74
0
  0
LTYPE
  5
3F
100
AcDbSymbolTableRecord
100
AcDbLinetypeTableRecord
  2
CENTERX2
 70
0
  3
Center (2x) ________  __  ________  __  _____
 72
65
 73
4
 40
101.5999999999999943
 49
63.5
 74
0
 49
-12.6999999999999993
 74
0
 49
12.6999999999999993
 74
0
 49
-12.6999999999999993
 74
0
  0
LTYPE
  5
40
100
AcDbSymbolTableRecord
100
AcDbLinetypeTableRecord
  2
BORDER
 70
0
  3
Border __ __ . __ __ . __ __ . __ __ . __ __ .
 72
65
 73
6
 40
44.4500000000000028
 49
12.6999999999999993
 74
0
 49
-6.3499999999999996
 74
0
 49
12.6999999999999993
 74
0
 49
-6.3499999999999996
 74
0
 49
0.0
 74
0
 49
-6.3499999999999996
 74
0
  0
LTYPE
  5
41
100
AcDbSymbolTableRecord
100
AcDbLinetypeTableRecord
  2
BORDER2
 70
0
  3
Border (.5x) __.__.__.__.__.__.__.__.__.__.__.
 72
65
 73
6
 40
22.2250000000000014
 49
6.3499999999999996
 74
0
 49
-3.1749999999999998
 74
0
 49
6.3499999999999996
 74
0
 49
-3.1749999999999998
 74
0
 49
0.0
 74
0
 49
-3.1749999999999998
 74
0
  0
LTYPE
  5
42
100
AcDbSymbolTableRecord
100
AcDbLinetypeTableRecord
  2
BORDERX2
 70
0
  3
Border (2x) ____  ____  .  ____  ____  .  ___
 72
65
 73
6
 40
88.9000000000000057
 49
25.3999999999999986
 74
0
 49
-12.6999999999999993
 74
0
 49
25.3999999999999986
 74
0
 49
-12.6999999999999993
 74
0
 49
0.0
 74
0
 49
-12.6999999999999993
 74
0
  0
ENDTAB
  0
TABLE
  2
LAYER
  5
2
100
AcDbSymbolTable
 70
6
  0
LAYER
  5
10
100
AcDbSymbolTableRecord
100
AcDbLayerTableRecord
  2
0
 70
0
 62
7
  6
CONTINUOUS
370
0
390
F
  0
LAYER
  5
43
100
AcDbSymbolTableRecord
100
AcDbLayerTableRecord
  2
1
 70
0
 62
6
  6
CONTINUOUS
370
0
390
F
  0
LAYER
  5
44
100
AcDbSymbolTableRecord
100
AcDbLayerTableRecord
  2
2
 70
0
 62
2
  6
CONTINUOUS
370
0
390
F
  0
LAYER
  5
45
100
AcDbSymbolTableRecord
100
AcDbLayerTableRecord
  2
3
 70
0
 62
3
  6
CONTINUOUS
370
0
390
F
  0
LAYER
  5
46
100
AcDbSymbolTableRecord
100
AcDbLayerTableRecord
  2
4
 70
0
 62
1
  6
CONTINUOUS
370
0
390
F
  0
LAYER
  5
47
100
AcDbSymbolTableRecord
100
AcDbLayerTableRecord
  2
5
 70
0
 62
5
  6
CONTINUOUS
370
0
390
F
  0
ENDTAB
  0
TABLE
  2
STYLE
  5
3
100
AcDbSymbolTable
 70
1
  0
STYLE
  5
11
100
AcDbSymbolTableRecord
100
AcDbTextStyleTableRecord
  2
Standard
 70
0
 40
0.0
 41
0.75
 50
0.0
 71
0
 42
2.5
  3
txt
  4

  0
ENDTAB
  0
TABLE
  2
VIEW
  5
6
100
AcDbSymbolTable
 70
0
  0
ENDTAB
  0
TABLE
  2
UCS
  5
7
100
AcDbSymbolTable
 70
0
  0
ENDTAB
  0
TABLE
  2
APPID
  5
9
100
AcDbSymbolTable
 70
1
  0
APPID
  5
12
100
AcDbSymbolTableRecord
100
AcDbRegAppTableRecord
  2
ACAD
 70
0
  0
ENDTAB
  0
TABLE
  2
DIMSTYLE
  5
A
100
AcDbSymbolTable
 70
1
100
AcDbDimStyleTable
 71
0
  0
DIMSTYLE
105
27
100
AcDbSymbolTableRecord
100
AcDbDimStyleTableRecord
  2
Standard
 41
2.5
 42
0.625
 43
3.75
 44
1.25
 70
0
 73
0
 74
0
 77
1
 78
8
140
2.5
141
2.5
143
0.03937007874016
147
0.625
171
3
172
1
271
2
272
2
274
3
278
44
283
0
284
8
340
11
  0
ENDTAB
  0
TABLE
  2
BLOCK_RECORD
  5
1
100
AcDbSymbolTable
 70
1
  0
BLOCK_RECORD
  5
1F
100
AcDbSymbolTableRecord
100
AcDbBlockTableRecord
  2
*Model_Space
340
22
  0
BLOCK_RECORD
  5
1B
100
AcDbSymbolTableRecord
100
AcDbBlockTableRecord
  2
*Paper_Space
340
1E
  0
BLOCK_RECORD
  5
23
100
AcDbSymbolTableRecord
100
AcDbBlockTableRecord
  2
*Paper_Space0
340
26
  0
ENDTAB
  0
ENDSEC
  0
SECTION
  2
BLOCKS
  0
BLOCK
  5
20
100
AcDbEntity
  8
0
100
AcDbBlockBegin
  2
*Model_Space
 70
0
 10
0.0
 20
0.0
 30
0.0
  3
*Model_Space
  1

  0
ENDBLK
  5
21
100
AcDbEntity
  8
0
100
AcDbBlockEnd
  0
BLOCK
  5
1C
100
AcDbEntity
 67
1
  8
0
100
AcDbBlockBegin
  2
*Paper_Space
 70
0
 10
0.0
 20
0.0
 30
0.0
  3
*Paper_Space
  1

  0
ENDBLK
  5
1D
100
AcDbEntity
 67
1
  8
0
100
AcDbBlockEnd
  0
BLOCK
  5
24
100
AcDbEntity
  8
0
100
AcDbBlockBegin
  2
*Paper_Space0
 70
0
 10
0.0
 20
0.0
 30
0.0
  3
*Paper_Space0
  1

  0
ENDBLK
  5
25
100
AcDbEntity
  8
0
100
AcDbBlockEnd
  0
ENDSEC
  0
SECTION
  2
ENTITIES
  0
LINE
5
48
100
AcDbEntity
100
AcDbLine
8
3
62
256
370
-1
6
ByLayer
10
120.0
20
100.0
30
0.0
11
119.996953903
21
100.349048129
31
0.0
0
LINE
5
49
100
AcDbEntity
100
AcDbLine
8
3
62
256
370
-1
6
ByLayer
10
119.996953903
20
100.349048129
30
0.0
11
119.98781654
21
100.697989934
31
0.0
0
LINE
5
50
100
AcDbEntity
100
AcDbLine
8
3
62
256
370
-1
6
ByLayer
10
119.98781654
20
100.697989934
30
0.0
11
119.972590695
21
101.046719125
31
0.0
0
LINE
5
51
100
AcDbEntity
100
AcDbLine
8
3
62
256
370
-1
6
ByLayer
10
119.972590695
20
101.046719125
30
0.0
11
119.951281005
21
101.395129475
31
0.0
0
LINE
5
52
100
AcDbEntity
100
AcDbLine
8
3
62
256
370
-1
6
ByLayer
10
119.951281005
20
101.395129475
30
0.0
11
119.923893962
21
101.743114855
31
0.0
0
LINE
5
53
100
AcDbEntity
100
AcDbLine
8
3
62
256
370
-1
6
ByLayer
10
119.923893962
20
101.743114855
30
0.0
11
119.890437907
21
102.090569265
31
0.0
0
LINE
5
54
100
AcDbEntity
100
AcDbLine
8
3
62
256
370
-1
6
ByLayer
10
119.890437907
20
102.090569265
30
0.0
11
119.850923033
21
102.437386868
31
0.0
0
LINE
5
55
100
AcDbEntity
100
AcDbLine
8
3
62
256
370
-1
6
ByLayer
10
119.850923033
20
102.437386868
30
0.0
11
119.805361375
21
102.783462019
31
0.0
0
LINE
5
56
100
AcDbEntity
100
AcDbLine
8
3
62
256
370
-1
6
ByLayer
10
119.805361375
20
102.783462019
30
0.0
11
119.753766812
21
103.128689301
31
0.0
0
LINE
5
57
100
AcDbEntity
100
AcDbLine
8
3
62
256
370
-1
6
ByLayer
10
119.753766812
20
103.128689301
30
0.0
11
119.69615506
21
103.472963553
31
0.0
0
LINE
5
58
100
AcDbEntity
100
AcDbLine
8
3
62
256
370
-1
6
ByLayer
10
119.69615506
20
103.472963553
30
0.0
11
119.632543669
21
103.816179908
31
0.0
0
LINE
5
59
100
AcDbEntity
100
AcDbLine
8
3
62
256
370
-1
6
ByLayer
10
119.632543669
20
103.816179908
30
0.0
11
119.562952015
21
104.158233816
31
0.0
0
LINE
5
60
100
AcDbEntity
100
AcDbLine
8
3
62
256
370
-1
6
ByLayer
10
119.562952015
20
104.158233816
30
0.0
11
119.487401296
21
104.499021087
31
0.0
0
LINE
5
61
100
AcDbEntity
100
AcDbLine
8
3
62
256
370
-1
6
ByLayer
10
119.487401296
20
104.499021087
30
0.0
11
119.405914525
21
104.838437912
31
0.0
0
LINE
5
62
100
AcDbEntity
100
AcDbLine
8
3
62
256
370
-1
6
ByLayer
10
119.405914525
20
104.838437912
30
0.0
11
119.318516526
21
105.176380902
31
0.0
0
LINE
5
63
100
AcDbEntity
100
AcDbLine
8
3
62
256
370
-1
6
ByLayer
10
119.318516526
20
105.176380902
30
0.0
11
119.225233919
21
105.512747116
31
0.0
0
LINE
5
64
100
AcDbEntity
100
AcDbLine
8
3
62
256
370
-1
6
ByLayer
10
119.225233919
20
105.512747116
30
0.0
11
119.126095119
21
105.847434094
31
0.0
0
LINE
5
65
100
AcDbEntity
100
AcDbLine
8
3
62
256
370
-1
6
ByLayer
10
119.126095119
20
105.847434094
30
0.0
11
119.021130326
21
106.180339887
31
0.0
0
LINE
5
66
100
AcDbEntity
100
AcDbLine
8
3
62
256
370
-1
6
ByLayer
10
119.021130326
20
106.180339887
30
0.0
11
118.910371512
21
106.511363089
31
0.0
0
LINE
5
67
100
AcDbEntity
100
AcDbLine
8
3
62
256
370
-1
6
ByLayer
10
118.910371512
20
106.511363089
30
0.0
11
118.793852416
21
106.840402867
31
0.0
0
LINE
5
68
100
AcDbEntity
100
AcDbLine
8
3
62
256
370
-1
6
ByLayer
10
118.793852416
20
106.840402867
30
0.0
11
118.67160853
21
107.167358991
31
0.0
0
LINE
5
69
100
AcDbEntity
100
AcDbLine
8
3
62
256
370
-1
6
ByLayer
10
118.67160853
20
107.167358991
30
0.0
11
118.543677091
21
107.492131868
31
0.0
0
LINE
5
70
100
AcDbEntity
100
AcDbLine
8
3
62
256
370
-1
6
ByLayer
10
118.543677091
20
107.492131868
30
0.0
11
118.410097069
21
107.81462257
31
0.0
0
LINE
5
71
100
AcDbEntity
100
AcDbLine
8
3
62
256
370
-1
6
ByLayer
10
118.410097069
20
107.81462257
30
0.0
11
118.270909153
21
108.134732862
31
0.0
0
LINE
5
72
100
AcDbEntity
100
AcDbLine
8
3
62
256
370
-1
6
ByLayer
10
118.270909153
20
108.134732862
30
0.0
11
118.126155741
21
108.452365235
31
0.0
0
LINE
5
73
100
AcDbEntity
100
AcDbLine
8
3
62
256
370
-1
6
ByLayer
10
118.126155741
20
108.452365235
30
0.0
11
117.975880926
21
108.767422936
31
0.0
0
LINE
5
74
100
AcDbEntity
100
AcDbLine
8
3
62
256
370
-1
6
ByLayer
10
117.975880926
20
108.767422936
30
0.0
11
117.820130484
21
109.079809995
31
0.0
0
LINE
5
75
100
AcDbEntity
100
AcDbLine
8
3
62
256
370
-1
6
ByLayer
10
117.820130484
20
109.079809995
30
0.0
11
117.658951857
21
109.389431256
31
0.0
0
LINE
5
76
100
AcDbEntity
100
AcDbLine
8
3
62
256
370
-1
6
ByLayer
10
117.658951857
20
109.389431256
30
0.0
11
117.492394143
21
109.696192405
31
0.0
0
LINE
5
77
100
AcDbEntity
100
AcDbLine
8
3
62
256
370
-1
6
ByLayer
10
117.492394143
20
109.696192405
30
0.0
11
117.320508076
21
110.0
31
0.0
0
LINE
5
78
100
AcDbEntity
100
AcDbLine
8
3
62
256
370
-1
6
ByLayer
10
117.320508076
20
110.0
30
0.0
11
117.143346014
21
110.300761498
31
0.0
0
LINE
5
79
100
AcDbEntity
100
AcDbLine
8
3
62
256
370
-1
6
ByLayer
10
117.143346014
20
110.300761498
30
0.0
11
116.960961923
21
110.598385285
31
0.0
0
LINE
5
80
100
AcDbEntity
100
AcDbLine
8
3
62
256
370
-1
6
ByLayer
10
116.960961923
20
110.598385285
30
0.0
11
116.773411359
21
110.8927807
31
0.0
0
LINE
5
81
100
AcDbEntity
100
AcDbLine
8
3
62
256
370
-1
6
ByLayer
10
116.773411359
20
110.8927807
30
0.0
11
116.580751451
21
111.183858069
31
0.0
0
LINE
5
82
100
AcDbEntity
100
AcDbLine
8
3
62
256
370
-1
6
ByLayer
10
116.580751451
20
111.183858069
30
0.0
11
116.383040886
21
111.471528727
31
0.0
0
LINE
5
83
100
AcDbEntity
100
AcDbLine
8
3
62
256
370
-1
6
ByLayer
10
116.383040886
20
111.471528727
30
0.0
11
116.180339887
21
111.755705046
31
0.0
0
LINE
5
84
100
AcDbEntity
100
AcDbLine
8
3
62
256
370
-1
6
ByLayer
10
116.180339887
20
111.755705046
30
0.0
11
115.972710201
21
112.036300463
31
0.0
0
LINE
5
85
100
AcDbEntity
100
AcDbLine
8
3
62
256
370
-1
6
ByLayer
10
115.972710201
20
112.036300463
30
0.0
11
115.760215072
21
112.313229506
31
0.0
0
LINE
5
86
100
AcDbEntity
100
AcDbLine
8
3
62
256
370
-1
6
ByLayer
10
115.760215072
20
112.313229506
30
0.0
11
115.542919229
21
112.586407821
31
0.0
0
LINE
5
87
100
AcDbEntity
100
AcDbLine
8
3
62
256
370
-1
6
ByLayer
10
115.542919229
20
112.586407821
30
0.0
11
115.320888862
21
112.855752194
31
0.0
0
LINE
5
88
100
AcDbEntity
100
AcDbLine
8
3
62
256
370
-1
6
ByLayer
10
115.320888862
20
112.855752194
30
0.0
11
115.094191604
21
113.12118058
31
0.0
0
LINE
5
89
100
AcDbEntity
100
AcDbLine
8
3
62
256
370
-1
6
ByLayer
10
115.094191604
20
113.12118058
30
0.0
11
114.86289651
21
113.382612127
31
0.0
0
LINE
5
90
100
AcDbEntity
100
AcDbLine
8
3
62
256
370
-1
6
ByLayer
10
114.86289651
20
113.382612127
30
0.0
11
114.627074032
21
113.639967201
31
0.0
0
LINE
5
91
100
AcDbEntity
100
AcDbLine
8
3
62
256
370
-1
6
ByLayer
10
114.627074032
20
113.639967201
30
0.0
11
114.386796007
21
113.893167409
31
0.0
0
LINE
5
92
100
AcDbEntity
100
AcDbLine
8
3
62
256
370
-1
6
ByLayer
10
114.386796007
20
113.893167409
30
0.0
11
114.142135624
21
114.142135624
31
0.0
0
LINE
5
93
100
AcDbEntity
100
AcDbLine
8
3
62
256
370
-1
6
ByLayer
10
114.142135624
20
114.142135624
30
0.0
11
113.893167409
21
114.386796007
31
0.0
0
LINE
5
94
100
AcDbEntity
100
AcDbLine
8
3
62
256
370
-1
6
ByLayer
10
113.893167409
20
114.386796007
30
0.0
11
113.639967201
21
114.627074032
31
0.0
0
LINE
5
95
100
AcDbEntity
100
AcDbLine
8
3
62
256
370
-1
6
ByLayer
10
113.639967201
20
114.627074032
30
0.0
11
113.382612127
21
114.86289651
31
0.0
0
LINE
5
96
100
AcDbEntity
100
AcDbLine
8
3
62
256
370
-1
6
ByLayer
10
113.382612127
20
114.86289651
30
0.0
11
113.12118058
21
115.094191604
31
0.0
0
LINE
5
97
100
AcDbEntity
100
AcDbLine
8
3
62
256
370
-1
6
ByLayer
10
113.12118058
20
115.094191604
30
0.0
11
112.855752194
21
115.320888862
31
0.0
0
LINE
5
98
100
AcDbEntity
100
AcDbLine
8
3
62
256
370
-1
6
ByLayer
10
112.855752194
20
115.320888862
30
0.0
11
112.586407821
21
115.542919229
31
0.0
0
LINE
5
99
100
AcDbEntity
100
AcDbLine
8
3
62
256
370
-1
6
ByLayer
10
112.586407821
20
115.542919229
30
0.0
11
112.313229506
21
115.760215072
31
0.0
0
LINE
5
100
100
AcDbEntity
100
AcDbLine
8
3
62
256
370
-1
6
ByLayer
10
112.313229506
20
115.760215072
30
0.0
11
112.036300463
21
115.972710201
31
0.0
0
LINE
5
101
100
AcDbEntity
100
AcDbLine
8
3
62
256
370
-1
6
ByLayer
10
112.036300463
20
115.972710201
30
0.0
11
111.755705046
21
116.180339887
31
0.0
0
LINE
5
102
100
AcDbEntity
100
AcDbLine
8
3
62
256
370
-1
6
ByLayer
10
111.755705046
20
116.180339887
30
0.0
11
111.471528727
21
116.383040886
31
0.0
0
LINE
5
103
100
AcDbEntity
100
AcDbLine
8
3
62
256
370
-1
6
ByLayer
10
111.471528727
20
116.383040886
30
0.0
11
111.183858069
21
116.580751451
31
0.0
0
LINE
5
104
100
AcDbEntity
100
AcDbLine
8
3
62
256
370
-1
6
ByLayer
10
111.183858069
20
116.580751451
30
0.0
11
110.8927807
21
116.773411359
31
0.0
0
LINE
5
105
100
AcDbEntity
100
AcDbLine
8
3
62
256
370
-1
6
ByLayer
10
110.8927807
20
116.773411359
30
0.0
11
110.598385285
21
116.960961923
31
0.0
0
LINE
5
106
100
AcDbEntity
100
AcDbLine
8
3
62
256
370
-1
6
ByLayer
10
110.598385285
20
116.960961923
30
0.0
11
110.300761498
21
117.143346014
31
0.0
0
LINE
5
107
100
AcDbEntity
100
AcDbLine
8
3
62
256
370
-1
6
ByLayer
10
110.300761498
20
117.143346014
30
0.0
11
110.0
21
117.320508076
31
0.0
0
LINE
5
108
100
AcDbEntity
100
AcDbLine
8
3
62
256
370
-1
6
ByLayer
10
110.0
20
117.320508076
30
0.0
11
109.696192405
21
117.492394143
31
0.0
0
LINE
5
109
100
AcDbEntity
100
AcDbLine
8
3
62
256
370
-1
6
ByLayer
10
109.696192405
20
117.492394143
30
0.0
11
109.389431256
21
117.658951857
31
0.0
0
LINE
5
110
100
AcDbEntity
100
AcDbLine
8
3
62
256
370
-1
6
ByLayer
10
109.389431256
20
117.658951857
30
0.0
11
109.079809995
21
117.820130484
31
0.0
0
LINE
5
111
100
AcDbEntity
100
AcDbLine
8
3
62
256
370
-1
6
ByLayer
10
109.079809995
20
117.820130484
30
0.0
11
108.767422936
21
117.975880926
31
0.0
0
LINE
5
112
100
AcDbEntity
100
AcDbLine
8
3
62
256
370
-1
6
ByLayer
10
108.767422936
20
117.975880926
30
0.0
11
108.452365235
21
118.126155741
31
0.0
0
LINE
5
113
100
AcDbEntity
100
AcDbLine
8
3
62
256
370
-1
6
ByLayer
10
108.452365235
20
118.126155741
30
0.0
11
108.134732862
21
118.270909153
31
0.0
0
LINE
5
114
100
AcDbEntity
100
AcDbLine
8
3
62
256
370
-1
6
ByLayer
10
108.134732862
20
118.270909153
30
0.0
11
107.81462257
21
118.410097069
31
0.0
0
LINE
5
115
100
AcDbEntity
100
AcDbLine
8
3
62
256
370
-1
6
ByLayer
10
107.81462257
20
118.410097069
30
0.0
11
107.492131868
21
118.543677091
31
0.0
0
LINE
5
116
100
AcDbEntity
100
AcDbLine
8
3
62
256
370
-1
6
ByLayer
10
107.492131868
20
118.543677091
30
0.0
11
107.167358991
21
118.67160853
31
0.0
0
LINE
5
117
100
AcDbEntity
100
AcDbLine
8
3
62
256
370
-1
6
ByLayer
10
107.167358991
20
118.67160853
30
0.0
11
106.840402867
21
118.793852416
31
0.0
0
LINE
5
118
100
AcDbEntity
100
AcDbLine
8
3
62
256
370
-1
6
ByLayer
10
106.840402867
20
118.793852416
30
0.0
11
106.511363089
21
118.910371512
31
0.0
0
LINE
5
119
100
AcDbEntity
100
AcDbLine
8
3
62
256
370
-1
6
ByLayer
10
106.511363089
20
118.910371512
30
0.0
11
106.180339887
21
119.021130326
31
0.0
0
LINE
5
120
100
AcDbEntity
100
AcDbLine
8
3
62
256
370
-1
6
ByLayer
10
106.180339887
20
119.021130326
30
0.0
11
105.847434094
21
119.126095119
31
0.0
0
LINE
5
121
100
AcDbEntity
100
AcDbLine
8
3
62
256
370
-1
6
ByLayer
10
105.847434094
20
119.126095119
30
0.0
11
105.512747116
21
119.225233919
31
0.0
0
LINE
5
122
100
AcDbEntity
100
AcDbLine
8
3
62
256
370
-1
6
ByLayer
10
105.512747116
20
119.225233919
30
0.0
11
105.176380902
21
119.318516526
31
0.0
0
LINE
5
123
100
AcDbEntity
100
AcDbLine
8
3
62
256
370
-1
6
ByLayer
10
105.176380902
20
119.318516526
30
0.0
11
104.838437912
21
119.405914525
31
0.0
0
LINE
5
124
100
AcDbEntity
100
AcDbLine
8
3
62
256
370
-1
6
ByLayer
10
104.838437912
20
119.405914525
30
0.0
11
104.499021087
21
119.487401296
31
0.0
0
LINE
5
125
100
AcDbEntity
100
AcDbLine
8
3
62
256
370
-1
6
ByLayer
10
104.499021087
20
119.487401296
30
0.0
11
104.158233816
21
119.562952015
31
0.0
0
LINE
5
126
100
AcDbEntity
100
AcDbLine
8
3
62
256
370
-1
6
ByLayer
10
104.158233816
20
119.562952015
30
0.0
11
103.816179908
21
119.632543669
31
0.0
0
LINE
5
127
100
AcDbEntity
100
AcDbLine
8
3
62
256
370
-1
6
ByLayer
10
103.816179908
20
119.632543669
30
0.0
11
103.472963553
21
119.69615506
31
0.0
0
LINE
5
128
100
AcDbEntity
100
AcDbLine
8
3
62
256
370
-1
6
ByLayer
10
103.472963553
20
119.69615506
30
0.0
11
103.128689301
21
119.753766812
31
0.0
0
LINE
5
129
100
AcDbEntity
100
AcDbLine
8
3
62
256
370
-1
6
ByLayer
10
103.128689301
20
119.753766812
30
0.0
11
102.783462019
21
119.805361375
31
0.0
0
LINE
5
130
100
AcDbEntity
100
AcDbLine
8
3
62
256
370
-1
6
ByLayer
10
102.783462019
20
119.805361375
30
0.0
11
102.437386868
21
119.850923033
31
0.0
0
LINE
5
131
100
AcDbEntity
100
AcDbLine
8
3
62
256
370
-1
6
ByLayer
10
102.437386868
20
119.850923033
30
0.0
11
102.090569265
21
119.890437907
31
0.0
0
LINE
5
132
100
AcDbEntity
100
AcDbLine
8
3
62
256
370
-1
6
ByLayer
10
102.090569265
20
119.890437907
30
0.0
11
101.743114855
21
119.923893962
31
0.0
0
LINE
5
133
100
AcDbEntity
100
AcDbLine
8
3
62
256
370
-1
6
ByLayer
10
101.743114855
20
119.923893962
30
0.0
11
101.395129475
21
119.951281005
31
0.0
0
LINE
5
134
100
AcDbEntity
100
AcDbLine
8
3
62
256
370
-1
6
ByLayer
10
101.395129475
20
119.951281005
30
0.0
11
101.046719125
21
119.972590695
31
0.0
0
LINE
5
135
100
AcDbEntity
100
AcDbLine
8
3
62
256
370
-1
6
ByLayer
10
101.046719125
20
119.972590695
30
0.0
11
100.697989934
21
119.98781654
31
0.0
0
LINE
5
136
100
AcDbEntity
100
AcDbLine
8
3
62
256
370
-1
6
ByLayer
10
100.697989934
20
119.98781654
30
0.0
11
100.349048129
21
119.996953903
31
0.0
0
LINE
5
137
100
AcDbEntity
100
AcDbLine
8
3
62
256
370
-1
6
ByLayer
10
100.349048129
20
119.996953903
30
0.0
11
100.0
21
120.0
31
0.0
0
LINE
5
138
100
AcDbEntity
100
AcDbLine
8
3
62
256
370
-1
6
ByLayer
10
100.0
20
120.0
30
0.0
11
99.6509518713
21
119.996953903
31
0.0
0
LINE
5
139
100
AcDbEntity
100
AcDbLine
8
3
62
256
370
-1
6
ByLayer
10
99.6509518713
20
119.996953903
30
0.0
11
99.302010066
21
119.98781654
31
0.0
0
LINE
5
140
100
AcDbEntity
100
AcDbLine
8
3
62
256
370
-1
6
ByLayer
10
99.302010066
20
119.98781654
30
0.0
11
98.9532808751
21
119.972590695
31
0.0
0
LINE
5
141
100
AcDbEntity
100
AcDbLine
8
3
62
256
370
-1
6
ByLayer
10
98.9532808751
20
119.972590695
30
0.0
11
98.6048705251
21
119.951281005
31
0.0
0
LINE
5
142
100
AcDbEntity
100
AcDbLine
8
3
62
256
370
-1
6
ByLayer
10
98.6048705251
20
119.951281005
30
0.0
11
98.2568851451
21
119.923893962
31
0.0
0
LINE
5
143
100
AcDbEntity
100
AcDbLine
8
3
62
256
370
-1
6
ByLayer
10
98.2568851451
20
119.923893962
30
0.0
11
97.9094307347
21
119.890437907
31
0.0
0
LINE
5
144
100
AcDbEntity
100
AcDbLine
8
3
62
256
370
-1
6
ByLayer
10
97.9094307347
20
119.890437907
30
0.0
11
97.5626131319
21
119.850923033
31
0.0
0
LINE
5
145
100
AcDbEntity
100
AcDbLine
8
3
62
256
370
-1
6
ByLayer
10
97.5626131319
20
119.850923033
30
0.0
11
97.2165379808
21
119.805361375
31
0.0
0
LINE
5
146
100
AcDbEntity
100
AcDbLine
8
3
62
256
370
-1
6
ByLayer
10
97.2165379808
20
119.805361375
30
0.0
11
96.8713106992
21
119.753766812
31
0.0
0
LINE
5
147
100
AcDbEntity
100
AcDbLine
8
3
62
256
370
-1
6
ByLayer
10
96.8713106992
20
119.753766812
30
0.0
11
96.5270364467
21
119.69615506
31
0.0
0
LINE
5
148
100
AcDbEntity
100
AcDbLine
8
3
62
256
370
-1
6
ByLayer
10
96.5270364467
20
119.69615506
30
0.0
11
96.1838200925
21
119.632543669
31
0.0
0
LINE
5
149
100
AcDbEntity
100
AcDbLine
8
3
62
256
370
-1
6
ByLayer
10
96.1838200925
20
119.632543669
30
0.0
11
95.8417661836
21
119.562952015
31
0.0
0
LINE
5
150
100
AcDbEntity
100
AcDbLine
8
3
62
256
370
-1
6
ByLayer
10
95.8417661836
20
119.562952015
30
0.0
11
95.5009789131
21
119.487401296
31
0.0
0
LINE
5
151
100
AcDbEntity
100
AcDbLine
8
3
62
256
370
-1
6
ByLayer
10
95.5009789131
20
119.487401296
30
0.0
11
95.161562088
21
119.405914525
31
0.0
0
LINE
5
152
100
AcDbEntity
100
AcDbLine
8
3
62
256
370
-1
6
ByLayer
10
95.161562088
20
119.405914525
30
0.0
11
94.823619098
21
119.318516526
31
0.0
0
LINE
5
153
100
AcDbEntity
100
AcDbLine
8
3
62
256
370
-1
6
ByLayer
10
94.823619098
20
119.318516526
30
0.0
11
94.4872528837
21
119.225233919
31
0.0
0
LINE
5
154
100
AcDbEntity
100
AcDbLine
8
3
62
256
370
-1
6
ByLayer
10
94.4872528837
20
119.225233919
30
0.0
11
94.1525659056
21
119.126095119
31
0.0
0
LINE
5
155
100
AcDbEntity
100
AcDbLine
8
3
62
256
370
-1
6
ByLayer
10
94.1525659056
20
119.126095119
30
0.0
11
93.8196601125
21
119.021130326
31
0.0
0
LINE
5
156
100
AcDbEntity
100
AcDbLine
8
3
62
256
370
-1
6
ByLayer
10
93.8196601125
20
119.021130326
30
0.0
11
93.4886369109
21
118.910371512
31
0.0
0
LINE
5
157
100
AcDbEntity
100
AcDbLine
8
3
62
256
370
-1
6
ByLayer
10
93.4886369109
20
118.910371512
30
0.0
11
93.1595971335
21
118.793852416
31
0.0
0
LINE
5
158
100
AcDbEntity
100
AcDbLine
8
3
62
256
370
-1
6
ByLayer
10
93.1595971335
20
118.793852416
30
0.0
11
92.8326410091
21
118.67160853
31
0.0
0
LINE
5
159
100
AcDbEntity
100
AcDbLine
8
3
62
256
370
-1
6
ByLayer
10
92.8326410091
20
118.67160853
30
0.0
11
92.5078681317
21
118.543677091
31
0.0
0
LINE
5
160
100
AcDbEntity
100
AcDbLine
8
3
62
256
370
-1
6
ByLayer
10
92.5078681317
20
118.543677091
30
0.0
11
92.1853774302
21
118.410097069
31
0.0
0
LINE
5
161
100
AcDbEntity
100
AcDbLine
8
3
62
256
370
-1
6
ByLayer
10
92.1853774302
20
118.410097069
30
0.0
11
91.8652671385
21
118.270909153
31
0.0
0
LINE
5
162
100
AcDbEntity
100
AcDbLine
8
3
62
256
370
-1
6
ByLayer
10
91.8652671385
20
118.270909153
30
0.0
11
91.5476347652
21
118.126155741
31
0.0
0
LINE
5
163
100
AcDbEntity
100
AcDbLine
8
3
62
256
370
-1
6
ByLayer
10
91.5476347652
20
118.126155741
30
0.0
11
91.2325770642
21
117.975880926
31
0.0
0
LINE
5
164
100
AcDbEntity
100
AcDbLine
8
3
62
256
370
-1
6
ByLayer
10
91.2325770642
20
117.975880926
30
0.0
11
90.9201900052
21
117.820130484
31
0.0
0
LINE
5
165
100
AcDbEntity
100
AcDbLine
8
3
62
256
370
-1
6
ByLayer
10
90.9201900052
20
117.820130484
30
0.0
11
90.6105687443
21
117.658951857
31
0.0
0
LINE
5
166
100
AcDbEntity
100
AcDbLine
8
3
62
256
370
-1
6
ByLayer
10
90.6105687443
20
117.658951857
30
0.0
11
90.3038075951
21
117.492394143
31
0.0
0
LINE
5
167
100
AcDbEntity
100
AcDbLine
8
3
62
256
370
-1
6
ByLayer
10
90.3038075951
20
117.492394143
30
0.0
11
90.0
21
117.320508076
31
0.0
0
LINE
5
168
100
AcDbEntity
100
AcDbLine
8
3
62
256
370
-1
6
ByLayer
10
90.0
20
117.320508076
30
0.0
11
89.6992385018
21
117.143346014
31
0.0
0
LINE
5
169
100
AcDbEntity
100
AcDbLine
8
3
62
256
370
-1
6
ByLayer
10
89.6992385018
20
117.143346014
30
0.0
11
89.4016147153
21
116.960961923
31
0.0
0
LINE
5
170
100
AcDbEntity
100
AcDbLine
8
3
62
256
370
-1
6
ByLayer
10
89.4016147153
20
116.960961923
30
0.0
11
89.1072192997
21
116.773411359
31
0.0
0
LINE
5
171
100
AcDbEntity
100
AcDbLine
8
3
62
256
370
-1
6
ByLayer
10
89.1072192997
20
116.773411359
30
0.0
11
88.8161419306
21
116.580751451
31
0.0
0
LINE
5
172
100
AcDbEntity
100
AcDbLine
8
3
62
256
370
-1
6
ByLayer
10
88.8161419306
20
116.580751451
30
0.0
11
88.528471273
21
116.383040886
31
0.0
0
LINE
5
173
100
AcDbEntity
100
AcDbLine
8
3
62
256
370
-1
6
ByLayer
10
88.528471273
20
116.383040886
30
0.0
11
88.2442949542
21
116.180339887
31
0.0
0
LINE
5
174
100
AcDbEntity
100
AcDbLine
8
3
62
256
370
-1
6
ByLayer
10
88.2442949542
20
116.180339887
30
0.0
11
87.963699537
21
115.972710201
31
0.0
0
LINE
5
175
100
AcDbEntity
100
AcDbLine
8
3
62
256
370
-1
6
ByLayer
10
87.963699537
20
115.972710201
30
0.0
11
87.6867704935
21
115.760215072
31
0.0
0
LINE
5
176
100
AcDbEntity
100
AcDbLine
8
3
62
256
370
-1
6
ByLayer
10
87.6867704935
20
115.760215072
30
0.0
11
87.413592179
21
115.542919229
31
0.0
0
LINE
5
177
100
AcDbEntity
100
AcDbLine
8
3
62
256
370
-1
6
ByLayer
10
87.413592179
20
115.542919229
30
0.0
11
87.1442478063
21
115.320888862
31
0.0
0
LINE
5
178
100
AcDbEntity
100
AcDbLine
8
3
62
256
370
-1
6
ByLayer
10
87.1442478063
20
115.320888862
30
0.0
11
86.8788194202
21
115.094191604
31
0.0
0
LINE
5
179
100
AcDbEntity
100
AcDbLine
8
3
62
256
370
-1
6
ByLayer
10
86.8788194202
20
115.094191604
30
0.0
11
86.6173878728
21
114.86289651
31
0.0
0
LINE
5
180
100
AcDbEntity
100
AcDbLine
8
3
62
256
370
-1
6
ByLayer
10
86.6173878728
20
114.86289651
30
0.0
11
86.3600327988
21
114.627074032
31
0.0
0
LINE
5
181
100
AcDbEntity
100
AcDbLine
8
3
62
256
370
-1
6
ByLayer
10
86.3600327988
20
114.627074032
30
0.0
11
86.1068325908
21
114.386796007
31
0.0
0
LINE
5
182
100
AcDbEntity
100
AcDbLine
8
3
62
256
370
-1
6
ByLayer
10
86.1068325908
20
114.386796007
30
0.0
11
85.8578643763
21
114.142135624
31
0.0
0
LINE
5
183
100
AcDbEntity
100
AcDbLine
8
3
62
256
370
-1
6
ByLayer
10
85.8578643763
20
114.142135624
30
0.0
11
85.6132039932
21
113.893167409
31
0.0
0
LINE
5
184
100
AcDbEntity
100
AcDbLine
8
3
62
256
370
-1
6
ByLayer
10
85.6132039932
20
113.893167409
30
0.0
11
85.3729259676
21
113.639967201
31
0.0
0
LINE
5
185
100
AcDbEntity
100
AcDbLine
8
3
62
256
370
-1
6
ByLayer
10
85.3729259676
20
113.639967201
30
0.0
11
85.1371034905
21
113.382612127
31
0.0
0
LINE
5
186
100
AcDbEntity
100
AcDbLine
8
3
62
256
370
-1
6
ByLayer
10
85.1371034905
20
113.382612127
30
0.0
11
84.9058083955
21
113.12118058
31
0.0
0
LINE
5
187
100
AcDbEntity
100
AcDbLine
8
3
62
256
370
-1
6
ByLayer
10
84.9058083955
20
113.12118058
30
0.0
11
84.6791111376
21
112.855752194
31
0.0
0
LINE
5
188
100
AcDbEntity
100
AcDbLine
8
3
62
256
370
-1
6
ByLayer
10
84.6791111376
20
112.855752194
30
0.0
11
84.4570807709
21
112.586407821
31
0.0
0
LINE
5
189
100
AcDbEntity
100
AcDbLine
8
3
62
256
370
-1
6
ByLayer
10
84.4570807709
20
112.586407821
30
0.0
11
84.2397849279
21
112.313229506
31
0.0
0
LINE
5
190
100
AcDbEntity
100
AcDbLine
8
3
62
256
370
-1
6
ByLayer
10
84.2397849279
20
112.313229506
30
0.0
11
84.0272897991
21
112.036300463
31
0.0
0
LINE
5
191
100
AcDbEntity
100
AcDbLine
8
3
62
256
370
-1
6
ByLayer
10
84.0272897991
20
112.036300463
30
0.0
11
83.8196601125
21
111.755705046
31
0.0
0
LINE
5
192
100
AcDbEntity
100
AcDbLine
8
3
62
256
370
-1
6
ByLayer
10
83.8196601125
20
111.755705046
30
0.0
11
83.6169591142
21
111.471528727
31
0.0
0
LINE
5
193
100
AcDbEntity
100
AcDbLine
8
3
62
256
370
-1
6
ByLayer
10
83.6169591142
20
111.471528727
30
0.0
11
83.4192485489
21
111.183858069
31
0.0
0
LINE
5
194
100
AcDbEntity
100
AcDbLine
8
3
62
256
370
-1
6
ByLayer
10
83.4192485489
20
111.183858069
30
0.0
11
83.2265886411
21
110.8927807
31
0.0
0
LINE
5
195
100
AcDbEntity
100
AcDbLine
8
3
62
256
370
-1
6
ByLayer
10
83.2265886411
20
110.8927807
30
0.0
11
83.0390380769
21
110.598385285
31
0.0
0
LINE
5
196
100
AcDbEntity
100
AcDbLine
8
3
62
256
370
-1
6
ByLayer
10
83.0390380769
20
110.598385285
30
0.0
11
82.856653986
21
110.300761498
31
0.0
0
LINE
5
197
100
AcDbEntity
100
AcDbLine
8
3
62
256
370
-1
6
ByLayer
10
82.856653986
20
110.300761498
30
0.0
11
82.6794919243
21
110.0
31
0.0
0
LINE
5
198
100
AcDbEntity
100
AcDbLine
8
3
62
256
370
-1
6
ByLayer
10
82.6794919243
20
110.0
30
0.0
11
82.5076058572
21
109.696192405
31
0.0
0
LINE
5
199
100
AcDbEntity
100
AcDbLine
8
3
62
256
370
-1
6
ByLayer
10
82.5076058572
20
109.696192405
30
0.0
11
82.3410481428
21
109.389431256
31
0.0
0
LINE
5
200
100
AcDbEntity
100
AcDbLine
8
3
62
256
370
-1
6
ByLayer
10
82.3410481428
20
109.389431256
30
0.0
11
82.1798695162
21
109.079809995
31
0.0
0
LINE
5
201
100
AcDbEntity
100
AcDbLine
8
3
62
256
370
-1
6
ByLayer
10
82.1798695162
20
109.079809995
30
0.0
11
82.024119074
21
108.767422936
31
0.0
0
LINE
5
202
100
AcDbEntity
100
AcDbLine
8
3
62
256
370
-1
6
ByLayer
10
82.024119074
20
108.767422936
30
0.0
11
81.8738442593
21
108.452365235
31
0.0
0
LINE
5
203
100
AcDbEntity
100
AcDbLine
8
3
62
256
370
-1
6
ByLayer
10
81.8738442593
20
108.452365235
30
0.0
11
81.7290908471
21
108.134732862
31
0.0
0
LINE
5
204
100
AcDbEntity
100
AcDbLine
8
3
62
256
370
-1
6
ByLayer
10
81.7290908471
20
108.134732862
30
0.0
11
81.589902931
21
107.81462257
31
0.0
0
LINE
5
205
100
AcDbEntity
100
AcDbLine
8
3
62
256
370
-1
6
ByLayer
10
81.589902931
20
107.81462257
30
0.0
11
81.4563229087
21
107.492131868
31
0.0
0
LINE
5
206
100
AcDbEntity
100
AcDbLine
8
3
62
256
370
-1
6
ByLayer
10
81.4563229087
20
107.492131868
30
0.0
11
81.3283914701
21
107.167358991
31
0.0
0
LINE
5
207
100
AcDbEntity
100
AcDbLine
8
3
62
256
370
-1
6
ByLayer
10
81.3283914701
20
107.167358991
30
0.0
11
81.2061475843
21
106.840402867
31
0.0
0
LINE
5
208
100
AcDbEntity
100
AcDbLine
8
3
62
256
370
-1
6
ByLayer
10
81.2061475843
20
106.840402867
30
0.0
11
81.089628488
21
106.511363089
31
0.0
0
LINE
5
209
100
AcDbEntity
100
AcDbLine
8
3
62
256
370
-1
6
ByLayer
10
81.089628488
20
106.511363089
30
0.0
11
80.9788696741
21
106.180339887
31
0.0
0
LINE
5
210
100
AcDbEntity
100
AcDbLine
8
3
62
256
370
-1
6
ByLayer
10
80.9788696741
20
106.180339887
30
0.0
11
80.8739048807
21
105.847434094
31
0.0
0
LINE
5
211
100
AcDbEntity
100
AcDbLine
8
3
62
256
370
-1
6
ByLayer
10
80.8739048807
20
105.847434094
30
0.0
11
80.7747660812
21
105.512747116
31
0.0
0
LINE
5
212
100
AcDbEntity
100
AcDbLine
8
3
62
256
370
-1
6
ByLayer
10
80.7747660812
20
105.512747116
30
0.0
11
80.6814834742
21
105.176380902
31
0.0
0
LINE
5
213
100
AcDbEntity
100
AcDbLine
8
3
62
256
370
-1
6
ByLayer
10
80.6814834742
20
105.176380902
30
0.0
11
80.5940854745
21
104.838437912
31
0.0
0
LINE
5
214
100
AcDbEntity
100
AcDbLine
8
3
62
256
370
-1
6
ByLayer
10
80.5940854745
20
104.838437912
30
0.0
11
80.5125987043
21
104.499021087
31
0.0
0
LINE
5
215
100
AcDbEntity
100
AcDbLine
8
3
62
256
370
-1
6
ByLayer
10
80.5125987043
20
104.499021087
30
0.0
11
80.4370479853
21
104.158233816
31
0.0
0
LINE
5
216
100
AcDbEntity
100
AcDbLine
8
3
62
256
370
-1
6
ByLayer
10
80.4370479853
20
104.158233816
30
0.0
11
80.367456331
21
103.816179908
31
0.0
0
LINE
5
217
100
AcDbEntity
100
AcDbLine
8
3
62
256
370
-1
6
ByLayer
10
80.367456331
20
103.816179908
30
0.0
11
80.3038449398
21
103.472963553
31
0.0
0
LINE
5
218
100
AcDbEntity
100
AcDbLine
8
3
62
256
370
-1
6
ByLayer
10
80.3038449398
20
103.472963553
30
0.0
11
80.2462331881
21
103.128689301
31
0.0
0
LINE
5
219
100
AcDbEntity
100
AcDbLine
8
3
62
256
370
-1
6
ByLayer
10
80.2462331881
20
103.128689301
30
0.0
11
80.1946386252
21
102.783462019
31
0.0
0
LINE
5
220
100
AcDbEntity
100
AcDbLine
8
3
62
256
370
-1
6
ByLayer
10
80.1946386252
20
102.783462019
30
0.0
11
80.1490769672
21
102.437386868
31
0.0
0
LINE
5
221
100
AcDbEntity
100
AcDbLine
8
3
62
256
370
-1
6
ByLayer
10
80.1490769672
20
102.437386868
30
0.0
11
80.1095620926
21
102.090569265
31
0.0
0
LINE
5
222
100
AcDbEntity
100
AcDbLine
8
3
62
256
370
-1
6
ByLayer
10
80.1095620926
20
102.090569265
30
0.0
11
80.0761060382
21
101.743114855
31
0.0
0
LINE
5
223
100
AcDbEntity
100
AcDbLine
8
3
62
256
370
-1
6
ByLayer
10
80.0761060382
20
101.743114855
30
0.0
11
80.0487189948
21
101.395129475
31
0.0
0
LINE
5
224
100
AcDbEntity
100
AcDbLine
8
3
62
256
370
-1
6
ByLayer
10
80.0487189948
20
101.395129475
30
0.0
11
80.0274093049
21
101.046719125
31
0.0
0
LINE
5
225
100
AcDbEntity
100
AcDbLine
8
3
62
256
370
-1
6
ByLayer
10
80.0274093049
20
101.046719125
30
0.0
11
80.0121834596
21
100.697989934
31
0.0
0
LINE
5
226
100
AcDbEntity
100
AcDbLine
8
3
62
256
370
-1
6
ByLayer
10
80.0121834596
20
100.697989934
30
0.0
11
80.0030460969
21
100.349048129
31
0.0
0
LINE
5
227
100
AcDbEntity
100
AcDbLine
8
3
62
256
370
-1
6
ByLayer
10
80.0030460969
20
100.349048129
30
0.0
11
80.0
21
100.0
31
0.0
0
LINE
5
228
100
AcDbEntity
100
AcDbLine
8
3
62
256
370
-1
6
ByLayer
10
80.0
20
100.0
30
0.0
11
80.0030460969
21
99.6509518713
31
0.0
0
LINE
5
229
100
AcDbEntity
100
AcDbLine
8
3
62
256
370
-1
6
ByLayer
10
80.0030460969
20
99.6509518713
30
0.0
11
80.0121834596
21
99.302010066
31
0.0
0
LINE
5
230
100
AcDbEntity
100
AcDbLine
8
3
62
256
370
-1
6
ByLayer
10
80.0121834596
20
99.302010066
30
0.0
11
80.0274093049
21
98.9532808751
31
0.0
0
LINE
5
231
100
AcDbEntity
100
AcDbLine
8
3
62
256
370
-1
6
ByLayer
10
80.0274093049
20
98.9532808751
30
0.0
11
80.0487189948
21
98.6048705251
31
0.0
0
LINE
5
232
100
AcDbEntity
100
AcDbLine
8
3
62
256
370
-1
6
ByLayer
10
80.0487189948
20
98.6048705251
30
0.0
11
80.0761060382
21
98.2568851451
31
0.0
0
LINE
5
233
100
AcDbEntity
100
AcDbLine
8
3
62
256
370
-1
6
ByLayer
10
80.0761060382
20
98.2568851451
30
0.0
11
80.1095620926
21
97.9094307347
31
0.0
0
LINE
5
234
100
AcDbEntity
100
AcDbLine
8
3
62
256
370
-1
6
ByLayer
10
80.1095620926
20
97.9094307347
30
0.0
11
80.1490769672
21
97.5626131319
31
0.0
0
LINE
5
235
100
AcDbEntity
100
AcDbLine
8
3
62
256
370
-1
6
ByLayer
10
80.1490769672
20
97.5626131319
30
0.0
11
80.1946386252
21
97.2165379808
31
0.0
0
LINE
5
236
100
AcDbEntity
100
AcDbLine
8
3
62
256
370
-1
6
ByLayer
10
80.1946386252
20
97.2165379808
30
0.0
11
80.2462331881
21
96.8713106992
31
0.0
0
LINE
5
237
100
AcDbEntity
100
AcDbLine
8
3
62
256
370
-1
6
ByLayer
10
80.2462331881
20
96.8713106992
30
0.0
11
80.3038449398
21
96.5270364467
31
0.0
0
LINE
5
238
100
AcDbEntity
100
AcDbLine
8
3
62
256
370
-1
6
ByLayer
10
80.3038449398
20
96.5270364467
30
0.0
11
80.367456331
21
96.1838200925
31
0.0
0
LINE
5
239
100
AcDbEntity
100
AcDbLine
8
3
62
256
370
-1
6
ByLayer
10
80.367456331
20
96.1838200925
30
0.0
11
80.4370479853
21
95.8417661836
31
0.0
0
LINE
5
240
100
AcDbEntity
100
AcDbLine
8
3
62
256
370
-1
6
ByLayer
10
80.4370479853
20
95.8417661836
30
0.0
11
80.5125987043
21
95.5009789131
31
0.0
0
LINE
5
241
100
AcDbEntity
100
AcDbLine
8
3
62
256
370
-1
6
ByLayer
10
80.5125987043
20
95.5009789131
30
0.0
11
80.5940854745
21
95.161562088
31
0.0
0
LINE
5
242
100
AcDbEntity
100
AcDbLine
8
3
62
256
370
-1
6
ByLayer
10
80.5940854745
20
95.161562088
30
0.0
11
80.6814834742
21
94.823619098
31
0.0
0
LINE
5
243
100
AcDbEntity
100
AcDbLine
8
3
62
256
370
-1
6
ByLayer
10
80.6814834742
20
94.823619098
30
0.0
11
80.7747660812
21
94.4872528837
31
0.0
0
LINE
5
244
100
AcDbEntity
100
AcDbLine
8
3
62
256
370
-1
6
ByLayer
10
80.7747660812
20
94.4872528837
30
0.0
11
80.8739048807
21
94.1525659056
31
0.0
0
LINE
5
245
100
AcDbEntity
100
AcDbLine
8
3
62
256
370
-1
6
ByLayer
10
80.8739048807
20
94.1525659056
30
0.0
11
80.9788696741
21
93.8196601125
31
0.0
0
LINE
5
246
100
AcDbEntity
100
AcDbLine
8
3
62
256
370
-1
6
ByLayer
10
80.9788696741
20
93.8196601125
30
0.0
11
81.089628488
21
93.4886369109
31
0.0
0
LINE
5
247
100
AcDbEntity
100
AcDbLine
8
3
62
256
370
-1
6
ByLayer
10
81.089628488
20
93.4886369109
30
0.0
11
81.2061475843
21
93.1595971335
31
0.0
0
LINE
5
248
100
AcDbEntity
100
AcDbLine
8
3
62
256
370
-1
6
ByLayer
10
81.2061475843
20
93.1595971335
30
0.0
11
81.3283914701
21
92.8326410091
31
0.0
0
LINE
5
249
100
AcDbEntity
100
AcDbLine
8
3
62
256
370
-1
6
ByLayer
10
81.3283914701
20
92.8326410091
30
0.0
11
81.4563229087
21
92.5078681317
31
0.0
0
LINE
5
250
100
AcDbEntity
100
AcDbLine
8
3
62
256
370
-1
6
ByLayer
10
81.4563229087
20
92.5078681317
30
0.0
11
81.589902931
21
92.1853774302
31
0.0
0
LINE
5
251
100
AcDbEntity
100
AcDbLine
8
3
62
256
370
-1
6
ByLayer
10
81.589902931
20
92.1853774302
30
0.0
11
81.7290908471
21
91.8652671385
31
0.0
0
LINE
5
252
100
AcDbEntity
100
AcDbLine
8
3
62
256
370
-1
6
ByLayer
10
81.7290908471
20
91.8652671385
30
0.0
11
81.8738442593
21
91.5476347652
31
0.0
0
LINE
5
253
100
AcDbEntity
100
AcDbLine
8
3
62
256
370
-1
6
ByLayer
10
81.8738442593
20
91.5476347652
30
0.0
11
82.024119074
21
91.2325770642
31
0.0
0
LINE
5
254
100
AcDbEntity
100
AcDbLine
8
3
62
256
370
-1
6
ByLayer
10
82.024119074
20
91.2325770642
30
0.0
11
82.1798695162
21
90.9201900052
31
0.0
0
LINE
5
255
100
AcDbEntity
100
AcDbLine
8
3
62
256
370
-1
6
ByLayer
10
82.1798695162
20
90.9201900052
30
0.0
11
82.3410481428
21
90.6105687443
31
0.0
0
LINE
5
256
100
AcDbEntity
100
AcDbLine
8
3
62
256
370
-1
6
ByLayer
10
82.3410481428
20
90.6105687443
30
0.0
11
82.5076058572
21
90.3038075951
31
0.0
0
LINE
5
257
100
AcDbEntity
100
AcDbLine
8
3
62
256
370
-1
6
ByLayer
10
82.5076058572
20
90.3038075951
30
0.0
11
82.6794919243
21
90.0
31
0.0
0
LINE
5
258
100
AcDbEntity
100
AcDbLine
8
3
62
256
370
-1
6
ByLayer
10
82.6794919243
20
90.0
30
0.0
11
82.856653986
21
89.6992385018
31
0.0
0
LINE
5
259
100
AcDbEntity
100
AcDbLine
8
3
62
256
370
-1
6
ByLayer
10
82.856653986
20
89.6992385018
30
0.0
11
83.0390380769
21
89.4016147153
31
0.0
0
LINE
5
260
100
AcDbEntity
100
AcDbLine
8
3
62
256
370
-1
6
ByLayer
10
83.0390380769
20
89.4016147153
30
0.0
11
83.2265886411
21
89.1072192997
31
0.0
0
LINE
5
261
100
AcDbEntity
100
AcDbLine
8
3
62
256
370
-1
6
ByLayer
10
83.2265886411
20
89.1072192997
30
0.0
11
83.4192485489
21
88.8161419306
31
0.0
0
LINE
5
262
100
AcDbEntity
100
AcDbLine
8
3
62
256
370
-1
6
ByLayer
10
83.4192485489
20
88.8161419306
30
0.0
11
83.6169591142
21
88.528471273
31
0.0
0
LINE
5
263
100
AcDbEntity
100
AcDbLine
8
3
62
256
370
-1
6
ByLayer
10
83.6169591142
20
88.528471273
30
0.0
11
83.8196601125
21
88.2442949542
31
0.0
0
LINE
5
264
100
AcDbEntity
100
AcDbLine
8
3
62
256
370
-1
6
ByLayer
10
83.8196601125
20
88.2442949542
30
0.0
11
84.0272897991
21
87.963699537
31
0.0
0
LINE
5
265
100
AcDbEntity
100
AcDbLine
8
3
62
256
370
-1
6
ByLayer
10
84.0272897991
20
87.963699537
30
0.0
11
84.2397849279
21
87.6867704935
31
0.0
0
LINE
5
266
100
AcDbEntity
100
AcDbLine
8
3
62
256
370
-1
6
ByLayer
10
84.2397849279
20
87.6867704935
30
0.0
11
84.4570807709
21
87.413592179
31
0.0
0
LINE
5
267
100
AcDbEntity
100
AcDbLine
8
3
62
256
370
-1
6
ByLayer
10
84.4570807709
20
87.413592179
30
0.0
11
84.6791111376
21
87.1442478063
31
0.0
0
LINE
5
268
100
AcDbEntity
100
AcDbLine
8
3
62
256
370
-1
6
ByLayer
10
84.6791111376
20
87.1442478063
30
0.0
11
84.9058083955
21
86.8788194202
31
0.0
0
LINE
5
269
100
AcDbEntity
100
AcDbLine
8
3
62
256
370
-1
6
ByLayer
10
84.9058083955
20
86.8788194202
30
0.0
11
85.1371034905
21
86.6173878728
31
0.0
0
LINE
5
270
100
AcDbEntity
100
AcDbLine
8
3
62
256
370
-1
6
ByLayer
10
85.1371034905
20
86.6173878728
30
0.0
11
85.3729259676
21
86.3600327988
31
0.0
0
LINE
5
271
100
AcDbEntity
100
AcDbLine
8
3
62
256
370
-1
6
ByLayer
10
85.3729259676
20
86.3600327988
30
0.0
11
85.6132039932
21
86.1068325908
31
0.0
0
LINE
5
272
100
AcDbEntity
100
AcDbLine
8
3
62
256
370
-1
6
ByLayer
10
85.6132039932
20
86.1068325908
30
0.0
11
85.8578643763
21
85.8578643763
31
0.0
0
LINE
5
273
100
AcDbEntity
100
AcDbLine
8
3
62
256
370
-1
6
ByLayer
10
85.8578643763
20
85.8578643763
30
0.0
11
86.1068325908
21
85.6132039932
31
0.0
0
LINE
5
274
100
AcDbEntity
100
AcDbLine
8
3
62
256
370
-1
6
ByLayer
10
86.1068325908
20
85.6132039932
30
0.0
11
86.3600327988
21
85.3729259676
31
0.0
0
LINE
5
275
100
AcDbEntity
100
AcDbLine
8
3
62
256
370
-1
6
ByLayer
10
86.3600327988
20
85.3729259676
30
0.0
11
86.6173878728
21
85.1371034905
31
0.0
0
LINE
5
276
100
AcDbEntity
100
AcDbLine
8
3
62
256
370
-1
6
ByLayer
10
86.6173878728
20
85.1371034905
30
0.0
11
86.8788194202
21
84.9058083955
31
0.0
0
LINE
5
277
100
AcDbEntity
100
AcDbLine
8
3
62
256
370
-1
6
ByLayer
10
86.8788194202
20
84.9058083955
30
0.0
11
87.1442478063
21
84.6791111376
31
0.0
0
LINE
5
278
100
AcDbEntity
100
AcDbLine
8
3
62
256
370
-1
6
ByLayer
10
87.1442478063
20
84.6791111376
30
0.0
11
87.413592179
21
84.4570807709
31
0.0
0
LINE
5
279
100
AcDbEntity
100
AcDbLine
8
3
62
256
370
-1
6
ByLayer
10
87.413592179
20
84.4570807709
30
0.0
11
87.6867704935
21
84.2397849279
31
0.0
0
LINE
5
280
100
AcDbEntity
100
AcDbLine
8
3
62
256
370
-1
6
ByLayer
10
87.6867704935
20
84.2397849279
30
0.0
11
87.963699537
21
84.0272897991
31
0.0
0
LINE
5
281
100
AcDbEntity
100
AcDbLine
8
3
62
256
370
-1
6
ByLayer
10
87.963699537
20
84.0272897991
30
0.0
11
88.2442949542
21
83.8196601125
31
0.0
0
LINE
5
282
100
AcDbEntity
100
AcDbLine
8
3
62
256
370
-1
6
ByLayer
10
88.2442949542
20
83.8196601125
30
0.0
11
88.528471273
21
83.6169591142
31
0.0
0
LINE
5
283
100
AcDbEntity
100
AcDbLine
8
3
62
256
370
-1
6
ByLayer
10
88.528471273
20
83.6169591142
30
0.0
11
88.8161419306
21
83.4192485489
31
0.0
0
LINE
5
284
100
AcDbEntity
100
AcDbLine
8
3
62
256
370
-1
6
ByLayer
10
88.8161419306
20
83.4192485489
30
0.0
11
89.1072192997
21
83.2265886411
31
0.0
0
LINE
5
285
100
AcDbEntity
100
AcDbLine
8
3
62
256
370
-1
6
ByLayer
10
89.1072192997
20
83.2265886411
30
0.0
11
89.4016147153
21
83.0390380769
31
0.0
0
LINE
5
286
100
AcDbEntity
100
AcDbLine
8
3
62
256
370
-1
6
ByLayer
10
89.4016147153
20
83.0390380769
30
0.0
11
89.6992385018
21
82.856653986
31
0.0
0
LINE
5
287
100
AcDbEntity
100
AcDbLine
8
3
62
256
370
-1
6
ByLayer
10
89.6992385018
20
82.856653986
30
0.0
11
90.0
21
82.6794919243
31
0.0
0
LINE
5
288
100
AcDbEntity
100
AcDbLine
8
3
62
256
370
-1
6
ByLayer
10
90.0
20
82.6794919243
30
0.0
11
90.3038075951
21
82.5076058572
31
0.0
0
LINE
5
289
100
AcDbEntity
100
AcDbLine
8
3
62
256
370
-1
6
ByLayer
10
90.3038075951
20
82.5076058572
30
0.0
11
90.6105687443
21
82.3410481428
31
0.0
0
LINE
5
290
100
AcDbEntity
100
AcDbLine
8
3
62
256
370
-1
6
ByLayer
10
90.6105687443
20
82.3410481428
30
0.0
11
90.9201900052
21
82.1798695162
31
0.0
0
LINE
5
291
100
AcDbEntity
100
AcDbLine
8
3
62
256
370
-1
6
ByLayer
10
90.9201900052
20
82.1798695162
30
0.0
11
91.2325770642
21
82.024119074
31
0.0
0
LINE
5
292
100
AcDbEntity
100
AcDbLine
8
3
62
256
370
-1
6
ByLayer
10
91.2325770642
20
82.024119074
30
0.0
11
91.5476347652
21
81.8738442593
31
0.0
0
LINE
5
293
100
AcDbEntity
100
AcDbLine
8
3
62
256
370
-1
6
ByLayer
10
91.5476347652
20
81.8738442593
30
0.0
11
91.8652671385
21
81.7290908471
31
0.0
0
LINE
5
294
100
AcDbEntity
100
AcDbLine
8
3
62
256
370
-1
6
ByLayer
10
91.8652671385
20
81.7290908471
30
0.0
11
92.1853774302
21
81.589902931
31
0.0
0
LINE
5
295
100
AcDbEntity
100
AcDbLine
8
3
62
256
370
-1
6
ByLayer
10
92.1853774302
20
81.589902931
30
0.0
11
92.5078681317
21
81.4563229087
31
0.0
0
LINE
5
296
100
AcDbEntity
100
AcDbLine
8
3
62
256
370
-1
6
ByLayer
10
92.5078681317
20
81.4563229087
30
0.0
11
92.8326410091
21
81.3283914701
31
0.0
0
LINE
5
297
100
AcDbEntity
100
AcDbLine
8
3
62
256
370
-1
6
ByLayer
10
92.8326410091
20
81.3283914701
30
0.0
11
93.1595971335
21
81.2061475843
31
0.0
0
LINE
5
298
100
AcDbEntity
100
AcDbLine
8
3
62
256
370
-1
6
ByLayer
10
93.1595971335
20
81.2061475843
30
0.0
11
93.4886369109
21
81.089628488
31
0.0
0
LINE
5
299
100
AcDbEntity
100
AcDbLine
8
3
62
256
370
-1
6
ByLayer
10
93.4886369109
20
81.089628488
30
0.0
11
93.8196601125
21
80.9788696741
31
0.0
0
LINE
5
300
100
AcDbEntity
100
AcDbLine
8
3
62
256
370
-1
6
ByLayer
10
93.8196601125
20
80.9788696741
30
0.0
11
94.1525659056
21
80.8739048807
31
0.0
0
LINE
5
301
100
AcDbEntity
100
AcDbLine
8
3
62
256
370
-1
6
ByLayer
10
94.1525659056
20
80.8739048807
30
0.0
11
94.4872528837
21
80.7747660812
31
0.0
0
LINE
5
302
100
AcDbEntity
100
AcDbLine
8
3
62
256
370
-1
6
ByLayer
10
94.4872528837
20
80.7747660812
30
0.0
11
94.823619098
21
80.6814834742
31
0.0
0
LINE
5
303
100
AcDbEntity
100
AcDbLine
8
3
62
256
370
-1
6
ByLayer
10
94.823619098
20
80.6814834742
30
0.0
11
95.161562088
21
80.5940854745
31
0.0
0
LINE
5
304
100
AcDbEntity
100
AcDbLine
8
3
62
256
370
-1
6
ByLayer
10
95.161562088
20
80.5940854745
30
0.0
11
95.5009789131
21
80.5125987043
31
0.0
0
LINE
5
305
100
AcDbEntity
100
AcDbLine
8
3
62
256
370
-1
6
ByLayer
10
95.5009789131
20
80.5125987043
30
0.0
11
95.8417661836
21
80.4370479853
31
0.0
0
LINE
5
306
100
AcDbEntity
100
AcDbLine
8
3
62
256
370
-1
6
ByLayer
10
95.8417661836
20
80.4370479853
30
0.0
11
96.1838200925
21
80.367456331
31
0.0
0
LINE
5
307
100
AcDbEntity
100
AcDbLine
8
3
62
256
370
-1
6
ByLayer
10
96.1838200925
20
80.367456331
30
0.0
11
96.5270364467
21
80.3038449398
31
0.0
0
LINE
5
308
100
AcDbEntity
100
AcDbLine
8
3
62
256
370
-1
6
ByLayer
10
96.5270364467
20
80.3038449398
30
0.0
11
96.8713106992
21
80.2462331881
31
0.0
0
LINE
5
309
100
AcDbEntity
100
AcDbLine
8
3
62
256
370
-1
6
ByLayer
10
96.8713106992
20
80.2462331881
30
0.0
11
97.2165379808
21
80.1946386252
31
0.0
0
LINE
5
310
100
AcDbEntity
100
AcDbLine
8
3
62
256
370
-1
6
ByLayer
10
97.2165379808
20
80.1946386252
30
0.0
11
97.5626131319
21
80.1490769672
31
0.0
0
LINE
5
311
100
AcDbEntity
100
AcDbLine
8
3
62
256
370
-1
6
ByLayer
10
97.5626131319
20
80.1490769672
30
0.0
11
97.9094307347
21
80.1095620926
31
0.0
0
LINE
5
312
100
AcDbEntity
100
AcDbLine
8
3
62
256
370
-1
6
ByLayer
10
97.9094307347
20
80.1095620926
30
0.0
11
98.2568851451
21
80.0761060382
31
0.0
0
LINE
5
313
100
AcDbEntity
100
AcDbLine
8
3
62
256
370
-1
6
ByLayer
10
98.2568851451
20
80.0761060382
30
0.0
11
98.6048705251
21
80.0487189948
31
0.0
0
LINE
5
314
100
AcDbEntity
100
AcDbLine
8
3
62
256
370
-1
6
ByLayer
10
98.6048705251
20
80.0487189948
30
0.0
11
98.9532808751
21
80.0274093049
31
0.0
0
LINE
5
315
100
AcDbEntity
100
AcDbLine
8
3
62
256
370
-1
6
ByLayer
10
98.9532808751
20
80.0274093049
30
0.0
11
99.302010066
21
80.0121834596
31
0.0
0
LINE
5
316
100
AcDbEntity
100
AcDbLine
8
3
62
256
370
-1
6
ByLayer
10
99.302010066
20
80.0121834596
30
0.0
11
99.6509518713
21
80.0030460969
31
0.0
0
LINE
5
317
100
AcDbEntity
100
AcDbLine
8
3
62
256
370
-1
6
ByLayer
10
99.6509518713
20
80.0030460969
30
0.0
11
100.0
21
80.0
31
0.0
0
LINE
5
318
100
AcDbEntity
100
AcDbLine
8
3
62
256
370
-1
6
ByLayer
10
100.0
20
80.0
30
0.0
11
100.349048129
21
80.0030460969
31
0.0
0
LINE
5
319
100
AcDbEntity
100
AcDbLine
8
3
62
256
370
-1
6
ByLayer
10
100.349048129
20
80.0030460969
30
0.0
11
100.697989934
21
80.0121834596
31
0.0
0
LINE
5
320
100
AcDbEntity
100
AcDbLine
8
3
62
256
370
-1
6
ByLayer
10
100.697989934
20
80.0121834596
30
0.0
11
101.046719125
21
80.0274093049
31
0.0
0
LINE
5
321
100
AcDbEntity
100
AcDbLine
8
3
62
256
370
-1
6
ByLayer
10
101.046719125
20
80.0274093049
30
0.0
11
101.395129475
21
80.0487189948
31
0.0
0
LINE
5
322
100
AcDbEntity
100
AcDbLine
8
3
62
256
370
-1
6
ByLayer
10
101.395129475
20
80.0487189948
30
0.0
11
101.743114855
21
80.0761060382
31
0.0
0
LINE
5
323
100
AcDbEntity
100
AcDbLine
8
3
62
256
370
-1
6
ByLayer
10
101.743114855
20
80.0761060382
30
0.0
11
102.090569265
21
80.1095620926
31
0.0
0
LINE
5
324
100
AcDbEntity
100
AcDbLine
8
3
62
256
370
-1
6
ByLayer
10
102.090569265
20
80.1095620926
30
0.0
11
102.437386868
21
80.1490769672
31
0.0
0
LINE
5
325
100
AcDbEntity
100
AcDbLine
8
3
62
256
370
-1
6
ByLayer
10
102.437386868
20
80.1490769672
30
0.0
11
102.783462019
21
80.1946386252
31
0.0
0
LINE
5
326
100
AcDbEntity
100
AcDbLine
8
3
62
256
370
-1
6
ByLayer
10
102.783462019
20
80.1946386252
30
0.0
11
103.128689301
21
80.2462331881
31
0.0
0
LINE
5
327
100
AcDbEntity
100
AcDbLine
8
3
62
256
370
-1
6
ByLayer
10
103.128689301
20
80.2462331881
30
0.0
11
103.472963553
21
80.3038449398
31
0.0
0
LINE
5
328
100
AcDbEntity
100
AcDbLine
8
3
62
256
370
-1
6
ByLayer
10
103.472963553
20
80.3038449398
30
0.0
11
103.816179908
21
80.367456331
31
0.0
0
LINE
5
329
100
AcDbEntity
100
AcDbLine
8
3
62
256
370
-1
6
ByLayer
10
103.816179908
20
80.367456331
30
0.0
11
104.158233816
21
80.4370479853
31
0.0
0
LINE
5
330
100
AcDbEntity
100
AcDbLine
8
3
62
256
370
-1
6
ByLayer
10
104.158233816
20
80.4370479853
30
0.0
11
104.499021087
21
80.5125987043
31
0.0
0
LINE
5
331
100
AcDbEntity
100
AcDbLine
8
3
62
256
370
-1
6
ByLayer
10
104.499021087
20
80.5125987043
30
0.0
11
104.838437912
21
80.5940854745
31
0.0
0
LINE
5
332
100
AcDbEntity
100
AcDbLine
8
3
62
256
370
-1
6
ByLayer
10
104.838437912
20
80.5940854745
30
0.0
11
105.176380902
21
80.6814834742
31
0.0
0
LINE
5
333
100
AcDbEntity
100
AcDbLine
8
3
62
256
370
-1
6
ByLayer
10
105.176380902
20
80.6814834742
30
0.0
11
105.512747116
21
80.7747660812
31
0.0
0
LINE
5
334
100
AcDbEntity
100
AcDbLine
8
3
62
256
370
-1
6
ByLayer
10
105.512747116
20
80.7747660812
30
0.0
11
105.847434094
21
80.8739048807
31
0.0
0
LINE
5
335
100
AcDbEntity
100
AcDbLine
8
3
62
256
370
-1
6
ByLayer
10
105.847434094
20
80.8739048807
30
0.0
11
106.180339887
21
80.9788696741
31
0.0
0
LINE
5
336
100
AcDbEntity
100
AcDbLine
8
3
62
256
370
-1
6
ByLayer
10
106.180339887
20
80.9788696741
30
0.0
11
106.511363089
21
81.089628488
31
0.0
0
LINE
5
337
100
AcDbEntity
100
AcDbLine
8
3
62
256
370
-1
6
ByLayer
10
106.511363089
20
81.089628488
30
0.0
11
106.840402867
21
81.2061475843
31
0.0
0
LINE
5
338
100
AcDbEntity
100
AcDbLine
8
3
62
256
370
-1
6
ByLayer
10
106.840402867
20
81.2061475843
30
0.0
11
107.167358991
21
81.3283914701
31
0.0
0
LINE
5
339
100
AcDbEntity
100
AcDbLine
8
3
62
256
370
-1
6
ByLayer
10
107.167358991
20
81.3283914701
30
0.0
11
107.492131868
21
81.4563229087
31
0.0
0
LINE
5
340
100
AcDbEntity
100
AcDbLine
8
3
62
256
370
-1
6
ByLayer
10
107.492131868
20
81.4563229087
30
0.0
11
107.81462257
21
81.589902931
31
0.0
0
LINE
5
341
100
AcDbEntity
100
AcDbLine
8
3
62
256
370
-1
6
ByLayer
10
107.81462257
20
81.589902931
30
0.0
11
108.134732862
21
81.7290908471
31
0.0
0
LINE
5
342
100
AcDbEntity
100
AcDbLine
8
3
62
256
370
-1
6
ByLayer
10
108.134732862
20
81.7290908471
30
0.0
11
108.452365235
21
81.8738442593
31
0.0
0
LINE
5
343
100
AcDbEntity
100
AcDbLine
8
3
62
256
370
-1
6
ByLayer
10
108.452365235
20
81.8738442593
30
0.0
11
108.767422936
21
82.024119074
31
0.0
0
LINE
5
344
100
AcDbEntity
100
AcDbLine
8
3
62
256
370
-1
6
ByLayer
10
108.767422936
20
82.024119074
30
0.0
11
109.079809995
21
82.1798695162
31
0.0
0
LINE
5
345
100
AcDbEntity
100
AcDbLine
8
3
62
256
370
-1
6
ByLayer
10
109.079809995
20
82.1798695162
30
0.0
11
109.389431256
21
82.3410481428
31
0.0
0
LINE
5
346
100
AcDbEntity
100
AcDbLine
8
3
62
256
370
-1
6
ByLayer
10
109.389431256
20
82.3410481428
30
0.0
11
109.696192405
21
82.5076058572
31
0.0
0
LINE
5
347
100
AcDbEntity
100
AcDbLine
8
3
62
256
370
-1
6
ByLayer
10
109.696192405
20
82.5076058572
30
0.0
11
110.0
21
82.6794919243
31
0.0
0
LINE
5
348
100
AcDbEntity
100
AcDbLine
8
3
62
256
370
-1
6
ByLayer
10
110.0
20
82.6794919243
30
0.0
11
110.300761498
21
82.856653986
31
0.0
0
LINE
5
349
100
AcDbEntity
100
AcDbLine
8
3
62
256
370
-1
6
ByLayer
10
110.300761498
20
82.856653986
30
0.0
11
110.598385285
21
83.0390380769
31
0.0
0
LINE
5
350
100
AcDbEntity
100
AcDbLine
8
3
62
256
370
-1
6
ByLayer
10
110.598385285
20
83.0390380769
30
0.0
11
110.8927807
21
83.2265886411
31
0.0
0
LINE
5
351
100
AcDbEntity
100
AcDbLine
8
3
62
256
370
-1
6
ByLayer
10
110.8927807
20
83.2265886411
30
0.0
11
111.183858069
21
83.4192485489
31
0.0
0
LINE
5
352
100
AcDbEntity
100
AcDbLine
8
3
62
256
370
-1
6
ByLayer
10
111.183858069
20
83.4192485489
30
0.0
11
111.471528727
21
83.6169591142
31
0.0
0
LINE
5
353
100
AcDbEntity
100
AcDbLine
8
3
62
256
370
-1
6
ByLayer
10
111.471528727
20
83.6169591142
30
0.0
11
111.755705046
21
83.8196601125
31
0.0
0
LINE
5
354
100
AcDbEntity
100
AcDbLine
8
3
62
256
370
-1
6
ByLayer
10
111.755705046
20
83.8196601125
30
0.0
11
112.036300463
21
84.0272897991
31
0.0
0
LINE
5
355
100
AcDbEntity
100
AcDbLine
8
3
62
256
370
-1
6
ByLayer
10
112.036300463
20
84.0272897991
30
0.0
11
112.313229506
21
84.2397849279
31
0.0
0
LINE
5
356
100
AcDbEntity
100
AcDbLine
8
3
62
256
370
-1
6
ByLayer
10
112.313229506
20
84.2397849279
30
0.0
11
112.586407821
21
84.4570807709
31
0.0
0
LINE
5
357
100
AcDbEntity
100
AcDbLine
8
3
62
256
370
-1
6
ByLayer
10
112.586407821
20
84.4570807709
30
0.0
11
112.855752194
21
84.6791111376
31
0.0
0
LINE
5
358
100
AcDbEntity
100
AcDbLine
8
3
62
256
370
-1
6
ByLayer
10
112.855752194
20
84.6791111376
30
0.0
11
113.12118058
21
84.9058083955
31
0.0
0
LINE
5
359
100
AcDbEntity
100
AcDbLine
8
3
62
256
370
-1
6
ByLayer
10
113.12118058
20
84.9058083955
30
0.0
11
113.382612127
21
85.1371034905
31
0.0
0
LINE
5
360
100
AcDbEntity
100
AcDbLine
8
3
62
256
370
-1
6
ByLayer
10
113.382612127
20
85.1371034905
30
0.0
11
113.639967201
21
85.3729259676
31
0.0
0
LINE
5
361
100
AcDbEntity
100
AcDbLine
8
3
62
256
370
-1
6
ByLayer
10
113.639967201
20
85.3729259676
30
0.0
11
113.893167409
21
85.6132039932
31
0.0
0
LINE
5
362
100
AcDbEntity
100
AcDbLine
8
3
62
256
370
-1
6
ByLayer
10
113.893167409
20
85.6132039932
30
0.0
11
114.142135624
21
85.8578643763
31
0.0
0
LINE
5
363
100
AcDbEntity
100
AcDbLine
8
3
62
256
370
-1
6
ByLayer
10
114.142135624
20
85.8578643763
30
0.0
11
114.386796007
21
86.1068325908
31
0.0
0
LINE
5
364
100
AcDbEntity
100
AcDbLine
8
3
62
256
370
-1
6
ByLayer
10
114.386796007
20
86.1068325908
30
0.0
11
114.627074032
21
86.3600327988
31
0.0
0
LINE
5
365
100
AcDbEntity
100
AcDbLine
8
3
62
256
370
-1
6
ByLayer
10
114.627074032
20
86.3600327988
30
0.0
11
114.86289651
21
86.6173878728
31
0.0
0
LINE
5
366
100
AcDbEntity
100
AcDbLine
8
3
62
256
370
-1
6
ByLayer
10
114.86289651
20
86.6173878728
30
0.0
11
115.094191604
21
86.8788194202
31
0.0
0
LINE
5
367
100
AcDbEntity
100
AcDbLine
8
3
62
256
370
-1
6
ByLayer
10
115.094191604
20
86.8788194202
30
0.0
11
115.320888862
21
87.1442478063
31
0.0
0
LINE
5
368
100
AcDbEntity
100
AcDbLine
8
3
62
256
370
-1
6
ByLayer
10
115.320888862
20
87.1442478063
30
0.0
11
115.542919229
21
87.413592179
31
0.0
0
LINE
5
369
100
AcDbEntity
100
AcDbLine
8
3
62
256
370
-1
6
ByLayer
10
115.542919229
20
87.413592179
30
0.0
11
115.760215072
21
87.6867704935
31
0.0
0
LINE
5
370
100
AcDbEntity
100
AcDbLine
8
3
62
256
370
-1
6
ByLayer
10
115.760215072
20
87.6867704935
30
0.0
11
115.972710201
21
87.963699537
31
0.0
0
LINE
5
371
100
AcDbEntity
100
AcDbLine
8
3
62
256
370
-1
6
ByLayer
10
115.972710201
20
87.963699537
30
0.0
11
116.180339887
21
88.2442949542
31
0.0
0
LINE
5
372
100
AcDbEntity
100
AcDbLine
8
3
62
256
370
-1
6
ByLayer
10
116.180339887
20
88.2442949542
30
0.0
11
116.383040886
21
88.528471273
31
0.0
0
LINE
5
373
100
AcDbEntity
100
AcDbLine
8
3
62
256
370
-1
6
ByLayer
10
116.383040886
20
88.528471273
30
0.0
11
116.580751451
21
88.8161419306
31
0.0
0
LINE
5
374
100
AcDbEntity
100
AcDbLine
8
3
62
256
370
-1
6
ByLayer
10
116.580751451
20
88.8161419306
30
0.0
11
116.773411359
21
89.1072192997
31
0.0
0
LINE
5
375
100
AcDbEntity
100
AcDbLine
8
3
62
256
370
-1
6
ByLayer
10
116.773411359
20
89.1072192997
30
0.0
11
116.960961923
21
89.4016147153
31
0.0
0
LINE
5
376
100
AcDbEntity
100
AcDbLine
8
3
62
256
370
-1
6
ByLayer
10
116.960961923
20
89.4016147153
30
0.0
11
117.143346014
21
89.6992385018
31
0.0
0
LINE
5
377
100
AcDbEntity
100
AcDbLine
8
3
62
256
370
-1
6
ByLayer
10
117.143346014
20
89.6992385018
30
0.0
11
117.320508076
21
90.0
31
0.0
0
LINE
5
378
100
AcDbEntity
100
AcDbLine
8
3
62
256
370
-1
6
ByLayer
10
117.320508076
20
90.0
30
0.0
11
117.492394143
21
90.3038075951
31
0.0
0
LINE
5
379
100
AcDbEntity
100
AcDbLine
8
3
62
256
370
-1
6
ByLayer
10
117.492394143
20
90.3038075951
30
0.0
11
117.658951857
21
90.6105687443
31
0.0
0
LINE
5
380
100
AcDbEntity
100
AcDbLine
8
3
62
256
370
-1
6
ByLayer
10
117.658951857
20
90.6105687443
30
0.0
11
117.820130484
21
90.9201900052
31
0.0
0
LINE
5
381
100
AcDbEntity
100
AcDbLine
8
3
62
256
370
-1
6
ByLayer
10
117.820130484
20
90.9201900052
30
0.0
11
117.975880926
21
91.2325770642
31
0.0
0
LINE
5
382
100
AcDbEntity
100
AcDbLine
8
3
62
256
370
-1
6
ByLayer
10
117.975880926
20
91.2325770642
30
0.0
11
118.126155741
21
91.5476347652
31
0.0
0
LINE
5
383
100
AcDbEntity
100
AcDbLine
8
3
62
256
370
-1
6
ByLayer
10
118.126155741
20
91.5476347652
30
0.0
11
118.270909153
21
91.8652671385
31
0.0
0
LINE
5
384
100
AcDbEntity
100
AcDbLine
8
3
62
256
370
-1
6
ByLayer
10
118.270909153
20
91.8652671385
30
0.0
11
118.410097069
21
92.1853774302
31
0.0
0
LINE
5
385
100
AcDbEntity
100
AcDbLine
8
3
62
256
370
-1
6
ByLayer
10
118.410097069
20
92.1853774302
30
0.0
11
118.543677091
21
92.5078681317
31
0.0
0
LINE
5
386
100
AcDbEntity
100
AcDbLine
8
3
62
256
370
-1
6
ByLayer
10
118.543677091
20
92.5078681317
30
0.0
11
118.67160853
21
92.8326410091
31
0.0
0
LINE
5
387
100
AcDbEntity
100
AcDbLine
8
3
62
256
370
-1
6
ByLayer
10
118.67160853
20
92.8326410091
30
0.0
11
118.793852416
21
93.1595971335
31
0.0
0
LINE
5
388
100
AcDbEntity
100
AcDbLine
8
3
62
256
370
-1
6
ByLayer
10
118.793852416
20
93.1595971335
30
0.0
11
118.910371512
21
93.4886369109
31
0.0
0
LINE
5
389
100
AcDbEntity
100
AcDbLine
8
3
62
256
370
-1
6
ByLayer
10
118.910371512
20
93.4886369109
30
0.0
11
119.021130326
21
93.8196601125
31
0.0
0
LINE
5
390
100
AcDbEntity
100
AcDbLine
8
3
62
256
370
-1
6
ByLayer
10
119.021130326
20
93.8196601125
30
0.0
11
119.126095119
21
94.1525659056
31
0.0
0
LINE
5
391
100
AcDbEntity
100
AcDbLine
8
3
62
256
370
-1
6
ByLayer
10
119.126095119
20
94.1525659056
30
0.0
11
119.225233919
21
94.4872528837
31
0.0
0
LINE
5
392
100
AcDbEntity
100
AcDbLine
8
3
62
256
370
-1
6
ByLayer
10
119.225233919
20
94.4872528837
30
0.0
11
119.318516526
21
94.823619098
31
0.0
0
LINE
5
393
100
AcDbEntity
100
AcDbLine
8
3
62
256
370
-1
6
ByLayer
10
119.318516526
20
94.823619098
30
0.0
11
119.405914525
21
95.161562088
31
0.0
0
LINE
5
394
100
AcDbEntity
100
AcDbLine
8
3
62
256
370
-1
6
ByLayer
10
119.405914525
20
95.161562088
30
0.0
11
119.487401296
21
95.5009789131
31
0.0
0
LINE
5
395
100
AcDbEntity
100
AcDbLine
8
3
62
256
370
-1
6
ByLayer
10
119.487401296
20
95.5009789131
30
0.0
11
119.562952015
21
95.8417661836
31
0.0
0
LINE
5
396
100
AcDbEntity
100
AcDbLine
8
3
62
256
370
-1
6
ByLayer
10
119.562952015
20
95.8417661836
30
0.0
11
119.632543669
21
96.1838200925
31
0.0
0
LINE
5
397
100
AcDbEntity
100
AcDbLine
8
3
62
256
370
-1
6
ByLayer
10
119.632543669
20
96.1838200925
30
0.0
11
119.69615506
21
96.5270364467
31
0.0
0
LINE
5
398
100
AcDbEntity
100
AcDbLine
8
3
62
256
370
-1
6
ByLayer
10
119.69615506
20
96.5270364467
30
0.0
11
119.753766812
21
96.8713106992
31
0.0
0
LINE
5
399
100
AcDbEntity
100
AcDbLine
8
3
62
256
370
-1
6
ByLayer
10
119.753766812
20
96.8713106992
30
0.0
11
119.805361375
21
97.2165379808
31
0.0
0
LINE
5
400
100
AcDbEntity
100
AcDbLine
8
3
62
256
370
-1
6
ByLayer
10
119.805361375
20
97.2165379808
30
0.0
11
119.850923033
21
97.5626131319
31
0.0
0
LINE
5
401
100
AcDbEntity
100
AcDbLine
8
3
62
256
370
-1
6
ByLayer
10
119.850923033
20
97.5626131319
30
0.0
11
119.890437907
21
97.9094307347
31
0.0
0
LINE
5
402
100
AcDbEntity
100
AcDbLine
8
3
62
256
370
-1
6
ByLayer
10
119.890437907
20
97.9094307347
30
0.0
11
119.923893962
21
98.2568851451
31
0.0
0
LINE
5
403
100
AcDbEntity
100
AcDbLine
8
3
62
256
370
-1
6
ByLayer
10
119.923893962
20
98.2568851451
30
0.0
11
119.951281005
21
98.6048705251
31
0.0
0
LINE
5
404
100
AcDbEntity
100
AcDbLine
8
3
62
256
370
-1
6
ByLayer
10
119.951281005
20
98.6048705251
30
0.0
11
119.972590695
21
98.9532808751
31
0.0
0
LINE
5
405
100
AcDbEntity
100
AcDbLine
8
3
62
256
370
-1
6
ByLayer
10
119.972590695
20
98.9532808751
30
0.0
11
119.98781654
21
99.302010066
31
0.0
0
LINE
5
406
100
AcDbEntity
100
AcDbLine
8
3
62
256
370
-1
6
ByLayer
10
119.98781654
20
99.302010066
30
0.0
11
119.996953903
21
99.6509518713
31
0.0
0
MTEXT
5
407
100
AcDbEntity
100
AcDbMText
8
3
62
256
370
-1
6
ByLayer
10
100.0
20
75.0
30
0.0
40
1
41
100.0
71
8
72
0
1
Circle with radius  20 
7
normallatin1
50
0.0
73
1
44
1.0
0
ENDSEC
  0
SECTION
  2
OBJECTS
  0
DICTIONARY
  5
C
100
AcDbDictionary
280
0
281
1
  3
ACAD_GROUP
350
D
  3
ACAD_LAYOUT
350
1A
  3
ACAD_MLINESTYLE
350
17
  3
ACAD_PLOTSETTINGS
350
19
  3
ACAD_PLOTSTYLENAME
350
E
  3
AcDbVariableDictionary
350
48
  0
DICTIONARY
  5
D
100
AcDbDictionary
280
0
281
1
  0
ACDBDICTIONARYWDFLT
  5
E
100
AcDbDictionary
281
1
  3
Normal
350
F
100
AcDbDictionaryWithDefault
340
F
  0
ACDBPLACEHOLDER
  5
F
  0
DICTIONARY
  5
17
100
AcDbDictionary
280
0
281
1
  3
Standard
350
18
  0
MLINESTYLE
  5
18
100
AcDbMlineStyle
  2
STANDARD
 70
0
  3

 62
256
 51
90.0
 52
90.0
 71
2
 49
0.5
 62
256
  6
BYLAYER
 49
-0.5
 62
256
  6
BYLAYER
  0
DICTIONARY
  5
19
100
AcDbDictionary
280
0
281
1
  0
DICTIONARY
  5
1A
100
AcDbDictionary
281
1
  3
Layout1
350
1E
  3
Layout2
350
26
  3
Model
350
22
  0
LAYOUT
  5
1E
100
AcDbPlotSettings
  1

  2
C:\Program Files\AutoCAD 2002\plotters\DWF ePlot (optimized for plotting).pc3
  4

  6

 40
0.0
 41
0.0
 42
0.0
 43
0.0
 44
0.0
 45
0.0
 46
0.0
 47
0.0
 48
0.0
 49
0.0
140
0.0
141
0.0
142
1.0
143
1.0
 70
688
 72
0
 73
0
 74
5
  7

 75
16
147
1.0
148
0.0
149
0.0
100
AcDbLayout
  1
Layout1
 70
1
 71
1
 10
0.0
 20
0.0
 11
420.0
 21
297.0
 12
0.0
 22
0.0
 32
0.0
 14
100000000000000000000.0
 24
100000000000000000000.0
 34
100000000000000000000.0
 15
-100000000000000000000.0
 25
-100000000000000000000.0
 35
-100000000000000000000.0
146
0.0
 13
0.0
 23
0.0
 33
0.0
 16
1.0
 26
0.0
 36
0.0
 17
0.0
 27
1.0
 37
0.0
 76
0
330
1B
  0
LAYOUT
  5
22
100
AcDbPlotSettings
  1

  2
C:\Program Files\AutoCAD 2002\plotters\DWF ePlot (optimized for plotting).pc3
  4

  6

 40
0.0
 41
0.0
 42
0.0
 43
0.0
 44
0.0
 45
0.0
 46
0.0
 47
0.0
 48
0.0
 49
0.0
140
0.0
141
0.0
142
1.0
143
1.0
 70
1712
 72
0
 73
0
 74
0
  7

 75
0
147
1.0
148
0.0
149
0.0
100
AcDbLayout
  1
Model
 70
1
 71
0
 10
0.0
 20
0.0
 11
12.0
 21
9.0
 12
0.0
 22
0.0
 32
0.0
 14
0.0
 24
0.0
 34
0.0
 15
0.0
 25
0.0
 35
0.0
146
0.0
 13
0.0
 23
0.0
 33
0.0
 16
1.0
 26
0.0
 36
0.0
 17
0.0
 27
1.0
 37
0.0
 76
0
330
1F
  0
LAYOUT
  5
26
100
AcDbPlotSettings
  1

  2
C:\Program Files\AutoCAD 2002\plotters\DWF ePlot (optimized for plotting).pc3
  4

  6

 40
0.0
 41
0.0
 42
0.0
 43
0.0
 44
0.0
 45
0.0
 46
0.0
 47
0.0
 48
0.0
 49
0.0
140
0.0
141
0.0
142
1.0
143
1.0
 70
688
 72
0
 73
0
 74
5
  7

 75
16
147
1.0
148
0.0
149
0.0
100
AcDbLayout
  1
Layout2
 70
1
 71
2
 10
0.0
 20
0.0
 11
12.0
 21
9.0
 12
0.0
 22
0.0
 32
0.0
 14
0.0
 24
0.0
 34
0.0
 15
0.0
 25
0.0
 35
0.0
146
0.0
 13
0.0
 23
0.0
 33
0.0
 16
1.0
 26
0.0
 36
0.0
 17
0.0
 27
1.0
 37
0.0
 76
0
330
23
  0
DICTIONARY
  5
48
100
AcDbDictionary
281
1
  3
DIMASSOC
350
4A
  3
HIDETEXT
350
49
  0
DICTIONARYVAR
  5
49
100
DictionaryVariables
280
0
  1
2
  0
DICTIONARYVAR
  5
4A
100
DictionaryVariables
280
0
  1
1
  0
ENDSEC
  0
EOF
