999
dxflib 2.0.4.8
  0
SECTION
  2
HEADER
  9
$ACADVER
  1
AC1015
  9
$HANDSEED
  5
FFFF
  9
$DIMASZ
 40
2.5
  9
$DIMGAP
 40
0.625
  9
$DIMEXO
 40
0.625
  9
$INSUNITS
 70
4
  9
$DIMTXT
 40
2.5
  9
$PLIMMAX
 10
210.0
 20
297.0
  9
$PLIMMIN
 10
0.0
 20
0.0
  9
$DIMEXE
 40
1.25
  0
ENDSEC
  0
SECTION
  2
TABLES
  0
TABLE
  2
VPORT
  5
8
100
AcDbSymbolTable
 70
1
  0
VPORT
  5
30
100
AcDbSymbolTableRecord
100
AcDbViewportTableRecord
  2
*Active
 70
0
 10
0.0
 20
0.0
 11
1.0
 21
1.0
 12
286.3055555555554861
 22
148.5
 13
0.0
 23
0.0
 14
10.0
 24
10.0
 15
10.0
 25
10.0
 16
0.0
 26
0.0
 36
1.0
 17
0.0
 27
0.0
 37
0.0
 40
297.0
 41
1.92798353909465
 42
50.0
 43
0.0
 44
0.0
 50
0.0
 51
0.0
 71
0
 72
100
 73
1
 74
3
 75
1
 76
1
 77
0
 78
0
281
0
 65
1
110
0.0
120
0.0
130
0.0
111
1.0
121
0.0
131
0.0
112
0.0
122
1.0
132
0.0
 79
0
146
0.0
  0
ENDTAB
  0
TABLE
  2
LTYPE
  5
5
100
AcDbSymbolTable
 70
21
  0
LTYPE
  5
14
100
AcDbSymbolTableRecord
100
AcDbLinetypeTableRecord
  2
ByBlock
 70
0
  3

 72
65
 73
0
 40
0.0
  0
LTYPE
  5
15
100
AcDbSymbolTableRecord
100
AcDbLinetypeTableRecord
  2
ByLayer
 70
0
  3

 72
65
 73
0
 40
0.0
  0
LTYPE
  5
16
100
AcDbSymbolTableRecord
100
AcDbLinetypeTableRecord
  2
CONTINUOUS
 70
0
  3
Solid line
 72
65
 73
0
 40
0.0
  0
LTYPE
  5
31
100
AcDbSymbolTableRecord
100
AcDbLinetypeTableRecord
  2
DOT
 70
0
  3
Dot . . . . . . . . . . . . . . . . . . . . . .
 72
65
 73
2
 40
6.3499999999999996
 49
0.0
 74
0
 49
-6.3499999999999996
 74
0
  0
LTYPE
  5
32
100
AcDbSymbolTableRecord
100
AcDbLinetypeTableRecord
  2
DOT2
 70
0
  3
Dot (.5x) .....................................
 72
65
 73
2
 40
3.1749999999999998
 49
0.0
 74
0
 49
-3.1749999999999998
 74
0
  0
LTYPE
  5
33
100
AcDbSymbolTableRecord
100
AcDbLinetypeTableRecord
  2
DOTX2
 70
0
  3
Dot (2x) .  .  .  .  .  .  .  .  .  .  .  .  .
 72
65
 73
2
 40
12.6999999999999993
 49
0.0
 74
0
 49
-12.6999999999999993
 74
0
  0
LTYPE
  5
34
100
AcDbSymbolTableRecord
100
AcDbLinetypeTableRecord
  2
DASHED
 70
0
  3
Dashed __ __ __ __ __ __ __ __ __ __ __ __ __ _
 72
65
 73
2
 40
19.0500000000000007
 49
12.6999999999999993
 74
0
 49
-6.3499999999999996
 74
0
  0
LTYPE
  5
35
100
AcDbSymbolTableRecord
100
AcDbLinetypeTableRecord
  2
DASHED2
 70
0
  3
Dashed (.5x) _ _ _ _ _ _ _ _ _ _ _ _ _ _ _ _ _
 72
65
 73
2
 40
9.5250000000000004
 49
6.3499999999999996
 74
0
 49
-3.1749999999999998
 74
0
  0
LTYPE
  5
36
100
AcDbSymbolTableRecord
100
AcDbLinetypeTableRecord
  2
DASHEDX2
 70
0
  3
Dashed (2x) ____  ____  ____  ____  ____  ___
 72
65
 73
2
 40
38.1000000000000014
 49
25.3999999999999986
 74
0
 49
-12.6999999999999993
 74
0
  0
LTYPE
  5
37
100
AcDbSymbolTableRecord
100
AcDbLinetypeTableRecord
  2
DASHDOT
 70
0
  3
Dash dot __ . __ . __ . __ . __ . __ . __ . __
 72
65
 73
4
 40
25.3999999999999986
 49
12.6999999999999993
 74
0
 49
-6.3499999999999996
 74
0
 49
0.0
 74
0
 49
-6.3499999999999996
 74
0
  0
LTYPE
  5
38
100
AcDbSymbolTableRecord
100
AcDbLinetypeTableRecord
  2
DASHDOT2
 70
0
  3
Dash dot (.5x) _._._._._._._._._._._._._._._.
 72
65
 73
4
 40
12.6999999999999993
 49
6.3499999999999996
 74
0
 49
-3.1749999999999998
 74
0
 49
0.0
 74
0
 49
-3.1749999999999998
 74
0
  0
LTYPE
  5
39
100
AcDbSymbolTableRecord
100
AcDbLinetypeTableRecord
  2
DASHDOTX2
 70
0
  3
Dash dot (2x) ____  .  ____  .  ____  .  ___
 72
65
 73
4
 40
50.7999999999999972
 49
25.3999999999999986
 74
0
 49
-12.6999999999999993
 74
0
 49
0.0
 74
0
 49
-12.6999999999999993
 74
0
  0
LTYPE
  5
3A
100
AcDbSymbolTableRecord
100
AcDbLinetypeTableRecord
  2
DIVIDE
 70
0
  3
Divide ____ . . ____ . . ____ . . ____ . . ____
 72
65
 73
6
 40
31.75
 49
12.6999999999999993
 74
0
 49
-6.3499999999999996
 74
0
 49
0.0
 74
0
 49
-6.3499999999999996
 74
0
 49
0.0
 74
0
 49
-6.3499999999999996
 74
0
  0
LTYPE
  5
3B
100
AcDbSymbolTableRecord
100
AcDbLinetypeTableRecord
  2
DIVIDE2
 70
0
  3
Divide (.5x) __..__..__..__..__..__..__..__.._
 72
65
 73
6
 40
15.875
 49
6.3499999999999996
 74
0
 49
-3.1749999999999998
 74
0
 49
0.0
 74
0
 49
-3.1749999999999998
 74
0
 49
0.0
 74
0
 49
-3.1749999999999998
 74
0
  0
LTYPE
  5
3C
100
AcDbSymbolTableRecord
100
AcDbLinetypeTableRecord
  2
DIVIDEX2
 70
0
  3
Divide (2x) ________  .  .  ________  .  .  _
 72
65
 73
6
 40
63.5
 49
25.3999999999999986
 74
0
 49
-12.6999999999999993
 74
0
 49
0.0
 74
0
 49
-12.6999999999999993
 74
0
 49
0.0
 74
0
 49
-12.6999999999999993
 74
0
  0
LTYPE
  5
3D
100
AcDbSymbolTableRecord
100
AcDbLinetypeTableRecord
  2
CENTER
 70
0
  3
Center ____ _ ____ _ ____ _ ____ _ ____ _ ____
 72
65
 73
4
 40
50.7999999999999972
 49
31.75
 74
0
 49
-6.3499999999999996
 74
0
 49
6.3499999999999996
 74
0
 49
-6.3499999999999996
 74
0
  0
LTYPE
  5
3E
100
AcDbSymbolTableRecord
100
AcDbLinetypeTableRecord
  2
CENTER2
 70
0
  3
Center (.5x) ___ _ ___ _ ___ _ ___ _ ___ _ ___
 72
65
 73
4
 40
28.5749999999999993
 49
19.0500000000000007
 74
0
 49
-3.1749999999999998
 74
0
 49
3.1749999999999998
 74
0
 49
-3.1749999999999998
 74
0
  0
LTYPE
  5
3F
100
AcDbSymbolTableRecord
100
AcDbLinetypeTableRecord
  2
CENTERX2
 70
0
  3
Center (2x) ________  __  ________  __  _____
 72
65
 73
4
 40
101.5999999999999943
 49
63.5
 74
0
 49
-12.6999999999999993
 74
0
 49
12.6999999999999993
 74
0
 49
-12.6999999999999993
 74
0
  0
LTYPE
  5
40
100
AcDbSymbolTableRecord
100
AcDbLinetypeTableRecord
  2
BORDER
 70
0
  3
Border __ __ . __ __ . __ __ . __ __ . __ __ .
 72
65
 73
6
 40
44.4500000000000028
 49
12.6999999999999993
 74
0
 49
-6.3499999999999996
 74
0
 49
12.6999999999999993
 74
0
 49
-6.3499999999999996
 74
0
 49
0.0
 74
0
 49
-6.3499999999999996
 74
0
  0
LTYPE
  5
41
100
AcDbSymbolTableRecord
100
AcDbLinetypeTableRecord
  2
BORDER2
 70
0
  3
Border (.5x) __.__.__.__.__.__.__.__.__.__.__.
 72
65
 73
6
 40
22.2250000000000014
 49
6.3499999999999996
 74
0
 49
-3.1749999999999998
 74
0
 49
6.3499999999999996
 74
0
 49
-3.1749999999999998
 74
0
 49
0.0
 74
0
 49
-3.1749999999999998
 74
0
  0
LTYPE
  5
42
100
AcDbSymbolTableRecord
100
AcDbLinetypeTableRecord
  2
BORDERX2
 70
0
  3
Border (2x) ____  ____  .  ____  ____  .  ___
 72
65
 73
6
 40
88.9000000000000057
 49
25.3999999999999986
 74
0
 49
-12.6999999999999993
 74
0
 49
25.3999999999999986
 74
0
 49
-12.6999999999999993
 74
0
 49
0.0
 74
0
 49
-12.6999999999999993
 74
0
  0
ENDTAB
  0
TABLE
  2
LAYER
  5
2
100
AcDbSymbolTable
 70
6
  0
LAYER
  5
10
100
AcDbSymbolTableRecord
100
AcDbLayerTableRecord
  2
0
 70
0
 62
7
  6
CONTINUOUS
370
0
390
F
  0
LAYER
  5
43
100
AcDbSymbolTableRecord
100
AcDbLayerTableRecord
  2
1
 70
0
 62
6
  6
CONTINUOUS
370
0
390
F
  0
LAYER
  5
44
100
AcDbSymbolTableRecord
100
AcDbLayerTableRecord
  2
2
 70
0
 62
2
  6
CONTINUOUS
370
0
390
F
  0
LAYER
  5
45
100
AcDbSymbolTableRecord
100
AcDbLayerTableRecord
  2
3
 70
0
 62
3
  6
CONTINUOUS
370
0
390
F
  0
LAYER
  5
46
100
AcDbSymbolTableRecord
100
AcDbLayerTableRecord
  2
4
 70
0
 62
1
  6
CONTINUOUS
370
0
390
F
  0
LAYER
  5
47
100
AcDbSymbolTableRecord
100
AcDbLayerTableRecord
  2
5
 70
0
 62
5
  6
CONTINUOUS
370
0
390
F
  0
ENDTAB
  0
TABLE
  2
STYLE
  5
3
100
AcDbSymbolTable
 70
1
  0
STYLE
  5
11
100
AcDbSymbolTableRecord
100
AcDbTextStyleTableRecord
  2
Standard
 70
0
 40
0.0
 41
0.75
 50
0.0
 71
0
 42
2.5
  3
txt
  4

  0
ENDTAB
  0
TABLE
  2
VIEW
  5
6
100
AcDbSymbolTable
 70
0
  0
ENDTAB
  0
TABLE
  2
UCS
  5
7
100
AcDbSymbolTable
 70
0
  0
ENDTAB
  0
TABLE
  2
APPID
  5
9
100
AcDbSymbolTable
 70
1
  0
APPID
  5
12
100
AcDbSymbolTableRecord
100
AcDbRegAppTableRecord
  2
ACAD
 70
0
  0
ENDTAB
  0
TABLE
  2
DIMSTYLE
  5
A
100
AcDbSymbolTable
 70
1
100
AcDbDimStyleTable
 71
0
  0
DIMSTYLE
105
27
100
AcDbSymbolTableRecord
100
AcDbDimStyleTableRecord
  2
Standard
 41
2.5
 42
0.625
 43
3.75
 44
1.25
 70
0
 73
0
 74
0
 77
1
 78
8
140
2.5
141
2.5
143
0.03937007874016
147
0.625
171
3
172
1
271
2
272
2
274
3
278
44
283
0
284
8
340
11
  0
ENDTAB
  0
TABLE
  2
BLOCK_RECORD
  5
1
100
AcDbSymbolTable
 70
1
  0
BLOCK_RECORD
  5
1F
100
AcDbSymbolTableRecord
100
AcDbBlockTableRecord
  2
*Model_Space
340
22
  0
BLOCK_RECORD
  5
1B
100
AcDbSymbolTableRecord
100
AcDbBlockTableRecord
  2
*Paper_Space
340
1E
  0
BLOCK_RECORD
  5
23
100
AcDbSymbolTableRecord
100
AcDbBlockTableRecord
  2
*Paper_Space0
340
26
  0
ENDTAB
  0
ENDSEC
  0
SECTION
  2
BLOCKS
  0
BLOCK
  5
20
100
AcDbEntity
  8
0
100
AcDbBlockBegin
  2
*Model_Space
 70
0
 10
0.0
 20
0.0
 30
0.0
  3
*Model_Space
  1

  0
ENDBLK
  5
21
100
AcDbEntity
  8
0
100
AcDbBlockEnd
  0
BLOCK
  5
1C
100
AcDbEntity
 67
1
  8
0
100
AcDbBlockBegin
  2
*Paper_Space
 70
0
 10
0.0
 20
0.0
 30
0.0
  3
*Paper_Space
  1

  0
ENDBLK
  5
1D
100
AcDbEntity
 67
1
  8
0
100
AcDbBlockEnd
  0
BLOCK
  5
24
100
AcDbEntity
  8
0
100
AcDbBlockBegin
  2
*Paper_Space0
 70
0
 10
0.0
 20
0.0
 30
0.0
  3
*Paper_Space0
  1

  0
ENDBLK
  5
25
100
AcDbEntity
  8
0
100
AcDbBlockEnd
  0
ENDSEC
  0
SECTION
  2
ENTITIES
  0
LINE
5
48
100
AcDbEntity
100
AcDbLine
8
3
62
256
370
-1
6
ByLayer
10
300.0
20
100.0
30
0.0
11
299.969539031
21
101.745240644
31
0.0
0
LINE
5
49
100
AcDbEntity
100
AcDbLine
8
3
62
256
370
-1
6
ByLayer
10
299.969539031
20
101.745240644
30
0.0
11
299.878165404
21
103.48994967
31
0.0
0
LINE
5
50
100
AcDbEntity
100
AcDbLine
8
3
62
256
370
-1
6
ByLayer
10
299.878165404
20
103.48994967
30
0.0
11
299.725906951
21
105.233595624
31
0.0
0
LINE
5
51
100
AcDbEntity
100
AcDbLine
8
3
62
256
370
-1
6
ByLayer
10
299.725906951
20
105.233595624
30
0.0
11
299.512810052
21
106.975647374
31
0.0
0
LINE
5
52
100
AcDbEntity
100
AcDbLine
8
3
62
256
370
-1
6
ByLayer
10
299.512810052
20
106.975647374
30
0.0
11
299.238939618
21
108.715574275
31
0.0
0
LINE
5
53
100
AcDbEntity
100
AcDbLine
8
3
62
256
370
-1
6
ByLayer
10
299.238939618
20
108.715574275
30
0.0
11
298.904379074
21
110.452846327
31
0.0
0
LINE
5
54
100
AcDbEntity
100
AcDbLine
8
3
62
256
370
-1
6
ByLayer
10
298.904379074
20
110.452846327
30
0.0
11
298.509230328
21
112.186934341
31
0.0
0
LINE
5
55
100
AcDbEntity
100
AcDbLine
8
3
62
256
370
-1
6
ByLayer
10
298.509230328
20
112.186934341
30
0.0
11
298.053613748
21
113.917310096
31
0.0
0
LINE
5
56
100
AcDbEntity
100
AcDbLine
8
3
62
256
370
-1
6
ByLayer
10
298.053613748
20
113.917310096
30
0.0
11
297.537668119
21
115.643446504
31
0.0
0
LINE
5
57
100
AcDbEntity
100
AcDbLine
8
3
62
256
370
-1
6
ByLayer
10
297.537668119
20
115.643446504
30
0.0
11
296.961550602
21
117.364817767
31
0.0
0
LINE
5
58
100
AcDbEntity
100
AcDbLine
8
3
62
256
370
-1
6
ByLayer
10
296.961550602
20
117.364817767
30
0.0
11
296.32543669
21
119.080899538
31
0.0
0
LINE
5
59
100
AcDbEntity
100
AcDbLine
8
3
62
256
370
-1
6
ByLayer
10
296.32543669
20
119.080899538
30
0.0
11
295.629520147
21
120.791169082
31
0.0
0
LINE
5
60
100
AcDbEntity
100
AcDbLine
8
3
62
256
370
-1
6
ByLayer
10
295.629520147
20
120.791169082
30
0.0
11
294.874012957
21
122.495105434
31
0.0
0
LINE
5
61
100
AcDbEntity
100
AcDbLine
8
3
62
256
370
-1
6
ByLayer
10
294.874012957
20
122.495105434
30
0.0
11
294.059145255
21
124.19218956
31
0.0
0
LINE
5
62
100
AcDbEntity
100
AcDbLine
8
3
62
256
370
-1
6
ByLayer
10
294.059145255
20
124.19218956
30
0.0
11
293.185165258
21
125.88190451
31
0.0
0
LINE
5
63
100
AcDbEntity
100
AcDbLine
8
3
62
256
370
-1
6
ByLayer
10
293.185165258
20
125.88190451
30
0.0
11
292.252339188
21
127.563735582
31
0.0
0
LINE
5
64
100
AcDbEntity
100
AcDbLine
8
3
62
256
370
-1
6
ByLayer
10
292.252339188
20
127.563735582
30
0.0
11
291.260951193
21
129.237170472
31
0.0
0
LINE
5
65
100
AcDbEntity
100
AcDbLine
8
3
62
256
370
-1
6
ByLayer
10
291.260951193
20
129.237170472
30
0.0
11
290.211303259
21
130.901699437
31
0.0
0
LINE
5
66
100
AcDbEntity
100
AcDbLine
8
3
62
256
370
-1
6
ByLayer
10
290.211303259
20
130.901699437
30
0.0
11
289.10371512
21
132.556815446
31
0.0
0
LINE
5
67
100
AcDbEntity
100
AcDbLine
8
3
62
256
370
-1
6
ByLayer
10
289.10371512
20
132.556815446
30
0.0
11
287.938524157
21
134.202014333
31
0.0
0
LINE
5
68
100
AcDbEntity
100
AcDbLine
8
3
62
256
370
-1
6
ByLayer
10
287.938524157
20
134.202014333
30
0.0
11
286.716085299
21
135.836794954
31
0.0
0
LINE
5
69
100
AcDbEntity
100
AcDbLine
8
3
62
256
370
-1
6
ByLayer
10
286.716085299
20
135.836794954
30
0.0
11
285.436770913
21
137.460659342
31
0.0
0
LINE
5
70
100
AcDbEntity
100
AcDbLine
8
3
62
256
370
-1
6
ByLayer
10
285.436770913
20
137.460659342
30
0.0
11
284.10097069
21
139.073112849
31
0.0
0
LINE
5
71
100
AcDbEntity
100
AcDbLine
8
3
62
256
370
-1
6
ByLayer
10
284.10097069
20
139.073112849
30
0.0
11
282.709091529
21
140.673664308
31
0.0
0
LINE
5
72
100
AcDbEntity
100
AcDbLine
8
3
62
256
370
-1
6
ByLayer
10
282.709091529
20
140.673664308
30
0.0
11
281.261557407
21
142.261826174
31
0.0
0
LINE
5
73
100
AcDbEntity
100
AcDbLine
8
3
62
256
370
-1
6
ByLayer
10
281.261557407
20
142.261826174
30
0.0
11
279.75880926
21
143.837114679
31
0.0
0
LINE
5
74
100
AcDbEntity
100
AcDbLine
8
3
62
256
370
-1
6
ByLayer
10
279.75880926
20
143.837114679
30
0.0
11
278.201304838
21
145.399049974
31
0.0
0
LINE
5
75
100
AcDbEntity
100
AcDbLine
8
3
62
256
370
-1
6
ByLayer
10
278.201304838
20
145.399049974
30
0.0
11
276.589518572
21
146.947156279
31
0.0
0
LINE
5
76
100
AcDbEntity
100
AcDbLine
8
3
62
256
370
-1
6
ByLayer
10
276.589518572
20
146.947156279
30
0.0
11
274.923941428
21
148.480962025
31
0.0
0
LINE
5
77
100
AcDbEntity
100
AcDbLine
8
3
62
256
370
-1
6
ByLayer
10
274.923941428
20
148.480962025
30
0.0
11
273.205080757
21
150.0
31
0.0
0
LINE
5
78
100
AcDbEntity
100
AcDbLine
8
3
62
256
370
-1
6
ByLayer
10
273.205080757
20
150.0
30
0.0
11
271.43346014
21
151.503807491
31
0.0
0
LINE
5
79
100
AcDbEntity
100
AcDbLine
8
3
62
256
370
-1
6
ByLayer
10
271.43346014
20
151.503807491
30
0.0
11
269.609619231
21
152.991926423
31
0.0
0
LINE
5
80
100
AcDbEntity
100
AcDbLine
8
3
62
256
370
-1
6
ByLayer
10
269.609619231
20
152.991926423
30
0.0
11
267.734113589
21
154.463903501
31
0.0
0
LINE
5
81
100
AcDbEntity
100
AcDbLine
8
3
62
256
370
-1
6
ByLayer
10
267.734113589
20
154.463903501
30
0.0
11
265.807514511
21
155.919290347
31
0.0
0
LINE
5
82
100
AcDbEntity
100
AcDbLine
8
3
62
256
370
-1
6
ByLayer
10
265.807514511
20
155.919290347
30
0.0
11
263.830408858
21
157.357643635
31
0.0
0
LINE
5
83
100
AcDbEntity
100
AcDbLine
8
3
62
256
370
-1
6
ByLayer
10
263.830408858
20
157.357643635
30
0.0
11
261.803398875
21
158.778525229
31
0.0
0
LINE
5
84
100
AcDbEntity
100
AcDbLine
8
3
62
256
370
-1
6
ByLayer
10
261.803398875
20
158.778525229
30
0.0
11
259.727102009
21
160.181502315
31
0.0
0
LINE
5
85
100
AcDbEntity
100
AcDbLine
8
3
62
256
370
-1
6
ByLayer
10
259.727102009
20
160.181502315
30
0.0
11
257.602150721
21
161.566147533
31
0.0
0
LINE
5
86
100
AcDbEntity
100
AcDbLine
8
3
62
256
370
-1
6
ByLayer
10
257.602150721
20
161.566147533
30
0.0
11
255.429192291
21
162.932039105
31
0.0
0
LINE
5
87
100
AcDbEntity
100
AcDbLine
8
3
62
256
370
-1
6
ByLayer
10
255.429192291
20
162.932039105
30
0.0
11
253.208888624
21
164.278760969
31
0.0
0
LINE
5
88
100
AcDbEntity
100
AcDbLine
8
3
62
256
370
-1
6
ByLayer
10
253.208888624
20
164.278760969
30
0.0
11
250.941916045
21
165.605902899
31
0.0
0
LINE
5
89
100
AcDbEntity
100
AcDbLine
8
3
62
256
370
-1
6
ByLayer
10
250.941916045
20
165.605902899
30
0.0
11
248.628965095
21
166.913060636
31
0.0
0
LINE
5
90
100
AcDbEntity
100
AcDbLine
8
3
62
256
370
-1
6
ByLayer
10
248.628965095
20
166.913060636
30
0.0
11
246.270740324
21
168.199836006
31
0.0
0
LINE
5
91
100
AcDbEntity
100
AcDbLine
8
3
62
256
370
-1
6
ByLayer
10
246.270740324
20
168.199836006
30
0.0
11
243.867960068
21
169.465837046
31
0.0
0
LINE
5
92
100
AcDbEntity
100
AcDbLine
8
3
62
256
370
-1
6
ByLayer
10
243.867960068
20
169.465837046
30
0.0
11
241.421356237
21
170.710678119
31
0.0
0
LINE
5
93
100
AcDbEntity
100
AcDbLine
8
3
62
256
370
-1
6
ByLayer
10
241.421356237
20
170.710678119
30
0.0
11
238.931674092
21
171.933980034
31
0.0
0
LINE
5
94
100
AcDbEntity
100
AcDbLine
8
3
62
256
370
-1
6
ByLayer
10
238.931674092
20
171.933980034
30
0.0
11
236.399672012
21
173.135370162
31
0.0
0
LINE
5
95
100
AcDbEntity
100
AcDbLine
8
3
62
256
370
-1
6
ByLayer
10
236.399672012
20
173.135370162
30
0.0
11
233.826121272
21
174.314482548
31
0.0
0
LINE
5
96
100
AcDbEntity
100
AcDbLine
8
3
62
256
370
-1
6
ByLayer
10
233.826121272
20
174.314482548
30
0.0
11
231.211805798
21
175.470958022
31
0.0
0
LINE
5
97
100
AcDbEntity
100
AcDbLine
8
3
62
256
370
-1
6
ByLayer
10
231.211805798
20
175.470958022
30
0.0
11
228.557521937
21
176.604444312
31
0.0
0
LINE
5
98
100
AcDbEntity
100
AcDbLine
8
3
62
256
370
-1
6
ByLayer
10
228.557521937
20
176.604444312
30
0.0
11
225.86407821
21
177.714596146
31
0.0
0
LINE
5
99
100
AcDbEntity
100
AcDbLine
8
3
62
256
370
-1
6
ByLayer
10
225.86407821
20
177.714596146
30
0.0
11
223.132295065
21
178.801075361
31
0.0
0
LINE
5
100
100
AcDbEntity
100
AcDbLine
8
3
62
256
370
-1
6
ByLayer
10
223.132295065
20
178.801075361
30
0.0
11
220.36300463
21
179.863551005
31
0.0
0
LINE
5
101
100
AcDbEntity
100
AcDbLine
8
3
62
256
370
-1
6
ByLayer
10
220.36300463
20
179.863551005
30
0.0
11
217.557050458
21
180.901699437
31
0.0
0
LINE
5
102
100
AcDbEntity
100
AcDbLine
8
3
62
256
370
-1
6
ByLayer
10
217.557050458
20
180.901699437
30
0.0
11
214.71528727
21
181.915204429
31
0.0
0
LINE
5
103
100
AcDbEntity
100
AcDbLine
8
3
62
256
370
-1
6
ByLayer
10
214.71528727
20
181.915204429
30
0.0
11
211.838580694
21
182.903757256
31
0.0
0
LINE
5
104
100
AcDbEntity
100
AcDbLine
8
3
62
256
370
-1
6
ByLayer
10
211.838580694
20
182.903757256
30
0.0
11
208.927807003
21
183.867056795
31
0.0
0
LINE
5
105
100
AcDbEntity
100
AcDbLine
8
3
62
256
370
-1
6
ByLayer
10
208.927807003
20
183.867056795
30
0.0
11
205.983852847
21
184.804809616
31
0.0
0
LINE
5
106
100
AcDbEntity
100
AcDbLine
8
3
62
256
370
-1
6
ByLayer
10
205.983852847
20
184.804809616
30
0.0
11
203.007614982
21
185.71673007
31
0.0
0
LINE
5
107
100
AcDbEntity
100
AcDbLine
8
3
62
256
370
-1
6
ByLayer
10
203.007614982
20
185.71673007
30
0.0
11
200.0
21
186.602540378
31
0.0
0
LINE
5
108
100
AcDbEntity
100
AcDbLine
8
3
62
256
370
-1
6
ByLayer
10
200.0
20
186.602540378
30
0.0
11
196.961924049
21
187.461970714
31
0.0
0
LINE
5
109
100
AcDbEntity
100
AcDbLine
8
3
62
256
370
-1
6
ByLayer
10
196.961924049
20
187.461970714
30
0.0
11
193.894312557
21
188.294759286
31
0.0
0
LINE
5
110
100
AcDbEntity
100
AcDbLine
8
3
62
256
370
-1
6
ByLayer
10
193.894312557
20
188.294759286
30
0.0
11
190.798099948
21
189.100652419
31
0.0
0
LINE
5
111
100
AcDbEntity
100
AcDbLine
8
3
62
256
370
-1
6
ByLayer
10
190.798099948
20
189.100652419
30
0.0
11
187.674229358
21
189.87940463
31
0.0
0
LINE
5
112
100
AcDbEntity
100
AcDbLine
8
3
62
256
370
-1
6
ByLayer
10
187.674229358
20
189.87940463
30
0.0
11
184.523652348
21
190.630778704
31
0.0
0
LINE
5
113
100
AcDbEntity
100
AcDbLine
8
3
62
256
370
-1
6
ByLayer
10
184.523652348
20
190.630778704
30
0.0
11
181.347328615
21
191.354545764
31
0.0
0
LINE
5
114
100
AcDbEntity
100
AcDbLine
8
3
62
256
370
-1
6
ByLayer
10
181.347328615
20
191.354545764
30
0.0
11
178.146225698
21
192.050485345
31
0.0
0
LINE
5
115
100
AcDbEntity
100
AcDbLine
8
3
62
256
370
-1
6
ByLayer
10
178.146225698
20
192.050485345
30
0.0
11
174.921318683
21
192.718385457
31
0.0
0
LINE
5
116
100
AcDbEntity
100
AcDbLine
8
3
62
256
370
-1
6
ByLayer
10
174.921318683
20
192.718385457
30
0.0
11
171.673589909
21
193.35804265
31
0.0
0
LINE
5
117
100
AcDbEntity
100
AcDbLine
8
3
62
256
370
-1
6
ByLayer
10
171.673589909
20
193.35804265
30
0.0
11
168.404028665
21
193.969262079
31
0.0
0
LINE
5
118
100
AcDbEntity
100
AcDbLine
8
3
62
256
370
-1
6
ByLayer
10
168.404028665
20
193.969262079
30
0.0
11
165.113630891
21
194.55185756
31
0.0
0
LINE
5
119
100
AcDbEntity
100
AcDbLine
8
3
62
256
370
-1
6
ByLayer
10
165.113630891
20
194.55185756
30
0.0
11
161.803398875
21
195.10565163
31
0.0
0
LINE
5
120
100
AcDbEntity
100
AcDbLine
8
3
62
256
370
-1
6
ByLayer
10
161.803398875
20
195.10565163
30
0.0
11
158.474340944
21
195.630475596
31
0.0
0
LINE
5
121
100
AcDbEntity
100
AcDbLine
8
3
62
256
370
-1
6
ByLayer
10
158.474340944
20
195.630475596
30
0.0
11
155.127471163
21
196.126169594
31
0.0
0
LINE
5
122
100
AcDbEntity
100
AcDbLine
8
3
62
256
370
-1
6
ByLayer
10
155.127471163
20
196.126169594
30
0.0
11
151.76380902
21
196.592582629
31
0.0
0
LINE
5
123
100
AcDbEntity
100
AcDbLine
8
3
62
256
370
-1
6
ByLayer
10
151.76380902
20
196.592582629
30
0.0
11
148.38437912
21
197.029572628
31
0.0
0
LINE
5
124
100
AcDbEntity
100
AcDbLine
8
3
62
256
370
-1
6
ByLayer
10
148.38437912
20
197.029572628
30
0.0
11
144.990210869
21
197.437006478
31
0.0
0
LINE
5
125
100
AcDbEntity
100
AcDbLine
8
3
62
256
370
-1
6
ByLayer
10
144.990210869
20
197.437006478
30
0.0
11
141.582338164
21
197.814760073
31
0.0
0
LINE
5
126
100
AcDbEntity
100
AcDbLine
8
3
62
256
370
-1
6
ByLayer
10
141.582338164
20
197.814760073
30
0.0
11
138.161799075
21
198.162718345
31
0.0
0
LINE
5
127
100
AcDbEntity
100
AcDbLine
8
3
62
256
370
-1
6
ByLayer
10
138.161799075
20
198.162718345
30
0.0
11
134.729635533
21
198.480775301
31
0.0
0
LINE
5
128
100
AcDbEntity
100
AcDbLine
8
3
62
256
370
-1
6
ByLayer
10
134.729635533
20
198.480775301
30
0.0
11
131.286893008
21
198.768834059
31
0.0
0
LINE
5
129
100
AcDbEntity
100
AcDbLine
8
3
62
256
370
-1
6
ByLayer
10
131.286893008
20
198.768834059
30
0.0
11
127.834620192
21
199.026806874
31
0.0
0
LINE
5
130
100
AcDbEntity
100
AcDbLine
8
3
62
256
370
-1
6
ByLayer
10
127.834620192
20
199.026806874
30
0.0
11
124.373868681
21
199.254615164
31
0.0
0
LINE
5
131
100
AcDbEntity
100
AcDbLine
8
3
62
256
370
-1
6
ByLayer
10
124.373868681
20
199.254615164
30
0.0
11
120.905692653
21
199.452189537
31
0.0
0
LINE
5
132
100
AcDbEntity
100
AcDbLine
8
3
62
256
370
-1
6
ByLayer
10
120.905692653
20
199.452189537
30
0.0
11
117.431148549
21
199.619469809
31
0.0
0
LINE
5
133
100
AcDbEntity
100
AcDbLine
8
3
62
256
370
-1
6
ByLayer
10
117.431148549
20
199.619469809
30
0.0
11
113.951294749
21
199.756405026
31
0.0
0
LINE
5
134
100
AcDbEntity
100
AcDbLine
8
3
62
256
370
-1
6
ByLayer
10
113.951294749
20
199.756405026
30
0.0
11
110.467191249
21
199.862953476
31
0.0
0
LINE
5
135
100
AcDbEntity
100
AcDbLine
8
3
62
256
370
-1
6
ByLayer
10
110.467191249
20
199.862953476
30
0.0
11
106.97989934
21
199.939082702
31
0.0
0
LINE
5
136
100
AcDbEntity
100
AcDbLine
8
3
62
256
370
-1
6
ByLayer
10
106.97989934
20
199.939082702
30
0.0
11
103.490481287
21
199.984769516
31
0.0
0
LINE
5
137
100
AcDbEntity
100
AcDbLine
8
3
62
256
370
-1
6
ByLayer
10
103.490481287
20
199.984769516
30
0.0
11
100.0
21
200.0
31
0.0
0
LINE
5
138
100
AcDbEntity
100
AcDbLine
8
3
62
256
370
-1
6
ByLayer
10
100.0
20
200.0
30
0.0
11
96.5095187125
21
199.984769516
31
0.0
0
LINE
5
139
100
AcDbEntity
100
AcDbLine
8
3
62
256
370
-1
6
ByLayer
10
96.5095187125
20
199.984769516
30
0.0
11
93.0201006595
21
199.939082702
31
0.0
0
LINE
5
140
100
AcDbEntity
100
AcDbLine
8
3
62
256
370
-1
6
ByLayer
10
93.0201006595
20
199.939082702
30
0.0
11
89.5328087514
21
199.862953476
31
0.0
0
LINE
5
141
100
AcDbEntity
100
AcDbLine
8
3
62
256
370
-1
6
ByLayer
10
89.5328087514
20
199.862953476
30
0.0
11
86.0487052512
21
199.756405026
31
0.0
0
LINE
5
142
100
AcDbEntity
100
AcDbLine
8
3
62
256
370
-1
6
ByLayer
10
86.0487052512
20
199.756405026
30
0.0
11
82.5688514505
21
199.619469809
31
0.0
0
LINE
5
143
100
AcDbEntity
100
AcDbLine
8
3
62
256
370
-1
6
ByLayer
10
82.5688514505
20
199.619469809
30
0.0
11
79.0943073465
21
199.452189537
31
0.0
0
LINE
5
144
100
AcDbEntity
100
AcDbLine
8
3
62
256
370
-1
6
ByLayer
10
79.0943073465
20
199.452189537
30
0.0
11
75.626131319
21
199.254615164
31
0.0
0
LINE
5
145
100
AcDbEntity
100
AcDbLine
8
3
62
256
370
-1
6
ByLayer
10
75.626131319
20
199.254615164
30
0.0
11
72.165379808
21
199.026806874
31
0.0
0
LINE
5
146
100
AcDbEntity
100
AcDbLine
8
3
62
256
370
-1
6
ByLayer
10
72.165379808
20
199.026806874
30
0.0
11
68.713106992
21
198.768834059
31
0.0
0
LINE
5
147
100
AcDbEntity
100
AcDbLine
8
3
62
256
370
-1
6
ByLayer
10
68.713106992
20
198.768834059
30
0.0
11
65.2703644666
21
198.480775301
31
0.0
0
LINE
5
148
100
AcDbEntity
100
AcDbLine
8
3
62
256
370
-1
6
ByLayer
10
65.2703644666
20
198.480775301
30
0.0
11
61.8382009247
21
198.162718345
31
0.0
0
LINE
5
149
100
AcDbEntity
100
AcDbLine
8
3
62
256
370
-1
6
ByLayer
10
61.8382009247
20
198.162718345
30
0.0
11
58.4176618364
21
197.814760073
31
0.0
0
LINE
5
150
100
AcDbEntity
100
AcDbLine
8
3
62
256
370
-1
6
ByLayer
10
58.4176618364
20
197.814760073
30
0.0
11
55.0097891312
21
197.437006478
31
0.0
0
LINE
5
151
100
AcDbEntity
100
AcDbLine
8
3
62
256
370
-1
6
ByLayer
10
55.0097891312
20
197.437006478
30
0.0
11
51.6156208801
21
197.029572628
31
0.0
0
LINE
5
152
100
AcDbEntity
100
AcDbLine
8
3
62
256
370
-1
6
ByLayer
10
51.6156208801
20
197.029572628
30
0.0
11
48.2361909795
21
196.592582629
31
0.0
0
LINE
5
153
100
AcDbEntity
100
AcDbLine
8
3
62
256
370
-1
6
ByLayer
10
48.2361909795
20
196.592582629
30
0.0
11
44.8725288366
21
196.126169594
31
0.0
0
LINE
5
154
100
AcDbEntity
100
AcDbLine
8
3
62
256
370
-1
6
ByLayer
10
44.8725288366
20
196.126169594
30
0.0
11
41.5256590555
21
195.630475596
31
0.0
0
LINE
5
155
100
AcDbEntity
100
AcDbLine
8
3
62
256
370
-1
6
ByLayer
10
41.5256590555
20
195.630475596
30
0.0
11
38.196601125
21
195.10565163
31
0.0
0
LINE
5
156
100
AcDbEntity
100
AcDbLine
8
3
62
256
370
-1
6
ByLayer
10
38.196601125
20
195.10565163
30
0.0
11
34.8863691086
21
194.55185756
31
0.0
0
LINE
5
157
100
AcDbEntity
100
AcDbLine
8
3
62
256
370
-1
6
ByLayer
10
34.8863691086
20
194.55185756
30
0.0
11
31.5959713349
21
193.969262079
31
0.0
0
LINE
5
158
100
AcDbEntity
100
AcDbLine
8
3
62
256
370
-1
6
ByLayer
10
31.5959713349
20
193.969262079
30
0.0
11
28.3264100909
21
193.35804265
31
0.0
0
LINE
5
159
100
AcDbEntity
100
AcDbLine
8
3
62
256
370
-1
6
ByLayer
10
28.3264100909
20
193.35804265
30
0.0
11
25.0786813168
21
192.718385457
31
0.0
0
LINE
5
160
100
AcDbEntity
100
AcDbLine
8
3
62
256
370
-1
6
ByLayer
10
25.0786813168
20
192.718385457
30
0.0
11
21.8537743021
21
192.050485345
31
0.0
0
LINE
5
161
100
AcDbEntity
100
AcDbLine
8
3
62
256
370
-1
6
ByLayer
10
21.8537743021
20
192.050485345
30
0.0
11
18.6526713848
21
191.354545764
31
0.0
0
LINE
5
162
100
AcDbEntity
100
AcDbLine
8
3
62
256
370
-1
6
ByLayer
10
18.6526713848
20
191.354545764
30
0.0
11
15.4763476519
21
190.630778704
31
0.0
0
LINE
5
163
100
AcDbEntity
100
AcDbLine
8
3
62
256
370
-1
6
ByLayer
10
15.4763476519
20
190.630778704
30
0.0
11
12.3257706422
21
189.87940463
31
0.0
0
LINE
5
164
100
AcDbEntity
100
AcDbLine
8
3
62
256
370
-1
6
ByLayer
10
12.3257706422
20
189.87940463
30
0.0
11
9.2019000521
21
189.100652419
31
0.0
0
LINE
5
165
100
AcDbEntity
100
AcDbLine
8
3
62
256
370
-1
6
ByLayer
10
9.2019000521
20
189.100652419
30
0.0
11
6.1056874428
21
188.294759286
31
0.0
0
LINE
5
166
100
AcDbEntity
100
AcDbLine
8
3
62
256
370
-1
6
ByLayer
10
6.1056874428
20
188.294759286
30
0.0
11
3.0380759507
21
187.461970714
31
0.0
0
LINE
5
167
100
AcDbEntity
100
AcDbLine
8
3
62
256
370
-1
6
ByLayer
10
3.0380759507
20
187.461970714
30
0.0
11
0.0
21
186.602540378
31
0.0
0
LINE
5
168
100
AcDbEntity
100
AcDbLine
8
3
62
256
370
-1
6
ByLayer
10
0.0
20
186.602540378
30
0.0
11
-3.007614982
21
185.71673007
31
0.0
0
LINE
5
169
100
AcDbEntity
100
AcDbLine
8
3
62
256
370
-1
6
ByLayer
10
-3.007614982
20
185.71673007
30
0.0
11
-5.983852847
21
184.804809616
31
0.0
0
LINE
5
170
100
AcDbEntity
100
AcDbLine
8
3
62
256
370
-1
6
ByLayer
10
-5.983852847
20
184.804809616
30
0.0
11
-8.927807003
21
183.867056795
31
0.0
0
LINE
5
171
100
AcDbEntity
100
AcDbLine
8
3
62
256
370
-1
6
ByLayer
10
-8.927807003
20
183.867056795
30
0.0
11
-11.838580694
21
182.903757256
31
0.0
0
LINE
5
172
100
AcDbEntity
100
AcDbLine
8
3
62
256
370
-1
6
ByLayer
10
-11.838580694
20
182.903757256
30
0.0
11
-14.71528727
21
181.915204429
31
0.0
0
LINE
5
173
100
AcDbEntity
100
AcDbLine
8
3
62
256
370
-1
6
ByLayer
10
-14.71528727
20
181.915204429
30
0.0
11
-17.557050458
21
180.901699437
31
0.0
0
LINE
5
174
100
AcDbEntity
100
AcDbLine
8
3
62
256
370
-1
6
ByLayer
10
-17.557050458
20
180.901699437
30
0.0
11
-20.36300463
21
179.863551005
31
0.0
0
LINE
5
175
100
AcDbEntity
100
AcDbLine
8
3
62
256
370
-1
6
ByLayer
10
-20.36300463
20
179.863551005
30
0.0
11
-23.132295065
21
178.801075361
31
0.0
0
LINE
5
176
100
AcDbEntity
100
AcDbLine
8
3
62
256
370
-1
6
ByLayer
10
-23.132295065
20
178.801075361
30
0.0
11
-25.86407821
21
177.714596146
31
0.0
0
LINE
5
177
100
AcDbEntity
100
AcDbLine
8
3
62
256
370
-1
6
ByLayer
10
-25.86407821
20
177.714596146
30
0.0
11
-28.557521937
21
176.604444312
31
0.0
0
LINE
5
178
100
AcDbEntity
100
AcDbLine
8
3
62
256
370
-1
6
ByLayer
10
-28.557521937
20
176.604444312
30
0.0
11
-31.211805798
21
175.470958022
31
0.0
0
LINE
5
179
100
AcDbEntity
100
AcDbLine
8
3
62
256
370
-1
6
ByLayer
10
-31.211805798
20
175.470958022
30
0.0
11
-33.826121272
21
174.314482548
31
0.0
0
LINE
5
180
100
AcDbEntity
100
AcDbLine
8
3
62
256
370
-1
6
ByLayer
10
-33.826121272
20
174.314482548
30
0.0
11
-36.399672012
21
173.135370162
31
0.0
0
LINE
5
181
100
AcDbEntity
100
AcDbLine
8
3
62
256
370
-1
6
ByLayer
10
-36.399672012
20
173.135370162
30
0.0
11
-38.931674092
21
171.933980034
31
0.0
0
LINE
5
182
100
AcDbEntity
100
AcDbLine
8
3
62
256
370
-1
6
ByLayer
10
-38.931674092
20
171.933980034
30
0.0
11
-41.421356237
21
170.710678119
31
0.0
0
LINE
5
183
100
AcDbEntity
100
AcDbLine
8
3
62
256
370
-1
6
ByLayer
10
-41.421356237
20
170.710678119
30
0.0
11
-43.867960068
21
169.465837046
31
0.0
0
LINE
5
184
100
AcDbEntity
100
AcDbLine
8
3
62
256
370
-1
6
ByLayer
10
-43.867960068
20
169.465837046
30
0.0
11
-46.270740324
21
168.199836006
31
0.0
0
LINE
5
185
100
AcDbEntity
100
AcDbLine
8
3
62
256
370
-1
6
ByLayer
10
-46.270740324
20
168.199836006
30
0.0
11
-48.628965095
21
166.913060636
31
0.0
0
LINE
5
186
100
AcDbEntity
100
AcDbLine
8
3
62
256
370
-1
6
ByLayer
10
-48.628965095
20
166.913060636
30
0.0
11
-50.941916045
21
165.605902899
31
0.0
0
LINE
5
187
100
AcDbEntity
100
AcDbLine
8
3
62
256
370
-1
6
ByLayer
10
-50.941916045
20
165.605902899
30
0.0
11
-53.208888624
21
164.278760969
31
0.0
0
LINE
5
188
100
AcDbEntity
100
AcDbLine
8
3
62
256
370
-1
6
ByLayer
10
-53.208888624
20
164.278760969
30
0.0
11
-55.429192291
21
162.932039105
31
0.0
0
LINE
5
189
100
AcDbEntity
100
AcDbLine
8
3
62
256
370
-1
6
ByLayer
10
-55.429192291
20
162.932039105
30
0.0
11
-57.602150721
21
161.566147533
31
0.0
0
LINE
5
190
100
AcDbEntity
100
AcDbLine
8
3
62
256
370
-1
6
ByLayer
10
-57.602150721
20
161.566147533
30
0.0
11
-59.727102009
21
160.181502315
31
0.0
0
LINE
5
191
100
AcDbEntity
100
AcDbLine
8
3
62
256
370
-1
6
ByLayer
10
-59.727102009
20
160.181502315
30
0.0
11
-61.803398875
21
158.778525229
31
0.0
0
LINE
5
192
100
AcDbEntity
100
AcDbLine
8
3
62
256
370
-1
6
ByLayer
10
-61.803398875
20
158.778525229
30
0.0
11
-63.830408858
21
157.357643635
31
0.0
0
LINE
5
193
100
AcDbEntity
100
AcDbLine
8
3
62
256
370
-1
6
ByLayer
10
-63.830408858
20
157.357643635
30
0.0
11
-65.807514511
21
155.919290347
31
0.0
0
LINE
5
194
100
AcDbEntity
100
AcDbLine
8
3
62
256
370
-1
6
ByLayer
10
-65.807514511
20
155.919290347
30
0.0
11
-67.734113589
21
154.463903501
31
0.0
0
LINE
5
195
100
AcDbEntity
100
AcDbLine
8
3
62
256
370
-1
6
ByLayer
10
-67.734113589
20
154.463903501
30
0.0
11
-69.609619231
21
152.991926423
31
0.0
0
LINE
5
196
100
AcDbEntity
100
AcDbLine
8
3
62
256
370
-1
6
ByLayer
10
-69.609619231
20
152.991926423
30
0.0
11
-71.43346014
21
151.503807491
31
0.0
0
LINE
5
197
100
AcDbEntity
100
AcDbLine
8
3
62
256
370
-1
6
ByLayer
10
-71.43346014
20
151.503807491
30
0.0
11
-73.205080757
21
150.0
31
0.0
0
LINE
5
198
100
AcDbEntity
100
AcDbLine
8
3
62
256
370
-1
6
ByLayer
10
-73.205080757
20
150.0
30
0.0
11
-74.923941428
21
148.480962025
31
0.0
0
LINE
5
199
100
AcDbEntity
100
AcDbLine
8
3
62
256
370
-1
6
ByLayer
10
-74.923941428
20
148.480962025
30
0.0
11
-76.589518572
21
146.947156279
31
0.0
0
LINE
5
200
100
AcDbEntity
100
AcDbLine
8
3
62
256
370
-1
6
ByLayer
10
-76.589518572
20
146.947156279
30
0.0
11
-78.201304838
21
145.399049974
31
0.0
0
LINE
5
201
100
AcDbEntity
100
AcDbLine
8
3
62
256
370
-1
6
ByLayer
10
-78.201304838
20
145.399049974
30
0.0
11
-79.75880926
21
143.837114679
31
0.0
0
LINE
5
202
100
AcDbEntity
100
AcDbLine
8
3
62
256
370
-1
6
ByLayer
10
-79.75880926
20
143.837114679
30
0.0
11
-81.261557407
21
142.261826174
31
0.0
0
LINE
5
203
100
AcDbEntity
100
AcDbLine
8
3
62
256
370
-1
6
ByLayer
10
-81.261557407
20
142.261826174
30
0.0
11
-82.709091529
21
140.673664308
31
0.0
0
LINE
5
204
100
AcDbEntity
100
AcDbLine
8
3
62
256
370
-1
6
ByLayer
10
-82.709091529
20
140.673664308
30
0.0
11
-84.10097069
21
139.073112849
31
0.0
0
LINE
5
205
100
AcDbEntity
100
AcDbLine
8
3
62
256
370
-1
6
ByLayer
10
-84.10097069
20
139.073112849
30
0.0
11
-85.436770913
21
137.460659342
31
0.0
0
LINE
5
206
100
AcDbEntity
100
AcDbLine
8
3
62
256
370
-1
6
ByLayer
10
-85.436770913
20
137.460659342
30
0.0
11
-86.716085299
21
135.836794954
31
0.0
0
LINE
5
207
100
AcDbEntity
100
AcDbLine
8
3
62
256
370
-1
6
ByLayer
10
-86.716085299
20
135.836794954
30
0.0
11
-87.938524157
21
134.202014333
31
0.0
0
LINE
5
208
100
AcDbEntity
100
AcDbLine
8
3
62
256
370
-1
6
ByLayer
10
-87.938524157
20
134.202014333
30
0.0
11
-89.10371512
21
132.556815446
31
0.0
0
LINE
5
209
100
AcDbEntity
100
AcDbLine
8
3
62
256
370
-1
6
ByLayer
10
-89.10371512
20
132.556815446
30
0.0
11
-90.211303259
21
130.901699437
31
0.0
0
LINE
5
210
100
AcDbEntity
100
AcDbLine
8
3
62
256
370
-1
6
ByLayer
10
-90.211303259
20
130.901699437
30
0.0
11
-91.260951193
21
129.237170472
31
0.0
0
LINE
5
211
100
AcDbEntity
100
AcDbLine
8
3
62
256
370
-1
6
ByLayer
10
-91.260951193
20
129.237170472
30
0.0
11
-92.252339188
21
127.563735582
31
0.0
0
LINE
5
212
100
AcDbEntity
100
AcDbLine
8
3
62
256
370
-1
6
ByLayer
10
-92.252339188
20
127.563735582
30
0.0
11
-93.185165258
21
125.88190451
31
0.0
0
LINE
5
213
100
AcDbEntity
100
AcDbLine
8
3
62
256
370
-1
6
ByLayer
10
-93.185165258
20
125.88190451
30
0.0
11
-94.059145255
21
124.19218956
31
0.0
0
LINE
5
214
100
AcDbEntity
100
AcDbLine
8
3
62
256
370
-1
6
ByLayer
10
-94.059145255
20
124.19218956
30
0.0
11
-94.874012957
21
122.495105434
31
0.0
0
LINE
5
215
100
AcDbEntity
100
AcDbLine
8
3
62
256
370
-1
6
ByLayer
10
-94.874012957
20
122.495105434
30
0.0
11
-95.629520147
21
120.791169082
31
0.0
0
LINE
5
216
100
AcDbEntity
100
AcDbLine
8
3
62
256
370
-1
6
ByLayer
10
-95.629520147
20
120.791169082
30
0.0
11
-96.32543669
21
119.080899538
31
0.0
0
LINE
5
217
100
AcDbEntity
100
AcDbLine
8
3
62
256
370
-1
6
ByLayer
10
-96.32543669
20
119.080899538
30
0.0
11
-96.961550602
21
117.364817767
31
0.0
0
LINE
5
218
100
AcDbEntity
100
AcDbLine
8
3
62
256
370
-1
6
ByLayer
10
-96.961550602
20
117.364817767
30
0.0
11
-97.537668119
21
115.643446504
31
0.0
0
LINE
5
219
100
AcDbEntity
100
AcDbLine
8
3
62
256
370
-1
6
ByLayer
10
-97.537668119
20
115.643446504
30
0.0
11
-98.053613748
21
113.917310096
31
0.0
0
LINE
5
220
100
AcDbEntity
100
AcDbLine
8
3
62
256
370
-1
6
ByLayer
10
-98.053613748
20
113.917310096
30
0.0
11
-98.509230328
21
112.186934341
31
0.0
0
LINE
5
221
100
AcDbEntity
100
AcDbLine
8
3
62
256
370
-1
6
ByLayer
10
-98.509230328
20
112.186934341
30
0.0
11
-98.904379074
21
110.452846327
31
0.0
0
LINE
5
222
100
AcDbEntity
100
AcDbLine
8
3
62
256
370
-1
6
ByLayer
10
-98.904379074
20
110.452846327
30
0.0
11
-99.238939618
21
108.715574275
31
0.0
0
LINE
5
223
100
AcDbEntity
100
AcDbLine
8
3
62
256
370
-1
6
ByLayer
10
-99.238939618
20
108.715574275
30
0.0
11
-99.512810052
21
106.975647374
31
0.0
0
LINE
5
224
100
AcDbEntity
100
AcDbLine
8
3
62
256
370
-1
6
ByLayer
10
-99.512810052
20
106.975647374
30
0.0
11
-99.725906951
21
105.233595624
31
0.0
0
LINE
5
225
100
AcDbEntity
100
AcDbLine
8
3
62
256
370
-1
6
ByLayer
10
-99.725906951
20
105.233595624
30
0.0
11
-99.878165404
21
103.48994967
31
0.0
0
LINE
5
226
100
AcDbEntity
100
AcDbLine
8
3
62
256
370
-1
6
ByLayer
10
-99.878165404
20
103.48994967
30
0.0
11
-99.969539031
21
101.745240644
31
0.0
0
LINE
5
227
100
AcDbEntity
100
AcDbLine
8
3
62
256
370
-1
6
ByLayer
10
-99.969539031
20
101.745240644
30
0.0
11
-100.0
21
100.0
31
0.0
0
LINE
5
228
100
AcDbEntity
100
AcDbLine
8
3
62
256
370
-1
6
ByLayer
10
-100.0
20
100.0
30
0.0
11
-99.969539031
21
98.2547593563
31
0.0
0
LINE
5
229
100
AcDbEntity
100
AcDbLine
8
3
62
256
370
-1
6
ByLayer
10
-99.969539031
20
98.2547593563
30
0.0
11
-99.878165404
21
96.5100503298
31
0.0
0
LINE
5
230
100
AcDbEntity
100
AcDbLine
8
3
62
256
370
-1
6
ByLayer
10
-99.878165404
20
96.5100503298
30
0.0
11
-99.725906951
21
94.7664043757
31
0.0
0
LINE
5
231
100
AcDbEntity
100
AcDbLine
8
3
62
256
370
-1
6
ByLayer
10
-99.725906951
20
94.7664043757
30
0.0
11
-99.512810052
21
93.0243526256
31
0.0
0
LINE
5
232
100
AcDbEntity
100
AcDbLine
8
3
62
256
370
-1
6
ByLayer
10
-99.512810052
20
93.0243526256
30
0.0
11
-99.238939618
21
91.2844257252
31
0.0
0
LINE
5
233
100
AcDbEntity
100
AcDbLine
8
3
62
256
370
-1
6
ByLayer
10
-99.238939618
20
91.2844257252
30
0.0
11
-98.904379074
21
89.5471536732
31
0.0
0
LINE
5
234
100
AcDbEntity
100
AcDbLine
8
3
62
256
370
-1
6
ByLayer
10
-98.904379074
20
89.5471536732
30
0.0
11
-98.509230328
21
87.8130656595
31
0.0
0
LINE
5
235
100
AcDbEntity
100
AcDbLine
8
3
62
256
370
-1
6
ByLayer
10
-98.509230328
20
87.8130656595
30
0.0
11
-98.053613748
21
86.082689904
31
0.0
0
LINE
5
236
100
AcDbEntity
100
AcDbLine
8
3
62
256
370
-1
6
ByLayer
10
-98.053613748
20
86.082689904
30
0.0
11
-97.537668119
21
84.356553496
31
0.0
0
LINE
5
237
100
AcDbEntity
100
AcDbLine
8
3
62
256
370
-1
6
ByLayer
10
-97.537668119
20
84.356553496
30
0.0
11
-96.961550602
21
82.6351822333
31
0.0
0
LINE
5
238
100
AcDbEntity
100
AcDbLine
8
3
62
256
370
-1
6
ByLayer
10
-96.961550602
20
82.6351822333
30
0.0
11
-96.32543669
21
80.9191004623
31
0.0
0
LINE
5
239
100
AcDbEntity
100
AcDbLine
8
3
62
256
370
-1
6
ByLayer
10
-96.32543669
20
80.9191004623
30
0.0
11
-95.629520147
21
79.2088309182
31
0.0
0
LINE
5
240
100
AcDbEntity
100
AcDbLine
8
3
62
256
370
-1
6
ByLayer
10
-95.629520147
20
79.2088309182
30
0.0
11
-94.874012957
21
77.5048945656
31
0.0
0
LINE
5
241
100
AcDbEntity
100
AcDbLine
8
3
62
256
370
-1
6
ByLayer
10
-94.874012957
20
77.5048945656
30
0.0
11
-94.059145255
21
75.80781044
31
0.0
0
LINE
5
242
100
AcDbEntity
100
AcDbLine
8
3
62
256
370
-1
6
ByLayer
10
-94.059145255
20
75.80781044
30
0.0
11
-93.185165258
21
74.1180954897
31
0.0
0
LINE
5
243
100
AcDbEntity
100
AcDbLine
8
3
62
256
370
-1
6
ByLayer
10
-93.185165258
20
74.1180954897
30
0.0
11
-92.252339188
21
72.4362644183
31
0.0
0
LINE
5
244
100
AcDbEntity
100
AcDbLine
8
3
62
256
370
-1
6
ByLayer
10
-92.252339188
20
72.4362644183
30
0.0
11
-91.260951193
21
70.7628295277
31
0.0
0
LINE
5
245
100
AcDbEntity
100
AcDbLine
8
3
62
256
370
-1
6
ByLayer
10
-91.260951193
20
70.7628295277
30
0.0
11
-90.211303259
21
69.0983005625
31
0.0
0
LINE
5
246
100
AcDbEntity
100
AcDbLine
8
3
62
256
370
-1
6
ByLayer
10
-90.211303259
20
69.0983005625
30
0.0
11
-89.10371512
21
67.4431845543
31
0.0
0
LINE
5
247
100
AcDbEntity
100
AcDbLine
8
3
62
256
370
-1
6
ByLayer
10
-89.10371512
20
67.4431845543
30
0.0
11
-87.938524157
21
65.7979856674
31
0.0
0
LINE
5
248
100
AcDbEntity
100
AcDbLine
8
3
62
256
370
-1
6
ByLayer
10
-87.938524157
20
65.7979856674
30
0.0
11
-86.716085299
21
64.1632050455
31
0.0
0
LINE
5
249
100
AcDbEntity
100
AcDbLine
8
3
62
256
370
-1
6
ByLayer
10
-86.716085299
20
64.1632050455
30
0.0
11
-85.436770913
21
62.5393406584
31
0.0
0
LINE
5
250
100
AcDbEntity
100
AcDbLine
8
3
62
256
370
-1
6
ByLayer
10
-85.436770913
20
62.5393406584
30
0.0
11
-84.10097069
21
60.9268871511
31
0.0
0
LINE
5
251
100
AcDbEntity
100
AcDbLine
8
3
62
256
370
-1
6
ByLayer
10
-84.10097069
20
60.9268871511
30
0.0
11
-82.709091529
21
59.3263356924
31
0.0
0
LINE
5
252
100
AcDbEntity
100
AcDbLine
8
3
62
256
370
-1
6
ByLayer
10
-82.709091529
20
59.3263356924
30
0.0
11
-81.261557407
21
57.7381738259
31
0.0
0
LINE
5
253
100
AcDbEntity
100
AcDbLine
8
3
62
256
370
-1
6
ByLayer
10
-81.261557407
20
57.7381738259
30
0.0
11
-79.75880926
21
56.1628853211
31
0.0
0
LINE
5
254
100
AcDbEntity
100
AcDbLine
8
3
62
256
370
-1
6
ByLayer
10
-79.75880926
20
56.1628853211
30
0.0
11
-78.201304838
21
54.600950026
31
0.0
0
LINE
5
255
100
AcDbEntity
100
AcDbLine
8
3
62
256
370
-1
6
ByLayer
10
-78.201304838
20
54.600950026
30
0.0
11
-76.589518572
21
53.0528437214
31
0.0
0
LINE
5
256
100
AcDbEntity
100
AcDbLine
8
3
62
256
370
-1
6
ByLayer
10
-76.589518572
20
53.0528437214
30
0.0
11
-74.923941428
21
51.5190379754
31
0.0
0
LINE
5
257
100
AcDbEntity
100
AcDbLine
8
3
62
256
370
-1
6
ByLayer
10
-74.923941428
20
51.5190379754
30
0.0
11
-73.205080757
21
50.0
31
0.0
0
LINE
5
258
100
AcDbEntity
100
AcDbLine
8
3
62
256
370
-1
6
ByLayer
10
-73.205080757
20
50.0
30
0.0
11
-71.43346014
21
48.496192509
31
0.0
0
LINE
5
259
100
AcDbEntity
100
AcDbLine
8
3
62
256
370
-1
6
ByLayer
10
-71.43346014
20
48.496192509
30
0.0
11
-69.609619231
21
47.0080735767
31
0.0
0
LINE
5
260
100
AcDbEntity
100
AcDbLine
8
3
62
256
370
-1
6
ByLayer
10
-69.609619231
20
47.0080735767
30
0.0
11
-67.734113589
21
45.5360964985
31
0.0
0
LINE
5
261
100
AcDbEntity
100
AcDbLine
8
3
62
256
370
-1
6
ByLayer
10
-67.734113589
20
45.5360964985
30
0.0
11
-65.807514511
21
44.0807096529
31
0.0
0
LINE
5
262
100
AcDbEntity
100
AcDbLine
8
3
62
256
370
-1
6
ByLayer
10
-65.807514511
20
44.0807096529
30
0.0
11
-63.830408858
21
42.6423563649
31
0.0
0
LINE
5
263
100
AcDbEntity
100
AcDbLine
8
3
62
256
370
-1
6
ByLayer
10
-63.830408858
20
42.6423563649
30
0.0
11
-61.803398875
21
41.2214747708
31
0.0
0
LINE
5
264
100
AcDbEntity
100
AcDbLine
8
3
62
256
370
-1
6
ByLayer
10
-61.803398875
20
41.2214747708
30
0.0
11
-59.727102009
21
39.8184976848
31
0.0
0
LINE
5
265
100
AcDbEntity
100
AcDbLine
8
3
62
256
370
-1
6
ByLayer
10
-59.727102009
20
39.8184976848
30
0.0
11
-57.602150721
21
38.4338524674
31
0.0
0
LINE
5
266
100
AcDbEntity
100
AcDbLine
8
3
62
256
370
-1
6
ByLayer
10
-57.602150721
20
38.4338524674
30
0.0
11
-55.429192291
21
37.067960895
31
0.0
0
LINE
5
267
100
AcDbEntity
100
AcDbLine
8
3
62
256
370
-1
6
ByLayer
10
-55.429192291
20
37.067960895
30
0.0
11
-53.208888624
21
35.7212390313
31
0.0
0
LINE
5
268
100
AcDbEntity
100
AcDbLine
8
3
62
256
370
-1
6
ByLayer
10
-53.208888624
20
35.7212390313
30
0.0
11
-50.941916045
21
34.3940971009
31
0.0
0
LINE
5
269
100
AcDbEntity
100
AcDbLine
8
3
62
256
370
-1
6
ByLayer
10
-50.941916045
20
34.3940971009
30
0.0
11
-48.628965095
21
33.0869393641
31
0.0
0
LINE
5
270
100
AcDbEntity
100
AcDbLine
8
3
62
256
370
-1
6
ByLayer
10
-48.628965095
20
33.0869393641
30
0.0
11
-46.270740324
21
31.8001639938
31
0.0
0
LINE
5
271
100
AcDbEntity
100
AcDbLine
8
3
62
256
370
-1
6
ByLayer
10
-46.270740324
20
31.8001639938
30
0.0
11
-43.867960068
21
30.5341629541
31
0.0
0
LINE
5
272
100
AcDbEntity
100
AcDbLine
8
3
62
256
370
-1
6
ByLayer
10
-43.867960068
20
30.5341629541
30
0.0
11
-41.421356237
21
29.2893218813
31
0.0
0
LINE
5
273
100
AcDbEntity
100
AcDbLine
8
3
62
256
370
-1
6
ByLayer
10
-41.421356237
20
29.2893218813
30
0.0
11
-38.931674092
21
28.0660199661
31
0.0
0
LINE
5
274
100
AcDbEntity
100
AcDbLine
8
3
62
256
370
-1
6
ByLayer
10
-38.931674092
20
28.0660199661
30
0.0
11
-36.399672012
21
26.8646298381
31
0.0
0
LINE
5
275
100
AcDbEntity
100
AcDbLine
8
3
62
256
370
-1
6
ByLayer
10
-36.399672012
20
26.8646298381
30
0.0
11
-33.826121272
21
25.6855174523
31
0.0
0
LINE
5
276
100
AcDbEntity
100
AcDbLine
8
3
62
256
370
-1
6
ByLayer
10
-33.826121272
20
25.6855174523
30
0.0
11
-31.211805798
21
24.5290419777
31
0.0
0
LINE
5
277
100
AcDbEntity
100
AcDbLine
8
3
62
256
370
-1
6
ByLayer
10
-31.211805798
20
24.5290419777
30
0.0
11
-28.557521937
21
23.3955556881
31
0.0
0
LINE
5
278
100
AcDbEntity
100
AcDbLine
8
3
62
256
370
-1
6
ByLayer
10
-28.557521937
20
23.3955556881
30
0.0
11
-25.86407821
21
22.2854038543
31
0.0
0
LINE
5
279
100
AcDbEntity
100
AcDbLine
8
3
62
256
370
-1
6
ByLayer
10
-25.86407821
20
22.2854038543
30
0.0
11
-23.132295065
21
21.1989246393
31
0.0
0
LINE
5
280
100
AcDbEntity
100
AcDbLine
8
3
62
256
370
-1
6
ByLayer
10
-23.132295065
20
21.1989246393
30
0.0
11
-20.36300463
21
20.1364489953
31
0.0
0
LINE
5
281
100
AcDbEntity
100
AcDbLine
8
3
62
256
370
-1
6
ByLayer
10
-20.36300463
20
20.1364489953
30
0.0
11
-17.557050458
21
19.0983005625
31
0.0
0
LINE
5
282
100
AcDbEntity
100
AcDbLine
8
3
62
256
370
-1
6
ByLayer
10
-17.557050458
20
19.0983005625
30
0.0
11
-14.71528727
21
18.0847955711
31
0.0
0
LINE
5
283
100
AcDbEntity
100
AcDbLine
8
3
62
256
370
-1
6
ByLayer
10
-14.71528727
20
18.0847955711
30
0.0
11
-11.838580694
21
17.0962427445
31
0.0
0
LINE
5
284
100
AcDbEntity
100
AcDbLine
8
3
62
256
370
-1
6
ByLayer
10
-11.838580694
20
17.0962427445
30
0.0
11
-8.927807003
21
16.1329432055
31
0.0
0
LINE
5
285
100
AcDbEntity
100
AcDbLine
8
3
62
256
370
-1
6
ByLayer
10
-8.927807003
20
16.1329432055
30
0.0
11
-5.983852847
21
15.1951903844
31
0.0
0
LINE
5
286
100
AcDbEntity
100
AcDbLine
8
3
62
256
370
-1
6
ByLayer
10
-5.983852847
20
15.1951903844
30
0.0
11
-3.007614982
21
14.2832699298
31
0.0
0
LINE
5
287
100
AcDbEntity
100
AcDbLine
8
3
62
256
370
-1
6
ByLayer
10
-3.007614982
20
14.2832699298
30
0.0
11
0.0
21
13.3974596216
31
0.0
0
LINE
5
288
100
AcDbEntity
100
AcDbLine
8
3
62
256
370
-1
6
ByLayer
10
0.0
20
13.3974596216
30
0.0
11
3.0380759507
21
12.5380292861
31
0.0
0
LINE
5
289
100
AcDbEntity
100
AcDbLine
8
3
62
256
370
-1
6
ByLayer
10
3.0380759507
20
12.5380292861
30
0.0
11
6.1056874428
21
11.7052407141
31
0.0
0
LINE
5
290
100
AcDbEntity
100
AcDbLine
8
3
62
256
370
-1
6
ByLayer
10
6.1056874428
20
11.7052407141
30
0.0
11
9.2019000521
21
10.8993475812
31
0.0
0
LINE
5
291
100
AcDbEntity
100
AcDbLine
8
3
62
256
370
-1
6
ByLayer
10
9.2019000521
20
10.8993475812
30
0.0
11
12.3257706422
21
10.1205953701
31
0.0
0
LINE
5
292
100
AcDbEntity
100
AcDbLine
8
3
62
256
370
-1
6
ByLayer
10
12.3257706422
20
10.1205953701
30
0.0
11
15.4763476519
21
9.3692212963
31
0.0
0
LINE
5
293
100
AcDbEntity
100
AcDbLine
8
3
62
256
370
-1
6
ByLayer
10
15.4763476519
20
9.3692212963
30
0.0
11
18.6526713848
21
8.6454542357
31
0.0
0
LINE
5
294
100
AcDbEntity
100
AcDbLine
8
3
62
256
370
-1
6
ByLayer
10
18.6526713848
20
8.6454542357
30
0.0
11
21.8537743021
21
7.9495146548
31
0.0
0
LINE
5
295
100
AcDbEntity
100
AcDbLine
8
3
62
256
370
-1
6
ByLayer
10
21.8537743021
20
7.9495146548
30
0.0
11
25.0786813168
21
7.2816145433
31
0.0
0
LINE
5
296
100
AcDbEntity
100
AcDbLine
8
3
62
256
370
-1
6
ByLayer
10
25.0786813168
20
7.2816145433
30
0.0
11
28.3264100909
21
6.6419573503
31
0.0
0
LINE
5
297
100
AcDbEntity
100
AcDbLine
8
3
62
256
370
-1
6
ByLayer
10
28.3264100909
20
6.6419573503
30
0.0
11
31.5959713349
21
6.0307379214
31
0.0
0
LINE
5
298
100
AcDbEntity
100
AcDbLine
8
3
62
256
370
-1
6
ByLayer
10
31.5959713349
20
6.0307379214
30
0.0
11
34.8863691086
21
5.4481424401
31
0.0
0
LINE
5
299
100
AcDbEntity
100
AcDbLine
8
3
62
256
370
-1
6
ByLayer
10
34.8863691086
20
5.4481424401
30
0.0
11
38.196601125
21
4.8943483705
31
0.0
0
LINE
5
300
100
AcDbEntity
100
AcDbLine
8
3
62
256
370
-1
6
ByLayer
10
38.196601125
20
4.8943483705
30
0.0
11
41.5256590555
21
4.3695244037
31
0.0
0
LINE
5
301
100
AcDbEntity
100
AcDbLine
8
3
62
256
370
-1
6
ByLayer
10
41.5256590555
20
4.3695244037
30
0.0
11
44.8725288366
21
3.8738304062
31
0.0
0
LINE
5
302
100
AcDbEntity
100
AcDbLine
8
3
62
256
370
-1
6
ByLayer
10
44.8725288366
20
3.8738304062
30
0.0
11
48.2361909795
21
3.4074173711
31
0.0
0
LINE
5
303
100
AcDbEntity
100
AcDbLine
8
3
62
256
370
-1
6
ByLayer
10
48.2361909795
20
3.4074173711
30
0.0
11
51.6156208801
21
2.9704273724
31
0.0
0
LINE
5
304
100
AcDbEntity
100
AcDbLine
8
3
62
256
370
-1
6
ByLayer
10
51.6156208801
20
2.9704273724
30
0.0
11
55.0097891312
21
2.5629935215
31
0.0
0
LINE
5
305
100
AcDbEntity
100
AcDbLine
8
3
62
256
370
-1
6
ByLayer
10
55.0097891312
20
2.5629935215
30
0.0
11
58.4176618364
21
2.1852399266
31
0.0
0
LINE
5
306
100
AcDbEntity
100
AcDbLine
8
3
62
256
370
-1
6
ByLayer
10
58.4176618364
20
2.1852399266
30
0.0
11
61.8382009247
21
1.8372816552
31
0.0
0
LINE
5
307
100
AcDbEntity
100
AcDbLine
8
3
62
256
370
-1
6
ByLayer
10
61.8382009247
20
1.8372816552
30
0.0
11
65.2703644666
21
1.5192246988
31
0.0
0
LINE
5
308
100
AcDbEntity
100
AcDbLine
8
3
62
256
370
-1
6
ByLayer
10
65.2703644666
20
1.5192246988
30
0.0
11
68.713106992
21
1.2311659405
31
0.0
0
LINE
5
309
100
AcDbEntity
100
AcDbLine
8
3
62
256
370
-1
6
ByLayer
10
68.713106992
20
1.2311659405
30
0.0
11
72.165379808
21
0.9731931258
31
0.0
0
LINE
5
310
100
AcDbEntity
100
AcDbLine
8
3
62
256
370
-1
6
ByLayer
10
72.165379808
20
0.9731931258
30
0.0
11
75.626131319
21
0.7453848359
31
0.0
0
LINE
5
311
100
AcDbEntity
100
AcDbLine
8
3
62
256
370
-1
6
ByLayer
10
75.626131319
20
0.7453848359
30
0.0
11
79.0943073465
21
0.5478104632
31
0.0
0
LINE
5
312
100
AcDbEntity
100
AcDbLine
8
3
62
256
370
-1
6
ByLayer
10
79.0943073465
20
0.5478104632
30
0.0
11
82.5688514505
21
0.3805301908
31
0.0
0
LINE
5
313
100
AcDbEntity
100
AcDbLine
8
3
62
256
370
-1
6
ByLayer
10
82.5688514505
20
0.3805301908
30
0.0
11
86.0487052512
21
0.243594974
31
0.0
0
LINE
5
314
100
AcDbEntity
100
AcDbLine
8
3
62
256
370
-1
6
ByLayer
10
86.0487052512
20
0.243594974
30
0.0
11
89.5328087514
21
0.1370465245
31
0.0
0
LINE
5
315
100
AcDbEntity
100
AcDbLine
8
3
62
256
370
-1
6
ByLayer
10
89.5328087514
20
0.1370465245
30
0.0
11
93.0201006595
21
0.0609172981
31
0.0
0
LINE
5
316
100
AcDbEntity
100
AcDbLine
8
3
62
256
370
-1
6
ByLayer
10
93.0201006595
20
0.0609172981
30
0.0
11
96.5095187125
21
0.0152304844
31
0.0
0
LINE
5
317
100
AcDbEntity
100
AcDbLine
8
3
62
256
370
-1
6
ByLayer
10
96.5095187125
20
0.0152304844
30
0.0
11
100.0
21
0.0
31
0.0
0
LINE
5
318
100
AcDbEntity
100
AcDbLine
8
3
62
256
370
-1
6
ByLayer
10
100.0
20
0.0
30
0.0
11
103.490481287
21
0.0152304844
31
0.0
0
LINE
5
319
100
AcDbEntity
100
AcDbLine
8
3
62
256
370
-1
6
ByLayer
10
103.490481287
20
0.0152304844
30
0.0
11
106.97989934
21
0.0609172981
31
0.0
0
LINE
5
320
100
AcDbEntity
100
AcDbLine
8
3
62
256
370
-1
6
ByLayer
10
106.97989934
20
0.0609172981
30
0.0
11
110.467191249
21
0.1370465245
31
0.0
0
LINE
5
321
100
AcDbEntity
100
AcDbLine
8
3
62
256
370
-1
6
ByLayer
10
110.467191249
20
0.1370465245
30
0.0
11
113.951294749
21
0.243594974
31
0.0
0
LINE
5
322
100
AcDbEntity
100
AcDbLine
8
3
62
256
370
-1
6
ByLayer
10
113.951294749
20
0.243594974
30
0.0
11
117.431148549
21
0.3805301908
31
0.0
0
LINE
5
323
100
AcDbEntity
100
AcDbLine
8
3
62
256
370
-1
6
ByLayer
10
117.431148549
20
0.3805301908
30
0.0
11
120.905692653
21
0.5478104632
31
0.0
0
LINE
5
324
100
AcDbEntity
100
AcDbLine
8
3
62
256
370
-1
6
ByLayer
10
120.905692653
20
0.5478104632
30
0.0
11
124.373868681
21
0.7453848359
31
0.0
0
LINE
5
325
100
AcDbEntity
100
AcDbLine
8
3
62
256
370
-1
6
ByLayer
10
124.373868681
20
0.7453848359
30
0.0
11
127.834620192
21
0.9731931258
31
0.0
0
LINE
5
326
100
AcDbEntity
100
AcDbLine
8
3
62
256
370
-1
6
ByLayer
10
127.834620192
20
0.9731931258
30
0.0
11
131.286893008
21
1.2311659405
31
0.0
0
LINE
5
327
100
AcDbEntity
100
AcDbLine
8
3
62
256
370
-1
6
ByLayer
10
131.286893008
20
1.2311659405
30
0.0
11
134.729635533
21
1.5192246988
31
0.0
0
LINE
5
328
100
AcDbEntity
100
AcDbLine
8
3
62
256
370
-1
6
ByLayer
10
134.729635533
20
1.5192246988
30
0.0
11
138.161799075
21
1.8372816552
31
0.0
0
LINE
5
329
100
AcDbEntity
100
AcDbLine
8
3
62
256
370
-1
6
ByLayer
10
138.161799075
20
1.8372816552
30
0.0
11
141.582338164
21
2.1852399266
31
0.0
0
LINE
5
330
100
AcDbEntity
100
AcDbLine
8
3
62
256
370
-1
6
ByLayer
10
141.582338164
20
2.1852399266
30
0.0
11
144.990210869
21
2.5629935215
31
0.0
0
LINE
5
331
100
AcDbEntity
100
AcDbLine
8
3
62
256
370
-1
6
ByLayer
10
144.990210869
20
2.5629935215
30
0.0
11
148.38437912
21
2.9704273724
31
0.0
0
LINE
5
332
100
AcDbEntity
100
AcDbLine
8
3
62
256
370
-1
6
ByLayer
10
148.38437912
20
2.9704273724
30
0.0
11
151.76380902
21
3.4074173711
31
0.0
0
LINE
5
333
100
AcDbEntity
100
AcDbLine
8
3
62
256
370
-1
6
ByLayer
10
151.76380902
20
3.4074173711
30
0.0
11
155.127471163
21
3.8738304062
31
0.0
0
LINE
5
334
100
AcDbEntity
100
AcDbLine
8
3
62
256
370
-1
6
ByLayer
10
155.127471163
20
3.8738304062
30
0.0
11
158.474340944
21
4.3695244037
31
0.0
0
LINE
5
335
100
AcDbEntity
100
AcDbLine
8
3
62
256
370
-1
6
ByLayer
10
158.474340944
20
4.3695244037
30
0.0
11
161.803398875
21
4.8943483705
31
0.0
0
LINE
5
336
100
AcDbEntity
100
AcDbLine
8
3
62
256
370
-1
6
ByLayer
10
161.803398875
20
4.8943483705
30
0.0
11
165.113630891
21
5.4481424401
31
0.0
0
LINE
5
337
100
AcDbEntity
100
AcDbLine
8
3
62
256
370
-1
6
ByLayer
10
165.113630891
20
5.4481424401
30
0.0
11
168.404028665
21
6.0307379214
31
0.0
0
LINE
5
338
100
AcDbEntity
100
AcDbLine
8
3
62
256
370
-1
6
ByLayer
10
168.404028665
20
6.0307379214
30
0.0
11
171.673589909
21
6.6419573503
31
0.0
0
LINE
5
339
100
AcDbEntity
100
AcDbLine
8
3
62
256
370
-1
6
ByLayer
10
171.673589909
20
6.6419573503
30
0.0
11
174.921318683
21
7.2816145433
31
0.0
0
LINE
5
340
100
AcDbEntity
100
AcDbLine
8
3
62
256
370
-1
6
ByLayer
10
174.921318683
20
7.2816145433
30
0.0
11
178.146225698
21
7.9495146548
31
0.0
0
LINE
5
341
100
AcDbEntity
100
AcDbLine
8
3
62
256
370
-1
6
ByLayer
10
178.146225698
20
7.9495146548
30
0.0
11
181.347328615
21
8.6454542357
31
0.0
0
LINE
5
342
100
AcDbEntity
100
AcDbLine
8
3
62
256
370
-1
6
ByLayer
10
181.347328615
20
8.6454542357
30
0.0
11
184.523652348
21
9.3692212963
31
0.0
0
LINE
5
343
100
AcDbEntity
100
AcDbLine
8
3
62
256
370
-1
6
ByLayer
10
184.523652348
20
9.3692212963
30
0.0
11
187.674229358
21
10.1205953701
31
0.0
0
LINE
5
344
100
AcDbEntity
100
AcDbLine
8
3
62
256
370
-1
6
ByLayer
10
187.674229358
20
10.1205953701
30
0.0
11
190.798099948
21
10.8993475812
31
0.0
0
LINE
5
345
100
AcDbEntity
100
AcDbLine
8
3
62
256
370
-1
6
ByLayer
10
190.798099948
20
10.8993475812
30
0.0
11
193.894312557
21
11.7052407141
31
0.0
0
LINE
5
346
100
AcDbEntity
100
AcDbLine
8
3
62
256
370
-1
6
ByLayer
10
193.894312557
20
11.7052407141
30
0.0
11
196.961924049
21
12.5380292861
31
0.0
0
LINE
5
347
100
AcDbEntity
100
AcDbLine
8
3
62
256
370
-1
6
ByLayer
10
196.961924049
20
12.5380292861
30
0.0
11
200.0
21
13.3974596216
31
0.0
0
LINE
5
348
100
AcDbEntity
100
AcDbLine
8
3
62
256
370
-1
6
ByLayer
10
200.0
20
13.3974596216
30
0.0
11
203.007614982
21
14.2832699298
31
0.0
0
LINE
5
349
100
AcDbEntity
100
AcDbLine
8
3
62
256
370
-1
6
ByLayer
10
203.007614982
20
14.2832699298
30
0.0
11
205.983852847
21
15.1951903844
31
0.0
0
LINE
5
350
100
AcDbEntity
100
AcDbLine
8
3
62
256
370
-1
6
ByLayer
10
205.983852847
20
15.1951903844
30
0.0
11
208.927807003
21
16.1329432055
31
0.0
0
LINE
5
351
100
AcDbEntity
100
AcDbLine
8
3
62
256
370
-1
6
ByLayer
10
208.927807003
20
16.1329432055
30
0.0
11
211.838580694
21
17.0962427445
31
0.0
0
LINE
5
352
100
AcDbEntity
100
AcDbLine
8
3
62
256
370
-1
6
ByLayer
10
211.838580694
20
17.0962427445
30
0.0
11
214.71528727
21
18.0847955711
31
0.0
0
LINE
5
353
100
AcDbEntity
100
AcDbLine
8
3
62
256
370
-1
6
ByLayer
10
214.71528727
20
18.0847955711
30
0.0
11
217.557050458
21
19.0983005625
31
0.0
0
LINE
5
354
100
AcDbEntity
100
AcDbLine
8
3
62
256
370
-1
6
ByLayer
10
217.557050458
20
19.0983005625
30
0.0
11
220.36300463
21
20.1364489953
31
0.0
0
LINE
5
355
100
AcDbEntity
100
AcDbLine
8
3
62
256
370
-1
6
ByLayer
10
220.36300463
20
20.1364489953
30
0.0
11
223.132295065
21
21.1989246393
31
0.0
0
LINE
5
356
100
AcDbEntity
100
AcDbLine
8
3
62
256
370
-1
6
ByLayer
10
223.132295065
20
21.1989246393
30
0.0
11
225.86407821
21
22.2854038543
31
0.0
0
LINE
5
357
100
AcDbEntity
100
AcDbLine
8
3
62
256
370
-1
6
ByLayer
10
225.86407821
20
22.2854038543
30
0.0
11
228.557521937
21
23.3955556881
31
0.0
0
LINE
5
358
100
AcDbEntity
100
AcDbLine
8
3
62
256
370
-1
6
ByLayer
10
228.557521937
20
23.3955556881
30
0.0
11
231.211805798
21
24.5290419777
31
0.0
0
LINE
5
359
100
AcDbEntity
100
AcDbLine
8
3
62
256
370
-1
6
ByLayer
10
231.211805798
20
24.5290419777
30
0.0
11
233.826121272
21
25.6855174523
31
0.0
0
LINE
5
360
100
AcDbEntity
100
AcDbLine
8
3
62
256
370
-1
6
ByLayer
10
233.826121272
20
25.6855174523
30
0.0
11
236.399672012
21
26.8646298381
31
0.0
0
LINE
5
361
100
AcDbEntity
100
AcDbLine
8
3
62
256
370
-1
6
ByLayer
10
236.399672012
20
26.8646298381
30
0.0
11
238.931674092
21
28.0660199661
31
0.0
0
LINE
5
362
100
AcDbEntity
100
AcDbLine
8
3
62
256
370
-1
6
ByLayer
10
238.931674092
20
28.0660199661
30
0.0
11
241.421356237
21
29.2893218813
31
0.0
0
LINE
5
363
100
AcDbEntity
100
AcDbLine
8
3
62
256
370
-1
6
ByLayer
10
241.421356237
20
29.2893218813
30
0.0
11
243.867960068
21
30.5341629541
31
0.0
0
LINE
5
364
100
AcDbEntity
100
AcDbLine
8
3
62
256
370
-1
6
ByLayer
10
243.867960068
20
30.5341629541
30
0.0
11
246.270740324
21
31.8001639938
31
0.0
0
LINE
5
365
100
AcDbEntity
100
AcDbLine
8
3
62
256
370
-1
6
ByLayer
10
246.270740324
20
31.8001639938
30
0.0
11
248.628965095
21
33.0869393641
31
0.0
0
LINE
5
366
100
AcDbEntity
100
AcDbLine
8
3
62
256
370
-1
6
ByLayer
10
248.628965095
20
33.0869393641
30
0.0
11
250.941916045
21
34.3940971009
31
0.0
0
LINE
5
367
100
AcDbEntity
100
AcDbLine
8
3
62
256
370
-1
6
ByLayer
10
250.941916045
20
34.3940971009
30
0.0
11
253.208888624
21
35.7212390313
31
0.0
0
LINE
5
368
100
AcDbEntity
100
AcDbLine
8
3
62
256
370
-1
6
ByLayer
10
253.208888624
20
35.7212390313
30
0.0
11
255.429192291
21
37.067960895
31
0.0
0
LINE
5
369
100
AcDbEntity
100
AcDbLine
8
3
62
256
370
-1
6
ByLayer
10
255.429192291
20
37.067960895
30
0.0
11
257.602150721
21
38.4338524674
31
0.0
0
LINE
5
370
100
AcDbEntity
100
AcDbLine
8
3
62
256
370
-1
6
ByLayer
10
257.602150721
20
38.4338524674
30
0.0
11
259.727102009
21
39.8184976848
31
0.0
0
LINE
5
371
100
AcDbEntity
100
AcDbLine
8
3
62
256
370
-1
6
ByLayer
10
259.727102009
20
39.8184976848
30
0.0
11
261.803398875
21
41.2214747708
31
0.0
0
LINE
5
372
100
AcDbEntity
100
AcDbLine
8
3
62
256
370
-1
6
ByLayer
10
261.803398875
20
41.2214747708
30
0.0
11
263.830408858
21
42.6423563649
31
0.0
0
LINE
5
373
100
AcDbEntity
100
AcDbLine
8
3
62
256
370
-1
6
ByLayer
10
263.830408858
20
42.6423563649
30
0.0
11
265.807514511
21
44.0807096529
31
0.0
0
LINE
5
374
100
AcDbEntity
100
AcDbLine
8
3
62
256
370
-1
6
ByLayer
10
265.807514511
20
44.0807096529
30
0.0
11
267.734113589
21
45.5360964985
31
0.0
0
LINE
5
375
100
AcDbEntity
100
AcDbLine
8
3
62
256
370
-1
6
ByLayer
10
267.734113589
20
45.5360964985
30
0.0
11
269.609619231
21
47.0080735767
31
0.0
0
LINE
5
376
100
AcDbEntity
100
AcDbLine
8
3
62
256
370
-1
6
ByLayer
10
269.609619231
20
47.0080735767
30
0.0
11
271.43346014
21
48.496192509
31
0.0
0
LINE
5
377
100
AcDbEntity
100
AcDbLine
8
3
62
256
370
-1
6
ByLayer
10
271.43346014
20
48.496192509
30
0.0
11
273.205080757
21
50.0
31
0.0
0
LINE
5
378
100
AcDbEntity
100
AcDbLine
8
3
62
256
370
-1
6
ByLayer
10
273.205080757
20
50.0
30
0.0
11
274.923941428
21
51.5190379754
31
0.0
0
LINE
5
379
100
AcDbEntity
100
AcDbLine
8
3
62
256
370
-1
6
ByLayer
10
274.923941428
20
51.5190379754
30
0.0
11
276.589518572
21
53.0528437214
31
0.0
0
LINE
5
380
100
AcDbEntity
100
AcDbLine
8
3
62
256
370
-1
6
ByLayer
10
276.589518572
20
53.0528437214
30
0.0
11
278.201304838
21
54.600950026
31
0.0
0
LINE
5
381
100
AcDbEntity
100
AcDbLine
8
3
62
256
370
-1
6
ByLayer
10
278.201304838
20
54.600950026
30
0.0
11
279.75880926
21
56.1628853211
31
0.0
0
LINE
5
382
100
AcDbEntity
100
AcDbLine
8
3
62
256
370
-1
6
ByLayer
10
279.75880926
20
56.1628853211
30
0.0
11
281.261557407
21
57.7381738259
31
0.0
0
LINE
5
383
100
AcDbEntity
100
AcDbLine
8
3
62
256
370
-1
6
ByLayer
10
281.261557407
20
57.7381738259
30
0.0
11
282.709091529
21
59.3263356924
31
0.0
0
LINE
5
384
100
AcDbEntity
100
AcDbLine
8
3
62
256
370
-1
6
ByLayer
10
282.709091529
20
59.3263356924
30
0.0
11
284.10097069
21
60.9268871511
31
0.0
0
LINE
5
385
100
AcDbEntity
100
AcDbLine
8
3
62
256
370
-1
6
ByLayer
10
284.10097069
20
60.9268871511
30
0.0
11
285.436770913
21
62.5393406584
31
0.0
0
LINE
5
386
100
AcDbEntity
100
AcDbLine
8
3
62
256
370
-1
6
ByLayer
10
285.436770913
20
62.5393406584
30
0.0
11
286.716085299
21
64.1632050455
31
0.0
0
LINE
5
387
100
AcDbEntity
100
AcDbLine
8
3
62
256
370
-1
6
ByLayer
10
286.716085299
20
64.1632050455
30
0.0
11
287.938524157
21
65.7979856674
31
0.0
0
LINE
5
388
100
AcDbEntity
100
AcDbLine
8
3
62
256
370
-1
6
ByLayer
10
287.938524157
20
65.7979856674
30
0.0
11
289.10371512
21
67.4431845543
31
0.0
0
LINE
5
389
100
AcDbEntity
100
AcDbLine
8
3
62
256
370
-1
6
ByLayer
10
289.10371512
20
67.4431845543
30
0.0
11
290.211303259
21
69.0983005625
31
0.0
0
LINE
5
390
100
AcDbEntity
100
AcDbLine
8
3
62
256
370
-1
6
ByLayer
10
290.211303259
20
69.0983005625
30
0.0
11
291.260951193
21
70.7628295277
31
0.0
0
LINE
5
391
100
AcDbEntity
100
AcDbLine
8
3
62
256
370
-1
6
ByLayer
10
291.260951193
20
70.7628295277
30
0.0
11
292.252339188
21
72.4362644183
31
0.0
0
LINE
5
392
100
AcDbEntity
100
AcDbLine
8
3
62
256
370
-1
6
ByLayer
10
292.252339188
20
72.4362644183
30
0.0
11
293.185165258
21
74.1180954897
31
0.0
0
LINE
5
393
100
AcDbEntity
100
AcDbLine
8
3
62
256
370
-1
6
ByLayer
10
293.185165258
20
74.1180954897
30
0.0
11
294.059145255
21
75.80781044
31
0.0
0
LINE
5
394
100
AcDbEntity
100
AcDbLine
8
3
62
256
370
-1
6
ByLayer
10
294.059145255
20
75.80781044
30
0.0
11
294.874012957
21
77.5048945656
31
0.0
0
LINE
5
395
100
AcDbEntity
100
AcDbLine
8
3
62
256
370
-1
6
ByLayer
10
294.874012957
20
77.5048945656
30
0.0
11
295.629520147
21
79.2088309182
31
0.0
0
LINE
5
396
100
AcDbEntity
100
AcDbLine
8
3
62
256
370
-1
6
ByLayer
10
295.629520147
20
79.2088309182
30
0.0
11
296.32543669
21
80.9191004623
31
0.0
0
LINE
5
397
100
AcDbEntity
100
AcDbLine
8
3
62
256
370
-1
6
ByLayer
10
296.32543669
20
80.9191004623
30
0.0
11
296.961550602
21
82.6351822333
31
0.0
0
LINE
5
398
100
AcDbEntity
100
AcDbLine
8
3
62
256
370
-1
6
ByLayer
10
296.961550602
20
82.6351822333
30
0.0
11
297.537668119
21
84.356553496
31
0.0
0
LINE
5
399
100
AcDbEntity
100
AcDbLine
8
3
62
256
370
-1
6
ByLayer
10
297.537668119
20
84.356553496
30
0.0
11
298.053613748
21
86.082689904
31
0.0
0
LINE
5
400
100
AcDbEntity
100
AcDbLine
8
3
62
256
370
-1
6
ByLayer
10
298.053613748
20
86.082689904
30
0.0
11
298.509230328
21
87.8130656595
31
0.0
0
LINE
5
401
100
AcDbEntity
100
AcDbLine
8
3
62
256
370
-1
6
ByLayer
10
298.509230328
20
87.8130656595
30
0.0
11
298.904379074
21
89.5471536732
31
0.0
0
LINE
5
402
100
AcDbEntity
100
AcDbLine
8
3
62
256
370
-1
6
ByLayer
10
298.904379074
20
89.5471536732
30
0.0
11
299.238939618
21
91.2844257252
31
0.0
0
LINE
5
403
100
AcDbEntity
100
AcDbLine
8
3
62
256
370
-1
6
ByLayer
10
299.238939618
20
91.2844257252
30
0.0
11
299.512810052
21
93.0243526256
31
0.0
0
LINE
5
404
100
AcDbEntity
100
AcDbLine
8
3
62
256
370
-1
6
ByLayer
10
299.512810052
20
93.0243526256
30
0.0
11
299.725906951
21
94.7664043757
31
0.0
0
LINE
5
405
100
AcDbEntity
100
AcDbLine
8
3
62
256
370
-1
6
ByLayer
10
299.725906951
20
94.7664043757
30
0.0
11
299.878165404
21
96.5100503298
31
0.0
0
LINE
5
406
100
AcDbEntity
100
AcDbLine
8
3
62
256
370
-1
6
ByLayer
10
299.878165404
20
96.5100503298
30
0.0
11
299.969539031
21
98.2547593563
31
0.0
0
LINE
5
407
100
AcDbEntity
100
AcDbLine
8
3
62
256
370
-1
6
ByLayer
10
299.969539031
20
98.2547593563
30
0.0
11
300.0
21
100.0
31
0.0
0
MTEXT
5
408
100
AcDbEntity
100
AcDbMText
8
3
62
256
370
-1
6
ByLayer
10
100.0
20
-5.0
30
0.0
40
1
41
100.0
71
8
72
0
1
Eclipse
7
normallatin1
50
0.0
73
1
44
1.0
0
ENDSEC
  0
SECTION
  2
OBJECTS
  0
DICTIONARY
  5
C
100
AcDbDictionary
280
0
281
1
  3
ACAD_GROUP
350
D
  3
ACAD_LAYOUT
350
1A
  3
ACAD_MLINESTYLE
350
17
  3
ACAD_PLOTSETTINGS
350
19
  3
ACAD_PLOTSTYLENAME
350
E
  3
AcDbVariableDictionary
350
48
  0
DICTIONARY
  5
D
100
AcDbDictionary
280
0
281
1
  0
ACDBDICTIONARYWDFLT
  5
E
100
AcDbDictionary
281
1
  3
Normal
350
F
100
AcDbDictionaryWithDefault
340
F
  0
ACDBPLACEHOLDER
  5
F
  0
DICTIONARY
  5
17
100
AcDbDictionary
280
0
281
1
  3
Standard
350
18
  0
MLINESTYLE
  5
18
100
AcDbMlineStyle
  2
STANDARD
 70
0
  3

 62
256
 51
90.0
 52
90.0
 71
2
 49
0.5
 62
256
  6
BYLAYER
 49
-0.5
 62
256
  6
BYLAYER
  0
DICTIONARY
  5
19
100
AcDbDictionary
280
0
281
1
  0
DICTIONARY
  5
1A
100
AcDbDictionary
281
1
  3
Layout1
350
1E
  3
Layout2
350
26
  3
Model
350
22
  0
LAYOUT
  5
1E
100
AcDbPlotSettings
  1

  2
C:\Program Files\AutoCAD 2002\plotters\DWF ePlot (optimized for plotting).pc3
  4

  6

 40
0.0
 41
0.0
 42
0.0
 43
0.0
 44
0.0
 45
0.0
 46
0.0
 47
0.0
 48
0.0
 49
0.0
140
0.0
141
0.0
142
1.0
143
1.0
 70
688
 72
0
 73
0
 74
5
  7

 75
16
147
1.0
148
0.0
149
0.0
100
AcDbLayout
  1
Layout1
 70
1
 71
1
 10
0.0
 20
0.0
 11
420.0
 21
297.0
 12
0.0
 22
0.0
 32
0.0
 14
100000000000000000000.0
 24
100000000000000000000.0
 34
100000000000000000000.0
 15
-100000000000000000000.0
 25
-100000000000000000000.0
 35
-100000000000000000000.0
146
0.0
 13
0.0
 23
0.0
 33
0.0
 16
1.0
 26
0.0
 36
0.0
 17
0.0
 27
1.0
 37
0.0
 76
0
330
1B
  0
LAYOUT
  5
22
100
AcDbPlotSettings
  1

  2
C:\Program Files\AutoCAD 2002\plotters\DWF ePlot (optimized for plotting).pc3
  4

  6

 40
0.0
 41
0.0
 42
0.0
 43
0.0
 44
0.0
 45
0.0
 46
0.0
 47
0.0
 48
0.0
 49
0.0
140
0.0
141
0.0
142
1.0
143
1.0
 70
1712
 72
0
 73
0
 74
0
  7

 75
0
147
1.0
148
0.0
149
0.0
100
AcDbLayout
  1
Model
 70
1
 71
0
 10
0.0
 20
0.0
 11
12.0
 21
9.0
 12
0.0
 22
0.0
 32
0.0
 14
0.0
 24
0.0
 34
0.0
 15
0.0
 25
0.0
 35
0.0
146
0.0
 13
0.0
 23
0.0
 33
0.0
 16
1.0
 26
0.0
 36
0.0
 17
0.0
 27
1.0
 37
0.0
 76
0
330
1F
  0
LAYOUT
  5
26
100
AcDbPlotSettings
  1

  2
C:\Program Files\AutoCAD 2002\plotters\DWF ePlot (optimized for plotting).pc3
  4

  6

 40
0.0
 41
0.0
 42
0.0
 43
0.0
 44
0.0
 45
0.0
 46
0.0
 47
0.0
 48
0.0
 49
0.0
140
0.0
141
0.0
142
1.0
143
1.0
 70
688
 72
0
 73
0
 74
5
  7

 75
16
147
1.0
148
0.0
149
0.0
100
AcDbLayout
  1
Layout2
 70
1
 71
2
 10
0.0
 20
0.0
 11
12.0
 21
9.0
 12
0.0
 22
0.0
 32
0.0
 14
0.0
 24
0.0
 34
0.0
 15
0.0
 25
0.0
 35
0.0
146
0.0
 13
0.0
 23
0.0
 33
0.0
 16
1.0
 26
0.0
 36
0.0
 17
0.0
 27
1.0
 37
0.0
 76
0
330
23
  0
DICTIONARY
  5
48
100
AcDbDictionary
281
1
  3
DIMASSOC
350
4A
  3
HIDETEXT
350
49
  0
DICTIONARYVAR
  5
49
100
DictionaryVariables
280
0
  1
2
  0
DICTIONARYVAR
  5
4A
100
DictionaryVariables
280
0
  1
1
  0
ENDSEC
  0
EOF
