999
dxflib 2.0.4.8
  0
SECTION
  2
HEADER
  9
$ACADVER
  1
AC1015
  9
$HANDSEED
  5
FFFF
  9
$DIMASZ
 40
2.5
  9
$DIMGAP
 40
0.625
  9
$DIMEXO
 40
0.625
  9
$INSUNITS
 70
4
  9
$DIMTXT
 40
2.5
  9
$PLIMMAX
 10
210.0
 20
297.0
  9
$PLIMMIN
 10
0.0
 20
0.0
  9
$DIMEXE
 40
1.25
  0
ENDSEC
  0
SECTION
  2
TABLES
  0
TABLE
  2
VPORT
  5
8
100
AcDbSymbolTable
 70
1
  0
VPORT
  5
30
100
AcDbSymbolTableRecord
100
AcDbViewportTableRecord
  2
*Active
 70
0
 10
0.0
 20
0.0
 11
1.0
 21
1.0
 12
286.3055555555554861
 22
148.5
 13
0.0
 23
0.0
 14
10.0
 24
10.0
 15
10.0
 25
10.0
 16
0.0
 26
0.0
 36
1.0
 17
0.0
 27
0.0
 37
0.0
 40
297.0
 41
1.92798353909465
 42
50.0
 43
0.0
 44
0.0
 50
0.0
 51
0.0
 71
0
 72
100
 73
1
 74
3
 75
1
 76
1
 77
0
 78
0
281
0
 65
1
110
0.0
120
0.0
130
0.0
111
1.0
121
0.0
131
0.0
112
0.0
122
1.0
132
0.0
 79
0
146
0.0
  0
ENDTAB
  0
TABLE
  2
LTYPE
  5
5
100
AcDbSymbolTable
 70
21
  0
LTYPE
  5
14
100
AcDbSymbolTableRecord
100
AcDbLinetypeTableRecord
  2
ByBlock
 70
0
  3

 72
65
 73
0
 40
0.0
  0
LTYPE
  5
15
100
AcDbSymbolTableRecord
100
AcDbLinetypeTableRecord
  2
ByLayer
 70
0
  3

 72
65
 73
0
 40
0.0
  0
LTYPE
  5
16
100
AcDbSymbolTableRecord
100
AcDbLinetypeTableRecord
  2
CONTINUOUS
 70
0
  3
Solid line
 72
65
 73
0
 40
0.0
  0
LTYPE
  5
31
100
AcDbSymbolTableRecord
100
AcDbLinetypeTableRecord
  2
DOT
 70
0
  3
Dot . . . . . . . . . . . . . . . . . . . . . .
 72
65
 73
2
 40
6.3499999999999996
 49
0.0
 74
0
 49
-6.3499999999999996
 74
0
  0
LTYPE
  5
32
100
AcDbSymbolTableRecord
100
AcDbLinetypeTableRecord
  2
DOT2
 70
0
  3
Dot (.5x) .....................................
 72
65
 73
2
 40
3.1749999999999998
 49
0.0
 74
0
 49
-3.1749999999999998
 74
0
  0
LTYPE
  5
33
100
AcDbSymbolTableRecord
100
AcDbLinetypeTableRecord
  2
DOTX2
 70
0
  3
Dot (2x) .  .  .  .  .  .  .  .  .  .  .  .  .
 72
65
 73
2
 40
12.6999999999999993
 49
0.0
 74
0
 49
-12.6999999999999993
 74
0
  0
LTYPE
  5
34
100
AcDbSymbolTableRecord
100
AcDbLinetypeTableRecord
  2
DASHED
 70
0
  3
Dashed __ __ __ __ __ __ __ __ __ __ __ __ __ _
 72
65
 73
2
 40
19.0500000000000007
 49
12.6999999999999993
 74
0
 49
-6.3499999999999996
 74
0
  0
LTYPE
  5
35
100
AcDbSymbolTableRecord
100
AcDbLinetypeTableRecord
  2
DASHED2
 70
0
  3
Dashed (.5x) _ _ _ _ _ _ _ _ _ _ _ _ _ _ _ _ _
 72
65
 73
2
 40
9.5250000000000004
 49
6.3499999999999996
 74
0
 49
-3.1749999999999998
 74
0
  0
LTYPE
  5
36
100
AcDbSymbolTableRecord
100
AcDbLinetypeTableRecord
  2
DASHEDX2
 70
0
  3
Dashed (2x) ____  ____  ____  ____  ____  ___
 72
65
 73
2
 40
38.1000000000000014
 49
25.3999999999999986
 74
0
 49
-12.6999999999999993
 74
0
  0
LTYPE
  5
37
100
AcDbSymbolTableRecord
100
AcDbLinetypeTableRecord
  2
DASHDOT
 70
0
  3
Dash dot __ . __ . __ . __ . __ . __ . __ . __
 72
65
 73
4
 40
25.3999999999999986
 49
12.6999999999999993
 74
0
 49
-6.3499999999999996
 74
0
 49
0.0
 74
0
 49
-6.3499999999999996
 74
0
  0
LTYPE
  5
38
100
AcDbSymbolTableRecord
100
AcDbLinetypeTableRecord
  2
DASHDOT2
 70
0
  3
Dash dot (.5x) _._._._._._._._._._._._._._._.
 72
65
 73
4
 40
12.6999999999999993
 49
6.3499999999999996
 74
0
 49
-3.1749999999999998
 74
0
 49
0.0
 74
0
 49
-3.1749999999999998
 74
0
  0
LTYPE
  5
39
100
AcDbSymbolTableRecord
100
AcDbLinetypeTableRecord
  2
DASHDOTX2
 70
0
  3
Dash dot (2x) ____  .  ____  .  ____  .  ___
 72
65
 73
4
 40
50.7999999999999972
 49
25.3999999999999986
 74
0
 49
-12.6999999999999993
 74
0
 49
0.0
 74
0
 49
-12.6999999999999993
 74
0
  0
LTYPE
  5
3A
100
AcDbSymbolTableRecord
100
AcDbLinetypeTableRecord
  2
DIVIDE
 70
0
  3
Divide ____ . . ____ . . ____ . . ____ . . ____
 72
65
 73
6
 40
31.75
 49
12.6999999999999993
 74
0
 49
-6.3499999999999996
 74
0
 49
0.0
 74
0
 49
-6.3499999999999996
 74
0
 49
0.0
 74
0
 49
-6.3499999999999996
 74
0
  0
LTYPE
  5
3B
100
AcDbSymbolTableRecord
100
AcDbLinetypeTableRecord
  2
DIVIDE2
 70
0
  3
Divide (.5x) __..__..__..__..__..__..__..__.._
 72
65
 73
6
 40
15.875
 49
6.3499999999999996
 74
0
 49
-3.1749999999999998
 74
0
 49
0.0
 74
0
 49
-3.1749999999999998
 74
0
 49
0.0
 74
0
 49
-3.1749999999999998
 74
0
  0
LTYPE
  5
3C
100
AcDbSymbolTableRecord
100
AcDbLinetypeTableRecord
  2
DIVIDEX2
 70
0
  3
Divide (2x) ________  .  .  ________  .  .  _
 72
65
 73
6
 40
63.5
 49
25.3999999999999986
 74
0
 49
-12.6999999999999993
 74
0
 49
0.0
 74
0
 49
-12.6999999999999993
 74
0
 49
0.0
 74
0
 49
-12.6999999999999993
 74
0
  0
LTYPE
  5
3D
100
AcDbSymbolTableRecord
100
AcDbLinetypeTableRecord
  2
CENTER
 70
0
  3
Center ____ _ ____ _ ____ _ ____ _ ____ _ ____
 72
65
 73
4
 40
50.7999999999999972
 49
31.75
 74
0
 49
-6.3499999999999996
 74
0
 49
6.3499999999999996
 74
0
 49
-6.3499999999999996
 74
0
  0
LTYPE
  5
3E
100
AcDbSymbolTableRecord
100
AcDbLinetypeTableRecord
  2
CENTER2
 70
0
  3
Center (.5x) ___ _ ___ _ ___ _ ___ _ ___ _ ___
 72
65
 73
4
 40
28.5749999999999993
 49
19.0500000000000007
 74
0
 49
-3.1749999999999998
 74
0
 49
3.1749999999999998
 74
0
 49
-3.1749999999999998
 74
0
  0
LTYPE
  5
3F
100
AcDbSymbolTableRecord
100
AcDbLinetypeTableRecord
  2
CENTERX2
 70
0
  3
Center (2x) ________  __  ________  __  _____
 72
65
 73
4
 40
101.5999999999999943
 49
63.5
 74
0
 49
-12.6999999999999993
 74
0
 49
12.6999999999999993
 74
0
 49
-12.6999999999999993
 74
0
  0
LTYPE
  5
40
100
AcDbSymbolTableRecord
100
AcDbLinetypeTableRecord
  2
BORDER
 70
0
  3
Border __ __ . __ __ . __ __ . __ __ . __ __ .
 72
65
 73
6
 40
44.4500000000000028
 49
12.6999999999999993
 74
0
 49
-6.3499999999999996
 74
0
 49
12.6999999999999993
 74
0
 49
-6.3499999999999996
 74
0
 49
0.0
 74
0
 49
-6.3499999999999996
 74
0
  0
LTYPE
  5
41
100
AcDbSymbolTableRecord
100
AcDbLinetypeTableRecord
  2
BORDER2
 70
0
  3
Border (.5x) __.__.__.__.__.__.__.__.__.__.__.
 72
65
 73
6
 40
22.2250000000000014
 49
6.3499999999999996
 74
0
 49
-3.1749999999999998
 74
0
 49
6.3499999999999996
 74
0
 49
-3.1749999999999998
 74
0
 49
0.0
 74
0
 49
-3.1749999999999998
 74
0
  0
LTYPE
  5
42
100
AcDbSymbolTableRecord
100
AcDbLinetypeTableRecord
  2
BORDERX2
 70
0
  3
Border (2x) ____  ____  .  ____  ____  .  ___
 72
65
 73
6
 40
88.9000000000000057
 49
25.3999999999999986
 74
0
 49
-12.6999999999999993
 74
0
 49
25.3999999999999986
 74
0
 49
-12.6999999999999993
 74
0
 49
0.0
 74
0
 49
-12.6999999999999993
 74
0
  0
ENDTAB
  0
TABLE
  2
LAYER
  5
2
100
AcDbSymbolTable
 70
6
  0
LAYER
  5
10
100
AcDbSymbolTableRecord
100
AcDbLayerTableRecord
  2
0
 70
0
 62
7
  6
CONTINUOUS
370
0
390
F
  0
LAYER
  5
43
100
AcDbSymbolTableRecord
100
AcDbLayerTableRecord
  2
1
 70
0
 62
6
  6
CONTINUOUS
370
0
390
F
  0
LAYER
  5
44
100
AcDbSymbolTableRecord
100
AcDbLayerTableRecord
  2
2
 70
0
 62
2
  6
CONTINUOUS
370
0
390
F
  0
LAYER
  5
45
100
AcDbSymbolTableRecord
100
AcDbLayerTableRecord
  2
3
 70
0
 62
3
  6
CONTINUOUS
370
0
390
F
  0
LAYER
  5
46
100
AcDbSymbolTableRecord
100
AcDbLayerTableRecord
  2
4
 70
0
 62
1
  6
CONTINUOUS
370
0
390
F
  0
LAYER
  5
47
100
AcDbSymbolTableRecord
100
AcDbLayerTableRecord
  2
5
 70
0
 62
5
  6
CONTINUOUS
370
0
390
F
  0
ENDTAB
  0
TABLE
  2
STYLE
  5
3
100
AcDbSymbolTable
 70
1
  0
STYLE
  5
11
100
AcDbSymbolTableRecord
100
AcDbTextStyleTableRecord
  2
Standard
 70
0
 40
0.0
 41
0.75
 50
0.0
 71
0
 42
2.5
  3
txt
  4

  0
ENDTAB
  0
TABLE
  2
VIEW
  5
6
100
AcDbSymbolTable
 70
0
  0
ENDTAB
  0
TABLE
  2
UCS
  5
7
100
AcDbSymbolTable
 70
0
  0
ENDTAB
  0
TABLE
  2
APPID
  5
9
100
AcDbSymbolTable
 70
1
  0
APPID
  5
12
100
AcDbSymbolTableRecord
100
AcDbRegAppTableRecord
  2
ACAD
 70
0
  0
ENDTAB
  0
TABLE
  2
DIMSTYLE
  5
A
100
AcDbSymbolTable
 70
1
100
AcDbDimStyleTable
 71
0
  0
DIMSTYLE
105
27
100
AcDbSymbolTableRecord
100
AcDbDimStyleTableRecord
  2
Standard
 41
2.5
 42
0.625
 43
3.75
 44
1.25
 70
0
 73
0
 74
0
 77
1
 78
8
140
2.5
141
2.5
143
0.03937007874016
147
0.625
171
3
172
1
271
2
272
2
274
3
278
44
283
0
284
8
340
11
  0
ENDTAB
  0
TABLE
  2
BLOCK_RECORD
  5
1
100
AcDbSymbolTable
 70
1
  0
BLOCK_RECORD
  5
1F
100
AcDbSymbolTableRecord
100
AcDbBlockTableRecord
  2
*Model_Space
340
22
  0
BLOCK_RECORD
  5
1B
100
AcDbSymbolTableRecord
100
AcDbBlockTableRecord
  2
*Paper_Space
340
1E
  0
BLOCK_RECORD
  5
23
100
AcDbSymbolTableRecord
100
AcDbBlockTableRecord
  2
*Paper_Space0
340
26
  0
ENDTAB
  0
ENDSEC
  0
SECTION
  2
BLOCKS
  0
BLOCK
  5
20
100
AcDbEntity
  8
0
100
AcDbBlockBegin
  2
*Model_Space
 70
0
 10
0.0
 20
0.0
 30
0.0
  3
*Model_Space
  1

  0
ENDBLK
  5
21
100
AcDbEntity
  8
0
100
AcDbBlockEnd
  0
BLOCK
  5
1C
100
AcDbEntity
 67
1
  8
0
100
AcDbBlockBegin
  2
*Paper_Space
 70
0
 10
0.0
 20
0.0
 30
0.0
  3
*Paper_Space
  1

  0
ENDBLK
  5
1D
100
AcDbEntity
 67
1
  8
0
100
AcDbBlockEnd
  0
BLOCK
  5
24
100
AcDbEntity
  8
0
100
AcDbBlockBegin
  2
*Paper_Space0
 70
0
 10
0.0
 20
0.0
 30
0.0
  3
*Paper_Space0
  1

  0
ENDBLK
  5
25
100
AcDbEntity
  8
0
100
AcDbBlockEnd
  0
ENDSEC
  0
SECTION
  2
ENTITIES
  0
LINE
5
48
100
AcDbEntity
100
AcDbLine
8
3
62
256
370
-1
6
ByLayer
10
102.0
20
100.0
30
0.0
11
102.002439664
21
100.034952714
31
0.0
0
LINE
5
49
100
AcDbEntity
100
AcDbLine
8
3
62
256
370
-1
6
ByLayer
10
102.002439664
20
100.034952714
30
0.0
11
102.009791502
21
100.070183466
31
0.0
0
LINE
5
50
100
AcDbEntity
100
AcDbLine
8
3
62
256
370
-1
6
ByLayer
10
102.009791502
20
100.070183466
30
0.0
11
102.022155155
21
100.105976661
31
0.0
0
LINE
5
51
100
AcDbEntity
100
AcDbLine
8
3
62
256
370
-1
6
ByLayer
10
102.022155155
20
100.105976661
30
0.0
11
102.039700449
21
100.14262975
31
0.0
0
LINE
5
52
100
AcDbEntity
100
AcDbLine
8
3
62
256
370
-1
6
ByLayer
10
102.039700449
20
100.14262975
30
0.0
11
102.062673284
21
100.180460529
31
0.0
0
LINE
5
53
100
AcDbEntity
100
AcDbLine
8
3
62
256
370
-1
6
ByLayer
10
102.062673284
20
100.180460529
30
0.0
11
102.091404408
21
100.219815461
31
0.0
0
LINE
5
54
100
AcDbEntity
100
AcDbLine
8
3
62
256
370
-1
6
ByLayer
10
102.091404408
20
100.219815461
30
0.0
11
102.126321683
21
100.261079474
31
0.0
0
LINE
5
55
100
AcDbEntity
100
AcDbLine
8
3
62
256
370
-1
6
ByLayer
10
102.126321683
20
100.261079474
30
0.0
11
102.167966707
21
100.304687851
31
0.0
0
LINE
5
56
100
AcDbEntity
100
AcDbLine
8
3
62
256
370
-1
6
ByLayer
10
102.167966707
20
100.304687851
30
0.0
11
102.217017079
21
100.351141009
31
0.0
0
LINE
5
57
100
AcDbEntity
100
AcDbLine
8
3
62
256
370
-1
6
ByLayer
10
102.217017079
20
100.351141009
30
0.0
11
102.274316085
21
100.401023288
31
0.0
0
LINE
5
58
100
AcDbEntity
100
AcDbLine
8
3
62
256
370
-1
6
ByLayer
10
102.274316085
20
100.401023288
30
0.0
11
102.340912442
21
100.455027284
31
0.0
0
LINE
5
59
100
AcDbEntity
100
AcDbLine
8
3
62
256
370
-1
6
ByLayer
10
102.340912442
20
100.455027284
30
0.0
11
102.418113853
21
100.513985966
31
0.0
0
LINE
5
60
100
AcDbEntity
100
AcDbLine
8
3
62
256
370
-1
6
ByLayer
10
102.418113853
20
100.513985966
30
0.0
11
102.507560003
21
100.578915842
31
0.0
0
LINE
5
61
100
AcDbEntity
100
AcDbLine
8
3
62
256
370
-1
6
ByLayer
10
102.507560003
20
100.578915842
30
0.0
11
102.611323373
21
100.651076041
31
0.0
0
LINE
5
62
100
AcDbEntity
100
AcDbLine
8
3
62
256
370
-1
6
ByLayer
10
102.611323373
20
100.651076041
30
0.0
11
102.732050808
21
100.732050808
31
0.0
0
LINE
5
63
100
AcDbEntity
100
AcDbLine
8
3
62
256
370
-1
6
ByLayer
10
102.732050808
20
100.732050808
30
0.0
11
102.873166126
21
100.823867129
31
0.0
0
LINE
5
64
100
AcDbEntity
100
AcDbLine
8
3
62
256
370
-1
6
ByLayer
10
102.873166126
20
100.823867129
30
0.0
11
103.039166598
21
100.929166475
31
0.0
0
LINE
5
65
100
AcDbEntity
100
AcDbLine
8
3
62
256
370
-1
6
ByLayer
10
103.039166598
20
100.929166475
30
0.0
11
103.236067977
21
101.051462224
31
0.0
0
LINE
5
66
100
AcDbEntity
100
AcDbLine
8
3
62
256
370
-1
6
ByLayer
10
103.236067977
20
101.051462224
30
0.0
11
103.472092578
21
101.195537351
31
0.0
0
LINE
5
67
100
AcDbEntity
100
AcDbLine
8
3
62
256
370
-1
6
ByLayer
10
103.472092578
20
101.195537351
30
0.0
11
103.758770483
21
101.368080573
31
0.0
0
LINE
5
68
100
AcDbEntity
100
AcDbLine
8
3
62
256
370
-1
6
ByLayer
10
103.758770483
20
101.368080573
30
0.0
11
104.112775166
21
101.57874647
31
0.0
0
LINE
5
69
100
AcDbEntity
100
AcDbLine
8
3
62
256
370
-1
6
ByLayer
10
104.112775166
20
101.57874647
30
0.0
11
104.559136091
21
101.842010548
31
0.0
0
LINE
5
70
100
AcDbEntity
100
AcDbLine
8
3
62
256
370
-1
6
ByLayer
10
104.559136091
20
101.842010548
30
0.0
11
105.137205236
21
102.180614248
31
0.0
0
LINE
5
71
100
AcDbEntity
100
AcDbLine
8
3
62
256
370
-1
6
ByLayer
10
105.137205236
20
102.180614248
30
0.0
11
105.912590403
21
102.632454852
31
0.0
0
LINE
5
72
100
AcDbEntity
100
AcDbLine
8
3
62
256
370
-1
6
ByLayer
10
105.912590403
20
102.632454852
30
0.0
11
107.003408785
21
103.265743149
31
0.0
0
LINE
5
73
100
AcDbEntity
100
AcDbLine
8
3
62
256
370
-1
6
ByLayer
10
107.003408785
20
103.265743149
30
0.0
11
108.645921187
21
104.216897521
31
0.0
0
LINE
5
74
100
AcDbEntity
100
AcDbLine
8
3
62
256
370
-1
6
ByLayer
10
108.645921187
20
104.216897521
30
0.0
11
111.391435052
21
105.804226065
31
0.0
0
LINE
5
75
100
AcDbEntity
100
AcDbLine
8
3
62
256
370
-1
6
ByLayer
10
111.391435052
20
105.804226065
30
0.0
11
116.89391703
21
108.982655023
31
0.0
0
LINE
5
76
100
AcDbEntity
100
AcDbLine
8
3
62
256
370
-1
6
ByLayer
10
116.89391703
20
108.982655023
30
0.0
11
133.423281809
21
118.526827636
31
0.0
0
LINE
5
77
100
AcDbEntity
100
AcDbLine
8
3
62
256
370
-1
6
ByLayer
10
133.423281809
20
118.526827636
30
0.0
11
2.82874705355e+16
21
1.63317787284e+16
31
0.0
0
LINE
5
78
100
AcDbEntity
100
AcDbLine
8
3
62
256
370
-1
6
ByLayer
10
2.82874705355e+16
20
1.63317787284e+16
30
0.0
11
67.2436557107
21
80.3180026932
31
0.0
0
LINE
5
79
100
AcDbEntity
100
AcDbLine
8
3
62
256
370
-1
6
ByLayer
10
67.2436557107
20
80.3180026932
30
0.0
11
83.773834042
21
89.8607661939
31
0.0
0
LINE
5
80
100
AcDbEntity
100
AcDbLine
8
3
62
256
370
-1
6
ByLayer
10
83.773834042
20
89.8607661939
30
0.0
11
89.2776752523
21
93.0368408921
31
0.0
0
LINE
5
81
100
AcDbEntity
100
AcDbLine
8
3
62
256
370
-1
6
ByLayer
10
89.2776752523
20
93.0368408921
30
0.0
11
92.0250990284
21
94.6208613737
31
0.0
0
LINE
5
82
100
AcDbEntity
100
AcDbLine
8
3
62
256
370
-1
6
ByLayer
10
92.0250990284
20
94.6208613737
30
0.0
11
93.6700790781
21
95.5677416542
31
0.0
0
LINE
5
83
100
AcDbEntity
100
AcDbLine
8
3
62
256
370
-1
6
ByLayer
10
93.6700790781
20
95.5677416542
30
0.0
11
94.7639320225
21
96.1957739348
31
0.0
0
LINE
5
84
100
AcDbEntity
100
AcDbLine
8
3
62
256
370
-1
6
ByLayer
10
94.7639320225
20
96.1957739348
30
0.0
11
95.5429300468
21
96.6413568852
31
0.0
0
LINE
5
85
100
AcDbEntity
100
AcDbLine
8
3
62
256
370
-1
6
ByLayer
10
95.5429300468
20
96.6413568852
30
0.0
11
96.1252040256
21
96.9726775996
31
0.0
0
LINE
5
86
100
AcDbEntity
100
AcDbLine
8
3
62
256
370
-1
6
ByLayer
10
96.1252040256
20
96.9726775996
30
0.0
11
96.5763778674
21
97.2276054613
31
0.0
0
LINE
5
87
100
AcDbEntity
100
AcDbLine
8
3
62
256
370
-1
6
ByLayer
10
96.5763778674
20
97.2276054613
30
0.0
11
96.9358222275
21
97.4288495613
31
0.0
0
LINE
5
88
100
AcDbEntity
100
AcDbLine
8
3
62
256
370
-1
6
ByLayer
10
96.9358222275
20
97.4288495613
30
0.0
11
97.2285879942
21
97.5908482984
31
0.0
0
LINE
5
89
100
AcDbEntity
100
AcDbLine
8
3
62
256
370
-1
6
ByLayer
10
97.2285879942
20
97.5908482984
30
0.0
11
97.4713730139
21
97.7232140352
31
0.0
0
LINE
5
90
100
AcDbEntity
100
AcDbLine
8
3
62
256
370
-1
6
ByLayer
10
97.4713730139
20
97.7232140352
30
0.0
11
97.6757349292
21
97.8325877573
31
0.0
0
LINE
5
91
100
AcDbEntity
100
AcDbLine
8
3
62
256
370
-1
6
ByLayer
10
97.6757349292
20
97.8325877573
30
0.0
11
97.849927074
21
97.9236987104
31
0.0
0
LINE
5
92
100
AcDbEntity
100
AcDbLine
8
3
62
256
370
-1
6
ByLayer
10
97.849927074
20
97.9236987104
30
0.0
11
98.0
21
98.0
31
0.0
0
LINE
5
93
100
AcDbEntity
100
AcDbLine
8
3
62
256
370
-1
6
ByLayer
10
98.0
20
98.0
30
0.0
11
98.1304899216
21
98.0640656419
31
0.0
0
LINE
5
94
100
AcDbEntity
100
AcDbLine
8
3
62
256
370
-1
6
ByLayer
10
98.1304899216
20
98.0640656419
30
0.0
11
98.2448641725
21
98.1178472568
31
0.0
0
LINE
5
95
100
AcDbEntity
100
AcDbLine
8
3
62
256
370
-1
6
ByLayer
10
98.2448641725
20
98.1178472568
30
0.0
11
98.3458181694
21
98.1628449572
31
0.0
0
LINE
5
96
100
AcDbEntity
100
AcDbLine
8
3
62
256
370
-1
6
ByLayer
10
98.3458181694
20
98.1628449572
30
0.0
11
98.4354785918
21
98.2002239996
31
0.0
0
LINE
5
97
100
AcDbEntity
100
AcDbLine
8
3
62
256
370
-1
6
ByLayer
10
98.4354785918
20
98.2002239996
30
0.0
11
98.5155456021
21
98.2308961382
31
0.0
0
LINE
5
98
100
AcDbEntity
100
AcDbLine
8
3
62
256
370
-1
6
ByLayer
10
98.5155456021
20
98.2308961382
30
0.0
11
98.5873944265
21
98.255577394
31
0.0
0
LINE
5
99
100
AcDbEntity
100
AcDbLine
8
3
62
256
370
-1
6
ByLayer
10
98.5873944265
20
98.255577394
30
0.0
11
98.6521492277
21
98.2748296825
31
0.0
0
LINE
5
100
100
AcDbEntity
100
AcDbLine
8
3
62
256
370
-1
6
ByLayer
10
98.6521492277
20
98.2748296825
30
0.0
11
98.7107377017
21
98.2890911433
31
0.0
0
LINE
5
101
100
AcDbEntity
100
AcDbLine
8
3
62
256
370
-1
6
ByLayer
10
98.7107377017
20
98.2890911433
30
0.0
11
98.7639320225
21
98.2986983833
31
0.0
0
LINE
5
102
100
AcDbEntity
100
AcDbLine
8
3
62
256
370
-1
6
ByLayer
10
98.7639320225
20
98.2986983833
30
0.0
11
98.8123799556
21
98.3039028008
31
0.0
0
LINE
5
103
100
AcDbEntity
100
AcDbLine
8
3
62
256
370
-1
6
ByLayer
10
98.8123799556
20
98.3039028008
30
0.0
11
98.8566287888
21
98.3048824698
31
0.0
0
LINE
5
104
100
AcDbEntity
100
AcDbLine
8
3
62
256
370
-1
6
ByLayer
10
98.8566287888
20
98.3048824698
30
0.0
11
98.8971439418
21
98.3017505959
31
0.0
0
LINE
5
105
100
AcDbEntity
100
AcDbLine
8
3
62
256
370
-1
6
ByLayer
10
98.8971439418
20
98.3017505959
30
0.0
11
98.9343235846
21
98.2945612357
31
0.0
0
LINE
5
106
100
AcDbEntity
100
AcDbLine
8
3
62
256
370
-1
6
ByLayer
10
98.9343235846
20
98.2945612357
30
0.0
11
98.9685102293
21
98.2833127384
31
0.0
0
LINE
5
107
100
AcDbEntity
100
AcDbLine
8
3
62
256
370
-1
6
ByLayer
10
98.9685102293
20
98.2833127384
30
0.0
11
99.0
21
98.2679491924
31
0.0
0
LINE
5
108
100
AcDbEntity
100
AcDbLine
8
3
62
256
370
-1
6
ByLayer
10
99.0
20
98.2679491924
30
0.0
11
99.0290501064
21
98.248360024
31
0.0
0
LINE
5
109
100
AcDbEntity
100
AcDbLine
8
3
62
256
370
-1
6
ByLayer
10
99.0290501064
20
98.248360024
30
0.0
11
99.0558849132
21
98.2243777699
31
0.0
0
LINE
5
110
100
AcDbEntity
100
AcDbLine
8
3
62
256
370
-1
6
ByLayer
10
99.0558849132
20
98.2243777699
30
0.0
11
99.0807009031
21
98.1957739348
31
0.0
0
LINE
5
111
100
AcDbEntity
100
AcDbLine
8
3
62
256
370
-1
6
ByLayer
10
99.0807009031
20
98.1957739348
30
0.0
11
99.103670762
21
98.1622527201
31
0.0
0
LINE
5
112
100
AcDbEntity
100
AcDbLine
8
3
62
256
370
-1
6
ByLayer
10
99.103670762
20
98.1622527201
30
0.0
11
99.1249467604
21
98.1234422719
31
0.0
0
LINE
5
113
100
AcDbEntity
100
AcDbLine
8
3
62
256
370
-1
6
ByLayer
10
99.1249467604
20
98.1234422719
30
0.0
11
99.1446635692
21
98.0788829223
31
0.0
0
LINE
5
114
100
AcDbEntity
100
AcDbLine
8
3
62
256
370
-1
6
ByLayer
10
99.1446635692
20
98.0788829223
30
0.0
11
99.1629406157
21
98.0280116692
31
0.0
0
LINE
5
115
100
AcDbEntity
100
AcDbLine
8
3
62
256
370
-1
6
ByLayer
10
99.1629406157
20
98.0280116692
30
0.0
11
99.1798840654
21
97.9701418319
31
0.0
0
LINE
5
116
100
AcDbEntity
100
AcDbLine
8
3
62
256
370
-1
6
ByLayer
10
99.1798840654
20
97.9701418319
30
0.0
11
99.195588495
21
97.9044363848
31
0.0
0
LINE
5
117
100
AcDbEntity
100
AcDbLine
8
3
62
256
370
-1
6
ByLayer
10
99.195588495
20
97.9044363848
30
0.0
11
99.2101383127
21
97.8298728497
31
0.0
0
LINE
5
118
100
AcDbEntity
100
AcDbLine
8
3
62
256
370
-1
6
ByLayer
10
99.2101383127
20
97.8298728497
30
0.0
11
99.2236089666
21
97.7451967155
31
0.0
0
LINE
5
119
100
AcDbEntity
100
AcDbLine
8
3
62
256
370
-1
6
ByLayer
10
99.2236089666
20
97.7451967155
30
0.0
11
99.2360679775
21
97.6488589908
31
0.0
0
LINE
5
120
100
AcDbEntity
100
AcDbLine
8
3
62
256
370
-1
6
ByLayer
10
99.2360679775
20
97.6488589908
30
0.0
11
99.2475758243
21
97.5389314147
31
0.0
0
LINE
5
121
100
AcDbEntity
100
AcDbLine
8
3
62
256
370
-1
6
ByLayer
10
99.2475758243
20
97.5389314147
30
0.0
11
99.258186705
21
97.4129896005
31
0.0
0
LINE
5
122
100
AcDbEntity
100
AcDbLine
8
3
62
256
370
-1
6
ByLayer
10
99.258186705
20
97.4129896005
30
0.0
11
99.2679491924
21
97.2679491924
31
0.0
0
LINE
5
123
100
AcDbEntity
100
AcDbLine
8
3
62
256
370
-1
6
ByLayer
10
99.2679491924
20
97.2679491924
30
0.0
11
99.2769068003
21
97.0998315813
31
0.0
0
LINE
5
124
100
AcDbEntity
100
AcDbLine
8
3
62
256
370
-1
6
ByLayer
10
99.2769068003
20
97.0998315813
30
0.0
11
99.2850984728
21
96.9034212822
31
0.0
0
LINE
5
125
100
AcDbEntity
100
AcDbLine
8
3
62
256
370
-1
6
ByLayer
10
99.2850984728
20
96.9034212822
30
0.0
11
99.2925590086
21
96.671751811
31
0.0
0
LINE
5
126
100
AcDbEntity
100
AcDbLine
8
3
62
256
370
-1
6
ByLayer
10
99.2925590086
20
96.671751811
30
0.0
11
99.2993194277
21
96.3953109478
31
0.0
0
LINE
5
127
100
AcDbEntity
100
AcDbLine
8
3
62
256
370
-1
6
ByLayer
10
99.2993194277
20
96.3953109478
30
0.0
11
99.3054072893
21
96.0607689879
31
0.0
0
LINE
5
128
100
AcDbEntity
100
AcDbLine
8
3
62
256
370
-1
6
ByLayer
10
99.3054072893
20
96.0607689879
30
0.0
11
99.3108469665
21
95.6488589908
31
0.0
0
LINE
5
129
100
AcDbEntity
100
AcDbLine
8
3
62
256
370
-1
6
ByLayer
10
99.3108469665
20
95.6488589908
30
0.0
11
99.315659883
21
95.1306670515
31
0.0
0
LINE
5
130
100
AcDbEntity
100
AcDbLine
8
3
62
256
370
-1
6
ByLayer
10
99.315659883
20
95.1306670515
30
0.0
11
99.3198647169
21
94.4607426367
31
0.0
0
LINE
5
131
100
AcDbEntity
100
AcDbLine
8
3
62
256
370
-1
6
ByLayer
10
99.3198647169
20
94.4607426367
30
0.0
11
99.3234775746
21
93.563319083
31
0.0
0
LINE
5
132
100
AcDbEntity
100
AcDbLine
8
3
62
256
370
-1
6
ByLayer
10
99.3234775746
20
93.563319083
30
0.0
11
99.3265121374
21
92.3019985048
31
0.0
0
LINE
5
133
100
AcDbEntity
100
AcDbLine
8
3
62
256
370
-1
6
ByLayer
10
99.3265121374
20
92.3019985048
30
0.0
11
99.3289797849
21
90.4039638528
31
0.0
0
LINE
5
134
100
AcDbEntity
100
AcDbLine
8
3
62
256
370
-1
6
ByLayer
10
99.3289797849
20
90.4039638528
30
0.0
11
99.3308896958
21
87.2326148269
31
0.0
0
LINE
5
135
100
AcDbEntity
100
AcDbLine
8
3
62
256
370
-1
6
ByLayer
10
99.3308896958
20
87.2326148269
30
0.0
11
99.332248928
21
80.8781111713
31
0.0
0
LINE
5
136
100
AcDbEntity
100
AcDbLine
8
3
62
256
370
-1
6
ByLayer
10
99.332248928
20
80.8781111713
30
0.0
11
99.3330624798
21
61.791175057
31
0.0
0
LINE
5
137
100
AcDbEntity
100
AcDbLine
8
3
62
256
370
-1
6
ByLayer
10
99.3330624798
20
61.791175057
30
0.0
11
99.3333333333
21
-1.08878524856e+16
31
0.0
0
LINE
5
138
100
AcDbEntity
100
AcDbLine
8
3
62
256
370
-1
6
ByLayer
10
99.3333333333
20
-1.08878524856e+16
30
0.0
11
99.3330624798
21
138.208824943
31
0.0
0
LINE
5
139
100
AcDbEntity
100
AcDbLine
8
3
62
256
370
-1
6
ByLayer
10
99.3330624798
20
138.208824943
30
0.0
11
99.332248928
21
119.121888829
31
0.0
0
LINE
5
140
100
AcDbEntity
100
AcDbLine
8
3
62
256
370
-1
6
ByLayer
10
99.332248928
20
119.121888829
30
0.0
11
99.3308896958
21
112.767385173
31
0.0
0
LINE
5
141
100
AcDbEntity
100
AcDbLine
8
3
62
256
370
-1
6
ByLayer
10
99.3308896958
20
112.767385173
30
0.0
11
99.3289797849
21
109.596036147
31
0.0
0
LINE
5
142
100
AcDbEntity
100
AcDbLine
8
3
62
256
370
-1
6
ByLayer
10
99.3289797849
20
109.596036147
30
0.0
11
99.3265121374
21
107.698001495
31
0.0
0
LINE
5
143
100
AcDbEntity
100
AcDbLine
8
3
62
256
370
-1
6
ByLayer
10
99.3265121374
20
107.698001495
30
0.0
11
99.3234775746
21
106.436680917
31
0.0
0
LINE
5
144
100
AcDbEntity
100
AcDbLine
8
3
62
256
370
-1
6
ByLayer
10
99.3234775746
20
106.436680917
30
0.0
11
99.3198647169
21
105.539257363
31
0.0
0
LINE
5
145
100
AcDbEntity
100
AcDbLine
8
3
62
256
370
-1
6
ByLayer
10
99.3198647169
20
105.539257363
30
0.0
11
99.315659883
21
104.869332948
31
0.0
0
LINE
5
146
100
AcDbEntity
100
AcDbLine
8
3
62
256
370
-1
6
ByLayer
10
99.315659883
20
104.869332948
30
0.0
11
99.3108469665
21
104.351141009
31
0.0
0
LINE
5
147
100
AcDbEntity
100
AcDbLine
8
3
62
256
370
-1
6
ByLayer
10
99.3108469665
20
104.351141009
30
0.0
11
99.3054072893
21
103.939231012
31
0.0
0
LINE
5
148
100
AcDbEntity
100
AcDbLine
8
3
62
256
370
-1
6
ByLayer
10
99.3054072893
20
103.939231012
30
0.0
11
99.2993194277
21
103.604689052
31
0.0
0
LINE
5
149
100
AcDbEntity
100
AcDbLine
8
3
62
256
370
-1
6
ByLayer
10
99.2993194277
20
103.604689052
30
0.0
11
99.2925590086
21
103.328248189
31
0.0
0
LINE
5
150
100
AcDbEntity
100
AcDbLine
8
3
62
256
370
-1
6
ByLayer
10
99.2925590086
20
103.328248189
30
0.0
11
99.2850984728
21
103.096578718
31
0.0
0
LINE
5
151
100
AcDbEntity
100
AcDbLine
8
3
62
256
370
-1
6
ByLayer
10
99.2850984728
20
103.096578718
30
0.0
11
99.2769068003
21
102.900168419
31
0.0
0
LINE
5
152
100
AcDbEntity
100
AcDbLine
8
3
62
256
370
-1
6
ByLayer
10
99.2769068003
20
102.900168419
30
0.0
11
99.2679491924
21
102.732050808
31
0.0
0
LINE
5
153
100
AcDbEntity
100
AcDbLine
8
3
62
256
370
-1
6
ByLayer
10
99.2679491924
20
102.732050808
30
0.0
11
99.258186705
21
102.5870104
31
0.0
0
LINE
5
154
100
AcDbEntity
100
AcDbLine
8
3
62
256
370
-1
6
ByLayer
10
99.258186705
20
102.5870104
30
0.0
11
99.2475758243
21
102.461068585
31
0.0
0
LINE
5
155
100
AcDbEntity
100
AcDbLine
8
3
62
256
370
-1
6
ByLayer
10
99.2475758243
20
102.461068585
30
0.0
11
99.2360679775
21
102.351141009
31
0.0
0
LINE
5
156
100
AcDbEntity
100
AcDbLine
8
3
62
256
370
-1
6
ByLayer
10
99.2360679775
20
102.351141009
30
0.0
11
99.2236089666
21
102.254803284
31
0.0
0
LINE
5
157
100
AcDbEntity
100
AcDbLine
8
3
62
256
370
-1
6
ByLayer
10
99.2236089666
20
102.254803284
30
0.0
11
99.2101383127
21
102.17012715
31
0.0
0
LINE
5
158
100
AcDbEntity
100
AcDbLine
8
3
62
256
370
-1
6
ByLayer
10
99.2101383127
20
102.17012715
30
0.0
11
99.195588495
21
102.095563615
31
0.0
0
LINE
5
159
100
AcDbEntity
100
AcDbLine
8
3
62
256
370
-1
6
ByLayer
10
99.195588495
20
102.095563615
30
0.0
11
99.1798840654
21
102.029858168
31
0.0
0
LINE
5
160
100
AcDbEntity
100
AcDbLine
8
3
62
256
370
-1
6
ByLayer
10
99.1798840654
20
102.029858168
30
0.0
11
99.1629406157
21
101.971988331
31
0.0
0
LINE
5
161
100
AcDbEntity
100
AcDbLine
8
3
62
256
370
-1
6
ByLayer
10
99.1629406157
20
101.971988331
30
0.0
11
99.1446635692
21
101.921117078
31
0.0
0
LINE
5
162
100
AcDbEntity
100
AcDbLine
8
3
62
256
370
-1
6
ByLayer
10
99.1446635692
20
101.921117078
30
0.0
11
99.1249467604
21
101.876557728
31
0.0
0
LINE
5
163
100
AcDbEntity
100
AcDbLine
8
3
62
256
370
-1
6
ByLayer
10
99.1249467604
20
101.876557728
30
0.0
11
99.103670762
21
101.83774728
31
0.0
0
LINE
5
164
100
AcDbEntity
100
AcDbLine
8
3
62
256
370
-1
6
ByLayer
10
99.103670762
20
101.83774728
30
0.0
11
99.0807009031
21
101.804226065
31
0.0
0
LINE
5
165
100
AcDbEntity
100
AcDbLine
8
3
62
256
370
-1
6
ByLayer
10
99.0807009031
20
101.804226065
30
0.0
11
99.0558849132
21
101.77562223
31
0.0
0
LINE
5
166
100
AcDbEntity
100
AcDbLine
8
3
62
256
370
-1
6
ByLayer
10
99.0558849132
20
101.77562223
30
0.0
11
99.0290501064
21
101.751639976
31
0.0
0
LINE
5
167
100
AcDbEntity
100
AcDbLine
8
3
62
256
370
-1
6
ByLayer
10
99.0290501064
20
101.751639976
30
0.0
11
99.0
21
101.732050808
31
0.0
0
LINE
5
168
100
AcDbEntity
100
AcDbLine
8
3
62
256
370
-1
6
ByLayer
10
99.0
20
101.732050808
30
0.0
11
98.9685102293
21
101.716687262
31
0.0
0
LINE
5
169
100
AcDbEntity
100
AcDbLine
8
3
62
256
370
-1
6
ByLayer
10
98.9685102293
20
101.716687262
30
0.0
11
98.9343235846
21
101.705438764
31
0.0
0
LINE
5
170
100
AcDbEntity
100
AcDbLine
8
3
62
256
370
-1
6
ByLayer
10
98.9343235846
20
101.705438764
30
0.0
11
98.8971439418
21
101.698249404
31
0.0
0
LINE
5
171
100
AcDbEntity
100
AcDbLine
8
3
62
256
370
-1
6
ByLayer
10
98.8971439418
20
101.698249404
30
0.0
11
98.8566287888
21
101.69511753
31
0.0
0
LINE
5
172
100
AcDbEntity
100
AcDbLine
8
3
62
256
370
-1
6
ByLayer
10
98.8566287888
20
101.69511753
30
0.0
11
98.8123799556
21
101.696097199
31
0.0
0
LINE
5
173
100
AcDbEntity
100
AcDbLine
8
3
62
256
370
-1
6
ByLayer
10
98.8123799556
20
101.696097199
30
0.0
11
98.7639320225
21
101.701301617
31
0.0
0
LINE
5
174
100
AcDbEntity
100
AcDbLine
8
3
62
256
370
-1
6
ByLayer
10
98.7639320225
20
101.701301617
30
0.0
11
98.7107377017
21
101.710908857
31
0.0
0
LINE
5
175
100
AcDbEntity
100
AcDbLine
8
3
62
256
370
-1
6
ByLayer
10
98.7107377017
20
101.710908857
30
0.0
11
98.6521492277
21
101.725170318
31
0.0
0
LINE
5
176
100
AcDbEntity
100
AcDbLine
8
3
62
256
370
-1
6
ByLayer
10
98.6521492277
20
101.725170318
30
0.0
11
98.5873944265
21
101.744422606
31
0.0
0
LINE
5
177
100
AcDbEntity
100
AcDbLine
8
3
62
256
370
-1
6
ByLayer
10
98.5873944265
20
101.744422606
30
0.0
11
98.5155456021
21
101.769103862
31
0.0
0
LINE
5
178
100
AcDbEntity
100
AcDbLine
8
3
62
256
370
-1
6
ByLayer
10
98.5155456021
20
101.769103862
30
0.0
11
98.4354785918
21
101.799776
31
0.0
0
LINE
5
179
100
AcDbEntity
100
AcDbLine
8
3
62
256
370
-1
6
ByLayer
10
98.4354785918
20
101.799776
30
0.0
11
98.3458181694
21
101.837155043
31
0.0
0
LINE
5
180
100
AcDbEntity
100
AcDbLine
8
3
62
256
370
-1
6
ByLayer
10
98.3458181694
20
101.837155043
30
0.0
11
98.2448641725
21
101.882152743
31
0.0
0
LINE
5
181
100
AcDbEntity
100
AcDbLine
8
3
62
256
370
-1
6
ByLayer
10
98.2448641725
20
101.882152743
30
0.0
11
98.1304899216
21
101.935934358
31
0.0
0
LINE
5
182
100
AcDbEntity
100
AcDbLine
8
3
62
256
370
-1
6
ByLayer
10
98.1304899216
20
101.935934358
30
0.0
11
98.0
21
102.0
31
0.0
0
LINE
5
183
100
AcDbEntity
100
AcDbLine
8
3
62
256
370
-1
6
ByLayer
10
98.0
20
102.0
30
0.0
11
97.849927074
21
102.07630129
31
0.0
0
LINE
5
184
100
AcDbEntity
100
AcDbLine
8
3
62
256
370
-1
6
ByLayer
10
97.849927074
20
102.07630129
30
0.0
11
97.6757349292
21
102.167412243
31
0.0
0
LINE
5
185
100
AcDbEntity
100
AcDbLine
8
3
62
256
370
-1
6
ByLayer
10
97.6757349292
20
102.167412243
30
0.0
11
97.4713730139
21
102.276785965
31
0.0
0
LINE
5
186
100
AcDbEntity
100
AcDbLine
8
3
62
256
370
-1
6
ByLayer
10
97.4713730139
20
102.276785965
30
0.0
11
97.2285879942
21
102.409151702
31
0.0
0
LINE
5
187
100
AcDbEntity
100
AcDbLine
8
3
62
256
370
-1
6
ByLayer
10
97.2285879942
20
102.409151702
30
0.0
11
96.9358222275
21
102.571150439
31
0.0
0
LINE
5
188
100
AcDbEntity
100
AcDbLine
8
3
62
256
370
-1
6
ByLayer
10
96.9358222275
20
102.571150439
30
0.0
11
96.5763778674
21
102.772394539
31
0.0
0
LINE
5
189
100
AcDbEntity
100
AcDbLine
8
3
62
256
370
-1
6
ByLayer
10
96.5763778674
20
102.772394539
30
0.0
11
96.1252040256
21
103.0273224
31
0.0
0
LINE
5
190
100
AcDbEntity
100
AcDbLine
8
3
62
256
370
-1
6
ByLayer
10
96.1252040256
20
103.0273224
30
0.0
11
95.5429300468
21
103.358643115
31
0.0
0
LINE
5
191
100
AcDbEntity
100
AcDbLine
8
3
62
256
370
-1
6
ByLayer
10
95.5429300468
20
103.358643115
30
0.0
11
94.7639320225
21
103.804226065
31
0.0
0
LINE
5
192
100
AcDbEntity
100
AcDbLine
8
3
62
256
370
-1
6
ByLayer
10
94.7639320225
20
103.804226065
30
0.0
11
93.6700790781
21
104.432258346
31
0.0
0
LINE
5
193
100
AcDbEntity
100
AcDbLine
8
3
62
256
370
-1
6
ByLayer
10
93.6700790781
20
104.432258346
30
0.0
11
92.0250990284
21
105.379138626
31
0.0
0
LINE
5
194
100
AcDbEntity
100
AcDbLine
8
3
62
256
370
-1
6
ByLayer
10
92.0250990284
20
105.379138626
30
0.0
11
89.2776752523
21
106.963159108
31
0.0
0
LINE
5
195
100
AcDbEntity
100
AcDbLine
8
3
62
256
370
-1
6
ByLayer
10
89.2776752523
20
106.963159108
30
0.0
11
83.773834042
21
110.139233806
31
0.0
0
LINE
5
196
100
AcDbEntity
100
AcDbLine
8
3
62
256
370
-1
6
ByLayer
10
83.773834042
20
110.139233806
30
0.0
11
67.2436557107
21
119.681997307
31
0.0
0
LINE
5
197
100
AcDbEntity
100
AcDbLine
8
3
62
256
370
-1
6
ByLayer
10
67.2436557107
20
119.681997307
30
0.0
11
-5.65749410711e+15
21
3.26635574568e+15
31
0.0
0
LINE
5
198
100
AcDbEntity
100
AcDbLine
8
3
62
256
370
-1
6
ByLayer
10
-5.65749410711e+15
20
3.26635574568e+15
30
0.0
11
133.423281809
21
81.4731723637
31
0.0
0
LINE
5
199
100
AcDbEntity
100
AcDbLine
8
3
62
256
370
-1
6
ByLayer
10
133.423281809
20
81.4731723637
30
0.0
11
116.89391703
21
91.0173449774
31
0.0
0
LINE
5
200
100
AcDbEntity
100
AcDbLine
8
3
62
256
370
-1
6
ByLayer
10
116.89391703
20
91.0173449774
30
0.0
11
111.391435052
21
94.1957739348
31
0.0
0
LINE
5
201
100
AcDbEntity
100
AcDbLine
8
3
62
256
370
-1
6
ByLayer
10
111.391435052
20
94.1957739348
30
0.0
11
108.645921187
21
95.7831024791
31
0.0
0
LINE
5
202
100
AcDbEntity
100
AcDbLine
8
3
62
256
370
-1
6
ByLayer
10
108.645921187
20
95.7831024791
30
0.0
11
107.003408785
21
96.7342568506
31
0.0
0
LINE
5
203
100
AcDbEntity
100
AcDbLine
8
3
62
256
370
-1
6
ByLayer
10
107.003408785
20
96.7342568506
30
0.0
11
105.912590403
21
97.3675451481
31
0.0
0
LINE
5
204
100
AcDbEntity
100
AcDbLine
8
3
62
256
370
-1
6
ByLayer
10
105.912590403
20
97.3675451481
30
0.0
11
105.137205236
21
97.8193857515
31
0.0
0
LINE
5
205
100
AcDbEntity
100
AcDbLine
8
3
62
256
370
-1
6
ByLayer
10
105.137205236
20
97.8193857515
30
0.0
11
104.559136091
21
98.1579894519
31
0.0
0
LINE
5
206
100
AcDbEntity
100
AcDbLine
8
3
62
256
370
-1
6
ByLayer
10
104.559136091
20
98.1579894519
30
0.0
11
104.112775166
21
98.4212535295
31
0.0
0
LINE
5
207
100
AcDbEntity
100
AcDbLine
8
3
62
256
370
-1
6
ByLayer
10
104.112775166
20
98.4212535295
30
0.0
11
103.758770483
21
98.6319194267
31
0.0
0
LINE
5
208
100
AcDbEntity
100
AcDbLine
8
3
62
256
370
-1
6
ByLayer
10
103.758770483
20
98.6319194267
30
0.0
11
103.472092578
21
98.8044626495
31
0.0
0
LINE
5
209
100
AcDbEntity
100
AcDbLine
8
3
62
256
370
-1
6
ByLayer
10
103.472092578
20
98.8044626495
30
0.0
11
103.236067977
21
98.9485377758
31
0.0
0
LINE
5
210
100
AcDbEntity
100
AcDbLine
8
3
62
256
370
-1
6
ByLayer
10
103.236067977
20
98.9485377758
30
0.0
11
103.039166598
21
99.0708335249
31
0.0
0
LINE
5
211
100
AcDbEntity
100
AcDbLine
8
3
62
256
370
-1
6
ByLayer
10
103.039166598
20
99.0708335249
30
0.0
11
102.873166126
21
99.1761328709
31
0.0
0
LINE
5
212
100
AcDbEntity
100
AcDbLine
8
3
62
256
370
-1
6
ByLayer
10
102.873166126
20
99.1761328709
30
0.0
11
102.732050808
21
99.2679491924
31
0.0
0
LINE
5
213
100
AcDbEntity
100
AcDbLine
8
3
62
256
370
-1
6
ByLayer
10
102.732050808
20
99.2679491924
30
0.0
11
102.611323373
21
99.3489239585
31
0.0
0
LINE
5
214
100
AcDbEntity
100
AcDbLine
8
3
62
256
370
-1
6
ByLayer
10
102.611323373
20
99.3489239585
30
0.0
11
102.507560003
21
99.4210841579
31
0.0
0
LINE
5
215
100
AcDbEntity
100
AcDbLine
8
3
62
256
370
-1
6
ByLayer
10
102.507560003
20
99.4210841579
30
0.0
11
102.418113853
21
99.4860140337
31
0.0
0
LINE
5
216
100
AcDbEntity
100
AcDbLine
8
3
62
256
370
-1
6
ByLayer
10
102.418113853
20
99.4860140337
30
0.0
11
102.340912442
21
99.5449727159
31
0.0
0
LINE
5
217
100
AcDbEntity
100
AcDbLine
8
3
62
256
370
-1
6
ByLayer
10
102.340912442
20
99.5449727159
30
0.0
11
102.274316085
21
99.5989767115
31
0.0
0
LINE
5
218
100
AcDbEntity
100
AcDbLine
8
3
62
256
370
-1
6
ByLayer
10
102.274316085
20
99.5989767115
30
0.0
11
102.217017079
21
99.6488589908
31
0.0
0
LINE
5
219
100
AcDbEntity
100
AcDbLine
8
3
62
256
370
-1
6
ByLayer
10
102.217017079
20
99.6488589908
30
0.0
11
102.167966707
21
99.6953121494
31
0.0
0
LINE
5
220
100
AcDbEntity
100
AcDbLine
8
3
62
256
370
-1
6
ByLayer
10
102.167966707
20
99.6953121494
30
0.0
11
102.126321683
21
99.7389205259
31
0.0
0
LINE
5
221
100
AcDbEntity
100
AcDbLine
8
3
62
256
370
-1
6
ByLayer
10
102.126321683
20
99.7389205259
30
0.0
11
102.091404408
21
99.780184539
31
0.0
0
LINE
5
222
100
AcDbEntity
100
AcDbLine
8
3
62
256
370
-1
6
ByLayer
10
102.091404408
20
99.780184539
30
0.0
11
102.062673284
21
99.8195394711
31
0.0
0
LINE
5
223
100
AcDbEntity
100
AcDbLine
8
3
62
256
370
-1
6
ByLayer
10
102.062673284
20
99.8195394711
30
0.0
11
102.039700449
21
99.8573702503
31
0.0
0
LINE
5
224
100
AcDbEntity
100
AcDbLine
8
3
62
256
370
-1
6
ByLayer
10
102.039700449
20
99.8573702503
30
0.0
11
102.022155155
21
99.894023339
31
0.0
0
LINE
5
225
100
AcDbEntity
100
AcDbLine
8
3
62
256
370
-1
6
ByLayer
10
102.022155155
20
99.894023339
30
0.0
11
102.009791502
21
99.9298165342
31
0.0
0
LINE
5
226
100
AcDbEntity
100
AcDbLine
8
3
62
256
370
-1
6
ByLayer
10
102.009791502
20
99.9298165342
30
0.0
11
102.002439664
21
99.9650472856
31
0.0
0
LINE
5
227
100
AcDbEntity
100
AcDbLine
8
3
62
256
370
-1
6
ByLayer
10
102.002439664
20
99.9650472856
30
0.0
11
102.0
21
100.0
31
0.0
0
LINE
5
228
100
AcDbEntity
100
AcDbLine
8
3
62
256
370
-1
6
ByLayer
10
102.0
20
100.0
30
0.0
11
102.002439664
21
100.034952714
31
0.0
0
LINE
5
229
100
AcDbEntity
100
AcDbLine
8
3
62
256
370
-1
6
ByLayer
10
102.002439664
20
100.034952714
30
0.0
11
102.009791502
21
100.070183466
31
0.0
0
LINE
5
230
100
AcDbEntity
100
AcDbLine
8
3
62
256
370
-1
6
ByLayer
10
102.009791502
20
100.070183466
30
0.0
11
102.022155155
21
100.105976661
31
0.0
0
LINE
5
231
100
AcDbEntity
100
AcDbLine
8
3
62
256
370
-1
6
ByLayer
10
102.022155155
20
100.105976661
30
0.0
11
102.039700449
21
100.14262975
31
0.0
0
LINE
5
232
100
AcDbEntity
100
AcDbLine
8
3
62
256
370
-1
6
ByLayer
10
102.039700449
20
100.14262975
30
0.0
11
102.062673284
21
100.180460529
31
0.0
0
LINE
5
233
100
AcDbEntity
100
AcDbLine
8
3
62
256
370
-1
6
ByLayer
10
102.062673284
20
100.180460529
30
0.0
11
102.091404408
21
100.219815461
31
0.0
0
LINE
5
234
100
AcDbEntity
100
AcDbLine
8
3
62
256
370
-1
6
ByLayer
10
102.091404408
20
100.219815461
30
0.0
11
102.126321683
21
100.261079474
31
0.0
0
LINE
5
235
100
AcDbEntity
100
AcDbLine
8
3
62
256
370
-1
6
ByLayer
10
102.126321683
20
100.261079474
30
0.0
11
102.167966707
21
100.304687851
31
0.0
0
LINE
5
236
100
AcDbEntity
100
AcDbLine
8
3
62
256
370
-1
6
ByLayer
10
102.167966707
20
100.304687851
30
0.0
11
102.217017079
21
100.351141009
31
0.0
0
LINE
5
237
100
AcDbEntity
100
AcDbLine
8
3
62
256
370
-1
6
ByLayer
10
102.217017079
20
100.351141009
30
0.0
11
102.274316085
21
100.401023288
31
0.0
0
LINE
5
238
100
AcDbEntity
100
AcDbLine
8
3
62
256
370
-1
6
ByLayer
10
102.274316085
20
100.401023288
30
0.0
11
102.340912442
21
100.455027284
31
0.0
0
LINE
5
239
100
AcDbEntity
100
AcDbLine
8
3
62
256
370
-1
6
ByLayer
10
102.340912442
20
100.455027284
30
0.0
11
102.418113853
21
100.513985966
31
0.0
0
LINE
5
240
100
AcDbEntity
100
AcDbLine
8
3
62
256
370
-1
6
ByLayer
10
102.418113853
20
100.513985966
30
0.0
11
102.507560003
21
100.578915842
31
0.0
0
LINE
5
241
100
AcDbEntity
100
AcDbLine
8
3
62
256
370
-1
6
ByLayer
10
102.507560003
20
100.578915842
30
0.0
11
102.611323373
21
100.651076041
31
0.0
0
LINE
5
242
100
AcDbEntity
100
AcDbLine
8
3
62
256
370
-1
6
ByLayer
10
102.611323373
20
100.651076041
30
0.0
11
102.732050808
21
100.732050808
31
0.0
0
LINE
5
243
100
AcDbEntity
100
AcDbLine
8
3
62
256
370
-1
6
ByLayer
10
102.732050808
20
100.732050808
30
0.0
11
102.873166126
21
100.823867129
31
0.0
0
LINE
5
244
100
AcDbEntity
100
AcDbLine
8
3
62
256
370
-1
6
ByLayer
10
102.873166126
20
100.823867129
30
0.0
11
103.039166598
21
100.929166475
31
0.0
0
LINE
5
245
100
AcDbEntity
100
AcDbLine
8
3
62
256
370
-1
6
ByLayer
10
103.039166598
20
100.929166475
30
0.0
11
103.236067977
21
101.051462224
31
0.0
0
LINE
5
246
100
AcDbEntity
100
AcDbLine
8
3
62
256
370
-1
6
ByLayer
10
103.236067977
20
101.051462224
30
0.0
11
103.472092578
21
101.195537351
31
0.0
0
LINE
5
247
100
AcDbEntity
100
AcDbLine
8
3
62
256
370
-1
6
ByLayer
10
103.472092578
20
101.195537351
30
0.0
11
103.758770483
21
101.368080573
31
0.0
0
LINE
5
248
100
AcDbEntity
100
AcDbLine
8
3
62
256
370
-1
6
ByLayer
10
103.758770483
20
101.368080573
30
0.0
11
104.112775166
21
101.57874647
31
0.0
0
LINE
5
249
100
AcDbEntity
100
AcDbLine
8
3
62
256
370
-1
6
ByLayer
10
104.112775166
20
101.57874647
30
0.0
11
104.559136091
21
101.842010548
31
0.0
0
LINE
5
250
100
AcDbEntity
100
AcDbLine
8
3
62
256
370
-1
6
ByLayer
10
104.559136091
20
101.842010548
30
0.0
11
105.137205236
21
102.180614248
31
0.0
0
LINE
5
251
100
AcDbEntity
100
AcDbLine
8
3
62
256
370
-1
6
ByLayer
10
105.137205236
20
102.180614248
30
0.0
11
105.912590403
21
102.632454852
31
0.0
0
LINE
5
252
100
AcDbEntity
100
AcDbLine
8
3
62
256
370
-1
6
ByLayer
10
105.912590403
20
102.632454852
30
0.0
11
107.003408785
21
103.265743149
31
0.0
0
LINE
5
253
100
AcDbEntity
100
AcDbLine
8
3
62
256
370
-1
6
ByLayer
10
107.003408785
20
103.265743149
30
0.0
11
108.645921187
21
104.216897521
31
0.0
0
LINE
5
254
100
AcDbEntity
100
AcDbLine
8
3
62
256
370
-1
6
ByLayer
10
108.645921187
20
104.216897521
30
0.0
11
111.391435052
21
105.804226065
31
0.0
0
LINE
5
255
100
AcDbEntity
100
AcDbLine
8
3
62
256
370
-1
6
ByLayer
10
111.391435052
20
105.804226065
30
0.0
11
116.89391703
21
108.982655023
31
0.0
0
LINE
5
256
100
AcDbEntity
100
AcDbLine
8
3
62
256
370
-1
6
ByLayer
10
116.89391703
20
108.982655023
30
0.0
11
133.423281809
21
118.526827636
31
0.0
0
LINE
5
257
100
AcDbEntity
100
AcDbLine
8
3
62
256
370
-1
6
ByLayer
10
133.423281809
20
118.526827636
30
0.0
11
-1.2851476367e+15
21
-7.41980333999e+14
31
0.0
0
LINE
5
258
100
AcDbEntity
100
AcDbLine
8
3
62
256
370
-1
6
ByLayer
10
-1.2851476367e+15
20
-7.41980333999e+14
30
0.0
11
67.2436557107
21
80.3180026932
31
0.0
0
LINE
5
259
100
AcDbEntity
100
AcDbLine
8
3
62
256
370
-1
6
ByLayer
10
67.2436557107
20
80.3180026932
30
0.0
11
83.773834042
21
89.8607661939
31
0.0
0
LINE
5
260
100
AcDbEntity
100
AcDbLine
8
3
62
256
370
-1
6
ByLayer
10
83.773834042
20
89.8607661939
30
0.0
11
89.2776752523
21
93.0368408921
31
0.0
0
LINE
5
261
100
AcDbEntity
100
AcDbLine
8
3
62
256
370
-1
6
ByLayer
10
89.2776752523
20
93.0368408921
30
0.0
11
92.0250990284
21
94.6208613737
31
0.0
0
LINE
5
262
100
AcDbEntity
100
AcDbLine
8
3
62
256
370
-1
6
ByLayer
10
92.0250990284
20
94.6208613737
30
0.0
11
93.6700790781
21
95.5677416542
31
0.0
0
LINE
5
263
100
AcDbEntity
100
AcDbLine
8
3
62
256
370
-1
6
ByLayer
10
93.6700790781
20
95.5677416542
30
0.0
11
94.7639320225
21
96.1957739348
31
0.0
0
LINE
5
264
100
AcDbEntity
100
AcDbLine
8
3
62
256
370
-1
6
ByLayer
10
94.7639320225
20
96.1957739348
30
0.0
11
95.5429300468
21
96.6413568852
31
0.0
0
LINE
5
265
100
AcDbEntity
100
AcDbLine
8
3
62
256
370
-1
6
ByLayer
10
95.5429300468
20
96.6413568852
30
0.0
11
96.1252040256
21
96.9726775996
31
0.0
0
LINE
5
266
100
AcDbEntity
100
AcDbLine
8
3
62
256
370
-1
6
ByLayer
10
96.1252040256
20
96.9726775996
30
0.0
11
96.5763778674
21
97.2276054613
31
0.0
0
LINE
5
267
100
AcDbEntity
100
AcDbLine
8
3
62
256
370
-1
6
ByLayer
10
96.5763778674
20
97.2276054613
30
0.0
11
96.9358222275
21
97.4288495613
31
0.0
0
LINE
5
268
100
AcDbEntity
100
AcDbLine
8
3
62
256
370
-1
6
ByLayer
10
96.9358222275
20
97.4288495613
30
0.0
11
97.2285879942
21
97.5908482984
31
0.0
0
LINE
5
269
100
AcDbEntity
100
AcDbLine
8
3
62
256
370
-1
6
ByLayer
10
97.2285879942
20
97.5908482984
30
0.0
11
97.4713730139
21
97.7232140352
31
0.0
0
LINE
5
270
100
AcDbEntity
100
AcDbLine
8
3
62
256
370
-1
6
ByLayer
10
97.4713730139
20
97.7232140352
30
0.0
11
97.6757349292
21
97.8325877573
31
0.0
0
LINE
5
271
100
AcDbEntity
100
AcDbLine
8
3
62
256
370
-1
6
ByLayer
10
97.6757349292
20
97.8325877573
30
0.0
11
97.849927074
21
97.9236987104
31
0.0
0
LINE
5
272
100
AcDbEntity
100
AcDbLine
8
3
62
256
370
-1
6
ByLayer
10
97.849927074
20
97.9236987104
30
0.0
11
98.0
21
98.0
31
0.0
0
LINE
5
273
100
AcDbEntity
100
AcDbLine
8
3
62
256
370
-1
6
ByLayer
10
98.0
20
98.0
30
0.0
11
98.1304899216
21
98.0640656419
31
0.0
0
LINE
5
274
100
AcDbEntity
100
AcDbLine
8
3
62
256
370
-1
6
ByLayer
10
98.1304899216
20
98.0640656419
30
0.0
11
98.2448641725
21
98.1178472568
31
0.0
0
LINE
5
275
100
AcDbEntity
100
AcDbLine
8
3
62
256
370
-1
6
ByLayer
10
98.2448641725
20
98.1178472568
30
0.0
11
98.3458181694
21
98.1628449572
31
0.0
0
LINE
5
276
100
AcDbEntity
100
AcDbLine
8
3
62
256
370
-1
6
ByLayer
10
98.3458181694
20
98.1628449572
30
0.0
11
98.4354785918
21
98.2002239996
31
0.0
0
LINE
5
277
100
AcDbEntity
100
AcDbLine
8
3
62
256
370
-1
6
ByLayer
10
98.4354785918
20
98.2002239996
30
0.0
11
98.5155456021
21
98.2308961382
31
0.0
0
LINE
5
278
100
AcDbEntity
100
AcDbLine
8
3
62
256
370
-1
6
ByLayer
10
98.5155456021
20
98.2308961382
30
0.0
11
98.5873944265
21
98.255577394
31
0.0
0
LINE
5
279
100
AcDbEntity
100
AcDbLine
8
3
62
256
370
-1
6
ByLayer
10
98.5873944265
20
98.255577394
30
0.0
11
98.6521492277
21
98.2748296825
31
0.0
0
LINE
5
280
100
AcDbEntity
100
AcDbLine
8
3
62
256
370
-1
6
ByLayer
10
98.6521492277
20
98.2748296825
30
0.0
11
98.7107377017
21
98.2890911433
31
0.0
0
LINE
5
281
100
AcDbEntity
100
AcDbLine
8
3
62
256
370
-1
6
ByLayer
10
98.7107377017
20
98.2890911433
30
0.0
11
98.7639320225
21
98.2986983833
31
0.0
0
LINE
5
282
100
AcDbEntity
100
AcDbLine
8
3
62
256
370
-1
6
ByLayer
10
98.7639320225
20
98.2986983833
30
0.0
11
98.8123799556
21
98.3039028008
31
0.0
0
LINE
5
283
100
AcDbEntity
100
AcDbLine
8
3
62
256
370
-1
6
ByLayer
10
98.8123799556
20
98.3039028008
30
0.0
11
98.8566287888
21
98.3048824698
31
0.0
0
LINE
5
284
100
AcDbEntity
100
AcDbLine
8
3
62
256
370
-1
6
ByLayer
10
98.8566287888
20
98.3048824698
30
0.0
11
98.8971439418
21
98.3017505959
31
0.0
0
LINE
5
285
100
AcDbEntity
100
AcDbLine
8
3
62
256
370
-1
6
ByLayer
10
98.8971439418
20
98.3017505959
30
0.0
11
98.9343235846
21
98.2945612357
31
0.0
0
LINE
5
286
100
AcDbEntity
100
AcDbLine
8
3
62
256
370
-1
6
ByLayer
10
98.9343235846
20
98.2945612357
30
0.0
11
98.9685102293
21
98.2833127384
31
0.0
0
LINE
5
287
100
AcDbEntity
100
AcDbLine
8
3
62
256
370
-1
6
ByLayer
10
98.9685102293
20
98.2833127384
30
0.0
11
99.0
21
98.2679491924
31
0.0
0
LINE
5
288
100
AcDbEntity
100
AcDbLine
8
3
62
256
370
-1
6
ByLayer
10
99.0
20
98.2679491924
30
0.0
11
99.0290501064
21
98.248360024
31
0.0
0
LINE
5
289
100
AcDbEntity
100
AcDbLine
8
3
62
256
370
-1
6
ByLayer
10
99.0290501064
20
98.248360024
30
0.0
11
99.0558849132
21
98.2243777699
31
0.0
0
LINE
5
290
100
AcDbEntity
100
AcDbLine
8
3
62
256
370
-1
6
ByLayer
10
99.0558849132
20
98.2243777699
30
0.0
11
99.0807009031
21
98.1957739348
31
0.0
0
LINE
5
291
100
AcDbEntity
100
AcDbLine
8
3
62
256
370
-1
6
ByLayer
10
99.0807009031
20
98.1957739348
30
0.0
11
99.103670762
21
98.1622527201
31
0.0
0
LINE
5
292
100
AcDbEntity
100
AcDbLine
8
3
62
256
370
-1
6
ByLayer
10
99.103670762
20
98.1622527201
30
0.0
11
99.1249467604
21
98.1234422719
31
0.0
0
LINE
5
293
100
AcDbEntity
100
AcDbLine
8
3
62
256
370
-1
6
ByLayer
10
99.1249467604
20
98.1234422719
30
0.0
11
99.1446635692
21
98.0788829223
31
0.0
0
LINE
5
294
100
AcDbEntity
100
AcDbLine
8
3
62
256
370
-1
6
ByLayer
10
99.1446635692
20
98.0788829223
30
0.0
11
99.1629406157
21
98.0280116692
31
0.0
0
LINE
5
295
100
AcDbEntity
100
AcDbLine
8
3
62
256
370
-1
6
ByLayer
10
99.1629406157
20
98.0280116692
30
0.0
11
99.1798840654
21
97.9701418319
31
0.0
0
LINE
5
296
100
AcDbEntity
100
AcDbLine
8
3
62
256
370
-1
6
ByLayer
10
99.1798840654
20
97.9701418319
30
0.0
11
99.195588495
21
97.9044363848
31
0.0
0
LINE
5
297
100
AcDbEntity
100
AcDbLine
8
3
62
256
370
-1
6
ByLayer
10
99.195588495
20
97.9044363848
30
0.0
11
99.2101383127
21
97.8298728497
31
0.0
0
LINE
5
298
100
AcDbEntity
100
AcDbLine
8
3
62
256
370
-1
6
ByLayer
10
99.2101383127
20
97.8298728497
30
0.0
11
99.2236089666
21
97.7451967155
31
0.0
0
LINE
5
299
100
AcDbEntity
100
AcDbLine
8
3
62
256
370
-1
6
ByLayer
10
99.2236089666
20
97.7451967155
30
0.0
11
99.2360679775
21
97.6488589908
31
0.0
0
LINE
5
300
100
AcDbEntity
100
AcDbLine
8
3
62
256
370
-1
6
ByLayer
10
99.2360679775
20
97.6488589908
30
0.0
11
99.2475758243
21
97.5389314147
31
0.0
0
LINE
5
301
100
AcDbEntity
100
AcDbLine
8
3
62
256
370
-1
6
ByLayer
10
99.2475758243
20
97.5389314147
30
0.0
11
99.258186705
21
97.4129896005
31
0.0
0
LINE
5
302
100
AcDbEntity
100
AcDbLine
8
3
62
256
370
-1
6
ByLayer
10
99.258186705
20
97.4129896005
30
0.0
11
99.2679491924
21
97.2679491924
31
0.0
0
LINE
5
303
100
AcDbEntity
100
AcDbLine
8
3
62
256
370
-1
6
ByLayer
10
99.2679491924
20
97.2679491924
30
0.0
11
99.2769068003
21
97.0998315813
31
0.0
0
LINE
5
304
100
AcDbEntity
100
AcDbLine
8
3
62
256
370
-1
6
ByLayer
10
99.2769068003
20
97.0998315813
30
0.0
11
99.2850984728
21
96.9034212822
31
0.0
0
LINE
5
305
100
AcDbEntity
100
AcDbLine
8
3
62
256
370
-1
6
ByLayer
10
99.2850984728
20
96.9034212822
30
0.0
11
99.2925590086
21
96.671751811
31
0.0
0
LINE
5
306
100
AcDbEntity
100
AcDbLine
8
3
62
256
370
-1
6
ByLayer
10
99.2925590086
20
96.671751811
30
0.0
11
99.2993194277
21
96.3953109478
31
0.0
0
LINE
5
307
100
AcDbEntity
100
AcDbLine
8
3
62
256
370
-1
6
ByLayer
10
99.2993194277
20
96.3953109478
30
0.0
11
99.3054072893
21
96.0607689879
31
0.0
0
LINE
5
308
100
AcDbEntity
100
AcDbLine
8
3
62
256
370
-1
6
ByLayer
10
99.3054072893
20
96.0607689879
30
0.0
11
99.3108469665
21
95.6488589908
31
0.0
0
LINE
5
309
100
AcDbEntity
100
AcDbLine
8
3
62
256
370
-1
6
ByLayer
10
99.3108469665
20
95.6488589908
30
0.0
11
99.315659883
21
95.1306670515
31
0.0
0
LINE
5
310
100
AcDbEntity
100
AcDbLine
8
3
62
256
370
-1
6
ByLayer
10
99.315659883
20
95.1306670515
30
0.0
11
99.3198647169
21
94.4607426367
31
0.0
0
LINE
5
311
100
AcDbEntity
100
AcDbLine
8
3
62
256
370
-1
6
ByLayer
10
99.3198647169
20
94.4607426367
30
0.0
11
99.3234775746
21
93.563319083
31
0.0
0
LINE
5
312
100
AcDbEntity
100
AcDbLine
8
3
62
256
370
-1
6
ByLayer
10
99.3234775746
20
93.563319083
30
0.0
11
99.3265121374
21
92.3019985048
31
0.0
0
LINE
5
313
100
AcDbEntity
100
AcDbLine
8
3
62
256
370
-1
6
ByLayer
10
99.3265121374
20
92.3019985048
30
0.0
11
99.3289797849
21
90.4039638528
31
0.0
0
LINE
5
314
100
AcDbEntity
100
AcDbLine
8
3
62
256
370
-1
6
ByLayer
10
99.3289797849
20
90.4039638528
30
0.0
11
99.3308896958
21
87.2326148269
31
0.0
0
LINE
5
315
100
AcDbEntity
100
AcDbLine
8
3
62
256
370
-1
6
ByLayer
10
99.3308896958
20
87.2326148269
30
0.0
11
99.332248928
21
80.8781111713
31
0.0
0
LINE
5
316
100
AcDbEntity
100
AcDbLine
8
3
62
256
370
-1
6
ByLayer
10
99.332248928
20
80.8781111713
30
0.0
11
99.3330624798
21
61.791175057
31
0.0
0
LINE
5
317
100
AcDbEntity
100
AcDbLine
8
3
62
256
370
-1
6
ByLayer
10
99.3330624798
20
61.791175057
30
0.0
11
99.3333333333
21
-3.62928416186e+15
31
0.0
0
LINE
5
318
100
AcDbEntity
100
AcDbLine
8
3
62
256
370
-1
6
ByLayer
10
99.3333333333
20
-3.62928416186e+15
30
0.0
11
99.3330624798
21
138.208824943
31
0.0
0
LINE
5
319
100
AcDbEntity
100
AcDbLine
8
3
62
256
370
-1
6
ByLayer
10
99.3330624798
20
138.208824943
30
0.0
11
99.332248928
21
119.121888829
31
0.0
0
LINE
5
320
100
AcDbEntity
100
AcDbLine
8
3
62
256
370
-1
6
ByLayer
10
99.332248928
20
119.121888829
30
0.0
11
99.3308896958
21
112.767385173
31
0.0
0
LINE
5
321
100
AcDbEntity
100
AcDbLine
8
3
62
256
370
-1
6
ByLayer
10
99.3308896958
20
112.767385173
30
0.0
11
99.3289797849
21
109.596036147
31
0.0
0
LINE
5
322
100
AcDbEntity
100
AcDbLine
8
3
62
256
370
-1
6
ByLayer
10
99.3289797849
20
109.596036147
30
0.0
11
99.3265121374
21
107.698001495
31
0.0
0
LINE
5
323
100
AcDbEntity
100
AcDbLine
8
3
62
256
370
-1
6
ByLayer
10
99.3265121374
20
107.698001495
30
0.0
11
99.3234775746
21
106.436680917
31
0.0
0
LINE
5
324
100
AcDbEntity
100
AcDbLine
8
3
62
256
370
-1
6
ByLayer
10
99.3234775746
20
106.436680917
30
0.0
11
99.3198647169
21
105.539257363
31
0.0
0
LINE
5
325
100
AcDbEntity
100
AcDbLine
8
3
62
256
370
-1
6
ByLayer
10
99.3198647169
20
105.539257363
30
0.0
11
99.315659883
21
104.869332948
31
0.0
0
LINE
5
326
100
AcDbEntity
100
AcDbLine
8
3
62
256
370
-1
6
ByLayer
10
99.315659883
20
104.869332948
30
0.0
11
99.3108469665
21
104.351141009
31
0.0
0
LINE
5
327
100
AcDbEntity
100
AcDbLine
8
3
62
256
370
-1
6
ByLayer
10
99.3108469665
20
104.351141009
30
0.0
11
99.3054072893
21
103.939231012
31
0.0
0
LINE
5
328
100
AcDbEntity
100
AcDbLine
8
3
62
256
370
-1
6
ByLayer
10
99.3054072893
20
103.939231012
30
0.0
11
99.2993194277
21
103.604689052
31
0.0
0
LINE
5
329
100
AcDbEntity
100
AcDbLine
8
3
62
256
370
-1
6
ByLayer
10
99.2993194277
20
103.604689052
30
0.0
11
99.2925590086
21
103.328248189
31
0.0
0
LINE
5
330
100
AcDbEntity
100
AcDbLine
8
3
62
256
370
-1
6
ByLayer
10
99.2925590086
20
103.328248189
30
0.0
11
99.2850984728
21
103.096578718
31
0.0
0
LINE
5
331
100
AcDbEntity
100
AcDbLine
8
3
62
256
370
-1
6
ByLayer
10
99.2850984728
20
103.096578718
30
0.0
11
99.2769068003
21
102.900168419
31
0.0
0
LINE
5
332
100
AcDbEntity
100
AcDbLine
8
3
62
256
370
-1
6
ByLayer
10
99.2769068003
20
102.900168419
30
0.0
11
99.2679491924
21
102.732050808
31
0.0
0
LINE
5
333
100
AcDbEntity
100
AcDbLine
8
3
62
256
370
-1
6
ByLayer
10
99.2679491924
20
102.732050808
30
0.0
11
99.258186705
21
102.5870104
31
0.0
0
LINE
5
334
100
AcDbEntity
100
AcDbLine
8
3
62
256
370
-1
6
ByLayer
10
99.258186705
20
102.5870104
30
0.0
11
99.2475758243
21
102.461068585
31
0.0
0
LINE
5
335
100
AcDbEntity
100
AcDbLine
8
3
62
256
370
-1
6
ByLayer
10
99.2475758243
20
102.461068585
30
0.0
11
99.2360679775
21
102.351141009
31
0.0
0
LINE
5
336
100
AcDbEntity
100
AcDbLine
8
3
62
256
370
-1
6
ByLayer
10
99.2360679775
20
102.351141009
30
0.0
11
99.2236089666
21
102.254803284
31
0.0
0
LINE
5
337
100
AcDbEntity
100
AcDbLine
8
3
62
256
370
-1
6
ByLayer
10
99.2236089666
20
102.254803284
30
0.0
11
99.2101383127
21
102.17012715
31
0.0
0
LINE
5
338
100
AcDbEntity
100
AcDbLine
8
3
62
256
370
-1
6
ByLayer
10
99.2101383127
20
102.17012715
30
0.0
11
99.195588495
21
102.095563615
31
0.0
0
LINE
5
339
100
AcDbEntity
100
AcDbLine
8
3
62
256
370
-1
6
ByLayer
10
99.195588495
20
102.095563615
30
0.0
11
99.1798840654
21
102.029858168
31
0.0
0
LINE
5
340
100
AcDbEntity
100
AcDbLine
8
3
62
256
370
-1
6
ByLayer
10
99.1798840654
20
102.029858168
30
0.0
11
99.1629406157
21
101.971988331
31
0.0
0
LINE
5
341
100
AcDbEntity
100
AcDbLine
8
3
62
256
370
-1
6
ByLayer
10
99.1629406157
20
101.971988331
30
0.0
11
99.1446635692
21
101.921117078
31
0.0
0
LINE
5
342
100
AcDbEntity
100
AcDbLine
8
3
62
256
370
-1
6
ByLayer
10
99.1446635692
20
101.921117078
30
0.0
11
99.1249467604
21
101.876557728
31
0.0
0
LINE
5
343
100
AcDbEntity
100
AcDbLine
8
3
62
256
370
-1
6
ByLayer
10
99.1249467604
20
101.876557728
30
0.0
11
99.103670762
21
101.83774728
31
0.0
0
LINE
5
344
100
AcDbEntity
100
AcDbLine
8
3
62
256
370
-1
6
ByLayer
10
99.103670762
20
101.83774728
30
0.0
11
99.0807009031
21
101.804226065
31
0.0
0
LINE
5
345
100
AcDbEntity
100
AcDbLine
8
3
62
256
370
-1
6
ByLayer
10
99.0807009031
20
101.804226065
30
0.0
11
99.0558849132
21
101.77562223
31
0.0
0
LINE
5
346
100
AcDbEntity
100
AcDbLine
8
3
62
256
370
-1
6
ByLayer
10
99.0558849132
20
101.77562223
30
0.0
11
99.0290501064
21
101.751639976
31
0.0
0
LINE
5
347
100
AcDbEntity
100
AcDbLine
8
3
62
256
370
-1
6
ByLayer
10
99.0290501064
20
101.751639976
30
0.0
11
99.0
21
101.732050808
31
0.0
0
LINE
5
348
100
AcDbEntity
100
AcDbLine
8
3
62
256
370
-1
6
ByLayer
10
99.0
20
101.732050808
30
0.0
11
98.9685102293
21
101.716687262
31
0.0
0
LINE
5
349
100
AcDbEntity
100
AcDbLine
8
3
62
256
370
-1
6
ByLayer
10
98.9685102293
20
101.716687262
30
0.0
11
98.9343235846
21
101.705438764
31
0.0
0
LINE
5
350
100
AcDbEntity
100
AcDbLine
8
3
62
256
370
-1
6
ByLayer
10
98.9343235846
20
101.705438764
30
0.0
11
98.8971439418
21
101.698249404
31
0.0
0
LINE
5
351
100
AcDbEntity
100
AcDbLine
8
3
62
256
370
-1
6
ByLayer
10
98.8971439418
20
101.698249404
30
0.0
11
98.8566287888
21
101.69511753
31
0.0
0
LINE
5
352
100
AcDbEntity
100
AcDbLine
8
3
62
256
370
-1
6
ByLayer
10
98.8566287888
20
101.69511753
30
0.0
11
98.8123799556
21
101.696097199
31
0.0
0
LINE
5
353
100
AcDbEntity
100
AcDbLine
8
3
62
256
370
-1
6
ByLayer
10
98.8123799556
20
101.696097199
30
0.0
11
98.7639320225
21
101.701301617
31
0.0
0
LINE
5
354
100
AcDbEntity
100
AcDbLine
8
3
62
256
370
-1
6
ByLayer
10
98.7639320225
20
101.701301617
30
0.0
11
98.7107377017
21
101.710908857
31
0.0
0
LINE
5
355
100
AcDbEntity
100
AcDbLine
8
3
62
256
370
-1
6
ByLayer
10
98.7107377017
20
101.710908857
30
0.0
11
98.6521492277
21
101.725170318
31
0.0
0
LINE
5
356
100
AcDbEntity
100
AcDbLine
8
3
62
256
370
-1
6
ByLayer
10
98.6521492277
20
101.725170318
30
0.0
11
98.5873944265
21
101.744422606
31
0.0
0
LINE
5
357
100
AcDbEntity
100
AcDbLine
8
3
62
256
370
-1
6
ByLayer
10
98.5873944265
20
101.744422606
30
0.0
11
98.5155456021
21
101.769103862
31
0.0
0
LINE
5
358
100
AcDbEntity
100
AcDbLine
8
3
62
256
370
-1
6
ByLayer
10
98.5155456021
20
101.769103862
30
0.0
11
98.4354785918
21
101.799776
31
0.0
0
LINE
5
359
100
AcDbEntity
100
AcDbLine
8
3
62
256
370
-1
6
ByLayer
10
98.4354785918
20
101.799776
30
0.0
11
98.3458181694
21
101.837155043
31
0.0
0
LINE
5
360
100
AcDbEntity
100
AcDbLine
8
3
62
256
370
-1
6
ByLayer
10
98.3458181694
20
101.837155043
30
0.0
11
98.2448641725
21
101.882152743
31
0.0
0
LINE
5
361
100
AcDbEntity
100
AcDbLine
8
3
62
256
370
-1
6
ByLayer
10
98.2448641725
20
101.882152743
30
0.0
11
98.1304899216
21
101.935934358
31
0.0
0
LINE
5
362
100
AcDbEntity
100
AcDbLine
8
3
62
256
370
-1
6
ByLayer
10
98.1304899216
20
101.935934358
30
0.0
11
98.0
21
102.0
31
0.0
0
LINE
5
363
100
AcDbEntity
100
AcDbLine
8
3
62
256
370
-1
6
ByLayer
10
98.0
20
102.0
30
0.0
11
97.849927074
21
102.07630129
31
0.0
0
LINE
5
364
100
AcDbEntity
100
AcDbLine
8
3
62
256
370
-1
6
ByLayer
10
97.849927074
20
102.07630129
30
0.0
11
97.6757349292
21
102.167412243
31
0.0
0
LINE
5
365
100
AcDbEntity
100
AcDbLine
8
3
62
256
370
-1
6
ByLayer
10
97.6757349292
20
102.167412243
30
0.0
11
97.4713730139
21
102.276785965
31
0.0
0
LINE
5
366
100
AcDbEntity
100
AcDbLine
8
3
62
256
370
-1
6
ByLayer
10
97.4713730139
20
102.276785965
30
0.0
11
97.2285879942
21
102.409151702
31
0.0
0
LINE
5
367
100
AcDbEntity
100
AcDbLine
8
3
62
256
370
-1
6
ByLayer
10
97.2285879942
20
102.409151702
30
0.0
11
96.9358222275
21
102.571150439
31
0.0
0
LINE
5
368
100
AcDbEntity
100
AcDbLine
8
3
62
256
370
-1
6
ByLayer
10
96.9358222275
20
102.571150439
30
0.0
11
96.5763778674
21
102.772394539
31
0.0
0
LINE
5
369
100
AcDbEntity
100
AcDbLine
8
3
62
256
370
-1
6
ByLayer
10
96.5763778674
20
102.772394539
30
0.0
11
96.1252040256
21
103.0273224
31
0.0
0
LINE
5
370
100
AcDbEntity
100
AcDbLine
8
3
62
256
370
-1
6
ByLayer
10
96.1252040256
20
103.0273224
30
0.0
11
95.5429300468
21
103.358643115
31
0.0
0
LINE
5
371
100
AcDbEntity
100
AcDbLine
8
3
62
256
370
-1
6
ByLayer
10
95.5429300468
20
103.358643115
30
0.0
11
94.7639320225
21
103.804226065
31
0.0
0
LINE
5
372
100
AcDbEntity
100
AcDbLine
8
3
62
256
370
-1
6
ByLayer
10
94.7639320225
20
103.804226065
30
0.0
11
93.6700790781
21
104.432258346
31
0.0
0
LINE
5
373
100
AcDbEntity
100
AcDbLine
8
3
62
256
370
-1
6
ByLayer
10
93.6700790781
20
104.432258346
30
0.0
11
92.0250990284
21
105.379138626
31
0.0
0
LINE
5
374
100
AcDbEntity
100
AcDbLine
8
3
62
256
370
-1
6
ByLayer
10
92.0250990284
20
105.379138626
30
0.0
11
89.2776752523
21
106.963159108
31
0.0
0
LINE
5
375
100
AcDbEntity
100
AcDbLine
8
3
62
256
370
-1
6
ByLayer
10
89.2776752523
20
106.963159108
30
0.0
11
83.773834042
21
110.139233806
31
0.0
0
LINE
5
376
100
AcDbEntity
100
AcDbLine
8
3
62
256
370
-1
6
ByLayer
10
83.773834042
20
110.139233806
30
0.0
11
67.2436557107
21
119.681997307
31
0.0
0
LINE
5
377
100
AcDbEntity
100
AcDbLine
8
3
62
256
370
-1
6
ByLayer
10
67.2436557107
20
119.681997307
30
0.0
11
-7.06991159371e+14
21
4.08181536178e+14
31
0.0
0
LINE
5
378
100
AcDbEntity
100
AcDbLine
8
3
62
256
370
-1
6
ByLayer
10
-7.06991159371e+14
20
4.08181536178e+14
30
0.0
11
133.423281809
21
81.4731723637
31
0.0
0
LINE
5
379
100
AcDbEntity
100
AcDbLine
8
3
62
256
370
-1
6
ByLayer
10
133.423281809
20
81.4731723637
30
0.0
11
116.89391703
21
91.0173449774
31
0.0
0
LINE
5
380
100
AcDbEntity
100
AcDbLine
8
3
62
256
370
-1
6
ByLayer
10
116.89391703
20
91.0173449774
30
0.0
11
111.391435052
21
94.1957739348
31
0.0
0
LINE
5
381
100
AcDbEntity
100
AcDbLine
8
3
62
256
370
-1
6
ByLayer
10
111.391435052
20
94.1957739348
30
0.0
11
108.645921187
21
95.7831024791
31
0.0
0
LINE
5
382
100
AcDbEntity
100
AcDbLine
8
3
62
256
370
-1
6
ByLayer
10
108.645921187
20
95.7831024791
30
0.0
11
107.003408785
21
96.7342568506
31
0.0
0
LINE
5
383
100
AcDbEntity
100
AcDbLine
8
3
62
256
370
-1
6
ByLayer
10
107.003408785
20
96.7342568506
30
0.0
11
105.912590403
21
97.3675451481
31
0.0
0
LINE
5
384
100
AcDbEntity
100
AcDbLine
8
3
62
256
370
-1
6
ByLayer
10
105.912590403
20
97.3675451481
30
0.0
11
105.137205236
21
97.8193857515
31
0.0
0
LINE
5
385
100
AcDbEntity
100
AcDbLine
8
3
62
256
370
-1
6
ByLayer
10
105.137205236
20
97.8193857515
30
0.0
11
104.559136091
21
98.1579894519
31
0.0
0
LINE
5
386
100
AcDbEntity
100
AcDbLine
8
3
62
256
370
-1
6
ByLayer
10
104.559136091
20
98.1579894519
30
0.0
11
104.112775166
21
98.4212535295
31
0.0
0
LINE
5
387
100
AcDbEntity
100
AcDbLine
8
3
62
256
370
-1
6
ByLayer
10
104.112775166
20
98.4212535295
30
0.0
11
103.758770483
21
98.6319194267
31
0.0
0
LINE
5
388
100
AcDbEntity
100
AcDbLine
8
3
62
256
370
-1
6
ByLayer
10
103.758770483
20
98.6319194267
30
0.0
11
103.472092578
21
98.8044626495
31
0.0
0
LINE
5
389
100
AcDbEntity
100
AcDbLine
8
3
62
256
370
-1
6
ByLayer
10
103.472092578
20
98.8044626495
30
0.0
11
103.236067977
21
98.9485377758
31
0.0
0
LINE
5
390
100
AcDbEntity
100
AcDbLine
8
3
62
256
370
-1
6
ByLayer
10
103.236067977
20
98.9485377758
30
0.0
11
103.039166598
21
99.0708335249
31
0.0
0
LINE
5
391
100
AcDbEntity
100
AcDbLine
8
3
62
256
370
-1
6
ByLayer
10
103.039166598
20
99.0708335249
30
0.0
11
102.873166126
21
99.1761328709
31
0.0
0
LINE
5
392
100
AcDbEntity
100
AcDbLine
8
3
62
256
370
-1
6
ByLayer
10
102.873166126
20
99.1761328709
30
0.0
11
102.732050808
21
99.2679491924
31
0.0
0
LINE
5
393
100
AcDbEntity
100
AcDbLine
8
3
62
256
370
-1
6
ByLayer
10
102.732050808
20
99.2679491924
30
0.0
11
102.611323373
21
99.3489239585
31
0.0
0
LINE
5
394
100
AcDbEntity
100
AcDbLine
8
3
62
256
370
-1
6
ByLayer
10
102.611323373
20
99.3489239585
30
0.0
11
102.507560003
21
99.4210841579
31
0.0
0
LINE
5
395
100
AcDbEntity
100
AcDbLine
8
3
62
256
370
-1
6
ByLayer
10
102.507560003
20
99.4210841579
30
0.0
11
102.418113853
21
99.4860140337
31
0.0
0
LINE
5
396
100
AcDbEntity
100
AcDbLine
8
3
62
256
370
-1
6
ByLayer
10
102.418113853
20
99.4860140337
30
0.0
11
102.340912442
21
99.5449727159
31
0.0
0
LINE
5
397
100
AcDbEntity
100
AcDbLine
8
3
62
256
370
-1
6
ByLayer
10
102.340912442
20
99.5449727159
30
0.0
11
102.274316085
21
99.5989767115
31
0.0
0
LINE
5
398
100
AcDbEntity
100
AcDbLine
8
3
62
256
370
-1
6
ByLayer
10
102.274316085
20
99.5989767115
30
0.0
11
102.217017079
21
99.6488589908
31
0.0
0
LINE
5
399
100
AcDbEntity
100
AcDbLine
8
3
62
256
370
-1
6
ByLayer
10
102.217017079
20
99.6488589908
30
0.0
11
102.167966707
21
99.6953121494
31
0.0
0
LINE
5
400
100
AcDbEntity
100
AcDbLine
8
3
62
256
370
-1
6
ByLayer
10
102.167966707
20
99.6953121494
30
0.0
11
102.126321683
21
99.7389205259
31
0.0
0
LINE
5
401
100
AcDbEntity
100
AcDbLine
8
3
62
256
370
-1
6
ByLayer
10
102.126321683
20
99.7389205259
30
0.0
11
102.091404408
21
99.780184539
31
0.0
0
LINE
5
402
100
AcDbEntity
100
AcDbLine
8
3
62
256
370
-1
6
ByLayer
10
102.091404408
20
99.780184539
30
0.0
11
102.062673284
21
99.8195394711
31
0.0
0
LINE
5
403
100
AcDbEntity
100
AcDbLine
8
3
62
256
370
-1
6
ByLayer
10
102.062673284
20
99.8195394711
30
0.0
11
102.039700449
21
99.8573702503
31
0.0
0
LINE
5
404
100
AcDbEntity
100
AcDbLine
8
3
62
256
370
-1
6
ByLayer
10
102.039700449
20
99.8573702503
30
0.0
11
102.022155155
21
99.894023339
31
0.0
0
LINE
5
405
100
AcDbEntity
100
AcDbLine
8
3
62
256
370
-1
6
ByLayer
10
102.022155155
20
99.894023339
30
0.0
11
102.009791502
21
99.9298165342
31
0.0
0
LINE
5
406
100
AcDbEntity
100
AcDbLine
8
3
62
256
370
-1
6
ByLayer
10
102.009791502
20
99.9298165342
30
0.0
11
102.002439664
21
99.9650472856
31
0.0
0
MTEXT
5
407
100
AcDbEntity
100
AcDbMText
8
3
62
256
370
-1
6
ByLayer
10
1.13149882142e+16
20
-1.08878524856e+16
30
0.0
40
1
41
100.0
71
8
72
0
1
Epispiral Curve
7
normallatin1
50
0.0
73
1
44
1.0
0
ENDSEC
  0
SECTION
  2
OBJECTS
  0
DICTIONARY
  5
C
100
AcDbDictionary
280
0
281
1
  3
ACAD_GROUP
350
D
  3
ACAD_LAYOUT
350
1A
  3
ACAD_MLINESTYLE
350
17
  3
ACAD_PLOTSETTINGS
350
19
  3
ACAD_PLOTSTYLENAME
350
E
  3
AcDbVariableDictionary
350
48
  0
DICTIONARY
  5
D
100
AcDbDictionary
280
0
281
1
  0
ACDBDICTIONARYWDFLT
  5
E
100
AcDbDictionary
281
1
  3
Normal
350
F
100
AcDbDictionaryWithDefault
340
F
  0
ACDBPLACEHOLDER
  5
F
  0
DICTIONARY
  5
17
100
AcDbDictionary
280
0
281
1
  3
Standard
350
18
  0
MLINESTYLE
  5
18
100
AcDbMlineStyle
  2
STANDARD
 70
0
  3

 62
256
 51
90.0
 52
90.0
 71
2
 49
0.5
 62
256
  6
BYLAYER
 49
-0.5
 62
256
  6
BYLAYER
  0
DICTIONARY
  5
19
100
AcDbDictionary
280
0
281
1
  0
DICTIONARY
  5
1A
100
AcDbDictionary
281
1
  3
Layout1
350
1E
  3
Layout2
350
26
  3
Model
350
22
  0
LAYOUT
  5
1E
100
AcDbPlotSettings
  1

  2
C:\Program Files\AutoCAD 2002\plotters\DWF ePlot (optimized for plotting).pc3
  4

  6

 40
0.0
 41
0.0
 42
0.0
 43
0.0
 44
0.0
 45
0.0
 46
0.0
 47
0.0
 48
0.0
 49
0.0
140
0.0
141
0.0
142
1.0
143
1.0
 70
688
 72
0
 73
0
 74
5
  7

 75
16
147
1.0
148
0.0
149
0.0
100
AcDbLayout
  1
Layout1
 70
1
 71
1
 10
0.0
 20
0.0
 11
420.0
 21
297.0
 12
0.0
 22
0.0
 32
0.0
 14
100000000000000000000.0
 24
100000000000000000000.0
 34
100000000000000000000.0
 15
-100000000000000000000.0
 25
-100000000000000000000.0
 35
-100000000000000000000.0
146
0.0
 13
0.0
 23
0.0
 33
0.0
 16
1.0
 26
0.0
 36
0.0
 17
0.0
 27
1.0
 37
0.0
 76
0
330
1B
  0
LAYOUT
  5
22
100
AcDbPlotSettings
  1

  2
C:\Program Files\AutoCAD 2002\plotters\DWF ePlot (optimized for plotting).pc3
  4

  6

 40
0.0
 41
0.0
 42
0.0
 43
0.0
 44
0.0
 45
0.0
 46
0.0
 47
0.0
 48
0.0
 49
0.0
140
0.0
141
0.0
142
1.0
143
1.0
 70
1712
 72
0
 73
0
 74
0
  7

 75
0
147
1.0
148
0.0
149
0.0
100
AcDbLayout
  1
Model
 70
1
 71
0
 10
0.0
 20
0.0
 11
12.0
 21
9.0
 12
0.0
 22
0.0
 32
0.0
 14
0.0
 24
0.0
 34
0.0
 15
0.0
 25
0.0
 35
0.0
146
0.0
 13
0.0
 23
0.0
 33
0.0
 16
1.0
 26
0.0
 36
0.0
 17
0.0
 27
1.0
 37
0.0
 76
0
330
1F
  0
LAYOUT
  5
26
100
AcDbPlotSettings
  1

  2
C:\Program Files\AutoCAD 2002\plotters\DWF ePlot (optimized for plotting).pc3
  4

  6

 40
0.0
 41
0.0
 42
0.0
 43
0.0
 44
0.0
 45
0.0
 46
0.0
 47
0.0
 48
0.0
 49
0.0
140
0.0
141
0.0
142
1.0
143
1.0
 70
688
 72
0
 73
0
 74
5
  7

 75
16
147
1.0
148
0.0
149
0.0
100
AcDbLayout
  1
Layout2
 70
1
 71
2
 10
0.0
 20
0.0
 11
12.0
 21
9.0
 12
0.0
 22
0.0
 32
0.0
 14
0.0
 24
0.0
 34
0.0
 15
0.0
 25
0.0
 35
0.0
146
0.0
 13
0.0
 23
0.0
 33
0.0
 16
1.0
 26
0.0
 36
0.0
 17
0.0
 27
1.0
 37
0.0
 76
0
330
23
  0
DICTIONARY
  5
48
100
AcDbDictionary
281
1
  3
DIMASSOC
350
4A
  3
HIDETEXT
350
49
  0
DICTIONARYVAR
  5
49
100
DictionaryVariables
280
0
  1
2
  0
DICTIONARYVAR
  5
4A
100
DictionaryVariables
280
0
  1
1
  0
ENDSEC
  0
EOF
