999
dxflib 2.0.4.8
  0
SECTION
  2
HEADER
  9
$ACADVER
  1
AC1015
  9
$HANDSEED
  5
FFFF
  9
$DIMASZ
 40
2.5
  9
$DIMGAP
 40
0.625
  9
$DIMEXO
 40
0.625
  9
$INSUNITS
 70
4
  9
$DIMTXT
 40
2.5
  9
$PLIMMAX
 10
210.0
 20
297.0
  9
$PLIMMIN
 10
0.0
 20
0.0
  9
$DIMEXE
 40
1.25
  0
ENDSEC
  0
SECTION
  2
TABLES
  0
TABLE
  2
VPORT
  5
8
100
AcDbSymbolTable
 70
1
  0
VPORT
  5
30
100
AcDbSymbolTableRecord
100
AcDbViewportTableRecord
  2
*Active
 70
0
 10
0.0
 20
0.0
 11
1.0
 21
1.0
 12
286.3055555555554861
 22
148.5
 13
0.0
 23
0.0
 14
10.0
 24
10.0
 15
10.0
 25
10.0
 16
0.0
 26
0.0
 36
1.0
 17
0.0
 27
0.0
 37
0.0
 40
297.0
 41
1.92798353909465
 42
50.0
 43
0.0
 44
0.0
 50
0.0
 51
0.0
 71
0
 72
100
 73
1
 74
3
 75
1
 76
1
 77
0
 78
0
281
0
 65
1
110
0.0
120
0.0
130
0.0
111
1.0
121
0.0
131
0.0
112
0.0
122
1.0
132
0.0
 79
0
146
0.0
  0
ENDTAB
  0
TABLE
  2
LTYPE
  5
5
100
AcDbSymbolTable
 70
21
  0
LTYPE
  5
14
100
AcDbSymbolTableRecord
100
AcDbLinetypeTableRecord
  2
ByBlock
 70
0
  3

 72
65
 73
0
 40
0.0
  0
LTYPE
  5
15
100
AcDbSymbolTableRecord
100
AcDbLinetypeTableRecord
  2
ByLayer
 70
0
  3

 72
65
 73
0
 40
0.0
  0
LTYPE
  5
16
100
AcDbSymbolTableRecord
100
AcDbLinetypeTableRecord
  2
CONTINUOUS
 70
0
  3
Solid line
 72
65
 73
0
 40
0.0
  0
LTYPE
  5
31
100
AcDbSymbolTableRecord
100
AcDbLinetypeTableRecord
  2
DOT
 70
0
  3
Dot . . . . . . . . . . . . . . . . . . . . . .
 72
65
 73
2
 40
6.3499999999999996
 49
0.0
 74
0
 49
-6.3499999999999996
 74
0
  0
LTYPE
  5
32
100
AcDbSymbolTableRecord
100
AcDbLinetypeTableRecord
  2
DOT2
 70
0
  3
Dot (.5x) .....................................
 72
65
 73
2
 40
3.1749999999999998
 49
0.0
 74
0
 49
-3.1749999999999998
 74
0
  0
LTYPE
  5
33
100
AcDbSymbolTableRecord
100
AcDbLinetypeTableRecord
  2
DOTX2
 70
0
  3
Dot (2x) .  .  .  .  .  .  .  .  .  .  .  .  .
 72
65
 73
2
 40
12.6999999999999993
 49
0.0
 74
0
 49
-12.6999999999999993
 74
0
  0
LTYPE
  5
34
100
AcDbSymbolTableRecord
100
AcDbLinetypeTableRecord
  2
DASHED
 70
0
  3
Dashed __ __ __ __ __ __ __ __ __ __ __ __ __ _
 72
65
 73
2
 40
19.0500000000000007
 49
12.6999999999999993
 74
0
 49
-6.3499999999999996
 74
0
  0
LTYPE
  5
35
100
AcDbSymbolTableRecord
100
AcDbLinetypeTableRecord
  2
DASHED2
 70
0
  3
Dashed (.5x) _ _ _ _ _ _ _ _ _ _ _ _ _ _ _ _ _
 72
65
 73
2
 40
9.5250000000000004
 49
6.3499999999999996
 74
0
 49
-3.1749999999999998
 74
0
  0
LTYPE
  5
36
100
AcDbSymbolTableRecord
100
AcDbLinetypeTableRecord
  2
DASHEDX2
 70
0
  3
Dashed (2x) ____  ____  ____  ____  ____  ___
 72
65
 73
2
 40
38.1000000000000014
 49
25.3999999999999986
 74
0
 49
-12.6999999999999993
 74
0
  0
LTYPE
  5
37
100
AcDbSymbolTableRecord
100
AcDbLinetypeTableRecord
  2
DASHDOT
 70
0
  3
Dash dot __ . __ . __ . __ . __ . __ . __ . __
 72
65
 73
4
 40
25.3999999999999986
 49
12.6999999999999993
 74
0
 49
-6.3499999999999996
 74
0
 49
0.0
 74
0
 49
-6.3499999999999996
 74
0
  0
LTYPE
  5
38
100
AcDbSymbolTableRecord
100
AcDbLinetypeTableRecord
  2
DASHDOT2
 70
0
  3
Dash dot (.5x) _._._._._._._._._._._._._._._.
 72
65
 73
4
 40
12.6999999999999993
 49
6.3499999999999996
 74
0
 49
-3.1749999999999998
 74
0
 49
0.0
 74
0
 49
-3.1749999999999998
 74
0
  0
LTYPE
  5
39
100
AcDbSymbolTableRecord
100
AcDbLinetypeTableRecord
  2
DASHDOTX2
 70
0
  3
Dash dot (2x) ____  .  ____  .  ____  .  ___
 72
65
 73
4
 40
50.7999999999999972
 49
25.3999999999999986
 74
0
 49
-12.6999999999999993
 74
0
 49
0.0
 74
0
 49
-12.6999999999999993
 74
0
  0
LTYPE
  5
3A
100
AcDbSymbolTableRecord
100
AcDbLinetypeTableRecord
  2
DIVIDE
 70
0
  3
Divide ____ . . ____ . . ____ . . ____ . . ____
 72
65
 73
6
 40
31.75
 49
12.6999999999999993
 74
0
 49
-6.3499999999999996
 74
0
 49
0.0
 74
0
 49
-6.3499999999999996
 74
0
 49
0.0
 74
0
 49
-6.3499999999999996
 74
0
  0
LTYPE
  5
3B
100
AcDbSymbolTableRecord
100
AcDbLinetypeTableRecord
  2
DIVIDE2
 70
0
  3
Divide (.5x) __..__..__..__..__..__..__..__.._
 72
65
 73
6
 40
15.875
 49
6.3499999999999996
 74
0
 49
-3.1749999999999998
 74
0
 49
0.0
 74
0
 49
-3.1749999999999998
 74
0
 49
0.0
 74
0
 49
-3.1749999999999998
 74
0
  0
LTYPE
  5
3C
100
AcDbSymbolTableRecord
100
AcDbLinetypeTableRecord
  2
DIVIDEX2
 70
0
  3
Divide (2x) ________  .  .  ________  .  .  _
 72
65
 73
6
 40
63.5
 49
25.3999999999999986
 74
0
 49
-12.6999999999999993
 74
0
 49
0.0
 74
0
 49
-12.6999999999999993
 74
0
 49
0.0
 74
0
 49
-12.6999999999999993
 74
0
  0
LTYPE
  5
3D
100
AcDbSymbolTableRecord
100
AcDbLinetypeTableRecord
  2
CENTER
 70
0
  3
Center ____ _ ____ _ ____ _ ____ _ ____ _ ____
 72
65
 73
4
 40
50.7999999999999972
 49
31.75
 74
0
 49
-6.3499999999999996
 74
0
 49
6.3499999999999996
 74
0
 49
-6.3499999999999996
 74
0
  0
LTYPE
  5
3E
100
AcDbSymbolTableRecord
100
AcDbLinetypeTableRecord
  2
CENTER2
 70
0
  3
Center (.5x) ___ _ ___ _ ___ _ ___ _ ___ _ ___
 72
65
 73
4
 40
28.5749999999999993
 49
19.0500000000000007
 74
0
 49
-3.1749999999999998
 74
0
 49
3.1749999999999998
 74
0
 49
-3.1749999999999998
 74
0
  0
LTYPE
  5
3F
100
AcDbSymbolTableRecord
100
AcDbLinetypeTableRecord
  2
CENTERX2
 70
0
  3
Center (2x) ________  __  ________  __  _____
 72
65
 73
4
 40
101.5999999999999943
 49
63.5
 74
0
 49
-12.6999999999999993
 74
0
 49
12.6999999999999993
 74
0
 49
-12.6999999999999993
 74
0
  0
LTYPE
  5
40
100
AcDbSymbolTableRecord
100
AcDbLinetypeTableRecord
  2
BORDER
 70
0
  3
Border __ __ . __ __ . __ __ . __ __ . __ __ .
 72
65
 73
6
 40
44.4500000000000028
 49
12.6999999999999993
 74
0
 49
-6.3499999999999996
 74
0
 49
12.6999999999999993
 74
0
 49
-6.3499999999999996
 74
0
 49
0.0
 74
0
 49
-6.3499999999999996
 74
0
  0
LTYPE
  5
41
100
AcDbSymbolTableRecord
100
AcDbLinetypeTableRecord
  2
BORDER2
 70
0
  3
Border (.5x) __.__.__.__.__.__.__.__.__.__.__.
 72
65
 73
6
 40
22.2250000000000014
 49
6.3499999999999996
 74
0
 49
-3.1749999999999998
 74
0
 49
6.3499999999999996
 74
0
 49
-3.1749999999999998
 74
0
 49
0.0
 74
0
 49
-3.1749999999999998
 74
0
  0
LTYPE
  5
42
100
AcDbSymbolTableRecord
100
AcDbLinetypeTableRecord
  2
BORDERX2
 70
0
  3
Border (2x) ____  ____  .  ____  ____  .  ___
 72
65
 73
6
 40
88.9000000000000057
 49
25.3999999999999986
 74
0
 49
-12.6999999999999993
 74
0
 49
25.3999999999999986
 74
0
 49
-12.6999999999999993
 74
0
 49
0.0
 74
0
 49
-12.6999999999999993
 74
0
  0
ENDTAB
  0
TABLE
  2
LAYER
  5
2
100
AcDbSymbolTable
 70
6
  0
LAYER
  5
10
100
AcDbSymbolTableRecord
100
AcDbLayerTableRecord
  2
0
 70
0
 62
7
  6
CONTINUOUS
370
0
390
F
  0
LAYER
  5
43
100
AcDbSymbolTableRecord
100
AcDbLayerTableRecord
  2
1
 70
0
 62
6
  6
CONTINUOUS
370
0
390
F
  0
LAYER
  5
44
100
AcDbSymbolTableRecord
100
AcDbLayerTableRecord
  2
2
 70
0
 62
2
  6
CONTINUOUS
370
0
390
F
  0
LAYER
  5
45
100
AcDbSymbolTableRecord
100
AcDbLayerTableRecord
  2
3
 70
0
 62
3
  6
CONTINUOUS
370
0
390
F
  0
LAYER
  5
46
100
AcDbSymbolTableRecord
100
AcDbLayerTableRecord
  2
4
 70
0
 62
1
  6
CONTINUOUS
370
0
390
F
  0
LAYER
  5
47
100
AcDbSymbolTableRecord
100
AcDbLayerTableRecord
  2
5
 70
0
 62
5
  6
CONTINUOUS
370
0
390
F
  0
ENDTAB
  0
TABLE
  2
STYLE
  5
3
100
AcDbSymbolTable
 70
1
  0
STYLE
  5
11
100
AcDbSymbolTableRecord
100
AcDbTextStyleTableRecord
  2
Standard
 70
0
 40
0.0
 41
0.75
 50
0.0
 71
0
 42
2.5
  3
txt
  4

  0
ENDTAB
  0
TABLE
  2
VIEW
  5
6
100
AcDbSymbolTable
 70
0
  0
ENDTAB
  0
TABLE
  2
UCS
  5
7
100
AcDbSymbolTable
 70
0
  0
ENDTAB
  0
TABLE
  2
APPID
  5
9
100
AcDbSymbolTable
 70
1
  0
APPID
  5
12
100
AcDbSymbolTableRecord
100
AcDbRegAppTableRecord
  2
ACAD
 70
0
  0
ENDTAB
  0
TABLE
  2
DIMSTYLE
  5
A
100
AcDbSymbolTable
 70
1
100
AcDbDimStyleTable
 71
0
  0
DIMSTYLE
105
27
100
AcDbSymbolTableRecord
100
AcDbDimStyleTableRecord
  2
Standard
 41
2.5
 42
0.625
 43
3.75
 44
1.25
 70
0
 73
0
 74
0
 77
1
 78
8
140
2.5
141
2.5
143
0.03937007874016
147
0.625
171
3
172
1
271
2
272
2
274
3
278
44
283
0
284
8
340
11
  0
ENDTAB
  0
TABLE
  2
BLOCK_RECORD
  5
1
100
AcDbSymbolTable
 70
1
  0
BLOCK_RECORD
  5
1F
100
AcDbSymbolTableRecord
100
AcDbBlockTableRecord
  2
*Model_Space
340
22
  0
BLOCK_RECORD
  5
1B
100
AcDbSymbolTableRecord
100
AcDbBlockTableRecord
  2
*Paper_Space
340
1E
  0
BLOCK_RECORD
  5
23
100
AcDbSymbolTableRecord
100
AcDbBlockTableRecord
  2
*Paper_Space0
340
26
  0
ENDTAB
  0
ENDSEC
  0
SECTION
  2
BLOCKS
  0
BLOCK
  5
20
100
AcDbEntity
  8
0
100
AcDbBlockBegin
  2
*Model_Space
 70
0
 10
0.0
 20
0.0
 30
0.0
  3
*Model_Space
  1

  0
ENDBLK
  5
21
100
AcDbEntity
  8
0
100
AcDbBlockEnd
  0
BLOCK
  5
1C
100
AcDbEntity
 67
1
  8
0
100
AcDbBlockBegin
  2
*Paper_Space
 70
0
 10
0.0
 20
0.0
 30
0.0
  3
*Paper_Space
  1

  0
ENDBLK
  5
1D
100
AcDbEntity
 67
1
  8
0
100
AcDbBlockEnd
  0
BLOCK
  5
24
100
AcDbEntity
  8
0
100
AcDbBlockBegin
  2
*Paper_Space0
 70
0
 10
0.0
 20
0.0
 30
0.0
  3
*Paper_Space0
  1

  0
ENDBLK
  5
25
100
AcDbEntity
  8
0
100
AcDbBlockEnd
  0
ENDSEC
  0
SECTION
  2
ENTITIES
  0
LINE
5
48
100
AcDbEntity
100
AcDbLine
8
3
62
256
370
-1
6
ByLayer
10
101.0
20
100.0
30
0.0
11
102.0
21
113.862943611
31
0.0
0
LINE
5
49
100
AcDbEntity
100
AcDbLine
8
3
62
256
370
-1
6
ByLayer
10
102.0
20
113.862943611
30
0.0
11
103.0
21
121.972245773
31
0.0
0
LINE
5
50
100
AcDbEntity
100
AcDbLine
8
3
62
256
370
-1
6
ByLayer
10
103.0
20
121.972245773
30
0.0
11
104.0
21
127.725887222
31
0.0
0
LINE
5
51
100
AcDbEntity
100
AcDbLine
8
3
62
256
370
-1
6
ByLayer
10
104.0
20
127.725887222
30
0.0
11
105.0
21
132.188758249
31
0.0
0
LINE
5
52
100
AcDbEntity
100
AcDbLine
8
3
62
256
370
-1
6
ByLayer
10
105.0
20
132.188758249
30
0.0
11
106.0
21
135.835189385
31
0.0
0
LINE
5
53
100
AcDbEntity
100
AcDbLine
8
3
62
256
370
-1
6
ByLayer
10
106.0
20
135.835189385
30
0.0
11
107.0
21
138.918202981
31
0.0
0
LINE
5
54
100
AcDbEntity
100
AcDbLine
8
3
62
256
370
-1
6
ByLayer
10
107.0
20
138.918202981
30
0.0
11
108.0
21
141.588830834
31
0.0
0
LINE
5
55
100
AcDbEntity
100
AcDbLine
8
3
62
256
370
-1
6
ByLayer
10
108.0
20
141.588830834
30
0.0
11
109.0
21
143.944491547
31
0.0
0
LINE
5
56
100
AcDbEntity
100
AcDbLine
8
3
62
256
370
-1
6
ByLayer
10
109.0
20
143.944491547
30
0.0
11
110.0
21
146.05170186
31
0.0
0
LINE
5
57
100
AcDbEntity
100
AcDbLine
8
3
62
256
370
-1
6
ByLayer
10
110.0
20
146.05170186
30
0.0
11
111.0
21
147.957905456
31
0.0
0
LINE
5
58
100
AcDbEntity
100
AcDbLine
8
3
62
256
370
-1
6
ByLayer
10
111.0
20
147.957905456
30
0.0
11
112.0
21
149.698132996
31
0.0
0
LINE
5
59
100
AcDbEntity
100
AcDbLine
8
3
62
256
370
-1
6
ByLayer
10
112.0
20
149.698132996
30
0.0
11
113.0
21
151.298987149
31
0.0
0
LINE
5
60
100
AcDbEntity
100
AcDbLine
8
3
62
256
370
-1
6
ByLayer
10
113.0
20
151.298987149
30
0.0
11
114.0
21
152.781146592
31
0.0
0
LINE
5
61
100
AcDbEntity
100
AcDbLine
8
3
62
256
370
-1
6
ByLayer
10
114.0
20
152.781146592
30
0.0
11
115.0
21
154.161004022
31
0.0
0
LINE
5
62
100
AcDbEntity
100
AcDbLine
8
3
62
256
370
-1
6
ByLayer
10
115.0
20
154.161004022
30
0.0
11
116.0
21
155.451774445
31
0.0
0
LINE
5
63
100
AcDbEntity
100
AcDbLine
8
3
62
256
370
-1
6
ByLayer
10
116.0
20
155.451774445
30
0.0
11
117.0
21
156.664266881
31
0.0
0
LINE
5
64
100
AcDbEntity
100
AcDbLine
8
3
62
256
370
-1
6
ByLayer
10
117.0
20
156.664266881
30
0.0
11
118.0
21
157.807435158
31
0.0
0
LINE
5
65
100
AcDbEntity
100
AcDbLine
8
3
62
256
370
-1
6
ByLayer
10
118.0
20
157.807435158
30
0.0
11
119.0
21
158.888779583
31
0.0
0
LINE
5
66
100
AcDbEntity
100
AcDbLine
8
3
62
256
370
-1
6
ByLayer
10
119.0
20
158.888779583
30
0.0
11
120.0
21
159.914645471
31
0.0
0
LINE
5
67
100
AcDbEntity
100
AcDbLine
8
3
62
256
370
-1
6
ByLayer
10
120.0
20
159.914645471
30
0.0
11
121.0
21
160.890448754
31
0.0
0
LINE
5
68
100
AcDbEntity
100
AcDbLine
8
3
62
256
370
-1
6
ByLayer
10
121.0
20
160.890448754
30
0.0
11
122.0
21
161.820849067
31
0.0
0
LINE
5
69
100
AcDbEntity
100
AcDbLine
8
3
62
256
370
-1
6
ByLayer
10
122.0
20
161.820849067
30
0.0
11
123.0
21
162.709884319
31
0.0
0
LINE
5
70
100
AcDbEntity
100
AcDbLine
8
3
62
256
370
-1
6
ByLayer
10
123.0
20
162.709884319
30
0.0
11
124.0
21
163.561076607
31
0.0
0
LINE
5
71
100
AcDbEntity
100
AcDbLine
8
3
62
256
370
-1
6
ByLayer
10
124.0
20
163.561076607
30
0.0
11
125.0
21
164.377516497
31
0.0
0
LINE
5
72
100
AcDbEntity
100
AcDbLine
8
3
62
256
370
-1
6
ByLayer
10
125.0
20
164.377516497
30
0.0
11
126.0
21
165.16193076
31
0.0
0
LINE
5
73
100
AcDbEntity
100
AcDbLine
8
3
62
256
370
-1
6
ByLayer
10
126.0
20
165.16193076
30
0.0
11
127.0
21
165.91673732
31
0.0
0
LINE
5
74
100
AcDbEntity
100
AcDbLine
8
3
62
256
370
-1
6
ByLayer
10
127.0
20
165.91673732
30
0.0
11
128.0
21
166.644090204
31
0.0
0
LINE
5
75
100
AcDbEntity
100
AcDbLine
8
3
62
256
370
-1
6
ByLayer
10
128.0
20
166.644090204
30
0.0
11
129.0
21
167.3459166
31
0.0
0
LINE
5
76
100
AcDbEntity
100
AcDbLine
8
3
62
256
370
-1
6
ByLayer
10
129.0
20
167.3459166
30
0.0
11
130.0
21
168.023947633
31
0.0
0
LINE
5
77
100
AcDbEntity
100
AcDbLine
8
3
62
256
370
-1
6
ByLayer
10
130.0
20
168.023947633
30
0.0
11
131.0
21
168.67974409
31
0.0
0
LINE
5
78
100
AcDbEntity
100
AcDbLine
8
3
62
256
370
-1
6
ByLayer
10
131.0
20
168.67974409
30
0.0
11
132.0
21
169.314718056
31
0.0
0
LINE
5
79
100
AcDbEntity
100
AcDbLine
8
3
62
256
370
-1
6
ByLayer
10
132.0
20
169.314718056
30
0.0
11
133.0
21
169.930151229
31
0.0
0
LINE
5
80
100
AcDbEntity
100
AcDbLine
8
3
62
256
370
-1
6
ByLayer
10
133.0
20
169.930151229
30
0.0
11
134.0
21
170.527210492
31
0.0
0
LINE
5
81
100
AcDbEntity
100
AcDbLine
8
3
62
256
370
-1
6
ByLayer
10
134.0
20
170.527210492
30
0.0
11
135.0
21
171.10696123
31
0.0
0
LINE
5
82
100
AcDbEntity
100
AcDbLine
8
3
62
256
370
-1
6
ByLayer
10
135.0
20
171.10696123
30
0.0
11
136.0
21
171.670378769
31
0.0
0
LINE
5
83
100
AcDbEntity
100
AcDbLine
8
3
62
256
370
-1
6
ByLayer
10
136.0
20
171.670378769
30
0.0
11
137.0
21
172.218358253
31
0.0
0
LINE
5
84
100
AcDbEntity
100
AcDbLine
8
3
62
256
370
-1
6
ByLayer
10
137.0
20
172.218358253
30
0.0
11
138.0
21
172.751723195
31
0.0
0
LINE
5
85
100
AcDbEntity
100
AcDbLine
8
3
62
256
370
-1
6
ByLayer
10
138.0
20
172.751723195
30
0.0
11
139.0
21
173.271232923
31
0.0
0
LINE
5
86
100
AcDbEntity
100
AcDbLine
8
3
62
256
370
-1
6
ByLayer
10
139.0
20
173.271232923
30
0.0
11
140.0
21
173.777589082
31
0.0
0
LINE
5
87
100
AcDbEntity
100
AcDbLine
8
3
62
256
370
-1
6
ByLayer
10
140.0
20
173.777589082
30
0.0
11
141.0
21
174.271441334
31
0.0
0
LINE
5
88
100
AcDbEntity
100
AcDbLine
8
3
62
256
370
-1
6
ByLayer
10
141.0
20
174.271441334
30
0.0
11
142.0
21
174.753392366
31
0.0
0
LINE
5
89
100
AcDbEntity
100
AcDbLine
8
3
62
256
370
-1
6
ByLayer
10
142.0
20
174.753392366
30
0.0
11
143.0
21
175.224002314
31
0.0
0
LINE
5
90
100
AcDbEntity
100
AcDbLine
8
3
62
256
370
-1
6
ByLayer
10
143.0
20
175.224002314
30
0.0
11
144.0
21
175.683792678
31
0.0
0
LINE
5
91
100
AcDbEntity
100
AcDbLine
8
3
62
256
370
-1
6
ByLayer
10
144.0
20
175.683792678
30
0.0
11
145.0
21
176.133249795
31
0.0
0
LINE
5
92
100
AcDbEntity
100
AcDbLine
8
3
62
256
370
-1
6
ByLayer
10
145.0
20
176.133249795
30
0.0
11
146.0
21
176.57282793
31
0.0
0
LINE
5
93
100
AcDbEntity
100
AcDbLine
8
3
62
256
370
-1
6
ByLayer
10
146.0
20
176.57282793
30
0.0
11
147.0
21
177.002952034
31
0.0
0
LINE
5
94
100
AcDbEntity
100
AcDbLine
8
3
62
256
370
-1
6
ByLayer
10
147.0
20
177.002952034
30
0.0
11
148.0
21
177.424020218
31
0.0
0
LINE
5
95
100
AcDbEntity
100
AcDbLine
8
3
62
256
370
-1
6
ByLayer
10
148.0
20
177.424020218
30
0.0
11
149.0
21
177.836405962
31
0.0
0
LINE
5
96
100
AcDbEntity
100
AcDbLine
8
3
62
256
370
-1
6
ByLayer
10
149.0
20
177.836405962
30
0.0
11
150.0
21
178.240460109
31
0.0
0
LINE
5
97
100
AcDbEntity
100
AcDbLine
8
3
62
256
370
-1
6
ByLayer
10
150.0
20
178.240460109
30
0.0
11
151.0
21
178.636512654
31
0.0
0
LINE
5
98
100
AcDbEntity
100
AcDbLine
8
3
62
256
370
-1
6
ByLayer
10
151.0
20
178.636512654
30
0.0
11
152.0
21
179.024874372
31
0.0
0
LINE
5
99
100
AcDbEntity
100
AcDbLine
8
3
62
256
370
-1
6
ByLayer
10
152.0
20
179.024874372
30
0.0
11
153.0
21
179.405838271
31
0.0
0
LINE
5
100
100
AcDbEntity
100
AcDbLine
8
3
62
256
370
-1
6
ByLayer
10
153.0
20
179.405838271
30
0.0
11
154.0
21
179.779680931
31
0.0
0
LINE
5
101
100
AcDbEntity
100
AcDbLine
8
3
62
256
370
-1
6
ByLayer
10
154.0
20
179.779680931
30
0.0
11
155.0
21
180.146663705
31
0.0
0
LINE
5
102
100
AcDbEntity
100
AcDbLine
8
3
62
256
370
-1
6
ByLayer
10
155.0
20
180.146663705
30
0.0
11
156.0
21
180.507033815
31
0.0
0
LINE
5
103
100
AcDbEntity
100
AcDbLine
8
3
62
256
370
-1
6
ByLayer
10
156.0
20
180.507033815
30
0.0
11
157.0
21
180.861025357
31
0.0
0
LINE
5
104
100
AcDbEntity
100
AcDbLine
8
3
62
256
370
-1
6
ByLayer
10
157.0
20
180.861025357
30
0.0
11
158.0
21
181.208860211
31
0.0
0
LINE
5
105
100
AcDbEntity
100
AcDbLine
8
3
62
256
370
-1
6
ByLayer
10
158.0
20
181.208860211
30
0.0
11
159.0
21
181.550748878
31
0.0
0
LINE
5
106
100
AcDbEntity
100
AcDbLine
8
3
62
256
370
-1
6
ByLayer
10
159.0
20
181.550748878
30
0.0
11
160.0
21
181.886891244
31
0.0
0
LINE
5
107
100
AcDbEntity
100
AcDbLine
8
3
62
256
370
-1
6
ByLayer
10
160.0
20
181.886891244
30
0.0
11
161.0
21
182.217477283
31
0.0
0
LINE
5
108
100
AcDbEntity
100
AcDbLine
8
3
62
256
370
-1
6
ByLayer
10
161.0
20
182.217477283
30
0.0
11
162.0
21
182.542687701
31
0.0
0
LINE
5
109
100
AcDbEntity
100
AcDbLine
8
3
62
256
370
-1
6
ByLayer
10
162.0
20
182.542687701
30
0.0
11
163.0
21
182.862694528
31
0.0
0
LINE
5
110
100
AcDbEntity
100
AcDbLine
8
3
62
256
370
-1
6
ByLayer
10
163.0
20
182.862694528
30
0.0
11
164.0
21
183.177661667
31
0.0
0
LINE
5
111
100
AcDbEntity
100
AcDbLine
8
3
62
256
370
-1
6
ByLayer
10
164.0
20
183.177661667
30
0.0
11
165.0
21
183.487745398
31
0.0
0
LINE
5
112
100
AcDbEntity
100
AcDbLine
8
3
62
256
370
-1
6
ByLayer
10
165.0
20
183.487745398
30
0.0
11
166.0
21
183.793094841
31
0.0
0
LINE
5
113
100
AcDbEntity
100
AcDbLine
8
3
62
256
370
-1
6
ByLayer
10
166.0
20
183.793094841
30
0.0
11
167.0
21
184.093852388
31
0.0
0
LINE
5
114
100
AcDbEntity
100
AcDbLine
8
3
62
256
370
-1
6
ByLayer
10
167.0
20
184.093852388
30
0.0
11
168.0
21
184.390154103
31
0.0
0
LINE
5
115
100
AcDbEntity
100
AcDbLine
8
3
62
256
370
-1
6
ByLayer
10
168.0
20
184.390154103
30
0.0
11
169.0
21
184.682130092
31
0.0
0
LINE
5
116
100
AcDbEntity
100
AcDbLine
8
3
62
256
370
-1
6
ByLayer
10
169.0
20
184.682130092
30
0.0
11
170.0
21
184.969904841
31
0.0
0
LINE
5
117
100
AcDbEntity
100
AcDbLine
8
3
62
256
370
-1
6
ByLayer
10
170.0
20
184.969904841
30
0.0
11
171.0
21
185.253597541
31
0.0
0
LINE
5
118
100
AcDbEntity
100
AcDbLine
8
3
62
256
370
-1
6
ByLayer
10
171.0
20
185.253597541
30
0.0
11
172.0
21
185.53332238
31
0.0
0
LINE
5
119
100
AcDbEntity
100
AcDbLine
8
3
62
256
370
-1
6
ByLayer
10
172.0
20
185.53332238
30
0.0
11
173.0
21
185.809188823
31
0.0
0
LINE
5
120
100
AcDbEntity
100
AcDbLine
8
3
62
256
370
-1
6
ByLayer
10
173.0
20
185.809188823
30
0.0
11
174.0
21
186.081301864
31
0.0
0
LINE
5
121
100
AcDbEntity
100
AcDbLine
8
3
62
256
370
-1
6
ByLayer
10
174.0
20
186.081301864
30
0.0
11
175.0
21
186.349762271
31
0.0
0
LINE
5
122
100
AcDbEntity
100
AcDbLine
8
3
62
256
370
-1
6
ByLayer
10
175.0
20
186.349762271
30
0.0
11
176.0
21
186.614666806
31
0.0
0
LINE
5
123
100
AcDbEntity
100
AcDbLine
8
3
62
256
370
-1
6
ByLayer
10
176.0
20
186.614666806
30
0.0
11
177.0
21
186.876108437
31
0.0
0
LINE
5
124
100
AcDbEntity
100
AcDbLine
8
3
62
256
370
-1
6
ByLayer
10
177.0
20
186.876108437
30
0.0
11
178.0
21
187.134176534
31
0.0
0
LINE
5
125
100
AcDbEntity
100
AcDbLine
8
3
62
256
370
-1
6
ByLayer
10
178.0
20
187.134176534
30
0.0
11
179.0
21
187.388957049
31
0.0
0
LINE
5
126
100
AcDbEntity
100
AcDbLine
8
3
62
256
370
-1
6
ByLayer
10
179.0
20
187.388957049
30
0.0
11
180.0
21
187.640532694
31
0.0
0
LINE
5
127
100
AcDbEntity
100
AcDbLine
8
3
62
256
370
-1
6
ByLayer
10
180.0
20
187.640532694
30
0.0
11
181.0
21
187.888983093
31
0.0
0
LINE
5
128
100
AcDbEntity
100
AcDbLine
8
3
62
256
370
-1
6
ByLayer
10
181.0
20
187.888983093
30
0.0
11
182.0
21
188.134384945
31
0.0
0
LINE
5
129
100
AcDbEntity
100
AcDbLine
8
3
62
256
370
-1
6
ByLayer
10
182.0
20
188.134384945
30
0.0
11
183.0
21
188.376812156
31
0.0
0
LINE
5
130
100
AcDbEntity
100
AcDbLine
8
3
62
256
370
-1
6
ByLayer
10
183.0
20
188.376812156
30
0.0
11
184.0
21
188.616335977
31
0.0
0
LINE
5
131
100
AcDbEntity
100
AcDbLine
8
3
62
256
370
-1
6
ByLayer
10
184.0
20
188.616335977
30
0.0
11
185.0
21
188.85302513
31
0.0
0
LINE
5
132
100
AcDbEntity
100
AcDbLine
8
3
62
256
370
-1
6
ByLayer
10
185.0
20
188.85302513
30
0.0
11
186.0
21
189.086945925
31
0.0
0
LINE
5
133
100
AcDbEntity
100
AcDbLine
8
3
62
256
370
-1
6
ByLayer
10
186.0
20
189.086945925
30
0.0
11
187.0
21
189.318162373
31
0.0
0
LINE
5
134
100
AcDbEntity
100
AcDbLine
8
3
62
256
370
-1
6
ByLayer
10
187.0
20
189.318162373
30
0.0
11
188.0
21
189.54673629
31
0.0
0
LINE
5
135
100
AcDbEntity
100
AcDbLine
8
3
62
256
370
-1
6
ByLayer
10
188.0
20
189.54673629
30
0.0
11
189.0
21
189.772727395
31
0.0
0
LINE
5
136
100
AcDbEntity
100
AcDbLine
8
3
62
256
370
-1
6
ByLayer
10
189.0
20
189.772727395
30
0.0
11
190.0
21
189.996193407
31
0.0
0
LINE
5
137
100
AcDbEntity
100
AcDbLine
8
3
62
256
370
-1
6
ByLayer
10
190.0
20
189.996193407
30
0.0
11
191.0
21
190.21719013
31
0.0
0
LINE
5
138
100
AcDbEntity
100
AcDbLine
8
3
62
256
370
-1
6
ByLayer
10
191.0
20
190.21719013
30
0.0
11
192.0
21
190.435771541
31
0.0
0
LINE
5
139
100
AcDbEntity
100
AcDbLine
8
3
62
256
370
-1
6
ByLayer
10
192.0
20
190.435771541
30
0.0
11
193.0
21
190.651989863
31
0.0
0
LINE
5
140
100
AcDbEntity
100
AcDbLine
8
3
62
256
370
-1
6
ByLayer
10
193.0
20
190.651989863
30
0.0
11
194.0
21
190.865895645
31
0.0
0
LINE
5
141
100
AcDbEntity
100
AcDbLine
8
3
62
256
370
-1
6
ByLayer
10
194.0
20
190.865895645
30
0.0
11
195.0
21
191.077537832
31
0.0
0
LINE
5
142
100
AcDbEntity
100
AcDbLine
8
3
62
256
370
-1
6
ByLayer
10
195.0
20
191.077537832
30
0.0
11
196.0
21
191.286963829
31
0.0
0
LINE
5
143
100
AcDbEntity
100
AcDbLine
8
3
62
256
370
-1
6
ByLayer
10
196.0
20
191.286963829
30
0.0
11
197.0
21
191.49421957
31
0.0
0
LINE
5
144
100
AcDbEntity
100
AcDbLine
8
3
62
256
370
-1
6
ByLayer
10
197.0
20
191.49421957
30
0.0
11
198.0
21
191.699349573
31
0.0
0
LINE
5
145
100
AcDbEntity
100
AcDbLine
8
3
62
256
370
-1
6
ByLayer
10
198.0
20
191.699349573
30
0.0
11
199.0
21
191.902397003
31
0.0
0
LINE
5
146
100
AcDbEntity
100
AcDbLine
8
3
62
256
370
-1
6
ByLayer
10
199.0
20
191.902397003
30
0.0
11
200.0
21
192.10340372
31
0.0
0
MTEXT
5
147
100
AcDbEntity
100
AcDbMText
8
3
62
256
370
-1
6
ByLayer
10
150.5
20
95.0
30
0.0
40
1
41
100.0
71
8
72
0
1
Logarithmic Curve
7
normallatin1
50
0.0
73
1
44
1.0
0
ENDSEC
  0
SECTION
  2
OBJECTS
  0
DICTIONARY
  5
C
100
AcDbDictionary
280
0
281
1
  3
ACAD_GROUP
350
D
  3
ACAD_LAYOUT
350
1A
  3
ACAD_MLINESTYLE
350
17
  3
ACAD_PLOTSETTINGS
350
19
  3
ACAD_PLOTSTYLENAME
350
E
  3
AcDbVariableDictionary
350
48
  0
DICTIONARY
  5
D
100
AcDbDictionary
280
0
281
1
  0
ACDBDICTIONARYWDFLT
  5
E
100
AcDbDictionary
281
1
  3
Normal
350
F
100
AcDbDictionaryWithDefault
340
F
  0
ACDBPLACEHOLDER
  5
F
  0
DICTIONARY
  5
17
100
AcDbDictionary
280
0
281
1
  3
Standard
350
18
  0
MLINESTYLE
  5
18
100
AcDbMlineStyle
  2
STANDARD
 70
0
  3

 62
256
 51
90.0
 52
90.0
 71
2
 49
0.5
 62
256
  6
BYLAYER
 49
-0.5
 62
256
  6
BYLAYER
  0
DICTIONARY
  5
19
100
AcDbDictionary
280
0
281
1
  0
DICTIONARY
  5
1A
100
AcDbDictionary
281
1
  3
Layout1
350
1E
  3
Layout2
350
26
  3
Model
350
22
  0
LAYOUT
  5
1E
100
AcDbPlotSettings
  1

  2
C:\Program Files\AutoCAD 2002\plotters\DWF ePlot (optimized for plotting).pc3
  4

  6

 40
0.0
 41
0.0
 42
0.0
 43
0.0
 44
0.0
 45
0.0
 46
0.0
 47
0.0
 48
0.0
 49
0.0
140
0.0
141
0.0
142
1.0
143
1.0
 70
688
 72
0
 73
0
 74
5
  7

 75
16
147
1.0
148
0.0
149
0.0
100
AcDbLayout
  1
Layout1
 70
1
 71
1
 10
0.0
 20
0.0
 11
420.0
 21
297.0
 12
0.0
 22
0.0
 32
0.0
 14
100000000000000000000.0
 24
100000000000000000000.0
 34
100000000000000000000.0
 15
-100000000000000000000.0
 25
-100000000000000000000.0
 35
-100000000000000000000.0
146
0.0
 13
0.0
 23
0.0
 33
0.0
 16
1.0
 26
0.0
 36
0.0
 17
0.0
 27
1.0
 37
0.0
 76
0
330
1B
  0
LAYOUT
  5
22
100
AcDbPlotSettings
  1

  2
C:\Program Files\AutoCAD 2002\plotters\DWF ePlot (optimized for plotting).pc3
  4

  6

 40
0.0
 41
0.0
 42
0.0
 43
0.0
 44
0.0
 45
0.0
 46
0.0
 47
0.0
 48
0.0
 49
0.0
140
0.0
141
0.0
142
1.0
143
1.0
 70
1712
 72
0
 73
0
 74
0
  7

 75
0
147
1.0
148
0.0
149
0.0
100
AcDbLayout
  1
Model
 70
1
 71
0
 10
0.0
 20
0.0
 11
12.0
 21
9.0
 12
0.0
 22
0.0
 32
0.0
 14
0.0
 24
0.0
 34
0.0
 15
0.0
 25
0.0
 35
0.0
146
0.0
 13
0.0
 23
0.0
 33
0.0
 16
1.0
 26
0.0
 36
0.0
 17
0.0
 27
1.0
 37
0.0
 76
0
330
1F
  0
LAYOUT
  5
26
100
AcDbPlotSettings
  1

  2
C:\Program Files\AutoCAD 2002\plotters\DWF ePlot (optimized for plotting).pc3
  4

  6

 40
0.0
 41
0.0
 42
0.0
 43
0.0
 44
0.0
 45
0.0
 46
0.0
 47
0.0
 48
0.0
 49
0.0
140
0.0
141
0.0
142
1.0
143
1.0
 70
688
 72
0
 73
0
 74
5
  7

 75
16
147
1.0
148
0.0
149
0.0
100
AcDbLayout
  1
Layout2
 70
1
 71
2
 10
0.0
 20
0.0
 11
12.0
 21
9.0
 12
0.0
 22
0.0
 32
0.0
 14
0.0
 24
0.0
 34
0.0
 15
0.0
 25
0.0
 35
0.0
146
0.0
 13
0.0
 23
0.0
 33
0.0
 16
1.0
 26
0.0
 36
0.0
 17
0.0
 27
1.0
 37
0.0
 76
0
330
23
  0
DICTIONARY
  5
48
100
AcDbDictionary
281
1
  3
DIMASSOC
350
4A
  3
HIDETEXT
350
49
  0
DICTIONARYVAR
  5
49
100
DictionaryVariables
280
0
  1
2
  0
DICTIONARYVAR
  5
4A
100
DictionaryVariables
280
0
  1
1
  0
ENDSEC
  0
EOF
