999
dxflib 2.0.4.8
  0
SECTION
  2
HEADER
  9
$ACADVER
  1
AC1015
  9
$HANDSEED
  5
FFFF
  9
$DIMASZ
 40
2.5
  9
$DIMGAP
 40
0.625
  9
$DIMEXO
 40
0.625
  9
$INSUNITS
 70
4
  9
$DIMTXT
 40
2.5
  9
$PLIMMAX
 10
210.0
 20
297.0
  9
$PLIMMIN
 10
0.0
 20
0.0
  9
$DIMEXE
 40
1.25
  0
ENDSEC
  0
SECTION
  2
TABLES
  0
TABLE
  2
VPORT
  5
8
100
AcDbSymbolTable
 70
1
  0
VPORT
  5
30
100
AcDbSymbolTableRecord
100
AcDbViewportTableRecord
  2
*Active
 70
0
 10
0.0
 20
0.0
 11
1.0
 21
1.0
 12
286.3055555555554861
 22
148.5
 13
0.0
 23
0.0
 14
10.0
 24
10.0
 15
10.0
 25
10.0
 16
0.0
 26
0.0
 36
1.0
 17
0.0
 27
0.0
 37
0.0
 40
297.0
 41
1.92798353909465
 42
50.0
 43
0.0
 44
0.0
 50
0.0
 51
0.0
 71
0
 72
100
 73
1
 74
3
 75
1
 76
1
 77
0
 78
0
281
0
 65
1
110
0.0
120
0.0
130
0.0
111
1.0
121
0.0
131
0.0
112
0.0
122
1.0
132
0.0
 79
0
146
0.0
  0
ENDTAB
  0
TABLE
  2
LTYPE
  5
5
100
AcDbSymbolTable
 70
21
  0
LTYPE
  5
14
100
AcDbSymbolTableRecord
100
AcDbLinetypeTableRecord
  2
ByBlock
 70
0
  3

 72
65
 73
0
 40
0.0
  0
LTYPE
  5
15
100
AcDbSymbolTableRecord
100
AcDbLinetypeTableRecord
  2
ByLayer
 70
0
  3

 72
65
 73
0
 40
0.0
  0
LTYPE
  5
16
100
AcDbSymbolTableRecord
100
AcDbLinetypeTableRecord
  2
CONTINUOUS
 70
0
  3
Solid line
 72
65
 73
0
 40
0.0
  0
LTYPE
  5
31
100
AcDbSymbolTableRecord
100
AcDbLinetypeTableRecord
  2
DOT
 70
0
  3
Dot . . . . . . . . . . . . . . . . . . . . . .
 72
65
 73
2
 40
6.3499999999999996
 49
0.0
 74
0
 49
-6.3499999999999996
 74
0
  0
LTYPE
  5
32
100
AcDbSymbolTableRecord
100
AcDbLinetypeTableRecord
  2
DOT2
 70
0
  3
Dot (.5x) .....................................
 72
65
 73
2
 40
3.1749999999999998
 49
0.0
 74
0
 49
-3.1749999999999998
 74
0
  0
LTYPE
  5
33
100
AcDbSymbolTableRecord
100
AcDbLinetypeTableRecord
  2
DOTX2
 70
0
  3
Dot (2x) .  .  .  .  .  .  .  .  .  .  .  .  .
 72
65
 73
2
 40
12.6999999999999993
 49
0.0
 74
0
 49
-12.6999999999999993
 74
0
  0
LTYPE
  5
34
100
AcDbSymbolTableRecord
100
AcDbLinetypeTableRecord
  2
DASHED
 70
0
  3
Dashed __ __ __ __ __ __ __ __ __ __ __ __ __ _
 72
65
 73
2
 40
19.0500000000000007
 49
12.6999999999999993
 74
0
 49
-6.3499999999999996
 74
0
  0
LTYPE
  5
35
100
AcDbSymbolTableRecord
100
AcDbLinetypeTableRecord
  2
DASHED2
 70
0
  3
Dashed (.5x) _ _ _ _ _ _ _ _ _ _ _ _ _ _ _ _ _
 72
65
 73
2
 40
9.5250000000000004
 49
6.3499999999999996
 74
0
 49
-3.1749999999999998
 74
0
  0
LTYPE
  5
36
100
AcDbSymbolTableRecord
100
AcDbLinetypeTableRecord
  2
DASHEDX2
 70
0
  3
Dashed (2x) ____  ____  ____  ____  ____  ___
 72
65
 73
2
 40
38.1000000000000014
 49
25.3999999999999986
 74
0
 49
-12.6999999999999993
 74
0
  0
LTYPE
  5
37
100
AcDbSymbolTableRecord
100
AcDbLinetypeTableRecord
  2
DASHDOT
 70
0
  3
Dash dot __ . __ . __ . __ . __ . __ . __ . __
 72
65
 73
4
 40
25.3999999999999986
 49
12.6999999999999993
 74
0
 49
-6.3499999999999996
 74
0
 49
0.0
 74
0
 49
-6.3499999999999996
 74
0
  0
LTYPE
  5
38
100
AcDbSymbolTableRecord
100
AcDbLinetypeTableRecord
  2
DASHDOT2
 70
0
  3
Dash dot (.5x) _._._._._._._._._._._._._._._.
 72
65
 73
4
 40
12.6999999999999993
 49
6.3499999999999996
 74
0
 49
-3.1749999999999998
 74
0
 49
0.0
 74
0
 49
-3.1749999999999998
 74
0
  0
LTYPE
  5
39
100
AcDbSymbolTableRecord
100
AcDbLinetypeTableRecord
  2
DASHDOTX2
 70
0
  3
Dash dot (2x) ____  .  ____  .  ____  .  ___
 72
65
 73
4
 40
50.7999999999999972
 49
25.3999999999999986
 74
0
 49
-12.6999999999999993
 74
0
 49
0.0
 74
0
 49
-12.6999999999999993
 74
0
  0
LTYPE
  5
3A
100
AcDbSymbolTableRecord
100
AcDbLinetypeTableRecord
  2
DIVIDE
 70
0
  3
Divide ____ . . ____ . . ____ . . ____ . . ____
 72
65
 73
6
 40
31.75
 49
12.6999999999999993
 74
0
 49
-6.3499999999999996
 74
0
 49
0.0
 74
0
 49
-6.3499999999999996
 74
0
 49
0.0
 74
0
 49
-6.3499999999999996
 74
0
  0
LTYPE
  5
3B
100
AcDbSymbolTableRecord
100
AcDbLinetypeTableRecord
  2
DIVIDE2
 70
0
  3
Divide (.5x) __..__..__..__..__..__..__..__.._
 72
65
 73
6
 40
15.875
 49
6.3499999999999996
 74
0
 49
-3.1749999999999998
 74
0
 49
0.0
 74
0
 49
-3.1749999999999998
 74
0
 49
0.0
 74
0
 49
-3.1749999999999998
 74
0
  0
LTYPE
  5
3C
100
AcDbSymbolTableRecord
100
AcDbLinetypeTableRecord
  2
DIVIDEX2
 70
0
  3
Divide (2x) ________  .  .  ________  .  .  _
 72
65
 73
6
 40
63.5
 49
25.3999999999999986
 74
0
 49
-12.6999999999999993
 74
0
 49
0.0
 74
0
 49
-12.6999999999999993
 74
0
 49
0.0
 74
0
 49
-12.6999999999999993
 74
0
  0
LTYPE
  5
3D
100
AcDbSymbolTableRecord
100
AcDbLinetypeTableRecord
  2
CENTER
 70
0
  3
Center ____ _ ____ _ ____ _ ____ _ ____ _ ____
 72
65
 73
4
 40
50.7999999999999972
 49
31.75
 74
0
 49
-6.3499999999999996
 74
0
 49
6.3499999999999996
 74
0
 49
-6.3499999999999996
 74
0
  0
LTYPE
  5
3E
100
AcDbSymbolTableRecord
100
AcDbLinetypeTableRecord
  2
CENTER2
 70
0
  3
Center (.5x) ___ _ ___ _ ___ _ ___ _ ___ _ ___
 72
65
 73
4
 40
28.5749999999999993
 49
19.0500000000000007
 74
0
 49
-3.1749999999999998
 74
0
 49
3.1749999999999998
 74
0
 49
-3.1749999999999998
 74
0
  0
LTYPE
  5
3F
100
AcDbSymbolTableRecord
100
AcDbLinetypeTableRecord
  2
CENTERX2
 70
0
  3
Center (2x) ________  __  ________  __  _____
 72
65
 73
4
 40
101.5999999999999943
 49
63.5
 74
0
 49
-12.6999999999999993
 74
0
 49
12.6999999999999993
 74
0
 49
-12.6999999999999993
 74
0
  0
LTYPE
  5
40
100
AcDbSymbolTableRecord
100
AcDbLinetypeTableRecord
  2
BORDER
 70
0
  3
Border __ __ . __ __ . __ __ . __ __ . __ __ .
 72
65
 73
6
 40
44.4500000000000028
 49
12.6999999999999993
 74
0
 49
-6.3499999999999996
 74
0
 49
12.6999999999999993
 74
0
 49
-6.3499999999999996
 74
0
 49
0.0
 74
0
 49
-6.3499999999999996
 74
0
  0
LTYPE
  5
41
100
AcDbSymbolTableRecord
100
AcDbLinetypeTableRecord
  2
BORDER2
 70
0
  3
Border (.5x) __.__.__.__.__.__.__.__.__.__.__.
 72
65
 73
6
 40
22.2250000000000014
 49
6.3499999999999996
 74
0
 49
-3.1749999999999998
 74
0
 49
6.3499999999999996
 74
0
 49
-3.1749999999999998
 74
0
 49
0.0
 74
0
 49
-3.1749999999999998
 74
0
  0
LTYPE
  5
42
100
AcDbSymbolTableRecord
100
AcDbLinetypeTableRecord
  2
BORDERX2
 70
0
  3
Border (2x) ____  ____  .  ____  ____  .  ___
 72
65
 73
6
 40
88.9000000000000057
 49
25.3999999999999986
 74
0
 49
-12.6999999999999993
 74
0
 49
25.3999999999999986
 74
0
 49
-12.6999999999999993
 74
0
 49
0.0
 74
0
 49
-12.6999999999999993
 74
0
  0
ENDTAB
  0
TABLE
  2
LAYER
  5
2
100
AcDbSymbolTable
 70
6
  0
LAYER
  5
10
100
AcDbSymbolTableRecord
100
AcDbLayerTableRecord
  2
0
 70
0
 62
7
  6
CONTINUOUS
370
0
390
F
  0
LAYER
  5
43
100
AcDbSymbolTableRecord
100
AcDbLayerTableRecord
  2
1
 70
0
 62
6
  6
CONTINUOUS
370
0
390
F
  0
LAYER
  5
44
100
AcDbSymbolTableRecord
100
AcDbLayerTableRecord
  2
2
 70
0
 62
2
  6
CONTINUOUS
370
0
390
F
  0
LAYER
  5
45
100
AcDbSymbolTableRecord
100
AcDbLayerTableRecord
  2
3
 70
0
 62
3
  6
CONTINUOUS
370
0
390
F
  0
LAYER
  5
46
100
AcDbSymbolTableRecord
100
AcDbLayerTableRecord
  2
4
 70
0
 62
1
  6
CONTINUOUS
370
0
390
F
  0
LAYER
  5
47
100
AcDbSymbolTableRecord
100
AcDbLayerTableRecord
  2
5
 70
0
 62
5
  6
CONTINUOUS
370
0
390
F
  0
ENDTAB
  0
TABLE
  2
STYLE
  5
3
100
AcDbSymbolTable
 70
1
  0
STYLE
  5
11
100
AcDbSymbolTableRecord
100
AcDbTextStyleTableRecord
  2
Standard
 70
0
 40
0.0
 41
0.75
 50
0.0
 71
0
 42
2.5
  3
txt
  4

  0
ENDTAB
  0
TABLE
  2
VIEW
  5
6
100
AcDbSymbolTable
 70
0
  0
ENDTAB
  0
TABLE
  2
UCS
  5
7
100
AcDbSymbolTable
 70
0
  0
ENDTAB
  0
TABLE
  2
APPID
  5
9
100
AcDbSymbolTable
 70
1
  0
APPID
  5
12
100
AcDbSymbolTableRecord
100
AcDbRegAppTableRecord
  2
ACAD
 70
0
  0
ENDTAB
  0
TABLE
  2
DIMSTYLE
  5
A
100
AcDbSymbolTable
 70
1
100
AcDbDimStyleTable
 71
0
  0
DIMSTYLE
105
27
100
AcDbSymbolTableRecord
100
AcDbDimStyleTableRecord
  2
Standard
 41
2.5
 42
0.625
 43
3.75
 44
1.25
 70
0
 73
0
 74
0
 77
1
 78
8
140
2.5
141
2.5
143
0.03937007874016
147
0.625
171
3
172
1
271
2
272
2
274
3
278
44
283
0
284
8
340
11
  0
ENDTAB
  0
TABLE
  2
BLOCK_RECORD
  5
1
100
AcDbSymbolTable
 70
1
  0
BLOCK_RECORD
  5
1F
100
AcDbSymbolTableRecord
100
AcDbBlockTableRecord
  2
*Model_Space
340
22
  0
BLOCK_RECORD
  5
1B
100
AcDbSymbolTableRecord
100
AcDbBlockTableRecord
  2
*Paper_Space
340
1E
  0
BLOCK_RECORD
  5
23
100
AcDbSymbolTableRecord
100
AcDbBlockTableRecord
  2
*Paper_Space0
340
26
  0
ENDTAB
  0
ENDSEC
  0
SECTION
  2
BLOCKS
  0
BLOCK
  5
20
100
AcDbEntity
  8
0
100
AcDbBlockBegin
  2
*Model_Space
 70
0
 10
0.0
 20
0.0
 30
0.0
  3
*Model_Space
  1

  0
ENDBLK
  5
21
100
AcDbEntity
  8
0
100
AcDbBlockEnd
  0
BLOCK
  5
1C
100
AcDbEntity
 67
1
  8
0
100
AcDbBlockBegin
  2
*Paper_Space
 70
0
 10
0.0
 20
0.0
 30
0.0
  3
*Paper_Space
  1

  0
ENDBLK
  5
1D
100
AcDbEntity
 67
1
  8
0
100
AcDbBlockEnd
  0
BLOCK
  5
24
100
AcDbEntity
  8
0
100
AcDbBlockBegin
  2
*Paper_Space0
 70
0
 10
0.0
 20
0.0
 30
0.0
  3
*Paper_Space0
  1

  0
ENDBLK
  5
25
100
AcDbEntity
  8
0
100
AcDbBlockEnd
  0
ENDSEC
  0
SECTION
  2
ENTITIES
  0
LINE
5
48
100
AcDbEntity
100
AcDbLine
8
2
62
256
370
-1
6
ByLayer
10
100.0
20
100.0
30
0.0
11
101.0
21
106.32455532
31
0.0
0
LINE
5
49
100
AcDbEntity
100
AcDbLine
8
2
62
256
370
-1
6
ByLayer
10
101.0
20
106.32455532
30
0.0
11
102.0
21
108.94427191
31
0.0
0
LINE
5
50
100
AcDbEntity
100
AcDbLine
8
2
62
256
370
-1
6
ByLayer
10
102.0
20
108.94427191
30
0.0
11
103.0
21
110.95445115
31
0.0
0
LINE
5
51
100
AcDbEntity
100
AcDbLine
8
2
62
256
370
-1
6
ByLayer
10
103.0
20
110.95445115
30
0.0
11
104.0
21
112.649110641
31
0.0
0
LINE
5
52
100
AcDbEntity
100
AcDbLine
8
2
62
256
370
-1
6
ByLayer
10
104.0
20
112.649110641
30
0.0
11
105.0
21
114.142135624
31
0.0
0
LINE
5
53
100
AcDbEntity
100
AcDbLine
8
2
62
256
370
-1
6
ByLayer
10
105.0
20
114.142135624
30
0.0
11
106.0
21
115.491933385
31
0.0
0
LINE
5
54
100
AcDbEntity
100
AcDbLine
8
2
62
256
370
-1
6
ByLayer
10
106.0
20
115.491933385
30
0.0
11
107.0
21
116.733200531
31
0.0
0
LINE
5
55
100
AcDbEntity
100
AcDbLine
8
2
62
256
370
-1
6
ByLayer
10
107.0
20
116.733200531
30
0.0
11
108.0
21
117.88854382
31
0.0
0
LINE
5
56
100
AcDbEntity
100
AcDbLine
8
2
62
256
370
-1
6
ByLayer
10
108.0
20
117.88854382
30
0.0
11
109.0
21
118.973665961
31
0.0
0
LINE
5
57
100
AcDbEntity
100
AcDbLine
8
2
62
256
370
-1
6
ByLayer
10
109.0
20
118.973665961
30
0.0
11
110.0
21
120.0
31
0.0
0
LINE
5
58
100
AcDbEntity
100
AcDbLine
8
2
62
256
370
-1
6
ByLayer
10
110.0
20
120.0
30
0.0
11
111.0
21
120.976176963
31
0.0
0
LINE
5
59
100
AcDbEntity
100
AcDbLine
8
2
62
256
370
-1
6
ByLayer
10
111.0
20
120.976176963
30
0.0
11
112.0
21
121.9089023
31
0.0
0
LINE
5
60
100
AcDbEntity
100
AcDbLine
8
2
62
256
370
-1
6
ByLayer
10
112.0
20
121.9089023
30
0.0
11
113.0
21
122.803508502
31
0.0
0
LINE
5
61
100
AcDbEntity
100
AcDbLine
8
2
62
256
370
-1
6
ByLayer
10
113.0
20
122.803508502
30
0.0
11
114.0
21
123.664319132
31
0.0
0
LINE
5
62
100
AcDbEntity
100
AcDbLine
8
2
62
256
370
-1
6
ByLayer
10
114.0
20
123.664319132
30
0.0
11
115.0
21
124.494897428
31
0.0
0
LINE
5
63
100
AcDbEntity
100
AcDbLine
8
2
62
256
370
-1
6
ByLayer
10
115.0
20
124.494897428
30
0.0
11
116.0
21
125.298221281
31
0.0
0
LINE
5
64
100
AcDbEntity
100
AcDbLine
8
2
62
256
370
-1
6
ByLayer
10
116.0
20
125.298221281
30
0.0
11
117.0
21
126.076809621
31
0.0
0
LINE
5
65
100
AcDbEntity
100
AcDbLine
8
2
62
256
370
-1
6
ByLayer
10
117.0
20
126.076809621
30
0.0
11
118.0
21
126.83281573
31
0.0
0
LINE
5
66
100
AcDbEntity
100
AcDbLine
8
2
62
256
370
-1
6
ByLayer
10
118.0
20
126.83281573
30
0.0
11
119.0
21
127.568097504
31
0.0
0
LINE
5
67
100
AcDbEntity
100
AcDbLine
8
2
62
256
370
-1
6
ByLayer
10
119.0
20
127.568097504
30
0.0
11
120.0
21
128.284271247
31
0.0
0
LINE
5
68
100
AcDbEntity
100
AcDbLine
8
2
62
256
370
-1
6
ByLayer
10
120.0
20
128.284271247
30
0.0
11
121.0
21
128.982753492
31
0.0
0
LINE
5
69
100
AcDbEntity
100
AcDbLine
8
2
62
256
370
-1
6
ByLayer
10
121.0
20
128.982753492
30
0.0
11
122.0
21
129.664793948
31
0.0
0
LINE
5
70
100
AcDbEntity
100
AcDbLine
8
2
62
256
370
-1
6
ByLayer
10
122.0
20
129.664793948
30
0.0
11
123.0
21
130.331501776
31
0.0
0
LINE
5
71
100
AcDbEntity
100
AcDbLine
8
2
62
256
370
-1
6
ByLayer
10
123.0
20
130.331501776
30
0.0
11
124.0
21
130.98386677
31
0.0
0
LINE
5
72
100
AcDbEntity
100
AcDbLine
8
2
62
256
370
-1
6
ByLayer
10
124.0
20
130.98386677
30
0.0
11
125.0
21
131.622776602
31
0.0
0
LINE
5
73
100
AcDbEntity
100
AcDbLine
8
2
62
256
370
-1
6
ByLayer
10
125.0
20
131.622776602
30
0.0
11
126.0
21
132.249030993
31
0.0
0
LINE
5
74
100
AcDbEntity
100
AcDbLine
8
2
62
256
370
-1
6
ByLayer
10
126.0
20
132.249030993
30
0.0
11
127.0
21
132.86335345
31
0.0
0
LINE
5
75
100
AcDbEntity
100
AcDbLine
8
2
62
256
370
-1
6
ByLayer
10
127.0
20
132.86335345
30
0.0
11
128.0
21
133.466401061
31
0.0
0
LINE
5
76
100
AcDbEntity
100
AcDbLine
8
2
62
256
370
-1
6
ByLayer
10
128.0
20
133.466401061
30
0.0
11
129.0
21
134.058772732
31
0.0
0
LINE
5
77
100
AcDbEntity
100
AcDbLine
8
2
62
256
370
-1
6
ByLayer
10
129.0
20
134.058772732
30
0.0
11
130.0
21
134.641016151
31
0.0
0
LINE
5
78
100
AcDbEntity
100
AcDbLine
8
2
62
256
370
-1
6
ByLayer
10
130.0
20
134.641016151
30
0.0
11
131.0
21
135.213633723
31
0.0
0
LINE
5
79
100
AcDbEntity
100
AcDbLine
8
2
62
256
370
-1
6
ByLayer
10
131.0
20
135.213633723
30
0.0
11
132.0
21
135.77708764
31
0.0
0
LINE
5
80
100
AcDbEntity
100
AcDbLine
8
2
62
256
370
-1
6
ByLayer
10
132.0
20
135.77708764
30
0.0
11
133.0
21
136.331804249
31
0.0
0
LINE
5
81
100
AcDbEntity
100
AcDbLine
8
2
62
256
370
-1
6
ByLayer
10
133.0
20
136.331804249
30
0.0
11
134.0
21
136.878177829
31
0.0
0
LINE
5
82
100
AcDbEntity
100
AcDbLine
8
2
62
256
370
-1
6
ByLayer
10
134.0
20
136.878177829
30
0.0
11
135.0
21
137.416573868
31
0.0
0
LINE
5
83
100
AcDbEntity
100
AcDbLine
8
2
62
256
370
-1
6
ByLayer
10
135.0
20
137.416573868
30
0.0
11
136.0
21
137.947331922
31
0.0
0
LINE
5
84
100
AcDbEntity
100
AcDbLine
8
2
62
256
370
-1
6
ByLayer
10
136.0
20
137.947331922
30
0.0
11
137.0
21
138.470768123
31
0.0
0
LINE
5
85
100
AcDbEntity
100
AcDbLine
8
2
62
256
370
-1
6
ByLayer
10
137.0
20
138.470768123
30
0.0
11
138.0
21
138.987177379
31
0.0
0
LINE
5
86
100
AcDbEntity
100
AcDbLine
8
2
62
256
370
-1
6
ByLayer
10
138.0
20
138.987177379
30
0.0
11
139.0
21
139.496835316
31
0.0
0
LINE
5
87
100
AcDbEntity
100
AcDbLine
8
2
62
256
370
-1
6
ByLayer
10
139.0
20
139.496835316
30
0.0
11
140.0
21
140.0
31
0.0
0
LINE
5
88
100
AcDbEntity
100
AcDbLine
8
2
62
256
370
-1
6
ByLayer
10
140.0
20
140.0
30
0.0
11
141.0
21
140.496913463
31
0.0
0
LINE
5
89
100
AcDbEntity
100
AcDbLine
8
2
62
256
370
-1
6
ByLayer
10
141.0
20
140.496913463
30
0.0
11
142.0
21
140.987803064
31
0.0
0
LINE
5
90
100
AcDbEntity
100
AcDbLine
8
2
62
256
370
-1
6
ByLayer
10
142.0
20
140.987803064
30
0.0
11
143.0
21
141.472882707
31
0.0
0
LINE
5
91
100
AcDbEntity
100
AcDbLine
8
2
62
256
370
-1
6
ByLayer
10
143.0
20
141.472882707
30
0.0
11
144.0
21
141.952353927
31
0.0
0
LINE
5
92
100
AcDbEntity
100
AcDbLine
8
2
62
256
370
-1
6
ByLayer
10
144.0
20
141.952353927
30
0.0
11
145.0
21
142.426406871
31
0.0
0
LINE
5
93
100
AcDbEntity
100
AcDbLine
8
2
62
256
370
-1
6
ByLayer
10
145.0
20
142.426406871
30
0.0
11
146.0
21
142.895221179
31
0.0
0
LINE
5
94
100
AcDbEntity
100
AcDbLine
8
2
62
256
370
-1
6
ByLayer
10
146.0
20
142.895221179
30
0.0
11
147.0
21
143.358966777
31
0.0
0
LINE
5
95
100
AcDbEntity
100
AcDbLine
8
2
62
256
370
-1
6
ByLayer
10
147.0
20
143.358966777
30
0.0
11
148.0
21
143.8178046
31
0.0
0
LINE
5
96
100
AcDbEntity
100
AcDbLine
8
2
62
256
370
-1
6
ByLayer
10
148.0
20
143.8178046
30
0.0
11
149.0
21
144.271887242
31
0.0
0
LINE
5
97
100
AcDbEntity
100
AcDbLine
8
2
62
256
370
-1
6
ByLayer
10
149.0
20
144.271887242
30
0.0
11
150.0
21
144.72135955
31
0.0
0
LINE
5
98
100
AcDbEntity
100
AcDbLine
8
2
62
256
370
-1
6
ByLayer
10
150.0
20
144.72135955
30
0.0
11
151.0
21
145.166359162
31
0.0
0
LINE
5
99
100
AcDbEntity
100
AcDbLine
8
2
62
256
370
-1
6
ByLayer
10
151.0
20
145.166359162
30
0.0
11
152.0
21
145.607017004
31
0.0
0
LINE
5
100
100
AcDbEntity
100
AcDbLine
8
2
62
256
370
-1
6
ByLayer
10
152.0
20
145.607017004
30
0.0
11
153.0
21
146.043457733
31
0.0
0
LINE
5
101
100
AcDbEntity
100
AcDbLine
8
2
62
256
370
-1
6
ByLayer
10
153.0
20
146.043457733
30
0.0
11
154.0
21
146.475800155
31
0.0
0
LINE
5
102
100
AcDbEntity
100
AcDbLine
8
2
62
256
370
-1
6
ByLayer
10
154.0
20
146.475800155
30
0.0
11
155.0
21
146.904157598
31
0.0
0
LINE
5
103
100
AcDbEntity
100
AcDbLine
8
2
62
256
370
-1
6
ByLayer
10
155.0
20
146.904157598
30
0.0
11
156.0
21
147.328638265
31
0.0
0
LINE
5
104
100
AcDbEntity
100
AcDbLine
8
2
62
256
370
-1
6
ByLayer
10
156.0
20
147.328638265
30
0.0
11
157.0
21
147.749345545
31
0.0
0
LINE
5
105
100
AcDbEntity
100
AcDbLine
8
2
62
256
370
-1
6
ByLayer
10
157.0
20
147.749345545
30
0.0
11
158.0
21
148.166378315
31
0.0
0
LINE
5
106
100
AcDbEntity
100
AcDbLine
8
2
62
256
370
-1
6
ByLayer
10
158.0
20
148.166378315
30
0.0
11
159.0
21
148.579831206
31
0.0
0
LINE
5
107
100
AcDbEntity
100
AcDbLine
8
2
62
256
370
-1
6
ByLayer
10
159.0
20
148.579831206
30
0.0
11
160.0
21
148.989794856
31
0.0
0
LINE
5
108
100
AcDbEntity
100
AcDbLine
8
2
62
256
370
-1
6
ByLayer
10
160.0
20
148.989794856
30
0.0
11
161.0
21
149.396356141
31
0.0
0
LINE
5
109
100
AcDbEntity
100
AcDbLine
8
2
62
256
370
-1
6
ByLayer
10
161.0
20
149.396356141
30
0.0
11
162.0
21
149.799598392
31
0.0
0
LINE
5
110
100
AcDbEntity
100
AcDbLine
8
2
62
256
370
-1
6
ByLayer
10
162.0
20
149.799598392
30
0.0
11
163.0
21
150.199601592
31
0.0
0
LINE
5
111
100
AcDbEntity
100
AcDbLine
8
2
62
256
370
-1
6
ByLayer
10
163.0
20
150.199601592
30
0.0
11
164.0
21
150.596442563
31
0.0
0
LINE
5
112
100
AcDbEntity
100
AcDbLine
8
2
62
256
370
-1
6
ByLayer
10
164.0
20
150.596442563
30
0.0
11
165.0
21
150.990195136
31
0.0
0
LINE
5
113
100
AcDbEntity
100
AcDbLine
8
2
62
256
370
-1
6
ByLayer
10
165.0
20
150.990195136
30
0.0
11
166.0
21
151.380930315
31
0.0
0
LINE
5
114
100
AcDbEntity
100
AcDbLine
8
2
62
256
370
-1
6
ByLayer
10
166.0
20
151.380930315
30
0.0
11
167.0
21
151.768716422
31
0.0
0
LINE
5
115
100
AcDbEntity
100
AcDbLine
8
2
62
256
370
-1
6
ByLayer
10
167.0
20
151.768716422
30
0.0
11
168.0
21
152.153619242
31
0.0
0
LINE
5
116
100
AcDbEntity
100
AcDbLine
8
2
62
256
370
-1
6
ByLayer
10
168.0
20
152.153619242
30
0.0
11
169.0
21
152.535702146
31
0.0
0
LINE
5
117
100
AcDbEntity
100
AcDbLine
8
2
62
256
370
-1
6
ByLayer
10
169.0
20
152.535702146
30
0.0
11
170.0
21
152.915026221
31
0.0
0
LINE
5
118
100
AcDbEntity
100
AcDbLine
8
2
62
256
370
-1
6
ByLayer
10
170.0
20
152.915026221
30
0.0
11
171.0
21
153.291650378
31
0.0
0
LINE
5
119
100
AcDbEntity
100
AcDbLine
8
2
62
256
370
-1
6
ByLayer
10
171.0
20
153.291650378
30
0.0
11
172.0
21
153.66563146
31
0.0
0
LINE
5
120
100
AcDbEntity
100
AcDbLine
8
2
62
256
370
-1
6
ByLayer
10
172.0
20
153.66563146
30
0.0
11
173.0
21
154.037024344
31
0.0
0
LINE
5
121
100
AcDbEntity
100
AcDbLine
8
2
62
256
370
-1
6
ByLayer
10
173.0
20
154.037024344
30
0.0
11
174.0
21
154.405882035
31
0.0
0
LINE
5
122
100
AcDbEntity
100
AcDbLine
8
2
62
256
370
-1
6
ByLayer
10
174.0
20
154.405882035
30
0.0
11
175.0
21
154.77225575
31
0.0
0
LINE
5
123
100
AcDbEntity
100
AcDbLine
8
2
62
256
370
-1
6
ByLayer
10
175.0
20
154.77225575
30
0.0
11
176.0
21
155.136195008
31
0.0
0
LINE
5
124
100
AcDbEntity
100
AcDbLine
8
2
62
256
370
-1
6
ByLayer
10
176.0
20
155.136195008
30
0.0
11
177.0
21
155.497747702
31
0.0
0
LINE
5
125
100
AcDbEntity
100
AcDbLine
8
2
62
256
370
-1
6
ByLayer
10
177.0
20
155.497747702
30
0.0
11
178.0
21
155.856960175
31
0.0
0
LINE
5
126
100
AcDbEntity
100
AcDbLine
8
2
62
256
370
-1
6
ByLayer
10
178.0
20
155.856960175
30
0.0
11
179.0
21
156.21387729
31
0.0
0
LINE
5
127
100
AcDbEntity
100
AcDbLine
8
2
62
256
370
-1
6
ByLayer
10
179.0
20
156.21387729
30
0.0
11
180.0
21
156.568542495
31
0.0
0
LINE
5
128
100
AcDbEntity
100
AcDbLine
8
2
62
256
370
-1
6
ByLayer
10
180.0
20
156.568542495
30
0.0
11
181.0
21
156.920997883
31
0.0
0
LINE
5
129
100
AcDbEntity
100
AcDbLine
8
2
62
256
370
-1
6
ByLayer
10
181.0
20
156.920997883
30
0.0
11
182.0
21
157.271284253
31
0.0
0
LINE
5
130
100
AcDbEntity
100
AcDbLine
8
2
62
256
370
-1
6
ByLayer
10
182.0
20
157.271284253
30
0.0
11
183.0
21
157.619441164
31
0.0
0
LINE
5
131
100
AcDbEntity
100
AcDbLine
8
2
62
256
370
-1
6
ByLayer
10
183.0
20
157.619441164
30
0.0
11
184.0
21
157.965506985
31
0.0
0
LINE
5
132
100
AcDbEntity
100
AcDbLine
8
2
62
256
370
-1
6
ByLayer
10
184.0
20
157.965506985
30
0.0
11
185.0
21
158.309518948
31
0.0
0
LINE
5
133
100
AcDbEntity
100
AcDbLine
8
2
62
256
370
-1
6
ByLayer
10
185.0
20
158.309518948
30
0.0
11
186.0
21
158.651513195
31
0.0
0
LINE
5
134
100
AcDbEntity
100
AcDbLine
8
2
62
256
370
-1
6
ByLayer
10
186.0
20
158.651513195
30
0.0
11
187.0
21
158.991524815
31
0.0
0
LINE
5
135
100
AcDbEntity
100
AcDbLine
8
2
62
256
370
-1
6
ByLayer
10
187.0
20
158.991524815
30
0.0
11
188.0
21
159.329587897
31
0.0
0
LINE
5
136
100
AcDbEntity
100
AcDbLine
8
2
62
256
370
-1
6
ByLayer
10
188.0
20
159.329587897
30
0.0
11
189.0
21
159.665735561
31
0.0
0
LINE
5
137
100
AcDbEntity
100
AcDbLine
8
2
62
256
370
-1
6
ByLayer
10
189.0
20
159.665735561
30
0.0
11
190.0
21
160.0
31
0.0
0
LINE
5
138
100
AcDbEntity
100
AcDbLine
8
2
62
256
370
-1
6
ByLayer
10
190.0
20
160.0
30
0.0
11
191.0
21
160.332412516
31
0.0
0
LINE
5
139
100
AcDbEntity
100
AcDbLine
8
2
62
256
370
-1
6
ByLayer
10
191.0
20
160.332412516
30
0.0
11
192.0
21
160.663003552
31
0.0
0
LINE
5
140
100
AcDbEntity
100
AcDbLine
8
2
62
256
370
-1
6
ByLayer
10
192.0
20
160.663003552
30
0.0
11
193.0
21
160.991802728
31
0.0
0
LINE
5
141
100
AcDbEntity
100
AcDbLine
8
2
62
256
370
-1
6
ByLayer
10
193.0
20
160.991802728
30
0.0
11
194.0
21
161.318838867
31
0.0
0
LINE
5
142
100
AcDbEntity
100
AcDbLine
8
2
62
256
370
-1
6
ByLayer
10
194.0
20
161.318838867
30
0.0
11
195.0
21
161.64414003
31
0.0
0
LINE
5
143
100
AcDbEntity
100
AcDbLine
8
2
62
256
370
-1
6
ByLayer
10
195.0
20
161.64414003
30
0.0
11
196.0
21
161.967733539
31
0.0
0
LINE
5
144
100
AcDbEntity
100
AcDbLine
8
2
62
256
370
-1
6
ByLayer
10
196.0
20
161.967733539
30
0.0
11
197.0
21
162.28964601
31
0.0
0
LINE
5
145
100
AcDbEntity
100
AcDbLine
8
2
62
256
370
-1
6
ByLayer
10
197.0
20
162.28964601
30
0.0
11
198.0
21
162.60990337
31
0.0
0
LINE
5
146
100
AcDbEntity
100
AcDbLine
8
2
62
256
370
-1
6
ByLayer
10
198.0
20
162.60990337
30
0.0
11
199.0
21
162.92853089
31
0.0
0
LINE
5
147
100
AcDbEntity
100
AcDbLine
8
2
62
256
370
-1
6
ByLayer
10
199.0
20
162.92853089
30
0.0
11
200.0
21
163.245553203
31
0.0
0
LINE
5
148
100
AcDbEntity
100
AcDbLine
8
2
62
256
370
-1
6
ByLayer
10
200.0
20
163.245553203
30
0.0
11
201.0
21
163.560994328
31
0.0
0
LINE
5
149
100
AcDbEntity
100
AcDbLine
8
2
62
256
370
-1
6
ByLayer
10
201.0
20
163.560994328
30
0.0
11
202.0
21
163.874877691
31
0.0
0
LINE
5
150
100
AcDbEntity
100
AcDbLine
8
2
62
256
370
-1
6
ByLayer
10
202.0
20
163.874877691
30
0.0
11
203.0
21
164.187226143
31
0.0
0
LINE
5
151
100
AcDbEntity
100
AcDbLine
8
2
62
256
370
-1
6
ByLayer
10
203.0
20
164.187226143
30
0.0
11
204.0
21
164.498061986
31
0.0
0
LINE
5
152
100
AcDbEntity
100
AcDbLine
8
2
62
256
370
-1
6
ByLayer
10
204.0
20
164.498061986
30
0.0
11
205.0
21
164.807406984
31
0.0
0
LINE
5
153
100
AcDbEntity
100
AcDbLine
8
2
62
256
370
-1
6
ByLayer
10
205.0
20
164.807406984
30
0.0
11
206.0
21
165.115282384
31
0.0
0
LINE
5
154
100
AcDbEntity
100
AcDbLine
8
2
62
256
370
-1
6
ByLayer
10
206.0
20
165.115282384
30
0.0
11
207.0
21
165.421708935
31
0.0
0
LINE
5
155
100
AcDbEntity
100
AcDbLine
8
2
62
256
370
-1
6
ByLayer
10
207.0
20
165.421708935
30
0.0
11
208.0
21
165.726706901
31
0.0
0
LINE
5
156
100
AcDbEntity
100
AcDbLine
8
2
62
256
370
-1
6
ByLayer
10
208.0
20
165.726706901
30
0.0
11
209.0
21
166.030296077
31
0.0
0
LINE
5
157
100
AcDbEntity
100
AcDbLine
8
2
62
256
370
-1
6
ByLayer
10
209.0
20
166.030296077
30
0.0
11
210.0
21
166.332495807
31
0.0
0
LINE
5
158
100
AcDbEntity
100
AcDbLine
8
2
62
256
370
-1
6
ByLayer
10
210.0
20
166.332495807
30
0.0
11
211.0
21
166.633324996
31
0.0
0
LINE
5
159
100
AcDbEntity
100
AcDbLine
8
2
62
256
370
-1
6
ByLayer
10
211.0
20
166.633324996
30
0.0
11
212.0
21
166.932802123
31
0.0
0
LINE
5
160
100
AcDbEntity
100
AcDbLine
8
2
62
256
370
-1
6
ByLayer
10
212.0
20
166.932802123
30
0.0
11
213.0
21
167.230945256
31
0.0
0
LINE
5
161
100
AcDbEntity
100
AcDbLine
8
2
62
256
370
-1
6
ByLayer
10
213.0
20
167.230945256
30
0.0
11
214.0
21
167.527772064
31
0.0
0
LINE
5
162
100
AcDbEntity
100
AcDbLine
8
2
62
256
370
-1
6
ByLayer
10
214.0
20
167.527772064
30
0.0
11
215.0
21
167.823299831
31
0.0
0
LINE
5
163
100
AcDbEntity
100
AcDbLine
8
2
62
256
370
-1
6
ByLayer
10
215.0
20
167.823299831
30
0.0
11
216.0
21
168.117545464
31
0.0
0
LINE
5
164
100
AcDbEntity
100
AcDbLine
8
2
62
256
370
-1
6
ByLayer
10
216.0
20
168.117545464
30
0.0
11
217.0
21
168.410525506
31
0.0
0
LINE
5
165
100
AcDbEntity
100
AcDbLine
8
2
62
256
370
-1
6
ByLayer
10
217.0
20
168.410525506
30
0.0
11
218.0
21
168.702256149
31
0.0
0
LINE
5
166
100
AcDbEntity
100
AcDbLine
8
2
62
256
370
-1
6
ByLayer
10
218.0
20
168.702256149
30
0.0
11
219.0
21
168.992753243
31
0.0
0
LINE
5
167
100
AcDbEntity
100
AcDbLine
8
2
62
256
370
-1
6
ByLayer
10
219.0
20
168.992753243
30
0.0
11
220.0
21
169.282032303
31
0.0
0
LINE
5
168
100
AcDbEntity
100
AcDbLine
8
2
62
256
370
-1
6
ByLayer
10
220.0
20
169.282032303
30
0.0
11
221.0
21
169.570108524
31
0.0
0
LINE
5
169
100
AcDbEntity
100
AcDbLine
8
2
62
256
370
-1
6
ByLayer
10
221.0
20
169.570108524
30
0.0
11
222.0
21
169.856996786
31
0.0
0
LINE
5
170
100
AcDbEntity
100
AcDbLine
8
2
62
256
370
-1
6
ByLayer
10
222.0
20
169.856996786
30
0.0
11
223.0
21
170.142711667
31
0.0
0
LINE
5
171
100
AcDbEntity
100
AcDbLine
8
2
62
256
370
-1
6
ByLayer
10
223.0
20
170.142711667
30
0.0
11
224.0
21
170.427267447
31
0.0
0
LINE
5
172
100
AcDbEntity
100
AcDbLine
8
2
62
256
370
-1
6
ByLayer
10
224.0
20
170.427267447
30
0.0
11
225.0
21
170.710678119
31
0.0
0
LINE
5
173
100
AcDbEntity
100
AcDbLine
8
2
62
256
370
-1
6
ByLayer
10
225.0
20
170.710678119
30
0.0
11
226.0
21
170.992957397
31
0.0
0
LINE
5
174
100
AcDbEntity
100
AcDbLine
8
2
62
256
370
-1
6
ByLayer
10
226.0
20
170.992957397
30
0.0
11
227.0
21
171.274118725
31
0.0
0
LINE
5
175
100
AcDbEntity
100
AcDbLine
8
2
62
256
370
-1
6
ByLayer
10
227.0
20
171.274118725
30
0.0
11
228.0
21
171.55417528
31
0.0
0
LINE
5
176
100
AcDbEntity
100
AcDbLine
8
2
62
256
370
-1
6
ByLayer
10
228.0
20
171.55417528
30
0.0
11
229.0
21
171.833139984
31
0.0
0
LINE
5
177
100
AcDbEntity
100
AcDbLine
8
2
62
256
370
-1
6
ByLayer
10
229.0
20
171.833139984
30
0.0
11
230.0
21
172.111025509
31
0.0
0
LINE
5
178
100
AcDbEntity
100
AcDbLine
8
2
62
256
370
-1
6
ByLayer
10
230.0
20
172.111025509
30
0.0
11
231.0
21
172.387844283
31
0.0
0
LINE
5
179
100
AcDbEntity
100
AcDbLine
8
2
62
256
370
-1
6
ByLayer
10
231.0
20
172.387844283
30
0.0
11
232.0
21
172.663608498
31
0.0
0
LINE
5
180
100
AcDbEntity
100
AcDbLine
8
2
62
256
370
-1
6
ByLayer
10
232.0
20
172.663608498
30
0.0
11
233.0
21
172.938330115
31
0.0
0
LINE
5
181
100
AcDbEntity
100
AcDbLine
8
2
62
256
370
-1
6
ByLayer
10
233.0
20
172.938330115
30
0.0
11
234.0
21
173.212020871
31
0.0
0
LINE
5
182
100
AcDbEntity
100
AcDbLine
8
2
62
256
370
-1
6
ByLayer
10
234.0
20
173.212020871
30
0.0
11
235.0
21
173.484692284
31
0.0
0
LINE
5
183
100
AcDbEntity
100
AcDbLine
8
2
62
256
370
-1
6
ByLayer
10
235.0
20
173.484692284
30
0.0
11
236.0
21
173.756355658
31
0.0
0
LINE
5
184
100
AcDbEntity
100
AcDbLine
8
2
62
256
370
-1
6
ByLayer
10
236.0
20
173.756355658
30
0.0
11
237.0
21
174.027022093
31
0.0
0
LINE
5
185
100
AcDbEntity
100
AcDbLine
8
2
62
256
370
-1
6
ByLayer
10
237.0
20
174.027022093
30
0.0
11
238.0
21
174.296702484
31
0.0
0
LINE
5
186
100
AcDbEntity
100
AcDbLine
8
2
62
256
370
-1
6
ByLayer
10
238.0
20
174.296702484
30
0.0
11
239.0
21
174.565407529
31
0.0
0
LINE
5
187
100
AcDbEntity
100
AcDbLine
8
2
62
256
370
-1
6
ByLayer
10
239.0
20
174.565407529
30
0.0
11
240.0
21
174.833147736
31
0.0
0
LINE
5
188
100
AcDbEntity
100
AcDbLine
8
2
62
256
370
-1
6
ByLayer
10
240.0
20
174.833147736
30
0.0
11
241.0
21
175.099933422
31
0.0
0
LINE
5
189
100
AcDbEntity
100
AcDbLine
8
2
62
256
370
-1
6
ByLayer
10
241.0
20
175.099933422
30
0.0
11
242.0
21
175.365774726
31
0.0
0
LINE
5
190
100
AcDbEntity
100
AcDbLine
8
2
62
256
370
-1
6
ByLayer
10
242.0
20
175.365774726
30
0.0
11
243.0
21
175.630681605
31
0.0
0
LINE
5
191
100
AcDbEntity
100
AcDbLine
8
2
62
256
370
-1
6
ByLayer
10
243.0
20
175.630681605
30
0.0
11
244.0
21
175.894663844
31
0.0
0
LINE
5
192
100
AcDbEntity
100
AcDbLine
8
2
62
256
370
-1
6
ByLayer
10
244.0
20
175.894663844
30
0.0
11
245.0
21
176.157731059
31
0.0
0
LINE
5
193
100
AcDbEntity
100
AcDbLine
8
2
62
256
370
-1
6
ByLayer
10
245.0
20
176.157731059
30
0.0
11
246.0
21
176.419892698
31
0.0
0
LINE
5
194
100
AcDbEntity
100
AcDbLine
8
2
62
256
370
-1
6
ByLayer
10
246.0
20
176.419892698
30
0.0
11
247.0
21
176.681158051
31
0.0
0
LINE
5
195
100
AcDbEntity
100
AcDbLine
8
2
62
256
370
-1
6
ByLayer
10
247.0
20
176.681158051
30
0.0
11
248.0
21
176.941536247
31
0.0
0
LINE
5
196
100
AcDbEntity
100
AcDbLine
8
2
62
256
370
-1
6
ByLayer
10
248.0
20
176.941536247
30
0.0
11
249.0
21
177.201036262
31
0.0
0
LINE
5
197
100
AcDbEntity
100
AcDbLine
8
2
62
256
370
-1
6
ByLayer
10
249.0
20
177.201036262
30
0.0
11
250.0
21
177.459666924
31
0.0
0
LINE
5
198
100
AcDbEntity
100
AcDbLine
8
2
62
256
370
-1
6
ByLayer
10
250.0
20
177.459666924
30
0.0
11
251.0
21
177.717436911
31
0.0
0
LINE
5
199
100
AcDbEntity
100
AcDbLine
8
2
62
256
370
-1
6
ByLayer
10
251.0
20
177.717436911
30
0.0
11
252.0
21
177.974354758
31
0.0
0
LINE
5
200
100
AcDbEntity
100
AcDbLine
8
2
62
256
370
-1
6
ByLayer
10
252.0
20
177.974354758
30
0.0
11
253.0
21
178.230428862
31
0.0
0
LINE
5
201
100
AcDbEntity
100
AcDbLine
8
2
62
256
370
-1
6
ByLayer
10
253.0
20
178.230428862
30
0.0
11
254.0
21
178.485667481
31
0.0
0
LINE
5
202
100
AcDbEntity
100
AcDbLine
8
2
62
256
370
-1
6
ByLayer
10
254.0
20
178.485667481
30
0.0
11
255.0
21
178.74007874
31
0.0
0
LINE
5
203
100
AcDbEntity
100
AcDbLine
8
2
62
256
370
-1
6
ByLayer
10
255.0
20
178.74007874
30
0.0
11
256.0
21
178.993670632
31
0.0
0
LINE
5
204
100
AcDbEntity
100
AcDbLine
8
2
62
256
370
-1
6
ByLayer
10
256.0
20
178.993670632
30
0.0
11
257.0
21
179.246451025
31
0.0
0
LINE
5
205
100
AcDbEntity
100
AcDbLine
8
2
62
256
370
-1
6
ByLayer
10
257.0
20
179.246451025
30
0.0
11
258.0
21
179.498427657
31
0.0
0
LINE
5
206
100
AcDbEntity
100
AcDbLine
8
2
62
256
370
-1
6
ByLayer
10
258.0
20
179.498427657
30
0.0
11
259.0
21
179.74960815
31
0.0
0
LINE
5
207
100
AcDbEntity
100
AcDbLine
8
2
62
256
370
-1
6
ByLayer
10
259.0
20
179.74960815
30
0.0
11
260.0
21
180.0
31
0.0
0
LINE
5
208
100
AcDbEntity
100
AcDbLine
8
2
62
256
370
-1
6
ByLayer
10
260.0
20
180.0
30
0.0
11
261.0
21
180.249610591
31
0.0
0
LINE
5
209
100
AcDbEntity
100
AcDbLine
8
2
62
256
370
-1
6
ByLayer
10
261.0
20
180.249610591
30
0.0
11
262.0
21
180.49844719
31
0.0
0
LINE
5
210
100
AcDbEntity
100
AcDbLine
8
2
62
256
370
-1
6
ByLayer
10
262.0
20
180.49844719
30
0.0
11
263.0
21
180.746516953
31
0.0
0
LINE
5
211
100
AcDbEntity
100
AcDbLine
8
2
62
256
370
-1
6
ByLayer
10
263.0
20
180.746516953
30
0.0
11
264.0
21
180.993826925
31
0.0
0
LINE
5
212
100
AcDbEntity
100
AcDbLine
8
2
62
256
370
-1
6
ByLayer
10
264.0
20
180.993826925
30
0.0
11
265.0
21
181.240384046
31
0.0
0
LINE
5
213
100
AcDbEntity
100
AcDbLine
8
2
62
256
370
-1
6
ByLayer
10
265.0
20
181.240384046
30
0.0
11
266.0
21
181.48619515
31
0.0
0
LINE
5
214
100
AcDbEntity
100
AcDbLine
8
2
62
256
370
-1
6
ByLayer
10
266.0
20
181.48619515
30
0.0
11
267.0
21
181.731266967
31
0.0
0
LINE
5
215
100
AcDbEntity
100
AcDbLine
8
2
62
256
370
-1
6
ByLayer
10
267.0
20
181.731266967
30
0.0
11
268.0
21
181.975606128
31
0.0
0
LINE
5
216
100
AcDbEntity
100
AcDbLine
8
2
62
256
370
-1
6
ByLayer
10
268.0
20
181.975606128
30
0.0
11
269.0
21
182.219219164
31
0.0
0
LINE
5
217
100
AcDbEntity
100
AcDbLine
8
2
62
256
370
-1
6
ByLayer
10
269.0
20
182.219219164
30
0.0
11
270.0
21
182.462112512
31
0.0
0
LINE
5
218
100
AcDbEntity
100
AcDbLine
8
2
62
256
370
-1
6
ByLayer
10
270.0
20
182.462112512
30
0.0
11
271.0
21
182.704292512
31
0.0
0
LINE
5
219
100
AcDbEntity
100
AcDbLine
8
2
62
256
370
-1
6
ByLayer
10
271.0
20
182.704292512
30
0.0
11
272.0
21
182.945765413
31
0.0
0
LINE
5
220
100
AcDbEntity
100
AcDbLine
8
2
62
256
370
-1
6
ByLayer
10
272.0
20
182.945765413
30
0.0
11
273.0
21
183.186537372
31
0.0
0
LINE
5
221
100
AcDbEntity
100
AcDbLine
8
2
62
256
370
-1
6
ByLayer
10
273.0
20
183.186537372
30
0.0
11
274.0
21
183.426614459
31
0.0
0
LINE
5
222
100
AcDbEntity
100
AcDbLine
8
2
62
256
370
-1
6
ByLayer
10
274.0
20
183.426614459
30
0.0
11
275.0
21
183.666002653
31
0.0
0
LINE
5
223
100
AcDbEntity
100
AcDbLine
8
2
62
256
370
-1
6
ByLayer
10
275.0
20
183.666002653
30
0.0
11
276.0
21
183.904707854
31
0.0
0
LINE
5
224
100
AcDbEntity
100
AcDbLine
8
2
62
256
370
-1
6
ByLayer
10
276.0
20
183.904707854
30
0.0
11
277.0
21
184.142735872
31
0.0
0
LINE
5
225
100
AcDbEntity
100
AcDbLine
8
2
62
256
370
-1
6
ByLayer
10
277.0
20
184.142735872
30
0.0
11
278.0
21
184.380092439
31
0.0
0
LINE
5
226
100
AcDbEntity
100
AcDbLine
8
2
62
256
370
-1
6
ByLayer
10
278.0
20
184.380092439
30
0.0
11
279.0
21
184.616783205
31
0.0
0
LINE
5
227
100
AcDbEntity
100
AcDbLine
8
2
62
256
370
-1
6
ByLayer
10
279.0
20
184.616783205
30
0.0
11
280.0
21
184.852813742
31
0.0
0
LINE
5
228
100
AcDbEntity
100
AcDbLine
8
2
62
256
370
-1
6
ByLayer
10
280.0
20
184.852813742
30
0.0
11
281.0
21
185.088189545
31
0.0
0
LINE
5
229
100
AcDbEntity
100
AcDbLine
8
2
62
256
370
-1
6
ByLayer
10
281.0
20
185.088189545
30
0.0
11
282.0
21
185.322916031
31
0.0
0
LINE
5
230
100
AcDbEntity
100
AcDbLine
8
2
62
256
370
-1
6
ByLayer
10
282.0
20
185.322916031
30
0.0
11
283.0
21
185.556998545
31
0.0
0
LINE
5
231
100
AcDbEntity
100
AcDbLine
8
2
62
256
370
-1
6
ByLayer
10
283.0
20
185.556998545
30
0.0
11
284.0
21
185.790442358
31
0.0
0
LINE
5
232
100
AcDbEntity
100
AcDbLine
8
2
62
256
370
-1
6
ByLayer
10
284.0
20
185.790442358
30
0.0
11
285.0
21
186.02325267
31
0.0
0
LINE
5
233
100
AcDbEntity
100
AcDbLine
8
2
62
256
370
-1
6
ByLayer
10
285.0
20
186.02325267
30
0.0
11
286.0
21
186.255434611
31
0.0
0
LINE
5
234
100
AcDbEntity
100
AcDbLine
8
2
62
256
370
-1
6
ByLayer
10
286.0
20
186.255434611
30
0.0
11
287.0
21
186.486993242
31
0.0
0
LINE
5
235
100
AcDbEntity
100
AcDbLine
8
2
62
256
370
-1
6
ByLayer
10
287.0
20
186.486993242
30
0.0
11
288.0
21
186.717933555
31
0.0
0
LINE
5
236
100
AcDbEntity
100
AcDbLine
8
2
62
256
370
-1
6
ByLayer
10
288.0
20
186.717933555
30
0.0
11
289.0
21
186.948260477
31
0.0
0
LINE
5
237
100
AcDbEntity
100
AcDbLine
8
2
62
256
370
-1
6
ByLayer
10
289.0
20
186.948260477
30
0.0
11
290.0
21
187.177978871
31
0.0
0
LINE
5
238
100
AcDbEntity
100
AcDbLine
8
2
62
256
370
-1
6
ByLayer
10
290.0
20
187.177978871
30
0.0
11
291.0
21
187.407093534
31
0.0
0
LINE
5
239
100
AcDbEntity
100
AcDbLine
8
2
62
256
370
-1
6
ByLayer
10
291.0
20
187.407093534
30
0.0
11
292.0
21
187.635609201
31
0.0
0
LINE
5
240
100
AcDbEntity
100
AcDbLine
8
2
62
256
370
-1
6
ByLayer
10
292.0
20
187.635609201
30
0.0
11
293.0
21
187.863530546
31
0.0
0
LINE
5
241
100
AcDbEntity
100
AcDbLine
8
2
62
256
370
-1
6
ByLayer
10
293.0
20
187.863530546
30
0.0
11
294.0
21
188.090862182
31
0.0
0
LINE
5
242
100
AcDbEntity
100
AcDbLine
8
2
62
256
370
-1
6
ByLayer
10
294.0
20
188.090862182
30
0.0
11
295.0
21
188.317608663
31
0.0
0
LINE
5
243
100
AcDbEntity
100
AcDbLine
8
2
62
256
370
-1
6
ByLayer
10
295.0
20
188.317608663
30
0.0
11
296.0
21
188.543774485
31
0.0
0
LINE
5
244
100
AcDbEntity
100
AcDbLine
8
2
62
256
370
-1
6
ByLayer
10
296.0
20
188.543774485
30
0.0
11
297.0
21
188.769364085
31
0.0
0
LINE
5
245
100
AcDbEntity
100
AcDbLine
8
2
62
256
370
-1
6
ByLayer
10
297.0
20
188.769364085
30
0.0
11
298.0
21
188.994381845
31
0.0
0
LINE
5
246
100
AcDbEntity
100
AcDbLine
8
2
62
256
370
-1
6
ByLayer
10
298.0
20
188.994381845
30
0.0
11
299.0
21
189.218832093
31
0.0
0
LINE
5
247
100
AcDbEntity
100
AcDbLine
8
2
62
256
370
-1
6
ByLayer
10
299.0
20
189.218832093
30
0.0
11
300.0
21
189.4427191
31
0.0
0
LINE
5
248
100
AcDbEntity
100
AcDbLine
8
2
62
256
370
-1
6
ByLayer
10
300.0
20
189.4427191
30
0.0
11
301.0
21
189.666047086
31
0.0
0
LINE
5
249
100
AcDbEntity
100
AcDbLine
8
2
62
256
370
-1
6
ByLayer
10
301.0
20
189.666047086
30
0.0
11
302.0
21
189.888820217
31
0.0
0
LINE
5
250
100
AcDbEntity
100
AcDbLine
8
2
62
256
370
-1
6
ByLayer
10
302.0
20
189.888820217
30
0.0
11
303.0
21
190.111042609
31
0.0
0
LINE
5
251
100
AcDbEntity
100
AcDbLine
8
2
62
256
370
-1
6
ByLayer
10
303.0
20
190.111042609
30
0.0
11
304.0
21
190.332718325
31
0.0
0
LINE
5
252
100
AcDbEntity
100
AcDbLine
8
2
62
256
370
-1
6
ByLayer
10
304.0
20
190.332718325
30
0.0
11
305.0
21
190.553851381
31
0.0
0
LINE
5
253
100
AcDbEntity
100
AcDbLine
8
2
62
256
370
-1
6
ByLayer
10
305.0
20
190.553851381
30
0.0
11
306.0
21
190.774445743
31
0.0
0
LINE
5
254
100
AcDbEntity
100
AcDbLine
8
2
62
256
370
-1
6
ByLayer
10
306.0
20
190.774445743
30
0.0
11
307.0
21
190.994505329
31
0.0
0
LINE
5
255
100
AcDbEntity
100
AcDbLine
8
2
62
256
370
-1
6
ByLayer
10
307.0
20
190.994505329
30
0.0
11
308.0
21
191.214034008
31
0.0
0
LINE
5
256
100
AcDbEntity
100
AcDbLine
8
2
62
256
370
-1
6
ByLayer
10
308.0
20
191.214034008
30
0.0
11
309.0
21
191.433035605
31
0.0
0
LINE
5
257
100
AcDbEntity
100
AcDbLine
8
2
62
256
370
-1
6
ByLayer
10
309.0
20
191.433035605
30
0.0
11
310.0
21
191.651513899
31
0.0
0
LINE
5
258
100
AcDbEntity
100
AcDbLine
8
2
62
256
370
-1
6
ByLayer
10
310.0
20
191.651513899
30
0.0
11
311.0
21
191.869472623
31
0.0
0
LINE
5
259
100
AcDbEntity
100
AcDbLine
8
2
62
256
370
-1
6
ByLayer
10
311.0
20
191.869472623
30
0.0
11
312.0
21
192.086915466
31
0.0
0
LINE
5
260
100
AcDbEntity
100
AcDbLine
8
2
62
256
370
-1
6
ByLayer
10
312.0
20
192.086915466
30
0.0
11
313.0
21
192.303846074
31
0.0
0
LINE
5
261
100
AcDbEntity
100
AcDbLine
8
2
62
256
370
-1
6
ByLayer
10
313.0
20
192.303846074
30
0.0
11
314.0
21
192.52026805
31
0.0
0
LINE
5
262
100
AcDbEntity
100
AcDbLine
8
2
62
256
370
-1
6
ByLayer
10
314.0
20
192.52026805
30
0.0
11
315.0
21
192.736184955
31
0.0
0
LINE
5
263
100
AcDbEntity
100
AcDbLine
8
2
62
256
370
-1
6
ByLayer
10
315.0
20
192.736184955
30
0.0
11
316.0
21
192.951600309
31
0.0
0
LINE
5
264
100
AcDbEntity
100
AcDbLine
8
2
62
256
370
-1
6
ByLayer
10
316.0
20
192.951600309
30
0.0
11
317.0
21
193.166517591
31
0.0
0
LINE
5
265
100
AcDbEntity
100
AcDbLine
8
2
62
256
370
-1
6
ByLayer
10
317.0
20
193.166517591
30
0.0
11
318.0
21
193.380940239
31
0.0
0
LINE
5
266
100
AcDbEntity
100
AcDbLine
8
2
62
256
370
-1
6
ByLayer
10
318.0
20
193.380940239
30
0.0
11
319.0
21
193.594871654
31
0.0
0
LINE
5
267
100
AcDbEntity
100
AcDbLine
8
2
62
256
370
-1
6
ByLayer
10
319.0
20
193.594871654
30
0.0
11
320.0
21
193.808315197
31
0.0
0
LINE
5
268
100
AcDbEntity
100
AcDbLine
8
2
62
256
370
-1
6
ByLayer
10
320.0
20
193.808315197
30
0.0
11
321.0
21
194.021274188
31
0.0
0
LINE
5
269
100
AcDbEntity
100
AcDbLine
8
2
62
256
370
-1
6
ByLayer
10
321.0
20
194.021274188
30
0.0
11
322.0
21
194.233751915
31
0.0
0
LINE
5
270
100
AcDbEntity
100
AcDbLine
8
2
62
256
370
-1
6
ByLayer
10
322.0
20
194.233751915
30
0.0
11
323.0
21
194.445751625
31
0.0
0
LINE
5
271
100
AcDbEntity
100
AcDbLine
8
2
62
256
370
-1
6
ByLayer
10
323.0
20
194.445751625
30
0.0
11
324.0
21
194.65727653
31
0.0
0
LINE
5
272
100
AcDbEntity
100
AcDbLine
8
2
62
256
370
-1
6
ByLayer
10
324.0
20
194.65727653
30
0.0
11
325.0
21
194.868329805
31
0.0
0
LINE
5
273
100
AcDbEntity
100
AcDbLine
8
2
62
256
370
-1
6
ByLayer
10
325.0
20
194.868329805
30
0.0
11
326.0
21
195.078914592
31
0.0
0
LINE
5
274
100
AcDbEntity
100
AcDbLine
8
2
62
256
370
-1
6
ByLayer
10
326.0
20
195.078914592
30
0.0
11
327.0
21
195.289033997
31
0.0
0
LINE
5
275
100
AcDbEntity
100
AcDbLine
8
2
62
256
370
-1
6
ByLayer
10
327.0
20
195.289033997
30
0.0
11
328.0
21
195.498691091
31
0.0
0
LINE
5
276
100
AcDbEntity
100
AcDbLine
8
2
62
256
370
-1
6
ByLayer
10
328.0
20
195.498691091
30
0.0
11
329.0
21
195.707888912
31
0.0
0
LINE
5
277
100
AcDbEntity
100
AcDbLine
8
2
62
256
370
-1
6
ByLayer
10
329.0
20
195.707888912
30
0.0
11
330.0
21
195.916630466
31
0.0
0
LINE
5
278
100
AcDbEntity
100
AcDbLine
8
2
62
256
370
-1
6
ByLayer
10
330.0
20
195.916630466
30
0.0
11
331.0
21
196.124918726
31
0.0
0
LINE
5
279
100
AcDbEntity
100
AcDbLine
8
2
62
256
370
-1
6
ByLayer
10
331.0
20
196.124918726
30
0.0
11
332.0
21
196.33275663
31
0.0
0
LINE
5
280
100
AcDbEntity
100
AcDbLine
8
2
62
256
370
-1
6
ByLayer
10
332.0
20
196.33275663
30
0.0
11
333.0
21
196.540147089
31
0.0
0
LINE
5
281
100
AcDbEntity
100
AcDbLine
8
2
62
256
370
-1
6
ByLayer
10
333.0
20
196.540147089
30
0.0
11
334.0
21
196.74709298
31
0.0
0
LINE
5
282
100
AcDbEntity
100
AcDbLine
8
2
62
256
370
-1
6
ByLayer
10
334.0
20
196.74709298
30
0.0
11
335.0
21
196.953597148
31
0.0
0
LINE
5
283
100
AcDbEntity
100
AcDbLine
8
2
62
256
370
-1
6
ByLayer
10
335.0
20
196.953597148
30
0.0
11
336.0
21
197.159662412
31
0.0
0
LINE
5
284
100
AcDbEntity
100
AcDbLine
8
2
62
256
370
-1
6
ByLayer
10
336.0
20
197.159662412
30
0.0
11
337.0
21
197.365291557
31
0.0
0
LINE
5
285
100
AcDbEntity
100
AcDbLine
8
2
62
256
370
-1
6
ByLayer
10
337.0
20
197.365291557
30
0.0
11
338.0
21
197.570487341
31
0.0
0
LINE
5
286
100
AcDbEntity
100
AcDbLine
8
2
62
256
370
-1
6
ByLayer
10
338.0
20
197.570487341
30
0.0
11
339.0
21
197.775252493
31
0.0
0
LINE
5
287
100
AcDbEntity
100
AcDbLine
8
2
62
256
370
-1
6
ByLayer
10
339.0
20
197.775252493
30
0.0
11
340.0
21
197.979589711
31
0.0
0
LINE
5
288
100
AcDbEntity
100
AcDbLine
8
2
62
256
370
-1
6
ByLayer
10
340.0
20
197.979589711
30
0.0
11
341.0
21
198.183501669
31
0.0
0
LINE
5
289
100
AcDbEntity
100
AcDbLine
8
2
62
256
370
-1
6
ByLayer
10
341.0
20
198.183501669
30
0.0
11
342.0
21
198.38699101
31
0.0
0
LINE
5
290
100
AcDbEntity
100
AcDbLine
8
2
62
256
370
-1
6
ByLayer
10
342.0
20
198.38699101
30
0.0
11
343.0
21
198.590060351
31
0.0
0
LINE
5
291
100
AcDbEntity
100
AcDbLine
8
2
62
256
370
-1
6
ByLayer
10
343.0
20
198.590060351
30
0.0
11
344.0
21
198.792712282
31
0.0
0
LINE
5
292
100
AcDbEntity
100
AcDbLine
8
2
62
256
370
-1
6
ByLayer
10
344.0
20
198.792712282
30
0.0
11
345.0
21
198.994949366
31
0.0
0
LINE
5
293
100
AcDbEntity
100
AcDbLine
8
2
62
256
370
-1
6
ByLayer
10
345.0
20
198.994949366
30
0.0
11
346.0
21
199.196774141
31
0.0
0
LINE
5
294
100
AcDbEntity
100
AcDbLine
8
2
62
256
370
-1
6
ByLayer
10
346.0
20
199.196774141
30
0.0
11
347.0
21
199.398189118
31
0.0
0
LINE
5
295
100
AcDbEntity
100
AcDbLine
8
2
62
256
370
-1
6
ByLayer
10
347.0
20
199.398189118
30
0.0
11
348.0
21
199.599196784
31
0.0
0
LINE
5
296
100
AcDbEntity
100
AcDbLine
8
2
62
256
370
-1
6
ByLayer
10
348.0
20
199.599196784
30
0.0
11
349.0
21
199.799799599
31
0.0
0
LINE
5
297
100
AcDbEntity
100
AcDbLine
8
2
62
256
370
-1
6
ByLayer
10
349.0
20
199.799799599
30
0.0
11
350.0
21
200.0
31
0.0
0
LINE
5
298
100
AcDbEntity
100
AcDbLine
8
2
62
256
370
-1
6
ByLayer
10
350.0
20
200.0
30
0.0
11
351.0
21
200.199800399
31
0.0
0
LINE
5
299
100
AcDbEntity
100
AcDbLine
8
2
62
256
370
-1
6
ByLayer
10
351.0
20
200.199800399
30
0.0
11
352.0
21
200.399203184
31
0.0
0
LINE
5
300
100
AcDbEntity
100
AcDbLine
8
2
62
256
370
-1
6
ByLayer
10
352.0
20
200.399203184
30
0.0
11
353.0
21
200.59821072
31
0.0
0
LINE
5
301
100
AcDbEntity
100
AcDbLine
8
2
62
256
370
-1
6
ByLayer
10
353.0
20
200.59821072
30
0.0
11
354.0
21
200.796825347
31
0.0
0
LINE
5
302
100
AcDbEntity
100
AcDbLine
8
2
62
256
370
-1
6
ByLayer
10
354.0
20
200.796825347
30
0.0
11
355.0
21
200.995049384
31
0.0
0
LINE
5
303
100
AcDbEntity
100
AcDbLine
8
2
62
256
370
-1
6
ByLayer
10
355.0
20
200.995049384
30
0.0
11
356.0
21
201.192885125
31
0.0
0
LINE
5
304
100
AcDbEntity
100
AcDbLine
8
2
62
256
370
-1
6
ByLayer
10
356.0
20
201.192885125
30
0.0
11
357.0
21
201.390334845
31
0.0
0
LINE
5
305
100
AcDbEntity
100
AcDbLine
8
2
62
256
370
-1
6
ByLayer
10
357.0
20
201.390334845
30
0.0
11
358.0
21
201.587400794
31
0.0
0
LINE
5
306
100
AcDbEntity
100
AcDbLine
8
2
62
256
370
-1
6
ByLayer
10
358.0
20
201.587400794
30
0.0
11
359.0
21
201.7840852
31
0.0
0
LINE
5
307
100
AcDbEntity
100
AcDbLine
8
2
62
256
370
-1
6
ByLayer
10
359.0
20
201.7840852
30
0.0
11
360.0
21
201.980390272
31
0.0
0
LINE
5
308
100
AcDbEntity
100
AcDbLine
8
2
62
256
370
-1
6
ByLayer
10
360.0
20
201.980390272
30
0.0
11
361.0
21
202.176318196
31
0.0
0
LINE
5
309
100
AcDbEntity
100
AcDbLine
8
2
62
256
370
-1
6
ByLayer
10
361.0
20
202.176318196
30
0.0
11
362.0
21
202.371871137
31
0.0
0
LINE
5
310
100
AcDbEntity
100
AcDbLine
8
2
62
256
370
-1
6
ByLayer
10
362.0
20
202.371871137
30
0.0
11
363.0
21
202.56705124
31
0.0
0
LINE
5
311
100
AcDbEntity
100
AcDbLine
8
2
62
256
370
-1
6
ByLayer
10
363.0
20
202.56705124
30
0.0
11
364.0
21
202.761860629
31
0.0
0
LINE
5
312
100
AcDbEntity
100
AcDbLine
8
2
62
256
370
-1
6
ByLayer
10
364.0
20
202.761860629
30
0.0
11
365.0
21
202.95630141
31
0.0
0
LINE
5
313
100
AcDbEntity
100
AcDbLine
8
2
62
256
370
-1
6
ByLayer
10
365.0
20
202.95630141
30
0.0
11
366.0
21
203.150375666
31
0.0
0
LINE
5
314
100
AcDbEntity
100
AcDbLine
8
2
62
256
370
-1
6
ByLayer
10
366.0
20
203.150375666
30
0.0
11
367.0
21
203.344085462
31
0.0
0
LINE
5
315
100
AcDbEntity
100
AcDbLine
8
2
62
256
370
-1
6
ByLayer
10
367.0
20
203.344085462
30
0.0
11
368.0
21
203.537432844
31
0.0
0
LINE
5
316
100
AcDbEntity
100
AcDbLine
8
2
62
256
370
-1
6
ByLayer
10
368.0
20
203.537432844
30
0.0
11
369.0
21
203.730419839
31
0.0
0
LINE
5
317
100
AcDbEntity
100
AcDbLine
8
2
62
256
370
-1
6
ByLayer
10
369.0
20
203.730419839
30
0.0
11
370.0
21
203.923048454
31
0.0
0
LINE
5
318
100
AcDbEntity
100
AcDbLine
8
2
62
256
370
-1
6
ByLayer
10
370.0
20
203.923048454
30
0.0
11
371.0
21
204.115320679
31
0.0
0
LINE
5
319
100
AcDbEntity
100
AcDbLine
8
2
62
256
370
-1
6
ByLayer
10
371.0
20
204.115320679
30
0.0
11
372.0
21
204.307238483
31
0.0
0
LINE
5
320
100
AcDbEntity
100
AcDbLine
8
2
62
256
370
-1
6
ByLayer
10
372.0
20
204.307238483
30
0.0
11
373.0
21
204.498803821
31
0.0
0
LINE
5
321
100
AcDbEntity
100
AcDbLine
8
2
62
256
370
-1
6
ByLayer
10
373.0
20
204.498803821
30
0.0
11
374.0
21
204.690018626
31
0.0
0
LINE
5
322
100
AcDbEntity
100
AcDbLine
8
2
62
256
370
-1
6
ByLayer
10
374.0
20
204.690018626
30
0.0
11
375.0
21
204.880884817
31
0.0
0
LINE
5
323
100
AcDbEntity
100
AcDbLine
8
2
62
256
370
-1
6
ByLayer
10
375.0
20
204.880884817
30
0.0
11
376.0
21
205.071404293
31
0.0
0
LINE
5
324
100
AcDbEntity
100
AcDbLine
8
2
62
256
370
-1
6
ByLayer
10
376.0
20
205.071404293
30
0.0
11
377.0
21
205.261578936
31
0.0
0
LINE
5
325
100
AcDbEntity
100
AcDbLine
8
2
62
256
370
-1
6
ByLayer
10
377.0
20
205.261578936
30
0.0
11
378.0
21
205.451410612
31
0.0
0
LINE
5
326
100
AcDbEntity
100
AcDbLine
8
2
62
256
370
-1
6
ByLayer
10
378.0
20
205.451410612
30
0.0
11
379.0
21
205.64090117
31
0.0
0
LINE
5
327
100
AcDbEntity
100
AcDbLine
8
2
62
256
370
-1
6
ByLayer
10
379.0
20
205.64090117
30
0.0
11
380.0
21
205.830052443
31
0.0
0
LINE
5
328
100
AcDbEntity
100
AcDbLine
8
2
62
256
370
-1
6
ByLayer
10
380.0
20
205.830052443
30
0.0
11
381.0
21
206.018866246
31
0.0
0
LINE
5
329
100
AcDbEntity
100
AcDbLine
8
2
62
256
370
-1
6
ByLayer
10
381.0
20
206.018866246
30
0.0
11
382.0
21
206.207344379
31
0.0
0
LINE
5
330
100
AcDbEntity
100
AcDbLine
8
2
62
256
370
-1
6
ByLayer
10
382.0
20
206.207344379
30
0.0
11
383.0
21
206.395488626
31
0.0
0
LINE
5
331
100
AcDbEntity
100
AcDbLine
8
2
62
256
370
-1
6
ByLayer
10
383.0
20
206.395488626
30
0.0
11
384.0
21
206.583300756
31
0.0
0
LINE
5
332
100
AcDbEntity
100
AcDbLine
8
2
62
256
370
-1
6
ByLayer
10
384.0
20
206.583300756
30
0.0
11
385.0
21
206.77078252
31
0.0
0
LINE
5
333
100
AcDbEntity
100
AcDbLine
8
2
62
256
370
-1
6
ByLayer
10
385.0
20
206.77078252
30
0.0
11
386.0
21
206.957935657
31
0.0
0
LINE
5
334
100
AcDbEntity
100
AcDbLine
8
2
62
256
370
-1
6
ByLayer
10
386.0
20
206.957935657
30
0.0
11
387.0
21
207.144761888
31
0.0
0
LINE
5
335
100
AcDbEntity
100
AcDbLine
8
2
62
256
370
-1
6
ByLayer
10
387.0
20
207.144761888
30
0.0
11
388.0
21
207.33126292
31
0.0
0
LINE
5
336
100
AcDbEntity
100
AcDbLine
8
2
62
256
370
-1
6
ByLayer
10
388.0
20
207.33126292
30
0.0
11
389.0
21
207.517440446
31
0.0
0
LINE
5
337
100
AcDbEntity
100
AcDbLine
8
2
62
256
370
-1
6
ByLayer
10
389.0
20
207.517440446
30
0.0
11
390.0
21
207.703296143
31
0.0
0
LINE
5
338
100
AcDbEntity
100
AcDbLine
8
2
62
256
370
-1
6
ByLayer
10
390.0
20
207.703296143
30
0.0
11
391.0
21
207.888831674
31
0.0
0
LINE
5
339
100
AcDbEntity
100
AcDbLine
8
2
62
256
370
-1
6
ByLayer
10
391.0
20
207.888831674
30
0.0
11
392.0
21
208.074048689
31
0.0
0
LINE
5
340
100
AcDbEntity
100
AcDbLine
8
2
62
256
370
-1
6
ByLayer
10
392.0
20
208.074048689
30
0.0
11
393.0
21
208.258948822
31
0.0
0
LINE
5
341
100
AcDbEntity
100
AcDbLine
8
2
62
256
370
-1
6
ByLayer
10
393.0
20
208.258948822
30
0.0
11
394.0
21
208.443533694
31
0.0
0
LINE
5
342
100
AcDbEntity
100
AcDbLine
8
2
62
256
370
-1
6
ByLayer
10
394.0
20
208.443533694
30
0.0
11
395.0
21
208.627804912
31
0.0
0
LINE
5
343
100
AcDbEntity
100
AcDbLine
8
2
62
256
370
-1
6
ByLayer
10
395.0
20
208.627804912
30
0.0
11
396.0
21
208.81176407
31
0.0
0
LINE
5
344
100
AcDbEntity
100
AcDbLine
8
2
62
256
370
-1
6
ByLayer
10
396.0
20
208.81176407
30
0.0
11
397.0
21
208.995412748
31
0.0
0
LINE
5
345
100
AcDbEntity
100
AcDbLine
8
2
62
256
370
-1
6
ByLayer
10
397.0
20
208.995412748
30
0.0
11
398.0
21
209.178752512
31
0.0
0
LINE
5
346
100
AcDbEntity
100
AcDbLine
8
2
62
256
370
-1
6
ByLayer
10
398.0
20
209.178752512
30
0.0
11
399.0
21
209.361784916
31
0.0
0
LINE
5
347
100
AcDbEntity
100
AcDbLine
8
2
62
256
370
-1
6
ByLayer
10
399.0
20
209.361784916
30
0.0
11
400.0
21
209.544511501
31
0.0
0
LINE
5
348
100
AcDbEntity
100
AcDbLine
8
2
62
256
370
-1
6
ByLayer
10
400.0
20
209.544511501
30
0.0
11
401.0
21
209.726933795
31
0.0
0
LINE
5
349
100
AcDbEntity
100
AcDbLine
8
2
62
256
370
-1
6
ByLayer
10
401.0
20
209.726933795
30
0.0
11
402.0
21
209.909053312
31
0.0
0
LINE
5
350
100
AcDbEntity
100
AcDbLine
8
2
62
256
370
-1
6
ByLayer
10
402.0
20
209.909053312
30
0.0
11
403.0
21
210.090871556
31
0.0
0
LINE
5
351
100
AcDbEntity
100
AcDbLine
8
2
62
256
370
-1
6
ByLayer
10
403.0
20
210.090871556
30
0.0
11
404.0
21
210.272390017
31
0.0
0
LINE
5
352
100
AcDbEntity
100
AcDbLine
8
2
62
256
370
-1
6
ByLayer
10
404.0
20
210.272390017
30
0.0
11
405.0
21
210.453610172
31
0.0
0
LINE
5
353
100
AcDbEntity
100
AcDbLine
8
2
62
256
370
-1
6
ByLayer
10
405.0
20
210.453610172
30
0.0
11
406.0
21
210.634533488
31
0.0
0
LINE
5
354
100
AcDbEntity
100
AcDbLine
8
2
62
256
370
-1
6
ByLayer
10
406.0
20
210.634533488
30
0.0
11
407.0
21
210.815161418
31
0.0
0
LINE
5
355
100
AcDbEntity
100
AcDbLine
8
2
62
256
370
-1
6
ByLayer
10
407.0
20
210.815161418
30
0.0
11
408.0
21
210.995495404
31
0.0
0
LINE
5
356
100
AcDbEntity
100
AcDbLine
8
2
62
256
370
-1
6
ByLayer
10
408.0
20
210.995495404
30
0.0
11
409.0
21
211.175536877
31
0.0
0
LINE
5
357
100
AcDbEntity
100
AcDbLine
8
2
62
256
370
-1
6
ByLayer
10
409.0
20
211.175536877
30
0.0
11
410.0
21
211.355287257
31
0.0
0
LINE
5
358
100
AcDbEntity
100
AcDbLine
8
2
62
256
370
-1
6
ByLayer
10
410.0
20
211.355287257
30
0.0
11
411.0
21
211.534747949
31
0.0
0
LINE
5
359
100
AcDbEntity
100
AcDbLine
8
2
62
256
370
-1
6
ByLayer
10
411.0
20
211.534747949
30
0.0
11
412.0
21
211.71392035
31
0.0
0
LINE
5
360
100
AcDbEntity
100
AcDbLine
8
2
62
256
370
-1
6
ByLayer
10
412.0
20
211.71392035
30
0.0
11
413.0
21
211.892805846
31
0.0
0
LINE
5
361
100
AcDbEntity
100
AcDbLine
8
2
62
256
370
-1
6
ByLayer
10
413.0
20
211.892805846
30
0.0
11
414.0
21
212.071405809
31
0.0
0
LINE
5
362
100
AcDbEntity
100
AcDbLine
8
2
62
256
370
-1
6
ByLayer
10
414.0
20
212.071405809
30
0.0
11
415.0
21
212.249721603
31
0.0
0
LINE
5
363
100
AcDbEntity
100
AcDbLine
8
2
62
256
370
-1
6
ByLayer
10
415.0
20
212.249721603
30
0.0
11
416.0
21
212.42775458
31
0.0
0
LINE
5
364
100
AcDbEntity
100
AcDbLine
8
2
62
256
370
-1
6
ByLayer
10
416.0
20
212.42775458
30
0.0
11
417.0
21
212.605506082
31
0.0
0
LINE
5
365
100
AcDbEntity
100
AcDbLine
8
2
62
256
370
-1
6
ByLayer
10
417.0
20
212.605506082
30
0.0
11
418.0
21
212.782977439
31
0.0
0
LINE
5
366
100
AcDbEntity
100
AcDbLine
8
2
62
256
370
-1
6
ByLayer
10
418.0
20
212.782977439
30
0.0
11
419.0
21
212.960169972
31
0.0
0
LINE
5
367
100
AcDbEntity
100
AcDbLine
8
2
62
256
370
-1
6
ByLayer
10
419.0
20
212.960169972
30
0.0
11
420.0
21
213.13708499
31
0.0
0
LINE
5
368
100
AcDbEntity
100
AcDbLine
8
2
62
256
370
-1
6
ByLayer
10
420.0
20
213.13708499
30
0.0
11
421.0
21
213.313723794
31
0.0
0
LINE
5
369
100
AcDbEntity
100
AcDbLine
8
2
62
256
370
-1
6
ByLayer
10
421.0
20
213.313723794
30
0.0
11
422.0
21
213.490087673
31
0.0
0
LINE
5
370
100
AcDbEntity
100
AcDbLine
8
2
62
256
370
-1
6
ByLayer
10
422.0
20
213.490087673
30
0.0
11
423.0
21
213.666177907
31
0.0
0
LINE
5
371
100
AcDbEntity
100
AcDbLine
8
2
62
256
370
-1
6
ByLayer
10
423.0
20
213.666177907
30
0.0
11
424.0
21
213.841995766
31
0.0
0
LINE
5
372
100
AcDbEntity
100
AcDbLine
8
2
62
256
370
-1
6
ByLayer
10
424.0
20
213.841995766
30
0.0
11
425.0
21
214.01754251
31
0.0
0
LINE
5
373
100
AcDbEntity
100
AcDbLine
8
2
62
256
370
-1
6
ByLayer
10
425.0
20
214.01754251
30
0.0
11
426.0
21
214.192819389
31
0.0
0
LINE
5
374
100
AcDbEntity
100
AcDbLine
8
2
62
256
370
-1
6
ByLayer
10
426.0
20
214.192819389
30
0.0
11
427.0
21
214.367827644
31
0.0
0
LINE
5
375
100
AcDbEntity
100
AcDbLine
8
2
62
256
370
-1
6
ByLayer
10
427.0
20
214.367827644
30
0.0
11
428.0
21
214.542568506
31
0.0
0
LINE
5
376
100
AcDbEntity
100
AcDbLine
8
2
62
256
370
-1
6
ByLayer
10
428.0
20
214.542568506
30
0.0
11
429.0
21
214.717043198
31
0.0
0
LINE
5
377
100
AcDbEntity
100
AcDbLine
8
2
62
256
370
-1
6
ByLayer
10
429.0
20
214.717043198
30
0.0
11
430.0
21
214.891252931
31
0.0
0
LINE
5
378
100
AcDbEntity
100
AcDbLine
8
2
62
256
370
-1
6
ByLayer
10
430.0
20
214.891252931
30
0.0
11
431.0
21
215.065198909
31
0.0
0
LINE
5
379
100
AcDbEntity
100
AcDbLine
8
2
62
256
370
-1
6
ByLayer
10
431.0
20
215.065198909
30
0.0
11
432.0
21
215.238882327
31
0.0
0
LINE
5
380
100
AcDbEntity
100
AcDbLine
8
2
62
256
370
-1
6
ByLayer
10
432.0
20
215.238882327
30
0.0
11
433.0
21
215.41230437
31
0.0
0
LINE
5
381
100
AcDbEntity
100
AcDbLine
8
2
62
256
370
-1
6
ByLayer
10
433.0
20
215.41230437
30
0.0
11
434.0
21
215.585466214
31
0.0
0
LINE
5
382
100
AcDbEntity
100
AcDbLine
8
2
62
256
370
-1
6
ByLayer
10
434.0
20
215.585466214
30
0.0
11
435.0
21
215.758369028
31
0.0
0
LINE
5
383
100
AcDbEntity
100
AcDbLine
8
2
62
256
370
-1
6
ByLayer
10
435.0
20
215.758369028
30
0.0
11
436.0
21
215.93101397
31
0.0
0
LINE
5
384
100
AcDbEntity
100
AcDbLine
8
2
62
256
370
-1
6
ByLayer
10
436.0
20
215.93101397
30
0.0
11
437.0
21
216.10340219
31
0.0
0
LINE
5
385
100
AcDbEntity
100
AcDbLine
8
2
62
256
370
-1
6
ByLayer
10
437.0
20
216.10340219
30
0.0
11
438.0
21
216.27553483
31
0.0
0
LINE
5
386
100
AcDbEntity
100
AcDbLine
8
2
62
256
370
-1
6
ByLayer
10
438.0
20
216.27553483
30
0.0
11
439.0
21
216.447413024
31
0.0
0
LINE
5
387
100
AcDbEntity
100
AcDbLine
8
2
62
256
370
-1
6
ByLayer
10
439.0
20
216.447413024
30
0.0
11
440.0
21
216.619037897
31
0.0
0
LINE
5
388
100
AcDbEntity
100
AcDbLine
8
2
62
256
370
-1
6
ByLayer
10
440.0
20
216.619037897
30
0.0
11
441.0
21
216.790410565
31
0.0
0
LINE
5
389
100
AcDbEntity
100
AcDbLine
8
2
62
256
370
-1
6
ByLayer
10
441.0
20
216.790410565
30
0.0
11
442.0
21
216.961532138
31
0.0
0
LINE
5
390
100
AcDbEntity
100
AcDbLine
8
2
62
256
370
-1
6
ByLayer
10
442.0
20
216.961532138
30
0.0
11
443.0
21
217.132403715
31
0.0
0
LINE
5
391
100
AcDbEntity
100
AcDbLine
8
2
62
256
370
-1
6
ByLayer
10
443.0
20
217.132403715
30
0.0
11
444.0
21
217.303026389
31
0.0
0
LINE
5
392
100
AcDbEntity
100
AcDbLine
8
2
62
256
370
-1
6
ByLayer
10
444.0
20
217.303026389
30
0.0
11
445.0
21
217.473401245
31
0.0
0
LINE
5
393
100
AcDbEntity
100
AcDbLine
8
2
62
256
370
-1
6
ByLayer
10
445.0
20
217.473401245
30
0.0
11
446.0
21
217.643529359
31
0.0
0
LINE
5
394
100
AcDbEntity
100
AcDbLine
8
2
62
256
370
-1
6
ByLayer
10
446.0
20
217.643529359
30
0.0
11
447.0
21
217.8134118
31
0.0
0
LINE
5
395
100
AcDbEntity
100
AcDbLine
8
2
62
256
370
-1
6
ByLayer
10
447.0
20
217.8134118
30
0.0
11
448.0
21
217.98304963
31
0.0
0
LINE
5
396
100
AcDbEntity
100
AcDbLine
8
2
62
256
370
-1
6
ByLayer
10
448.0
20
217.98304963
30
0.0
11
449.0
21
218.152443902
31
0.0
0
LINE
5
397
100
AcDbEntity
100
AcDbLine
8
2
62
256
370
-1
6
ByLayer
10
449.0
20
218.152443902
30
0.0
11
450.0
21
218.321595662
31
0.0
0
LINE
5
398
100
AcDbEntity
100
AcDbLine
8
2
62
256
370
-1
6
ByLayer
10
450.0
20
218.321595662
30
0.0
11
451.0
21
218.490505949
31
0.0
0
LINE
5
399
100
AcDbEntity
100
AcDbLine
8
2
62
256
370
-1
6
ByLayer
10
451.0
20
218.490505949
30
0.0
11
452.0
21
218.659175794
31
0.0
0
LINE
5
400
100
AcDbEntity
100
AcDbLine
8
2
62
256
370
-1
6
ByLayer
10
452.0
20
218.659175794
30
0.0
11
453.0
21
218.82760622
31
0.0
0
LINE
5
401
100
AcDbEntity
100
AcDbLine
8
2
62
256
370
-1
6
ByLayer
10
453.0
20
218.82760622
30
0.0
11
454.0
21
218.995798245
31
0.0
0
LINE
5
402
100
AcDbEntity
100
AcDbLine
8
2
62
256
370
-1
6
ByLayer
10
454.0
20
218.995798245
30
0.0
11
455.0
21
219.163752878
31
0.0
0
LINE
5
403
100
AcDbEntity
100
AcDbLine
8
2
62
256
370
-1
6
ByLayer
10
455.0
20
219.163752878
30
0.0
11
456.0
21
219.331471121
31
0.0
0
LINE
5
404
100
AcDbEntity
100
AcDbLine
8
2
62
256
370
-1
6
ByLayer
10
456.0
20
219.331471121
30
0.0
11
457.0
21
219.49895397
31
0.0
0
LINE
5
405
100
AcDbEntity
100
AcDbLine
8
2
62
256
370
-1
6
ByLayer
10
457.0
20
219.49895397
30
0.0
11
458.0
21
219.666202413
31
0.0
0
LINE
5
406
100
AcDbEntity
100
AcDbLine
8
2
62
256
370
-1
6
ByLayer
10
458.0
20
219.666202413
30
0.0
11
459.0
21
219.833217432
31
0.0
0
LINE
5
407
100
AcDbEntity
100
AcDbLine
8
2
62
256
370
-1
6
ByLayer
10
459.0
20
219.833217432
30
0.0
11
460.0
21
220.0
31
0.0
0
LINE
5
408
100
AcDbEntity
100
AcDbLine
8
2
62
256
370
-1
6
ByLayer
10
460.0
20
220.0
30
0.0
11
461.0
21
220.166551086
31
0.0
0
LINE
5
409
100
AcDbEntity
100
AcDbLine
8
2
62
256
370
-1
6
ByLayer
10
461.0
20
220.166551086
30
0.0
11
462.0
21
220.332871652
31
0.0
0
LINE
5
410
100
AcDbEntity
100
AcDbLine
8
2
62
256
370
-1
6
ByLayer
10
462.0
20
220.332871652
30
0.0
11
463.0
21
220.498962651
31
0.0
0
LINE
5
411
100
AcDbEntity
100
AcDbLine
8
2
62
256
370
-1
6
ByLayer
10
463.0
20
220.498962651
30
0.0
11
464.0
21
220.664825032
31
0.0
0
LINE
5
412
100
AcDbEntity
100
AcDbLine
8
2
62
256
370
-1
6
ByLayer
10
464.0
20
220.664825032
30
0.0
11
465.0
21
220.830459736
31
0.0
0
LINE
5
413
100
AcDbEntity
100
AcDbLine
8
2
62
256
370
-1
6
ByLayer
10
465.0
20
220.830459736
30
0.0
11
466.0
21
220.995867698
31
0.0
0
LINE
5
414
100
AcDbEntity
100
AcDbLine
8
2
62
256
370
-1
6
ByLayer
10
466.0
20
220.995867698
30
0.0
11
467.0
21
221.161049847
31
0.0
0
LINE
5
415
100
AcDbEntity
100
AcDbLine
8
2
62
256
370
-1
6
ByLayer
10
467.0
20
221.161049847
30
0.0
11
468.0
21
221.326007105
31
0.0
0
LINE
5
416
100
AcDbEntity
100
AcDbLine
8
2
62
256
370
-1
6
ByLayer
10
468.0
20
221.326007105
30
0.0
11
469.0
21
221.490740388
31
0.0
0
LINE
5
417
100
AcDbEntity
100
AcDbLine
8
2
62
256
370
-1
6
ByLayer
10
469.0
20
221.490740388
30
0.0
11
470.0
21
221.655250606
31
0.0
0
LINE
5
418
100
AcDbEntity
100
AcDbLine
8
2
62
256
370
-1
6
ByLayer
10
470.0
20
221.655250606
30
0.0
11
471.0
21
221.819538663
31
0.0
0
LINE
5
419
100
AcDbEntity
100
AcDbLine
8
2
62
256
370
-1
6
ByLayer
10
471.0
20
221.819538663
30
0.0
11
472.0
21
221.983605456
31
0.0
0
LINE
5
420
100
AcDbEntity
100
AcDbLine
8
2
62
256
370
-1
6
ByLayer
10
472.0
20
221.983605456
30
0.0
11
473.0
21
222.147451877
31
0.0
0
LINE
5
421
100
AcDbEntity
100
AcDbLine
8
2
62
256
370
-1
6
ByLayer
10
473.0
20
222.147451877
30
0.0
11
474.0
21
222.311078811
31
0.0
0
LINE
5
422
100
AcDbEntity
100
AcDbLine
8
2
62
256
370
-1
6
ByLayer
10
474.0
20
222.311078811
30
0.0
11
475.0
21
222.474487139
31
0.0
0
LINE
5
423
100
AcDbEntity
100
AcDbLine
8
2
62
256
370
-1
6
ByLayer
10
475.0
20
222.474487139
30
0.0
11
476.0
21
222.637677734
31
0.0
0
LINE
5
424
100
AcDbEntity
100
AcDbLine
8
2
62
256
370
-1
6
ByLayer
10
476.0
20
222.637677734
30
0.0
11
477.0
21
222.800651464
31
0.0
0
LINE
5
425
100
AcDbEntity
100
AcDbLine
8
2
62
256
370
-1
6
ByLayer
10
477.0
20
222.800651464
30
0.0
11
478.0
21
222.963409192
31
0.0
0
LINE
5
426
100
AcDbEntity
100
AcDbLine
8
2
62
256
370
-1
6
ByLayer
10
478.0
20
222.963409192
30
0.0
11
479.0
21
223.125951773
31
0.0
0
LINE
5
427
100
AcDbEntity
100
AcDbLine
8
2
62
256
370
-1
6
ByLayer
10
479.0
20
223.125951773
30
0.0
11
480.0
21
223.288280059
31
0.0
0
LINE
5
428
100
AcDbEntity
100
AcDbLine
8
2
62
256
370
-1
6
ByLayer
10
480.0
20
223.288280059
30
0.0
11
481.0
21
223.450394896
31
0.0
0
LINE
5
429
100
AcDbEntity
100
AcDbLine
8
2
62
256
370
-1
6
ByLayer
10
481.0
20
223.450394896
30
0.0
11
482.0
21
223.612297123
31
0.0
0
LINE
5
430
100
AcDbEntity
100
AcDbLine
8
2
62
256
370
-1
6
ByLayer
10
482.0
20
223.612297123
30
0.0
11
483.0
21
223.773987574
31
0.0
0
LINE
5
431
100
AcDbEntity
100
AcDbLine
8
2
62
256
370
-1
6
ByLayer
10
483.0
20
223.773987574
30
0.0
11
484.0
21
223.935467079
31
0.0
0
LINE
5
432
100
AcDbEntity
100
AcDbLine
8
2
62
256
370
-1
6
ByLayer
10
484.0
20
223.935467079
30
0.0
11
485.0
21
224.09673646
31
0.0
0
LINE
5
433
100
AcDbEntity
100
AcDbLine
8
2
62
256
370
-1
6
ByLayer
10
485.0
20
224.09673646
30
0.0
11
486.0
21
224.257796536
31
0.0
0
LINE
5
434
100
AcDbEntity
100
AcDbLine
8
2
62
256
370
-1
6
ByLayer
10
486.0
20
224.257796536
30
0.0
11
487.0
21
224.41864812
31
0.0
0
LINE
5
435
100
AcDbEntity
100
AcDbLine
8
2
62
256
370
-1
6
ByLayer
10
487.0
20
224.41864812
30
0.0
11
488.0
21
224.579292019
31
0.0
0
LINE
5
436
100
AcDbEntity
100
AcDbLine
8
2
62
256
370
-1
6
ByLayer
10
488.0
20
224.579292019
30
0.0
11
489.0
21
224.739729036
31
0.0
0
LINE
5
437
100
AcDbEntity
100
AcDbLine
8
2
62
256
370
-1
6
ByLayer
10
489.0
20
224.739729036
30
0.0
11
490.0
21
224.899959968
31
0.0
0
LINE
5
438
100
AcDbEntity
100
AcDbLine
8
2
62
256
370
-1
6
ByLayer
10
490.0
20
224.899959968
30
0.0
11
491.0
21
225.059985607
31
0.0
0
LINE
5
439
100
AcDbEntity
100
AcDbLine
8
2
62
256
370
-1
6
ByLayer
10
491.0
20
225.059985607
30
0.0
11
492.0
21
225.21980674
31
0.0
0
LINE
5
440
100
AcDbEntity
100
AcDbLine
8
2
62
256
370
-1
6
ByLayer
10
492.0
20
225.21980674
30
0.0
11
493.0
21
225.379424149
31
0.0
0
LINE
5
441
100
AcDbEntity
100
AcDbLine
8
2
62
256
370
-1
6
ByLayer
10
493.0
20
225.379424149
30
0.0
11
494.0
21
225.538838612
31
0.0
0
LINE
5
442
100
AcDbEntity
100
AcDbLine
8
2
62
256
370
-1
6
ByLayer
10
494.0
20
225.538838612
30
0.0
11
495.0
21
225.6980509
31
0.0
0
LINE
5
443
100
AcDbEntity
100
AcDbLine
8
2
62
256
370
-1
6
ByLayer
10
495.0
20
225.6980509
30
0.0
11
496.0
21
225.85706178
31
0.0
0
LINE
5
444
100
AcDbEntity
100
AcDbLine
8
2
62
256
370
-1
6
ByLayer
10
496.0
20
225.85706178
30
0.0
11
497.0
21
226.015872016
31
0.0
0
LINE
5
445
100
AcDbEntity
100
AcDbLine
8
2
62
256
370
-1
6
ByLayer
10
497.0
20
226.015872016
30
0.0
11
498.0
21
226.174482365
31
0.0
0
LINE
5
446
100
AcDbEntity
100
AcDbLine
8
2
62
256
370
-1
6
ByLayer
10
498.0
20
226.174482365
30
0.0
11
499.0
21
226.332893579
31
0.0
0
LINE
5
447
100
AcDbEntity
100
AcDbLine
8
2
62
256
370
-1
6
ByLayer
10
499.0
20
226.332893579
30
0.0
11
500.0
21
226.491106407
31
0.0
0
LINE
5
448
100
AcDbEntity
100
AcDbLine
8
2
62
256
370
-1
6
ByLayer
10
500.0
20
226.491106407
30
0.0
11
501.0
21
226.649121592
31
0.0
0
LINE
5
449
100
AcDbEntity
100
AcDbLine
8
2
62
256
370
-1
6
ByLayer
10
501.0
20
226.649121592
30
0.0
11
502.0
21
226.806939873
31
0.0
0
LINE
5
450
100
AcDbEntity
100
AcDbLine
8
2
62
256
370
-1
6
ByLayer
10
502.0
20
226.806939873
30
0.0
11
503.0
21
226.964561985
31
0.0
0
LINE
5
451
100
AcDbEntity
100
AcDbLine
8
2
62
256
370
-1
6
ByLayer
10
503.0
20
226.964561985
30
0.0
11
504.0
21
227.121988657
31
0.0
0
LINE
5
452
100
AcDbEntity
100
AcDbLine
8
2
62
256
370
-1
6
ByLayer
10
504.0
20
227.121988657
30
0.0
11
505.0
21
227.279220614
31
0.0
0
LINE
5
453
100
AcDbEntity
100
AcDbLine
8
2
62
256
370
-1
6
ByLayer
10
505.0
20
227.279220614
30
0.0
11
506.0
21
227.436258577
31
0.0
0
LINE
5
454
100
AcDbEntity
100
AcDbLine
8
2
62
256
370
-1
6
ByLayer
10
506.0
20
227.436258577
30
0.0
11
507.0
21
227.593103262
31
0.0
0
LINE
5
455
100
AcDbEntity
100
AcDbLine
8
2
62
256
370
-1
6
ByLayer
10
507.0
20
227.593103262
30
0.0
11
508.0
21
227.749755381
31
0.0
0
LINE
5
456
100
AcDbEntity
100
AcDbLine
8
2
62
256
370
-1
6
ByLayer
10
508.0
20
227.749755381
30
0.0
11
509.0
21
227.906215643
31
0.0
0
LINE
5
457
100
AcDbEntity
100
AcDbLine
8
2
62
256
370
-1
6
ByLayer
10
509.0
20
227.906215643
30
0.0
11
510.0
21
228.062484749
31
0.0
0
LINE
5
458
100
AcDbEntity
100
AcDbLine
8
2
62
256
370
-1
6
ByLayer
10
510.0
20
228.062484749
30
0.0
11
511.0
21
228.218563399
31
0.0
0
LINE
5
459
100
AcDbEntity
100
AcDbLine
8
2
62
256
370
-1
6
ByLayer
10
511.0
20
228.218563399
30
0.0
11
512.0
21
228.374452287
31
0.0
0
LINE
5
460
100
AcDbEntity
100
AcDbLine
8
2
62
256
370
-1
6
ByLayer
10
512.0
20
228.374452287
30
0.0
11
513.0
21
228.530152104
31
0.0
0
LINE
5
461
100
AcDbEntity
100
AcDbLine
8
2
62
256
370
-1
6
ByLayer
10
513.0
20
228.530152104
30
0.0
11
514.0
21
228.685663537
31
0.0
0
LINE
5
462
100
AcDbEntity
100
AcDbLine
8
2
62
256
370
-1
6
ByLayer
10
514.0
20
228.685663537
30
0.0
11
515.0
21
228.840987267
31
0.0
0
LINE
5
463
100
AcDbEntity
100
AcDbLine
8
2
62
256
370
-1
6
ByLayer
10
515.0
20
228.840987267
30
0.0
11
516.0
21
228.996123973
31
0.0
0
LINE
5
464
100
AcDbEntity
100
AcDbLine
8
2
62
256
370
-1
6
ByLayer
10
516.0
20
228.996123973
30
0.0
11
517.0
21
229.151074328
31
0.0
0
LINE
5
465
100
AcDbEntity
100
AcDbLine
8
2
62
256
370
-1
6
ByLayer
10
517.0
20
229.151074328
30
0.0
11
518.0
21
229.305839002
31
0.0
0
LINE
5
466
100
AcDbEntity
100
AcDbLine
8
2
62
256
370
-1
6
ByLayer
10
518.0
20
229.305839002
30
0.0
11
519.0
21
229.460418661
31
0.0
0
LINE
5
467
100
AcDbEntity
100
AcDbLine
8
2
62
256
370
-1
6
ByLayer
10
519.0
20
229.460418661
30
0.0
11
520.0
21
229.614813968
31
0.0
0
LINE
5
468
100
AcDbEntity
100
AcDbLine
8
2
62
256
370
-1
6
ByLayer
10
520.0
20
229.614813968
30
0.0
11
521.0
21
229.76902558
31
0.0
0
LINE
5
469
100
AcDbEntity
100
AcDbLine
8
2
62
256
370
-1
6
ByLayer
10
521.0
20
229.76902558
30
0.0
11
522.0
21
229.923054151
31
0.0
0
LINE
5
470
100
AcDbEntity
100
AcDbLine
8
2
62
256
370
-1
6
ByLayer
10
522.0
20
229.923054151
30
0.0
11
523.0
21
230.076900332
31
0.0
0
LINE
5
471
100
AcDbEntity
100
AcDbLine
8
2
62
256
370
-1
6
ByLayer
10
523.0
20
230.076900332
30
0.0
11
524.0
21
230.230564769
31
0.0
0
LINE
5
472
100
AcDbEntity
100
AcDbLine
8
2
62
256
370
-1
6
ByLayer
10
524.0
20
230.230564769
30
0.0
11
525.0
21
230.384048104
31
0.0
0
LINE
5
473
100
AcDbEntity
100
AcDbLine
8
2
62
256
370
-1
6
ByLayer
10
525.0
20
230.384048104
30
0.0
11
526.0
21
230.537350977
31
0.0
0
LINE
5
474
100
AcDbEntity
100
AcDbLine
8
2
62
256
370
-1
6
ByLayer
10
526.0
20
230.537350977
30
0.0
11
527.0
21
230.690474022
31
0.0
0
LINE
5
475
100
AcDbEntity
100
AcDbLine
8
2
62
256
370
-1
6
ByLayer
10
527.0
20
230.690474022
30
0.0
11
528.0
21
230.84341787
31
0.0
0
LINE
5
476
100
AcDbEntity
100
AcDbLine
8
2
62
256
370
-1
6
ByLayer
10
528.0
20
230.84341787
30
0.0
11
529.0
21
230.996183151
31
0.0
0
LINE
5
477
100
AcDbEntity
100
AcDbLine
8
2
62
256
370
-1
6
ByLayer
10
529.0
20
230.996183151
30
0.0
11
530.0
21
231.148770486
31
0.0
0
LINE
5
478
100
AcDbEntity
100
AcDbLine
8
2
62
256
370
-1
6
ByLayer
10
530.0
20
231.148770486
30
0.0
11
531.0
21
231.301180497
31
0.0
0
LINE
5
479
100
AcDbEntity
100
AcDbLine
8
2
62
256
370
-1
6
ByLayer
10
531.0
20
231.301180497
30
0.0
11
532.0
21
231.453413801
31
0.0
0
LINE
5
480
100
AcDbEntity
100
AcDbLine
8
2
62
256
370
-1
6
ByLayer
10
532.0
20
231.453413801
30
0.0
11
533.0
21
231.605471011
31
0.0
0
LINE
5
481
100
AcDbEntity
100
AcDbLine
8
2
62
256
370
-1
6
ByLayer
10
533.0
20
231.605471011
30
0.0
11
534.0
21
231.757352736
31
0.0
0
LINE
5
482
100
AcDbEntity
100
AcDbLine
8
2
62
256
370
-1
6
ByLayer
10
534.0
20
231.757352736
30
0.0
11
535.0
21
231.909059583
31
0.0
0
LINE
5
483
100
AcDbEntity
100
AcDbLine
8
2
62
256
370
-1
6
ByLayer
10
535.0
20
231.909059583
30
0.0
11
536.0
21
232.060592154
31
0.0
0
LINE
5
484
100
AcDbEntity
100
AcDbLine
8
2
62
256
370
-1
6
ByLayer
10
536.0
20
232.060592154
30
0.0
11
537.0
21
232.211951048
31
0.0
0
LINE
5
485
100
AcDbEntity
100
AcDbLine
8
2
62
256
370
-1
6
ByLayer
10
537.0
20
232.211951048
30
0.0
11
538.0
21
232.363136862
31
0.0
0
LINE
5
486
100
AcDbEntity
100
AcDbLine
8
2
62
256
370
-1
6
ByLayer
10
538.0
20
232.363136862
30
0.0
11
539.0
21
232.514150188
31
0.0
0
LINE
5
487
100
AcDbEntity
100
AcDbLine
8
2
62
256
370
-1
6
ByLayer
10
539.0
20
232.514150188
30
0.0
11
540.0
21
232.664991614
31
0.0
0
LINE
5
488
100
AcDbEntity
100
AcDbLine
8
2
62
256
370
-1
6
ByLayer
10
540.0
20
232.664991614
30
0.0
11
541.0
21
232.815661727
31
0.0
0
LINE
5
489
100
AcDbEntity
100
AcDbLine
8
2
62
256
370
-1
6
ByLayer
10
541.0
20
232.815661727
30
0.0
11
542.0
21
232.966161109
31
0.0
0
LINE
5
490
100
AcDbEntity
100
AcDbLine
8
2
62
256
370
-1
6
ByLayer
10
542.0
20
232.966161109
30
0.0
11
543.0
21
233.116490338
31
0.0
0
LINE
5
491
100
AcDbEntity
100
AcDbLine
8
2
62
256
370
-1
6
ByLayer
10
543.0
20
233.116490338
30
0.0
11
544.0
21
233.266649992
31
0.0
0
LINE
5
492
100
AcDbEntity
100
AcDbLine
8
2
62
256
370
-1
6
ByLayer
10
544.0
20
233.266649992
30
0.0
11
545.0
21
233.416640641
31
0.0
0
LINE
5
493
100
AcDbEntity
100
AcDbLine
8
2
62
256
370
-1
6
ByLayer
10
545.0
20
233.416640641
30
0.0
11
546.0
21
233.566462857
31
0.0
0
LINE
5
494
100
AcDbEntity
100
AcDbLine
8
2
62
256
370
-1
6
ByLayer
10
546.0
20
233.566462857
30
0.0
11
547.0
21
233.716117204
31
0.0
0
LINE
5
495
100
AcDbEntity
100
AcDbLine
8
2
62
256
370
-1
6
ByLayer
10
547.0
20
233.716117204
30
0.0
11
548.0
21
233.865604245
31
0.0
0
LINE
5
496
100
AcDbEntity
100
AcDbLine
8
2
62
256
370
-1
6
ByLayer
10
548.0
20
233.865604245
30
0.0
11
549.0
21
234.014924542
31
0.0
0
LINE
5
497
100
AcDbEntity
100
AcDbLine
8
2
62
256
370
-1
6
ByLayer
10
549.0
20
234.014924542
30
0.0
11
550.0
21
234.16407865
31
0.0
0
LINE
5
498
100
AcDbEntity
100
AcDbLine
8
2
62
256
370
-1
6
ByLayer
10
550.0
20
234.16407865
30
0.0
11
551.0
21
234.313067123
31
0.0
0
LINE
5
499
100
AcDbEntity
100
AcDbLine
8
2
62
256
370
-1
6
ByLayer
10
551.0
20
234.313067123
30
0.0
11
552.0
21
234.461890512
31
0.0
0
LINE
5
500
100
AcDbEntity
100
AcDbLine
8
2
62
256
370
-1
6
ByLayer
10
552.0
20
234.461890512
30
0.0
11
553.0
21
234.610549364
31
0.0
0
LINE
5
501
100
AcDbEntity
100
AcDbLine
8
2
62
256
370
-1
6
ByLayer
10
553.0
20
234.610549364
30
0.0
11
554.0
21
234.759044223
31
0.0
0
LINE
5
502
100
AcDbEntity
100
AcDbLine
8
2
62
256
370
-1
6
ByLayer
10
554.0
20
234.759044223
30
0.0
11
555.0
21
234.907375632
31
0.0
0
LINE
5
503
100
AcDbEntity
100
AcDbLine
8
2
62
256
370
-1
6
ByLayer
10
555.0
20
234.907375632
30
0.0
11
556.0
21
235.055544129
31
0.0
0
LINE
5
504
100
AcDbEntity
100
AcDbLine
8
2
62
256
370
-1
6
ByLayer
10
556.0
20
235.055544129
30
0.0
11
557.0
21
235.203550249
31
0.0
0
LINE
5
505
100
AcDbEntity
100
AcDbLine
8
2
62
256
370
-1
6
ByLayer
10
557.0
20
235.203550249
30
0.0
11
558.0
21
235.351394526
31
0.0
0
LINE
5
506
100
AcDbEntity
100
AcDbLine
8
2
62
256
370
-1
6
ByLayer
10
558.0
20
235.351394526
30
0.0
11
559.0
21
235.499077488
31
0.0
0
LINE
5
507
100
AcDbEntity
100
AcDbLine
8
2
62
256
370
-1
6
ByLayer
10
559.0
20
235.499077488
30
0.0
11
560.0
21
235.646599663
31
0.0
0
LINE
5
508
100
AcDbEntity
100
AcDbLine
8
2
62
256
370
-1
6
ByLayer
10
560.0
20
235.646599663
30
0.0
11
561.0
21
235.793961574
31
0.0
0
LINE
5
509
100
AcDbEntity
100
AcDbLine
8
2
62
256
370
-1
6
ByLayer
10
561.0
20
235.793961574
30
0.0
11
562.0
21
235.941163744
31
0.0
0
LINE
5
510
100
AcDbEntity
100
AcDbLine
8
2
62
256
370
-1
6
ByLayer
10
562.0
20
235.941163744
30
0.0
11
563.0
21
236.08820669
31
0.0
0
LINE
5
511
100
AcDbEntity
100
AcDbLine
8
2
62
256
370
-1
6
ByLayer
10
563.0
20
236.08820669
30
0.0
11
564.0
21
236.235090927
31
0.0
0
LINE
5
512
100
AcDbEntity
100
AcDbLine
8
2
62
256
370
-1
6
ByLayer
10
564.0
20
236.235090927
30
0.0
11
565.0
21
236.38181697
31
0.0
0
LINE
5
513
100
AcDbEntity
100
AcDbLine
8
2
62
256
370
-1
6
ByLayer
10
565.0
20
236.38181697
30
0.0
11
566.0
21
236.528385327
31
0.0
0
LINE
5
514
100
AcDbEntity
100
AcDbLine
8
2
62
256
370
-1
6
ByLayer
10
566.0
20
236.528385327
30
0.0
11
567.0
21
236.674796506
31
0.0
0
LINE
5
515
100
AcDbEntity
100
AcDbLine
8
2
62
256
370
-1
6
ByLayer
10
567.0
20
236.674796506
30
0.0
11
568.0
21
236.821051012
31
0.0
0
LINE
5
516
100
AcDbEntity
100
AcDbLine
8
2
62
256
370
-1
6
ByLayer
10
568.0
20
236.821051012
30
0.0
11
569.0
21
236.967149346
31
0.0
0
LINE
5
517
100
AcDbEntity
100
AcDbLine
8
2
62
256
370
-1
6
ByLayer
10
569.0
20
236.967149346
30
0.0
11
570.0
21
237.113092008
31
0.0
0
LINE
5
518
100
AcDbEntity
100
AcDbLine
8
2
62
256
370
-1
6
ByLayer
10
570.0
20
237.113092008
30
0.0
11
571.0
21
237.258879494
31
0.0
0
LINE
5
519
100
AcDbEntity
100
AcDbLine
8
2
62
256
370
-1
6
ByLayer
10
571.0
20
237.258879494
30
0.0
11
572.0
21
237.404512299
31
0.0
0
LINE
5
520
100
AcDbEntity
100
AcDbLine
8
2
62
256
370
-1
6
ByLayer
10
572.0
20
237.404512299
30
0.0
11
573.0
21
237.549990912
31
0.0
0
LINE
5
521
100
AcDbEntity
100
AcDbLine
8
2
62
256
370
-1
6
ByLayer
10
573.0
20
237.549990912
30
0.0
11
574.0
21
237.695315824
31
0.0
0
LINE
5
522
100
AcDbEntity
100
AcDbLine
8
2
62
256
370
-1
6
ByLayer
10
574.0
20
237.695315824
30
0.0
11
575.0
21
237.840487521
31
0.0
0
LINE
5
523
100
AcDbEntity
100
AcDbLine
8
2
62
256
370
-1
6
ByLayer
10
575.0
20
237.840487521
30
0.0
11
576.0
21
237.985506485
31
0.0
0
LINE
5
524
100
AcDbEntity
100
AcDbLine
8
2
62
256
370
-1
6
ByLayer
10
576.0
20
237.985506485
30
0.0
11
577.0
21
238.130373199
31
0.0
0
LINE
5
525
100
AcDbEntity
100
AcDbLine
8
2
62
256
370
-1
6
ByLayer
10
577.0
20
238.130373199
30
0.0
11
578.0
21
238.27508814
31
0.0
0
LINE
5
526
100
AcDbEntity
100
AcDbLine
8
2
62
256
370
-1
6
ByLayer
10
578.0
20
238.27508814
30
0.0
11
579.0
21
238.419651784
31
0.0
0
LINE
5
527
100
AcDbEntity
100
AcDbLine
8
2
62
256
370
-1
6
ByLayer
10
579.0
20
238.419651784
30
0.0
11
580.0
21
238.564064606
31
0.0
0
LINE
5
528
100
AcDbEntity
100
AcDbLine
8
2
62
256
370
-1
6
ByLayer
10
580.0
20
238.564064606
30
0.0
11
581.0
21
238.708327075
31
0.0
0
LINE
5
529
100
AcDbEntity
100
AcDbLine
8
2
62
256
370
-1
6
ByLayer
10
581.0
20
238.708327075
30
0.0
11
582.0
21
238.852439662
31
0.0
0
LINE
5
530
100
AcDbEntity
100
AcDbLine
8
2
62
256
370
-1
6
ByLayer
10
582.0
20
238.852439662
30
0.0
11
583.0
21
238.996402831
31
0.0
0
LINE
5
531
100
AcDbEntity
100
AcDbLine
8
2
62
256
370
-1
6
ByLayer
10
583.0
20
238.996402831
30
0.0
11
584.0
21
239.140217047
31
0.0
0
LINE
5
532
100
AcDbEntity
100
AcDbLine
8
2
62
256
370
-1
6
ByLayer
10
584.0
20
239.140217047
30
0.0
11
585.0
21
239.283882772
31
0.0
0
LINE
5
533
100
AcDbEntity
100
AcDbLine
8
2
62
256
370
-1
6
ByLayer
10
585.0
20
239.283882772
30
0.0
11
586.0
21
239.427400463
31
0.0
0
LINE
5
534
100
AcDbEntity
100
AcDbLine
8
2
62
256
370
-1
6
ByLayer
10
586.0
20
239.427400463
30
0.0
11
587.0
21
239.570770579
31
0.0
0
LINE
5
535
100
AcDbEntity
100
AcDbLine
8
2
62
256
370
-1
6
ByLayer
10
587.0
20
239.570770579
30
0.0
11
588.0
21
239.713993573
31
0.0
0
LINE
5
536
100
AcDbEntity
100
AcDbLine
8
2
62
256
370
-1
6
ByLayer
10
588.0
20
239.713993573
30
0.0
11
589.0
21
239.857069896
31
0.0
0
LINE
5
537
100
AcDbEntity
100
AcDbLine
8
2
62
256
370
-1
6
ByLayer
10
589.0
20
239.857069896
30
0.0
11
590.0
21
240.0
31
0.0
0
LINE
5
538
100
AcDbEntity
100
AcDbLine
8
2
62
256
370
-1
6
ByLayer
10
590.0
20
240.0
30
0.0
11
591.0
21
240.142784331
31
0.0
0
LINE
5
539
100
AcDbEntity
100
AcDbLine
8
2
62
256
370
-1
6
ByLayer
10
591.0
20
240.142784331
30
0.0
11
592.0
21
240.285423334
31
0.0
0
LINE
5
540
100
AcDbEntity
100
AcDbLine
8
2
62
256
370
-1
6
ByLayer
10
592.0
20
240.285423334
30
0.0
11
593.0
21
240.427917452
31
0.0
0
LINE
5
541
100
AcDbEntity
100
AcDbLine
8
2
62
256
370
-1
6
ByLayer
10
593.0
20
240.427917452
30
0.0
11
594.0
21
240.570267126
31
0.0
0
LINE
5
542
100
AcDbEntity
100
AcDbLine
8
2
62
256
370
-1
6
ByLayer
10
594.0
20
240.570267126
30
0.0
11
595.0
21
240.712472795
31
0.0
0
LINE
5
543
100
AcDbEntity
100
AcDbLine
8
2
62
256
370
-1
6
ByLayer
10
595.0
20
240.712472795
30
0.0
11
596.0
21
240.854534893
31
0.0
0
LINE
5
544
100
AcDbEntity
100
AcDbLine
8
2
62
256
370
-1
6
ByLayer
10
596.0
20
240.854534893
30
0.0
11
597.0
21
240.996453856
31
0.0
0
LINE
5
545
100
AcDbEntity
100
AcDbLine
8
2
62
256
370
-1
6
ByLayer
10
597.0
20
240.996453856
30
0.0
11
598.0
21
241.138230115
31
0.0
0
LINE
5
546
100
AcDbEntity
100
AcDbLine
8
2
62
256
370
-1
6
ByLayer
10
598.0
20
241.138230115
30
0.0
11
599.0
21
241.2798641
31
0.0
0
LINE
5
547
100
AcDbEntity
100
AcDbLine
8
2
62
256
370
-1
6
ByLayer
10
599.0
20
241.2798641
30
0.0
11
600.0
21
241.421356237
31
0.0
0
LINE
5
548
100
AcDbEntity
100
AcDbLine
8
2
62
256
370
-1
6
ByLayer
10
200.0
20
100.0
30
0.0
11
201.0
21
93.6754446797
31
0.0
0
LINE
5
549
100
AcDbEntity
100
AcDbLine
8
2
62
256
370
-1
6
ByLayer
10
201.0
20
93.6754446797
30
0.0
11
202.0
21
91.05572809
31
0.0
0
LINE
5
550
100
AcDbEntity
100
AcDbLine
8
2
62
256
370
-1
6
ByLayer
10
202.0
20
91.05572809
30
0.0
11
203.0
21
89.0455488499
31
0.0
0
LINE
5
551
100
AcDbEntity
100
AcDbLine
8
2
62
256
370
-1
6
ByLayer
10
203.0
20
89.0455488499
30
0.0
11
204.0
21
87.3508893593
31
0.0
0
LINE
5
552
100
AcDbEntity
100
AcDbLine
8
2
62
256
370
-1
6
ByLayer
10
204.0
20
87.3508893593
30
0.0
11
205.0
21
85.8578643763
31
0.0
0
LINE
5
553
100
AcDbEntity
100
AcDbLine
8
2
62
256
370
-1
6
ByLayer
10
205.0
20
85.8578643763
30
0.0
11
206.0
21
84.5080666152
31
0.0
0
LINE
5
554
100
AcDbEntity
100
AcDbLine
8
2
62
256
370
-1
6
ByLayer
10
206.0
20
84.5080666152
30
0.0
11
207.0
21
83.2667994693
31
0.0
0
LINE
5
555
100
AcDbEntity
100
AcDbLine
8
2
62
256
370
-1
6
ByLayer
10
207.0
20
83.2667994693
30
0.0
11
208.0
21
82.11145618
31
0.0
0
LINE
5
556
100
AcDbEntity
100
AcDbLine
8
2
62
256
370
-1
6
ByLayer
10
208.0
20
82.11145618
30
0.0
11
209.0
21
81.026334039
31
0.0
0
LINE
5
557
100
AcDbEntity
100
AcDbLine
8
2
62
256
370
-1
6
ByLayer
10
209.0
20
81.026334039
30
0.0
11
210.0
21
80.0
31
0.0
0
LINE
5
558
100
AcDbEntity
100
AcDbLine
8
2
62
256
370
-1
6
ByLayer
10
210.0
20
80.0
30
0.0
11
211.0
21
79.0238230366
31
0.0
0
LINE
5
559
100
AcDbEntity
100
AcDbLine
8
2
62
256
370
-1
6
ByLayer
10
211.0
20
79.0238230366
30
0.0
11
212.0
21
78.0910976998
31
0.0
0
LINE
5
560
100
AcDbEntity
100
AcDbLine
8
2
62
256
370
-1
6
ByLayer
10
212.0
20
78.0910976998
30
0.0
11
213.0
21
77.196491498
31
0.0
0
LINE
5
561
100
AcDbEntity
100
AcDbLine
8
2
62
256
370
-1
6
ByLayer
10
213.0
20
77.196491498
30
0.0
11
214.0
21
76.3356808676
31
0.0
0
LINE
5
562
100
AcDbEntity
100
AcDbLine
8
2
62
256
370
-1
6
ByLayer
10
214.0
20
76.3356808676
30
0.0
11
215.0
21
75.5051025722
31
0.0
0
LINE
5
563
100
AcDbEntity
100
AcDbLine
8
2
62
256
370
-1
6
ByLayer
10
215.0
20
75.5051025722
30
0.0
11
216.0
21
74.7017787187
31
0.0
0
LINE
5
564
100
AcDbEntity
100
AcDbLine
8
2
62
256
370
-1
6
ByLayer
10
216.0
20
74.7017787187
30
0.0
11
217.0
21
73.9231903792
31
0.0
0
LINE
5
565
100
AcDbEntity
100
AcDbLine
8
2
62
256
370
-1
6
ByLayer
10
217.0
20
73.9231903792
30
0.0
11
218.0
21
73.16718427
31
0.0
0
LINE
5
566
100
AcDbEntity
100
AcDbLine
8
2
62
256
370
-1
6
ByLayer
10
218.0
20
73.16718427
30
0.0
11
219.0
21
72.4319024958
31
0.0
0
LINE
5
567
100
AcDbEntity
100
AcDbLine
8
2
62
256
370
-1
6
ByLayer
10
219.0
20
72.4319024958
30
0.0
11
220.0
21
71.7157287525
31
0.0
0
LINE
5
568
100
AcDbEntity
100
AcDbLine
8
2
62
256
370
-1
6
ByLayer
10
220.0
20
71.7157287525
30
0.0
11
221.0
21
71.0172465076
31
0.0
0
LINE
5
569
100
AcDbEntity
100
AcDbLine
8
2
62
256
370
-1
6
ByLayer
10
221.0
20
71.0172465076
30
0.0
11
222.0
21
70.3352060516
31
0.0
0
LINE
5
570
100
AcDbEntity
100
AcDbLine
8
2
62
256
370
-1
6
ByLayer
10
222.0
20
70.3352060516
30
0.0
11
223.0
21
69.6684982238
31
0.0
0
LINE
5
571
100
AcDbEntity
100
AcDbLine
8
2
62
256
370
-1
6
ByLayer
10
223.0
20
69.6684982238
30
0.0
11
224.0
21
69.0161332303
31
0.0
0
LINE
5
572
100
AcDbEntity
100
AcDbLine
8
2
62
256
370
-1
6
ByLayer
10
224.0
20
69.0161332303
30
0.0
11
225.0
21
68.3772233983
31
0.0
0
LINE
5
573
100
AcDbEntity
100
AcDbLine
8
2
62
256
370
-1
6
ByLayer
10
225.0
20
68.3772233983
30
0.0
11
226.0
21
67.7509690068
31
0.0
0
LINE
5
574
100
AcDbEntity
100
AcDbLine
8
2
62
256
370
-1
6
ByLayer
10
226.0
20
67.7509690068
30
0.0
11
227.0
21
67.1366465497
31
0.0
0
LINE
5
575
100
AcDbEntity
100
AcDbLine
8
2
62
256
370
-1
6
ByLayer
10
227.0
20
67.1366465497
30
0.0
11
228.0
21
66.5335989386
31
0.0
0
LINE
5
576
100
AcDbEntity
100
AcDbLine
8
2
62
256
370
-1
6
ByLayer
10
228.0
20
66.5335989386
30
0.0
11
229.0
21
65.9412272681
31
0.0
0
LINE
5
577
100
AcDbEntity
100
AcDbLine
8
2
62
256
370
-1
6
ByLayer
10
229.0
20
65.9412272681
30
0.0
11
230.0
21
65.3589838486
31
0.0
0
LINE
5
578
100
AcDbEntity
100
AcDbLine
8
2
62
256
370
-1
6
ByLayer
10
230.0
20
65.3589838486
30
0.0
11
231.0
21
64.7863662767
31
0.0
0
LINE
5
579
100
AcDbEntity
100
AcDbLine
8
2
62
256
370
-1
6
ByLayer
10
231.0
20
64.7863662767
30
0.0
11
232.0
21
64.22291236
31
0.0
0
LINE
5
580
100
AcDbEntity
100
AcDbLine
8
2
62
256
370
-1
6
ByLayer
10
232.0
20
64.22291236
30
0.0
11
233.0
21
63.6681957508
31
0.0
0
LINE
5
581
100
AcDbEntity
100
AcDbLine
8
2
62
256
370
-1
6
ByLayer
10
233.0
20
63.6681957508
30
0.0
11
234.0
21
63.1218221708
31
0.0
0
LINE
5
582
100
AcDbEntity
100
AcDbLine
8
2
62
256
370
-1
6
ByLayer
10
234.0
20
63.1218221708
30
0.0
11
235.0
21
62.5834261323
31
0.0
0
LINE
5
583
100
AcDbEntity
100
AcDbLine
8
2
62
256
370
-1
6
ByLayer
10
235.0
20
62.5834261323
30
0.0
11
236.0
21
62.052668078
31
0.0
0
LINE
5
584
100
AcDbEntity
100
AcDbLine
8
2
62
256
370
-1
6
ByLayer
10
236.0
20
62.052668078
30
0.0
11
237.0
21
61.5292318767
31
0.0
0
LINE
5
585
100
AcDbEntity
100
AcDbLine
8
2
62
256
370
-1
6
ByLayer
10
237.0
20
61.5292318767
30
0.0
11
238.0
21
61.0128226208
31
0.0
0
LINE
5
586
100
AcDbEntity
100
AcDbLine
8
2
62
256
370
-1
6
ByLayer
10
238.0
20
61.0128226208
30
0.0
11
239.0
21
60.5031646837
31
0.0
0
LINE
5
587
100
AcDbEntity
100
AcDbLine
8
2
62
256
370
-1
6
ByLayer
10
239.0
20
60.5031646837
30
0.0
11
240.0
21
60.0
31
0.0
0
LINE
5
588
100
AcDbEntity
100
AcDbLine
8
2
62
256
370
-1
6
ByLayer
10
240.0
20
60.0
30
0.0
11
241.0
21
59.5030865374
31
0.0
0
LINE
5
589
100
AcDbEntity
100
AcDbLine
8
2
62
256
370
-1
6
ByLayer
10
241.0
20
59.5030865374
30
0.0
11
242.0
21
59.0121969362
31
0.0
0
LINE
5
590
100
AcDbEntity
100
AcDbLine
8
2
62
256
370
-1
6
ByLayer
10
242.0
20
59.0121969362
30
0.0
11
243.0
21
58.5271172933
31
0.0
0
LINE
5
591
100
AcDbEntity
100
AcDbLine
8
2
62
256
370
-1
6
ByLayer
10
243.0
20
58.5271172933
30
0.0
11
244.0
21
58.0476460732
31
0.0
0
LINE
5
592
100
AcDbEntity
100
AcDbLine
8
2
62
256
370
-1
6
ByLayer
10
244.0
20
58.0476460732
30
0.0
11
245.0
21
57.5735931288
31
0.0
0
LINE
5
593
100
AcDbEntity
100
AcDbLine
8
2
62
256
370
-1
6
ByLayer
10
245.0
20
57.5735931288
30
0.0
11
246.0
21
57.1047788209
31
0.0
0
LINE
5
594
100
AcDbEntity
100
AcDbLine
8
2
62
256
370
-1
6
ByLayer
10
246.0
20
57.1047788209
30
0.0
11
247.0
21
56.6410332226
31
0.0
0
LINE
5
595
100
AcDbEntity
100
AcDbLine
8
2
62
256
370
-1
6
ByLayer
10
247.0
20
56.6410332226
30
0.0
11
248.0
21
56.1821953996
31
0.0
0
LINE
5
596
100
AcDbEntity
100
AcDbLine
8
2
62
256
370
-1
6
ByLayer
10
248.0
20
56.1821953996
30
0.0
11
249.0
21
55.7281127576
31
0.0
0
LINE
5
597
100
AcDbEntity
100
AcDbLine
8
2
62
256
370
-1
6
ByLayer
10
249.0
20
55.7281127576
30
0.0
11
250.0
21
55.27864045
31
0.0
0
LINE
5
598
100
AcDbEntity
100
AcDbLine
8
2
62
256
370
-1
6
ByLayer
10
250.0
20
55.27864045
30
0.0
11
251.0
21
54.8336408375
31
0.0
0
LINE
5
599
100
AcDbEntity
100
AcDbLine
8
2
62
256
370
-1
6
ByLayer
10
251.0
20
54.8336408375
30
0.0
11
252.0
21
54.392982996
31
0.0
0
LINE
5
600
100
AcDbEntity
100
AcDbLine
8
2
62
256
370
-1
6
ByLayer
10
252.0
20
54.392982996
30
0.0
11
253.0
21
53.9565422671
31
0.0
0
LINE
5
601
100
AcDbEntity
100
AcDbLine
8
2
62
256
370
-1
6
ByLayer
10
253.0
20
53.9565422671
30
0.0
11
254.0
21
53.5241998455
31
0.0
0
LINE
5
602
100
AcDbEntity
100
AcDbLine
8
2
62
256
370
-1
6
ByLayer
10
254.0
20
53.5241998455
30
0.0
11
255.0
21
53.0958424018
31
0.0
0
LINE
5
603
100
AcDbEntity
100
AcDbLine
8
2
62
256
370
-1
6
ByLayer
10
255.0
20
53.0958424018
30
0.0
11
256.0
21
52.6713617352
31
0.0
0
LINE
5
604
100
AcDbEntity
100
AcDbLine
8
2
62
256
370
-1
6
ByLayer
10
256.0
20
52.6713617352
30
0.0
11
257.0
21
52.2506544547
31
0.0
0
LINE
5
605
100
AcDbEntity
100
AcDbLine
8
2
62
256
370
-1
6
ByLayer
10
257.0
20
52.2506544547
30
0.0
11
258.0
21
51.8336216848
31
0.0
0
LINE
5
606
100
AcDbEntity
100
AcDbLine
8
2
62
256
370
-1
6
ByLayer
10
258.0
20
51.8336216848
30
0.0
11
259.0
21
51.420168794
31
0.0
0
LINE
5
607
100
AcDbEntity
100
AcDbLine
8
2
62
256
370
-1
6
ByLayer
10
259.0
20
51.420168794
30
0.0
11
260.0
21
51.0102051443
31
0.0
0
LINE
5
608
100
AcDbEntity
100
AcDbLine
8
2
62
256
370
-1
6
ByLayer
10
260.0
20
51.0102051443
30
0.0
11
261.0
21
50.6036438591
31
0.0
0
LINE
5
609
100
AcDbEntity
100
AcDbLine
8
2
62
256
370
-1
6
ByLayer
10
261.0
20
50.6036438591
30
0.0
11
262.0
21
50.200401608
31
0.0
0
LINE
5
610
100
AcDbEntity
100
AcDbLine
8
2
62
256
370
-1
6
ByLayer
10
262.0
20
50.200401608
30
0.0
11
263.0
21
49.800398408
31
0.0
0
LINE
5
611
100
AcDbEntity
100
AcDbLine
8
2
62
256
370
-1
6
ByLayer
10
263.0
20
49.800398408
30
0.0
11
264.0
21
49.4035574373
31
0.0
0
LINE
5
612
100
AcDbEntity
100
AcDbLine
8
2
62
256
370
-1
6
ByLayer
10
264.0
20
49.4035574373
30
0.0
11
265.0
21
49.0098048641
31
0.0
0
LINE
5
613
100
AcDbEntity
100
AcDbLine
8
2
62
256
370
-1
6
ByLayer
10
265.0
20
49.0098048641
30
0.0
11
266.0
21
48.6190696853
31
0.0
0
LINE
5
614
100
AcDbEntity
100
AcDbLine
8
2
62
256
370
-1
6
ByLayer
10
266.0
20
48.6190696853
30
0.0
11
267.0
21
48.2312835778
31
0.0
0
LINE
5
615
100
AcDbEntity
100
AcDbLine
8
2
62
256
370
-1
6
ByLayer
10
267.0
20
48.2312835778
30
0.0
11
268.0
21
47.8463807584
31
0.0
0
LINE
5
616
100
AcDbEntity
100
AcDbLine
8
2
62
256
370
-1
6
ByLayer
10
268.0
20
47.8463807584
30
0.0
11
269.0
21
47.4642978537
31
0.0
0
LINE
5
617
100
AcDbEntity
100
AcDbLine
8
2
62
256
370
-1
6
ByLayer
10
269.0
20
47.4642978537
30
0.0
11
270.0
21
47.0849737787
31
0.0
0
LINE
5
618
100
AcDbEntity
100
AcDbLine
8
2
62
256
370
-1
6
ByLayer
10
270.0
20
47.0849737787
30
0.0
11
271.0
21
46.7083496221
31
0.0
0
LINE
5
619
100
AcDbEntity
100
AcDbLine
8
2
62
256
370
-1
6
ByLayer
10
271.0
20
46.7083496221
30
0.0
11
272.0
21
46.33436854
31
0.0
0
LINE
5
620
100
AcDbEntity
100
AcDbLine
8
2
62
256
370
-1
6
ByLayer
10
272.0
20
46.33436854
30
0.0
11
273.0
21
45.9629756556
31
0.0
0
LINE
5
621
100
AcDbEntity
100
AcDbLine
8
2
62
256
370
-1
6
ByLayer
10
273.0
20
45.9629756556
30
0.0
11
274.0
21
45.5941179651
31
0.0
0
LINE
5
622
100
AcDbEntity
100
AcDbLine
8
2
62
256
370
-1
6
ByLayer
10
274.0
20
45.5941179651
30
0.0
11
275.0
21
45.2277442495
31
0.0
0
LINE
5
623
100
AcDbEntity
100
AcDbLine
8
2
62
256
370
-1
6
ByLayer
10
275.0
20
45.2277442495
30
0.0
11
276.0
21
44.8638049916
31
0.0
0
LINE
5
624
100
AcDbEntity
100
AcDbLine
8
2
62
256
370
-1
6
ByLayer
10
276.0
20
44.8638049916
30
0.0
11
277.0
21
44.502252298
31
0.0
0
LINE
5
625
100
AcDbEntity
100
AcDbLine
8
2
62
256
370
-1
6
ByLayer
10
277.0
20
44.502252298
30
0.0
11
278.0
21
44.1430398249
31
0.0
0
LINE
5
626
100
AcDbEntity
100
AcDbLine
8
2
62
256
370
-1
6
ByLayer
10
278.0
20
44.1430398249
30
0.0
11
279.0
21
43.7861227098
31
0.0
0
LINE
5
627
100
AcDbEntity
100
AcDbLine
8
2
62
256
370
-1
6
ByLayer
10
279.0
20
43.7861227098
30
0.0
11
280.0
21
43.4314575051
31
0.0
0
LINE
5
628
100
AcDbEntity
100
AcDbLine
8
2
62
256
370
-1
6
ByLayer
10
280.0
20
43.4314575051
30
0.0
11
281.0
21
43.079002117
31
0.0
0
LINE
5
629
100
AcDbEntity
100
AcDbLine
8
2
62
256
370
-1
6
ByLayer
10
281.0
20
43.079002117
30
0.0
11
282.0
21
42.7287157469
31
0.0
0
LINE
5
630
100
AcDbEntity
100
AcDbLine
8
2
62
256
370
-1
6
ByLayer
10
282.0
20
42.7287157469
30
0.0
11
283.0
21
42.3805588364
31
0.0
0
LINE
5
631
100
AcDbEntity
100
AcDbLine
8
2
62
256
370
-1
6
ByLayer
10
283.0
20
42.3805588364
30
0.0
11
284.0
21
42.0344930152
31
0.0
0
LINE
5
632
100
AcDbEntity
100
AcDbLine
8
2
62
256
370
-1
6
ByLayer
10
284.0
20
42.0344930152
30
0.0
11
285.0
21
41.6904810515
31
0.0
0
LINE
5
633
100
AcDbEntity
100
AcDbLine
8
2
62
256
370
-1
6
ByLayer
10
285.0
20
41.6904810515
30
0.0
11
286.0
21
41.3484868055
31
0.0
0
LINE
5
634
100
AcDbEntity
100
AcDbLine
8
2
62
256
370
-1
6
ByLayer
10
286.0
20
41.3484868055
30
0.0
11
287.0
21
41.008475185
31
0.0
0
LINE
5
635
100
AcDbEntity
100
AcDbLine
8
2
62
256
370
-1
6
ByLayer
10
287.0
20
41.008475185
30
0.0
11
288.0
21
40.6704121032
31
0.0
0
LINE
5
636
100
AcDbEntity
100
AcDbLine
8
2
62
256
370
-1
6
ByLayer
10
288.0
20
40.6704121032
30
0.0
11
289.0
21
40.3342644393
31
0.0
0
LINE
5
637
100
AcDbEntity
100
AcDbLine
8
2
62
256
370
-1
6
ByLayer
10
289.0
20
40.3342644393
30
0.0
11
290.0
21
40.0
31
0.0
0
LINE
5
638
100
AcDbEntity
100
AcDbLine
8
2
62
256
370
-1
6
ByLayer
10
290.0
20
40.0
30
0.0
11
291.0
21
39.667587484
31
0.0
0
LINE
5
639
100
AcDbEntity
100
AcDbLine
8
2
62
256
370
-1
6
ByLayer
10
291.0
20
39.667587484
30
0.0
11
292.0
21
39.3369964476
31
0.0
0
LINE
5
640
100
AcDbEntity
100
AcDbLine
8
2
62
256
370
-1
6
ByLayer
10
292.0
20
39.3369964476
30
0.0
11
293.0
21
39.0081972721
31
0.0
0
LINE
5
641
100
AcDbEntity
100
AcDbLine
8
2
62
256
370
-1
6
ByLayer
10
293.0
20
39.0081972721
30
0.0
11
294.0
21
38.681161133
31
0.0
0
LINE
5
642
100
AcDbEntity
100
AcDbLine
8
2
62
256
370
-1
6
ByLayer
10
294.0
20
38.681161133
30
0.0
11
295.0
21
38.3558599703
31
0.0
0
LINE
5
643
100
AcDbEntity
100
AcDbLine
8
2
62
256
370
-1
6
ByLayer
10
295.0
20
38.3558599703
30
0.0
11
296.0
21
38.0322664607
31
0.0
0
LINE
5
644
100
AcDbEntity
100
AcDbLine
8
2
62
256
370
-1
6
ByLayer
10
296.0
20
38.0322664607
30
0.0
11
297.0
21
37.7103539904
31
0.0
0
LINE
5
645
100
AcDbEntity
100
AcDbLine
8
2
62
256
370
-1
6
ByLayer
10
297.0
20
37.7103539904
30
0.0
11
298.0
21
37.39009663
31
0.0
0
LINE
5
646
100
AcDbEntity
100
AcDbLine
8
2
62
256
370
-1
6
ByLayer
10
298.0
20
37.39009663
30
0.0
11
299.0
21
37.0714691098
31
0.0
0
LINE
5
647
100
AcDbEntity
100
AcDbLine
8
2
62
256
370
-1
6
ByLayer
10
299.0
20
37.0714691098
30
0.0
11
300.0
21
36.7544467966
31
0.0
0
LINE
5
648
100
AcDbEntity
100
AcDbLine
8
2
62
256
370
-1
6
ByLayer
10
300.0
20
36.7544467966
30
0.0
11
301.0
21
36.4390056717
31
0.0
0
LINE
5
649
100
AcDbEntity
100
AcDbLine
8
2
62
256
370
-1
6
ByLayer
10
301.0
20
36.4390056717
30
0.0
11
302.0
21
36.1251223093
31
0.0
0
LINE
5
650
100
AcDbEntity
100
AcDbLine
8
2
62
256
370
-1
6
ByLayer
10
302.0
20
36.1251223093
30
0.0
11
303.0
21
35.8127738565
31
0.0
0
LINE
5
651
100
AcDbEntity
100
AcDbLine
8
2
62
256
370
-1
6
ByLayer
10
303.0
20
35.8127738565
30
0.0
11
304.0
21
35.5019380136
31
0.0
0
LINE
5
652
100
AcDbEntity
100
AcDbLine
8
2
62
256
370
-1
6
ByLayer
10
304.0
20
35.5019380136
30
0.0
11
305.0
21
35.1925930159
31
0.0
0
LINE
5
653
100
AcDbEntity
100
AcDbLine
8
2
62
256
370
-1
6
ByLayer
10
305.0
20
35.1925930159
30
0.0
11
306.0
21
34.8847176156
31
0.0
0
LINE
5
654
100
AcDbEntity
100
AcDbLine
8
2
62
256
370
-1
6
ByLayer
10
306.0
20
34.8847176156
30
0.0
11
307.0
21
34.5782910648
31
0.0
0
LINE
5
655
100
AcDbEntity
100
AcDbLine
8
2
62
256
370
-1
6
ByLayer
10
307.0
20
34.5782910648
30
0.0
11
308.0
21
34.2732930994
31
0.0
0
LINE
5
656
100
AcDbEntity
100
AcDbLine
8
2
62
256
370
-1
6
ByLayer
10
308.0
20
34.2732930994
30
0.0
11
309.0
21
33.9697039231
31
0.0
0
LINE
5
657
100
AcDbEntity
100
AcDbLine
8
2
62
256
370
-1
6
ByLayer
10
309.0
20
33.9697039231
30
0.0
11
310.0
21
33.6675041929
31
0.0
0
LINE
5
658
100
AcDbEntity
100
AcDbLine
8
2
62
256
370
-1
6
ByLayer
10
310.0
20
33.6675041929
30
0.0
11
311.0
21
33.3666750042
31
0.0
0
LINE
5
659
100
AcDbEntity
100
AcDbLine
8
2
62
256
370
-1
6
ByLayer
10
311.0
20
33.3666750042
30
0.0
11
312.0
21
33.0671978773
31
0.0
0
LINE
5
660
100
AcDbEntity
100
AcDbLine
8
2
62
256
370
-1
6
ByLayer
10
312.0
20
33.0671978773
30
0.0
11
313.0
21
32.7690547441
31
0.0
0
LINE
5
661
100
AcDbEntity
100
AcDbLine
8
2
62
256
370
-1
6
ByLayer
10
313.0
20
32.7690547441
30
0.0
11
314.0
21
32.4722279355
31
0.0
0
LINE
5
662
100
AcDbEntity
100
AcDbLine
8
2
62
256
370
-1
6
ByLayer
10
314.0
20
32.4722279355
30
0.0
11
315.0
21
32.1767001687
31
0.0
0
LINE
5
663
100
AcDbEntity
100
AcDbLine
8
2
62
256
370
-1
6
ByLayer
10
315.0
20
32.1767001687
30
0.0
11
316.0
21
31.8824545363
31
0.0
0
LINE
5
664
100
AcDbEntity
100
AcDbLine
8
2
62
256
370
-1
6
ByLayer
10
316.0
20
31.8824545363
30
0.0
11
317.0
21
31.5894744941
31
0.0
0
LINE
5
665
100
AcDbEntity
100
AcDbLine
8
2
62
256
370
-1
6
ByLayer
10
317.0
20
31.5894744941
30
0.0
11
318.0
21
31.2977438507
31
0.0
0
LINE
5
666
100
AcDbEntity
100
AcDbLine
8
2
62
256
370
-1
6
ByLayer
10
318.0
20
31.2977438507
30
0.0
11
319.0
21
31.0072467574
31
0.0
0
LINE
5
667
100
AcDbEntity
100
AcDbLine
8
2
62
256
370
-1
6
ByLayer
10
319.0
20
31.0072467574
30
0.0
11
320.0
21
30.7179676972
31
0.0
0
LINE
5
668
100
AcDbEntity
100
AcDbLine
8
2
62
256
370
-1
6
ByLayer
10
320.0
20
30.7179676972
30
0.0
11
321.0
21
30.4298914763
31
0.0
0
LINE
5
669
100
AcDbEntity
100
AcDbLine
8
2
62
256
370
-1
6
ByLayer
10
321.0
20
30.4298914763
30
0.0
11
322.0
21
30.1430032137
31
0.0
0
LINE
5
670
100
AcDbEntity
100
AcDbLine
8
2
62
256
370
-1
6
ByLayer
10
322.0
20
30.1430032137
30
0.0
11
323.0
21
29.857288333
31
0.0
0
LINE
5
671
100
AcDbEntity
100
AcDbLine
8
2
62
256
370
-1
6
ByLayer
10
323.0
20
29.857288333
30
0.0
11
324.0
21
29.5727325534
31
0.0
0
LINE
5
672
100
AcDbEntity
100
AcDbLine
8
2
62
256
370
-1
6
ByLayer
10
324.0
20
29.5727325534
30
0.0
11
325.0
21
29.2893218813
31
0.0
0
LINE
5
673
100
AcDbEntity
100
AcDbLine
8
2
62
256
370
-1
6
ByLayer
10
325.0
20
29.2893218813
30
0.0
11
326.0
21
29.0070426028
31
0.0
0
LINE
5
674
100
AcDbEntity
100
AcDbLine
8
2
62
256
370
-1
6
ByLayer
10
326.0
20
29.0070426028
30
0.0
11
327.0
21
28.7258812752
31
0.0
0
LINE
5
675
100
AcDbEntity
100
AcDbLine
8
2
62
256
370
-1
6
ByLayer
10
327.0
20
28.7258812752
30
0.0
11
328.0
21
28.44582472
31
0.0
0
LINE
5
676
100
AcDbEntity
100
AcDbLine
8
2
62
256
370
-1
6
ByLayer
10
328.0
20
28.44582472
30
0.0
11
329.0
21
28.1668600157
31
0.0
0
LINE
5
677
100
AcDbEntity
100
AcDbLine
8
2
62
256
370
-1
6
ByLayer
10
329.0
20
28.1668600157
30
0.0
11
330.0
21
27.8889744907
31
0.0
0
LINE
5
678
100
AcDbEntity
100
AcDbLine
8
2
62
256
370
-1
6
ByLayer
10
330.0
20
27.8889744907
30
0.0
11
331.0
21
27.6121557166
31
0.0
0
LINE
5
679
100
AcDbEntity
100
AcDbLine
8
2
62
256
370
-1
6
ByLayer
10
331.0
20
27.6121557166
30
0.0
11
332.0
21
27.3363915017
31
0.0
0
LINE
5
680
100
AcDbEntity
100
AcDbLine
8
2
62
256
370
-1
6
ByLayer
10
332.0
20
27.3363915017
30
0.0
11
333.0
21
27.0616698848
31
0.0
0
LINE
5
681
100
AcDbEntity
100
AcDbLine
8
2
62
256
370
-1
6
ByLayer
10
333.0
20
27.0616698848
30
0.0
11
334.0
21
26.7879791291
31
0.0
0
LINE
5
682
100
AcDbEntity
100
AcDbLine
8
2
62
256
370
-1
6
ByLayer
10
334.0
20
26.7879791291
30
0.0
11
335.0
21
26.5153077165
31
0.0
0
LINE
5
683
100
AcDbEntity
100
AcDbLine
8
2
62
256
370
-1
6
ByLayer
10
335.0
20
26.5153077165
30
0.0
11
336.0
21
26.2436443417
31
0.0
0
LINE
5
684
100
AcDbEntity
100
AcDbLine
8
2
62
256
370
-1
6
ByLayer
10
336.0
20
26.2436443417
30
0.0
11
337.0
21
25.9729779067
31
0.0
0
LINE
5
685
100
AcDbEntity
100
AcDbLine
8
2
62
256
370
-1
6
ByLayer
10
337.0
20
25.9729779067
30
0.0
11
338.0
21
25.703297516
31
0.0
0
LINE
5
686
100
AcDbEntity
100
AcDbLine
8
2
62
256
370
-1
6
ByLayer
10
338.0
20
25.703297516
30
0.0
11
339.0
21
25.4345924708
31
0.0
0
LINE
5
687
100
AcDbEntity
100
AcDbLine
8
2
62
256
370
-1
6
ByLayer
10
339.0
20
25.4345924708
30
0.0
11
340.0
21
25.1668522645
31
0.0
0
LINE
5
688
100
AcDbEntity
100
AcDbLine
8
2
62
256
370
-1
6
ByLayer
10
340.0
20
25.1668522645
30
0.0
11
341.0
21
24.9000665779
31
0.0
0
LINE
5
689
100
AcDbEntity
100
AcDbLine
8
2
62
256
370
-1
6
ByLayer
10
341.0
20
24.9000665779
30
0.0
11
342.0
21
24.6342252743
31
0.0
0
LINE
5
690
100
AcDbEntity
100
AcDbLine
8
2
62
256
370
-1
6
ByLayer
10
342.0
20
24.6342252743
30
0.0
11
343.0
21
24.3693183952
31
0.0
0
LINE
5
691
100
AcDbEntity
100
AcDbLine
8
2
62
256
370
-1
6
ByLayer
10
343.0
20
24.3693183952
30
0.0
11
344.0
21
24.105336156
31
0.0
0
LINE
5
692
100
AcDbEntity
100
AcDbLine
8
2
62
256
370
-1
6
ByLayer
10
344.0
20
24.105336156
30
0.0
11
345.0
21
23.8422689414
31
0.0
0
LINE
5
693
100
AcDbEntity
100
AcDbLine
8
2
62
256
370
-1
6
ByLayer
10
345.0
20
23.8422689414
30
0.0
11
346.0
21
23.5801073018
31
0.0
0
LINE
5
694
100
AcDbEntity
100
AcDbLine
8
2
62
256
370
-1
6
ByLayer
10
346.0
20
23.5801073018
30
0.0
11
347.0
21
23.3188419493
31
0.0
0
LINE
5
695
100
AcDbEntity
100
AcDbLine
8
2
62
256
370
-1
6
ByLayer
10
347.0
20
23.3188419493
30
0.0
11
348.0
21
23.0584637533
31
0.0
0
LINE
5
696
100
AcDbEntity
100
AcDbLine
8
2
62
256
370
-1
6
ByLayer
10
348.0
20
23.0584637533
30
0.0
11
349.0
21
22.7989637375
31
0.0
0
LINE
5
697
100
AcDbEntity
100
AcDbLine
8
2
62
256
370
-1
6
ByLayer
10
349.0
20
22.7989637375
30
0.0
11
350.0
21
22.5403330759
31
0.0
0
LINE
5
698
100
AcDbEntity
100
AcDbLine
8
2
62
256
370
-1
6
ByLayer
10
350.0
20
22.5403330759
30
0.0
11
351.0
21
22.2825630891
31
0.0
0
LINE
5
699
100
AcDbEntity
100
AcDbLine
8
2
62
256
370
-1
6
ByLayer
10
351.0
20
22.2825630891
30
0.0
11
352.0
21
22.0256452415
31
0.0
0
LINE
5
700
100
AcDbEntity
100
AcDbLine
8
2
62
256
370
-1
6
ByLayer
10
352.0
20
22.0256452415
30
0.0
11
353.0
21
21.7695711376
31
0.0
0
LINE
5
701
100
AcDbEntity
100
AcDbLine
8
2
62
256
370
-1
6
ByLayer
10
353.0
20
21.7695711376
30
0.0
11
354.0
21
21.5143325186
31
0.0
0
LINE
5
702
100
AcDbEntity
100
AcDbLine
8
2
62
256
370
-1
6
ByLayer
10
354.0
20
21.5143325186
30
0.0
11
355.0
21
21.2599212599
31
0.0
0
LINE
5
703
100
AcDbEntity
100
AcDbLine
8
2
62
256
370
-1
6
ByLayer
10
355.0
20
21.2599212599
30
0.0
11
356.0
21
21.0063293675
31
0.0
0
LINE
5
704
100
AcDbEntity
100
AcDbLine
8
2
62
256
370
-1
6
ByLayer
10
356.0
20
21.0063293675
30
0.0
11
357.0
21
20.7535489754
31
0.0
0
LINE
5
705
100
AcDbEntity
100
AcDbLine
8
2
62
256
370
-1
6
ByLayer
10
357.0
20
20.7535489754
30
0.0
11
358.0
21
20.5015723426
31
0.0
0
LINE
5
706
100
AcDbEntity
100
AcDbLine
8
2
62
256
370
-1
6
ByLayer
10
358.0
20
20.5015723426
30
0.0
11
359.0
21
20.2503918505
31
0.0
0
LINE
5
707
100
AcDbEntity
100
AcDbLine
8
2
62
256
370
-1
6
ByLayer
10
359.0
20
20.2503918505
30
0.0
11
360.0
21
20.0
31
0.0
0
LINE
5
708
100
AcDbEntity
100
AcDbLine
8
2
62
256
370
-1
6
ByLayer
10
360.0
20
20.0
30
0.0
11
361.0
21
19.750389409
31
0.0
0
LINE
5
709
100
AcDbEntity
100
AcDbLine
8
2
62
256
370
-1
6
ByLayer
10
361.0
20
19.750389409
30
0.0
11
362.0
21
19.50155281
31
0.0
0
LINE
5
710
100
AcDbEntity
100
AcDbLine
8
2
62
256
370
-1
6
ByLayer
10
362.0
20
19.50155281
30
0.0
11
363.0
21
19.2534830473
31
0.0
0
LINE
5
711
100
AcDbEntity
100
AcDbLine
8
2
62
256
370
-1
6
ByLayer
10
363.0
20
19.2534830473
30
0.0
11
364.0
21
19.0061730747
31
0.0
0
LINE
5
712
100
AcDbEntity
100
AcDbLine
8
2
62
256
370
-1
6
ByLayer
10
364.0
20
19.0061730747
30
0.0
11
365.0
21
18.7596159536
31
0.0
0
LINE
5
713
100
AcDbEntity
100
AcDbLine
8
2
62
256
370
-1
6
ByLayer
10
365.0
20
18.7596159536
30
0.0
11
366.0
21
18.5138048501
31
0.0
0
LINE
5
714
100
AcDbEntity
100
AcDbLine
8
2
62
256
370
-1
6
ByLayer
10
366.0
20
18.5138048501
30
0.0
11
367.0
21
18.2687330332
31
0.0
0
LINE
5
715
100
AcDbEntity
100
AcDbLine
8
2
62
256
370
-1
6
ByLayer
10
367.0
20
18.2687330332
30
0.0
11
368.0
21
18.0243938723
31
0.0
0
LINE
5
716
100
AcDbEntity
100
AcDbLine
8
2
62
256
370
-1
6
ByLayer
10
368.0
20
18.0243938723
30
0.0
11
369.0
21
17.7807808356
31
0.0
0
LINE
5
717
100
AcDbEntity
100
AcDbLine
8
2
62
256
370
-1
6
ByLayer
10
369.0
20
17.7807808356
30
0.0
11
370.0
21
17.5378874876
31
0.0
0
LINE
5
718
100
AcDbEntity
100
AcDbLine
8
2
62
256
370
-1
6
ByLayer
10
370.0
20
17.5378874876
30
0.0
11
371.0
21
17.2957074875
31
0.0
0
LINE
5
719
100
AcDbEntity
100
AcDbLine
8
2
62
256
370
-1
6
ByLayer
10
371.0
20
17.2957074875
30
0.0
11
372.0
21
17.0542345867
31
0.0
0
LINE
5
720
100
AcDbEntity
100
AcDbLine
8
2
62
256
370
-1
6
ByLayer
10
372.0
20
17.0542345867
30
0.0
11
373.0
21
16.8134626277
31
0.0
0
LINE
5
721
100
AcDbEntity
100
AcDbLine
8
2
62
256
370
-1
6
ByLayer
10
373.0
20
16.8134626277
30
0.0
11
374.0
21
16.5733855415
31
0.0
0
LINE
5
722
100
AcDbEntity
100
AcDbLine
8
2
62
256
370
-1
6
ByLayer
10
374.0
20
16.5733855415
30
0.0
11
375.0
21
16.3339973466
31
0.0
0
LINE
5
723
100
AcDbEntity
100
AcDbLine
8
2
62
256
370
-1
6
ByLayer
10
375.0
20
16.3339973466
30
0.0
11
376.0
21
16.0952921464
31
0.0
0
LINE
5
724
100
AcDbEntity
100
AcDbLine
8
2
62
256
370
-1
6
ByLayer
10
376.0
20
16.0952921464
30
0.0
11
377.0
21
15.8572641281
31
0.0
0
LINE
5
725
100
AcDbEntity
100
AcDbLine
8
2
62
256
370
-1
6
ByLayer
10
377.0
20
15.8572641281
30
0.0
11
378.0
21
15.6199075611
31
0.0
0
LINE
5
726
100
AcDbEntity
100
AcDbLine
8
2
62
256
370
-1
6
ByLayer
10
378.0
20
15.6199075611
30
0.0
11
379.0
21
15.3832167948
31
0.0
0
LINE
5
727
100
AcDbEntity
100
AcDbLine
8
2
62
256
370
-1
6
ByLayer
10
379.0
20
15.3832167948
30
0.0
11
380.0
21
15.1471862576
31
0.0
0
LINE
5
728
100
AcDbEntity
100
AcDbLine
8
2
62
256
370
-1
6
ByLayer
10
380.0
20
15.1471862576
30
0.0
11
381.0
21
14.9118104553
31
0.0
0
LINE
5
729
100
AcDbEntity
100
AcDbLine
8
2
62
256
370
-1
6
ByLayer
10
381.0
20
14.9118104553
30
0.0
11
382.0
21
14.6770839692
31
0.0
0
LINE
5
730
100
AcDbEntity
100
AcDbLine
8
2
62
256
370
-1
6
ByLayer
10
382.0
20
14.6770839692
30
0.0
11
383.0
21
14.4430014552
31
0.0
0
LINE
5
731
100
AcDbEntity
100
AcDbLine
8
2
62
256
370
-1
6
ByLayer
10
383.0
20
14.4430014552
30
0.0
11
384.0
21
14.2095576419
31
0.0
0
LINE
5
732
100
AcDbEntity
100
AcDbLine
8
2
62
256
370
-1
6
ByLayer
10
384.0
20
14.2095576419
30
0.0
11
385.0
21
13.9767473296
31
0.0
0
LINE
5
733
100
AcDbEntity
100
AcDbLine
8
2
62
256
370
-1
6
ByLayer
10
385.0
20
13.9767473296
30
0.0
11
386.0
21
13.7445653886
31
0.0
0
LINE
5
734
100
AcDbEntity
100
AcDbLine
8
2
62
256
370
-1
6
ByLayer
10
386.0
20
13.7445653886
30
0.0
11
387.0
21
13.5130067582
31
0.0
0
LINE
5
735
100
AcDbEntity
100
AcDbLine
8
2
62
256
370
-1
6
ByLayer
10
387.0
20
13.5130067582
30
0.0
11
388.0
21
13.2820664453
31
0.0
0
LINE
5
736
100
AcDbEntity
100
AcDbLine
8
2
62
256
370
-1
6
ByLayer
10
388.0
20
13.2820664453
30
0.0
11
389.0
21
13.0517395229
31
0.0
0
LINE
5
737
100
AcDbEntity
100
AcDbLine
8
2
62
256
370
-1
6
ByLayer
10
389.0
20
13.0517395229
30
0.0
11
390.0
21
12.8220211292
31
0.0
0
LINE
5
738
100
AcDbEntity
100
AcDbLine
8
2
62
256
370
-1
6
ByLayer
10
390.0
20
12.8220211292
30
0.0
11
391.0
21
12.5929064664
31
0.0
0
LINE
5
739
100
AcDbEntity
100
AcDbLine
8
2
62
256
370
-1
6
ByLayer
10
391.0
20
12.5929064664
30
0.0
11
392.0
21
12.3643907992
31
0.0
0
LINE
5
740
100
AcDbEntity
100
AcDbLine
8
2
62
256
370
-1
6
ByLayer
10
392.0
20
12.3643907992
30
0.0
11
393.0
21
12.136469454
31
0.0
0
LINE
5
741
100
AcDbEntity
100
AcDbLine
8
2
62
256
370
-1
6
ByLayer
10
393.0
20
12.136469454
30
0.0
11
394.0
21
11.9091378178
31
0.0
0
LINE
5
742
100
AcDbEntity
100
AcDbLine
8
2
62
256
370
-1
6
ByLayer
10
394.0
20
11.9091378178
30
0.0
11
395.0
21
11.6823913367
31
0.0
0
LINE
5
743
100
AcDbEntity
100
AcDbLine
8
2
62
256
370
-1
6
ByLayer
10
395.0
20
11.6823913367
30
0.0
11
396.0
21
11.4562255153
31
0.0
0
LINE
5
744
100
AcDbEntity
100
AcDbLine
8
2
62
256
370
-1
6
ByLayer
10
396.0
20
11.4562255153
30
0.0
11
397.0
21
11.2306359153
31
0.0
0
LINE
5
745
100
AcDbEntity
100
AcDbLine
8
2
62
256
370
-1
6
ByLayer
10
397.0
20
11.2306359153
30
0.0
11
398.0
21
11.0056181549
31
0.0
0
LINE
5
746
100
AcDbEntity
100
AcDbLine
8
2
62
256
370
-1
6
ByLayer
10
398.0
20
11.0056181549
30
0.0
11
399.0
21
10.7811679072
31
0.0
0
LINE
5
747
100
AcDbEntity
100
AcDbLine
8
2
62
256
370
-1
6
ByLayer
10
399.0
20
10.7811679072
30
0.0
11
400.0
21
10.5572809
31
0.0
0
LINE
5
748
100
AcDbEntity
100
AcDbLine
8
2
62
256
370
-1
6
ByLayer
10
400.0
20
10.5572809
30
0.0
11
401.0
21
10.3339529142
31
0.0
0
LINE
5
749
100
AcDbEntity
100
AcDbLine
8
2
62
256
370
-1
6
ByLayer
10
401.0
20
10.3339529142
30
0.0
11
402.0
21
10.111179783
31
0.0
0
LINE
5
750
100
AcDbEntity
100
AcDbLine
8
2
62
256
370
-1
6
ByLayer
10
402.0
20
10.111179783
30
0.0
11
403.0
21
9.8889573914
31
0.0
0
LINE
5
751
100
AcDbEntity
100
AcDbLine
8
2
62
256
370
-1
6
ByLayer
10
403.0
20
9.8889573914
30
0.0
11
404.0
21
9.6672816749
31
0.0
0
LINE
5
752
100
AcDbEntity
100
AcDbLine
8
2
62
256
370
-1
6
ByLayer
10
404.0
20
9.6672816749
30
0.0
11
405.0
21
9.4461486186
31
0.0
0
LINE
5
753
100
AcDbEntity
100
AcDbLine
8
2
62
256
370
-1
6
ByLayer
10
405.0
20
9.4461486186
30
0.0
11
406.0
21
9.2255542567
31
0.0
0
LINE
5
754
100
AcDbEntity
100
AcDbLine
8
2
62
256
370
-1
6
ByLayer
10
406.0
20
9.2255542567
30
0.0
11
407.0
21
9.0054946714
31
0.0
0
LINE
5
755
100
AcDbEntity
100
AcDbLine
8
2
62
256
370
-1
6
ByLayer
10
407.0
20
9.0054946714
30
0.0
11
408.0
21
8.7859659921
31
0.0
0
LINE
5
756
100
AcDbEntity
100
AcDbLine
8
2
62
256
370
-1
6
ByLayer
10
408.0
20
8.7859659921
30
0.0
11
409.0
21
8.5669643947
31
0.0
0
LINE
5
757
100
AcDbEntity
100
AcDbLine
8
2
62
256
370
-1
6
ByLayer
10
409.0
20
8.5669643947
30
0.0
11
410.0
21
8.3484861009
31
0.0
0
LINE
5
758
100
AcDbEntity
100
AcDbLine
8
2
62
256
370
-1
6
ByLayer
10
410.0
20
8.3484861009
30
0.0
11
411.0
21
8.1305273772
31
0.0
0
LINE
5
759
100
AcDbEntity
100
AcDbLine
8
2
62
256
370
-1
6
ByLayer
10
411.0
20
8.1305273772
30
0.0
11
412.0
21
7.9130845342
31
0.0
0
LINE
5
760
100
AcDbEntity
100
AcDbLine
8
2
62
256
370
-1
6
ByLayer
10
412.0
20
7.9130845342
30
0.0
11
413.0
21
7.6961539263
31
0.0
0
LINE
5
761
100
AcDbEntity
100
AcDbLine
8
2
62
256
370
-1
6
ByLayer
10
413.0
20
7.6961539263
30
0.0
11
414.0
21
7.4797319502
31
0.0
0
LINE
5
762
100
AcDbEntity
100
AcDbLine
8
2
62
256
370
-1
6
ByLayer
10
414.0
20
7.4797319502
30
0.0
11
415.0
21
7.263815045
31
0.0
0
LINE
5
763
100
AcDbEntity
100
AcDbLine
8
2
62
256
370
-1
6
ByLayer
10
415.0
20
7.263815045
30
0.0
11
416.0
21
7.048399691
31
0.0
0
LINE
5
764
100
AcDbEntity
100
AcDbLine
8
2
62
256
370
-1
6
ByLayer
10
416.0
20
7.048399691
30
0.0
11
417.0
21
6.8334824092
31
0.0
0
LINE
5
765
100
AcDbEntity
100
AcDbLine
8
2
62
256
370
-1
6
ByLayer
10
417.0
20
6.8334824092
30
0.0
11
418.0
21
6.6190597606
31
0.0
0
LINE
5
766
100
AcDbEntity
100
AcDbLine
8
2
62
256
370
-1
6
ByLayer
10
418.0
20
6.6190597606
30
0.0
11
419.0
21
6.4051283456
31
0.0
0
LINE
5
767
100
AcDbEntity
100
AcDbLine
8
2
62
256
370
-1
6
ByLayer
10
419.0
20
6.4051283456
30
0.0
11
420.0
21
6.1916848035
31
0.0
0
LINE
5
768
100
AcDbEntity
100
AcDbLine
8
2
62
256
370
-1
6
ByLayer
10
420.0
20
6.1916848035
30
0.0
11
421.0
21
5.9787258117
31
0.0
0
LINE
5
769
100
AcDbEntity
100
AcDbLine
8
2
62
256
370
-1
6
ByLayer
10
421.0
20
5.9787258117
30
0.0
11
422.0
21
5.7662480849
31
0.0
0
LINE
5
770
100
AcDbEntity
100
AcDbLine
8
2
62
256
370
-1
6
ByLayer
10
422.0
20
5.7662480849
30
0.0
11
423.0
21
5.5542483751
31
0.0
0
LINE
5
771
100
AcDbEntity
100
AcDbLine
8
2
62
256
370
-1
6
ByLayer
10
423.0
20
5.5542483751
30
0.0
11
424.0
21
5.3427234704
31
0.0
0
LINE
5
772
100
AcDbEntity
100
AcDbLine
8
2
62
256
370
-1
6
ByLayer
10
424.0
20
5.3427234704
30
0.0
11
425.0
21
5.1316701949
31
0.0
0
LINE
5
773
100
AcDbEntity
100
AcDbLine
8
2
62
256
370
-1
6
ByLayer
10
425.0
20
5.1316701949
30
0.0
11
426.0
21
4.921085408
31
0.0
0
LINE
5
774
100
AcDbEntity
100
AcDbLine
8
2
62
256
370
-1
6
ByLayer
10
426.0
20
4.921085408
30
0.0
11
427.0
21
4.7109660034
31
0.0
0
LINE
5
775
100
AcDbEntity
100
AcDbLine
8
2
62
256
370
-1
6
ByLayer
10
427.0
20
4.7109660034
30
0.0
11
428.0
21
4.5013089095
31
0.0
0
LINE
5
776
100
AcDbEntity
100
AcDbLine
8
2
62
256
370
-1
6
ByLayer
10
428.0
20
4.5013089095
30
0.0
11
429.0
21
4.292111088
31
0.0
0
LINE
5
777
100
AcDbEntity
100
AcDbLine
8
2
62
256
370
-1
6
ByLayer
10
429.0
20
4.292111088
30
0.0
11
430.0
21
4.0833695337
31
0.0
0
LINE
5
778
100
AcDbEntity
100
AcDbLine
8
2
62
256
370
-1
6
ByLayer
10
430.0
20
4.0833695337
30
0.0
11
431.0
21
3.8750812744
31
0.0
0
LINE
5
779
100
AcDbEntity
100
AcDbLine
8
2
62
256
370
-1
6
ByLayer
10
431.0
20
3.8750812744
30
0.0
11
432.0
21
3.6672433697
31
0.0
0
LINE
5
780
100
AcDbEntity
100
AcDbLine
8
2
62
256
370
-1
6
ByLayer
10
432.0
20
3.6672433697
30
0.0
11
433.0
21
3.4598529108
31
0.0
0
LINE
5
781
100
AcDbEntity
100
AcDbLine
8
2
62
256
370
-1
6
ByLayer
10
433.0
20
3.4598529108
30
0.0
11
434.0
21
3.2529070204
31
0.0
0
LINE
5
782
100
AcDbEntity
100
AcDbLine
8
2
62
256
370
-1
6
ByLayer
10
434.0
20
3.2529070204
30
0.0
11
435.0
21
3.0464028517
31
0.0
0
LINE
5
783
100
AcDbEntity
100
AcDbLine
8
2
62
256
370
-1
6
ByLayer
10
435.0
20
3.0464028517
30
0.0
11
436.0
21
2.8403375881
31
0.0
0
LINE
5
784
100
AcDbEntity
100
AcDbLine
8
2
62
256
370
-1
6
ByLayer
10
436.0
20
2.8403375881
30
0.0
11
437.0
21
2.6347084429
31
0.0
0
LINE
5
785
100
AcDbEntity
100
AcDbLine
8
2
62
256
370
-1
6
ByLayer
10
437.0
20
2.6347084429
30
0.0
11
438.0
21
2.4295126588
31
0.0
0
LINE
5
786
100
AcDbEntity
100
AcDbLine
8
2
62
256
370
-1
6
ByLayer
10
438.0
20
2.4295126588
30
0.0
11
439.0
21
2.2247475074
31
0.0
0
LINE
5
787
100
AcDbEntity
100
AcDbLine
8
2
62
256
370
-1
6
ByLayer
10
439.0
20
2.2247475074
30
0.0
11
440.0
21
2.0204102887
31
0.0
0
LINE
5
788
100
AcDbEntity
100
AcDbLine
8
2
62
256
370
-1
6
ByLayer
10
440.0
20
2.0204102887
30
0.0
11
441.0
21
1.8164983309
31
0.0
0
LINE
5
789
100
AcDbEntity
100
AcDbLine
8
2
62
256
370
-1
6
ByLayer
10
441.0
20
1.8164983309
30
0.0
11
442.0
21
1.61300899
31
0.0
0
LINE
5
790
100
AcDbEntity
100
AcDbLine
8
2
62
256
370
-1
6
ByLayer
10
442.0
20
1.61300899
30
0.0
11
443.0
21
1.4099396491
31
0.0
0
LINE
5
791
100
AcDbEntity
100
AcDbLine
8
2
62
256
370
-1
6
ByLayer
10
443.0
20
1.4099396491
30
0.0
11
444.0
21
1.2072877182
31
0.0
0
LINE
5
792
100
AcDbEntity
100
AcDbLine
8
2
62
256
370
-1
6
ByLayer
10
444.0
20
1.2072877182
30
0.0
11
445.0
21
1.0050506339
31
0.0
0
LINE
5
793
100
AcDbEntity
100
AcDbLine
8
2
62
256
370
-1
6
ByLayer
10
445.0
20
1.0050506339
30
0.0
11
446.0
21
0.8032258589
31
0.0
0
LINE
5
794
100
AcDbEntity
100
AcDbLine
8
2
62
256
370
-1
6
ByLayer
10
446.0
20
0.8032258589
30
0.0
11
447.0
21
0.6018108817
31
0.0
0
LINE
5
795
100
AcDbEntity
100
AcDbLine
8
2
62
256
370
-1
6
ByLayer
10
447.0
20
0.6018108817
30
0.0
11
448.0
21
0.4008032161
31
0.0
0
LINE
5
796
100
AcDbEntity
100
AcDbLine
8
2
62
256
370
-1
6
ByLayer
10
448.0
20
0.4008032161
30
0.0
11
449.0
21
0.200200401
31
0.0
0
LINE
5
797
100
AcDbEntity
100
AcDbLine
8
2
62
256
370
-1
6
ByLayer
10
449.0
20
0.200200401
30
0.0
11
450.0
21
0.0
31
0.0
0
LINE
5
798
100
AcDbEntity
100
AcDbLine
8
2
62
256
370
-1
6
ByLayer
10
450.0
20
0.0
30
0.0
11
451.0
21
-0.199800399
31
0.0
0
LINE
5
799
100
AcDbEntity
100
AcDbLine
8
2
62
256
370
-1
6
ByLayer
10
451.0
20
-0.199800399
30
0.0
11
452.0
21
-0.399203184
31
0.0
0
LINE
5
800
100
AcDbEntity
100
AcDbLine
8
2
62
256
370
-1
6
ByLayer
10
452.0
20
-0.399203184
30
0.0
11
453.0
21
-0.59821072
31
0.0
0
LINE
5
801
100
AcDbEntity
100
AcDbLine
8
2
62
256
370
-1
6
ByLayer
10
453.0
20
-0.59821072
30
0.0
11
454.0
21
-0.796825347
31
0.0
0
LINE
5
802
100
AcDbEntity
100
AcDbLine
8
2
62
256
370
-1
6
ByLayer
10
454.0
20
-0.796825347
30
0.0
11
455.0
21
-0.995049384
31
0.0
0
LINE
5
803
100
AcDbEntity
100
AcDbLine
8
2
62
256
370
-1
6
ByLayer
10
455.0
20
-0.995049384
30
0.0
11
456.0
21
-1.192885125
31
0.0
0
LINE
5
804
100
AcDbEntity
100
AcDbLine
8
2
62
256
370
-1
6
ByLayer
10
456.0
20
-1.192885125
30
0.0
11
457.0
21
-1.390334845
31
0.0
0
LINE
5
805
100
AcDbEntity
100
AcDbLine
8
2
62
256
370
-1
6
ByLayer
10
457.0
20
-1.390334845
30
0.0
11
458.0
21
-1.587400794
31
0.0
0
LINE
5
806
100
AcDbEntity
100
AcDbLine
8
2
62
256
370
-1
6
ByLayer
10
458.0
20
-1.587400794
30
0.0
11
459.0
21
-1.7840852
31
0.0
0
LINE
5
807
100
AcDbEntity
100
AcDbLine
8
2
62
256
370
-1
6
ByLayer
10
459.0
20
-1.7840852
30
0.0
11
460.0
21
-1.980390272
31
0.0
0
LINE
5
808
100
AcDbEntity
100
AcDbLine
8
2
62
256
370
-1
6
ByLayer
10
460.0
20
-1.980390272
30
0.0
11
461.0
21
-2.176318196
31
0.0
0
LINE
5
809
100
AcDbEntity
100
AcDbLine
8
2
62
256
370
-1
6
ByLayer
10
461.0
20
-2.176318196
30
0.0
11
462.0
21
-2.371871137
31
0.0
0
LINE
5
810
100
AcDbEntity
100
AcDbLine
8
2
62
256
370
-1
6
ByLayer
10
462.0
20
-2.371871137
30
0.0
11
463.0
21
-2.56705124
31
0.0
0
LINE
5
811
100
AcDbEntity
100
AcDbLine
8
2
62
256
370
-1
6
ByLayer
10
463.0
20
-2.56705124
30
0.0
11
464.0
21
-2.761860629
31
0.0
0
LINE
5
812
100
AcDbEntity
100
AcDbLine
8
2
62
256
370
-1
6
ByLayer
10
464.0
20
-2.761860629
30
0.0
11
465.0
21
-2.95630141
31
0.0
0
LINE
5
813
100
AcDbEntity
100
AcDbLine
8
2
62
256
370
-1
6
ByLayer
10
465.0
20
-2.95630141
30
0.0
11
466.0
21
-3.150375666
31
0.0
0
LINE
5
814
100
AcDbEntity
100
AcDbLine
8
2
62
256
370
-1
6
ByLayer
10
466.0
20
-3.150375666
30
0.0
11
467.0
21
-3.344085462
31
0.0
0
LINE
5
815
100
AcDbEntity
100
AcDbLine
8
2
62
256
370
-1
6
ByLayer
10
467.0
20
-3.344085462
30
0.0
11
468.0
21
-3.537432844
31
0.0
0
LINE
5
816
100
AcDbEntity
100
AcDbLine
8
2
62
256
370
-1
6
ByLayer
10
468.0
20
-3.537432844
30
0.0
11
469.0
21
-3.730419839
31
0.0
0
LINE
5
817
100
AcDbEntity
100
AcDbLine
8
2
62
256
370
-1
6
ByLayer
10
469.0
20
-3.730419839
30
0.0
11
470.0
21
-3.923048454
31
0.0
0
LINE
5
818
100
AcDbEntity
100
AcDbLine
8
2
62
256
370
-1
6
ByLayer
10
470.0
20
-3.923048454
30
0.0
11
471.0
21
-4.115320679
31
0.0
0
LINE
5
819
100
AcDbEntity
100
AcDbLine
8
2
62
256
370
-1
6
ByLayer
10
471.0
20
-4.115320679
30
0.0
11
472.0
21
-4.307238483
31
0.0
0
LINE
5
820
100
AcDbEntity
100
AcDbLine
8
2
62
256
370
-1
6
ByLayer
10
472.0
20
-4.307238483
30
0.0
11
473.0
21
-4.498803821
31
0.0
0
LINE
5
821
100
AcDbEntity
100
AcDbLine
8
2
62
256
370
-1
6
ByLayer
10
473.0
20
-4.498803821
30
0.0
11
474.0
21
-4.690018626
31
0.0
0
LINE
5
822
100
AcDbEntity
100
AcDbLine
8
2
62
256
370
-1
6
ByLayer
10
474.0
20
-4.690018626
30
0.0
11
475.0
21
-4.880884817
31
0.0
0
LINE
5
823
100
AcDbEntity
100
AcDbLine
8
2
62
256
370
-1
6
ByLayer
10
475.0
20
-4.880884817
30
0.0
11
476.0
21
-5.071404293
31
0.0
0
LINE
5
824
100
AcDbEntity
100
AcDbLine
8
2
62
256
370
-1
6
ByLayer
10
476.0
20
-5.071404293
30
0.0
11
477.0
21
-5.261578936
31
0.0
0
LINE
5
825
100
AcDbEntity
100
AcDbLine
8
2
62
256
370
-1
6
ByLayer
10
477.0
20
-5.261578936
30
0.0
11
478.0
21
-5.451410612
31
0.0
0
LINE
5
826
100
AcDbEntity
100
AcDbLine
8
2
62
256
370
-1
6
ByLayer
10
478.0
20
-5.451410612
30
0.0
11
479.0
21
-5.64090117
31
0.0
0
LINE
5
827
100
AcDbEntity
100
AcDbLine
8
2
62
256
370
-1
6
ByLayer
10
479.0
20
-5.64090117
30
0.0
11
480.0
21
-5.830052443
31
0.0
0
LINE
5
828
100
AcDbEntity
100
AcDbLine
8
2
62
256
370
-1
6
ByLayer
10
480.0
20
-5.830052443
30
0.0
11
481.0
21
-6.018866246
31
0.0
0
LINE
5
829
100
AcDbEntity
100
AcDbLine
8
2
62
256
370
-1
6
ByLayer
10
481.0
20
-6.018866246
30
0.0
11
482.0
21
-6.207344379
31
0.0
0
LINE
5
830
100
AcDbEntity
100
AcDbLine
8
2
62
256
370
-1
6
ByLayer
10
482.0
20
-6.207344379
30
0.0
11
483.0
21
-6.395488626
31
0.0
0
LINE
5
831
100
AcDbEntity
100
AcDbLine
8
2
62
256
370
-1
6
ByLayer
10
483.0
20
-6.395488626
30
0.0
11
484.0
21
-6.583300756
31
0.0
0
LINE
5
832
100
AcDbEntity
100
AcDbLine
8
2
62
256
370
-1
6
ByLayer
10
484.0
20
-6.583300756
30
0.0
11
485.0
21
-6.77078252
31
0.0
0
LINE
5
833
100
AcDbEntity
100
AcDbLine
8
2
62
256
370
-1
6
ByLayer
10
485.0
20
-6.77078252
30
0.0
11
486.0
21
-6.957935657
31
0.0
0
LINE
5
834
100
AcDbEntity
100
AcDbLine
8
2
62
256
370
-1
6
ByLayer
10
486.0
20
-6.957935657
30
0.0
11
487.0
21
-7.144761888
31
0.0
0
LINE
5
835
100
AcDbEntity
100
AcDbLine
8
2
62
256
370
-1
6
ByLayer
10
487.0
20
-7.144761888
30
0.0
11
488.0
21
-7.33126292
31
0.0
0
LINE
5
836
100
AcDbEntity
100
AcDbLine
8
2
62
256
370
-1
6
ByLayer
10
488.0
20
-7.33126292
30
0.0
11
489.0
21
-7.517440446
31
0.0
0
LINE
5
837
100
AcDbEntity
100
AcDbLine
8
2
62
256
370
-1
6
ByLayer
10
489.0
20
-7.517440446
30
0.0
11
490.0
21
-7.703296143
31
0.0
0
LINE
5
838
100
AcDbEntity
100
AcDbLine
8
2
62
256
370
-1
6
ByLayer
10
490.0
20
-7.703296143
30
0.0
11
491.0
21
-7.888831674
31
0.0
0
LINE
5
839
100
AcDbEntity
100
AcDbLine
8
2
62
256
370
-1
6
ByLayer
10
491.0
20
-7.888831674
30
0.0
11
492.0
21
-8.074048689
31
0.0
0
LINE
5
840
100
AcDbEntity
100
AcDbLine
8
2
62
256
370
-1
6
ByLayer
10
492.0
20
-8.074048689
30
0.0
11
493.0
21
-8.258948822
31
0.0
0
LINE
5
841
100
AcDbEntity
100
AcDbLine
8
2
62
256
370
-1
6
ByLayer
10
493.0
20
-8.258948822
30
0.0
11
494.0
21
-8.443533694
31
0.0
0
LINE
5
842
100
AcDbEntity
100
AcDbLine
8
2
62
256
370
-1
6
ByLayer
10
494.0
20
-8.443533694
30
0.0
11
495.0
21
-8.627804912
31
0.0
0
LINE
5
843
100
AcDbEntity
100
AcDbLine
8
2
62
256
370
-1
6
ByLayer
10
495.0
20
-8.627804912
30
0.0
11
496.0
21
-8.81176407
31
0.0
0
LINE
5
844
100
AcDbEntity
100
AcDbLine
8
2
62
256
370
-1
6
ByLayer
10
496.0
20
-8.81176407
30
0.0
11
497.0
21
-8.995412748
31
0.0
0
LINE
5
845
100
AcDbEntity
100
AcDbLine
8
2
62
256
370
-1
6
ByLayer
10
497.0
20
-8.995412748
30
0.0
11
498.0
21
-9.178752512
31
0.0
0
LINE
5
846
100
AcDbEntity
100
AcDbLine
8
2
62
256
370
-1
6
ByLayer
10
498.0
20
-9.178752512
30
0.0
11
499.0
21
-9.361784916
31
0.0
0
LINE
5
847
100
AcDbEntity
100
AcDbLine
8
2
62
256
370
-1
6
ByLayer
10
499.0
20
-9.361784916
30
0.0
11
500.0
21
-9.544511501
31
0.0
0
LINE
5
848
100
AcDbEntity
100
AcDbLine
8
2
62
256
370
-1
6
ByLayer
10
500.0
20
-9.544511501
30
0.0
11
501.0
21
-9.726933795
31
0.0
0
LINE
5
849
100
AcDbEntity
100
AcDbLine
8
2
62
256
370
-1
6
ByLayer
10
501.0
20
-9.726933795
30
0.0
11
502.0
21
-9.909053312
31
0.0
0
LINE
5
850
100
AcDbEntity
100
AcDbLine
8
2
62
256
370
-1
6
ByLayer
10
502.0
20
-9.909053312
30
0.0
11
503.0
21
-10.090871556
31
0.0
0
LINE
5
851
100
AcDbEntity
100
AcDbLine
8
2
62
256
370
-1
6
ByLayer
10
503.0
20
-10.090871556
30
0.0
11
504.0
21
-10.272390017
31
0.0
0
LINE
5
852
100
AcDbEntity
100
AcDbLine
8
2
62
256
370
-1
6
ByLayer
10
504.0
20
-10.272390017
30
0.0
11
505.0
21
-10.453610172
31
0.0
0
LINE
5
853
100
AcDbEntity
100
AcDbLine
8
2
62
256
370
-1
6
ByLayer
10
505.0
20
-10.453610172
30
0.0
11
506.0
21
-10.634533488
31
0.0
0
LINE
5
854
100
AcDbEntity
100
AcDbLine
8
2
62
256
370
-1
6
ByLayer
10
506.0
20
-10.634533488
30
0.0
11
507.0
21
-10.815161418
31
0.0
0
LINE
5
855
100
AcDbEntity
100
AcDbLine
8
2
62
256
370
-1
6
ByLayer
10
507.0
20
-10.815161418
30
0.0
11
508.0
21
-10.995495404
31
0.0
0
LINE
5
856
100
AcDbEntity
100
AcDbLine
8
2
62
256
370
-1
6
ByLayer
10
508.0
20
-10.995495404
30
0.0
11
509.0
21
-11.175536877
31
0.0
0
LINE
5
857
100
AcDbEntity
100
AcDbLine
8
2
62
256
370
-1
6
ByLayer
10
509.0
20
-11.175536877
30
0.0
11
510.0
21
-11.355287257
31
0.0
0
LINE
5
858
100
AcDbEntity
100
AcDbLine
8
2
62
256
370
-1
6
ByLayer
10
510.0
20
-11.355287257
30
0.0
11
511.0
21
-11.534747949
31
0.0
0
LINE
5
859
100
AcDbEntity
100
AcDbLine
8
2
62
256
370
-1
6
ByLayer
10
511.0
20
-11.534747949
30
0.0
11
512.0
21
-11.71392035
31
0.0
0
LINE
5
860
100
AcDbEntity
100
AcDbLine
8
2
62
256
370
-1
6
ByLayer
10
512.0
20
-11.71392035
30
0.0
11
513.0
21
-11.892805846
31
0.0
0
LINE
5
861
100
AcDbEntity
100
AcDbLine
8
2
62
256
370
-1
6
ByLayer
10
513.0
20
-11.892805846
30
0.0
11
514.0
21
-12.071405809
31
0.0
0
LINE
5
862
100
AcDbEntity
100
AcDbLine
8
2
62
256
370
-1
6
ByLayer
10
514.0
20
-12.071405809
30
0.0
11
515.0
21
-12.249721603
31
0.0
0
LINE
5
863
100
AcDbEntity
100
AcDbLine
8
2
62
256
370
-1
6
ByLayer
10
515.0
20
-12.249721603
30
0.0
11
516.0
21
-12.42775458
31
0.0
0
LINE
5
864
100
AcDbEntity
100
AcDbLine
8
2
62
256
370
-1
6
ByLayer
10
516.0
20
-12.42775458
30
0.0
11
517.0
21
-12.605506082
31
0.0
0
LINE
5
865
100
AcDbEntity
100
AcDbLine
8
2
62
256
370
-1
6
ByLayer
10
517.0
20
-12.605506082
30
0.0
11
518.0
21
-12.782977439
31
0.0
0
LINE
5
866
100
AcDbEntity
100
AcDbLine
8
2
62
256
370
-1
6
ByLayer
10
518.0
20
-12.782977439
30
0.0
11
519.0
21
-12.960169972
31
0.0
0
LINE
5
867
100
AcDbEntity
100
AcDbLine
8
2
62
256
370
-1
6
ByLayer
10
519.0
20
-12.960169972
30
0.0
11
520.0
21
-13.13708499
31
0.0
0
LINE
5
868
100
AcDbEntity
100
AcDbLine
8
2
62
256
370
-1
6
ByLayer
10
520.0
20
-13.13708499
30
0.0
11
521.0
21
-13.313723794
31
0.0
0
LINE
5
869
100
AcDbEntity
100
AcDbLine
8
2
62
256
370
-1
6
ByLayer
10
521.0
20
-13.313723794
30
0.0
11
522.0
21
-13.490087673
31
0.0
0
LINE
5
870
100
AcDbEntity
100
AcDbLine
8
2
62
256
370
-1
6
ByLayer
10
522.0
20
-13.490087673
30
0.0
11
523.0
21
-13.666177907
31
0.0
0
LINE
5
871
100
AcDbEntity
100
AcDbLine
8
2
62
256
370
-1
6
ByLayer
10
523.0
20
-13.666177907
30
0.0
11
524.0
21
-13.841995766
31
0.0
0
LINE
5
872
100
AcDbEntity
100
AcDbLine
8
2
62
256
370
-1
6
ByLayer
10
524.0
20
-13.841995766
30
0.0
11
525.0
21
-14.01754251
31
0.0
0
LINE
5
873
100
AcDbEntity
100
AcDbLine
8
2
62
256
370
-1
6
ByLayer
10
525.0
20
-14.01754251
30
0.0
11
526.0
21
-14.192819389
31
0.0
0
LINE
5
874
100
AcDbEntity
100
AcDbLine
8
2
62
256
370
-1
6
ByLayer
10
526.0
20
-14.192819389
30
0.0
11
527.0
21
-14.367827644
31
0.0
0
LINE
5
875
100
AcDbEntity
100
AcDbLine
8
2
62
256
370
-1
6
ByLayer
10
527.0
20
-14.367827644
30
0.0
11
528.0
21
-14.542568506
31
0.0
0
LINE
5
876
100
AcDbEntity
100
AcDbLine
8
2
62
256
370
-1
6
ByLayer
10
528.0
20
-14.542568506
30
0.0
11
529.0
21
-14.717043198
31
0.0
0
LINE
5
877
100
AcDbEntity
100
AcDbLine
8
2
62
256
370
-1
6
ByLayer
10
529.0
20
-14.717043198
30
0.0
11
530.0
21
-14.891252931
31
0.0
0
LINE
5
878
100
AcDbEntity
100
AcDbLine
8
2
62
256
370
-1
6
ByLayer
10
530.0
20
-14.891252931
30
0.0
11
531.0
21
-15.065198909
31
0.0
0
LINE
5
879
100
AcDbEntity
100
AcDbLine
8
2
62
256
370
-1
6
ByLayer
10
531.0
20
-15.065198909
30
0.0
11
532.0
21
-15.238882327
31
0.0
0
LINE
5
880
100
AcDbEntity
100
AcDbLine
8
2
62
256
370
-1
6
ByLayer
10
532.0
20
-15.238882327
30
0.0
11
533.0
21
-15.41230437
31
0.0
0
LINE
5
881
100
AcDbEntity
100
AcDbLine
8
2
62
256
370
-1
6
ByLayer
10
533.0
20
-15.41230437
30
0.0
11
534.0
21
-15.585466214
31
0.0
0
LINE
5
882
100
AcDbEntity
100
AcDbLine
8
2
62
256
370
-1
6
ByLayer
10
534.0
20
-15.585466214
30
0.0
11
535.0
21
-15.758369028
31
0.0
0
LINE
5
883
100
AcDbEntity
100
AcDbLine
8
2
62
256
370
-1
6
ByLayer
10
535.0
20
-15.758369028
30
0.0
11
536.0
21
-15.93101397
31
0.0
0
LINE
5
884
100
AcDbEntity
100
AcDbLine
8
2
62
256
370
-1
6
ByLayer
10
536.0
20
-15.93101397
30
0.0
11
537.0
21
-16.10340219
31
0.0
0
LINE
5
885
100
AcDbEntity
100
AcDbLine
8
2
62
256
370
-1
6
ByLayer
10
537.0
20
-16.10340219
30
0.0
11
538.0
21
-16.27553483
31
0.0
0
LINE
5
886
100
AcDbEntity
100
AcDbLine
8
2
62
256
370
-1
6
ByLayer
10
538.0
20
-16.27553483
30
0.0
11
539.0
21
-16.447413024
31
0.0
0
LINE
5
887
100
AcDbEntity
100
AcDbLine
8
2
62
256
370
-1
6
ByLayer
10
539.0
20
-16.447413024
30
0.0
11
540.0
21
-16.619037897
31
0.0
0
LINE
5
888
100
AcDbEntity
100
AcDbLine
8
2
62
256
370
-1
6
ByLayer
10
540.0
20
-16.619037897
30
0.0
11
541.0
21
-16.790410565
31
0.0
0
LINE
5
889
100
AcDbEntity
100
AcDbLine
8
2
62
256
370
-1
6
ByLayer
10
541.0
20
-16.790410565
30
0.0
11
542.0
21
-16.961532138
31
0.0
0
LINE
5
890
100
AcDbEntity
100
AcDbLine
8
2
62
256
370
-1
6
ByLayer
10
542.0
20
-16.961532138
30
0.0
11
543.0
21
-17.132403715
31
0.0
0
LINE
5
891
100
AcDbEntity
100
AcDbLine
8
2
62
256
370
-1
6
ByLayer
10
543.0
20
-17.132403715
30
0.0
11
544.0
21
-17.303026389
31
0.0
0
LINE
5
892
100
AcDbEntity
100
AcDbLine
8
2
62
256
370
-1
6
ByLayer
10
544.0
20
-17.303026389
30
0.0
11
545.0
21
-17.473401245
31
0.0
0
LINE
5
893
100
AcDbEntity
100
AcDbLine
8
2
62
256
370
-1
6
ByLayer
10
545.0
20
-17.473401245
30
0.0
11
546.0
21
-17.643529359
31
0.0
0
LINE
5
894
100
AcDbEntity
100
AcDbLine
8
2
62
256
370
-1
6
ByLayer
10
546.0
20
-17.643529359
30
0.0
11
547.0
21
-17.8134118
31
0.0
0
LINE
5
895
100
AcDbEntity
100
AcDbLine
8
2
62
256
370
-1
6
ByLayer
10
547.0
20
-17.8134118
30
0.0
11
548.0
21
-17.98304963
31
0.0
0
LINE
5
896
100
AcDbEntity
100
AcDbLine
8
2
62
256
370
-1
6
ByLayer
10
548.0
20
-17.98304963
30
0.0
11
549.0
21
-18.152443902
31
0.0
0
LINE
5
897
100
AcDbEntity
100
AcDbLine
8
2
62
256
370
-1
6
ByLayer
10
549.0
20
-18.152443902
30
0.0
11
550.0
21
-18.321595662
31
0.0
0
LINE
5
898
100
AcDbEntity
100
AcDbLine
8
2
62
256
370
-1
6
ByLayer
10
550.0
20
-18.321595662
30
0.0
11
551.0
21
-18.490505949
31
0.0
0
LINE
5
899
100
AcDbEntity
100
AcDbLine
8
2
62
256
370
-1
6
ByLayer
10
551.0
20
-18.490505949
30
0.0
11
552.0
21
-18.659175794
31
0.0
0
LINE
5
900
100
AcDbEntity
100
AcDbLine
8
2
62
256
370
-1
6
ByLayer
10
552.0
20
-18.659175794
30
0.0
11
553.0
21
-18.82760622
31
0.0
0
LINE
5
901
100
AcDbEntity
100
AcDbLine
8
2
62
256
370
-1
6
ByLayer
10
553.0
20
-18.82760622
30
0.0
11
554.0
21
-18.995798245
31
0.0
0
LINE
5
902
100
AcDbEntity
100
AcDbLine
8
2
62
256
370
-1
6
ByLayer
10
554.0
20
-18.995798245
30
0.0
11
555.0
21
-19.163752878
31
0.0
0
LINE
5
903
100
AcDbEntity
100
AcDbLine
8
2
62
256
370
-1
6
ByLayer
10
555.0
20
-19.163752878
30
0.0
11
556.0
21
-19.331471121
31
0.0
0
LINE
5
904
100
AcDbEntity
100
AcDbLine
8
2
62
256
370
-1
6
ByLayer
10
556.0
20
-19.331471121
30
0.0
11
557.0
21
-19.49895397
31
0.0
0
LINE
5
905
100
AcDbEntity
100
AcDbLine
8
2
62
256
370
-1
6
ByLayer
10
557.0
20
-19.49895397
30
0.0
11
558.0
21
-19.666202413
31
0.0
0
LINE
5
906
100
AcDbEntity
100
AcDbLine
8
2
62
256
370
-1
6
ByLayer
10
558.0
20
-19.666202413
30
0.0
11
559.0
21
-19.833217432
31
0.0
0
LINE
5
907
100
AcDbEntity
100
AcDbLine
8
2
62
256
370
-1
6
ByLayer
10
559.0
20
-19.833217432
30
0.0
11
560.0
21
-20.0
31
0.0
0
LINE
5
908
100
AcDbEntity
100
AcDbLine
8
2
62
256
370
-1
6
ByLayer
10
560.0
20
-20.0
30
0.0
11
561.0
21
-20.166551086
31
0.0
0
LINE
5
909
100
AcDbEntity
100
AcDbLine
8
2
62
256
370
-1
6
ByLayer
10
561.0
20
-20.166551086
30
0.0
11
562.0
21
-20.332871652
31
0.0
0
LINE
5
910
100
AcDbEntity
100
AcDbLine
8
2
62
256
370
-1
6
ByLayer
10
562.0
20
-20.332871652
30
0.0
11
563.0
21
-20.498962651
31
0.0
0
LINE
5
911
100
AcDbEntity
100
AcDbLine
8
2
62
256
370
-1
6
ByLayer
10
563.0
20
-20.498962651
30
0.0
11
564.0
21
-20.664825032
31
0.0
0
LINE
5
912
100
AcDbEntity
100
AcDbLine
8
2
62
256
370
-1
6
ByLayer
10
564.0
20
-20.664825032
30
0.0
11
565.0
21
-20.830459736
31
0.0
0
LINE
5
913
100
AcDbEntity
100
AcDbLine
8
2
62
256
370
-1
6
ByLayer
10
565.0
20
-20.830459736
30
0.0
11
566.0
21
-20.995867698
31
0.0
0
LINE
5
914
100
AcDbEntity
100
AcDbLine
8
2
62
256
370
-1
6
ByLayer
10
566.0
20
-20.995867698
30
0.0
11
567.0
21
-21.161049847
31
0.0
0
LINE
5
915
100
AcDbEntity
100
AcDbLine
8
2
62
256
370
-1
6
ByLayer
10
567.0
20
-21.161049847
30
0.0
11
568.0
21
-21.326007105
31
0.0
0
LINE
5
916
100
AcDbEntity
100
AcDbLine
8
2
62
256
370
-1
6
ByLayer
10
568.0
20
-21.326007105
30
0.0
11
569.0
21
-21.490740388
31
0.0
0
LINE
5
917
100
AcDbEntity
100
AcDbLine
8
2
62
256
370
-1
6
ByLayer
10
569.0
20
-21.490740388
30
0.0
11
570.0
21
-21.655250606
31
0.0
0
LINE
5
918
100
AcDbEntity
100
AcDbLine
8
2
62
256
370
-1
6
ByLayer
10
570.0
20
-21.655250606
30
0.0
11
571.0
21
-21.819538663
31
0.0
0
LINE
5
919
100
AcDbEntity
100
AcDbLine
8
2
62
256
370
-1
6
ByLayer
10
571.0
20
-21.819538663
30
0.0
11
572.0
21
-21.983605456
31
0.0
0
LINE
5
920
100
AcDbEntity
100
AcDbLine
8
2
62
256
370
-1
6
ByLayer
10
572.0
20
-21.983605456
30
0.0
11
573.0
21
-22.147451877
31
0.0
0
LINE
5
921
100
AcDbEntity
100
AcDbLine
8
2
62
256
370
-1
6
ByLayer
10
573.0
20
-22.147451877
30
0.0
11
574.0
21
-22.311078811
31
0.0
0
LINE
5
922
100
AcDbEntity
100
AcDbLine
8
2
62
256
370
-1
6
ByLayer
10
574.0
20
-22.311078811
30
0.0
11
575.0
21
-22.474487139
31
0.0
0
LINE
5
923
100
AcDbEntity
100
AcDbLine
8
2
62
256
370
-1
6
ByLayer
10
575.0
20
-22.474487139
30
0.0
11
576.0
21
-22.637677734
31
0.0
0
LINE
5
924
100
AcDbEntity
100
AcDbLine
8
2
62
256
370
-1
6
ByLayer
10
576.0
20
-22.637677734
30
0.0
11
577.0
21
-22.800651464
31
0.0
0
LINE
5
925
100
AcDbEntity
100
AcDbLine
8
2
62
256
370
-1
6
ByLayer
10
577.0
20
-22.800651464
30
0.0
11
578.0
21
-22.963409192
31
0.0
0
LINE
5
926
100
AcDbEntity
100
AcDbLine
8
2
62
256
370
-1
6
ByLayer
10
578.0
20
-22.963409192
30
0.0
11
579.0
21
-23.125951773
31
0.0
0
LINE
5
927
100
AcDbEntity
100
AcDbLine
8
2
62
256
370
-1
6
ByLayer
10
579.0
20
-23.125951773
30
0.0
11
580.0
21
-23.288280059
31
0.0
0
LINE
5
928
100
AcDbEntity
100
AcDbLine
8
2
62
256
370
-1
6
ByLayer
10
580.0
20
-23.288280059
30
0.0
11
581.0
21
-23.450394896
31
0.0
0
LINE
5
929
100
AcDbEntity
100
AcDbLine
8
2
62
256
370
-1
6
ByLayer
10
581.0
20
-23.450394896
30
0.0
11
582.0
21
-23.612297123
31
0.0
0
LINE
5
930
100
AcDbEntity
100
AcDbLine
8
2
62
256
370
-1
6
ByLayer
10
582.0
20
-23.612297123
30
0.0
11
583.0
21
-23.773987574
31
0.0
0
LINE
5
931
100
AcDbEntity
100
AcDbLine
8
2
62
256
370
-1
6
ByLayer
10
583.0
20
-23.773987574
30
0.0
11
584.0
21
-23.935467079
31
0.0
0
LINE
5
932
100
AcDbEntity
100
AcDbLine
8
2
62
256
370
-1
6
ByLayer
10
584.0
20
-23.935467079
30
0.0
11
585.0
21
-24.09673646
31
0.0
0
LINE
5
933
100
AcDbEntity
100
AcDbLine
8
2
62
256
370
-1
6
ByLayer
10
585.0
20
-24.09673646
30
0.0
11
586.0
21
-24.257796536
31
0.0
0
LINE
5
934
100
AcDbEntity
100
AcDbLine
8
2
62
256
370
-1
6
ByLayer
10
586.0
20
-24.257796536
30
0.0
11
587.0
21
-24.41864812
31
0.0
0
LINE
5
935
100
AcDbEntity
100
AcDbLine
8
2
62
256
370
-1
6
ByLayer
10
587.0
20
-24.41864812
30
0.0
11
588.0
21
-24.579292019
31
0.0
0
LINE
5
936
100
AcDbEntity
100
AcDbLine
8
2
62
256
370
-1
6
ByLayer
10
588.0
20
-24.579292019
30
0.0
11
589.0
21
-24.739729036
31
0.0
0
LINE
5
937
100
AcDbEntity
100
AcDbLine
8
2
62
256
370
-1
6
ByLayer
10
589.0
20
-24.739729036
30
0.0
11
590.0
21
-24.899959968
31
0.0
0
LINE
5
938
100
AcDbEntity
100
AcDbLine
8
2
62
256
370
-1
6
ByLayer
10
590.0
20
-24.899959968
30
0.0
11
591.0
21
-25.059985607
31
0.0
0
LINE
5
939
100
AcDbEntity
100
AcDbLine
8
2
62
256
370
-1
6
ByLayer
10
591.0
20
-25.059985607
30
0.0
11
592.0
21
-25.21980674
31
0.0
0
LINE
5
940
100
AcDbEntity
100
AcDbLine
8
2
62
256
370
-1
6
ByLayer
10
592.0
20
-25.21980674
30
0.0
11
593.0
21
-25.379424149
31
0.0
0
LINE
5
941
100
AcDbEntity
100
AcDbLine
8
2
62
256
370
-1
6
ByLayer
10
593.0
20
-25.379424149
30
0.0
11
594.0
21
-25.538838612
31
0.0
0
LINE
5
942
100
AcDbEntity
100
AcDbLine
8
2
62
256
370
-1
6
ByLayer
10
594.0
20
-25.538838612
30
0.0
11
595.0
21
-25.6980509
31
0.0
0
LINE
5
943
100
AcDbEntity
100
AcDbLine
8
2
62
256
370
-1
6
ByLayer
10
595.0
20
-25.6980509
30
0.0
11
596.0
21
-25.85706178
31
0.0
0
LINE
5
944
100
AcDbEntity
100
AcDbLine
8
2
62
256
370
-1
6
ByLayer
10
596.0
20
-25.85706178
30
0.0
11
597.0
21
-26.015872016
31
0.0
0
LINE
5
945
100
AcDbEntity
100
AcDbLine
8
2
62
256
370
-1
6
ByLayer
10
597.0
20
-26.015872016
30
0.0
11
598.0
21
-26.174482365
31
0.0
0
LINE
5
946
100
AcDbEntity
100
AcDbLine
8
2
62
256
370
-1
6
ByLayer
10
598.0
20
-26.174482365
30
0.0
11
599.0
21
-26.332893579
31
0.0
0
LINE
5
947
100
AcDbEntity
100
AcDbLine
8
2
62
256
370
-1
6
ByLayer
10
599.0
20
-26.332893579
30
0.0
11
600.0
21
-26.491106407
31
0.0
0
LINE
5
948
100
AcDbEntity
100
AcDbLine
8
2
62
256
370
-1
6
ByLayer
10
600.0
20
-26.491106407
30
0.0
11
601.0
21
-26.649121592
31
0.0
0
LINE
5
949
100
AcDbEntity
100
AcDbLine
8
2
62
256
370
-1
6
ByLayer
10
601.0
20
-26.649121592
30
0.0
11
602.0
21
-26.806939873
31
0.0
0
LINE
5
950
100
AcDbEntity
100
AcDbLine
8
2
62
256
370
-1
6
ByLayer
10
602.0
20
-26.806939873
30
0.0
11
603.0
21
-26.964561985
31
0.0
0
LINE
5
951
100
AcDbEntity
100
AcDbLine
8
2
62
256
370
-1
6
ByLayer
10
603.0
20
-26.964561985
30
0.0
11
604.0
21
-27.121988657
31
0.0
0
LINE
5
952
100
AcDbEntity
100
AcDbLine
8
2
62
256
370
-1
6
ByLayer
10
604.0
20
-27.121988657
30
0.0
11
605.0
21
-27.279220614
31
0.0
0
LINE
5
953
100
AcDbEntity
100
AcDbLine
8
2
62
256
370
-1
6
ByLayer
10
605.0
20
-27.279220614
30
0.0
11
606.0
21
-27.436258577
31
0.0
0
LINE
5
954
100
AcDbEntity
100
AcDbLine
8
2
62
256
370
-1
6
ByLayer
10
606.0
20
-27.436258577
30
0.0
11
607.0
21
-27.593103262
31
0.0
0
LINE
5
955
100
AcDbEntity
100
AcDbLine
8
2
62
256
370
-1
6
ByLayer
10
607.0
20
-27.593103262
30
0.0
11
608.0
21
-27.749755381
31
0.0
0
LINE
5
956
100
AcDbEntity
100
AcDbLine
8
2
62
256
370
-1
6
ByLayer
10
608.0
20
-27.749755381
30
0.0
11
609.0
21
-27.906215643
31
0.0
0
LINE
5
957
100
AcDbEntity
100
AcDbLine
8
2
62
256
370
-1
6
ByLayer
10
609.0
20
-27.906215643
30
0.0
11
610.0
21
-28.062484749
31
0.0
0
LINE
5
958
100
AcDbEntity
100
AcDbLine
8
2
62
256
370
-1
6
ByLayer
10
610.0
20
-28.062484749
30
0.0
11
611.0
21
-28.218563399
31
0.0
0
LINE
5
959
100
AcDbEntity
100
AcDbLine
8
2
62
256
370
-1
6
ByLayer
10
611.0
20
-28.218563399
30
0.0
11
612.0
21
-28.374452287
31
0.0
0
LINE
5
960
100
AcDbEntity
100
AcDbLine
8
2
62
256
370
-1
6
ByLayer
10
612.0
20
-28.374452287
30
0.0
11
613.0
21
-28.530152104
31
0.0
0
LINE
5
961
100
AcDbEntity
100
AcDbLine
8
2
62
256
370
-1
6
ByLayer
10
613.0
20
-28.530152104
30
0.0
11
614.0
21
-28.685663537
31
0.0
0
LINE
5
962
100
AcDbEntity
100
AcDbLine
8
2
62
256
370
-1
6
ByLayer
10
614.0
20
-28.685663537
30
0.0
11
615.0
21
-28.840987267
31
0.0
0
LINE
5
963
100
AcDbEntity
100
AcDbLine
8
2
62
256
370
-1
6
ByLayer
10
615.0
20
-28.840987267
30
0.0
11
616.0
21
-28.996123973
31
0.0
0
LINE
5
964
100
AcDbEntity
100
AcDbLine
8
2
62
256
370
-1
6
ByLayer
10
616.0
20
-28.996123973
30
0.0
11
617.0
21
-29.151074328
31
0.0
0
LINE
5
965
100
AcDbEntity
100
AcDbLine
8
2
62
256
370
-1
6
ByLayer
10
617.0
20
-29.151074328
30
0.0
11
618.0
21
-29.305839002
31
0.0
0
LINE
5
966
100
AcDbEntity
100
AcDbLine
8
2
62
256
370
-1
6
ByLayer
10
618.0
20
-29.305839002
30
0.0
11
619.0
21
-29.460418661
31
0.0
0
LINE
5
967
100
AcDbEntity
100
AcDbLine
8
2
62
256
370
-1
6
ByLayer
10
619.0
20
-29.460418661
30
0.0
11
620.0
21
-29.614813968
31
0.0
0
LINE
5
968
100
AcDbEntity
100
AcDbLine
8
2
62
256
370
-1
6
ByLayer
10
620.0
20
-29.614813968
30
0.0
11
621.0
21
-29.76902558
31
0.0
0
LINE
5
969
100
AcDbEntity
100
AcDbLine
8
2
62
256
370
-1
6
ByLayer
10
621.0
20
-29.76902558
30
0.0
11
622.0
21
-29.923054151
31
0.0
0
LINE
5
970
100
AcDbEntity
100
AcDbLine
8
2
62
256
370
-1
6
ByLayer
10
622.0
20
-29.923054151
30
0.0
11
623.0
21
-30.076900332
31
0.0
0
LINE
5
971
100
AcDbEntity
100
AcDbLine
8
2
62
256
370
-1
6
ByLayer
10
623.0
20
-30.076900332
30
0.0
11
624.0
21
-30.230564769
31
0.0
0
LINE
5
972
100
AcDbEntity
100
AcDbLine
8
2
62
256
370
-1
6
ByLayer
10
624.0
20
-30.230564769
30
0.0
11
625.0
21
-30.384048104
31
0.0
0
LINE
5
973
100
AcDbEntity
100
AcDbLine
8
2
62
256
370
-1
6
ByLayer
10
625.0
20
-30.384048104
30
0.0
11
626.0
21
-30.537350977
31
0.0
0
LINE
5
974
100
AcDbEntity
100
AcDbLine
8
2
62
256
370
-1
6
ByLayer
10
626.0
20
-30.537350977
30
0.0
11
627.0
21
-30.690474022
31
0.0
0
LINE
5
975
100
AcDbEntity
100
AcDbLine
8
2
62
256
370
-1
6
ByLayer
10
627.0
20
-30.690474022
30
0.0
11
628.0
21
-30.84341787
31
0.0
0
LINE
5
976
100
AcDbEntity
100
AcDbLine
8
2
62
256
370
-1
6
ByLayer
10
628.0
20
-30.84341787
30
0.0
11
629.0
21
-30.996183151
31
0.0
0
LINE
5
977
100
AcDbEntity
100
AcDbLine
8
2
62
256
370
-1
6
ByLayer
10
629.0
20
-30.996183151
30
0.0
11
630.0
21
-31.148770486
31
0.0
0
LINE
5
978
100
AcDbEntity
100
AcDbLine
8
2
62
256
370
-1
6
ByLayer
10
630.0
20
-31.148770486
30
0.0
11
631.0
21
-31.301180497
31
0.0
0
LINE
5
979
100
AcDbEntity
100
AcDbLine
8
2
62
256
370
-1
6
ByLayer
10
631.0
20
-31.301180497
30
0.0
11
632.0
21
-31.453413801
31
0.0
0
LINE
5
980
100
AcDbEntity
100
AcDbLine
8
2
62
256
370
-1
6
ByLayer
10
632.0
20
-31.453413801
30
0.0
11
633.0
21
-31.605471011
31
0.0
0
LINE
5
981
100
AcDbEntity
100
AcDbLine
8
2
62
256
370
-1
6
ByLayer
10
633.0
20
-31.605471011
30
0.0
11
634.0
21
-31.757352736
31
0.0
0
LINE
5
982
100
AcDbEntity
100
AcDbLine
8
2
62
256
370
-1
6
ByLayer
10
634.0
20
-31.757352736
30
0.0
11
635.0
21
-31.909059583
31
0.0
0
LINE
5
983
100
AcDbEntity
100
AcDbLine
8
2
62
256
370
-1
6
ByLayer
10
635.0
20
-31.909059583
30
0.0
11
636.0
21
-32.060592154
31
0.0
0
LINE
5
984
100
AcDbEntity
100
AcDbLine
8
2
62
256
370
-1
6
ByLayer
10
636.0
20
-32.060592154
30
0.0
11
637.0
21
-32.211951048
31
0.0
0
LINE
5
985
100
AcDbEntity
100
AcDbLine
8
2
62
256
370
-1
6
ByLayer
10
637.0
20
-32.211951048
30
0.0
11
638.0
21
-32.363136862
31
0.0
0
LINE
5
986
100
AcDbEntity
100
AcDbLine
8
2
62
256
370
-1
6
ByLayer
10
638.0
20
-32.363136862
30
0.0
11
639.0
21
-32.514150188
31
0.0
0
LINE
5
987
100
AcDbEntity
100
AcDbLine
8
2
62
256
370
-1
6
ByLayer
10
639.0
20
-32.514150188
30
0.0
11
640.0
21
-32.664991614
31
0.0
0
LINE
5
988
100
AcDbEntity
100
AcDbLine
8
2
62
256
370
-1
6
ByLayer
10
640.0
20
-32.664991614
30
0.0
11
641.0
21
-32.815661727
31
0.0
0
LINE
5
989
100
AcDbEntity
100
AcDbLine
8
2
62
256
370
-1
6
ByLayer
10
641.0
20
-32.815661727
30
0.0
11
642.0
21
-32.966161109
31
0.0
0
LINE
5
990
100
AcDbEntity
100
AcDbLine
8
2
62
256
370
-1
6
ByLayer
10
642.0
20
-32.966161109
30
0.0
11
643.0
21
-33.116490338
31
0.0
0
LINE
5
991
100
AcDbEntity
100
AcDbLine
8
2
62
256
370
-1
6
ByLayer
10
643.0
20
-33.116490338
30
0.0
11
644.0
21
-33.266649992
31
0.0
0
LINE
5
992
100
AcDbEntity
100
AcDbLine
8
2
62
256
370
-1
6
ByLayer
10
644.0
20
-33.266649992
30
0.0
11
645.0
21
-33.416640641
31
0.0
0
LINE
5
993
100
AcDbEntity
100
AcDbLine
8
2
62
256
370
-1
6
ByLayer
10
645.0
20
-33.416640641
30
0.0
11
646.0
21
-33.566462857
31
0.0
0
LINE
5
994
100
AcDbEntity
100
AcDbLine
8
2
62
256
370
-1
6
ByLayer
10
646.0
20
-33.566462857
30
0.0
11
647.0
21
-33.716117204
31
0.0
0
LINE
5
995
100
AcDbEntity
100
AcDbLine
8
2
62
256
370
-1
6
ByLayer
10
647.0
20
-33.716117204
30
0.0
11
648.0
21
-33.865604245
31
0.0
0
LINE
5
996
100
AcDbEntity
100
AcDbLine
8
2
62
256
370
-1
6
ByLayer
10
648.0
20
-33.865604245
30
0.0
11
649.0
21
-34.014924542
31
0.0
0
LINE
5
997
100
AcDbEntity
100
AcDbLine
8
2
62
256
370
-1
6
ByLayer
10
649.0
20
-34.014924542
30
0.0
11
650.0
21
-34.16407865
31
0.0
0
LINE
5
998
100
AcDbEntity
100
AcDbLine
8
2
62
256
370
-1
6
ByLayer
10
650.0
20
-34.16407865
30
0.0
11
651.0
21
-34.313067123
31
0.0
0
LINE
5
999
100
AcDbEntity
100
AcDbLine
8
2
62
256
370
-1
6
ByLayer
10
651.0
20
-34.313067123
30
0.0
11
652.0
21
-34.461890512
31
0.0
0
LINE
5
1000
100
AcDbEntity
100
AcDbLine
8
2
62
256
370
-1
6
ByLayer
10
652.0
20
-34.461890512
30
0.0
11
653.0
21
-34.610549364
31
0.0
0
LINE
5
1001
100
AcDbEntity
100
AcDbLine
8
2
62
256
370
-1
6
ByLayer
10
653.0
20
-34.610549364
30
0.0
11
654.0
21
-34.759044223
31
0.0
0
LINE
5
1002
100
AcDbEntity
100
AcDbLine
8
2
62
256
370
-1
6
ByLayer
10
654.0
20
-34.759044223
30
0.0
11
655.0
21
-34.907375632
31
0.0
0
LINE
5
1003
100
AcDbEntity
100
AcDbLine
8
2
62
256
370
-1
6
ByLayer
10
655.0
20
-34.907375632
30
0.0
11
656.0
21
-35.055544129
31
0.0
0
LINE
5
1004
100
AcDbEntity
100
AcDbLine
8
2
62
256
370
-1
6
ByLayer
10
656.0
20
-35.055544129
30
0.0
11
657.0
21
-35.203550249
31
0.0
0
LINE
5
1005
100
AcDbEntity
100
AcDbLine
8
2
62
256
370
-1
6
ByLayer
10
657.0
20
-35.203550249
30
0.0
11
658.0
21
-35.351394526
31
0.0
0
LINE
5
1006
100
AcDbEntity
100
AcDbLine
8
2
62
256
370
-1
6
ByLayer
10
658.0
20
-35.351394526
30
0.0
11
659.0
21
-35.499077488
31
0.0
0
LINE
5
1007
100
AcDbEntity
100
AcDbLine
8
2
62
256
370
-1
6
ByLayer
10
659.0
20
-35.499077488
30
0.0
11
660.0
21
-35.646599663
31
0.0
0
LINE
5
1008
100
AcDbEntity
100
AcDbLine
8
2
62
256
370
-1
6
ByLayer
10
660.0
20
-35.646599663
30
0.0
11
661.0
21
-35.793961574
31
0.0
0
LINE
5
1009
100
AcDbEntity
100
AcDbLine
8
2
62
256
370
-1
6
ByLayer
10
661.0
20
-35.793961574
30
0.0
11
662.0
21
-35.941163744
31
0.0
0
LINE
5
1010
100
AcDbEntity
100
AcDbLine
8
2
62
256
370
-1
6
ByLayer
10
662.0
20
-35.941163744
30
0.0
11
663.0
21
-36.08820669
31
0.0
0
LINE
5
1011
100
AcDbEntity
100
AcDbLine
8
2
62
256
370
-1
6
ByLayer
10
663.0
20
-36.08820669
30
0.0
11
664.0
21
-36.235090927
31
0.0
0
LINE
5
1012
100
AcDbEntity
100
AcDbLine
8
2
62
256
370
-1
6
ByLayer
10
664.0
20
-36.235090927
30
0.0
11
665.0
21
-36.38181697
31
0.0
0
LINE
5
1013
100
AcDbEntity
100
AcDbLine
8
2
62
256
370
-1
6
ByLayer
10
665.0
20
-36.38181697
30
0.0
11
666.0
21
-36.528385327
31
0.0
0
LINE
5
1014
100
AcDbEntity
100
AcDbLine
8
2
62
256
370
-1
6
ByLayer
10
666.0
20
-36.528385327
30
0.0
11
667.0
21
-36.674796506
31
0.0
0
LINE
5
1015
100
AcDbEntity
100
AcDbLine
8
2
62
256
370
-1
6
ByLayer
10
667.0
20
-36.674796506
30
0.0
11
668.0
21
-36.821051012
31
0.0
0
LINE
5
1016
100
AcDbEntity
100
AcDbLine
8
2
62
256
370
-1
6
ByLayer
10
668.0
20
-36.821051012
30
0.0
11
669.0
21
-36.967149346
31
0.0
0
LINE
5
1017
100
AcDbEntity
100
AcDbLine
8
2
62
256
370
-1
6
ByLayer
10
669.0
20
-36.967149346
30
0.0
11
670.0
21
-37.113092008
31
0.0
0
LINE
5
1018
100
AcDbEntity
100
AcDbLine
8
2
62
256
370
-1
6
ByLayer
10
670.0
20
-37.113092008
30
0.0
11
671.0
21
-37.258879494
31
0.0
0
LINE
5
1019
100
AcDbEntity
100
AcDbLine
8
2
62
256
370
-1
6
ByLayer
10
671.0
20
-37.258879494
30
0.0
11
672.0
21
-37.404512299
31
0.0
0
LINE
5
1020
100
AcDbEntity
100
AcDbLine
8
2
62
256
370
-1
6
ByLayer
10
672.0
20
-37.404512299
30
0.0
11
673.0
21
-37.549990912
31
0.0
0
LINE
5
1021
100
AcDbEntity
100
AcDbLine
8
2
62
256
370
-1
6
ByLayer
10
673.0
20
-37.549990912
30
0.0
11
674.0
21
-37.695315824
31
0.0
0
LINE
5
1022
100
AcDbEntity
100
AcDbLine
8
2
62
256
370
-1
6
ByLayer
10
674.0
20
-37.695315824
30
0.0
11
675.0
21
-37.840487521
31
0.0
0
LINE
5
1023
100
AcDbEntity
100
AcDbLine
8
2
62
256
370
-1
6
ByLayer
10
675.0
20
-37.840487521
30
0.0
11
676.0
21
-37.985506485
31
0.0
0
LINE
5
1024
100
AcDbEntity
100
AcDbLine
8
2
62
256
370
-1
6
ByLayer
10
676.0
20
-37.985506485
30
0.0
11
677.0
21
-38.130373199
31
0.0
0
LINE
5
1025
100
AcDbEntity
100
AcDbLine
8
2
62
256
370
-1
6
ByLayer
10
677.0
20
-38.130373199
30
0.0
11
678.0
21
-38.27508814
31
0.0
0
LINE
5
1026
100
AcDbEntity
100
AcDbLine
8
2
62
256
370
-1
6
ByLayer
10
678.0
20
-38.27508814
30
0.0
11
679.0
21
-38.419651784
31
0.0
0
LINE
5
1027
100
AcDbEntity
100
AcDbLine
8
2
62
256
370
-1
6
ByLayer
10
679.0
20
-38.419651784
30
0.0
11
680.0
21
-38.564064606
31
0.0
0
LINE
5
1028
100
AcDbEntity
100
AcDbLine
8
2
62
256
370
-1
6
ByLayer
10
680.0
20
-38.564064606
30
0.0
11
681.0
21
-38.708327075
31
0.0
0
LINE
5
1029
100
AcDbEntity
100
AcDbLine
8
2
62
256
370
-1
6
ByLayer
10
681.0
20
-38.708327075
30
0.0
11
682.0
21
-38.852439662
31
0.0
0
LINE
5
1030
100
AcDbEntity
100
AcDbLine
8
2
62
256
370
-1
6
ByLayer
10
682.0
20
-38.852439662
30
0.0
11
683.0
21
-38.996402831
31
0.0
0
LINE
5
1031
100
AcDbEntity
100
AcDbLine
8
2
62
256
370
-1
6
ByLayer
10
683.0
20
-38.996402831
30
0.0
11
684.0
21
-39.140217047
31
0.0
0
LINE
5
1032
100
AcDbEntity
100
AcDbLine
8
2
62
256
370
-1
6
ByLayer
10
684.0
20
-39.140217047
30
0.0
11
685.0
21
-39.283882772
31
0.0
0
LINE
5
1033
100
AcDbEntity
100
AcDbLine
8
2
62
256
370
-1
6
ByLayer
10
685.0
20
-39.283882772
30
0.0
11
686.0
21
-39.427400463
31
0.0
0
LINE
5
1034
100
AcDbEntity
100
AcDbLine
8
2
62
256
370
-1
6
ByLayer
10
686.0
20
-39.427400463
30
0.0
11
687.0
21
-39.570770579
31
0.0
0
LINE
5
1035
100
AcDbEntity
100
AcDbLine
8
2
62
256
370
-1
6
ByLayer
10
687.0
20
-39.570770579
30
0.0
11
688.0
21
-39.713993573
31
0.0
0
LINE
5
1036
100
AcDbEntity
100
AcDbLine
8
2
62
256
370
-1
6
ByLayer
10
688.0
20
-39.713993573
30
0.0
11
689.0
21
-39.857069896
31
0.0
0
LINE
5
1037
100
AcDbEntity
100
AcDbLine
8
2
62
256
370
-1
6
ByLayer
10
689.0
20
-39.857069896
30
0.0
11
690.0
21
-40.0
31
0.0
0
LINE
5
1038
100
AcDbEntity
100
AcDbLine
8
2
62
256
370
-1
6
ByLayer
10
690.0
20
-40.0
30
0.0
11
691.0
21
-40.142784331
31
0.0
0
LINE
5
1039
100
AcDbEntity
100
AcDbLine
8
2
62
256
370
-1
6
ByLayer
10
691.0
20
-40.142784331
30
0.0
11
692.0
21
-40.285423334
31
0.0
0
LINE
5
1040
100
AcDbEntity
100
AcDbLine
8
2
62
256
370
-1
6
ByLayer
10
692.0
20
-40.285423334
30
0.0
11
693.0
21
-40.427917452
31
0.0
0
LINE
5
1041
100
AcDbEntity
100
AcDbLine
8
2
62
256
370
-1
6
ByLayer
10
693.0
20
-40.427917452
30
0.0
11
694.0
21
-40.570267126
31
0.0
0
LINE
5
1042
100
AcDbEntity
100
AcDbLine
8
2
62
256
370
-1
6
ByLayer
10
694.0
20
-40.570267126
30
0.0
11
695.0
21
-40.712472795
31
0.0
0
LINE
5
1043
100
AcDbEntity
100
AcDbLine
8
2
62
256
370
-1
6
ByLayer
10
695.0
20
-40.712472795
30
0.0
11
696.0
21
-40.854534893
31
0.0
0
LINE
5
1044
100
AcDbEntity
100
AcDbLine
8
2
62
256
370
-1
6
ByLayer
10
696.0
20
-40.854534893
30
0.0
11
697.0
21
-40.996453856
31
0.0
0
LINE
5
1045
100
AcDbEntity
100
AcDbLine
8
2
62
256
370
-1
6
ByLayer
10
697.0
20
-40.996453856
30
0.0
11
698.0
21
-41.138230115
31
0.0
0
LINE
5
1046
100
AcDbEntity
100
AcDbLine
8
2
62
256
370
-1
6
ByLayer
10
698.0
20
-41.138230115
30
0.0
11
699.0
21
-41.2798641
31
0.0
0
LINE
5
1047
100
AcDbEntity
100
AcDbLine
8
2
62
256
370
-1
6
ByLayer
10
699.0
20
-41.2798641
30
0.0
11
700.0
21
-41.421356237
31
0.0
0
MTEXT
5
1048
100
AcDbEntity
100
AcDbMText
8
2
62
256
370
-1
6
ByLayer
10
350.0
20
95.0
30
0.0
40
1
41
100.0
71
8
72
0
1

7
normallatin1
50
0.0
73
1
44
1.0
0
MTEXT
5
1049
100
AcDbEntity
100
AcDbMText
8
2
62
256
370
-1
6
ByLayer
10
450.0
20
-46.421356237
30
0.0
40
1
41
100.0
71
8
72
0
1
Parabolic Curve
7
normallatin1
50
0.0
73
1
44
1.0
0
ENDSEC
  0
SECTION
  2
OBJECTS
  0
DICTIONARY
  5
C
100
AcDbDictionary
280
0
281
1
  3
ACAD_GROUP
350
D
  3
ACAD_LAYOUT
350
1A
  3
ACAD_MLINESTYLE
350
17
  3
ACAD_PLOTSETTINGS
350
19
  3
ACAD_PLOTSTYLENAME
350
E
  3
AcDbVariableDictionary
350
48
  0
DICTIONARY
  5
D
100
AcDbDictionary
280
0
281
1
  0
ACDBDICTIONARYWDFLT
  5
E
100
AcDbDictionary
281
1
  3
Normal
350
F
100
AcDbDictionaryWithDefault
340
F
  0
ACDBPLACEHOLDER
  5
F
  0
DICTIONARY
  5
17
100
AcDbDictionary
280
0
281
1
  3
Standard
350
18
  0
MLINESTYLE
  5
18
100
AcDbMlineStyle
  2
STANDARD
 70
0
  3

 62
256
 51
90.0
 52
90.0
 71
2
 49
0.5
 62
256
  6
BYLAYER
 49
-0.5
 62
256
  6
BYLAYER
  0
DICTIONARY
  5
19
100
AcDbDictionary
280
0
281
1
  0
DICTIONARY
  5
1A
100
AcDbDictionary
281
1
  3
Layout1
350
1E
  3
Layout2
350
26
  3
Model
350
22
  0
LAYOUT
  5
1E
100
AcDbPlotSettings
  1

  2
C:\Program Files\AutoCAD 2002\plotters\DWF ePlot (optimized for plotting).pc3
  4

  6

 40
0.0
 41
0.0
 42
0.0
 43
0.0
 44
0.0
 45
0.0
 46
0.0
 47
0.0
 48
0.0
 49
0.0
140
0.0
141
0.0
142
1.0
143
1.0
 70
688
 72
0
 73
0
 74
5
  7

 75
16
147
1.0
148
0.0
149
0.0
100
AcDbLayout
  1
Layout1
 70
1
 71
1
 10
0.0
 20
0.0
 11
420.0
 21
297.0
 12
0.0
 22
0.0
 32
0.0
 14
100000000000000000000.0
 24
100000000000000000000.0
 34
100000000000000000000.0
 15
-100000000000000000000.0
 25
-100000000000000000000.0
 35
-100000000000000000000.0
146
0.0
 13
0.0
 23
0.0
 33
0.0
 16
1.0
 26
0.0
 36
0.0
 17
0.0
 27
1.0
 37
0.0
 76
0
330
1B
  0
LAYOUT
  5
22
100
AcDbPlotSettings
  1

  2
C:\Program Files\AutoCAD 2002\plotters\DWF ePlot (optimized for plotting).pc3
  4

  6

 40
0.0
 41
0.0
 42
0.0
 43
0.0
 44
0.0
 45
0.0
 46
0.0
 47
0.0
 48
0.0
 49
0.0
140
0.0
141
0.0
142
1.0
143
1.0
 70
1712
 72
0
 73
0
 74
0
  7

 75
0
147
1.0
148
0.0
149
0.0
100
AcDbLayout
  1
Model
 70
1
 71
0
 10
0.0
 20
0.0
 11
12.0
 21
9.0
 12
0.0
 22
0.0
 32
0.0
 14
0.0
 24
0.0
 34
0.0
 15
0.0
 25
0.0
 35
0.0
146
0.0
 13
0.0
 23
0.0
 33
0.0
 16
1.0
 26
0.0
 36
0.0
 17
0.0
 27
1.0
 37
0.0
 76
0
330
1F
  0
LAYOUT
  5
26
100
AcDbPlotSettings
  1

  2
C:\Program Files\AutoCAD 2002\plotters\DWF ePlot (optimized for plotting).pc3
  4

  6

 40
0.0
 41
0.0
 42
0.0
 43
0.0
 44
0.0
 45
0.0
 46
0.0
 47
0.0
 48
0.0
 49
0.0
140
0.0
141
0.0
142
1.0
143
1.0
 70
688
 72
0
 73
0
 74
5
  7

 75
16
147
1.0
148
0.0
149
0.0
100
AcDbLayout
  1
Layout2
 70
1
 71
2
 10
0.0
 20
0.0
 11
12.0
 21
9.0
 12
0.0
 22
0.0
 32
0.0
 14
0.0
 24
0.0
 34
0.0
 15
0.0
 25
0.0
 35
0.0
146
0.0
 13
0.0
 23
0.0
 33
0.0
 16
1.0
 26
0.0
 36
0.0
 17
0.0
 27
1.0
 37
0.0
 76
0
330
23
  0
DICTIONARY
  5
48
100
AcDbDictionary
281
1
  3
DIMASSOC
350
4A
  3
HIDETEXT
350
49
  0
DICTIONARYVAR
  5
49
100
DictionaryVariables
280
0
  1
2
  0
DICTIONARYVAR
  5
4A
100
DictionaryVariables
280
0
  1
1
  0
ENDSEC
  0
EOF
