999
dxflib 2.0.4.8
  0
SECTION
  2
HEADER
  9
$ACADVER
  1
AC1015
  9
$HANDSEED
  5
FFFF
  9
$DIMASZ
 40
2.5
  9
$DIMGAP
 40
0.625
  9
$DIMEXO
 40
0.625
  9
$INSUNITS
 70
4
  9
$DIMTXT
 40
2.5
  9
$PLIMMAX
 10
210.0
 20
297.0
  9
$PLIMMIN
 10
0.0
 20
0.0
  9
$DIMEXE
 40
1.25
  0
ENDSEC
  0
SECTION
  2
TABLES
  0
TABLE
  2
VPORT
  5
8
100
AcDbSymbolTable
 70
1
  0
VPORT
  5
30
100
AcDbSymbolTableRecord
100
AcDbViewportTableRecord
  2
*Active
 70
0
 10
0.0
 20
0.0
 11
1.0
 21
1.0
 12
286.3055555555554861
 22
148.5
 13
0.0
 23
0.0
 14
10.0
 24
10.0
 15
10.0
 25
10.0
 16
0.0
 26
0.0
 36
1.0
 17
0.0
 27
0.0
 37
0.0
 40
297.0
 41
1.92798353909465
 42
50.0
 43
0.0
 44
0.0
 50
0.0
 51
0.0
 71
0
 72
100
 73
1
 74
3
 75
1
 76
1
 77
0
 78
0
281
0
 65
1
110
0.0
120
0.0
130
0.0
111
1.0
121
0.0
131
0.0
112
0.0
122
1.0
132
0.0
 79
0
146
0.0
  0
ENDTAB
  0
TABLE
  2
LTYPE
  5
5
100
AcDbSymbolTable
 70
21
  0
LTYPE
  5
14
100
AcDbSymbolTableRecord
100
AcDbLinetypeTableRecord
  2
ByBlock
 70
0
  3

 72
65
 73
0
 40
0.0
  0
LTYPE
  5
15
100
AcDbSymbolTableRecord
100
AcDbLinetypeTableRecord
  2
ByLayer
 70
0
  3

 72
65
 73
0
 40
0.0
  0
LTYPE
  5
16
100
AcDbSymbolTableRecord
100
AcDbLinetypeTableRecord
  2
CONTINUOUS
 70
0
  3
Solid line
 72
65
 73
0
 40
0.0
  0
LTYPE
  5
31
100
AcDbSymbolTableRecord
100
AcDbLinetypeTableRecord
  2
DOT
 70
0
  3
Dot . . . . . . . . . . . . . . . . . . . . . .
 72
65
 73
2
 40
6.3499999999999996
 49
0.0
 74
0
 49
-6.3499999999999996
 74
0
  0
LTYPE
  5
32
100
AcDbSymbolTableRecord
100
AcDbLinetypeTableRecord
  2
DOT2
 70
0
  3
Dot (.5x) .....................................
 72
65
 73
2
 40
3.1749999999999998
 49
0.0
 74
0
 49
-3.1749999999999998
 74
0
  0
LTYPE
  5
33
100
AcDbSymbolTableRecord
100
AcDbLinetypeTableRecord
  2
DOTX2
 70
0
  3
Dot (2x) .  .  .  .  .  .  .  .  .  .  .  .  .
 72
65
 73
2
 40
12.6999999999999993
 49
0.0
 74
0
 49
-12.6999999999999993
 74
0
  0
LTYPE
  5
34
100
AcDbSymbolTableRecord
100
AcDbLinetypeTableRecord
  2
DASHED
 70
0
  3
Dashed __ __ __ __ __ __ __ __ __ __ __ __ __ _
 72
65
 73
2
 40
19.0500000000000007
 49
12.6999999999999993
 74
0
 49
-6.3499999999999996
 74
0
  0
LTYPE
  5
35
100
AcDbSymbolTableRecord
100
AcDbLinetypeTableRecord
  2
DASHED2
 70
0
  3
Dashed (.5x) _ _ _ _ _ _ _ _ _ _ _ _ _ _ _ _ _
 72
65
 73
2
 40
9.5250000000000004
 49
6.3499999999999996
 74
0
 49
-3.1749999999999998
 74
0
  0
LTYPE
  5
36
100
AcDbSymbolTableRecord
100
AcDbLinetypeTableRecord
  2
DASHEDX2
 70
0
  3
Dashed (2x) ____  ____  ____  ____  ____  ___
 72
65
 73
2
 40
38.1000000000000014
 49
25.3999999999999986
 74
0
 49
-12.6999999999999993
 74
0
  0
LTYPE
  5
37
100
AcDbSymbolTableRecord
100
AcDbLinetypeTableRecord
  2
DASHDOT
 70
0
  3
Dash dot __ . __ . __ . __ . __ . __ . __ . __
 72
65
 73
4
 40
25.3999999999999986
 49
12.6999999999999993
 74
0
 49
-6.3499999999999996
 74
0
 49
0.0
 74
0
 49
-6.3499999999999996
 74
0
  0
LTYPE
  5
38
100
AcDbSymbolTableRecord
100
AcDbLinetypeTableRecord
  2
DASHDOT2
 70
0
  3
Dash dot (.5x) _._._._._._._._._._._._._._._.
 72
65
 73
4
 40
12.6999999999999993
 49
6.3499999999999996
 74
0
 49
-3.1749999999999998
 74
0
 49
0.0
 74
0
 49
-3.1749999999999998
 74
0
  0
LTYPE
  5
39
100
AcDbSymbolTableRecord
100
AcDbLinetypeTableRecord
  2
DASHDOTX2
 70
0
  3
Dash dot (2x) ____  .  ____  .  ____  .  ___
 72
65
 73
4
 40
50.7999999999999972
 49
25.3999999999999986
 74
0
 49
-12.6999999999999993
 74
0
 49
0.0
 74
0
 49
-12.6999999999999993
 74
0
  0
LTYPE
  5
3A
100
AcDbSymbolTableRecord
100
AcDbLinetypeTableRecord
  2
DIVIDE
 70
0
  3
Divide ____ . . ____ . . ____ . . ____ . . ____
 72
65
 73
6
 40
31.75
 49
12.6999999999999993
 74
0
 49
-6.3499999999999996
 74
0
 49
0.0
 74
0
 49
-6.3499999999999996
 74
0
 49
0.0
 74
0
 49
-6.3499999999999996
 74
0
  0
LTYPE
  5
3B
100
AcDbSymbolTableRecord
100
AcDbLinetypeTableRecord
  2
DIVIDE2
 70
0
  3
Divide (.5x) __..__..__..__..__..__..__..__.._
 72
65
 73
6
 40
15.875
 49
6.3499999999999996
 74
0
 49
-3.1749999999999998
 74
0
 49
0.0
 74
0
 49
-3.1749999999999998
 74
0
 49
0.0
 74
0
 49
-3.1749999999999998
 74
0
  0
LTYPE
  5
3C
100
AcDbSymbolTableRecord
100
AcDbLinetypeTableRecord
  2
DIVIDEX2
 70
0
  3
Divide (2x) ________  .  .  ________  .  .  _
 72
65
 73
6
 40
63.5
 49
25.3999999999999986
 74
0
 49
-12.6999999999999993
 74
0
 49
0.0
 74
0
 49
-12.6999999999999993
 74
0
 49
0.0
 74
0
 49
-12.6999999999999993
 74
0
  0
LTYPE
  5
3D
100
AcDbSymbolTableRecord
100
AcDbLinetypeTableRecord
  2
CENTER
 70
0
  3
Center ____ _ ____ _ ____ _ ____ _ ____ _ ____
 72
65
 73
4
 40
50.7999999999999972
 49
31.75
 74
0
 49
-6.3499999999999996
 74
0
 49
6.3499999999999996
 74
0
 49
-6.3499999999999996
 74
0
  0
LTYPE
  5
3E
100
AcDbSymbolTableRecord
100
AcDbLinetypeTableRecord
  2
CENTER2
 70
0
  3
Center (.5x) ___ _ ___ _ ___ _ ___ _ ___ _ ___
 72
65
 73
4
 40
28.5749999999999993
 49
19.0500000000000007
 74
0
 49
-3.1749999999999998
 74
0
 49
3.1749999999999998
 74
0
 49
-3.1749999999999998
 74
0
  0
LTYPE
  5
3F
100
AcDbSymbolTableRecord
100
AcDbLinetypeTableRecord
  2
CENTERX2
 70
0
  3
Center (2x) ________  __  ________  __  _____
 72
65
 73
4
 40
101.5999999999999943
 49
63.5
 74
0
 49
-12.6999999999999993
 74
0
 49
12.6999999999999993
 74
0
 49
-12.6999999999999993
 74
0
  0
LTYPE
  5
40
100
AcDbSymbolTableRecord
100
AcDbLinetypeTableRecord
  2
BORDER
 70
0
  3
Border __ __ . __ __ . __ __ . __ __ . __ __ .
 72
65
 73
6
 40
44.4500000000000028
 49
12.6999999999999993
 74
0
 49
-6.3499999999999996
 74
0
 49
12.6999999999999993
 74
0
 49
-6.3499999999999996
 74
0
 49
0.0
 74
0
 49
-6.3499999999999996
 74
0
  0
LTYPE
  5
41
100
AcDbSymbolTableRecord
100
AcDbLinetypeTableRecord
  2
BORDER2
 70
0
  3
Border (.5x) __.__.__.__.__.__.__.__.__.__.__.
 72
65
 73
6
 40
22.2250000000000014
 49
6.3499999999999996
 74
0
 49
-3.1749999999999998
 74
0
 49
6.3499999999999996
 74
0
 49
-3.1749999999999998
 74
0
 49
0.0
 74
0
 49
-3.1749999999999998
 74
0
  0
LTYPE
  5
42
100
AcDbSymbolTableRecord
100
AcDbLinetypeTableRecord
  2
BORDERX2
 70
0
  3
Border (2x) ____  ____  .  ____  ____  .  ___
 72
65
 73
6
 40
88.9000000000000057
 49
25.3999999999999986
 74
0
 49
-12.6999999999999993
 74
0
 49
25.3999999999999986
 74
0
 49
-12.6999999999999993
 74
0
 49
0.0
 74
0
 49
-12.6999999999999993
 74
0
  0
ENDTAB
  0
TABLE
  2
LAYER
  5
2
100
AcDbSymbolTable
 70
6
  0
LAYER
  5
10
100
AcDbSymbolTableRecord
100
AcDbLayerTableRecord
  2
0
 70
0
 62
7
  6
CONTINUOUS
370
0
390
F
  0
LAYER
  5
43
100
AcDbSymbolTableRecord
100
AcDbLayerTableRecord
  2
1
 70
0
 62
6
  6
CONTINUOUS
370
0
390
F
  0
LAYER
  5
44
100
AcDbSymbolTableRecord
100
AcDbLayerTableRecord
  2
2
 70
0
 62
2
  6
CONTINUOUS
370
0
390
F
  0
LAYER
  5
45
100
AcDbSymbolTableRecord
100
AcDbLayerTableRecord
  2
3
 70
0
 62
3
  6
CONTINUOUS
370
0
390
F
  0
LAYER
  5
46
100
AcDbSymbolTableRecord
100
AcDbLayerTableRecord
  2
4
 70
0
 62
1
  6
CONTINUOUS
370
0
390
F
  0
LAYER
  5
47
100
AcDbSymbolTableRecord
100
AcDbLayerTableRecord
  2
5
 70
0
 62
5
  6
CONTINUOUS
370
0
390
F
  0
ENDTAB
  0
TABLE
  2
STYLE
  5
3
100
AcDbSymbolTable
 70
1
  0
STYLE
  5
11
100
AcDbSymbolTableRecord
100
AcDbTextStyleTableRecord
  2
Standard
 70
0
 40
0.0
 41
0.75
 50
0.0
 71
0
 42
2.5
  3
txt
  4

  0
ENDTAB
  0
TABLE
  2
VIEW
  5
6
100
AcDbSymbolTable
 70
0
  0
ENDTAB
  0
TABLE
  2
UCS
  5
7
100
AcDbSymbolTable
 70
0
  0
ENDTAB
  0
TABLE
  2
APPID
  5
9
100
AcDbSymbolTable
 70
1
  0
APPID
  5
12
100
AcDbSymbolTableRecord
100
AcDbRegAppTableRecord
  2
ACAD
 70
0
  0
ENDTAB
  0
TABLE
  2
DIMSTYLE
  5
A
100
AcDbSymbolTable
 70
1
100
AcDbDimStyleTable
 71
0
  0
DIMSTYLE
105
27
100
AcDbSymbolTableRecord
100
AcDbDimStyleTableRecord
  2
Standard
 41
2.5
 42
0.625
 43
3.75
 44
1.25
 70
0
 73
0
 74
0
 77
1
 78
8
140
2.5
141
2.5
143
0.03937007874016
147
0.625
171
3
172
1
271
2
272
2
274
3
278
44
283
0
284
8
340
11
  0
ENDTAB
  0
TABLE
  2
BLOCK_RECORD
  5
1
100
AcDbSymbolTable
 70
1
  0
BLOCK_RECORD
  5
1F
100
AcDbSymbolTableRecord
100
AcDbBlockTableRecord
  2
*Model_Space
340
22
  0
BLOCK_RECORD
  5
1B
100
AcDbSymbolTableRecord
100
AcDbBlockTableRecord
  2
*Paper_Space
340
1E
  0
BLOCK_RECORD
  5
23
100
AcDbSymbolTableRecord
100
AcDbBlockTableRecord
  2
*Paper_Space0
340
26
  0
ENDTAB
  0
ENDSEC
  0
SECTION
  2
BLOCKS
  0
BLOCK
  5
20
100
AcDbEntity
  8
0
100
AcDbBlockBegin
  2
*Model_Space
 70
0
 10
0.0
 20
0.0
 30
0.0
  3
*Model_Space
  1

  0
ENDBLK
  5
21
100
AcDbEntity
  8
0
100
AcDbBlockEnd
  0
BLOCK
  5
1C
100
AcDbEntity
 67
1
  8
0
100
AcDbBlockBegin
  2
*Paper_Space
 70
0
 10
0.0
 20
0.0
 30
0.0
  3
*Paper_Space
  1

  0
ENDBLK
  5
1D
100
AcDbEntity
 67
1
  8
0
100
AcDbBlockEnd
  0
BLOCK
  5
24
100
AcDbEntity
  8
0
100
AcDbBlockBegin
  2
*Paper_Space0
 70
0
 10
0.0
 20
0.0
 30
0.0
  3
*Paper_Space0
  1

  0
ENDBLK
  5
25
100
AcDbEntity
  8
0
100
AcDbBlockEnd
  0
ENDSEC
  0
SECTION
  2
ENTITIES
  0
LINE
5
48
100
AcDbEntity
100
AcDbLine
8
2
62
256
370
-1
6
ByLayer
10
100.0
20
100.0
30
0.0
11
101.0
21
101.396192515
31
0.0
0
LINE
5
49
100
AcDbEntity
100
AcDbLine
8
2
62
256
370
-1
6
ByLayer
10
101.0
20
101.396192515
30
0.0
11
102.0
21
102.791959736
31
0.0
0
LINE
5
50
100
AcDbEntity
100
AcDbLine
8
2
62
256
370
-1
6
ByLayer
10
102.0
20
102.791959736
30
0.0
11
103.0
21
104.186876499
31
0.0
0
LINE
5
51
100
AcDbEntity
100
AcDbLine
8
2
62
256
370
-1
6
ByLayer
10
103.0
20
104.186876499
30
0.0
11
104.0
21
105.5805179
31
0.0
0
LINE
5
52
100
AcDbEntity
100
AcDbLine
8
2
62
256
370
-1
6
ByLayer
10
104.0
20
105.5805179
30
0.0
11
105.0
21
106.97245942
31
0.0
0
LINE
5
53
100
AcDbEntity
100
AcDbLine
8
2
62
256
370
-1
6
ByLayer
10
105.0
20
106.97245942
30
0.0
11
106.0
21
108.362277061
31
0.0
0
LINE
5
54
100
AcDbEntity
100
AcDbLine
8
2
62
256
370
-1
6
ByLayer
10
106.0
20
108.362277061
30
0.0
11
107.0
21
109.749547472
31
0.0
0
LINE
5
55
100
AcDbEntity
100
AcDbLine
8
2
62
256
370
-1
6
ByLayer
10
107.0
20
109.749547472
30
0.0
11
108.0
21
111.133848077
31
0.0
0
LINE
5
56
100
AcDbEntity
100
AcDbLine
8
2
62
256
370
-1
6
ByLayer
10
108.0
20
111.133848077
30
0.0
11
109.0
21
112.514757203
31
0.0
0
LINE
5
57
100
AcDbEntity
100
AcDbLine
8
2
62
256
370
-1
6
ByLayer
10
109.0
20
112.514757203
30
0.0
11
110.0
21
113.891854213
31
0.0
0
LINE
5
58
100
AcDbEntity
100
AcDbLine
8
2
62
256
370
-1
6
ByLayer
10
110.0
20
113.891854213
30
0.0
11
111.0
21
115.26471963
31
0.0
0
LINE
5
59
100
AcDbEntity
100
AcDbLine
8
2
62
256
370
-1
6
ByLayer
10
111.0
20
115.26471963
30
0.0
11
112.0
21
116.632935265
31
0.0
0
LINE
5
60
100
AcDbEntity
100
AcDbLine
8
2
62
256
370
-1
6
ByLayer
10
112.0
20
116.632935265
30
0.0
11
113.0
21
117.996084348
31
0.0
0
LINE
5
61
100
AcDbEntity
100
AcDbLine
8
2
62
256
370
-1
6
ByLayer
10
113.0
20
117.996084348
30
0.0
11
114.0
21
119.353751648
31
0.0
0
LINE
5
62
100
AcDbEntity
100
AcDbLine
8
2
62
256
370
-1
6
ByLayer
10
114.0
20
119.353751648
30
0.0
11
115.0
21
120.705523608
31
0.0
0
LINE
5
63
100
AcDbEntity
100
AcDbLine
8
2
62
256
370
-1
6
ByLayer
10
115.0
20
120.705523608
30
0.0
11
116.0
21
122.050988465
31
0.0
0
LINE
5
64
100
AcDbEntity
100
AcDbLine
8
2
62
256
370
-1
6
ByLayer
10
116.0
20
122.050988465
30
0.0
11
117.0
21
123.389736378
31
0.0
0
LINE
5
65
100
AcDbEntity
100
AcDbLine
8
2
62
256
370
-1
6
ByLayer
10
117.0
20
123.389736378
30
0.0
11
118.0
21
124.72135955
31
0.0
0
LINE
5
66
100
AcDbEntity
100
AcDbLine
8
2
62
256
370
-1
6
ByLayer
10
118.0
20
124.72135955
30
0.0
11
119.0
21
126.045452357
31
0.0
0
LINE
5
67
100
AcDbEntity
100
AcDbLine
8
2
62
256
370
-1
6
ByLayer
10
119.0
20
126.045452357
30
0.0
11
120.0
21
127.361611466
31
0.0
0
LINE
5
68
100
AcDbEntity
100
AcDbLine
8
2
62
256
370
-1
6
ByLayer
10
120.0
20
127.361611466
30
0.0
11
121.0
21
128.669435964
31
0.0
0
LINE
5
69
100
AcDbEntity
100
AcDbLine
8
2
62
256
370
-1
6
ByLayer
10
121.0
20
128.669435964
30
0.0
11
122.0
21
129.968527473
31
0.0
0
LINE
5
70
100
AcDbEntity
100
AcDbLine
8
2
62
256
370
-1
6
ByLayer
10
122.0
20
129.968527473
30
0.0
11
123.0
21
131.258490279
31
0.0
0
LINE
5
71
100
AcDbEntity
100
AcDbLine
8
2
62
256
370
-1
6
ByLayer
10
123.0
20
131.258490279
30
0.0
11
124.0
21
132.538931446
31
0.0
0
LINE
5
72
100
AcDbEntity
100
AcDbLine
8
2
62
256
370
-1
6
ByLayer
10
124.0
20
132.538931446
30
0.0
11
125.0
21
133.809460939
31
0.0
0
LINE
5
73
100
AcDbEntity
100
AcDbLine
8
2
62
256
370
-1
6
ByLayer
10
125.0
20
133.809460939
30
0.0
11
126.0
21
135.069691743
31
0.0
0
LINE
5
74
100
AcDbEntity
100
AcDbLine
8
2
62
256
370
-1
6
ByLayer
10
126.0
20
135.069691743
30
0.0
11
127.0
21
136.319239979
31
0.0
0
LINE
5
75
100
AcDbEntity
100
AcDbLine
8
2
62
256
370
-1
6
ByLayer
10
127.0
20
136.319239979
30
0.0
11
128.0
21
137.557725023
31
0.0
0
LINE
5
76
100
AcDbEntity
100
AcDbLine
8
2
62
256
370
-1
6
ByLayer
10
128.0
20
137.557725023
30
0.0
11
129.0
21
138.78476962
31
0.0
0
LINE
5
77
100
AcDbEntity
100
AcDbLine
8
2
62
256
370
-1
6
ByLayer
10
129.0
20
138.78476962
30
0.0
11
130.0
21
140.0
31
0.0
0
LINE
5
78
100
AcDbEntity
100
AcDbLine
8
2
62
256
370
-1
6
ByLayer
10
130.0
20
140.0
30
0.0
11
131.0
21
141.203045993
31
0.0
0
LINE
5
79
100
AcDbEntity
100
AcDbLine
8
2
62
256
370
-1
6
ByLayer
10
131.0
20
141.203045993
30
0.0
11
132.0
21
142.393541139
31
0.0
0
LINE
5
80
100
AcDbEntity
100
AcDbLine
8
2
62
256
370
-1
6
ByLayer
10
132.0
20
142.393541139
30
0.0
11
133.0
21
143.571122801
31
0.0
0
LINE
5
81
100
AcDbEntity
100
AcDbLine
8
2
62
256
370
-1
6
ByLayer
10
133.0
20
143.571122801
30
0.0
11
134.0
21
144.735432278
31
0.0
0
LINE
5
82
100
AcDbEntity
100
AcDbLine
8
2
62
256
370
-1
6
ByLayer
10
134.0
20
144.735432278
30
0.0
11
135.0
21
145.886114908
31
0.0
0
LINE
5
83
100
AcDbEntity
100
AcDbLine
8
2
62
256
370
-1
6
ByLayer
10
135.0
20
145.886114908
30
0.0
11
136.0
21
147.022820183
31
0.0
0
LINE
5
84
100
AcDbEntity
100
AcDbLine
8
2
62
256
370
-1
6
ByLayer
10
136.0
20
147.022820183
30
0.0
11
137.0
21
148.145201852
31
0.0
0
LINE
5
85
100
AcDbEntity
100
AcDbLine
8
2
62
256
370
-1
6
ByLayer
10
137.0
20
148.145201852
30
0.0
11
138.0
21
149.252918026
31
0.0
0
LINE
5
86
100
AcDbEntity
100
AcDbLine
8
2
62
256
370
-1
6
ByLayer
10
138.0
20
149.252918026
30
0.0
11
139.0
21
150.345631284
31
0.0
0
LINE
5
87
100
AcDbEntity
100
AcDbLine
8
2
62
256
370
-1
6
ByLayer
10
139.0
20
150.345631284
30
0.0
11
140.0
21
151.423008775
31
0.0
0
LINE
5
88
100
AcDbEntity
100
AcDbLine
8
2
62
256
370
-1
6
ByLayer
10
140.0
20
151.423008775
30
0.0
11
141.0
21
152.484722319
31
0.0
0
LINE
5
89
100
AcDbEntity
100
AcDbLine
8
2
62
256
370
-1
6
ByLayer
10
141.0
20
152.484722319
30
0.0
11
142.0
21
153.530448509
31
0.0
0
LINE
5
90
100
AcDbEntity
100
AcDbLine
8
2
62
256
370
-1
6
ByLayer
10
142.0
20
153.530448509
30
0.0
11
143.0
21
154.559868805
31
0.0
0
LINE
5
91
100
AcDbEntity
100
AcDbLine
8
2
62
256
370
-1
6
ByLayer
10
143.0
20
154.559868805
30
0.0
11
144.0
21
155.572669637
31
0.0
0
LINE
5
92
100
AcDbEntity
100
AcDbLine
8
2
62
256
370
-1
6
ByLayer
10
144.0
20
155.572669637
30
0.0
11
145.0
21
156.568542495
31
0.0
0
LINE
5
93
100
AcDbEntity
100
AcDbLine
8
2
62
256
370
-1
6
ByLayer
10
145.0
20
156.568542495
30
0.0
11
146.0
21
157.547184027
31
0.0
0
LINE
5
94
100
AcDbEntity
100
AcDbLine
8
2
62
256
370
-1
6
ByLayer
10
146.0
20
157.547184027
30
0.0
11
147.0
21
158.508296129
31
0.0
0
LINE
5
95
100
AcDbEntity
100
AcDbLine
8
2
62
256
370
-1
6
ByLayer
10
147.0
20
158.508296129
30
0.0
11
148.0
21
159.451586038
31
0.0
0
LINE
5
96
100
AcDbEntity
100
AcDbLine
8
2
62
256
370
-1
6
ByLayer
10
148.0
20
159.451586038
30
0.0
11
149.0
21
160.376766418
31
0.0
0
LINE
5
97
100
AcDbEntity
100
AcDbLine
8
2
62
256
370
-1
6
ByLayer
10
149.0
20
160.376766418
30
0.0
11
150.0
21
161.283555449
31
0.0
0
LINE
5
98
100
AcDbEntity
100
AcDbLine
8
2
62
256
370
-1
6
ByLayer
10
150.0
20
161.283555449
30
0.0
11
151.0
21
162.171676917
31
0.0
0
LINE
5
99
100
AcDbEntity
100
AcDbLine
8
2
62
256
370
-1
6
ByLayer
10
151.0
20
162.171676917
30
0.0
11
152.0
21
163.040860288
31
0.0
0
LINE
5
100
100
AcDbEntity
100
AcDbLine
8
2
62
256
370
-1
6
ByLayer
10
152.0
20
163.040860288
30
0.0
11
153.0
21
163.890840804
31
0.0
0
LINE
5
101
100
AcDbEntity
100
AcDbLine
8
2
62
256
370
-1
6
ByLayer
10
153.0
20
163.890840804
30
0.0
11
154.0
21
164.72135955
31
0.0
0
LINE
5
102
100
AcDbEntity
100
AcDbLine
8
2
62
256
370
-1
6
ByLayer
10
154.0
20
164.72135955
30
0.0
11
155.0
21
165.532163543
31
0.0
0
LINE
5
103
100
AcDbEntity
100
AcDbLine
8
2
62
256
370
-1
6
ByLayer
10
155.0
20
165.532163543
30
0.0
11
156.0
21
166.323005804
31
0.0
0
LINE
5
104
100
AcDbEntity
100
AcDbLine
8
2
62
256
370
-1
6
ByLayer
10
156.0
20
166.323005804
30
0.0
11
157.0
21
167.093645436
31
0.0
0
LINE
5
105
100
AcDbEntity
100
AcDbLine
8
2
62
256
370
-1
6
ByLayer
10
157.0
20
167.093645436
30
0.0
11
158.0
21
167.843847692
31
0.0
0
LINE
5
106
100
AcDbEntity
100
AcDbLine
8
2
62
256
370
-1
6
ByLayer
10
158.0
20
167.843847692
30
0.0
11
159.0
21
168.573384056
31
0.0
0
LINE
5
107
100
AcDbEntity
100
AcDbLine
8
2
62
256
370
-1
6
ByLayer
10
159.0
20
168.573384056
30
0.0
11
160.0
21
169.282032303
31
0.0
0
LINE
5
108
100
AcDbEntity
100
AcDbLine
8
2
62
256
370
-1
6
ByLayer
10
160.0
20
169.282032303
30
0.0
11
161.0
21
169.969576571
31
0.0
0
LINE
5
109
100
AcDbEntity
100
AcDbLine
8
2
62
256
370
-1
6
ByLayer
10
161.0
20
169.969576571
30
0.0
11
162.0
21
170.635807429
31
0.0
0
LINE
5
110
100
AcDbEntity
100
AcDbLine
8
2
62
256
370
-1
6
ByLayer
10
162.0
20
170.635807429
30
0.0
11
163.0
21
171.280521935
31
0.0
0
LINE
5
111
100
AcDbEntity
100
AcDbLine
8
2
62
256
370
-1
6
ByLayer
10
163.0
20
171.280521935
30
0.0
11
164.0
21
171.903523704
31
0.0
0
LINE
5
112
100
AcDbEntity
100
AcDbLine
8
2
62
256
370
-1
6
ByLayer
10
164.0
20
171.903523704
30
0.0
11
165.0
21
172.504622963
31
0.0
0
LINE
5
113
100
AcDbEntity
100
AcDbLine
8
2
62
256
370
-1
6
ByLayer
10
165.0
20
172.504622963
30
0.0
11
166.0
21
173.083636611
31
0.0
0
LINE
5
114
100
AcDbEntity
100
AcDbLine
8
2
62
256
370
-1
6
ByLayer
10
166.0
20
173.083636611
30
0.0
11
167.0
21
173.640388276
31
0.0
0
LINE
5
115
100
AcDbEntity
100
AcDbLine
8
2
62
256
370
-1
6
ByLayer
10
167.0
20
173.640388276
30
0.0
11
168.0
21
174.174708365
31
0.0
0
LINE
5
116
100
AcDbEntity
100
AcDbLine
8
2
62
256
370
-1
6
ByLayer
10
168.0
20
174.174708365
30
0.0
11
169.0
21
174.68643412
31
0.0
0
LINE
5
117
100
AcDbEntity
100
AcDbLine
8
2
62
256
370
-1
6
ByLayer
10
169.0
20
174.68643412
30
0.0
11
170.0
21
175.175409663
31
0.0
0
LINE
5
118
100
AcDbEntity
100
AcDbLine
8
2
62
256
370
-1
6
ByLayer
10
170.0
20
175.175409663
30
0.0
11
171.0
21
175.641486048
31
0.0
0
LINE
5
119
100
AcDbEntity
100
AcDbLine
8
2
62
256
370
-1
6
ByLayer
10
171.0
20
175.641486048
30
0.0
11
172.0
21
176.084521304
31
0.0
0
LINE
5
120
100
AcDbEntity
100
AcDbLine
8
2
62
256
370
-1
6
ByLayer
10
172.0
20
176.084521304
30
0.0
11
173.0
21
176.504380477
31
0.0
0
LINE
5
121
100
AcDbEntity
100
AcDbLine
8
2
62
256
370
-1
6
ByLayer
10
173.0
20
176.504380477
30
0.0
11
174.0
21
176.900935675
31
0.0
0
LINE
5
122
100
AcDbEntity
100
AcDbLine
8
2
62
256
370
-1
6
ByLayer
10
174.0
20
176.900935675
30
0.0
11
175.0
21
177.274066103
31
0.0
0
LINE
5
123
100
AcDbEntity
100
AcDbLine
8
2
62
256
370
-1
6
ByLayer
10
175.0
20
177.274066103
30
0.0
11
176.0
21
177.623658102
31
0.0
0
LINE
5
124
100
AcDbEntity
100
AcDbLine
8
2
62
256
370
-1
6
ByLayer
10
176.0
20
177.623658102
30
0.0
11
177.0
21
177.949605183
31
0.0
0
LINE
5
125
100
AcDbEntity
100
AcDbLine
8
2
62
256
370
-1
6
ByLayer
10
177.0
20
177.949605183
30
0.0
11
178.0
21
178.251808059
31
0.0
0
LINE
5
126
100
AcDbEntity
100
AcDbLine
8
2
62
256
370
-1
6
ByLayer
10
178.0
20
178.251808059
30
0.0
11
179.0
21
178.530174676
31
0.0
0
LINE
5
127
100
AcDbEntity
100
AcDbLine
8
2
62
256
370
-1
6
ByLayer
10
179.0
20
178.530174676
30
0.0
11
180.0
21
178.784620241
31
0.0
0
LINE
5
128
100
AcDbEntity
100
AcDbLine
8
2
62
256
370
-1
6
ByLayer
10
180.0
20
178.784620241
30
0.0
11
181.0
21
179.015067248
31
0.0
0
LINE
5
129
100
AcDbEntity
100
AcDbLine
8
2
62
256
370
-1
6
ByLayer
10
181.0
20
179.015067248
30
0.0
11
182.0
21
179.221445499
31
0.0
0
LINE
5
130
100
AcDbEntity
100
AcDbLine
8
2
62
256
370
-1
6
ByLayer
10
182.0
20
179.221445499
30
0.0
11
183.0
21
179.403692131
31
0.0
0
LINE
5
131
100
AcDbEntity
100
AcDbLine
8
2
62
256
370
-1
6
ByLayer
10
183.0
20
179.403692131
30
0.0
11
184.0
21
179.56175163
31
0.0
0
LINE
5
132
100
AcDbEntity
100
AcDbLine
8
2
62
256
370
-1
6
ByLayer
10
184.0
20
179.56175163
30
0.0
11
185.0
21
179.695575847
31
0.0
0
LINE
5
133
100
AcDbEntity
100
AcDbLine
8
2
62
256
370
-1
6
ByLayer
10
185.0
20
179.695575847
30
0.0
11
186.0
21
179.805124021
31
0.0
0
LINE
5
134
100
AcDbEntity
100
AcDbLine
8
2
62
256
370
-1
6
ByLayer
10
186.0
20
179.805124021
30
0.0
11
187.0
21
179.89036278
31
0.0
0
LINE
5
135
100
AcDbEntity
100
AcDbLine
8
2
62
256
370
-1
6
ByLayer
10
187.0
20
179.89036278
30
0.0
11
188.0
21
179.951266162
31
0.0
0
LINE
5
136
100
AcDbEntity
100
AcDbLine
8
2
62
256
370
-1
6
ByLayer
10
188.0
20
179.951266162
30
0.0
11
189.0
21
179.987815613
31
0.0
0
LINE
5
137
100
AcDbEntity
100
AcDbLine
8
2
62
256
370
-1
6
ByLayer
10
189.0
20
179.987815613
30
0.0
11
190.0
21
180.0
31
0.0
0
LINE
5
138
100
AcDbEntity
100
AcDbLine
8
2
62
256
370
-1
6
ByLayer
10
190.0
20
180.0
30
0.0
11
191.0
21
179.987815613
31
0.0
0
LINE
5
139
100
AcDbEntity
100
AcDbLine
8
2
62
256
370
-1
6
ByLayer
10
191.0
20
179.987815613
30
0.0
11
192.0
21
179.951266162
31
0.0
0
LINE
5
140
100
AcDbEntity
100
AcDbLine
8
2
62
256
370
-1
6
ByLayer
10
192.0
20
179.951266162
30
0.0
11
193.0
21
179.89036278
31
0.0
0
LINE
5
141
100
AcDbEntity
100
AcDbLine
8
2
62
256
370
-1
6
ByLayer
10
193.0
20
179.89036278
30
0.0
11
194.0
21
179.805124021
31
0.0
0
LINE
5
142
100
AcDbEntity
100
AcDbLine
8
2
62
256
370
-1
6
ByLayer
10
194.0
20
179.805124021
30
0.0
11
195.0
21
179.695575847
31
0.0
0
LINE
5
143
100
AcDbEntity
100
AcDbLine
8
2
62
256
370
-1
6
ByLayer
10
195.0
20
179.695575847
30
0.0
11
196.0
21
179.56175163
31
0.0
0
LINE
5
144
100
AcDbEntity
100
AcDbLine
8
2
62
256
370
-1
6
ByLayer
10
196.0
20
179.56175163
30
0.0
11
197.0
21
179.403692131
31
0.0
0
LINE
5
145
100
AcDbEntity
100
AcDbLine
8
2
62
256
370
-1
6
ByLayer
10
197.0
20
179.403692131
30
0.0
11
198.0
21
179.221445499
31
0.0
0
LINE
5
146
100
AcDbEntity
100
AcDbLine
8
2
62
256
370
-1
6
ByLayer
10
198.0
20
179.221445499
30
0.0
11
199.0
21
179.015067248
31
0.0
0
LINE
5
147
100
AcDbEntity
100
AcDbLine
8
2
62
256
370
-1
6
ByLayer
10
199.0
20
179.015067248
30
0.0
11
200.0
21
178.784620241
31
0.0
0
LINE
5
148
100
AcDbEntity
100
AcDbLine
8
2
62
256
370
-1
6
ByLayer
10
200.0
20
178.784620241
30
0.0
11
201.0
21
178.530174676
31
0.0
0
LINE
5
149
100
AcDbEntity
100
AcDbLine
8
2
62
256
370
-1
6
ByLayer
10
201.0
20
178.530174676
30
0.0
11
202.0
21
178.251808059
31
0.0
0
LINE
5
150
100
AcDbEntity
100
AcDbLine
8
2
62
256
370
-1
6
ByLayer
10
202.0
20
178.251808059
30
0.0
11
203.0
21
177.949605183
31
0.0
0
LINE
5
151
100
AcDbEntity
100
AcDbLine
8
2
62
256
370
-1
6
ByLayer
10
203.0
20
177.949605183
30
0.0
11
204.0
21
177.623658102
31
0.0
0
LINE
5
152
100
AcDbEntity
100
AcDbLine
8
2
62
256
370
-1
6
ByLayer
10
204.0
20
177.623658102
30
0.0
11
205.0
21
177.274066103
31
0.0
0
LINE
5
153
100
AcDbEntity
100
AcDbLine
8
2
62
256
370
-1
6
ByLayer
10
205.0
20
177.274066103
30
0.0
11
206.0
21
176.900935675
31
0.0
0
LINE
5
154
100
AcDbEntity
100
AcDbLine
8
2
62
256
370
-1
6
ByLayer
10
206.0
20
176.900935675
30
0.0
11
207.0
21
176.504380477
31
0.0
0
LINE
5
155
100
AcDbEntity
100
AcDbLine
8
2
62
256
370
-1
6
ByLayer
10
207.0
20
176.504380477
30
0.0
11
208.0
21
176.084521304
31
0.0
0
LINE
5
156
100
AcDbEntity
100
AcDbLine
8
2
62
256
370
-1
6
ByLayer
10
208.0
20
176.084521304
30
0.0
11
209.0
21
175.641486048
31
0.0
0
LINE
5
157
100
AcDbEntity
100
AcDbLine
8
2
62
256
370
-1
6
ByLayer
10
209.0
20
175.641486048
30
0.0
11
210.0
21
175.175409663
31
0.0
0
LINE
5
158
100
AcDbEntity
100
AcDbLine
8
2
62
256
370
-1
6
ByLayer
10
210.0
20
175.175409663
30
0.0
11
211.0
21
174.68643412
31
0.0
0
LINE
5
159
100
AcDbEntity
100
AcDbLine
8
2
62
256
370
-1
6
ByLayer
10
211.0
20
174.68643412
30
0.0
11
212.0
21
174.174708365
31
0.0
0
LINE
5
160
100
AcDbEntity
100
AcDbLine
8
2
62
256
370
-1
6
ByLayer
10
212.0
20
174.174708365
30
0.0
11
213.0
21
173.640388276
31
0.0
0
LINE
5
161
100
AcDbEntity
100
AcDbLine
8
2
62
256
370
-1
6
ByLayer
10
213.0
20
173.640388276
30
0.0
11
214.0
21
173.083636611
31
0.0
0
LINE
5
162
100
AcDbEntity
100
AcDbLine
8
2
62
256
370
-1
6
ByLayer
10
214.0
20
173.083636611
30
0.0
11
215.0
21
172.504622963
31
0.0
0
LINE
5
163
100
AcDbEntity
100
AcDbLine
8
2
62
256
370
-1
6
ByLayer
10
215.0
20
172.504622963
30
0.0
11
216.0
21
171.903523704
31
0.0
0
LINE
5
164
100
AcDbEntity
100
AcDbLine
8
2
62
256
370
-1
6
ByLayer
10
216.0
20
171.903523704
30
0.0
11
217.0
21
171.280521935
31
0.0
0
LINE
5
165
100
AcDbEntity
100
AcDbLine
8
2
62
256
370
-1
6
ByLayer
10
217.0
20
171.280521935
30
0.0
11
218.0
21
170.635807429
31
0.0
0
LINE
5
166
100
AcDbEntity
100
AcDbLine
8
2
62
256
370
-1
6
ByLayer
10
218.0
20
170.635807429
30
0.0
11
219.0
21
169.969576571
31
0.0
0
LINE
5
167
100
AcDbEntity
100
AcDbLine
8
2
62
256
370
-1
6
ByLayer
10
219.0
20
169.969576571
30
0.0
11
220.0
21
169.282032303
31
0.0
0
LINE
5
168
100
AcDbEntity
100
AcDbLine
8
2
62
256
370
-1
6
ByLayer
10
220.0
20
169.282032303
30
0.0
11
221.0
21
168.573384056
31
0.0
0
LINE
5
169
100
AcDbEntity
100
AcDbLine
8
2
62
256
370
-1
6
ByLayer
10
221.0
20
168.573384056
30
0.0
11
222.0
21
167.843847692
31
0.0
0
LINE
5
170
100
AcDbEntity
100
AcDbLine
8
2
62
256
370
-1
6
ByLayer
10
222.0
20
167.843847692
30
0.0
11
223.0
21
167.093645436
31
0.0
0
LINE
5
171
100
AcDbEntity
100
AcDbLine
8
2
62
256
370
-1
6
ByLayer
10
223.0
20
167.093645436
30
0.0
11
224.0
21
166.323005804
31
0.0
0
LINE
5
172
100
AcDbEntity
100
AcDbLine
8
2
62
256
370
-1
6
ByLayer
10
224.0
20
166.323005804
30
0.0
11
225.0
21
165.532163543
31
0.0
0
LINE
5
173
100
AcDbEntity
100
AcDbLine
8
2
62
256
370
-1
6
ByLayer
10
225.0
20
165.532163543
30
0.0
11
226.0
21
164.72135955
31
0.0
0
LINE
5
174
100
AcDbEntity
100
AcDbLine
8
2
62
256
370
-1
6
ByLayer
10
226.0
20
164.72135955
30
0.0
11
227.0
21
163.890840804
31
0.0
0
LINE
5
175
100
AcDbEntity
100
AcDbLine
8
2
62
256
370
-1
6
ByLayer
10
227.0
20
163.890840804
30
0.0
11
228.0
21
163.040860288
31
0.0
0
LINE
5
176
100
AcDbEntity
100
AcDbLine
8
2
62
256
370
-1
6
ByLayer
10
228.0
20
163.040860288
30
0.0
11
229.0
21
162.171676917
31
0.0
0
LINE
5
177
100
AcDbEntity
100
AcDbLine
8
2
62
256
370
-1
6
ByLayer
10
229.0
20
162.171676917
30
0.0
11
230.0
21
161.283555449
31
0.0
0
LINE
5
178
100
AcDbEntity
100
AcDbLine
8
2
62
256
370
-1
6
ByLayer
10
230.0
20
161.283555449
30
0.0
11
231.0
21
160.376766418
31
0.0
0
LINE
5
179
100
AcDbEntity
100
AcDbLine
8
2
62
256
370
-1
6
ByLayer
10
231.0
20
160.376766418
30
0.0
11
232.0
21
159.451586038
31
0.0
0
LINE
5
180
100
AcDbEntity
100
AcDbLine
8
2
62
256
370
-1
6
ByLayer
10
232.0
20
159.451586038
30
0.0
11
233.0
21
158.508296129
31
0.0
0
LINE
5
181
100
AcDbEntity
100
AcDbLine
8
2
62
256
370
-1
6
ByLayer
10
233.0
20
158.508296129
30
0.0
11
234.0
21
157.547184027
31
0.0
0
LINE
5
182
100
AcDbEntity
100
AcDbLine
8
2
62
256
370
-1
6
ByLayer
10
234.0
20
157.547184027
30
0.0
11
235.0
21
156.568542495
31
0.0
0
LINE
5
183
100
AcDbEntity
100
AcDbLine
8
2
62
256
370
-1
6
ByLayer
10
235.0
20
156.568542495
30
0.0
11
236.0
21
155.572669637
31
0.0
0
LINE
5
184
100
AcDbEntity
100
AcDbLine
8
2
62
256
370
-1
6
ByLayer
10
236.0
20
155.572669637
30
0.0
11
237.0
21
154.559868805
31
0.0
0
LINE
5
185
100
AcDbEntity
100
AcDbLine
8
2
62
256
370
-1
6
ByLayer
10
237.0
20
154.559868805
30
0.0
11
238.0
21
153.530448509
31
0.0
0
LINE
5
186
100
AcDbEntity
100
AcDbLine
8
2
62
256
370
-1
6
ByLayer
10
238.0
20
153.530448509
30
0.0
11
239.0
21
152.484722319
31
0.0
0
LINE
5
187
100
AcDbEntity
100
AcDbLine
8
2
62
256
370
-1
6
ByLayer
10
239.0
20
152.484722319
30
0.0
11
240.0
21
151.423008775
31
0.0
0
LINE
5
188
100
AcDbEntity
100
AcDbLine
8
2
62
256
370
-1
6
ByLayer
10
240.0
20
151.423008775
30
0.0
11
241.0
21
150.345631284
31
0.0
0
LINE
5
189
100
AcDbEntity
100
AcDbLine
8
2
62
256
370
-1
6
ByLayer
10
241.0
20
150.345631284
30
0.0
11
242.0
21
149.252918026
31
0.0
0
LINE
5
190
100
AcDbEntity
100
AcDbLine
8
2
62
256
370
-1
6
ByLayer
10
242.0
20
149.252918026
30
0.0
11
243.0
21
148.145201852
31
0.0
0
LINE
5
191
100
AcDbEntity
100
AcDbLine
8
2
62
256
370
-1
6
ByLayer
10
243.0
20
148.145201852
30
0.0
11
244.0
21
147.022820183
31
0.0
0
LINE
5
192
100
AcDbEntity
100
AcDbLine
8
2
62
256
370
-1
6
ByLayer
10
244.0
20
147.022820183
30
0.0
11
245.0
21
145.886114908
31
0.0
0
LINE
5
193
100
AcDbEntity
100
AcDbLine
8
2
62
256
370
-1
6
ByLayer
10
245.0
20
145.886114908
30
0.0
11
246.0
21
144.735432278
31
0.0
0
LINE
5
194
100
AcDbEntity
100
AcDbLine
8
2
62
256
370
-1
6
ByLayer
10
246.0
20
144.735432278
30
0.0
11
247.0
21
143.571122801
31
0.0
0
LINE
5
195
100
AcDbEntity
100
AcDbLine
8
2
62
256
370
-1
6
ByLayer
10
247.0
20
143.571122801
30
0.0
11
248.0
21
142.393541139
31
0.0
0
LINE
5
196
100
AcDbEntity
100
AcDbLine
8
2
62
256
370
-1
6
ByLayer
10
248.0
20
142.393541139
30
0.0
11
249.0
21
141.203045993
31
0.0
0
LINE
5
197
100
AcDbEntity
100
AcDbLine
8
2
62
256
370
-1
6
ByLayer
10
249.0
20
141.203045993
30
0.0
11
250.0
21
140.0
31
0.0
0
LINE
5
198
100
AcDbEntity
100
AcDbLine
8
2
62
256
370
-1
6
ByLayer
10
250.0
20
140.0
30
0.0
11
251.0
21
138.78476962
31
0.0
0
LINE
5
199
100
AcDbEntity
100
AcDbLine
8
2
62
256
370
-1
6
ByLayer
10
251.0
20
138.78476962
30
0.0
11
252.0
21
137.557725023
31
0.0
0
LINE
5
200
100
AcDbEntity
100
AcDbLine
8
2
62
256
370
-1
6
ByLayer
10
252.0
20
137.557725023
30
0.0
11
253.0
21
136.319239979
31
0.0
0
LINE
5
201
100
AcDbEntity
100
AcDbLine
8
2
62
256
370
-1
6
ByLayer
10
253.0
20
136.319239979
30
0.0
11
254.0
21
135.069691743
31
0.0
0
LINE
5
202
100
AcDbEntity
100
AcDbLine
8
2
62
256
370
-1
6
ByLayer
10
254.0
20
135.069691743
30
0.0
11
255.0
21
133.809460939
31
0.0
0
LINE
5
203
100
AcDbEntity
100
AcDbLine
8
2
62
256
370
-1
6
ByLayer
10
255.0
20
133.809460939
30
0.0
11
256.0
21
132.538931446
31
0.0
0
LINE
5
204
100
AcDbEntity
100
AcDbLine
8
2
62
256
370
-1
6
ByLayer
10
256.0
20
132.538931446
30
0.0
11
257.0
21
131.258490279
31
0.0
0
LINE
5
205
100
AcDbEntity
100
AcDbLine
8
2
62
256
370
-1
6
ByLayer
10
257.0
20
131.258490279
30
0.0
11
258.0
21
129.968527473
31
0.0
0
LINE
5
206
100
AcDbEntity
100
AcDbLine
8
2
62
256
370
-1
6
ByLayer
10
258.0
20
129.968527473
30
0.0
11
259.0
21
128.669435964
31
0.0
0
LINE
5
207
100
AcDbEntity
100
AcDbLine
8
2
62
256
370
-1
6
ByLayer
10
259.0
20
128.669435964
30
0.0
11
260.0
21
127.361611466
31
0.0
0
LINE
5
208
100
AcDbEntity
100
AcDbLine
8
2
62
256
370
-1
6
ByLayer
10
260.0
20
127.361611466
30
0.0
11
261.0
21
126.045452357
31
0.0
0
LINE
5
209
100
AcDbEntity
100
AcDbLine
8
2
62
256
370
-1
6
ByLayer
10
261.0
20
126.045452357
30
0.0
11
262.0
21
124.72135955
31
0.0
0
LINE
5
210
100
AcDbEntity
100
AcDbLine
8
2
62
256
370
-1
6
ByLayer
10
262.0
20
124.72135955
30
0.0
11
263.0
21
123.389736378
31
0.0
0
LINE
5
211
100
AcDbEntity
100
AcDbLine
8
2
62
256
370
-1
6
ByLayer
10
263.0
20
123.389736378
30
0.0
11
264.0
21
122.050988465
31
0.0
0
LINE
5
212
100
AcDbEntity
100
AcDbLine
8
2
62
256
370
-1
6
ByLayer
10
264.0
20
122.050988465
30
0.0
11
265.0
21
120.705523608
31
0.0
0
LINE
5
213
100
AcDbEntity
100
AcDbLine
8
2
62
256
370
-1
6
ByLayer
10
265.0
20
120.705523608
30
0.0
11
266.0
21
119.353751648
31
0.0
0
LINE
5
214
100
AcDbEntity
100
AcDbLine
8
2
62
256
370
-1
6
ByLayer
10
266.0
20
119.353751648
30
0.0
11
267.0
21
117.996084348
31
0.0
0
LINE
5
215
100
AcDbEntity
100
AcDbLine
8
2
62
256
370
-1
6
ByLayer
10
267.0
20
117.996084348
30
0.0
11
268.0
21
116.632935265
31
0.0
0
LINE
5
216
100
AcDbEntity
100
AcDbLine
8
2
62
256
370
-1
6
ByLayer
10
268.0
20
116.632935265
30
0.0
11
269.0
21
115.26471963
31
0.0
0
LINE
5
217
100
AcDbEntity
100
AcDbLine
8
2
62
256
370
-1
6
ByLayer
10
269.0
20
115.26471963
30
0.0
11
270.0
21
113.891854213
31
0.0
0
LINE
5
218
100
AcDbEntity
100
AcDbLine
8
2
62
256
370
-1
6
ByLayer
10
270.0
20
113.891854213
30
0.0
11
271.0
21
112.514757203
31
0.0
0
LINE
5
219
100
AcDbEntity
100
AcDbLine
8
2
62
256
370
-1
6
ByLayer
10
271.0
20
112.514757203
30
0.0
11
272.0
21
111.133848077
31
0.0
0
LINE
5
220
100
AcDbEntity
100
AcDbLine
8
2
62
256
370
-1
6
ByLayer
10
272.0
20
111.133848077
30
0.0
11
273.0
21
109.749547472
31
0.0
0
LINE
5
221
100
AcDbEntity
100
AcDbLine
8
2
62
256
370
-1
6
ByLayer
10
273.0
20
109.749547472
30
0.0
11
274.0
21
108.362277061
31
0.0
0
LINE
5
222
100
AcDbEntity
100
AcDbLine
8
2
62
256
370
-1
6
ByLayer
10
274.0
20
108.362277061
30
0.0
11
275.0
21
106.97245942
31
0.0
0
LINE
5
223
100
AcDbEntity
100
AcDbLine
8
2
62
256
370
-1
6
ByLayer
10
275.0
20
106.97245942
30
0.0
11
276.0
21
105.5805179
31
0.0
0
LINE
5
224
100
AcDbEntity
100
AcDbLine
8
2
62
256
370
-1
6
ByLayer
10
276.0
20
105.5805179
30
0.0
11
277.0
21
104.186876499
31
0.0
0
LINE
5
225
100
AcDbEntity
100
AcDbLine
8
2
62
256
370
-1
6
ByLayer
10
277.0
20
104.186876499
30
0.0
11
278.0
21
102.791959736
31
0.0
0
LINE
5
226
100
AcDbEntity
100
AcDbLine
8
2
62
256
370
-1
6
ByLayer
10
278.0
20
102.791959736
30
0.0
11
279.0
21
101.396192515
31
0.0
0
LINE
5
227
100
AcDbEntity
100
AcDbLine
8
2
62
256
370
-1
6
ByLayer
10
279.0
20
101.396192515
30
0.0
11
280.0
21
100.0
31
0.0
0
LINE
5
228
100
AcDbEntity
100
AcDbLine
8
2
62
256
370
-1
6
ByLayer
10
280.0
20
100.0
30
0.0
11
281.0
21
98.603807485
31
0.0
0
LINE
5
229
100
AcDbEntity
100
AcDbLine
8
2
62
256
370
-1
6
ByLayer
10
281.0
20
98.603807485
30
0.0
11
282.0
21
97.2080402638
31
0.0
0
LINE
5
230
100
AcDbEntity
100
AcDbLine
8
2
62
256
370
-1
6
ByLayer
10
282.0
20
97.2080402638
30
0.0
11
283.0
21
95.8131235006
31
0.0
0
LINE
5
231
100
AcDbEntity
100
AcDbLine
8
2
62
256
370
-1
6
ByLayer
10
283.0
20
95.8131235006
30
0.0
11
284.0
21
94.4194821005
31
0.0
0
LINE
5
232
100
AcDbEntity
100
AcDbLine
8
2
62
256
370
-1
6
ByLayer
10
284.0
20
94.4194821005
30
0.0
11
285.0
21
93.0275405802
31
0.0
0
LINE
5
233
100
AcDbEntity
100
AcDbLine
8
2
62
256
370
-1
6
ByLayer
10
285.0
20
93.0275405802
30
0.0
11
286.0
21
91.6377229386
31
0.0
0
LINE
5
234
100
AcDbEntity
100
AcDbLine
8
2
62
256
370
-1
6
ByLayer
10
286.0
20
91.6377229386
30
0.0
11
287.0
21
90.2504525276
31
0.0
0
LINE
5
235
100
AcDbEntity
100
AcDbLine
8
2
62
256
370
-1
6
ByLayer
10
287.0
20
90.2504525276
30
0.0
11
288.0
21
88.8661519232
31
0.0
0
LINE
5
236
100
AcDbEntity
100
AcDbLine
8
2
62
256
370
-1
6
ByLayer
10
288.0
20
88.8661519232
30
0.0
11
289.0
21
87.4852427968
31
0.0
0
LINE
5
237
100
AcDbEntity
100
AcDbLine
8
2
62
256
370
-1
6
ByLayer
10
289.0
20
87.4852427968
30
0.0
11
290.0
21
86.1081457866
31
0.0
0
LINE
5
238
100
AcDbEntity
100
AcDbLine
8
2
62
256
370
-1
6
ByLayer
10
290.0
20
86.1081457866
30
0.0
11
291.0
21
84.7352803699
31
0.0
0
LINE
5
239
100
AcDbEntity
100
AcDbLine
8
2
62
256
370
-1
6
ByLayer
10
291.0
20
84.7352803699
30
0.0
11
292.0
21
83.3670647346
31
0.0
0
LINE
5
240
100
AcDbEntity
100
AcDbLine
8
2
62
256
370
-1
6
ByLayer
10
292.0
20
83.3670647346
30
0.0
11
293.0
21
82.0039156525
31
0.0
0
LINE
5
241
100
AcDbEntity
100
AcDbLine
8
2
62
256
370
-1
6
ByLayer
10
293.0
20
82.0039156525
30
0.0
11
294.0
21
80.646248352
31
0.0
0
LINE
5
242
100
AcDbEntity
100
AcDbLine
8
2
62
256
370
-1
6
ByLayer
10
294.0
20
80.646248352
30
0.0
11
295.0
21
79.2944763918
31
0.0
0
LINE
5
243
100
AcDbEntity
100
AcDbLine
8
2
62
256
370
-1
6
ByLayer
10
295.0
20
79.2944763918
30
0.0
11
296.0
21
77.9490115346
31
0.0
0
LINE
5
244
100
AcDbEntity
100
AcDbLine
8
2
62
256
370
-1
6
ByLayer
10
296.0
20
77.9490115346
30
0.0
11
297.0
21
76.6102636222
31
0.0
0
LINE
5
245
100
AcDbEntity
100
AcDbLine
8
2
62
256
370
-1
6
ByLayer
10
297.0
20
76.6102636222
30
0.0
11
298.0
21
75.27864045
31
0.0
0
LINE
5
246
100
AcDbEntity
100
AcDbLine
8
2
62
256
370
-1
6
ByLayer
10
298.0
20
75.27864045
30
0.0
11
299.0
21
73.9545476434
31
0.0
0
LINE
5
247
100
AcDbEntity
100
AcDbLine
8
2
62
256
370
-1
6
ByLayer
10
299.0
20
73.9545476434
30
0.0
11
300.0
21
72.6383885339
31
0.0
0
LINE
5
248
100
AcDbEntity
100
AcDbLine
8
2
62
256
370
-1
6
ByLayer
10
300.0
20
72.6383885339
30
0.0
11
301.0
21
71.3305640364
31
0.0
0
LINE
5
249
100
AcDbEntity
100
AcDbLine
8
2
62
256
370
-1
6
ByLayer
10
301.0
20
71.3305640364
30
0.0
11
302.0
21
70.0314725267
31
0.0
0
LINE
5
250
100
AcDbEntity
100
AcDbLine
8
2
62
256
370
-1
6
ByLayer
10
302.0
20
70.0314725267
30
0.0
11
303.0
21
68.7415097209
31
0.0
0
LINE
5
251
100
AcDbEntity
100
AcDbLine
8
2
62
256
370
-1
6
ByLayer
10
303.0
20
68.7415097209
30
0.0
11
304.0
21
67.4610685539
31
0.0
0
LINE
5
252
100
AcDbEntity
100
AcDbLine
8
2
62
256
370
-1
6
ByLayer
10
304.0
20
67.4610685539
30
0.0
11
305.0
21
66.1905390607
31
0.0
0
LINE
5
253
100
AcDbEntity
100
AcDbLine
8
2
62
256
370
-1
6
ByLayer
10
305.0
20
66.1905390607
30
0.0
11
306.0
21
64.9303082569
31
0.0
0
LINE
5
254
100
AcDbEntity
100
AcDbLine
8
2
62
256
370
-1
6
ByLayer
10
306.0
20
64.9303082569
30
0.0
11
307.0
21
63.6807600208
31
0.0
0
LINE
5
255
100
AcDbEntity
100
AcDbLine
8
2
62
256
370
-1
6
ByLayer
10
307.0
20
63.6807600208
30
0.0
11
308.0
21
62.4422749771
31
0.0
0
LINE
5
256
100
AcDbEntity
100
AcDbLine
8
2
62
256
370
-1
6
ByLayer
10
308.0
20
62.4422749771
30
0.0
11
309.0
21
61.2152303803
31
0.0
0
LINE
5
257
100
AcDbEntity
100
AcDbLine
8
2
62
256
370
-1
6
ByLayer
10
309.0
20
61.2152303803
30
0.0
11
310.0
21
60.0
31
0.0
0
LINE
5
258
100
AcDbEntity
100
AcDbLine
8
2
62
256
370
-1
6
ByLayer
10
310.0
20
60.0
30
0.0
11
311.0
21
58.7969540072
31
0.0
0
LINE
5
259
100
AcDbEntity
100
AcDbLine
8
2
62
256
370
-1
6
ByLayer
10
311.0
20
58.7969540072
30
0.0
11
312.0
21
57.6064588613
31
0.0
0
LINE
5
260
100
AcDbEntity
100
AcDbLine
8
2
62
256
370
-1
6
ByLayer
10
312.0
20
57.6064588613
30
0.0
11
313.0
21
56.4288771988
31
0.0
0
LINE
5
261
100
AcDbEntity
100
AcDbLine
8
2
62
256
370
-1
6
ByLayer
10
313.0
20
56.4288771988
30
0.0
11
314.0
21
55.2645677223
31
0.0
0
LINE
5
262
100
AcDbEntity
100
AcDbLine
8
2
62
256
370
-1
6
ByLayer
10
314.0
20
55.2645677223
30
0.0
11
315.0
21
54.1138850919
31
0.0
0
LINE
5
263
100
AcDbEntity
100
AcDbLine
8
2
62
256
370
-1
6
ByLayer
10
315.0
20
54.1138850919
30
0.0
11
316.0
21
52.9771798166
31
0.0
0
LINE
5
264
100
AcDbEntity
100
AcDbLine
8
2
62
256
370
-1
6
ByLayer
10
316.0
20
52.9771798166
30
0.0
11
317.0
21
51.8547981478
31
0.0
0
LINE
5
265
100
AcDbEntity
100
AcDbLine
8
2
62
256
370
-1
6
ByLayer
10
317.0
20
51.8547981478
30
0.0
11
318.0
21
50.7470819739
31
0.0
0
LINE
5
266
100
AcDbEntity
100
AcDbLine
8
2
62
256
370
-1
6
ByLayer
10
318.0
20
50.7470819739
30
0.0
11
319.0
21
49.654368716
31
0.0
0
LINE
5
267
100
AcDbEntity
100
AcDbLine
8
2
62
256
370
-1
6
ByLayer
10
319.0
20
49.654368716
30
0.0
11
320.0
21
48.5769912251
31
0.0
0
LINE
5
268
100
AcDbEntity
100
AcDbLine
8
2
62
256
370
-1
6
ByLayer
10
320.0
20
48.5769912251
30
0.0
11
321.0
21
47.5152776808
31
0.0
0
LINE
5
269
100
AcDbEntity
100
AcDbLine
8
2
62
256
370
-1
6
ByLayer
10
321.0
20
47.5152776808
30
0.0
11
322.0
21
46.4695514913
31
0.0
0
LINE
5
270
100
AcDbEntity
100
AcDbLine
8
2
62
256
370
-1
6
ByLayer
10
322.0
20
46.4695514913
30
0.0
11
323.0
21
45.440131195
31
0.0
0
LINE
5
271
100
AcDbEntity
100
AcDbLine
8
2
62
256
370
-1
6
ByLayer
10
323.0
20
45.440131195
30
0.0
11
324.0
21
44.4273303633
31
0.0
0
LINE
5
272
100
AcDbEntity
100
AcDbLine
8
2
62
256
370
-1
6
ByLayer
10
324.0
20
44.4273303633
30
0.0
11
325.0
21
43.4314575051
31
0.0
0
LINE
5
273
100
AcDbEntity
100
AcDbLine
8
2
62
256
370
-1
6
ByLayer
10
325.0
20
43.4314575051
30
0.0
11
326.0
21
42.4528159729
31
0.0
0
LINE
5
274
100
AcDbEntity
100
AcDbLine
8
2
62
256
370
-1
6
ByLayer
10
326.0
20
42.4528159729
30
0.0
11
327.0
21
41.4917038705
31
0.0
0
LINE
5
275
100
AcDbEntity
100
AcDbLine
8
2
62
256
370
-1
6
ByLayer
10
327.0
20
41.4917038705
30
0.0
11
328.0
21
40.5484139618
31
0.0
0
LINE
5
276
100
AcDbEntity
100
AcDbLine
8
2
62
256
370
-1
6
ByLayer
10
328.0
20
40.5484139618
30
0.0
11
329.0
21
39.6232335822
31
0.0
0
LINE
5
277
100
AcDbEntity
100
AcDbLine
8
2
62
256
370
-1
6
ByLayer
10
329.0
20
39.6232335822
30
0.0
11
330.0
21
38.7164445505
31
0.0
0
LINE
5
278
100
AcDbEntity
100
AcDbLine
8
2
62
256
370
-1
6
ByLayer
10
330.0
20
38.7164445505
30
0.0
11
331.0
21
37.8283230834
31
0.0
0
LINE
5
279
100
AcDbEntity
100
AcDbLine
8
2
62
256
370
-1
6
ByLayer
10
331.0
20
37.8283230834
30
0.0
11
332.0
21
36.9591397115
31
0.0
0
LINE
5
280
100
AcDbEntity
100
AcDbLine
8
2
62
256
370
-1
6
ByLayer
10
332.0
20
36.9591397115
30
0.0
11
333.0
21
36.1091591962
31
0.0
0
LINE
5
281
100
AcDbEntity
100
AcDbLine
8
2
62
256
370
-1
6
ByLayer
10
333.0
20
36.1091591962
30
0.0
11
334.0
21
35.27864045
31
0.0
0
LINE
5
282
100
AcDbEntity
100
AcDbLine
8
2
62
256
370
-1
6
ByLayer
10
334.0
20
35.27864045
30
0.0
11
335.0
21
34.4678364569
31
0.0
0
LINE
5
283
100
AcDbEntity
100
AcDbLine
8
2
62
256
370
-1
6
ByLayer
10
335.0
20
34.4678364569
30
0.0
11
336.0
21
33.6769941956
31
0.0
0
LINE
5
284
100
AcDbEntity
100
AcDbLine
8
2
62
256
370
-1
6
ByLayer
10
336.0
20
33.6769941956
30
0.0
11
337.0
21
32.9063545644
31
0.0
0
LINE
5
285
100
AcDbEntity
100
AcDbLine
8
2
62
256
370
-1
6
ByLayer
10
337.0
20
32.9063545644
30
0.0
11
338.0
21
32.1561523075
31
0.0
0
LINE
5
286
100
AcDbEntity
100
AcDbLine
8
2
62
256
370
-1
6
ByLayer
10
338.0
20
32.1561523075
30
0.0
11
339.0
21
31.4266159438
31
0.0
0
LINE
5
287
100
AcDbEntity
100
AcDbLine
8
2
62
256
370
-1
6
ByLayer
10
339.0
20
31.4266159438
30
0.0
11
340.0
21
30.7179676972
31
0.0
0
LINE
5
288
100
AcDbEntity
100
AcDbLine
8
2
62
256
370
-1
6
ByLayer
10
340.0
20
30.7179676972
30
0.0
11
341.0
21
30.0304234288
31
0.0
0
LINE
5
289
100
AcDbEntity
100
AcDbLine
8
2
62
256
370
-1
6
ByLayer
10
341.0
20
30.0304234288
30
0.0
11
342.0
21
29.3641925713
31
0.0
0
LINE
5
290
100
AcDbEntity
100
AcDbLine
8
2
62
256
370
-1
6
ByLayer
10
342.0
20
29.3641925713
30
0.0
11
343.0
21
28.7194780649
31
0.0
0
LINE
5
291
100
AcDbEntity
100
AcDbLine
8
2
62
256
370
-1
6
ByLayer
10
343.0
20
28.7194780649
30
0.0
11
344.0
21
28.0964762961
31
0.0
0
LINE
5
292
100
AcDbEntity
100
AcDbLine
8
2
62
256
370
-1
6
ByLayer
10
344.0
20
28.0964762961
30
0.0
11
345.0
21
27.4953770371
31
0.0
0
LINE
5
293
100
AcDbEntity
100
AcDbLine
8
2
62
256
370
-1
6
ByLayer
10
345.0
20
27.4953770371
30
0.0
11
346.0
21
26.9163633886
31
0.0
0
LINE
5
294
100
AcDbEntity
100
AcDbLine
8
2
62
256
370
-1
6
ByLayer
10
346.0
20
26.9163633886
30
0.0
11
347.0
21
26.3596117238
31
0.0
0
LINE
5
295
100
AcDbEntity
100
AcDbLine
8
2
62
256
370
-1
6
ByLayer
10
347.0
20
26.3596117238
30
0.0
11
348.0
21
25.8252916347
31
0.0
0
LINE
5
296
100
AcDbEntity
100
AcDbLine
8
2
62
256
370
-1
6
ByLayer
10
348.0
20
25.8252916347
30
0.0
11
349.0
21
25.3135658802
31
0.0
0
LINE
5
297
100
AcDbEntity
100
AcDbLine
8
2
62
256
370
-1
6
ByLayer
10
349.0
20
25.3135658802
30
0.0
11
350.0
21
24.8245903371
31
0.0
0
LINE
5
298
100
AcDbEntity
100
AcDbLine
8
2
62
256
370
-1
6
ByLayer
10
350.0
20
24.8245903371
30
0.0
11
351.0
21
24.3585139521
31
0.0
0
LINE
5
299
100
AcDbEntity
100
AcDbLine
8
2
62
256
370
-1
6
ByLayer
10
351.0
20
24.3585139521
30
0.0
11
352.0
21
23.9154786964
31
0.0
0
LINE
5
300
100
AcDbEntity
100
AcDbLine
8
2
62
256
370
-1
6
ByLayer
10
352.0
20
23.9154786964
30
0.0
11
353.0
21
23.495619523
31
0.0
0
LINE
5
301
100
AcDbEntity
100
AcDbLine
8
2
62
256
370
-1
6
ByLayer
10
353.0
20
23.495619523
30
0.0
11
354.0
21
23.0990643249
31
0.0
0
LINE
5
302
100
AcDbEntity
100
AcDbLine
8
2
62
256
370
-1
6
ByLayer
10
354.0
20
23.0990643249
30
0.0
11
355.0
21
22.7259338969
31
0.0
0
LINE
5
303
100
AcDbEntity
100
AcDbLine
8
2
62
256
370
-1
6
ByLayer
10
355.0
20
22.7259338969
30
0.0
11
356.0
21
22.3763418979
31
0.0
0
LINE
5
304
100
AcDbEntity
100
AcDbLine
8
2
62
256
370
-1
6
ByLayer
10
356.0
20
22.3763418979
30
0.0
11
357.0
21
22.0503948172
31
0.0
0
LINE
5
305
100
AcDbEntity
100
AcDbLine
8
2
62
256
370
-1
6
ByLayer
10
357.0
20
22.0503948172
30
0.0
11
358.0
21
21.7481919413
31
0.0
0
LINE
5
306
100
AcDbEntity
100
AcDbLine
8
2
62
256
370
-1
6
ByLayer
10
358.0
20
21.7481919413
30
0.0
11
359.0
21
21.4698253242
31
0.0
0
LINE
5
307
100
AcDbEntity
100
AcDbLine
8
2
62
256
370
-1
6
ByLayer
10
359.0
20
21.4698253242
30
0.0
11
360.0
21
21.215379759
31
0.0
0
LINE
5
308
100
AcDbEntity
100
AcDbLine
8
2
62
256
370
-1
6
ByLayer
10
360.0
20
21.215379759
30
0.0
11
361.0
21
20.9849327524
31
0.0
0
LINE
5
309
100
AcDbEntity
100
AcDbLine
8
2
62
256
370
-1
6
ByLayer
10
361.0
20
20.9849327524
30
0.0
11
362.0
21
20.7785545007
31
0.0
0
LINE
5
310
100
AcDbEntity
100
AcDbLine
8
2
62
256
370
-1
6
ByLayer
10
362.0
20
20.7785545007
30
0.0
11
363.0
21
20.5963078687
31
0.0
0
LINE
5
311
100
AcDbEntity
100
AcDbLine
8
2
62
256
370
-1
6
ByLayer
10
363.0
20
20.5963078687
30
0.0
11
364.0
21
20.4382483705
31
0.0
0
LINE
5
312
100
AcDbEntity
100
AcDbLine
8
2
62
256
370
-1
6
ByLayer
10
364.0
20
20.4382483705
30
0.0
11
365.0
21
20.3044241527
31
0.0
0
LINE
5
313
100
AcDbEntity
100
AcDbLine
8
2
62
256
370
-1
6
ByLayer
10
365.0
20
20.3044241527
30
0.0
11
366.0
21
20.1948759792
31
0.0
0
LINE
5
314
100
AcDbEntity
100
AcDbLine
8
2
62
256
370
-1
6
ByLayer
10
366.0
20
20.1948759792
30
0.0
11
367.0
21
20.1096372196
31
0.0
0
LINE
5
315
100
AcDbEntity
100
AcDbLine
8
2
62
256
370
-1
6
ByLayer
10
367.0
20
20.1096372196
30
0.0
11
368.0
21
20.0487338385
31
0.0
0
LINE
5
316
100
AcDbEntity
100
AcDbLine
8
2
62
256
370
-1
6
ByLayer
10
368.0
20
20.0487338385
30
0.0
11
369.0
21
20.0121843875
31
0.0
0
LINE
5
317
100
AcDbEntity
100
AcDbLine
8
2
62
256
370
-1
6
ByLayer
10
369.0
20
20.0121843875
30
0.0
11
370.0
21
20.0
31
0.0
0
LINE
5
318
100
AcDbEntity
100
AcDbLine
8
2
62
256
370
-1
6
ByLayer
10
370.0
20
20.0
30
0.0
11
371.0
21
20.0121843875
31
0.0
0
LINE
5
319
100
AcDbEntity
100
AcDbLine
8
2
62
256
370
-1
6
ByLayer
10
371.0
20
20.0121843875
30
0.0
11
372.0
21
20.0487338385
31
0.0
0
LINE
5
320
100
AcDbEntity
100
AcDbLine
8
2
62
256
370
-1
6
ByLayer
10
372.0
20
20.0487338385
30
0.0
11
373.0
21
20.1096372196
31
0.0
0
LINE
5
321
100
AcDbEntity
100
AcDbLine
8
2
62
256
370
-1
6
ByLayer
10
373.0
20
20.1096372196
30
0.0
11
374.0
21
20.1948759792
31
0.0
0
LINE
5
322
100
AcDbEntity
100
AcDbLine
8
2
62
256
370
-1
6
ByLayer
10
374.0
20
20.1948759792
30
0.0
11
375.0
21
20.3044241527
31
0.0
0
LINE
5
323
100
AcDbEntity
100
AcDbLine
8
2
62
256
370
-1
6
ByLayer
10
375.0
20
20.3044241527
30
0.0
11
376.0
21
20.4382483705
31
0.0
0
LINE
5
324
100
AcDbEntity
100
AcDbLine
8
2
62
256
370
-1
6
ByLayer
10
376.0
20
20.4382483705
30
0.0
11
377.0
21
20.5963078687
31
0.0
0
LINE
5
325
100
AcDbEntity
100
AcDbLine
8
2
62
256
370
-1
6
ByLayer
10
377.0
20
20.5963078687
30
0.0
11
378.0
21
20.7785545007
31
0.0
0
LINE
5
326
100
AcDbEntity
100
AcDbLine
8
2
62
256
370
-1
6
ByLayer
10
378.0
20
20.7785545007
30
0.0
11
379.0
21
20.9849327524
31
0.0
0
LINE
5
327
100
AcDbEntity
100
AcDbLine
8
2
62
256
370
-1
6
ByLayer
10
379.0
20
20.9849327524
30
0.0
11
380.0
21
21.215379759
31
0.0
0
LINE
5
328
100
AcDbEntity
100
AcDbLine
8
2
62
256
370
-1
6
ByLayer
10
380.0
20
21.215379759
30
0.0
11
381.0
21
21.4698253242
31
0.0
0
LINE
5
329
100
AcDbEntity
100
AcDbLine
8
2
62
256
370
-1
6
ByLayer
10
381.0
20
21.4698253242
30
0.0
11
382.0
21
21.7481919413
31
0.0
0
LINE
5
330
100
AcDbEntity
100
AcDbLine
8
2
62
256
370
-1
6
ByLayer
10
382.0
20
21.7481919413
30
0.0
11
383.0
21
22.0503948172
31
0.0
0
LINE
5
331
100
AcDbEntity
100
AcDbLine
8
2
62
256
370
-1
6
ByLayer
10
383.0
20
22.0503948172
30
0.0
11
384.0
21
22.3763418979
31
0.0
0
LINE
5
332
100
AcDbEntity
100
AcDbLine
8
2
62
256
370
-1
6
ByLayer
10
384.0
20
22.3763418979
30
0.0
11
385.0
21
22.7259338969
31
0.0
0
LINE
5
333
100
AcDbEntity
100
AcDbLine
8
2
62
256
370
-1
6
ByLayer
10
385.0
20
22.7259338969
30
0.0
11
386.0
21
23.0990643249
31
0.0
0
LINE
5
334
100
AcDbEntity
100
AcDbLine
8
2
62
256
370
-1
6
ByLayer
10
386.0
20
23.0990643249
30
0.0
11
387.0
21
23.495619523
31
0.0
0
LINE
5
335
100
AcDbEntity
100
AcDbLine
8
2
62
256
370
-1
6
ByLayer
10
387.0
20
23.495619523
30
0.0
11
388.0
21
23.9154786964
31
0.0
0
LINE
5
336
100
AcDbEntity
100
AcDbLine
8
2
62
256
370
-1
6
ByLayer
10
388.0
20
23.9154786964
30
0.0
11
389.0
21
24.3585139521
31
0.0
0
LINE
5
337
100
AcDbEntity
100
AcDbLine
8
2
62
256
370
-1
6
ByLayer
10
389.0
20
24.3585139521
30
0.0
11
390.0
21
24.8245903371
31
0.0
0
LINE
5
338
100
AcDbEntity
100
AcDbLine
8
2
62
256
370
-1
6
ByLayer
10
390.0
20
24.8245903371
30
0.0
11
391.0
21
25.3135658802
31
0.0
0
LINE
5
339
100
AcDbEntity
100
AcDbLine
8
2
62
256
370
-1
6
ByLayer
10
391.0
20
25.3135658802
30
0.0
11
392.0
21
25.8252916347
31
0.0
0
LINE
5
340
100
AcDbEntity
100
AcDbLine
8
2
62
256
370
-1
6
ByLayer
10
392.0
20
25.8252916347
30
0.0
11
393.0
21
26.3596117238
31
0.0
0
LINE
5
341
100
AcDbEntity
100
AcDbLine
8
2
62
256
370
-1
6
ByLayer
10
393.0
20
26.3596117238
30
0.0
11
394.0
21
26.9163633886
31
0.0
0
LINE
5
342
100
AcDbEntity
100
AcDbLine
8
2
62
256
370
-1
6
ByLayer
10
394.0
20
26.9163633886
30
0.0
11
395.0
21
27.4953770371
31
0.0
0
LINE
5
343
100
AcDbEntity
100
AcDbLine
8
2
62
256
370
-1
6
ByLayer
10
395.0
20
27.4953770371
30
0.0
11
396.0
21
28.0964762961
31
0.0
0
LINE
5
344
100
AcDbEntity
100
AcDbLine
8
2
62
256
370
-1
6
ByLayer
10
396.0
20
28.0964762961
30
0.0
11
397.0
21
28.7194780649
31
0.0
0
LINE
5
345
100
AcDbEntity
100
AcDbLine
8
2
62
256
370
-1
6
ByLayer
10
397.0
20
28.7194780649
30
0.0
11
398.0
21
29.3641925713
31
0.0
0
LINE
5
346
100
AcDbEntity
100
AcDbLine
8
2
62
256
370
-1
6
ByLayer
10
398.0
20
29.3641925713
30
0.0
11
399.0
21
30.0304234288
31
0.0
0
LINE
5
347
100
AcDbEntity
100
AcDbLine
8
2
62
256
370
-1
6
ByLayer
10
399.0
20
30.0304234288
30
0.0
11
400.0
21
30.7179676972
31
0.0
0
LINE
5
348
100
AcDbEntity
100
AcDbLine
8
2
62
256
370
-1
6
ByLayer
10
400.0
20
30.7179676972
30
0.0
11
401.0
21
31.4266159438
31
0.0
0
LINE
5
349
100
AcDbEntity
100
AcDbLine
8
2
62
256
370
-1
6
ByLayer
10
401.0
20
31.4266159438
30
0.0
11
402.0
21
32.1561523075
31
0.0
0
LINE
5
350
100
AcDbEntity
100
AcDbLine
8
2
62
256
370
-1
6
ByLayer
10
402.0
20
32.1561523075
30
0.0
11
403.0
21
32.9063545644
31
0.0
0
LINE
5
351
100
AcDbEntity
100
AcDbLine
8
2
62
256
370
-1
6
ByLayer
10
403.0
20
32.9063545644
30
0.0
11
404.0
21
33.6769941956
31
0.0
0
LINE
5
352
100
AcDbEntity
100
AcDbLine
8
2
62
256
370
-1
6
ByLayer
10
404.0
20
33.6769941956
30
0.0
11
405.0
21
34.4678364569
31
0.0
0
LINE
5
353
100
AcDbEntity
100
AcDbLine
8
2
62
256
370
-1
6
ByLayer
10
405.0
20
34.4678364569
30
0.0
11
406.0
21
35.27864045
31
0.0
0
LINE
5
354
100
AcDbEntity
100
AcDbLine
8
2
62
256
370
-1
6
ByLayer
10
406.0
20
35.27864045
30
0.0
11
407.0
21
36.1091591962
31
0.0
0
LINE
5
355
100
AcDbEntity
100
AcDbLine
8
2
62
256
370
-1
6
ByLayer
10
407.0
20
36.1091591962
30
0.0
11
408.0
21
36.9591397115
31
0.0
0
LINE
5
356
100
AcDbEntity
100
AcDbLine
8
2
62
256
370
-1
6
ByLayer
10
408.0
20
36.9591397115
30
0.0
11
409.0
21
37.8283230834
31
0.0
0
LINE
5
357
100
AcDbEntity
100
AcDbLine
8
2
62
256
370
-1
6
ByLayer
10
409.0
20
37.8283230834
30
0.0
11
410.0
21
38.7164445505
31
0.0
0
LINE
5
358
100
AcDbEntity
100
AcDbLine
8
2
62
256
370
-1
6
ByLayer
10
410.0
20
38.7164445505
30
0.0
11
411.0
21
39.6232335822
31
0.0
0
LINE
5
359
100
AcDbEntity
100
AcDbLine
8
2
62
256
370
-1
6
ByLayer
10
411.0
20
39.6232335822
30
0.0
11
412.0
21
40.5484139618
31
0.0
0
LINE
5
360
100
AcDbEntity
100
AcDbLine
8
2
62
256
370
-1
6
ByLayer
10
412.0
20
40.5484139618
30
0.0
11
413.0
21
41.4917038705
31
0.0
0
LINE
5
361
100
AcDbEntity
100
AcDbLine
8
2
62
256
370
-1
6
ByLayer
10
413.0
20
41.4917038705
30
0.0
11
414.0
21
42.4528159729
31
0.0
0
LINE
5
362
100
AcDbEntity
100
AcDbLine
8
2
62
256
370
-1
6
ByLayer
10
414.0
20
42.4528159729
30
0.0
11
415.0
21
43.4314575051
31
0.0
0
LINE
5
363
100
AcDbEntity
100
AcDbLine
8
2
62
256
370
-1
6
ByLayer
10
415.0
20
43.4314575051
30
0.0
11
416.0
21
44.4273303633
31
0.0
0
LINE
5
364
100
AcDbEntity
100
AcDbLine
8
2
62
256
370
-1
6
ByLayer
10
416.0
20
44.4273303633
30
0.0
11
417.0
21
45.440131195
31
0.0
0
LINE
5
365
100
AcDbEntity
100
AcDbLine
8
2
62
256
370
-1
6
ByLayer
10
417.0
20
45.440131195
30
0.0
11
418.0
21
46.4695514913
31
0.0
0
LINE
5
366
100
AcDbEntity
100
AcDbLine
8
2
62
256
370
-1
6
ByLayer
10
418.0
20
46.4695514913
30
0.0
11
419.0
21
47.5152776808
31
0.0
0
LINE
5
367
100
AcDbEntity
100
AcDbLine
8
2
62
256
370
-1
6
ByLayer
10
419.0
20
47.5152776808
30
0.0
11
420.0
21
48.5769912251
31
0.0
0
LINE
5
368
100
AcDbEntity
100
AcDbLine
8
2
62
256
370
-1
6
ByLayer
10
420.0
20
48.5769912251
30
0.0
11
421.0
21
49.654368716
31
0.0
0
LINE
5
369
100
AcDbEntity
100
AcDbLine
8
2
62
256
370
-1
6
ByLayer
10
421.0
20
49.654368716
30
0.0
11
422.0
21
50.7470819739
31
0.0
0
LINE
5
370
100
AcDbEntity
100
AcDbLine
8
2
62
256
370
-1
6
ByLayer
10
422.0
20
50.7470819739
30
0.0
11
423.0
21
51.8547981478
31
0.0
0
LINE
5
371
100
AcDbEntity
100
AcDbLine
8
2
62
256
370
-1
6
ByLayer
10
423.0
20
51.8547981478
30
0.0
11
424.0
21
52.9771798166
31
0.0
0
LINE
5
372
100
AcDbEntity
100
AcDbLine
8
2
62
256
370
-1
6
ByLayer
10
424.0
20
52.9771798166
30
0.0
11
425.0
21
54.1138850919
31
0.0
0
LINE
5
373
100
AcDbEntity
100
AcDbLine
8
2
62
256
370
-1
6
ByLayer
10
425.0
20
54.1138850919
30
0.0
11
426.0
21
55.2645677223
31
0.0
0
LINE
5
374
100
AcDbEntity
100
AcDbLine
8
2
62
256
370
-1
6
ByLayer
10
426.0
20
55.2645677223
30
0.0
11
427.0
21
56.4288771988
31
0.0
0
LINE
5
375
100
AcDbEntity
100
AcDbLine
8
2
62
256
370
-1
6
ByLayer
10
427.0
20
56.4288771988
30
0.0
11
428.0
21
57.6064588613
31
0.0
0
LINE
5
376
100
AcDbEntity
100
AcDbLine
8
2
62
256
370
-1
6
ByLayer
10
428.0
20
57.6064588613
30
0.0
11
429.0
21
58.7969540072
31
0.0
0
LINE
5
377
100
AcDbEntity
100
AcDbLine
8
2
62
256
370
-1
6
ByLayer
10
429.0
20
58.7969540072
30
0.0
11
430.0
21
60.0
31
0.0
0
LINE
5
378
100
AcDbEntity
100
AcDbLine
8
2
62
256
370
-1
6
ByLayer
10
430.0
20
60.0
30
0.0
11
431.0
21
61.2152303803
31
0.0
0
LINE
5
379
100
AcDbEntity
100
AcDbLine
8
2
62
256
370
-1
6
ByLayer
10
431.0
20
61.2152303803
30
0.0
11
432.0
21
62.4422749771
31
0.0
0
LINE
5
380
100
AcDbEntity
100
AcDbLine
8
2
62
256
370
-1
6
ByLayer
10
432.0
20
62.4422749771
30
0.0
11
433.0
21
63.6807600208
31
0.0
0
LINE
5
381
100
AcDbEntity
100
AcDbLine
8
2
62
256
370
-1
6
ByLayer
10
433.0
20
63.6807600208
30
0.0
11
434.0
21
64.9303082569
31
0.0
0
LINE
5
382
100
AcDbEntity
100
AcDbLine
8
2
62
256
370
-1
6
ByLayer
10
434.0
20
64.9303082569
30
0.0
11
435.0
21
66.1905390607
31
0.0
0
LINE
5
383
100
AcDbEntity
100
AcDbLine
8
2
62
256
370
-1
6
ByLayer
10
435.0
20
66.1905390607
30
0.0
11
436.0
21
67.4610685539
31
0.0
0
LINE
5
384
100
AcDbEntity
100
AcDbLine
8
2
62
256
370
-1
6
ByLayer
10
436.0
20
67.4610685539
30
0.0
11
437.0
21
68.7415097209
31
0.0
0
LINE
5
385
100
AcDbEntity
100
AcDbLine
8
2
62
256
370
-1
6
ByLayer
10
437.0
20
68.7415097209
30
0.0
11
438.0
21
70.0314725267
31
0.0
0
LINE
5
386
100
AcDbEntity
100
AcDbLine
8
2
62
256
370
-1
6
ByLayer
10
438.0
20
70.0314725267
30
0.0
11
439.0
21
71.3305640364
31
0.0
0
LINE
5
387
100
AcDbEntity
100
AcDbLine
8
2
62
256
370
-1
6
ByLayer
10
439.0
20
71.3305640364
30
0.0
11
440.0
21
72.6383885339
31
0.0
0
LINE
5
388
100
AcDbEntity
100
AcDbLine
8
2
62
256
370
-1
6
ByLayer
10
440.0
20
72.6383885339
30
0.0
11
441.0
21
73.9545476434
31
0.0
0
LINE
5
389
100
AcDbEntity
100
AcDbLine
8
2
62
256
370
-1
6
ByLayer
10
441.0
20
73.9545476434
30
0.0
11
442.0
21
75.27864045
31
0.0
0
LINE
5
390
100
AcDbEntity
100
AcDbLine
8
2
62
256
370
-1
6
ByLayer
10
442.0
20
75.27864045
30
0.0
11
443.0
21
76.6102636222
31
0.0
0
LINE
5
391
100
AcDbEntity
100
AcDbLine
8
2
62
256
370
-1
6
ByLayer
10
443.0
20
76.6102636222
30
0.0
11
444.0
21
77.9490115346
31
0.0
0
LINE
5
392
100
AcDbEntity
100
AcDbLine
8
2
62
256
370
-1
6
ByLayer
10
444.0
20
77.9490115346
30
0.0
11
445.0
21
79.2944763918
31
0.0
0
LINE
5
393
100
AcDbEntity
100
AcDbLine
8
2
62
256
370
-1
6
ByLayer
10
445.0
20
79.2944763918
30
0.0
11
446.0
21
80.646248352
31
0.0
0
LINE
5
394
100
AcDbEntity
100
AcDbLine
8
2
62
256
370
-1
6
ByLayer
10
446.0
20
80.646248352
30
0.0
11
447.0
21
82.0039156525
31
0.0
0
LINE
5
395
100
AcDbEntity
100
AcDbLine
8
2
62
256
370
-1
6
ByLayer
10
447.0
20
82.0039156525
30
0.0
11
448.0
21
83.3670647346
31
0.0
0
LINE
5
396
100
AcDbEntity
100
AcDbLine
8
2
62
256
370
-1
6
ByLayer
10
448.0
20
83.3670647346
30
0.0
11
449.0
21
84.7352803699
31
0.0
0
LINE
5
397
100
AcDbEntity
100
AcDbLine
8
2
62
256
370
-1
6
ByLayer
10
449.0
20
84.7352803699
30
0.0
11
450.0
21
86.1081457866
31
0.0
0
LINE
5
398
100
AcDbEntity
100
AcDbLine
8
2
62
256
370
-1
6
ByLayer
10
450.0
20
86.1081457866
30
0.0
11
451.0
21
87.4852427968
31
0.0
0
LINE
5
399
100
AcDbEntity
100
AcDbLine
8
2
62
256
370
-1
6
ByLayer
10
451.0
20
87.4852427968
30
0.0
11
452.0
21
88.8661519232
31
0.0
0
LINE
5
400
100
AcDbEntity
100
AcDbLine
8
2
62
256
370
-1
6
ByLayer
10
452.0
20
88.8661519232
30
0.0
11
453.0
21
90.2504525276
31
0.0
0
LINE
5
401
100
AcDbEntity
100
AcDbLine
8
2
62
256
370
-1
6
ByLayer
10
453.0
20
90.2504525276
30
0.0
11
454.0
21
91.6377229386
31
0.0
0
LINE
5
402
100
AcDbEntity
100
AcDbLine
8
2
62
256
370
-1
6
ByLayer
10
454.0
20
91.6377229386
30
0.0
11
455.0
21
93.0275405802
31
0.0
0
LINE
5
403
100
AcDbEntity
100
AcDbLine
8
2
62
256
370
-1
6
ByLayer
10
455.0
20
93.0275405802
30
0.0
11
456.0
21
94.4194821005
31
0.0
0
LINE
5
404
100
AcDbEntity
100
AcDbLine
8
2
62
256
370
-1
6
ByLayer
10
456.0
20
94.4194821005
30
0.0
11
457.0
21
95.8131235006
31
0.0
0
LINE
5
405
100
AcDbEntity
100
AcDbLine
8
2
62
256
370
-1
6
ByLayer
10
457.0
20
95.8131235006
30
0.0
11
458.0
21
97.2080402638
31
0.0
0
LINE
5
406
100
AcDbEntity
100
AcDbLine
8
2
62
256
370
-1
6
ByLayer
10
458.0
20
97.2080402638
30
0.0
11
459.0
21
98.603807485
31
0.0
0
LINE
5
407
100
AcDbEntity
100
AcDbLine
8
2
62
256
370
-1
6
ByLayer
10
459.0
20
98.603807485
30
0.0
11
460.0
21
100.0
31
0.0
0
LINE
5
408
100
AcDbEntity
100
AcDbLine
8
3
62
256
370
-1
6
ByLayer
10
200.0
20
180.0
30
0.0
11
201.0
21
179.987815613
31
0.0
0
LINE
5
409
100
AcDbEntity
100
AcDbLine
8
3
62
256
370
-1
6
ByLayer
10
201.0
20
179.987815613
30
0.0
11
202.0
21
179.951266162
31
0.0
0
LINE
5
410
100
AcDbEntity
100
AcDbLine
8
3
62
256
370
-1
6
ByLayer
10
202.0
20
179.951266162
30
0.0
11
203.0
21
179.89036278
31
0.0
0
LINE
5
411
100
AcDbEntity
100
AcDbLine
8
3
62
256
370
-1
6
ByLayer
10
203.0
20
179.89036278
30
0.0
11
204.0
21
179.805124021
31
0.0
0
LINE
5
412
100
AcDbEntity
100
AcDbLine
8
3
62
256
370
-1
6
ByLayer
10
204.0
20
179.805124021
30
0.0
11
205.0
21
179.695575847
31
0.0
0
LINE
5
413
100
AcDbEntity
100
AcDbLine
8
3
62
256
370
-1
6
ByLayer
10
205.0
20
179.695575847
30
0.0
11
206.0
21
179.56175163
31
0.0
0
LINE
5
414
100
AcDbEntity
100
AcDbLine
8
3
62
256
370
-1
6
ByLayer
10
206.0
20
179.56175163
30
0.0
11
207.0
21
179.403692131
31
0.0
0
LINE
5
415
100
AcDbEntity
100
AcDbLine
8
3
62
256
370
-1
6
ByLayer
10
207.0
20
179.403692131
30
0.0
11
208.0
21
179.221445499
31
0.0
0
LINE
5
416
100
AcDbEntity
100
AcDbLine
8
3
62
256
370
-1
6
ByLayer
10
208.0
20
179.221445499
30
0.0
11
209.0
21
179.015067248
31
0.0
0
LINE
5
417
100
AcDbEntity
100
AcDbLine
8
3
62
256
370
-1
6
ByLayer
10
209.0
20
179.015067248
30
0.0
11
210.0
21
178.784620241
31
0.0
0
LINE
5
418
100
AcDbEntity
100
AcDbLine
8
3
62
256
370
-1
6
ByLayer
10
210.0
20
178.784620241
30
0.0
11
211.0
21
178.530174676
31
0.0
0
LINE
5
419
100
AcDbEntity
100
AcDbLine
8
3
62
256
370
-1
6
ByLayer
10
211.0
20
178.530174676
30
0.0
11
212.0
21
178.251808059
31
0.0
0
LINE
5
420
100
AcDbEntity
100
AcDbLine
8
3
62
256
370
-1
6
ByLayer
10
212.0
20
178.251808059
30
0.0
11
213.0
21
177.949605183
31
0.0
0
LINE
5
421
100
AcDbEntity
100
AcDbLine
8
3
62
256
370
-1
6
ByLayer
10
213.0
20
177.949605183
30
0.0
11
214.0
21
177.623658102
31
0.0
0
LINE
5
422
100
AcDbEntity
100
AcDbLine
8
3
62
256
370
-1
6
ByLayer
10
214.0
20
177.623658102
30
0.0
11
215.0
21
177.274066103
31
0.0
0
LINE
5
423
100
AcDbEntity
100
AcDbLine
8
3
62
256
370
-1
6
ByLayer
10
215.0
20
177.274066103
30
0.0
11
216.0
21
176.900935675
31
0.0
0
LINE
5
424
100
AcDbEntity
100
AcDbLine
8
3
62
256
370
-1
6
ByLayer
10
216.0
20
176.900935675
30
0.0
11
217.0
21
176.504380477
31
0.0
0
LINE
5
425
100
AcDbEntity
100
AcDbLine
8
3
62
256
370
-1
6
ByLayer
10
217.0
20
176.504380477
30
0.0
11
218.0
21
176.084521304
31
0.0
0
LINE
5
426
100
AcDbEntity
100
AcDbLine
8
3
62
256
370
-1
6
ByLayer
10
218.0
20
176.084521304
30
0.0
11
219.0
21
175.641486048
31
0.0
0
LINE
5
427
100
AcDbEntity
100
AcDbLine
8
3
62
256
370
-1
6
ByLayer
10
219.0
20
175.641486048
30
0.0
11
220.0
21
175.175409663
31
0.0
0
LINE
5
428
100
AcDbEntity
100
AcDbLine
8
3
62
256
370
-1
6
ByLayer
10
220.0
20
175.175409663
30
0.0
11
221.0
21
174.68643412
31
0.0
0
LINE
5
429
100
AcDbEntity
100
AcDbLine
8
3
62
256
370
-1
6
ByLayer
10
221.0
20
174.68643412
30
0.0
11
222.0
21
174.174708365
31
0.0
0
LINE
5
430
100
AcDbEntity
100
AcDbLine
8
3
62
256
370
-1
6
ByLayer
10
222.0
20
174.174708365
30
0.0
11
223.0
21
173.640388276
31
0.0
0
LINE
5
431
100
AcDbEntity
100
AcDbLine
8
3
62
256
370
-1
6
ByLayer
10
223.0
20
173.640388276
30
0.0
11
224.0
21
173.083636611
31
0.0
0
LINE
5
432
100
AcDbEntity
100
AcDbLine
8
3
62
256
370
-1
6
ByLayer
10
224.0
20
173.083636611
30
0.0
11
225.0
21
172.504622963
31
0.0
0
LINE
5
433
100
AcDbEntity
100
AcDbLine
8
3
62
256
370
-1
6
ByLayer
10
225.0
20
172.504622963
30
0.0
11
226.0
21
171.903523704
31
0.0
0
LINE
5
434
100
AcDbEntity
100
AcDbLine
8
3
62
256
370
-1
6
ByLayer
10
226.0
20
171.903523704
30
0.0
11
227.0
21
171.280521935
31
0.0
0
LINE
5
435
100
AcDbEntity
100
AcDbLine
8
3
62
256
370
-1
6
ByLayer
10
227.0
20
171.280521935
30
0.0
11
228.0
21
170.635807429
31
0.0
0
LINE
5
436
100
AcDbEntity
100
AcDbLine
8
3
62
256
370
-1
6
ByLayer
10
228.0
20
170.635807429
30
0.0
11
229.0
21
169.969576571
31
0.0
0
LINE
5
437
100
AcDbEntity
100
AcDbLine
8
3
62
256
370
-1
6
ByLayer
10
229.0
20
169.969576571
30
0.0
11
230.0
21
169.282032303
31
0.0
0
LINE
5
438
100
AcDbEntity
100
AcDbLine
8
3
62
256
370
-1
6
ByLayer
10
230.0
20
169.282032303
30
0.0
11
231.0
21
168.573384056
31
0.0
0
LINE
5
439
100
AcDbEntity
100
AcDbLine
8
3
62
256
370
-1
6
ByLayer
10
231.0
20
168.573384056
30
0.0
11
232.0
21
167.843847692
31
0.0
0
LINE
5
440
100
AcDbEntity
100
AcDbLine
8
3
62
256
370
-1
6
ByLayer
10
232.0
20
167.843847692
30
0.0
11
233.0
21
167.093645436
31
0.0
0
LINE
5
441
100
AcDbEntity
100
AcDbLine
8
3
62
256
370
-1
6
ByLayer
10
233.0
20
167.093645436
30
0.0
11
234.0
21
166.323005804
31
0.0
0
LINE
5
442
100
AcDbEntity
100
AcDbLine
8
3
62
256
370
-1
6
ByLayer
10
234.0
20
166.323005804
30
0.0
11
235.0
21
165.532163543
31
0.0
0
LINE
5
443
100
AcDbEntity
100
AcDbLine
8
3
62
256
370
-1
6
ByLayer
10
235.0
20
165.532163543
30
0.0
11
236.0
21
164.72135955
31
0.0
0
LINE
5
444
100
AcDbEntity
100
AcDbLine
8
3
62
256
370
-1
6
ByLayer
10
236.0
20
164.72135955
30
0.0
11
237.0
21
163.890840804
31
0.0
0
LINE
5
445
100
AcDbEntity
100
AcDbLine
8
3
62
256
370
-1
6
ByLayer
10
237.0
20
163.890840804
30
0.0
11
238.0
21
163.040860288
31
0.0
0
LINE
5
446
100
AcDbEntity
100
AcDbLine
8
3
62
256
370
-1
6
ByLayer
10
238.0
20
163.040860288
30
0.0
11
239.0
21
162.171676917
31
0.0
0
LINE
5
447
100
AcDbEntity
100
AcDbLine
8
3
62
256
370
-1
6
ByLayer
10
239.0
20
162.171676917
30
0.0
11
240.0
21
161.283555449
31
0.0
0
LINE
5
448
100
AcDbEntity
100
AcDbLine
8
3
62
256
370
-1
6
ByLayer
10
240.0
20
161.283555449
30
0.0
11
241.0
21
160.376766418
31
0.0
0
LINE
5
449
100
AcDbEntity
100
AcDbLine
8
3
62
256
370
-1
6
ByLayer
10
241.0
20
160.376766418
30
0.0
11
242.0
21
159.451586038
31
0.0
0
LINE
5
450
100
AcDbEntity
100
AcDbLine
8
3
62
256
370
-1
6
ByLayer
10
242.0
20
159.451586038
30
0.0
11
243.0
21
158.508296129
31
0.0
0
LINE
5
451
100
AcDbEntity
100
AcDbLine
8
3
62
256
370
-1
6
ByLayer
10
243.0
20
158.508296129
30
0.0
11
244.0
21
157.547184027
31
0.0
0
LINE
5
452
100
AcDbEntity
100
AcDbLine
8
3
62
256
370
-1
6
ByLayer
10
244.0
20
157.547184027
30
0.0
11
245.0
21
156.568542495
31
0.0
0
LINE
5
453
100
AcDbEntity
100
AcDbLine
8
3
62
256
370
-1
6
ByLayer
10
245.0
20
156.568542495
30
0.0
11
246.0
21
155.572669637
31
0.0
0
LINE
5
454
100
AcDbEntity
100
AcDbLine
8
3
62
256
370
-1
6
ByLayer
10
246.0
20
155.572669637
30
0.0
11
247.0
21
154.559868805
31
0.0
0
LINE
5
455
100
AcDbEntity
100
AcDbLine
8
3
62
256
370
-1
6
ByLayer
10
247.0
20
154.559868805
30
0.0
11
248.0
21
153.530448509
31
0.0
0
LINE
5
456
100
AcDbEntity
100
AcDbLine
8
3
62
256
370
-1
6
ByLayer
10
248.0
20
153.530448509
30
0.0
11
249.0
21
152.484722319
31
0.0
0
LINE
5
457
100
AcDbEntity
100
AcDbLine
8
3
62
256
370
-1
6
ByLayer
10
249.0
20
152.484722319
30
0.0
11
250.0
21
151.423008775
31
0.0
0
LINE
5
458
100
AcDbEntity
100
AcDbLine
8
3
62
256
370
-1
6
ByLayer
10
250.0
20
151.423008775
30
0.0
11
251.0
21
150.345631284
31
0.0
0
LINE
5
459
100
AcDbEntity
100
AcDbLine
8
3
62
256
370
-1
6
ByLayer
10
251.0
20
150.345631284
30
0.0
11
252.0
21
149.252918026
31
0.0
0
LINE
5
460
100
AcDbEntity
100
AcDbLine
8
3
62
256
370
-1
6
ByLayer
10
252.0
20
149.252918026
30
0.0
11
253.0
21
148.145201852
31
0.0
0
LINE
5
461
100
AcDbEntity
100
AcDbLine
8
3
62
256
370
-1
6
ByLayer
10
253.0
20
148.145201852
30
0.0
11
254.0
21
147.022820183
31
0.0
0
LINE
5
462
100
AcDbEntity
100
AcDbLine
8
3
62
256
370
-1
6
ByLayer
10
254.0
20
147.022820183
30
0.0
11
255.0
21
145.886114908
31
0.0
0
LINE
5
463
100
AcDbEntity
100
AcDbLine
8
3
62
256
370
-1
6
ByLayer
10
255.0
20
145.886114908
30
0.0
11
256.0
21
144.735432278
31
0.0
0
LINE
5
464
100
AcDbEntity
100
AcDbLine
8
3
62
256
370
-1
6
ByLayer
10
256.0
20
144.735432278
30
0.0
11
257.0
21
143.571122801
31
0.0
0
LINE
5
465
100
AcDbEntity
100
AcDbLine
8
3
62
256
370
-1
6
ByLayer
10
257.0
20
143.571122801
30
0.0
11
258.0
21
142.393541139
31
0.0
0
LINE
5
466
100
AcDbEntity
100
AcDbLine
8
3
62
256
370
-1
6
ByLayer
10
258.0
20
142.393541139
30
0.0
11
259.0
21
141.203045993
31
0.0
0
LINE
5
467
100
AcDbEntity
100
AcDbLine
8
3
62
256
370
-1
6
ByLayer
10
259.0
20
141.203045993
30
0.0
11
260.0
21
140.0
31
0.0
0
LINE
5
468
100
AcDbEntity
100
AcDbLine
8
3
62
256
370
-1
6
ByLayer
10
260.0
20
140.0
30
0.0
11
261.0
21
138.78476962
31
0.0
0
LINE
5
469
100
AcDbEntity
100
AcDbLine
8
3
62
256
370
-1
6
ByLayer
10
261.0
20
138.78476962
30
0.0
11
262.0
21
137.557725023
31
0.0
0
LINE
5
470
100
AcDbEntity
100
AcDbLine
8
3
62
256
370
-1
6
ByLayer
10
262.0
20
137.557725023
30
0.0
11
263.0
21
136.319239979
31
0.0
0
LINE
5
471
100
AcDbEntity
100
AcDbLine
8
3
62
256
370
-1
6
ByLayer
10
263.0
20
136.319239979
30
0.0
11
264.0
21
135.069691743
31
0.0
0
LINE
5
472
100
AcDbEntity
100
AcDbLine
8
3
62
256
370
-1
6
ByLayer
10
264.0
20
135.069691743
30
0.0
11
265.0
21
133.809460939
31
0.0
0
LINE
5
473
100
AcDbEntity
100
AcDbLine
8
3
62
256
370
-1
6
ByLayer
10
265.0
20
133.809460939
30
0.0
11
266.0
21
132.538931446
31
0.0
0
LINE
5
474
100
AcDbEntity
100
AcDbLine
8
3
62
256
370
-1
6
ByLayer
10
266.0
20
132.538931446
30
0.0
11
267.0
21
131.258490279
31
0.0
0
LINE
5
475
100
AcDbEntity
100
AcDbLine
8
3
62
256
370
-1
6
ByLayer
10
267.0
20
131.258490279
30
0.0
11
268.0
21
129.968527473
31
0.0
0
LINE
5
476
100
AcDbEntity
100
AcDbLine
8
3
62
256
370
-1
6
ByLayer
10
268.0
20
129.968527473
30
0.0
11
269.0
21
128.669435964
31
0.0
0
LINE
5
477
100
AcDbEntity
100
AcDbLine
8
3
62
256
370
-1
6
ByLayer
10
269.0
20
128.669435964
30
0.0
11
270.0
21
127.361611466
31
0.0
0
LINE
5
478
100
AcDbEntity
100
AcDbLine
8
3
62
256
370
-1
6
ByLayer
10
270.0
20
127.361611466
30
0.0
11
271.0
21
126.045452357
31
0.0
0
LINE
5
479
100
AcDbEntity
100
AcDbLine
8
3
62
256
370
-1
6
ByLayer
10
271.0
20
126.045452357
30
0.0
11
272.0
21
124.72135955
31
0.0
0
LINE
5
480
100
AcDbEntity
100
AcDbLine
8
3
62
256
370
-1
6
ByLayer
10
272.0
20
124.72135955
30
0.0
11
273.0
21
123.389736378
31
0.0
0
LINE
5
481
100
AcDbEntity
100
AcDbLine
8
3
62
256
370
-1
6
ByLayer
10
273.0
20
123.389736378
30
0.0
11
274.0
21
122.050988465
31
0.0
0
LINE
5
482
100
AcDbEntity
100
AcDbLine
8
3
62
256
370
-1
6
ByLayer
10
274.0
20
122.050988465
30
0.0
11
275.0
21
120.705523608
31
0.0
0
LINE
5
483
100
AcDbEntity
100
AcDbLine
8
3
62
256
370
-1
6
ByLayer
10
275.0
20
120.705523608
30
0.0
11
276.0
21
119.353751648
31
0.0
0
LINE
5
484
100
AcDbEntity
100
AcDbLine
8
3
62
256
370
-1
6
ByLayer
10
276.0
20
119.353751648
30
0.0
11
277.0
21
117.996084348
31
0.0
0
LINE
5
485
100
AcDbEntity
100
AcDbLine
8
3
62
256
370
-1
6
ByLayer
10
277.0
20
117.996084348
30
0.0
11
278.0
21
116.632935265
31
0.0
0
LINE
5
486
100
AcDbEntity
100
AcDbLine
8
3
62
256
370
-1
6
ByLayer
10
278.0
20
116.632935265
30
0.0
11
279.0
21
115.26471963
31
0.0
0
LINE
5
487
100
AcDbEntity
100
AcDbLine
8
3
62
256
370
-1
6
ByLayer
10
279.0
20
115.26471963
30
0.0
11
280.0
21
113.891854213
31
0.0
0
LINE
5
488
100
AcDbEntity
100
AcDbLine
8
3
62
256
370
-1
6
ByLayer
10
280.0
20
113.891854213
30
0.0
11
281.0
21
112.514757203
31
0.0
0
LINE
5
489
100
AcDbEntity
100
AcDbLine
8
3
62
256
370
-1
6
ByLayer
10
281.0
20
112.514757203
30
0.0
11
282.0
21
111.133848077
31
0.0
0
LINE
5
490
100
AcDbEntity
100
AcDbLine
8
3
62
256
370
-1
6
ByLayer
10
282.0
20
111.133848077
30
0.0
11
283.0
21
109.749547472
31
0.0
0
LINE
5
491
100
AcDbEntity
100
AcDbLine
8
3
62
256
370
-1
6
ByLayer
10
283.0
20
109.749547472
30
0.0
11
284.0
21
108.362277061
31
0.0
0
LINE
5
492
100
AcDbEntity
100
AcDbLine
8
3
62
256
370
-1
6
ByLayer
10
284.0
20
108.362277061
30
0.0
11
285.0
21
106.97245942
31
0.0
0
LINE
5
493
100
AcDbEntity
100
AcDbLine
8
3
62
256
370
-1
6
ByLayer
10
285.0
20
106.97245942
30
0.0
11
286.0
21
105.5805179
31
0.0
0
LINE
5
494
100
AcDbEntity
100
AcDbLine
8
3
62
256
370
-1
6
ByLayer
10
286.0
20
105.5805179
30
0.0
11
287.0
21
104.186876499
31
0.0
0
LINE
5
495
100
AcDbEntity
100
AcDbLine
8
3
62
256
370
-1
6
ByLayer
10
287.0
20
104.186876499
30
0.0
11
288.0
21
102.791959736
31
0.0
0
LINE
5
496
100
AcDbEntity
100
AcDbLine
8
3
62
256
370
-1
6
ByLayer
10
288.0
20
102.791959736
30
0.0
11
289.0
21
101.396192515
31
0.0
0
LINE
5
497
100
AcDbEntity
100
AcDbLine
8
3
62
256
370
-1
6
ByLayer
10
289.0
20
101.396192515
30
0.0
11
290.0
21
100.0
31
0.0
0
LINE
5
498
100
AcDbEntity
100
AcDbLine
8
3
62
256
370
-1
6
ByLayer
10
290.0
20
100.0
30
0.0
11
291.0
21
98.603807485
31
0.0
0
LINE
5
499
100
AcDbEntity
100
AcDbLine
8
3
62
256
370
-1
6
ByLayer
10
291.0
20
98.603807485
30
0.0
11
292.0
21
97.2080402638
31
0.0
0
LINE
5
500
100
AcDbEntity
100
AcDbLine
8
3
62
256
370
-1
6
ByLayer
10
292.0
20
97.2080402638
30
0.0
11
293.0
21
95.8131235006
31
0.0
0
LINE
5
501
100
AcDbEntity
100
AcDbLine
8
3
62
256
370
-1
6
ByLayer
10
293.0
20
95.8131235006
30
0.0
11
294.0
21
94.4194821005
31
0.0
0
LINE
5
502
100
AcDbEntity
100
AcDbLine
8
3
62
256
370
-1
6
ByLayer
10
294.0
20
94.4194821005
30
0.0
11
295.0
21
93.0275405802
31
0.0
0
LINE
5
503
100
AcDbEntity
100
AcDbLine
8
3
62
256
370
-1
6
ByLayer
10
295.0
20
93.0275405802
30
0.0
11
296.0
21
91.6377229386
31
0.0
0
LINE
5
504
100
AcDbEntity
100
AcDbLine
8
3
62
256
370
-1
6
ByLayer
10
296.0
20
91.6377229386
30
0.0
11
297.0
21
90.2504525276
31
0.0
0
LINE
5
505
100
AcDbEntity
100
AcDbLine
8
3
62
256
370
-1
6
ByLayer
10
297.0
20
90.2504525276
30
0.0
11
298.0
21
88.8661519232
31
0.0
0
LINE
5
506
100
AcDbEntity
100
AcDbLine
8
3
62
256
370
-1
6
ByLayer
10
298.0
20
88.8661519232
30
0.0
11
299.0
21
87.4852427968
31
0.0
0
LINE
5
507
100
AcDbEntity
100
AcDbLine
8
3
62
256
370
-1
6
ByLayer
10
299.0
20
87.4852427968
30
0.0
11
300.0
21
86.1081457866
31
0.0
0
LINE
5
508
100
AcDbEntity
100
AcDbLine
8
3
62
256
370
-1
6
ByLayer
10
300.0
20
86.1081457866
30
0.0
11
301.0
21
84.7352803699
31
0.0
0
LINE
5
509
100
AcDbEntity
100
AcDbLine
8
3
62
256
370
-1
6
ByLayer
10
301.0
20
84.7352803699
30
0.0
11
302.0
21
83.3670647346
31
0.0
0
LINE
5
510
100
AcDbEntity
100
AcDbLine
8
3
62
256
370
-1
6
ByLayer
10
302.0
20
83.3670647346
30
0.0
11
303.0
21
82.0039156525
31
0.0
0
LINE
5
511
100
AcDbEntity
100
AcDbLine
8
3
62
256
370
-1
6
ByLayer
10
303.0
20
82.0039156525
30
0.0
11
304.0
21
80.646248352
31
0.0
0
LINE
5
512
100
AcDbEntity
100
AcDbLine
8
3
62
256
370
-1
6
ByLayer
10
304.0
20
80.646248352
30
0.0
11
305.0
21
79.2944763918
31
0.0
0
LINE
5
513
100
AcDbEntity
100
AcDbLine
8
3
62
256
370
-1
6
ByLayer
10
305.0
20
79.2944763918
30
0.0
11
306.0
21
77.9490115346
31
0.0
0
LINE
5
514
100
AcDbEntity
100
AcDbLine
8
3
62
256
370
-1
6
ByLayer
10
306.0
20
77.9490115346
30
0.0
11
307.0
21
76.6102636222
31
0.0
0
LINE
5
515
100
AcDbEntity
100
AcDbLine
8
3
62
256
370
-1
6
ByLayer
10
307.0
20
76.6102636222
30
0.0
11
308.0
21
75.27864045
31
0.0
0
LINE
5
516
100
AcDbEntity
100
AcDbLine
8
3
62
256
370
-1
6
ByLayer
10
308.0
20
75.27864045
30
0.0
11
309.0
21
73.9545476434
31
0.0
0
LINE
5
517
100
AcDbEntity
100
AcDbLine
8
3
62
256
370
-1
6
ByLayer
10
309.0
20
73.9545476434
30
0.0
11
310.0
21
72.6383885339
31
0.0
0
LINE
5
518
100
AcDbEntity
100
AcDbLine
8
3
62
256
370
-1
6
ByLayer
10
310.0
20
72.6383885339
30
0.0
11
311.0
21
71.3305640364
31
0.0
0
LINE
5
519
100
AcDbEntity
100
AcDbLine
8
3
62
256
370
-1
6
ByLayer
10
311.0
20
71.3305640364
30
0.0
11
312.0
21
70.0314725267
31
0.0
0
LINE
5
520
100
AcDbEntity
100
AcDbLine
8
3
62
256
370
-1
6
ByLayer
10
312.0
20
70.0314725267
30
0.0
11
313.0
21
68.7415097209
31
0.0
0
LINE
5
521
100
AcDbEntity
100
AcDbLine
8
3
62
256
370
-1
6
ByLayer
10
313.0
20
68.7415097209
30
0.0
11
314.0
21
67.4610685539
31
0.0
0
LINE
5
522
100
AcDbEntity
100
AcDbLine
8
3
62
256
370
-1
6
ByLayer
10
314.0
20
67.4610685539
30
0.0
11
315.0
21
66.1905390607
31
0.0
0
LINE
5
523
100
AcDbEntity
100
AcDbLine
8
3
62
256
370
-1
6
ByLayer
10
315.0
20
66.1905390607
30
0.0
11
316.0
21
64.9303082569
31
0.0
0
LINE
5
524
100
AcDbEntity
100
AcDbLine
8
3
62
256
370
-1
6
ByLayer
10
316.0
20
64.9303082569
30
0.0
11
317.0
21
63.6807600208
31
0.0
0
LINE
5
525
100
AcDbEntity
100
AcDbLine
8
3
62
256
370
-1
6
ByLayer
10
317.0
20
63.6807600208
30
0.0
11
318.0
21
62.4422749771
31
0.0
0
LINE
5
526
100
AcDbEntity
100
AcDbLine
8
3
62
256
370
-1
6
ByLayer
10
318.0
20
62.4422749771
30
0.0
11
319.0
21
61.2152303803
31
0.0
0
LINE
5
527
100
AcDbEntity
100
AcDbLine
8
3
62
256
370
-1
6
ByLayer
10
319.0
20
61.2152303803
30
0.0
11
320.0
21
60.0
31
0.0
0
LINE
5
528
100
AcDbEntity
100
AcDbLine
8
3
62
256
370
-1
6
ByLayer
10
320.0
20
60.0
30
0.0
11
321.0
21
58.7969540072
31
0.0
0
LINE
5
529
100
AcDbEntity
100
AcDbLine
8
3
62
256
370
-1
6
ByLayer
10
321.0
20
58.7969540072
30
0.0
11
322.0
21
57.6064588613
31
0.0
0
LINE
5
530
100
AcDbEntity
100
AcDbLine
8
3
62
256
370
-1
6
ByLayer
10
322.0
20
57.6064588613
30
0.0
11
323.0
21
56.4288771988
31
0.0
0
LINE
5
531
100
AcDbEntity
100
AcDbLine
8
3
62
256
370
-1
6
ByLayer
10
323.0
20
56.4288771988
30
0.0
11
324.0
21
55.2645677223
31
0.0
0
LINE
5
532
100
AcDbEntity
100
AcDbLine
8
3
62
256
370
-1
6
ByLayer
10
324.0
20
55.2645677223
30
0.0
11
325.0
21
54.1138850919
31
0.0
0
LINE
5
533
100
AcDbEntity
100
AcDbLine
8
3
62
256
370
-1
6
ByLayer
10
325.0
20
54.1138850919
30
0.0
11
326.0
21
52.9771798166
31
0.0
0
LINE
5
534
100
AcDbEntity
100
AcDbLine
8
3
62
256
370
-1
6
ByLayer
10
326.0
20
52.9771798166
30
0.0
11
327.0
21
51.8547981478
31
0.0
0
LINE
5
535
100
AcDbEntity
100
AcDbLine
8
3
62
256
370
-1
6
ByLayer
10
327.0
20
51.8547981478
30
0.0
11
328.0
21
50.7470819739
31
0.0
0
LINE
5
536
100
AcDbEntity
100
AcDbLine
8
3
62
256
370
-1
6
ByLayer
10
328.0
20
50.7470819739
30
0.0
11
329.0
21
49.654368716
31
0.0
0
LINE
5
537
100
AcDbEntity
100
AcDbLine
8
3
62
256
370
-1
6
ByLayer
10
329.0
20
49.654368716
30
0.0
11
330.0
21
48.5769912251
31
0.0
0
LINE
5
538
100
AcDbEntity
100
AcDbLine
8
3
62
256
370
-1
6
ByLayer
10
330.0
20
48.5769912251
30
0.0
11
331.0
21
47.5152776808
31
0.0
0
LINE
5
539
100
AcDbEntity
100
AcDbLine
8
3
62
256
370
-1
6
ByLayer
10
331.0
20
47.5152776808
30
0.0
11
332.0
21
46.4695514913
31
0.0
0
LINE
5
540
100
AcDbEntity
100
AcDbLine
8
3
62
256
370
-1
6
ByLayer
10
332.0
20
46.4695514913
30
0.0
11
333.0
21
45.440131195
31
0.0
0
LINE
5
541
100
AcDbEntity
100
AcDbLine
8
3
62
256
370
-1
6
ByLayer
10
333.0
20
45.440131195
30
0.0
11
334.0
21
44.4273303633
31
0.0
0
LINE
5
542
100
AcDbEntity
100
AcDbLine
8
3
62
256
370
-1
6
ByLayer
10
334.0
20
44.4273303633
30
0.0
11
335.0
21
43.4314575051
31
0.0
0
LINE
5
543
100
AcDbEntity
100
AcDbLine
8
3
62
256
370
-1
6
ByLayer
10
335.0
20
43.4314575051
30
0.0
11
336.0
21
42.4528159729
31
0.0
0
LINE
5
544
100
AcDbEntity
100
AcDbLine
8
3
62
256
370
-1
6
ByLayer
10
336.0
20
42.4528159729
30
0.0
11
337.0
21
41.4917038705
31
0.0
0
LINE
5
545
100
AcDbEntity
100
AcDbLine
8
3
62
256
370
-1
6
ByLayer
10
337.0
20
41.4917038705
30
0.0
11
338.0
21
40.5484139618
31
0.0
0
LINE
5
546
100
AcDbEntity
100
AcDbLine
8
3
62
256
370
-1
6
ByLayer
10
338.0
20
40.5484139618
30
0.0
11
339.0
21
39.6232335822
31
0.0
0
LINE
5
547
100
AcDbEntity
100
AcDbLine
8
3
62
256
370
-1
6
ByLayer
10
339.0
20
39.6232335822
30
0.0
11
340.0
21
38.7164445505
31
0.0
0
LINE
5
548
100
AcDbEntity
100
AcDbLine
8
3
62
256
370
-1
6
ByLayer
10
340.0
20
38.7164445505
30
0.0
11
341.0
21
37.8283230834
31
0.0
0
LINE
5
549
100
AcDbEntity
100
AcDbLine
8
3
62
256
370
-1
6
ByLayer
10
341.0
20
37.8283230834
30
0.0
11
342.0
21
36.9591397115
31
0.0
0
LINE
5
550
100
AcDbEntity
100
AcDbLine
8
3
62
256
370
-1
6
ByLayer
10
342.0
20
36.9591397115
30
0.0
11
343.0
21
36.1091591962
31
0.0
0
LINE
5
551
100
AcDbEntity
100
AcDbLine
8
3
62
256
370
-1
6
ByLayer
10
343.0
20
36.1091591962
30
0.0
11
344.0
21
35.27864045
31
0.0
0
LINE
5
552
100
AcDbEntity
100
AcDbLine
8
3
62
256
370
-1
6
ByLayer
10
344.0
20
35.27864045
30
0.0
11
345.0
21
34.4678364569
31
0.0
0
LINE
5
553
100
AcDbEntity
100
AcDbLine
8
3
62
256
370
-1
6
ByLayer
10
345.0
20
34.4678364569
30
0.0
11
346.0
21
33.6769941956
31
0.0
0
LINE
5
554
100
AcDbEntity
100
AcDbLine
8
3
62
256
370
-1
6
ByLayer
10
346.0
20
33.6769941956
30
0.0
11
347.0
21
32.9063545644
31
0.0
0
LINE
5
555
100
AcDbEntity
100
AcDbLine
8
3
62
256
370
-1
6
ByLayer
10
347.0
20
32.9063545644
30
0.0
11
348.0
21
32.1561523075
31
0.0
0
LINE
5
556
100
AcDbEntity
100
AcDbLine
8
3
62
256
370
-1
6
ByLayer
10
348.0
20
32.1561523075
30
0.0
11
349.0
21
31.4266159438
31
0.0
0
LINE
5
557
100
AcDbEntity
100
AcDbLine
8
3
62
256
370
-1
6
ByLayer
10
349.0
20
31.4266159438
30
0.0
11
350.0
21
30.7179676972
31
0.0
0
LINE
5
558
100
AcDbEntity
100
AcDbLine
8
3
62
256
370
-1
6
ByLayer
10
350.0
20
30.7179676972
30
0.0
11
351.0
21
30.0304234288
31
0.0
0
LINE
5
559
100
AcDbEntity
100
AcDbLine
8
3
62
256
370
-1
6
ByLayer
10
351.0
20
30.0304234288
30
0.0
11
352.0
21
29.3641925713
31
0.0
0
LINE
5
560
100
AcDbEntity
100
AcDbLine
8
3
62
256
370
-1
6
ByLayer
10
352.0
20
29.3641925713
30
0.0
11
353.0
21
28.7194780649
31
0.0
0
LINE
5
561
100
AcDbEntity
100
AcDbLine
8
3
62
256
370
-1
6
ByLayer
10
353.0
20
28.7194780649
30
0.0
11
354.0
21
28.0964762961
31
0.0
0
LINE
5
562
100
AcDbEntity
100
AcDbLine
8
3
62
256
370
-1
6
ByLayer
10
354.0
20
28.0964762961
30
0.0
11
355.0
21
27.4953770371
31
0.0
0
LINE
5
563
100
AcDbEntity
100
AcDbLine
8
3
62
256
370
-1
6
ByLayer
10
355.0
20
27.4953770371
30
0.0
11
356.0
21
26.9163633886
31
0.0
0
LINE
5
564
100
AcDbEntity
100
AcDbLine
8
3
62
256
370
-1
6
ByLayer
10
356.0
20
26.9163633886
30
0.0
11
357.0
21
26.3596117238
31
0.0
0
LINE
5
565
100
AcDbEntity
100
AcDbLine
8
3
62
256
370
-1
6
ByLayer
10
357.0
20
26.3596117238
30
0.0
11
358.0
21
25.8252916347
31
0.0
0
LINE
5
566
100
AcDbEntity
100
AcDbLine
8
3
62
256
370
-1
6
ByLayer
10
358.0
20
25.8252916347
30
0.0
11
359.0
21
25.3135658802
31
0.0
0
LINE
5
567
100
AcDbEntity
100
AcDbLine
8
3
62
256
370
-1
6
ByLayer
10
359.0
20
25.3135658802
30
0.0
11
360.0
21
24.8245903371
31
0.0
0
LINE
5
568
100
AcDbEntity
100
AcDbLine
8
3
62
256
370
-1
6
ByLayer
10
360.0
20
24.8245903371
30
0.0
11
361.0
21
24.3585139521
31
0.0
0
LINE
5
569
100
AcDbEntity
100
AcDbLine
8
3
62
256
370
-1
6
ByLayer
10
361.0
20
24.3585139521
30
0.0
11
362.0
21
23.9154786964
31
0.0
0
LINE
5
570
100
AcDbEntity
100
AcDbLine
8
3
62
256
370
-1
6
ByLayer
10
362.0
20
23.9154786964
30
0.0
11
363.0
21
23.495619523
31
0.0
0
LINE
5
571
100
AcDbEntity
100
AcDbLine
8
3
62
256
370
-1
6
ByLayer
10
363.0
20
23.495619523
30
0.0
11
364.0
21
23.0990643249
31
0.0
0
LINE
5
572
100
AcDbEntity
100
AcDbLine
8
3
62
256
370
-1
6
ByLayer
10
364.0
20
23.0990643249
30
0.0
11
365.0
21
22.7259338969
31
0.0
0
LINE
5
573
100
AcDbEntity
100
AcDbLine
8
3
62
256
370
-1
6
ByLayer
10
365.0
20
22.7259338969
30
0.0
11
366.0
21
22.3763418979
31
0.0
0
LINE
5
574
100
AcDbEntity
100
AcDbLine
8
3
62
256
370
-1
6
ByLayer
10
366.0
20
22.3763418979
30
0.0
11
367.0
21
22.0503948172
31
0.0
0
LINE
5
575
100
AcDbEntity
100
AcDbLine
8
3
62
256
370
-1
6
ByLayer
10
367.0
20
22.0503948172
30
0.0
11
368.0
21
21.7481919413
31
0.0
0
LINE
5
576
100
AcDbEntity
100
AcDbLine
8
3
62
256
370
-1
6
ByLayer
10
368.0
20
21.7481919413
30
0.0
11
369.0
21
21.4698253242
31
0.0
0
LINE
5
577
100
AcDbEntity
100
AcDbLine
8
3
62
256
370
-1
6
ByLayer
10
369.0
20
21.4698253242
30
0.0
11
370.0
21
21.215379759
31
0.0
0
LINE
5
578
100
AcDbEntity
100
AcDbLine
8
3
62
256
370
-1
6
ByLayer
10
370.0
20
21.215379759
30
0.0
11
371.0
21
20.9849327524
31
0.0
0
LINE
5
579
100
AcDbEntity
100
AcDbLine
8
3
62
256
370
-1
6
ByLayer
10
371.0
20
20.9849327524
30
0.0
11
372.0
21
20.7785545007
31
0.0
0
LINE
5
580
100
AcDbEntity
100
AcDbLine
8
3
62
256
370
-1
6
ByLayer
10
372.0
20
20.7785545007
30
0.0
11
373.0
21
20.5963078687
31
0.0
0
LINE
5
581
100
AcDbEntity
100
AcDbLine
8
3
62
256
370
-1
6
ByLayer
10
373.0
20
20.5963078687
30
0.0
11
374.0
21
20.4382483705
31
0.0
0
LINE
5
582
100
AcDbEntity
100
AcDbLine
8
3
62
256
370
-1
6
ByLayer
10
374.0
20
20.4382483705
30
0.0
11
375.0
21
20.3044241527
31
0.0
0
LINE
5
583
100
AcDbEntity
100
AcDbLine
8
3
62
256
370
-1
6
ByLayer
10
375.0
20
20.3044241527
30
0.0
11
376.0
21
20.1948759792
31
0.0
0
LINE
5
584
100
AcDbEntity
100
AcDbLine
8
3
62
256
370
-1
6
ByLayer
10
376.0
20
20.1948759792
30
0.0
11
377.0
21
20.1096372196
31
0.0
0
LINE
5
585
100
AcDbEntity
100
AcDbLine
8
3
62
256
370
-1
6
ByLayer
10
377.0
20
20.1096372196
30
0.0
11
378.0
21
20.0487338385
31
0.0
0
LINE
5
586
100
AcDbEntity
100
AcDbLine
8
3
62
256
370
-1
6
ByLayer
10
378.0
20
20.0487338385
30
0.0
11
379.0
21
20.0121843875
31
0.0
0
LINE
5
587
100
AcDbEntity
100
AcDbLine
8
3
62
256
370
-1
6
ByLayer
10
379.0
20
20.0121843875
30
0.0
11
380.0
21
20.0
31
0.0
0
LINE
5
588
100
AcDbEntity
100
AcDbLine
8
3
62
256
370
-1
6
ByLayer
10
380.0
20
20.0
30
0.0
11
381.0
21
20.0121843875
31
0.0
0
LINE
5
589
100
AcDbEntity
100
AcDbLine
8
3
62
256
370
-1
6
ByLayer
10
381.0
20
20.0121843875
30
0.0
11
382.0
21
20.0487338385
31
0.0
0
LINE
5
590
100
AcDbEntity
100
AcDbLine
8
3
62
256
370
-1
6
ByLayer
10
382.0
20
20.0487338385
30
0.0
11
383.0
21
20.1096372196
31
0.0
0
LINE
5
591
100
AcDbEntity
100
AcDbLine
8
3
62
256
370
-1
6
ByLayer
10
383.0
20
20.1096372196
30
0.0
11
384.0
21
20.1948759792
31
0.0
0
LINE
5
592
100
AcDbEntity
100
AcDbLine
8
3
62
256
370
-1
6
ByLayer
10
384.0
20
20.1948759792
30
0.0
11
385.0
21
20.3044241527
31
0.0
0
LINE
5
593
100
AcDbEntity
100
AcDbLine
8
3
62
256
370
-1
6
ByLayer
10
385.0
20
20.3044241527
30
0.0
11
386.0
21
20.4382483705
31
0.0
0
LINE
5
594
100
AcDbEntity
100
AcDbLine
8
3
62
256
370
-1
6
ByLayer
10
386.0
20
20.4382483705
30
0.0
11
387.0
21
20.5963078687
31
0.0
0
LINE
5
595
100
AcDbEntity
100
AcDbLine
8
3
62
256
370
-1
6
ByLayer
10
387.0
20
20.5963078687
30
0.0
11
388.0
21
20.7785545007
31
0.0
0
LINE
5
596
100
AcDbEntity
100
AcDbLine
8
3
62
256
370
-1
6
ByLayer
10
388.0
20
20.7785545007
30
0.0
11
389.0
21
20.9849327524
31
0.0
0
LINE
5
597
100
AcDbEntity
100
AcDbLine
8
3
62
256
370
-1
6
ByLayer
10
389.0
20
20.9849327524
30
0.0
11
390.0
21
21.215379759
31
0.0
0
LINE
5
598
100
AcDbEntity
100
AcDbLine
8
3
62
256
370
-1
6
ByLayer
10
390.0
20
21.215379759
30
0.0
11
391.0
21
21.4698253242
31
0.0
0
LINE
5
599
100
AcDbEntity
100
AcDbLine
8
3
62
256
370
-1
6
ByLayer
10
391.0
20
21.4698253242
30
0.0
11
392.0
21
21.7481919413
31
0.0
0
LINE
5
600
100
AcDbEntity
100
AcDbLine
8
3
62
256
370
-1
6
ByLayer
10
392.0
20
21.7481919413
30
0.0
11
393.0
21
22.0503948172
31
0.0
0
LINE
5
601
100
AcDbEntity
100
AcDbLine
8
3
62
256
370
-1
6
ByLayer
10
393.0
20
22.0503948172
30
0.0
11
394.0
21
22.3763418979
31
0.0
0
LINE
5
602
100
AcDbEntity
100
AcDbLine
8
3
62
256
370
-1
6
ByLayer
10
394.0
20
22.3763418979
30
0.0
11
395.0
21
22.7259338969
31
0.0
0
LINE
5
603
100
AcDbEntity
100
AcDbLine
8
3
62
256
370
-1
6
ByLayer
10
395.0
20
22.7259338969
30
0.0
11
396.0
21
23.0990643249
31
0.0
0
LINE
5
604
100
AcDbEntity
100
AcDbLine
8
3
62
256
370
-1
6
ByLayer
10
396.0
20
23.0990643249
30
0.0
11
397.0
21
23.495619523
31
0.0
0
LINE
5
605
100
AcDbEntity
100
AcDbLine
8
3
62
256
370
-1
6
ByLayer
10
397.0
20
23.495619523
30
0.0
11
398.0
21
23.9154786964
31
0.0
0
LINE
5
606
100
AcDbEntity
100
AcDbLine
8
3
62
256
370
-1
6
ByLayer
10
398.0
20
23.9154786964
30
0.0
11
399.0
21
24.3585139521
31
0.0
0
LINE
5
607
100
AcDbEntity
100
AcDbLine
8
3
62
256
370
-1
6
ByLayer
10
399.0
20
24.3585139521
30
0.0
11
400.0
21
24.8245903371
31
0.0
0
LINE
5
608
100
AcDbEntity
100
AcDbLine
8
3
62
256
370
-1
6
ByLayer
10
400.0
20
24.8245903371
30
0.0
11
401.0
21
25.3135658802
31
0.0
0
LINE
5
609
100
AcDbEntity
100
AcDbLine
8
3
62
256
370
-1
6
ByLayer
10
401.0
20
25.3135658802
30
0.0
11
402.0
21
25.8252916347
31
0.0
0
LINE
5
610
100
AcDbEntity
100
AcDbLine
8
3
62
256
370
-1
6
ByLayer
10
402.0
20
25.8252916347
30
0.0
11
403.0
21
26.3596117238
31
0.0
0
LINE
5
611
100
AcDbEntity
100
AcDbLine
8
3
62
256
370
-1
6
ByLayer
10
403.0
20
26.3596117238
30
0.0
11
404.0
21
26.9163633886
31
0.0
0
LINE
5
612
100
AcDbEntity
100
AcDbLine
8
3
62
256
370
-1
6
ByLayer
10
404.0
20
26.9163633886
30
0.0
11
405.0
21
27.4953770371
31
0.0
0
LINE
5
613
100
AcDbEntity
100
AcDbLine
8
3
62
256
370
-1
6
ByLayer
10
405.0
20
27.4953770371
30
0.0
11
406.0
21
28.0964762961
31
0.0
0
LINE
5
614
100
AcDbEntity
100
AcDbLine
8
3
62
256
370
-1
6
ByLayer
10
406.0
20
28.0964762961
30
0.0
11
407.0
21
28.7194780649
31
0.0
0
LINE
5
615
100
AcDbEntity
100
AcDbLine
8
3
62
256
370
-1
6
ByLayer
10
407.0
20
28.7194780649
30
0.0
11
408.0
21
29.3641925713
31
0.0
0
LINE
5
616
100
AcDbEntity
100
AcDbLine
8
3
62
256
370
-1
6
ByLayer
10
408.0
20
29.3641925713
30
0.0
11
409.0
21
30.0304234288
31
0.0
0
LINE
5
617
100
AcDbEntity
100
AcDbLine
8
3
62
256
370
-1
6
ByLayer
10
409.0
20
30.0304234288
30
0.0
11
410.0
21
30.7179676972
31
0.0
0
LINE
5
618
100
AcDbEntity
100
AcDbLine
8
3
62
256
370
-1
6
ByLayer
10
410.0
20
30.7179676972
30
0.0
11
411.0
21
31.4266159438
31
0.0
0
LINE
5
619
100
AcDbEntity
100
AcDbLine
8
3
62
256
370
-1
6
ByLayer
10
411.0
20
31.4266159438
30
0.0
11
412.0
21
32.1561523075
31
0.0
0
LINE
5
620
100
AcDbEntity
100
AcDbLine
8
3
62
256
370
-1
6
ByLayer
10
412.0
20
32.1561523075
30
0.0
11
413.0
21
32.9063545644
31
0.0
0
LINE
5
621
100
AcDbEntity
100
AcDbLine
8
3
62
256
370
-1
6
ByLayer
10
413.0
20
32.9063545644
30
0.0
11
414.0
21
33.6769941956
31
0.0
0
LINE
5
622
100
AcDbEntity
100
AcDbLine
8
3
62
256
370
-1
6
ByLayer
10
414.0
20
33.6769941956
30
0.0
11
415.0
21
34.4678364569
31
0.0
0
LINE
5
623
100
AcDbEntity
100
AcDbLine
8
3
62
256
370
-1
6
ByLayer
10
415.0
20
34.4678364569
30
0.0
11
416.0
21
35.27864045
31
0.0
0
LINE
5
624
100
AcDbEntity
100
AcDbLine
8
3
62
256
370
-1
6
ByLayer
10
416.0
20
35.27864045
30
0.0
11
417.0
21
36.1091591962
31
0.0
0
LINE
5
625
100
AcDbEntity
100
AcDbLine
8
3
62
256
370
-1
6
ByLayer
10
417.0
20
36.1091591962
30
0.0
11
418.0
21
36.9591397115
31
0.0
0
LINE
5
626
100
AcDbEntity
100
AcDbLine
8
3
62
256
370
-1
6
ByLayer
10
418.0
20
36.9591397115
30
0.0
11
419.0
21
37.8283230834
31
0.0
0
LINE
5
627
100
AcDbEntity
100
AcDbLine
8
3
62
256
370
-1
6
ByLayer
10
419.0
20
37.8283230834
30
0.0
11
420.0
21
38.7164445505
31
0.0
0
LINE
5
628
100
AcDbEntity
100
AcDbLine
8
3
62
256
370
-1
6
ByLayer
10
420.0
20
38.7164445505
30
0.0
11
421.0
21
39.6232335822
31
0.0
0
LINE
5
629
100
AcDbEntity
100
AcDbLine
8
3
62
256
370
-1
6
ByLayer
10
421.0
20
39.6232335822
30
0.0
11
422.0
21
40.5484139618
31
0.0
0
LINE
5
630
100
AcDbEntity
100
AcDbLine
8
3
62
256
370
-1
6
ByLayer
10
422.0
20
40.5484139618
30
0.0
11
423.0
21
41.4917038705
31
0.0
0
LINE
5
631
100
AcDbEntity
100
AcDbLine
8
3
62
256
370
-1
6
ByLayer
10
423.0
20
41.4917038705
30
0.0
11
424.0
21
42.4528159729
31
0.0
0
LINE
5
632
100
AcDbEntity
100
AcDbLine
8
3
62
256
370
-1
6
ByLayer
10
424.0
20
42.4528159729
30
0.0
11
425.0
21
43.4314575051
31
0.0
0
LINE
5
633
100
AcDbEntity
100
AcDbLine
8
3
62
256
370
-1
6
ByLayer
10
425.0
20
43.4314575051
30
0.0
11
426.0
21
44.4273303633
31
0.0
0
LINE
5
634
100
AcDbEntity
100
AcDbLine
8
3
62
256
370
-1
6
ByLayer
10
426.0
20
44.4273303633
30
0.0
11
427.0
21
45.440131195
31
0.0
0
LINE
5
635
100
AcDbEntity
100
AcDbLine
8
3
62
256
370
-1
6
ByLayer
10
427.0
20
45.440131195
30
0.0
11
428.0
21
46.4695514913
31
0.0
0
LINE
5
636
100
AcDbEntity
100
AcDbLine
8
3
62
256
370
-1
6
ByLayer
10
428.0
20
46.4695514913
30
0.0
11
429.0
21
47.5152776808
31
0.0
0
LINE
5
637
100
AcDbEntity
100
AcDbLine
8
3
62
256
370
-1
6
ByLayer
10
429.0
20
47.5152776808
30
0.0
11
430.0
21
48.5769912251
31
0.0
0
LINE
5
638
100
AcDbEntity
100
AcDbLine
8
3
62
256
370
-1
6
ByLayer
10
430.0
20
48.5769912251
30
0.0
11
431.0
21
49.654368716
31
0.0
0
LINE
5
639
100
AcDbEntity
100
AcDbLine
8
3
62
256
370
-1
6
ByLayer
10
431.0
20
49.654368716
30
0.0
11
432.0
21
50.7470819739
31
0.0
0
LINE
5
640
100
AcDbEntity
100
AcDbLine
8
3
62
256
370
-1
6
ByLayer
10
432.0
20
50.7470819739
30
0.0
11
433.0
21
51.8547981478
31
0.0
0
LINE
5
641
100
AcDbEntity
100
AcDbLine
8
3
62
256
370
-1
6
ByLayer
10
433.0
20
51.8547981478
30
0.0
11
434.0
21
52.9771798166
31
0.0
0
LINE
5
642
100
AcDbEntity
100
AcDbLine
8
3
62
256
370
-1
6
ByLayer
10
434.0
20
52.9771798166
30
0.0
11
435.0
21
54.1138850919
31
0.0
0
LINE
5
643
100
AcDbEntity
100
AcDbLine
8
3
62
256
370
-1
6
ByLayer
10
435.0
20
54.1138850919
30
0.0
11
436.0
21
55.2645677223
31
0.0
0
LINE
5
644
100
AcDbEntity
100
AcDbLine
8
3
62
256
370
-1
6
ByLayer
10
436.0
20
55.2645677223
30
0.0
11
437.0
21
56.4288771988
31
0.0
0
LINE
5
645
100
AcDbEntity
100
AcDbLine
8
3
62
256
370
-1
6
ByLayer
10
437.0
20
56.4288771988
30
0.0
11
438.0
21
57.6064588613
31
0.0
0
LINE
5
646
100
AcDbEntity
100
AcDbLine
8
3
62
256
370
-1
6
ByLayer
10
438.0
20
57.6064588613
30
0.0
11
439.0
21
58.7969540072
31
0.0
0
LINE
5
647
100
AcDbEntity
100
AcDbLine
8
3
62
256
370
-1
6
ByLayer
10
439.0
20
58.7969540072
30
0.0
11
440.0
21
60.0
31
0.0
0
LINE
5
648
100
AcDbEntity
100
AcDbLine
8
3
62
256
370
-1
6
ByLayer
10
440.0
20
60.0
30
0.0
11
441.0
21
61.2152303803
31
0.0
0
LINE
5
649
100
AcDbEntity
100
AcDbLine
8
3
62
256
370
-1
6
ByLayer
10
441.0
20
61.2152303803
30
0.0
11
442.0
21
62.4422749771
31
0.0
0
LINE
5
650
100
AcDbEntity
100
AcDbLine
8
3
62
256
370
-1
6
ByLayer
10
442.0
20
62.4422749771
30
0.0
11
443.0
21
63.6807600208
31
0.0
0
LINE
5
651
100
AcDbEntity
100
AcDbLine
8
3
62
256
370
-1
6
ByLayer
10
443.0
20
63.6807600208
30
0.0
11
444.0
21
64.9303082569
31
0.0
0
LINE
5
652
100
AcDbEntity
100
AcDbLine
8
3
62
256
370
-1
6
ByLayer
10
444.0
20
64.9303082569
30
0.0
11
445.0
21
66.1905390607
31
0.0
0
LINE
5
653
100
AcDbEntity
100
AcDbLine
8
3
62
256
370
-1
6
ByLayer
10
445.0
20
66.1905390607
30
0.0
11
446.0
21
67.4610685539
31
0.0
0
LINE
5
654
100
AcDbEntity
100
AcDbLine
8
3
62
256
370
-1
6
ByLayer
10
446.0
20
67.4610685539
30
0.0
11
447.0
21
68.7415097209
31
0.0
0
LINE
5
655
100
AcDbEntity
100
AcDbLine
8
3
62
256
370
-1
6
ByLayer
10
447.0
20
68.7415097209
30
0.0
11
448.0
21
70.0314725267
31
0.0
0
LINE
5
656
100
AcDbEntity
100
AcDbLine
8
3
62
256
370
-1
6
ByLayer
10
448.0
20
70.0314725267
30
0.0
11
449.0
21
71.3305640364
31
0.0
0
LINE
5
657
100
AcDbEntity
100
AcDbLine
8
3
62
256
370
-1
6
ByLayer
10
449.0
20
71.3305640364
30
0.0
11
450.0
21
72.6383885339
31
0.0
0
LINE
5
658
100
AcDbEntity
100
AcDbLine
8
3
62
256
370
-1
6
ByLayer
10
450.0
20
72.6383885339
30
0.0
11
451.0
21
73.9545476434
31
0.0
0
LINE
5
659
100
AcDbEntity
100
AcDbLine
8
3
62
256
370
-1
6
ByLayer
10
451.0
20
73.9545476434
30
0.0
11
452.0
21
75.27864045
31
0.0
0
LINE
5
660
100
AcDbEntity
100
AcDbLine
8
3
62
256
370
-1
6
ByLayer
10
452.0
20
75.27864045
30
0.0
11
453.0
21
76.6102636222
31
0.0
0
LINE
5
661
100
AcDbEntity
100
AcDbLine
8
3
62
256
370
-1
6
ByLayer
10
453.0
20
76.6102636222
30
0.0
11
454.0
21
77.9490115346
31
0.0
0
LINE
5
662
100
AcDbEntity
100
AcDbLine
8
3
62
256
370
-1
6
ByLayer
10
454.0
20
77.9490115346
30
0.0
11
455.0
21
79.2944763918
31
0.0
0
LINE
5
663
100
AcDbEntity
100
AcDbLine
8
3
62
256
370
-1
6
ByLayer
10
455.0
20
79.2944763918
30
0.0
11
456.0
21
80.646248352
31
0.0
0
LINE
5
664
100
AcDbEntity
100
AcDbLine
8
3
62
256
370
-1
6
ByLayer
10
456.0
20
80.646248352
30
0.0
11
457.0
21
82.0039156525
31
0.0
0
LINE
5
665
100
AcDbEntity
100
AcDbLine
8
3
62
256
370
-1
6
ByLayer
10
457.0
20
82.0039156525
30
0.0
11
458.0
21
83.3670647346
31
0.0
0
LINE
5
666
100
AcDbEntity
100
AcDbLine
8
3
62
256
370
-1
6
ByLayer
10
458.0
20
83.3670647346
30
0.0
11
459.0
21
84.7352803699
31
0.0
0
LINE
5
667
100
AcDbEntity
100
AcDbLine
8
3
62
256
370
-1
6
ByLayer
10
459.0
20
84.7352803699
30
0.0
11
460.0
21
86.1081457866
31
0.0
0
LINE
5
668
100
AcDbEntity
100
AcDbLine
8
3
62
256
370
-1
6
ByLayer
10
460.0
20
86.1081457866
30
0.0
11
461.0
21
87.4852427968
31
0.0
0
LINE
5
669
100
AcDbEntity
100
AcDbLine
8
3
62
256
370
-1
6
ByLayer
10
461.0
20
87.4852427968
30
0.0
11
462.0
21
88.8661519232
31
0.0
0
LINE
5
670
100
AcDbEntity
100
AcDbLine
8
3
62
256
370
-1
6
ByLayer
10
462.0
20
88.8661519232
30
0.0
11
463.0
21
90.2504525276
31
0.0
0
LINE
5
671
100
AcDbEntity
100
AcDbLine
8
3
62
256
370
-1
6
ByLayer
10
463.0
20
90.2504525276
30
0.0
11
464.0
21
91.6377229386
31
0.0
0
LINE
5
672
100
AcDbEntity
100
AcDbLine
8
3
62
256
370
-1
6
ByLayer
10
464.0
20
91.6377229386
30
0.0
11
465.0
21
93.0275405802
31
0.0
0
LINE
5
673
100
AcDbEntity
100
AcDbLine
8
3
62
256
370
-1
6
ByLayer
10
465.0
20
93.0275405802
30
0.0
11
466.0
21
94.4194821005
31
0.0
0
LINE
5
674
100
AcDbEntity
100
AcDbLine
8
3
62
256
370
-1
6
ByLayer
10
466.0
20
94.4194821005
30
0.0
11
467.0
21
95.8131235006
31
0.0
0
LINE
5
675
100
AcDbEntity
100
AcDbLine
8
3
62
256
370
-1
6
ByLayer
10
467.0
20
95.8131235006
30
0.0
11
468.0
21
97.2080402638
31
0.0
0
LINE
5
676
100
AcDbEntity
100
AcDbLine
8
3
62
256
370
-1
6
ByLayer
10
468.0
20
97.2080402638
30
0.0
11
469.0
21
98.603807485
31
0.0
0
LINE
5
677
100
AcDbEntity
100
AcDbLine
8
3
62
256
370
-1
6
ByLayer
10
469.0
20
98.603807485
30
0.0
11
470.0
21
100.0
31
0.0
0
LINE
5
678
100
AcDbEntity
100
AcDbLine
8
3
62
256
370
-1
6
ByLayer
10
470.0
20
100.0
30
0.0
11
471.0
21
101.396192515
31
0.0
0
LINE
5
679
100
AcDbEntity
100
AcDbLine
8
3
62
256
370
-1
6
ByLayer
10
471.0
20
101.396192515
30
0.0
11
472.0
21
102.791959736
31
0.0
0
LINE
5
680
100
AcDbEntity
100
AcDbLine
8
3
62
256
370
-1
6
ByLayer
10
472.0
20
102.791959736
30
0.0
11
473.0
21
104.186876499
31
0.0
0
LINE
5
681
100
AcDbEntity
100
AcDbLine
8
3
62
256
370
-1
6
ByLayer
10
473.0
20
104.186876499
30
0.0
11
474.0
21
105.5805179
31
0.0
0
LINE
5
682
100
AcDbEntity
100
AcDbLine
8
3
62
256
370
-1
6
ByLayer
10
474.0
20
105.5805179
30
0.0
11
475.0
21
106.97245942
31
0.0
0
LINE
5
683
100
AcDbEntity
100
AcDbLine
8
3
62
256
370
-1
6
ByLayer
10
475.0
20
106.97245942
30
0.0
11
476.0
21
108.362277061
31
0.0
0
LINE
5
684
100
AcDbEntity
100
AcDbLine
8
3
62
256
370
-1
6
ByLayer
10
476.0
20
108.362277061
30
0.0
11
477.0
21
109.749547472
31
0.0
0
LINE
5
685
100
AcDbEntity
100
AcDbLine
8
3
62
256
370
-1
6
ByLayer
10
477.0
20
109.749547472
30
0.0
11
478.0
21
111.133848077
31
0.0
0
LINE
5
686
100
AcDbEntity
100
AcDbLine
8
3
62
256
370
-1
6
ByLayer
10
478.0
20
111.133848077
30
0.0
11
479.0
21
112.514757203
31
0.0
0
LINE
5
687
100
AcDbEntity
100
AcDbLine
8
3
62
256
370
-1
6
ByLayer
10
479.0
20
112.514757203
30
0.0
11
480.0
21
113.891854213
31
0.0
0
LINE
5
688
100
AcDbEntity
100
AcDbLine
8
3
62
256
370
-1
6
ByLayer
10
480.0
20
113.891854213
30
0.0
11
481.0
21
115.26471963
31
0.0
0
LINE
5
689
100
AcDbEntity
100
AcDbLine
8
3
62
256
370
-1
6
ByLayer
10
481.0
20
115.26471963
30
0.0
11
482.0
21
116.632935265
31
0.0
0
LINE
5
690
100
AcDbEntity
100
AcDbLine
8
3
62
256
370
-1
6
ByLayer
10
482.0
20
116.632935265
30
0.0
11
483.0
21
117.996084348
31
0.0
0
LINE
5
691
100
AcDbEntity
100
AcDbLine
8
3
62
256
370
-1
6
ByLayer
10
483.0
20
117.996084348
30
0.0
11
484.0
21
119.353751648
31
0.0
0
LINE
5
692
100
AcDbEntity
100
AcDbLine
8
3
62
256
370
-1
6
ByLayer
10
484.0
20
119.353751648
30
0.0
11
485.0
21
120.705523608
31
0.0
0
LINE
5
693
100
AcDbEntity
100
AcDbLine
8
3
62
256
370
-1
6
ByLayer
10
485.0
20
120.705523608
30
0.0
11
486.0
21
122.050988465
31
0.0
0
LINE
5
694
100
AcDbEntity
100
AcDbLine
8
3
62
256
370
-1
6
ByLayer
10
486.0
20
122.050988465
30
0.0
11
487.0
21
123.389736378
31
0.0
0
LINE
5
695
100
AcDbEntity
100
AcDbLine
8
3
62
256
370
-1
6
ByLayer
10
487.0
20
123.389736378
30
0.0
11
488.0
21
124.72135955
31
0.0
0
LINE
5
696
100
AcDbEntity
100
AcDbLine
8
3
62
256
370
-1
6
ByLayer
10
488.0
20
124.72135955
30
0.0
11
489.0
21
126.045452357
31
0.0
0
LINE
5
697
100
AcDbEntity
100
AcDbLine
8
3
62
256
370
-1
6
ByLayer
10
489.0
20
126.045452357
30
0.0
11
490.0
21
127.361611466
31
0.0
0
LINE
5
698
100
AcDbEntity
100
AcDbLine
8
3
62
256
370
-1
6
ByLayer
10
490.0
20
127.361611466
30
0.0
11
491.0
21
128.669435964
31
0.0
0
LINE
5
699
100
AcDbEntity
100
AcDbLine
8
3
62
256
370
-1
6
ByLayer
10
491.0
20
128.669435964
30
0.0
11
492.0
21
129.968527473
31
0.0
0
LINE
5
700
100
AcDbEntity
100
AcDbLine
8
3
62
256
370
-1
6
ByLayer
10
492.0
20
129.968527473
30
0.0
11
493.0
21
131.258490279
31
0.0
0
LINE
5
701
100
AcDbEntity
100
AcDbLine
8
3
62
256
370
-1
6
ByLayer
10
493.0
20
131.258490279
30
0.0
11
494.0
21
132.538931446
31
0.0
0
LINE
5
702
100
AcDbEntity
100
AcDbLine
8
3
62
256
370
-1
6
ByLayer
10
494.0
20
132.538931446
30
0.0
11
495.0
21
133.809460939
31
0.0
0
LINE
5
703
100
AcDbEntity
100
AcDbLine
8
3
62
256
370
-1
6
ByLayer
10
495.0
20
133.809460939
30
0.0
11
496.0
21
135.069691743
31
0.0
0
LINE
5
704
100
AcDbEntity
100
AcDbLine
8
3
62
256
370
-1
6
ByLayer
10
496.0
20
135.069691743
30
0.0
11
497.0
21
136.319239979
31
0.0
0
LINE
5
705
100
AcDbEntity
100
AcDbLine
8
3
62
256
370
-1
6
ByLayer
10
497.0
20
136.319239979
30
0.0
11
498.0
21
137.557725023
31
0.0
0
LINE
5
706
100
AcDbEntity
100
AcDbLine
8
3
62
256
370
-1
6
ByLayer
10
498.0
20
137.557725023
30
0.0
11
499.0
21
138.78476962
31
0.0
0
LINE
5
707
100
AcDbEntity
100
AcDbLine
8
3
62
256
370
-1
6
ByLayer
10
499.0
20
138.78476962
30
0.0
11
500.0
21
140.0
31
0.0
0
LINE
5
708
100
AcDbEntity
100
AcDbLine
8
3
62
256
370
-1
6
ByLayer
10
500.0
20
140.0
30
0.0
11
501.0
21
141.203045993
31
0.0
0
LINE
5
709
100
AcDbEntity
100
AcDbLine
8
3
62
256
370
-1
6
ByLayer
10
501.0
20
141.203045993
30
0.0
11
502.0
21
142.393541139
31
0.0
0
LINE
5
710
100
AcDbEntity
100
AcDbLine
8
3
62
256
370
-1
6
ByLayer
10
502.0
20
142.393541139
30
0.0
11
503.0
21
143.571122801
31
0.0
0
LINE
5
711
100
AcDbEntity
100
AcDbLine
8
3
62
256
370
-1
6
ByLayer
10
503.0
20
143.571122801
30
0.0
11
504.0
21
144.735432278
31
0.0
0
LINE
5
712
100
AcDbEntity
100
AcDbLine
8
3
62
256
370
-1
6
ByLayer
10
504.0
20
144.735432278
30
0.0
11
505.0
21
145.886114908
31
0.0
0
LINE
5
713
100
AcDbEntity
100
AcDbLine
8
3
62
256
370
-1
6
ByLayer
10
505.0
20
145.886114908
30
0.0
11
506.0
21
147.022820183
31
0.0
0
LINE
5
714
100
AcDbEntity
100
AcDbLine
8
3
62
256
370
-1
6
ByLayer
10
506.0
20
147.022820183
30
0.0
11
507.0
21
148.145201852
31
0.0
0
LINE
5
715
100
AcDbEntity
100
AcDbLine
8
3
62
256
370
-1
6
ByLayer
10
507.0
20
148.145201852
30
0.0
11
508.0
21
149.252918026
31
0.0
0
LINE
5
716
100
AcDbEntity
100
AcDbLine
8
3
62
256
370
-1
6
ByLayer
10
508.0
20
149.252918026
30
0.0
11
509.0
21
150.345631284
31
0.0
0
LINE
5
717
100
AcDbEntity
100
AcDbLine
8
3
62
256
370
-1
6
ByLayer
10
509.0
20
150.345631284
30
0.0
11
510.0
21
151.423008775
31
0.0
0
LINE
5
718
100
AcDbEntity
100
AcDbLine
8
3
62
256
370
-1
6
ByLayer
10
510.0
20
151.423008775
30
0.0
11
511.0
21
152.484722319
31
0.0
0
LINE
5
719
100
AcDbEntity
100
AcDbLine
8
3
62
256
370
-1
6
ByLayer
10
511.0
20
152.484722319
30
0.0
11
512.0
21
153.530448509
31
0.0
0
LINE
5
720
100
AcDbEntity
100
AcDbLine
8
3
62
256
370
-1
6
ByLayer
10
512.0
20
153.530448509
30
0.0
11
513.0
21
154.559868805
31
0.0
0
LINE
5
721
100
AcDbEntity
100
AcDbLine
8
3
62
256
370
-1
6
ByLayer
10
513.0
20
154.559868805
30
0.0
11
514.0
21
155.572669637
31
0.0
0
LINE
5
722
100
AcDbEntity
100
AcDbLine
8
3
62
256
370
-1
6
ByLayer
10
514.0
20
155.572669637
30
0.0
11
515.0
21
156.568542495
31
0.0
0
LINE
5
723
100
AcDbEntity
100
AcDbLine
8
3
62
256
370
-1
6
ByLayer
10
515.0
20
156.568542495
30
0.0
11
516.0
21
157.547184027
31
0.0
0
LINE
5
724
100
AcDbEntity
100
AcDbLine
8
3
62
256
370
-1
6
ByLayer
10
516.0
20
157.547184027
30
0.0
11
517.0
21
158.508296129
31
0.0
0
LINE
5
725
100
AcDbEntity
100
AcDbLine
8
3
62
256
370
-1
6
ByLayer
10
517.0
20
158.508296129
30
0.0
11
518.0
21
159.451586038
31
0.0
0
LINE
5
726
100
AcDbEntity
100
AcDbLine
8
3
62
256
370
-1
6
ByLayer
10
518.0
20
159.451586038
30
0.0
11
519.0
21
160.376766418
31
0.0
0
LINE
5
727
100
AcDbEntity
100
AcDbLine
8
3
62
256
370
-1
6
ByLayer
10
519.0
20
160.376766418
30
0.0
11
520.0
21
161.283555449
31
0.0
0
LINE
5
728
100
AcDbEntity
100
AcDbLine
8
3
62
256
370
-1
6
ByLayer
10
520.0
20
161.283555449
30
0.0
11
521.0
21
162.171676917
31
0.0
0
LINE
5
729
100
AcDbEntity
100
AcDbLine
8
3
62
256
370
-1
6
ByLayer
10
521.0
20
162.171676917
30
0.0
11
522.0
21
163.040860288
31
0.0
0
LINE
5
730
100
AcDbEntity
100
AcDbLine
8
3
62
256
370
-1
6
ByLayer
10
522.0
20
163.040860288
30
0.0
11
523.0
21
163.890840804
31
0.0
0
LINE
5
731
100
AcDbEntity
100
AcDbLine
8
3
62
256
370
-1
6
ByLayer
10
523.0
20
163.890840804
30
0.0
11
524.0
21
164.72135955
31
0.0
0
LINE
5
732
100
AcDbEntity
100
AcDbLine
8
3
62
256
370
-1
6
ByLayer
10
524.0
20
164.72135955
30
0.0
11
525.0
21
165.532163543
31
0.0
0
LINE
5
733
100
AcDbEntity
100
AcDbLine
8
3
62
256
370
-1
6
ByLayer
10
525.0
20
165.532163543
30
0.0
11
526.0
21
166.323005804
31
0.0
0
LINE
5
734
100
AcDbEntity
100
AcDbLine
8
3
62
256
370
-1
6
ByLayer
10
526.0
20
166.323005804
30
0.0
11
527.0
21
167.093645436
31
0.0
0
LINE
5
735
100
AcDbEntity
100
AcDbLine
8
3
62
256
370
-1
6
ByLayer
10
527.0
20
167.093645436
30
0.0
11
528.0
21
167.843847692
31
0.0
0
LINE
5
736
100
AcDbEntity
100
AcDbLine
8
3
62
256
370
-1
6
ByLayer
10
528.0
20
167.843847692
30
0.0
11
529.0
21
168.573384056
31
0.0
0
LINE
5
737
100
AcDbEntity
100
AcDbLine
8
3
62
256
370
-1
6
ByLayer
10
529.0
20
168.573384056
30
0.0
11
530.0
21
169.282032303
31
0.0
0
LINE
5
738
100
AcDbEntity
100
AcDbLine
8
3
62
256
370
-1
6
ByLayer
10
530.0
20
169.282032303
30
0.0
11
531.0
21
169.969576571
31
0.0
0
LINE
5
739
100
AcDbEntity
100
AcDbLine
8
3
62
256
370
-1
6
ByLayer
10
531.0
20
169.969576571
30
0.0
11
532.0
21
170.635807429
31
0.0
0
LINE
5
740
100
AcDbEntity
100
AcDbLine
8
3
62
256
370
-1
6
ByLayer
10
532.0
20
170.635807429
30
0.0
11
533.0
21
171.280521935
31
0.0
0
LINE
5
741
100
AcDbEntity
100
AcDbLine
8
3
62
256
370
-1
6
ByLayer
10
533.0
20
171.280521935
30
0.0
11
534.0
21
171.903523704
31
0.0
0
LINE
5
742
100
AcDbEntity
100
AcDbLine
8
3
62
256
370
-1
6
ByLayer
10
534.0
20
171.903523704
30
0.0
11
535.0
21
172.504622963
31
0.0
0
LINE
5
743
100
AcDbEntity
100
AcDbLine
8
3
62
256
370
-1
6
ByLayer
10
535.0
20
172.504622963
30
0.0
11
536.0
21
173.083636611
31
0.0
0
LINE
5
744
100
AcDbEntity
100
AcDbLine
8
3
62
256
370
-1
6
ByLayer
10
536.0
20
173.083636611
30
0.0
11
537.0
21
173.640388276
31
0.0
0
LINE
5
745
100
AcDbEntity
100
AcDbLine
8
3
62
256
370
-1
6
ByLayer
10
537.0
20
173.640388276
30
0.0
11
538.0
21
174.174708365
31
0.0
0
LINE
5
746
100
AcDbEntity
100
AcDbLine
8
3
62
256
370
-1
6
ByLayer
10
538.0
20
174.174708365
30
0.0
11
539.0
21
174.68643412
31
0.0
0
LINE
5
747
100
AcDbEntity
100
AcDbLine
8
3
62
256
370
-1
6
ByLayer
10
539.0
20
174.68643412
30
0.0
11
540.0
21
175.175409663
31
0.0
0
LINE
5
748
100
AcDbEntity
100
AcDbLine
8
3
62
256
370
-1
6
ByLayer
10
540.0
20
175.175409663
30
0.0
11
541.0
21
175.641486048
31
0.0
0
LINE
5
749
100
AcDbEntity
100
AcDbLine
8
3
62
256
370
-1
6
ByLayer
10
541.0
20
175.641486048
30
0.0
11
542.0
21
176.084521304
31
0.0
0
LINE
5
750
100
AcDbEntity
100
AcDbLine
8
3
62
256
370
-1
6
ByLayer
10
542.0
20
176.084521304
30
0.0
11
543.0
21
176.504380477
31
0.0
0
LINE
5
751
100
AcDbEntity
100
AcDbLine
8
3
62
256
370
-1
6
ByLayer
10
543.0
20
176.504380477
30
0.0
11
544.0
21
176.900935675
31
0.0
0
LINE
5
752
100
AcDbEntity
100
AcDbLine
8
3
62
256
370
-1
6
ByLayer
10
544.0
20
176.900935675
30
0.0
11
545.0
21
177.274066103
31
0.0
0
LINE
5
753
100
AcDbEntity
100
AcDbLine
8
3
62
256
370
-1
6
ByLayer
10
545.0
20
177.274066103
30
0.0
11
546.0
21
177.623658102
31
0.0
0
LINE
5
754
100
AcDbEntity
100
AcDbLine
8
3
62
256
370
-1
6
ByLayer
10
546.0
20
177.623658102
30
0.0
11
547.0
21
177.949605183
31
0.0
0
LINE
5
755
100
AcDbEntity
100
AcDbLine
8
3
62
256
370
-1
6
ByLayer
10
547.0
20
177.949605183
30
0.0
11
548.0
21
178.251808059
31
0.0
0
LINE
5
756
100
AcDbEntity
100
AcDbLine
8
3
62
256
370
-1
6
ByLayer
10
548.0
20
178.251808059
30
0.0
11
549.0
21
178.530174676
31
0.0
0
LINE
5
757
100
AcDbEntity
100
AcDbLine
8
3
62
256
370
-1
6
ByLayer
10
549.0
20
178.530174676
30
0.0
11
550.0
21
178.784620241
31
0.0
0
LINE
5
758
100
AcDbEntity
100
AcDbLine
8
3
62
256
370
-1
6
ByLayer
10
550.0
20
178.784620241
30
0.0
11
551.0
21
179.015067248
31
0.0
0
LINE
5
759
100
AcDbEntity
100
AcDbLine
8
3
62
256
370
-1
6
ByLayer
10
551.0
20
179.015067248
30
0.0
11
552.0
21
179.221445499
31
0.0
0
LINE
5
760
100
AcDbEntity
100
AcDbLine
8
3
62
256
370
-1
6
ByLayer
10
552.0
20
179.221445499
30
0.0
11
553.0
21
179.403692131
31
0.0
0
LINE
5
761
100
AcDbEntity
100
AcDbLine
8
3
62
256
370
-1
6
ByLayer
10
553.0
20
179.403692131
30
0.0
11
554.0
21
179.56175163
31
0.0
0
LINE
5
762
100
AcDbEntity
100
AcDbLine
8
3
62
256
370
-1
6
ByLayer
10
554.0
20
179.56175163
30
0.0
11
555.0
21
179.695575847
31
0.0
0
LINE
5
763
100
AcDbEntity
100
AcDbLine
8
3
62
256
370
-1
6
ByLayer
10
555.0
20
179.695575847
30
0.0
11
556.0
21
179.805124021
31
0.0
0
LINE
5
764
100
AcDbEntity
100
AcDbLine
8
3
62
256
370
-1
6
ByLayer
10
556.0
20
179.805124021
30
0.0
11
557.0
21
179.89036278
31
0.0
0
LINE
5
765
100
AcDbEntity
100
AcDbLine
8
3
62
256
370
-1
6
ByLayer
10
557.0
20
179.89036278
30
0.0
11
558.0
21
179.951266162
31
0.0
0
LINE
5
766
100
AcDbEntity
100
AcDbLine
8
3
62
256
370
-1
6
ByLayer
10
558.0
20
179.951266162
30
0.0
11
559.0
21
179.987815613
31
0.0
0
LINE
5
767
100
AcDbEntity
100
AcDbLine
8
3
62
256
370
-1
6
ByLayer
10
559.0
20
179.987815613
30
0.0
11
560.0
21
180.0
31
0.0
0
MTEXT
5
768
100
AcDbEntity
100
AcDbMText
8
2
62
256
370
-1
6
ByLayer
10
280.0
20
15.0
30
0.0
40
1
41
100.0
71
8
72
0
1
Sine Curve
7
normallatin1
50
0.0
73
1
44
1.0
0
MTEXT
5
769
100
AcDbEntity
100
AcDbMText
8
3
62
256
370
-1
6
ByLayer
10
380.0
20
15.0
30
0.0
40
1
41
100.0
71
8
72
0
1
Cosine Curve
7
normallatin1
50
0.0
73
1
44
1.0
0
ENDSEC
  0
SECTION
  2
OBJECTS
  0
DICTIONARY
  5
C
100
AcDbDictionary
280
0
281
1
  3
ACAD_GROUP
350
D
  3
ACAD_LAYOUT
350
1A
  3
ACAD_MLINESTYLE
350
17
  3
ACAD_PLOTSETTINGS
350
19
  3
ACAD_PLOTSTYLENAME
350
E
  3
AcDbVariableDictionary
350
48
  0
DICTIONARY
  5
D
100
AcDbDictionary
280
0
281
1
  0
ACDBDICTIONARYWDFLT
  5
E
100
AcDbDictionary
281
1
  3
Normal
350
F
100
AcDbDictionaryWithDefault
340
F
  0
ACDBPLACEHOLDER
  5
F
  0
DICTIONARY
  5
17
100
AcDbDictionary
280
0
281
1
  3
Standard
350
18
  0
MLINESTYLE
  5
18
100
AcDbMlineStyle
  2
STANDARD
 70
0
  3

 62
256
 51
90.0
 52
90.0
 71
2
 49
0.5
 62
256
  6
BYLAYER
 49
-0.5
 62
256
  6
BYLAYER
  0
DICTIONARY
  5
19
100
AcDbDictionary
280
0
281
1
  0
DICTIONARY
  5
1A
100
AcDbDictionary
281
1
  3
Layout1
350
1E
  3
Layout2
350
26
  3
Model
350
22
  0
LAYOUT
  5
1E
100
AcDbPlotSettings
  1

  2
C:\Program Files\AutoCAD 2002\plotters\DWF ePlot (optimized for plotting).pc3
  4

  6

 40
0.0
 41
0.0
 42
0.0
 43
0.0
 44
0.0
 45
0.0
 46
0.0
 47
0.0
 48
0.0
 49
0.0
140
0.0
141
0.0
142
1.0
143
1.0
 70
688
 72
0
 73
0
 74
5
  7

 75
16
147
1.0
148
0.0
149
0.0
100
AcDbLayout
  1
Layout1
 70
1
 71
1
 10
0.0
 20
0.0
 11
420.0
 21
297.0
 12
0.0
 22
0.0
 32
0.0
 14
100000000000000000000.0
 24
100000000000000000000.0
 34
100000000000000000000.0
 15
-100000000000000000000.0
 25
-100000000000000000000.0
 35
-100000000000000000000.0
146
0.0
 13
0.0
 23
0.0
 33
0.0
 16
1.0
 26
0.0
 36
0.0
 17
0.0
 27
1.0
 37
0.0
 76
0
330
1B
  0
LAYOUT
  5
22
100
AcDbPlotSettings
  1

  2
C:\Program Files\AutoCAD 2002\plotters\DWF ePlot (optimized for plotting).pc3
  4

  6

 40
0.0
 41
0.0
 42
0.0
 43
0.0
 44
0.0
 45
0.0
 46
0.0
 47
0.0
 48
0.0
 49
0.0
140
0.0
141
0.0
142
1.0
143
1.0
 70
1712
 72
0
 73
0
 74
0
  7

 75
0
147
1.0
148
0.0
149
0.0
100
AcDbLayout
  1
Model
 70
1
 71
0
 10
0.0
 20
0.0
 11
12.0
 21
9.0
 12
0.0
 22
0.0
 32
0.0
 14
0.0
 24
0.0
 34
0.0
 15
0.0
 25
0.0
 35
0.0
146
0.0
 13
0.0
 23
0.0
 33
0.0
 16
1.0
 26
0.0
 36
0.0
 17
0.0
 27
1.0
 37
0.0
 76
0
330
1F
  0
LAYOUT
  5
26
100
AcDbPlotSettings
  1

  2
C:\Program Files\AutoCAD 2002\plotters\DWF ePlot (optimized for plotting).pc3
  4

  6

 40
0.0
 41
0.0
 42
0.0
 43
0.0
 44
0.0
 45
0.0
 46
0.0
 47
0.0
 48
0.0
 49
0.0
140
0.0
141
0.0
142
1.0
143
1.0
 70
688
 72
0
 73
0
 74
5
  7

 75
16
147
1.0
148
0.0
149
0.0
100
AcDbLayout
  1
Layout2
 70
1
 71
2
 10
0.0
 20
0.0
 11
12.0
 21
9.0
 12
0.0
 22
0.0
 32
0.0
 14
0.0
 24
0.0
 34
0.0
 15
0.0
 25
0.0
 35
0.0
146
0.0
 13
0.0
 23
0.0
 33
0.0
 16
1.0
 26
0.0
 36
0.0
 17
0.0
 27
1.0
 37
0.0
 76
0
330
23
  0
DICTIONARY
  5
48
100
AcDbDictionary
281
1
  3
DIMASSOC
350
4A
  3
HIDETEXT
350
49
  0
DICTIONARYVAR
  5
49
100
DictionaryVariables
280
0
  1
2
  0
DICTIONARYVAR
  5
4A
100
DictionaryVariables
280
0
  1
1
  0
ENDSEC
  0
EOF
